<?xml version="1.0" encoding="UTF-8" standalone="no"?>
<!DOCTYPE svg PUBLIC "-//W3C//DTD SVG 1.1//EN"
 "http://www.w3.org/Graphics/SVG/1.1/DTD/svg11.dtd">
<!-- Generated by graphviz version 2.38.0 (20140413.2041)
 -->
<!-- Title: compoundmodel.cpp Pages: 1 -->
<!--zoomable 308 -->
<svg id="main" version="1.1" xmlns="http://www.w3.org/2000/svg" xmlns:xlink="http://www.w3.org/1999/xlink" xml:space="preserve" onload="init(evt)">
<style type="text/css"><![CDATA[
.edge:hover path { stroke: red; }
.edge:hover polygon { stroke: red; fill: red; }
]]></style>
<script type="text/javascript"><![CDATA[
var edges = document.getElementsByTagName('g');
if (edges && edges.length) {
  for (var i=0;i<edges.length;i++) {
    if (edges[i].id.substr(0,4)=='edge') {
      edges[i].setAttribute('class','edge');
    }
  }
}
]]></script>
        <defs>
                <circle id="rim" cx="0" cy="0" r="7"/>
                <circle id="rim2" cx="0" cy="0" r="3.5"/>
                <g id="zoomPlus">
                        <use xlink:href="#rim" fill="#404040">
                                <set attributeName="fill" to="#808080" begin="zoomplus.mouseover" end="zoomplus.mouseout"/>
                        </use>
                        <path d="M-4,0h8M0,-4v8" fill="none" stroke="white" stroke-width="1.5" pointer-events="none"/>
                </g>
                <g id="zoomMin">
                        <use xlink:href="#rim" fill="#404040">
                                <set attributeName="fill" to="#808080" begin="zoomminus.mouseover" end="zoomminus.mouseout"/>
                        </use>
                        <path d="M-4,0h8" fill="none" stroke="white" stroke-width="1.5" pointer-events="none"/>
                </g>
                <g id="dirArrow">
                        <path fill="none" stroke="white" stroke-width="1.5" d="M0,-3.0v7 M-2.5,-0.5L0,-3.0L2.5,-0.5"/>
                </g>
               <g id="resetDef">
                       <use xlink:href="#rim2" fill="#404040">
                               <set attributeName="fill" to="#808080" begin="reset.mouseover" end="reset.mouseout"/>
                       </use>
               </g>
        </defs>

<script type="text/javascript">
var viewWidth = 762;
var viewHeight = 308;
var sectionId = 'dynsection-0';
</script>
<script xlink:href="../../svgpan.js"/>
<svg id="graph" class="graph">
<g id="viewport">
<title>compoundmodel.cpp</title>
<polygon fill="white" stroke="none" points="-4,4 -4,-304 758.131,-304 758.131,4 -4,4"/>
<!-- Node0 -->
<g id="node1" class="node"><title>Node0</title>
<polygon fill="#bfbfbf" stroke="black" points="504.631,-280.5 504.631,-299.5 611.631,-299.5 611.631,-280.5 504.631,-280.5"/>
<text text-anchor="middle" x="558.131" y="-287.5" font-family="Helvetica,sans-Serif" font-size="10.00">compoundmodel.cpp</text>
</g>
<!-- Node1 -->
<g id="node2" class="node"><title>Node1</title>
<g id="a_node2"><a xlink:href="../../df/d5e/compoundmodel_8h.html" target="_top" xlink:title="compoundmodel.h">
<polygon fill="white" stroke="black" points="464.131,-224.5 464.131,-243.5 560.131,-243.5 560.131,-224.5 464.131,-224.5"/>
<text text-anchor="middle" x="512.131" y="-231.5" font-family="Helvetica,sans-Serif" font-size="10.00">compoundmodel.h</text>
</a>
</g>
</g>
<!-- Node0&#45;&gt;Node1 -->
<g id="edge1" class="edge"><title>Node0&#45;&gt;Node1</title>
<path fill="none" stroke="midnightblue" d="M550.535,-280.083C543.903,-272.298 534.11,-260.801 526.073,-251.367"/>
<polygon fill="midnightblue" stroke="midnightblue" points="528.734,-249.094 519.585,-243.751 523.406,-253.633 528.734,-249.094"/>
</g>
<!-- Node17 -->
<g id="node18" class="node"><title>Node17</title>
<polygon fill="white" stroke="#bfbfbf" points="578.631,-224.5 578.631,-243.5 631.631,-243.5 631.631,-224.5 578.631,-224.5"/>
<text text-anchor="middle" x="605.131" y="-231.5" font-family="Helvetica,sans-Serif" font-size="10.00">QDebug</text>
</g>
<!-- Node0&#45;&gt;Node17 -->
<g id="edge27" class="edge"><title>Node0&#45;&gt;Node17</title>
<path fill="none" stroke="midnightblue" d="M565.892,-280.083C572.668,-272.298 582.674,-260.801 590.886,-251.367"/>
<polygon fill="midnightblue" stroke="midnightblue" points="593.589,-253.592 597.514,-243.751 588.309,-248.996 593.589,-253.592"/>
</g>
<!-- Node2 -->
<g id="node3" class="node"><title>Node2</title>
<g id="a_node3"><a xlink:href="../../d9/dcf/region_model_8h.html" target="_top" xlink:title="regionModel.h">
<polygon fill="white" stroke="black" points="443.631,-56.5 443.631,-75.5 520.631,-75.5 520.631,-56.5 443.631,-56.5"/>
<text text-anchor="middle" x="482.131" y="-63.5" font-family="Helvetica,sans-Serif" font-size="10.00">regionModel.h</text>
</a>
</g>
</g>
<!-- Node1&#45;&gt;Node2 -->
<g id="edge2" class="edge"><title>Node1&#45;&gt;Node2</title>
<path fill="none" stroke="midnightblue" d="M529.632,-224.465C542.918,-216.917 560.207,-204.533 568.131,-188 582.73,-157.54 585.623,-140.896 568.131,-112 558.72,-96.4551 541.978,-86.0215 525.751,-79.1515"/>
<polygon fill="midnightblue" stroke="midnightblue" points="526.905,-75.8452 516.315,-75.5065 524.382,-82.3749 526.905,-75.8452"/>
</g>
<!-- Node4 -->
<g id="node5" class="node"><title>Node4</title>
<g id="a_node5"><a xlink:href="../../d7/d51/histogrammodel_8h.html" target="_top" xlink:title="histogrammodel.h">
<polygon fill="white" stroke="black" points="465.131,-168.5 465.131,-187.5 559.131,-187.5 559.131,-168.5 465.131,-168.5"/>
<text text-anchor="middle" x="512.131" y="-175.5" font-family="Helvetica,sans-Serif" font-size="10.00">histogrammodel.h</text>
</a>
</g>
</g>
<!-- Node1&#45;&gt;Node4 -->
<g id="edge4" class="edge"><title>Node1&#45;&gt;Node4</title>
<path fill="none" stroke="midnightblue" d="M512.131,-224.083C512.131,-217.006 512.131,-206.861 512.131,-197.986"/>
<polygon fill="midnightblue" stroke="midnightblue" points="515.631,-197.751 512.131,-187.751 508.631,-197.751 515.631,-197.751"/>
</g>
<!-- Node16 -->
<g id="node17" class="node"><title>Node16</title>
<g id="a_node17"><a xlink:href="../../d9/d9a/probabilitymodel_8h.html" target="_top" xlink:title="probabilitymodel.h">
<polygon fill="white" stroke="black" points="363.631,-112.5 363.631,-131.5 458.631,-131.5 458.631,-112.5 363.631,-112.5"/>
<text text-anchor="middle" x="411.131" y="-119.5" font-family="Helvetica,sans-Serif" font-size="10.00">probabilitymodel.h</text>
</a>
</g>
</g>
<!-- Node1&#45;&gt;Node16 -->
<g id="edge22" class="edge"><title>Node1&#45;&gt;Node16</title>
<path fill="none" stroke="midnightblue" d="M499.241,-224.284C487.284,-215.835 469.389,-202.24 456.131,-188 442.433,-173.288 429.681,-154.136 421.274,-140.439"/>
<polygon fill="midnightblue" stroke="midnightblue" points="424.107,-138.356 415.97,-131.571 418.1,-141.95 424.107,-138.356"/>
</g>
<!-- Node3 -->
<g id="node4" class="node"><title>Node3</title>
<polygon fill="white" stroke="#bfbfbf" points="393.131,-0.5 393.131,-19.5 437.131,-19.5 437.131,-0.5 393.131,-0.5"/>
<text text-anchor="middle" x="415.131" y="-7.5" font-family="Helvetica,sans-Serif" font-size="10.00">vector</text>
</g>
<!-- Node2&#45;&gt;Node3 -->
<g id="edge3" class="edge"><title>Node2&#45;&gt;Node3</title>
<path fill="none" stroke="midnightblue" d="M471.366,-56.324C461.365,-48.2631 446.244,-36.0765 434.2,-26.3695"/>
<polygon fill="midnightblue" stroke="midnightblue" points="436.074,-23.3841 426.091,-19.8339 431.681,-28.8343 436.074,-23.3841"/>
</g>
<!-- Node4&#45;&gt;Node2 -->
<g id="edge5" class="edge"><title>Node4&#45;&gt;Node2</title>
<path fill="none" stroke="midnightblue" d="M509.777,-168.368C504.913,-150.537 493.666,-109.295 487.114,-85.2717"/>
<polygon fill="midnightblue" stroke="midnightblue" points="490.482,-84.3181 484.474,-75.5914 483.728,-86.16 490.482,-84.3181"/>
</g>
<!-- Node4&#45;&gt;Node3 -->
<g id="edge20" class="edge"><title>Node4&#45;&gt;Node3</title>
<path fill="none" stroke="midnightblue" d="M464.937,-175.052C350.264,-169.216 62.1972,-147.582 5.13074,-76 -43.0867,-15.5179 277.813,-10.7638 382.727,-10.8059"/>
<polygon fill="midnightblue" stroke="midnightblue" points="383.021,-14.3063 393.028,-10.8261 383.035,-7.30636 383.021,-14.3063"/>
</g>
<!-- Node5 -->
<g id="node6" class="node"><title>Node5</title>
<g id="a_node6"><a xlink:href="../../d1/d77/node_8h.html" target="_top" xlink:title="node.h">
<polygon fill="white" stroke="black" points="259.131,-112.5 259.131,-131.5 305.131,-131.5 305.131,-112.5 259.131,-112.5"/>
<text text-anchor="middle" x="282.131" y="-119.5" font-family="Helvetica,sans-Serif" font-size="10.00">node.h</text>
</a>
</g>
</g>
<!-- Node4&#45;&gt;Node5 -->
<g id="edge6" class="edge"><title>Node4&#45;&gt;Node5</title>
<path fill="none" stroke="midnightblue" d="M475.687,-168.444C431.57,-158.086 357.91,-140.792 315.313,-130.791"/>
<polygon fill="midnightblue" stroke="midnightblue" points="315.98,-127.352 305.444,-128.474 314.38,-134.167 315.98,-127.352"/>
</g>
<!-- Node11 -->
<g id="node12" class="node"><title>Node11</title>
<g id="a_node12"><a xlink:href="../../d7/dc5/statistics_8h.html" target="_top" xlink:title="statistics.h">
<polygon fill="white" stroke="black" points="653.631,-112.5 653.631,-131.5 718.631,-131.5 718.631,-112.5 653.631,-112.5"/>
<text text-anchor="middle" x="686.131" y="-119.5" font-family="Helvetica,sans-Serif" font-size="10.00">statistics.h</text>
</a>
</g>
</g>
<!-- Node4&#45;&gt;Node11 -->
<g id="edge14" class="edge"><title>Node4&#45;&gt;Node11</title>
<path fill="none" stroke="midnightblue" d="M539.702,-168.444C569.228,-159.28 616.249,-144.688 649.013,-134.519"/>
<polygon fill="midnightblue" stroke="midnightblue" points="650.176,-137.823 658.689,-131.516 648.101,-131.138 650.176,-137.823"/>
</g>
<!-- Node13 -->
<g id="node14" class="node"><title>Node13</title>
<polygon fill="white" stroke="#bfbfbf" points="604.131,-56.5 604.131,-75.5 658.131,-75.5 658.131,-56.5 604.131,-56.5"/>
<text text-anchor="middle" x="631.131" y="-63.5" font-family="Helvetica,sans-Serif" font-size="10.00">iostream</text>
</g>
<!-- Node4&#45;&gt;Node13 -->
<g id="edge19" class="edge"><title>Node4&#45;&gt;Node13</title>
<path fill="none" stroke="midnightblue" d="M523.627,-168.432C535.193,-159.659 553.38,-145.441 568.131,-132 585.446,-116.222 603.957,-96.7805 616.4,-83.2911"/>
<polygon fill="midnightblue" stroke="midnightblue" points="619.133,-85.4889 623.299,-75.7473 613.967,-80.7649 619.133,-85.4889"/>
</g>
<!-- Node15 -->
<g id="node16" class="node"><title>Node15</title>
<polygon fill="white" stroke="#bfbfbf" points="515.131,-112.5 515.131,-131.5 559.131,-131.5 559.131,-112.5 515.131,-112.5"/>
<text text-anchor="middle" x="537.131" y="-119.5" font-family="Helvetica,sans-Serif" font-size="10.00">omp.h</text>
</g>
<!-- Node4&#45;&gt;Node15 -->
<g id="edge21" class="edge"><title>Node4&#45;&gt;Node15</title>
<path fill="none" stroke="midnightblue" d="M516.259,-168.083C519.645,-160.77 524.547,-150.181 528.75,-141.103"/>
<polygon fill="midnightblue" stroke="midnightblue" points="532.054,-142.296 533.079,-131.751 525.702,-139.355 532.054,-142.296"/>
</g>
<!-- Node5&#45;&gt;Node2 -->
<g id="edge12" class="edge"><title>Node5&#45;&gt;Node2</title>
<path fill="none" stroke="midnightblue" d="M305.465,-114.7C338.592,-105.755 399.772,-89.2367 440.715,-78.1823"/>
<polygon fill="midnightblue" stroke="midnightblue" points="441.66,-81.5524 450.402,-75.5667 439.836,-74.7944 441.66,-81.5524"/>
</g>
<!-- Node5&#45;&gt;Node3 -->
<g id="edge7" class="edge"><title>Node5&#45;&gt;Node3</title>
<path fill="none" stroke="midnightblue" d="M278.264,-112.467C272.833,-99.0597 264.899,-72.8544 277.131,-56 301.067,-23.0175 349.832,-13.7482 382.505,-11.3942"/>
<polygon fill="midnightblue" stroke="midnightblue" points="383.11,-14.8669 392.909,-10.8368 382.736,-7.87693 383.11,-14.8669"/>
</g>
<!-- Node6 -->
<g id="node7" class="node"><title>Node6</title>
<polygon fill="white" stroke="#bfbfbf" points="286.631,-56.5 286.631,-75.5 325.631,-75.5 325.631,-56.5 286.631,-56.5"/>
<text text-anchor="middle" x="306.131" y="-63.5" font-family="Helvetica,sans-Serif" font-size="10.00">QSet</text>
</g>
<!-- Node5&#45;&gt;Node6 -->
<g id="edge8" class="edge"><title>Node5&#45;&gt;Node6</title>
<path fill="none" stroke="midnightblue" d="M286.094,-112.083C289.344,-104.77 294.05,-94.1814 298.085,-85.1034"/>
<polygon fill="midnightblue" stroke="midnightblue" points="301.378,-86.3107 302.241,-75.7511 294.982,-83.4677 301.378,-86.3107"/>
</g>
<!-- Node7 -->
<g id="node8" class="node"><title>Node7</title>
<polygon fill="white" stroke="#bfbfbf" points="343.631,-56.5 343.631,-75.5 386.631,-75.5 386.631,-56.5 343.631,-56.5"/>
<text text-anchor="middle" x="365.131" y="-63.5" font-family="Helvetica,sans-Serif" font-size="10.00">gdal.h</text>
</g>
<!-- Node5&#45;&gt;Node7 -->
<g id="edge9" class="edge"><title>Node5&#45;&gt;Node7</title>
<path fill="none" stroke="midnightblue" d="M295.466,-112.324C308.293,-103.979 327.916,-91.2122 343.071,-81.3524"/>
<polygon fill="midnightblue" stroke="midnightblue" points="345.355,-84.0417 351.828,-75.6545 341.538,-78.1742 345.355,-84.0417"/>
</g>
<!-- Node8 -->
<g id="node9" class="node"><title>Node8</title>
<polygon fill="white" stroke="#bfbfbf" points="14.1307,-56.5 14.1307,-75.5 78.1307,-75.5 78.1307,-56.5 14.1307,-56.5"/>
<text text-anchor="middle" x="46.1307" y="-63.5" font-family="Helvetica,sans-Serif" font-size="10.00">gdal_priv.h</text>
</g>
<!-- Node5&#45;&gt;Node8 -->
<g id="edge10" class="edge"><title>Node5&#45;&gt;Node8</title>
<path fill="none" stroke="midnightblue" d="M259.072,-115.724C219.467,-106.662 137.971,-88.0144 88.0795,-76.5984"/>
<polygon fill="midnightblue" stroke="midnightblue" points="88.7706,-73.1662 78.2418,-74.3475 87.2092,-79.9898 88.7706,-73.1662"/>
</g>
<!-- Node9 -->
<g id="node10" class="node"><title>Node9</title>
<polygon fill="white" stroke="#bfbfbf" points="96.1307,-56.5 96.1307,-75.5 166.131,-75.5 166.131,-56.5 96.1307,-56.5"/>
<text text-anchor="middle" x="131.131" y="-63.5" font-family="Helvetica,sans-Serif" font-size="10.00">opencv/cv.h</text>
</g>
<!-- Node5&#45;&gt;Node9 -->
<g id="edge11" class="edge"><title>Node5&#45;&gt;Node9</title>
<path fill="none" stroke="midnightblue" d="M258.868,-112.681C233.633,-103.656 193.127,-89.1709 164.503,-78.9345"/>
<polygon fill="midnightblue" stroke="midnightblue" points="165.513,-75.5787 154.919,-75.5069 163.156,-82.1699 165.513,-75.5787"/>
</g>
<!-- Node10 -->
<g id="node11" class="node"><title>Node10</title>
<g id="a_node11"><a xlink:href="../../db/dc3/edge_8h.html" target="_top" xlink:title="edge.h">
<polygon fill="white" stroke="black" points="184.131,-56.5 184.131,-75.5 230.131,-75.5 230.131,-56.5 184.131,-56.5"/>
<text text-anchor="middle" x="207.131" y="-63.5" font-family="Helvetica,sans-Serif" font-size="10.00">edge.h</text>
</a>
</g>
</g>
<!-- Node5&#45;&gt;Node10 -->
<g id="edge13" class="edge"><title>Node5&#45;&gt;Node10</title>
<path fill="none" stroke="midnightblue" d="M270.081,-112.324C258.668,-104.107 241.3,-91.6017 227.696,-81.8069"/>
<polygon fill="midnightblue" stroke="midnightblue" points="229.56,-78.8366 219.4,-75.8339 225.47,-84.5174 229.56,-78.8366"/>
</g>
<!-- Node11&#45;&gt;Node3 -->
<g id="edge15" class="edge"><title>Node11&#45;&gt;Node3</title>
<path fill="none" stroke="midnightblue" d="M686.296,-112.355C686.06,-98.3021 683.403,-70.6085 667.131,-56 635.231,-27.3627 508.302,-16.3317 447.684,-12.6341"/>
<polygon fill="midnightblue" stroke="midnightblue" points="447.703,-9.12938 437.517,-12.0451 447.298,-16.1177 447.703,-9.12938"/>
</g>
<!-- Node12 -->
<g id="node13" class="node"><title>Node12</title>
<polygon fill="white" stroke="#bfbfbf" points="538.631,-56.5 538.631,-75.5 585.631,-75.5 585.631,-56.5 538.631,-56.5"/>
<text text-anchor="middle" x="562.131" y="-63.5" font-family="Helvetica,sans-Serif" font-size="10.00">math.h</text>
</g>
<!-- Node11&#45;&gt;Node12 -->
<g id="edge16" class="edge"><title>Node11&#45;&gt;Node12</title>
<path fill="none" stroke="midnightblue" d="M666.483,-112.444C646.166,-103.596 614.228,-89.6875 591.033,-79.5865"/>
<polygon fill="midnightblue" stroke="midnightblue" points="592.253,-76.3002 581.687,-75.5164 589.458,-82.7181 592.253,-76.3002"/>
</g>
<!-- Node11&#45;&gt;Node13 -->
<g id="edge17" class="edge"><title>Node11&#45;&gt;Node13</title>
<path fill="none" stroke="midnightblue" d="M677.049,-112.083C668.959,-104.141 656.935,-92.3354 647.221,-82.7973"/>
<polygon fill="midnightblue" stroke="midnightblue" points="649.632,-80.2595 640.044,-75.7511 644.727,-85.2545 649.632,-80.2595"/>
</g>
<!-- Node14 -->
<g id="node15" class="node"><title>Node14</title>
<polygon fill="white" stroke="#bfbfbf" points="714.131,-56.5 714.131,-75.5 754.131,-75.5 754.131,-56.5 714.131,-56.5"/>
<text text-anchor="middle" x="734.131" y="-63.5" font-family="Helvetica,sans-Serif" font-size="10.00">limits</text>
</g>
<!-- Node11&#45;&gt;Node14 -->
<g id="edge18" class="edge"><title>Node11&#45;&gt;Node14</title>
<path fill="none" stroke="midnightblue" d="M694.057,-112.083C700.977,-104.298 711.196,-92.8015 719.583,-83.3665"/>
<polygon fill="midnightblue" stroke="midnightblue" points="722.324,-85.5505 726.352,-75.7511 717.092,-80.8999 722.324,-85.5505"/>
</g>
<!-- Node16&#45;&gt;Node2 -->
<g id="edge23" class="edge"><title>Node16&#45;&gt;Node2</title>
<path fill="none" stroke="midnightblue" d="M422.538,-112.324C433.24,-104.185 449.471,-91.8395 462.294,-82.0874"/>
<polygon fill="midnightblue" stroke="midnightblue" points="464.675,-84.6734 470.516,-75.8339 460.438,-79.1018 464.675,-84.6734"/>
</g>
<!-- Node16&#45;&gt;Node3 -->
<g id="edge24" class="edge"><title>Node16&#45;&gt;Node3</title>
<path fill="none" stroke="midnightblue" d="M411.445,-112.368C412.09,-94.617 413.579,-53.6664 414.454,-29.5974"/>
<polygon fill="midnightblue" stroke="midnightblue" points="417.953,-29.712 414.818,-19.5914 410.957,-29.4576 417.953,-29.712"/>
</g>
<!-- Node16&#45;&gt;Node12 -->
<g id="edge25" class="edge"><title>Node16&#45;&gt;Node12</title>
<path fill="none" stroke="midnightblue" d="M435.057,-112.444C460.349,-103.399 500.433,-89.064 528.811,-78.9158"/>
<polygon fill="midnightblue" stroke="midnightblue" points="530.079,-82.1794 538.316,-75.5164 527.722,-75.5882 530.079,-82.1794"/>
</g>
<!-- Node16&#45;&gt;Node13 -->
<g id="edge26" class="edge"><title>Node16&#45;&gt;Node13</title>
<path fill="none" stroke="midnightblue" d="M445.99,-112.444C486.424,-102.519 552.803,-86.2259 594.128,-76.0826"/>
<polygon fill="midnightblue" stroke="midnightblue" points="595.186,-79.4268 604.063,-73.6439 593.517,-72.6286 595.186,-79.4268"/>
</g>
</g>
</svg>
        <g id="navigator" transform="translate(0 0)" fill="#404254">
                <rect fill="#f2f5e9" fill-opacity="0.5" stroke="#606060" stroke-width=".5" x="0" y="0" width="60" height="60"/>
                <use id="zoomplus" xlink:href="#zoomPlus" x="17" y="9" onmousedown="handleZoom(evt,'in')"/>
                <use id="zoomminus" xlink:href="#zoomMin" x="42" y="9" onmousedown="handleZoom(evt,'out')"/>
                <use id="reset" xlink:href="#resetDef" x="30" y="36" onmousedown="handleReset()"/>
                <g id="arrowUp" xlink:href="#dirArrow" transform="translate(30 24)" onmousedown="handlePan(0,-1)">
                  <use xlink:href="#rim" fill="#404040">
                        <set attributeName="fill" to="#808080" begin="arrowUp.mouseover" end="arrowUp.mouseout"/>
                  </use>
                  <path fill="none" stroke="white" stroke-width="1.5" d="M0,-3.0v7 M-2.5,-0.5L0,-3.0L2.5,-0.5"/>
                </g>
                <g id="arrowRight" xlink:href="#dirArrow" transform="rotate(90) translate(36 -43)" onmousedown="handlePan(1,0)">
                  <use xlink:href="#rim" fill="#404040">
                        <set attributeName="fill" to="#808080" begin="arrowRight.mouseover" end="arrowRight.mouseout"/>
                  </use>
                  <path fill="none" stroke="white" stroke-width="1.5" d="M0,-3.0v7 M-2.5,-0.5L0,-3.0L2.5,-0.5"/>
                </g>
                <g id="arrowDown" xlink:href="#dirArrow" transform="rotate(180) translate(-30 -48)" onmousedown="handlePan(0,1)">
                  <use xlink:href="#rim" fill="#404040">
                        <set attributeName="fill" to="#808080" begin="arrowDown.mouseover" end="arrowDown.mouseout"/>
                  </use>
                  <path fill="none" stroke="white" stroke-width="1.5" d="M0,-3.0v7 M-2.5,-0.5L0,-3.0L2.5,-0.5"/>
                </g>
                <g id="arrowLeft" xlink:href="#dirArrow" transform="rotate(270) translate(-36 17)" onmousedown="handlePan(-1,0)">
                  <use xlink:href="#rim" fill="#404040">
                        <set attributeName="fill" to="#808080" begin="arrowLeft.mouseover" end="arrowLeft.mouseout"/>
                  </use>
                  <path fill="none" stroke="white" stroke-width="1.5" d="M0,-3.0v7 M-2.5,-0.5L0,-3.0L2.5,-0.5"/>
                </g>
        </g>
        <svg viewBox="0 0 15 15" width="100%" height="30px" preserveAspectRatio="xMaxYMin meet">
         <g id="arrow_out" transform="scale(0.3 0.3)">
          <a xlink:href="compoundmodel_8cpp__incl_org.svg" target="_base">
           <rect id="button" ry="5" rx="5" y="6" x="6" height="38" width="38"
                fill="#f2f5e9" fill-opacity="0.5" stroke="#606060" stroke-width="1.0"/>
           <path id="arrow"
             d="M 11.500037,31.436501 C 11.940474,20.09759 22.043105,11.32322 32.158766,21.979434 L 37.068811,17.246167 C 37.068811,17.246167 37.088388,32 37.088388,32 L 22.160133,31.978069 C 22.160133,31.978069 26.997745,27.140456 26.997745,27.140456 C 18.528582,18.264221 13.291696,25.230495 11.500037,31.436501 z"
             style="fill:#404040;"/>
          </a>
         </g>
        </svg>
</svg>
