<?xml version="1.0" encoding="UTF-8" standalone="no"?>
<!DOCTYPE svg PUBLIC "-//W3C//DTD SVG 1.1//EN"
 "http://www.w3.org/Graphics/SVG/1.1/DTD/svg11.dtd">
<!-- Generated by graphviz version 2.38.0 (20140413.2041)
 -->
<!-- Title: io.h Pages: 1 -->
<svg width="463pt" height="252pt"
 viewBox="0.00 0.00 463.00 252.00" xmlns="http://www.w3.org/2000/svg" xmlns:xlink="http://www.w3.org/1999/xlink">
<g id="graph0" class="graph" transform="scale(1 1) rotate(0) translate(4 248)">
<title>io.h</title>
<polygon fill="white" stroke="none" points="-4,4 -4,-248 459,-248 459,4 -4,4"/>
<!-- Node20 -->
<g id="node1" class="node"><title>Node20</title>
<polygon fill="#bfbfbf" stroke="black" points="307.5,-224.5 307.5,-243.5 339.5,-243.5 339.5,-224.5 307.5,-224.5"/>
<text text-anchor="middle" x="323.5" y="-231.5" font-family="Helvetica,sans-Serif" font-size="10.00">io.h</text>
</g>
<!-- Node21 -->
<g id="node2" class="node"><title>Node21</title>
<g id="a_node2"><a xlink:href="../../d7/da7/hoovermetrics_8h.html" target="_top" xlink:title="hoovermetrics.h">
<polygon fill="white" stroke="black" points="140.5,-112.5 140.5,-131.5 226.5,-131.5 226.5,-112.5 140.5,-112.5"/>
<text text-anchor="middle" x="183.5" y="-119.5" font-family="Helvetica,sans-Serif" font-size="10.00">hoovermetrics.h</text>
</a>
</g>
</g>
<!-- Node20&#45;&gt;Node21 -->
<g id="edge1" class="edge"><title>Node20&#45;&gt;Node21</title>
<path fill="none" stroke="midnightblue" d="M304.559,-218.118C274.842,-194.769 218.207,-150.27 194.435,-131.591"/>
<polygon fill="midnightblue" stroke="midnightblue" points="302.489,-220.942 312.514,-224.368 306.814,-215.438 302.489,-220.942"/>
</g>
<!-- Node26 -->
<g id="node7" class="node"><title>Node26</title>
<g id="a_node7"><a xlink:href="../../d3/d94/imageblock_8h.html" target="_top" xlink:title="imageblock.h">
<polygon fill="white" stroke="black" points="319.5,-168.5 319.5,-187.5 393.5,-187.5 393.5,-168.5 319.5,-168.5"/>
<text text-anchor="middle" x="356.5" y="-175.5" font-family="Helvetica,sans-Serif" font-size="10.00">imageblock.h</text>
</a>
</g>
</g>
<!-- Node20&#45;&gt;Node26 -->
<g id="edge7" class="edge"><title>Node20&#45;&gt;Node26</title>
<path fill="none" stroke="midnightblue" d="M334.332,-215.275C339.972,-206.045 346.618,-195.17 351.152,-187.751"/>
<polygon fill="midnightblue" stroke="midnightblue" points="331.177,-213.725 328.949,-224.083 337.15,-217.375 331.177,-213.725"/>
</g>
<!-- Node27 -->
<g id="node8" class="node"><title>Node27</title>
<g id="a_node8"><a xlink:href="../../d5/db2/image_8h.html" target="_top" xlink:title="image.h">
<polygon fill="white" stroke="black" points="299,-112.5 299,-131.5 350,-131.5 350,-112.5 299,-112.5"/>
<text text-anchor="middle" x="324.5" y="-119.5" font-family="Helvetica,sans-Serif" font-size="10.00">image.h</text>
</a>
</g>
</g>
<!-- Node20&#45;&gt;Node27 -->
<g id="edge14" class="edge"><title>Node20&#45;&gt;Node27</title>
<path fill="none" stroke="midnightblue" d="M316.336,-214.607C312.139,-201.635 308.096,-183.822 310.5,-168 312.467,-155.058 317.444,-140.715 320.9,-131.778"/>
<polygon fill="midnightblue" stroke="midnightblue" points="313.105,-215.969 319.758,-224.215 319.699,-213.62 313.105,-215.969"/>
</g>
<!-- Node32 -->
<g id="node13" class="node"><title>Node32</title>
<g id="a_node13"><a xlink:href="../../d5/d5a/io_8cpp.html" target="_top" xlink:title="io.cpp">
<polygon fill="white" stroke="black" points="412,-168.5 412,-187.5 455,-187.5 455,-168.5 412,-168.5"/>
<text text-anchor="middle" x="433.5" y="-175.5" font-family="Helvetica,sans-Serif" font-size="10.00">io.cpp</text>
</a>
</g>
</g>
<!-- Node20&#45;&gt;Node32 -->
<g id="edge15" class="edge"><title>Node20&#45;&gt;Node32</title>
<path fill="none" stroke="midnightblue" d="M348.856,-220.553C369.471,-210.433 398.009,-196.423 416.112,-187.536"/>
<polygon fill="midnightblue" stroke="midnightblue" points="347.165,-217.483 339.731,-225.032 350.25,-223.767 347.165,-217.483"/>
</g>
<!-- Node22 -->
<g id="node3" class="node"><title>Node22</title>
<g id="a_node3"><a xlink:href="../../dc/d17/hoovercalculator_8h.html" target="_top" xlink:title="hoovercalculator.h">
<polygon fill="white" stroke="black" points="25.5,-56.5 25.5,-75.5 121.5,-75.5 121.5,-56.5 25.5,-56.5"/>
<text text-anchor="middle" x="73.5" y="-63.5" font-family="Helvetica,sans-Serif" font-size="10.00">hoovercalculator.h</text>
</a>
</g>
</g>
<!-- Node21&#45;&gt;Node22 -->
<g id="edge2" class="edge"><title>Node21&#45;&gt;Node22</title>
<path fill="none" stroke="midnightblue" d="M156.738,-107.862C136.341,-97.8492 108.834,-84.3458 91.1295,-75.6545"/>
<polygon fill="midnightblue" stroke="midnightblue" points="155.308,-111.059 165.827,-112.324 158.392,-104.775 155.308,-111.059"/>
</g>
<!-- Node24 -->
<g id="node5" class="node"><title>Node24</title>
<g id="a_node5"><a xlink:href="../../d8/dd9/mainwindow_8cpp.html" target="_top" xlink:title="mainwindow.cpp">
<polygon fill="white" stroke="black" points="125,-0.5 125,-19.5 214,-19.5 214,-0.5 125,-0.5"/>
<text text-anchor="middle" x="169.5" y="-7.5" font-family="Helvetica,sans-Serif" font-size="10.00">mainwindow.cpp</text>
</a>
</g>
</g>
<!-- Node21&#45;&gt;Node24 -->
<g id="edge6" class="edge"><title>Node21&#45;&gt;Node24</title>
<path fill="none" stroke="midnightblue" d="M175.944,-102.782C172.992,-94.725 169.968,-85.0432 168.5,-76 165.282,-56.1702 167.023,-32.4914 168.382,-19.9029"/>
<polygon fill="midnightblue" stroke="midnightblue" points="172.744,-104.209 179.644,-112.249 179.263,-101.661 172.744,-104.209"/>
</g>
<!-- Node25 -->
<g id="node6" class="node"><title>Node25</title>
<g id="a_node6"><a xlink:href="../../d2/da0/hoovermetrics_8cpp.html" target="_top" xlink:title="hoovermetrics.cpp">
<polygon fill="white" stroke="black" points="178,-56.5 178,-75.5 275,-75.5 275,-56.5 178,-56.5"/>
<text text-anchor="middle" x="226.5" y="-63.5" font-family="Helvetica,sans-Serif" font-size="10.00">hoovermetrics.cpp</text>
</a>
</g>
</g>
<!-- Node21&#45;&gt;Node25 -->
<g id="edge5" class="edge"><title>Node21&#45;&gt;Node25</title>
<path fill="none" stroke="midnightblue" d="M196.922,-104.144C204.414,-94.7357 213.437,-83.4046 219.532,-75.7511"/>
<polygon fill="midnightblue" stroke="midnightblue" points="194.092,-102.08 190.601,-112.083 199.568,-106.44 194.092,-102.08"/>
</g>
<!-- Node23 -->
<g id="node4" class="node"><title>Node23</title>
<g id="a_node4"><a xlink:href="../../d7/d5f/hoovercalculator_8cpp.html" target="_top" xlink:title="hoovercalculator.cpp">
<polygon fill="white" stroke="black" points="0,-0.5 0,-19.5 107,-19.5 107,-0.5 0,-0.5"/>
<text text-anchor="middle" x="53.5" y="-7.5" font-family="Helvetica,sans-Serif" font-size="10.00">hoovercalculator.cpp</text>
</a>
</g>
</g>
<!-- Node22&#45;&gt;Node23 -->
<g id="edge3" class="edge"><title>Node22&#45;&gt;Node23</title>
<path fill="none" stroke="midnightblue" d="M66.7184,-46.6897C63.3478,-37.589 59.4312,-27.0141 56.7411,-19.7511"/>
<polygon fill="midnightblue" stroke="midnightblue" points="63.4421,-47.9211 70.1974,-56.083 70.0063,-45.4899 63.4421,-47.9211"/>
</g>
<!-- Node22&#45;&gt;Node24 -->
<g id="edge4" class="edge"><title>Node22&#45;&gt;Node24</title>
<path fill="none" stroke="midnightblue" d="M98.0736,-51.1774C115.739,-41.2407 139.013,-28.1492 154.114,-19.6545"/>
<polygon fill="midnightblue" stroke="midnightblue" points="95.9239,-48.3708 88.9241,-56.324 99.3558,-54.4718 95.9239,-48.3708"/>
</g>
<!-- Node26&#45;&gt;Node27 -->
<g id="edge8" class="edge"><title>Node26&#45;&gt;Node27</title>
<path fill="none" stroke="midnightblue" d="M345.996,-159.275C340.527,-150.045 334.082,-139.17 329.686,-131.751"/>
<polygon fill="midnightblue" stroke="midnightblue" points="343.107,-161.264 351.216,-168.083 349.129,-157.696 343.107,-161.264"/>
</g>
<!-- Node31 -->
<g id="node12" class="node"><title>Node31</title>
<g id="a_node12"><a xlink:href="../../d6/db7/imageblock_8cpp.html" target="_top" xlink:title="imageblock.cpp">
<polygon fill="white" stroke="black" points="368,-112.5 368,-131.5 453,-131.5 453,-112.5 368,-112.5"/>
<text text-anchor="middle" x="410.5" y="-119.5" font-family="Helvetica,sans-Serif" font-size="10.00">imageblock.cpp</text>
</a>
</g>
</g>
<!-- Node26&#45;&gt;Node31 -->
<g id="edge13" class="edge"><title>Node26&#45;&gt;Node31</title>
<path fill="none" stroke="midnightblue" d="M372.498,-161.002C382.067,-151.433 393.861,-139.639 401.749,-131.751"/>
<polygon fill="midnightblue" stroke="midnightblue" points="370.013,-158.537 365.417,-168.083 374.963,-163.487 370.013,-158.537"/>
</g>
<!-- Node28 -->
<g id="node9" class="node"><title>Node28</title>
<g id="a_node9"><a xlink:href="../../db/d11/image_8cpp.html" target="_top" xlink:title="image.cpp">
<polygon fill="white" stroke="black" points="293.5,-56.5 293.5,-75.5 355.5,-75.5 355.5,-56.5 293.5,-56.5"/>
<text text-anchor="middle" x="324.5" y="-63.5" font-family="Helvetica,sans-Serif" font-size="10.00">image.cpp</text>
</a>
</g>
</g>
<!-- Node27&#45;&gt;Node28 -->
<g id="edge9" class="edge"><title>Node27&#45;&gt;Node28</title>
<path fill="none" stroke="midnightblue" d="M324.5,-101.805C324.5,-92.9102 324.5,-82.7798 324.5,-75.7511"/>
<polygon fill="midnightblue" stroke="midnightblue" points="321,-102.083 324.5,-112.083 328,-102.083 321,-102.083"/>
</g>
<!-- Node29 -->
<g id="node10" class="node"><title>Node29</title>
<g id="a_node10"><a xlink:href="../../d9/d53/mainwindow_8h.html" target="_top" xlink:title="mainwindow.h">
<polygon fill="white" stroke="black" points="374,-56.5 374,-75.5 453,-75.5 453,-56.5 374,-56.5"/>
<text text-anchor="middle" x="413.5" y="-63.5" font-family="Helvetica,sans-Serif" font-size="10.00">mainwindow.h</text>
</a>
</g>
</g>
<!-- Node27&#45;&gt;Node29 -->
<g id="edge10" class="edge"><title>Node27&#45;&gt;Node29</title>
<path fill="none" stroke="midnightblue" d="M347.738,-106.901C364.058,-96.9986 385.365,-84.0705 399.236,-75.6545"/>
<polygon fill="midnightblue" stroke="midnightblue" points="345.533,-104.144 338.799,-112.324 349.164,-110.129 345.533,-104.144"/>
</g>
<!-- Node29&#45;&gt;Node24 -->
<g id="edge12" class="edge"><title>Node29&#45;&gt;Node24</title>
<path fill="none" stroke="midnightblue" d="M365.068,-54.2815C318.959,-44.0769 250.473,-28.9203 207.982,-19.5164"/>
<polygon fill="midnightblue" stroke="midnightblue" points="364.317,-57.6999 374.837,-56.4435 365.83,-50.8653 364.317,-57.6999"/>
</g>
<!-- Node30 -->
<g id="node11" class="node"><title>Node30</title>
<g id="a_node11"><a xlink:href="../../df/d0a/main_8cpp.html" target="_top" xlink:title="main.cpp">
<polygon fill="white" stroke="black" points="385.5,-0.5 385.5,-19.5 441.5,-19.5 441.5,-0.5 385.5,-0.5"/>
<text text-anchor="middle" x="413.5" y="-7.5" font-family="Helvetica,sans-Serif" font-size="10.00">main.cpp</text>
</a>
</g>
</g>
<!-- Node29&#45;&gt;Node30 -->
<g id="edge11" class="edge"><title>Node29&#45;&gt;Node30</title>
<path fill="none" stroke="midnightblue" d="M413.5,-45.8045C413.5,-36.9102 413.5,-26.7798 413.5,-19.7511"/>
<polygon fill="midnightblue" stroke="midnightblue" points="410,-46.083 413.5,-56.083 417,-46.083 410,-46.083"/>
</g>
</g>
</svg>
