<?xml version="1.0" encoding="UTF-8" standalone="no"?>
<!DOCTYPE svg PUBLIC "-//W3C//DTD SVG 1.1//EN"
 "http://www.w3.org/Graphics/SVG/1.1/DTD/svg11.dtd">
<!-- Generated by graphviz version 2.38.0 (20140413.2041)
 -->
<!-- Title: image::selectBoarderSegments Pages: 1 -->
<svg width="469pt" height="142pt"
 viewBox="0.00 0.00 469.00 142.00" xmlns="http://www.w3.org/2000/svg" xmlns:xlink="http://www.w3.org/1999/xlink">
<g id="graph0" class="graph" transform="scale(1 1) rotate(0) translate(4 138)">
<title>image::selectBoarderSegments</title>
<polygon fill="white" stroke="none" points="-4,4 -4,-138 465,-138 465,4 -4,4"/>
<!-- Node503 -->
<g id="node1" class="node"><title>Node503</title>
<polygon fill="#bfbfbf" stroke="black" points="0,-57.5 0,-76.5 153,-76.5 153,-57.5 0,-57.5"/>
<text text-anchor="middle" x="76.5" y="-64.5" font-family="Helvetica,sans-Serif" font-size="10.00">image::selectBoarderSegments</text>
</g>
<!-- Node504 -->
<g id="node2" class="node"><title>Node504</title>
<g id="a_node2"><a xlink:href="../../dc/d8f/class_node.html#a9305e6376add78eafd94f198df0ee745" target="_top" xlink:title="Node::setBoarderIndexX">
<polygon fill="white" stroke="black" points="189,-114.5 189,-133.5 313,-133.5 313,-114.5 189,-114.5"/>
<text text-anchor="middle" x="251" y="-121.5" font-family="Helvetica,sans-Serif" font-size="10.00">Node::setBoarderIndexX</text>
</a>
</g>
</g>
<!-- Node503&#45;&gt;Node504 -->
<g id="edge1" class="edge"><title>Node503&#45;&gt;Node504</title>
<path fill="none" stroke="midnightblue" d="M104.925,-76.573C127.454,-84.3822 160.224,-95.6167 189,-105 195.519,-107.126 202.446,-109.332 209.204,-111.457"/>
<polygon fill="midnightblue" stroke="midnightblue" points="208.328,-114.851 218.917,-114.493 210.416,-108.169 208.328,-114.851"/>
</g>
<!-- Node505 -->
<g id="node3" class="node"><title>Node505</title>
<g id="a_node3"><a xlink:href="../../dc/d8f/class_node.html#aa969843e599c724456cc743b8b7f0f3b" target="_top" xlink:title="Node::setBoarderIndexY">
<polygon fill="white" stroke="black" points="189,-76.5 189,-95.5 313,-95.5 313,-76.5 189,-76.5"/>
<text text-anchor="middle" x="251" y="-83.5" font-family="Helvetica,sans-Serif" font-size="10.00">Node::setBoarderIndexY</text>
</a>
</g>
</g>
<!-- Node503&#45;&gt;Node505 -->
<g id="edge2" class="edge"><title>Node503&#45;&gt;Node505</title>
<path fill="none" stroke="midnightblue" d="M153.161,-75.3337C161.656,-76.2694 170.29,-77.2204 178.728,-78.1497"/>
<polygon fill="midnightblue" stroke="midnightblue" points="178.575,-81.654 188.898,-79.27 179.342,-74.6961 178.575,-81.654"/>
</g>
<!-- Node506 -->
<g id="node4" class="node"><title>Node506</title>
<g id="a_node4"><a xlink:href="../../dc/d8f/class_node.html#a8a60e0e373f3acf5a26036a0b40312a1" target="_top" xlink:title="Node::setModel">
<polygon fill="white" stroke="black" points="208,-38.5 208,-57.5 294,-57.5 294,-38.5 208,-38.5"/>
<text text-anchor="middle" x="251" y="-45.5" font-family="Helvetica,sans-Serif" font-size="10.00">Node::setModel</text>
</a>
</g>
</g>
<!-- Node503&#45;&gt;Node506 -->
<g id="edge3" class="edge"><title>Node503&#45;&gt;Node506</title>
<path fill="none" stroke="midnightblue" d="M153.161,-58.6663C168.021,-57.0295 183.307,-55.3459 197.218,-53.8136"/>
<polygon fill="midnightblue" stroke="midnightblue" points="198.002,-57.2486 207.558,-52.6747 197.235,-50.2907 198.002,-57.2486"/>
</g>
<!-- Node508 -->
<g id="node6" class="node"><title>Node508</title>
<g id="a_node6"><a xlink:href="../../dc/d8f/class_node.html#a2bfcbd3b82b596744f81432f1824d522" target="_top" xlink:title="Node::setPosition">
<polygon fill="white" stroke="black" points="203.5,-0.5 203.5,-19.5 298.5,-19.5 298.5,-0.5 203.5,-0.5"/>
<text text-anchor="middle" x="251" y="-7.5" font-family="Helvetica,sans-Serif" font-size="10.00">Node::setPosition</text>
</a>
</g>
</g>
<!-- Node503&#45;&gt;Node508 -->
<g id="edge5" class="edge"><title>Node503&#45;&gt;Node508</title>
<path fill="none" stroke="midnightblue" d="M104.925,-57.427C127.454,-49.6178 160.224,-38.3833 189,-29 195.519,-26.8745 202.446,-24.6676 209.204,-22.5427"/>
<polygon fill="midnightblue" stroke="midnightblue" points="210.416,-25.8307 218.917,-19.5071 208.328,-19.1494 210.416,-25.8307"/>
</g>
<!-- Node507 -->
<g id="node5" class="node"><title>Node507</title>
<g id="a_node5"><a xlink:href="../../dc/dd2/classregion_model.html#aebdb837024f0eb627bb15742a19b9974" target="_top" xlink:title="regionModel::setNode">
<polygon fill="white" stroke="black" points="349,-38.5 349,-57.5 461,-57.5 461,-38.5 349,-38.5"/>
<text text-anchor="middle" x="405" y="-45.5" font-family="Helvetica,sans-Serif" font-size="10.00">regionModel::setNode</text>
</a>
</g>
</g>
<!-- Node506&#45;&gt;Node507 -->
<g id="edge4" class="edge"><title>Node506&#45;&gt;Node507</title>
<path fill="none" stroke="midnightblue" d="M294.34,-48C308.044,-48 323.577,-48 338.553,-48"/>
<polygon fill="midnightblue" stroke="midnightblue" points="338.802,-51.5001 348.802,-48 338.802,-44.5001 338.802,-51.5001"/>
</g>
</g>
</svg>
