<?xml version="1.0" encoding="UTF-8" standalone="no"?>
<!DOCTYPE svg PUBLIC "-//W3C//DTD SVG 1.1//EN"
 "http://www.w3.org/Graphics/SVG/1.1/DTD/svg11.dtd">
<!-- Generated by graphviz version 2.38.0 (20140413.2041)
 -->
<!-- Title: image::createEmptyImage Pages: 1 -->
<svg width="480pt" height="28pt"
 viewBox="0.00 0.00 480.00 28.00" xmlns="http://www.w3.org/2000/svg" xmlns:xlink="http://www.w3.org/1999/xlink">
<g id="graph0" class="graph" transform="scale(1 1) rotate(0) translate(4 24)">
<title>image::createEmptyImage</title>
<polygon fill="white" stroke="none" points="-4,4 -4,-24 476,-24 476,4 -4,4"/>
<!-- Node23 -->
<g id="node1" class="node"><title>Node23</title>
<polygon fill="#bfbfbf" stroke="black" points="0,-0.5 0,-19.5 131,-19.5 131,-0.5 0,-0.5"/>
<text text-anchor="middle" x="65.5" y="-7.5" font-family="Helvetica,sans-Serif" font-size="10.00">image::createEmptyImage</text>
</g>
<!-- Node24 -->
<g id="node2" class="node"><title>Node24</title>
<g id="a_node2"><a xlink:href="../../d1/ded/classimage.html#a16c139a7a2ab7bb2c412f97d5abdcacd" target="_top" xlink:title="image::setGlobalSettings">
<polygon fill="white" stroke="black" points="167,-0.5 167,-19.5 293,-19.5 293,-0.5 167,-0.5"/>
<text text-anchor="middle" x="230" y="-7.5" font-family="Helvetica,sans-Serif" font-size="10.00">image::setGlobalSettings</text>
</a>
</g>
</g>
<!-- Node23&#45;&gt;Node24 -->
<g id="edge1" class="edge"><title>Node23&#45;&gt;Node24</title>
<path fill="none" stroke="midnightblue" d="M141.215,-10C149.812,-10 158.508,-10 166.913,-10"/>
<polygon fill="midnightblue" stroke="midnightblue" points="141.191,-6.5001 131.191,-10 141.191,-13.5001 141.191,-6.5001"/>
</g>
<!-- Node25 -->
<g id="node3" class="node"><title>Node25</title>
<g id="a_node3"><a xlink:href="../../d9/dc6/class_main_window.html#a9a45eb9ebe6d27bcd23677d9fbb74dd8" target="_top" xlink:title="MainWindow::on_Go_clicked">
<polygon fill="white" stroke="black" points="329,-0.5 329,-19.5 472,-19.5 472,-0.5 329,-0.5"/>
<text text-anchor="middle" x="400.5" y="-7.5" font-family="Helvetica,sans-Serif" font-size="10.00">MainWindow::on_Go_clicked</text>
</a>
</g>
</g>
<!-- Node24&#45;&gt;Node25 -->
<g id="edge2" class="edge"><title>Node24&#45;&gt;Node25</title>
<path fill="none" stroke="midnightblue" d="M303.472,-10C311.926,-10 320.541,-10 328.968,-10"/>
<polygon fill="midnightblue" stroke="midnightblue" points="303.264,-6.5001 293.264,-10 303.264,-13.5001 303.264,-6.5001"/>
</g>
</g>
</svg>
