<?xml version="1.0" encoding="UTF-8" standalone="no"?>
<!DOCTYPE svg PUBLIC "-//W3C//DTD SVG 1.1//EN"
 "http://www.w3.org/Graphics/SVG/1.1/DTD/svg11.dtd">
<!-- Generated by graphviz version 2.38.0 (20140413.2041)
 -->
<!-- Title: regionModel Pages: 1 -->
<svg width="306pt" height="84pt"
 viewBox="0.00 0.00 305.50 84.00" xmlns="http://www.w3.org/2000/svg" xmlns:xlink="http://www.w3.org/1999/xlink">
<g id="graph0" class="graph" transform="scale(1 1) rotate(0) translate(4 80)">
<title>regionModel</title>
<polygon fill="white" stroke="none" points="-4,4 -4,-80 301.5,-80 301.5,4 -4,4"/>
<!-- Node0 -->
<g id="node1" class="node"><title>Node0</title>
<polygon fill="#bfbfbf" stroke="black" points="114.5,-56.5 114.5,-75.5 183.5,-75.5 183.5,-56.5 114.5,-56.5"/>
<text text-anchor="middle" x="149" y="-63.5" font-family="Helvetica,sans-Serif" font-size="10.00">regionModel</text>
</g>
<!-- Node1 -->
<g id="node2" class="node"><title>Node1</title>
<g id="a_node2"><a xlink:href="../../d1/dd7/classcompound_model.html" target="_top" xlink:title="compoundModel">
<polygon fill="white" stroke="black" points="0,-0.5 0,-19.5 88,-19.5 88,-0.5 0,-0.5"/>
<text text-anchor="middle" x="44" y="-7.5" font-family="Helvetica,sans-Serif" font-size="10.00">compoundModel</text>
</a>
</g>
</g>
<!-- Node0&#45;&gt;Node1 -->
<g id="edge1" class="edge"><title>Node0&#45;&gt;Node1</title>
<path fill="none" stroke="midnightblue" d="M123.19,-51.7261C103.747,-41.7271 77.6516,-28.3065 60.8282,-19.6545"/>
<polygon fill="midnightblue" stroke="midnightblue" points="121.636,-54.8629 132.13,-56.324 124.838,-48.6379 121.636,-54.8629"/>
</g>
<!-- Node2 -->
<g id="node3" class="node"><title>Node2</title>
<g id="a_node3"><a xlink:href="../../dc/d13/classhistogram_model.html" target="_top" xlink:title="histogramModel">
<polygon fill="white" stroke="black" points="106,-0.5 106,-19.5 192,-19.5 192,-0.5 106,-0.5"/>
<text text-anchor="middle" x="149" y="-7.5" font-family="Helvetica,sans-Serif" font-size="10.00">histogramModel</text>
</a>
</g>
</g>
<!-- Node0&#45;&gt;Node2 -->
<g id="edge2" class="edge"><title>Node0&#45;&gt;Node2</title>
<path fill="none" stroke="midnightblue" d="M149,-45.8045C149,-36.9102 149,-26.7798 149,-19.7511"/>
<polygon fill="midnightblue" stroke="midnightblue" points="145.5,-46.083 149,-56.083 152.5,-46.083 145.5,-46.083"/>
</g>
<!-- Node3 -->
<g id="node4" class="node"><title>Node3</title>
<g id="a_node4"><a xlink:href="../../da/d99/classprobability_model.html" target="_top" xlink:title="probabilityModel">
<polygon fill="white" stroke="black" points="210.5,-0.5 210.5,-19.5 297.5,-19.5 297.5,-0.5 210.5,-0.5"/>
<text text-anchor="middle" x="254" y="-7.5" font-family="Helvetica,sans-Serif" font-size="10.00">probabilityModel</text>
</a>
</g>
</g>
<!-- Node0&#45;&gt;Node3 -->
<g id="edge3" class="edge"><title>Node0&#45;&gt;Node3</title>
<path fill="none" stroke="midnightblue" d="M174.81,-51.7261C194.253,-41.7271 220.348,-28.3065 237.172,-19.6545"/>
<polygon fill="midnightblue" stroke="midnightblue" points="173.162,-48.6379 165.87,-56.324 176.364,-54.8629 173.162,-48.6379"/>
</g>
</g>
</svg>
