<?xml version="1.0" encoding="UTF-8" standalone="no"?>
<!DOCTYPE svg PUBLIC "-//W3C//DTD SVG 1.1//EN"
 "http://www.w3.org/Graphics/SVG/1.1/DTD/svg11.dtd">
<!-- Generated by graphviz version 2.38.0 (20140413.2041)
 -->
<!-- Title: EdgeHeap::insert Pages: 1 -->
<svg width="701pt" height="180pt"
 viewBox="0.00 0.00 701.00 180.00" xmlns="http://www.w3.org/2000/svg" xmlns:xlink="http://www.w3.org/1999/xlink">
<g id="graph0" class="graph" transform="scale(1 1) rotate(0) translate(4 176)">
<title>EdgeHeap::insert</title>
<polygon fill="white" stroke="none" points="-4,4 -4,-176 697,-176 697,4 -4,4"/>
<!-- Node121 -->
<g id="node1" class="node"><title>Node121</title>
<polygon fill="#bfbfbf" stroke="black" points="0,-76.5 0,-95.5 92,-95.5 92,-76.5 0,-76.5"/>
<text text-anchor="middle" x="46" y="-83.5" font-family="Helvetica,sans-Serif" font-size="10.00">EdgeHeap::insert</text>
</g>
<!-- Node122 -->
<g id="node2" class="node"><title>Node122</title>
<g id="a_node2"><a xlink:href="../../d8/de9/class_edge_heap.html#afc03f4943c606b1d2617654cfaeeabb6" target="_top" xlink:title="EdgeHeap::heapifyUp">
<polygon fill="white" stroke="black" points="128,-76.5 128,-95.5 241,-95.5 241,-76.5 128,-76.5"/>
<text text-anchor="middle" x="184.5" y="-83.5" font-family="Helvetica,sans-Serif" font-size="10.00">EdgeHeap::heapifyUp</text>
</a>
</g>
</g>
<!-- Node121&#45;&gt;Node122 -->
<g id="edge1" class="edge"><title>Node121&#45;&gt;Node122</title>
<path fill="none" stroke="midnightblue" d="M92.0735,-86C100.222,-86 108.872,-86 117.474,-86"/>
<polygon fill="midnightblue" stroke="midnightblue" points="117.517,-89.5001 127.517,-86 117.517,-82.5001 117.517,-89.5001"/>
</g>
<!-- Node123 -->
<g id="node3" class="node"><title>Node123</title>
<g id="a_node3"><a xlink:href="../../d8/de9/class_edge_heap.html#add248e35c4c2443246ff6c7cd654ae9f" target="_top" xlink:title="EdgeHeap::edgeComparator">
<polygon fill="white" stroke="black" points="277,-76.5 277,-95.5 417,-95.5 417,-76.5 277,-76.5"/>
<text text-anchor="middle" x="347" y="-83.5" font-family="Helvetica,sans-Serif" font-size="10.00">EdgeHeap::edgeComparator</text>
</a>
</g>
</g>
<!-- Node122&#45;&gt;Node123 -->
<g id="edge2" class="edge"><title>Node122&#45;&gt;Node123</title>
<path fill="none" stroke="midnightblue" d="M241.185,-86C249.449,-86 258.098,-86 266.733,-86"/>
<polygon fill="midnightblue" stroke="midnightblue" points="266.837,-89.5001 276.837,-86 266.837,-82.5001 266.837,-89.5001"/>
</g>
<!-- Node124 -->
<g id="node4" class="node"><title>Node124</title>
<g id="a_node4"><a xlink:href="../../dc/d8f/class_node.html#a13467fc326459c1d607547b3e9470710" target="_top" xlink:title="Node::getArea">
<polygon fill="white" stroke="black" points="460.5,-152.5 460.5,-171.5 540.5,-171.5 540.5,-152.5 460.5,-152.5"/>
<text text-anchor="middle" x="500.5" y="-159.5" font-family="Helvetica,sans-Serif" font-size="10.00">Node::getArea</text>
</a>
</g>
</g>
<!-- Node123&#45;&gt;Node124 -->
<g id="edge3" class="edge"><title>Node123&#45;&gt;Node124</title>
<path fill="none" stroke="midnightblue" d="M364.44,-95.6545C384.867,-107.479 420.949,-127.808 453,-143 456.901,-144.849 461.032,-146.693 465.158,-148.466"/>
<polygon fill="midnightblue" stroke="midnightblue" points="464.09,-151.812 474.666,-152.439 466.789,-145.354 464.09,-151.812"/>
</g>
<!-- Node126 -->
<g id="node6" class="node"><title>Node126</title>
<g id="a_node6"><a xlink:href="../../d7/d77/class_edge.html#aaaa9cb49c141b310873cd75fd493e22d" target="_top" xlink:title="Edge::getNode1">
<polygon fill="white" stroke="black" points="457,-114.5 457,-133.5 544,-133.5 544,-114.5 457,-114.5"/>
<text text-anchor="middle" x="500.5" y="-121.5" font-family="Helvetica,sans-Serif" font-size="10.00">Edge::getNode1</text>
</a>
</g>
</g>
<!-- Node123&#45;&gt;Node126 -->
<g id="edge5" class="edge"><title>Node123&#45;&gt;Node126</title>
<path fill="none" stroke="midnightblue" d="M386.23,-95.589C406.132,-100.581 430.657,-106.732 451.791,-112.033"/>
<polygon fill="midnightblue" stroke="midnightblue" points="450.994,-115.442 461.545,-114.48 452.697,-108.652 450.994,-115.442"/>
</g>
<!-- Node127 -->
<g id="node7" class="node"><title>Node127</title>
<g id="a_node7"><a xlink:href="../../d7/d77/class_edge.html#a50017668f77ed019a5caceafbb1eb16f" target="_top" xlink:title="Edge::getNode2">
<polygon fill="white" stroke="black" points="457,-76.5 457,-95.5 544,-95.5 544,-76.5 457,-76.5"/>
<text text-anchor="middle" x="500.5" y="-83.5" font-family="Helvetica,sans-Serif" font-size="10.00">Edge::getNode2</text>
</a>
</g>
</g>
<!-- Node123&#45;&gt;Node127 -->
<g id="edge6" class="edge"><title>Node123&#45;&gt;Node127</title>
<path fill="none" stroke="midnightblue" d="M417.1,-86C427.072,-86 437.199,-86 446.782,-86"/>
<polygon fill="midnightblue" stroke="midnightblue" points="446.935,-89.5001 456.935,-86 446.935,-82.5001 446.935,-89.5001"/>
</g>
<!-- Node128 -->
<g id="node8" class="node"><title>Node128</title>
<g id="a_node8"><a xlink:href="../../dc/d8f/class_node.html#aa3512938403662345b64049920d1cdaf" target="_top" xlink:title="Node::getPosition">
<polygon fill="white" stroke="black" points="453,-38.5 453,-57.5 548,-57.5 548,-38.5 453,-38.5"/>
<text text-anchor="middle" x="500.5" y="-45.5" font-family="Helvetica,sans-Serif" font-size="10.00">Node::getPosition</text>
</a>
</g>
</g>
<!-- Node123&#45;&gt;Node128 -->
<g id="edge7" class="edge"><title>Node123&#45;&gt;Node128</title>
<path fill="none" stroke="midnightblue" d="M386.23,-76.411C406.132,-71.4191 430.657,-65.2676 451.791,-59.9666"/>
<polygon fill="midnightblue" stroke="midnightblue" points="452.697,-63.3479 461.545,-57.5201 450.994,-56.5582 452.697,-63.3479"/>
</g>
<!-- Node129 -->
<g id="node9" class="node"><title>Node129</title>
<g id="a_node9"><a xlink:href="../../d7/d77/class_edge.html#a3a776c1ccafacdbdb10fdedd9cb329af" target="_top" xlink:title="Edge::getWeight">
<polygon fill="white" stroke="black" points="456,-0.5 456,-19.5 545,-19.5 545,-0.5 456,-0.5"/>
<text text-anchor="middle" x="500.5" y="-7.5" font-family="Helvetica,sans-Serif" font-size="10.00">Edge::getWeight</text>
</a>
</g>
</g>
<!-- Node123&#45;&gt;Node129 -->
<g id="edge8" class="edge"><title>Node123&#45;&gt;Node129</title>
<path fill="none" stroke="midnightblue" d="M364.44,-76.3455C384.867,-64.5206 420.949,-44.1916 453,-29 456.901,-27.1511 461.032,-25.3068 465.158,-23.5345"/>
<polygon fill="midnightblue" stroke="midnightblue" points="466.789,-26.6464 474.666,-19.5614 464.09,-20.1875 466.789,-26.6464"/>
</g>
<!-- Node125 -->
<g id="node5" class="node"><title>Node125</title>
<g id="a_node5"><a xlink:href="../../dc/dd2/classregion_model.html#a56b1a22f355e85211760055c7559cd1e" target="_top" xlink:title="regionModel::getArea">
<polygon fill="white" stroke="black" points="584,-152.5 584,-171.5 693,-171.5 693,-152.5 584,-152.5"/>
<text text-anchor="middle" x="638.5" y="-159.5" font-family="Helvetica,sans-Serif" font-size="10.00">regionModel::getArea</text>
</a>
</g>
</g>
<!-- Node124&#45;&gt;Node125 -->
<g id="edge4" class="edge"><title>Node124&#45;&gt;Node125</title>
<path fill="none" stroke="midnightblue" d="M540.837,-162C551.108,-162 562.446,-162 573.635,-162"/>
<polygon fill="midnightblue" stroke="midnightblue" points="573.833,-165.5 583.833,-162 573.833,-158.5 573.833,-165.5"/>
</g>
</g>
</svg>
