<?xml version="1.0" encoding="UTF-8" standalone="no"?>
<!DOCTYPE svg PUBLIC "-//W3C//DTD SVG 1.1//EN"
 "http://www.w3.org/Graphics/SVG/1.1/DTD/svg11.dtd">
<!-- Generated by graphviz version 2.38.0 (20140413.2041)
 -->
<!-- Title: EdgeHeap::heapify Pages: 1 -->
<svg width="560pt" height="180pt"
 viewBox="0.00 0.00 560.00 180.00" xmlns="http://www.w3.org/2000/svg" xmlns:xlink="http://www.w3.org/1999/xlink">
<g id="graph0" class="graph" transform="scale(1 1) rotate(0) translate(4 176)">
<title>EdgeHeap::heapify</title>
<polygon fill="white" stroke="none" points="-4,4 -4,-176 556,-176 556,4 -4,4"/>
<!-- Node51 -->
<g id="node1" class="node"><title>Node51</title>
<polygon fill="#bfbfbf" stroke="black" points="0,-76.5 0,-95.5 100,-95.5 100,-76.5 0,-76.5"/>
<text text-anchor="middle" x="50" y="-83.5" font-family="Helvetica,sans-Serif" font-size="10.00">EdgeHeap::heapify</text>
</g>
<!-- Node52 -->
<g id="node2" class="node"><title>Node52</title>
<g id="a_node2"><a xlink:href="../../d8/de9/class_edge_heap.html#add248e35c4c2443246ff6c7cd654ae9f" target="_top" xlink:title="EdgeHeap::edgeComparator">
<polygon fill="white" stroke="black" points="136,-76.5 136,-95.5 276,-95.5 276,-76.5 136,-76.5"/>
<text text-anchor="middle" x="206" y="-83.5" font-family="Helvetica,sans-Serif" font-size="10.00">EdgeHeap::edgeComparator</text>
</a>
</g>
</g>
<!-- Node51&#45;&gt;Node52 -->
<g id="edge1" class="edge"><title>Node51&#45;&gt;Node52</title>
<path fill="none" stroke="midnightblue" d="M100.15,-86C108.312,-86 116.956,-86 125.64,-86"/>
<polygon fill="midnightblue" stroke="midnightblue" points="125.826,-89.5001 135.826,-86 125.826,-82.5001 125.826,-89.5001"/>
</g>
<!-- Node53 -->
<g id="node3" class="node"><title>Node53</title>
<g id="a_node3"><a xlink:href="../../dc/d8f/class_node.html#a13467fc326459c1d607547b3e9470710" target="_top" xlink:title="Node::getArea">
<polygon fill="white" stroke="black" points="319.5,-152.5 319.5,-171.5 399.5,-171.5 399.5,-152.5 319.5,-152.5"/>
<text text-anchor="middle" x="359.5" y="-159.5" font-family="Helvetica,sans-Serif" font-size="10.00">Node::getArea</text>
</a>
</g>
</g>
<!-- Node52&#45;&gt;Node53 -->
<g id="edge2" class="edge"><title>Node52&#45;&gt;Node53</title>
<path fill="none" stroke="midnightblue" d="M223.44,-95.6545C243.867,-107.479 279.949,-127.808 312,-143 315.901,-144.849 320.032,-146.693 324.158,-148.466"/>
<polygon fill="midnightblue" stroke="midnightblue" points="323.09,-151.812 333.666,-152.439 325.789,-145.354 323.09,-151.812"/>
</g>
<!-- Node55 -->
<g id="node5" class="node"><title>Node55</title>
<g id="a_node5"><a xlink:href="../../d7/d77/class_edge.html#aaaa9cb49c141b310873cd75fd493e22d" target="_top" xlink:title="Edge::getNode1">
<polygon fill="white" stroke="black" points="316,-114.5 316,-133.5 403,-133.5 403,-114.5 316,-114.5"/>
<text text-anchor="middle" x="359.5" y="-121.5" font-family="Helvetica,sans-Serif" font-size="10.00">Edge::getNode1</text>
</a>
</g>
</g>
<!-- Node52&#45;&gt;Node55 -->
<g id="edge4" class="edge"><title>Node52&#45;&gt;Node55</title>
<path fill="none" stroke="midnightblue" d="M245.23,-95.589C265.132,-100.581 289.657,-106.732 310.791,-112.033"/>
<polygon fill="midnightblue" stroke="midnightblue" points="309.994,-115.442 320.545,-114.48 311.697,-108.652 309.994,-115.442"/>
</g>
<!-- Node56 -->
<g id="node6" class="node"><title>Node56</title>
<g id="a_node6"><a xlink:href="../../d7/d77/class_edge.html#a50017668f77ed019a5caceafbb1eb16f" target="_top" xlink:title="Edge::getNode2">
<polygon fill="white" stroke="black" points="316,-76.5 316,-95.5 403,-95.5 403,-76.5 316,-76.5"/>
<text text-anchor="middle" x="359.5" y="-83.5" font-family="Helvetica,sans-Serif" font-size="10.00">Edge::getNode2</text>
</a>
</g>
</g>
<!-- Node52&#45;&gt;Node56 -->
<g id="edge5" class="edge"><title>Node52&#45;&gt;Node56</title>
<path fill="none" stroke="midnightblue" d="M276.1,-86C286.072,-86 296.199,-86 305.782,-86"/>
<polygon fill="midnightblue" stroke="midnightblue" points="305.935,-89.5001 315.935,-86 305.935,-82.5001 305.935,-89.5001"/>
</g>
<!-- Node57 -->
<g id="node7" class="node"><title>Node57</title>
<g id="a_node7"><a xlink:href="../../dc/d8f/class_node.html#aa3512938403662345b64049920d1cdaf" target="_top" xlink:title="Node::getPosition">
<polygon fill="white" stroke="black" points="312,-38.5 312,-57.5 407,-57.5 407,-38.5 312,-38.5"/>
<text text-anchor="middle" x="359.5" y="-45.5" font-family="Helvetica,sans-Serif" font-size="10.00">Node::getPosition</text>
</a>
</g>
</g>
<!-- Node52&#45;&gt;Node57 -->
<g id="edge6" class="edge"><title>Node52&#45;&gt;Node57</title>
<path fill="none" stroke="midnightblue" d="M245.23,-76.411C265.132,-71.4191 289.657,-65.2676 310.791,-59.9666"/>
<polygon fill="midnightblue" stroke="midnightblue" points="311.697,-63.3479 320.545,-57.5201 309.994,-56.5582 311.697,-63.3479"/>
</g>
<!-- Node58 -->
<g id="node8" class="node"><title>Node58</title>
<g id="a_node8"><a xlink:href="../../d7/d77/class_edge.html#a3a776c1ccafacdbdb10fdedd9cb329af" target="_top" xlink:title="Edge::getWeight">
<polygon fill="white" stroke="black" points="315,-0.5 315,-19.5 404,-19.5 404,-0.5 315,-0.5"/>
<text text-anchor="middle" x="359.5" y="-7.5" font-family="Helvetica,sans-Serif" font-size="10.00">Edge::getWeight</text>
</a>
</g>
</g>
<!-- Node52&#45;&gt;Node58 -->
<g id="edge7" class="edge"><title>Node52&#45;&gt;Node58</title>
<path fill="none" stroke="midnightblue" d="M223.44,-76.3455C243.867,-64.5206 279.949,-44.1916 312,-29 315.901,-27.1511 320.032,-25.3068 324.158,-23.5345"/>
<polygon fill="midnightblue" stroke="midnightblue" points="325.789,-26.6464 333.666,-19.5614 323.09,-20.1875 325.789,-26.6464"/>
</g>
<!-- Node54 -->
<g id="node4" class="node"><title>Node54</title>
<g id="a_node4"><a xlink:href="../../dc/dd2/classregion_model.html#a56b1a22f355e85211760055c7559cd1e" target="_top" xlink:title="regionModel::getArea">
<polygon fill="white" stroke="black" points="443,-152.5 443,-171.5 552,-171.5 552,-152.5 443,-152.5"/>
<text text-anchor="middle" x="497.5" y="-159.5" font-family="Helvetica,sans-Serif" font-size="10.00">regionModel::getArea</text>
</a>
</g>
</g>
<!-- Node53&#45;&gt;Node54 -->
<g id="edge3" class="edge"><title>Node53&#45;&gt;Node54</title>
<path fill="none" stroke="midnightblue" d="M399.837,-162C410.108,-162 421.446,-162 432.635,-162"/>
<polygon fill="midnightblue" stroke="midnightblue" points="432.833,-165.5 442.833,-162 432.833,-158.5 432.833,-165.5"/>
</g>
</g>
</svg>
