<?xml version="1.0" encoding="UTF-8" standalone="no"?>
<!DOCTYPE svg PUBLIC "-//W3C//DTD SVG 1.1//EN"
 "http://www.w3.org/Graphics/SVG/1.1/DTD/svg11.dtd">
<!-- Generated by graphviz version 2.38.0 (20140413.2041)
 -->
<!-- Title: EdgeHeap::heapify Pages: 1 -->
<svg width="1053pt" height="104pt"
 viewBox="0.00 0.00 1053.00 104.00" xmlns="http://www.w3.org/2000/svg" xmlns:xlink="http://www.w3.org/1999/xlink">
<g id="graph0" class="graph" transform="scale(1 1) rotate(0) translate(4 100)">
<title>EdgeHeap::heapify</title>
<polygon fill="white" stroke="none" points="-4,4 -4,-100 1049,-100 1049,4 -4,4"/>
<!-- Node59 -->
<g id="node1" class="node"><title>Node59</title>
<polygon fill="#bfbfbf" stroke="black" points="0,-38.5 0,-57.5 100,-57.5 100,-38.5 0,-38.5"/>
<text text-anchor="middle" x="50" y="-45.5" font-family="Helvetica,sans-Serif" font-size="10.00">EdgeHeap::heapify</text>
</g>
<!-- Node60 -->
<g id="node2" class="node"><title>Node60</title>
<g id="a_node2"><a xlink:href="../../d3/dd4/class_r_a_g.html#ab09eebb1b704d18b583d528e77f7604a" target="_top" xlink:title="RAG::regionMerging">
<polygon fill="white" stroke="black" points="136,-38.5 136,-57.5 241,-57.5 241,-38.5 136,-38.5"/>
<text text-anchor="middle" x="188.5" y="-45.5" font-family="Helvetica,sans-Serif" font-size="10.00">RAG::regionMerging</text>
</a>
</g>
</g>
<!-- Node59&#45;&gt;Node60 -->
<g id="edge1" class="edge"><title>Node59&#45;&gt;Node60</title>
<path fill="none" stroke="midnightblue" d="M110.509,-48C118.999,-48 127.673,-48 135.992,-48"/>
<polygon fill="midnightblue" stroke="midnightblue" points="110.28,-44.5001 100.28,-48 110.28,-51.5001 110.28,-44.5001"/>
</g>
<!-- Node61 -->
<g id="node3" class="node"><title>Node61</title>
<g id="a_node3"><a xlink:href="../../d1/ded/classimage.html#a12343719e8d96a4bda9c5bd6c035d52a" target="_top" xlink:title="image::mergeBlockX">
<polygon fill="white" stroke="black" points="283,-76.5 283,-95.5 390,-95.5 390,-76.5 283,-76.5"/>
<text text-anchor="middle" x="336.5" y="-83.5" font-family="Helvetica,sans-Serif" font-size="10.00">image::mergeBlockX</text>
</a>
</g>
</g>
<!-- Node60&#45;&gt;Node61 -->
<g id="edge2" class="edge"><title>Node60&#45;&gt;Node61</title>
<path fill="none" stroke="midnightblue" d="M236.036,-60.1121C256.37,-65.4044 279.871,-71.5213 298.923,-76.4799"/>
<polygon fill="midnightblue" stroke="midnightblue" points="236.901,-56.7207 226.342,-57.589 235.138,-63.4951 236.901,-56.7207"/>
</g>
<!-- Node65 -->
<g id="node7" class="node"><title>Node65</title>
<g id="a_node7"><a xlink:href="../../d1/ded/classimage.html#aa21fc5a07af7528869425e750090b3b8" target="_top" xlink:title="image::mergeBlockY">
<polygon fill="white" stroke="black" points="283,-38.5 283,-57.5 390,-57.5 390,-38.5 283,-38.5"/>
<text text-anchor="middle" x="336.5" y="-45.5" font-family="Helvetica,sans-Serif" font-size="10.00">image::mergeBlockY</text>
</a>
</g>
</g>
<!-- Node60&#45;&gt;Node65 -->
<g id="edge6" class="edge"><title>Node60&#45;&gt;Node65</title>
<path fill="none" stroke="midnightblue" d="M251.631,-48C262.008,-48 272.685,-48 282.797,-48"/>
<polygon fill="midnightblue" stroke="midnightblue" points="251.385,-44.5001 241.385,-48 251.385,-51.5001 251.385,-44.5001"/>
</g>
<!-- Node67 -->
<g id="node9" class="node"><title>Node67</title>
<g id="a_node9"><a xlink:href="../../d8/dd2/classimageblock.html#abcc69a8c00ad79067185c700463f8126" target="_top" xlink:title="imageblock::createBPT">
<polygon fill="white" stroke="black" points="277,-0.5 277,-19.5 396,-19.5 396,-0.5 277,-0.5"/>
<text text-anchor="middle" x="336.5" y="-7.5" font-family="Helvetica,sans-Serif" font-size="10.00">imageblock::createBPT</text>
</a>
</g>
</g>
<!-- Node60&#45;&gt;Node67 -->
<g id="edge9" class="edge"><title>Node60&#45;&gt;Node67</title>
<path fill="none" stroke="midnightblue" d="M236.036,-35.8879C256.37,-30.5956 279.871,-24.4787 298.923,-19.5201"/>
<polygon fill="midnightblue" stroke="midnightblue" points="235.138,-32.5049 226.342,-38.411 236.901,-39.2793 235.138,-32.5049"/>
</g>
<!-- Node62 -->
<g id="node4" class="node"><title>Node62</title>
<g id="a_node4"><a xlink:href="../../d1/ded/classimage.html#a83026280ad6cc713ec9489ff3bd9776e" target="_top" xlink:title="image::ProcessBoundaryX">
<polygon fill="white" stroke="black" points="601,-76.5 601,-95.5 734,-95.5 734,-76.5 601,-76.5"/>
<text text-anchor="middle" x="667.5" y="-83.5" font-family="Helvetica,sans-Serif" font-size="10.00">image::ProcessBoundaryX</text>
</a>
</g>
</g>
<!-- Node61&#45;&gt;Node62 -->
<g id="edge3" class="edge"><title>Node61&#45;&gt;Node62</title>
<path fill="none" stroke="midnightblue" d="M400.399,-86C457.829,-86 542.414,-86 600.728,-86"/>
<polygon fill="midnightblue" stroke="midnightblue" points="400.36,-82.5001 390.36,-86 400.36,-89.5001 400.36,-82.5001"/>
</g>
<!-- Node63 -->
<g id="node5" class="node"><title>Node63</title>
<g id="a_node5"><a xlink:href="../../d1/ded/classimage.html#a4689c56b85c46d48ea52f0c9fa13891e" target="_top" xlink:title="image::processing">
<polygon fill="white" stroke="black" points="770,-38.5 770,-57.5 866,-57.5 866,-38.5 770,-38.5"/>
<text text-anchor="middle" x="818" y="-45.5" font-family="Helvetica,sans-Serif" font-size="10.00">image::processing</text>
</a>
</g>
</g>
<!-- Node62&#45;&gt;Node63 -->
<g id="edge4" class="edge"><title>Node62&#45;&gt;Node63</title>
<path fill="none" stroke="midnightblue" d="M715.833,-73.8879C736.515,-68.5956 760.419,-62.4787 779.797,-57.5201"/>
<polygon fill="midnightblue" stroke="midnightblue" points="714.793,-70.5411 705.973,-76.411 716.528,-77.3226 714.793,-70.5411"/>
</g>
<!-- Node64 -->
<g id="node6" class="node"><title>Node64</title>
<g id="a_node6"><a xlink:href="../../d9/dc6/class_main_window.html#a9a45eb9ebe6d27bcd23677d9fbb74dd8" target="_top" xlink:title="MainWindow::on_Go_clicked">
<polygon fill="white" stroke="black" points="902,-38.5 902,-57.5 1045,-57.5 1045,-38.5 902,-38.5"/>
<text text-anchor="middle" x="973.5" y="-45.5" font-family="Helvetica,sans-Serif" font-size="10.00">MainWindow::on_Go_clicked</text>
</a>
</g>
</g>
<!-- Node63&#45;&gt;Node64 -->
<g id="edge5" class="edge"><title>Node63&#45;&gt;Node64</title>
<path fill="none" stroke="midnightblue" d="M876.583,-48C884.853,-48 893.441,-48 901.928,-48"/>
<polygon fill="midnightblue" stroke="midnightblue" points="876.308,-44.5001 866.308,-48 876.308,-51.5001 876.308,-44.5001"/>
</g>
<!-- Node66 -->
<g id="node8" class="node"><title>Node66</title>
<g id="a_node8"><a xlink:href="../../d1/ded/classimage.html#adf6b8c126649c9a40387f12b5f5f07d5" target="_top" xlink:title="image::ProcessBoundaryY">
<polygon fill="white" stroke="black" points="432,-38.5 432,-57.5 565,-57.5 565,-38.5 432,-38.5"/>
<text text-anchor="middle" x="498.5" y="-45.5" font-family="Helvetica,sans-Serif" font-size="10.00">image::ProcessBoundaryY</text>
</a>
</g>
</g>
<!-- Node65&#45;&gt;Node66 -->
<g id="edge7" class="edge"><title>Node65&#45;&gt;Node66</title>
<path fill="none" stroke="midnightblue" d="M400.486,-48C410.798,-48 421.505,-48 431.879,-48"/>
<polygon fill="midnightblue" stroke="midnightblue" points="400.333,-44.5001 390.333,-48 400.333,-51.5001 400.333,-44.5001"/>
</g>
<!-- Node66&#45;&gt;Node63 -->
<g id="edge8" class="edge"><title>Node66&#45;&gt;Node63</title>
<path fill="none" stroke="midnightblue" d="M575.542,-48C635.982,-48 718.613,-48 769.853,-48"/>
<polygon fill="midnightblue" stroke="midnightblue" points="575.286,-44.5001 565.286,-48 575.286,-51.5001 575.286,-44.5001"/>
</g>
<!-- Node68 -->
<g id="node10" class="node"><title>Node68</title>
<g id="a_node10"><a xlink:href="../../d8/dd2/classimageblock.html#af3b91e3daaa8014af1239f60da6b0bf5" target="_top" xlink:title="imageblock::processing">
<polygon fill="white" stroke="black" points="439,-0.5 439,-19.5 558,-19.5 558,-0.5 439,-0.5"/>
<text text-anchor="middle" x="498.5" y="-7.5" font-family="Helvetica,sans-Serif" font-size="10.00">imageblock::processing</text>
</a>
</g>
</g>
<!-- Node67&#45;&gt;Node68 -->
<g id="edge10" class="edge"><title>Node67&#45;&gt;Node68</title>
<path fill="none" stroke="midnightblue" d="M406.415,-10C417.217,-10 428.294,-10 438.838,-10"/>
<polygon fill="midnightblue" stroke="midnightblue" points="406.17,-6.5001 396.17,-10 406.17,-13.5001 406.17,-6.5001"/>
</g>
<!-- Node69 -->
<g id="node11" class="node"><title>Node69</title>
<g id="a_node11"><a xlink:href="../../d1/ded/classimage.html#ad5a9d767eca6f9bbb8dcb556527edf4d" target="_top" xlink:title="image::ProcessTiles">
<polygon fill="white" stroke="black" points="614.5,-0.5 614.5,-19.5 720.5,-19.5 720.5,-0.5 614.5,-0.5"/>
<text text-anchor="middle" x="667.5" y="-7.5" font-family="Helvetica,sans-Serif" font-size="10.00">image::ProcessTiles</text>
</a>
</g>
</g>
<!-- Node68&#45;&gt;Node69 -->
<g id="edge11" class="edge"><title>Node68&#45;&gt;Node69</title>
<path fill="none" stroke="midnightblue" d="M568.781,-10C583.994,-10 599.857,-10 614.267,-10"/>
<polygon fill="midnightblue" stroke="midnightblue" points="568.378,-6.5001 558.378,-10 568.378,-13.5001 568.378,-6.5001"/>
</g>
<!-- Node69&#45;&gt;Node63 -->
<g id="edge12" class="edge"><title>Node69&#45;&gt;Node63</title>
<path fill="none" stroke="midnightblue" d="M715.833,-22.1121C736.515,-27.4044 760.419,-33.5213 779.797,-38.4799"/>
<polygon fill="midnightblue" stroke="midnightblue" points="716.528,-18.6774 705.973,-19.589 714.793,-25.4589 716.528,-18.6774"/>
</g>
</g>
</svg>
