<?xml version="1.0" encoding="UTF-8" standalone="no"?>
<!DOCTYPE svg PUBLIC "-//W3C//DTD SVG 1.1//EN"
 "http://www.w3.org/Graphics/SVG/1.1/DTD/svg11.dtd">
<!-- Generated by graphviz version 2.38.0 (20140413.2041)
 -->
<!-- Title: EdgeHeap::heapifyDown Pages: 1 -->
<!--zoomable 123 -->
<svg id="main" version="1.1" xmlns="http://www.w3.org/2000/svg" xmlns:xlink="http://www.w3.org/1999/xlink" xml:space="preserve" onload="init(evt)">
<style type="text/css"><![CDATA[
.edge:hover path { stroke: red; }
.edge:hover polygon { stroke: red; fill: red; }
]]></style>
<script type="text/javascript"><![CDATA[
var edges = document.getElementsByTagName('g');
if (edges && edges.length) {
  for (var i=0;i<edges.length;i++) {
    if (edges[i].id.substr(0,4)=='edge') {
      edges[i].setAttribute('class','edge');
    }
  }
}
]]></script>
        <defs>
                <circle id="rim" cx="0" cy="0" r="7"/>
                <circle id="rim2" cx="0" cy="0" r="3.5"/>
                <g id="zoomPlus">
                        <use xlink:href="#rim" fill="#404040">
                                <set attributeName="fill" to="#808080" begin="zoomplus.mouseover" end="zoomplus.mouseout"/>
                        </use>
                        <path d="M-4,0h8M0,-4v8" fill="none" stroke="white" stroke-width="1.5" pointer-events="none"/>
                </g>
                <g id="zoomMin">
                        <use xlink:href="#rim" fill="#404040">
                                <set attributeName="fill" to="#808080" begin="zoomminus.mouseover" end="zoomminus.mouseout"/>
                        </use>
                        <path d="M-4,0h8" fill="none" stroke="white" stroke-width="1.5" pointer-events="none"/>
                </g>
                <g id="dirArrow">
                        <path fill="none" stroke="white" stroke-width="1.5" d="M0,-3.0v7 M-2.5,-0.5L0,-3.0L2.5,-0.5"/>
                </g>
               <g id="resetDef">
                       <use xlink:href="#rim2" fill="#404040">
                               <set attributeName="fill" to="#808080" begin="reset.mouseover" end="reset.mouseout"/>
                       </use>
               </g>
        </defs>

<script type="text/javascript">
var viewWidth = 1520;
var viewHeight = 123;
var sectionId = 'dynsection-6';
</script>
<script xlink:href="../../svgpan.js"/>
<svg id="graph" class="graph">
<g id="viewport">
<title>EdgeHeap::heapifyDown</title>
<polygon fill="white" stroke="none" points="-4,4 -4,-119 1516,-119 1516,4 -4,4"/>
<!-- Node78 -->
<g id="node1" class="node"><title>Node78</title>
<polygon fill="#bfbfbf" stroke="black" points="0,-19.5 0,-38.5 125,-38.5 125,-19.5 0,-19.5"/>
<text text-anchor="middle" x="62.5" y="-26.5" font-family="Helvetica,sans-Serif" font-size="10.00">EdgeHeap::heapifyDown</text>
</g>
<!-- Node79 -->
<g id="node2" class="node"><title>Node79</title>
<g id="a_node2"><a xlink:href="../../d8/de9/class_edge_heap.html#a71040389a82aaff7be40c94a95afc357" target="_top" xlink:title="EdgeHeap::removeAt">
<polygon fill="white" stroke="black" points="161,-38.5 161,-57.5 271,-57.5 271,-38.5 161,-38.5"/>
<text text-anchor="middle" x="216" y="-45.5" font-family="Helvetica,sans-Serif" font-size="10.00">EdgeHeap::removeAt</text>
</a>
</g>
</g>
<!-- Node78&#45;&gt;Node79 -->
<g id="edge1" class="edge"><title>Node78&#45;&gt;Node79</title>
<path fill="none" stroke="midnightblue" d="M135.16,-37.9871C143.762,-39.0659 152.435,-40.1536 160.733,-41.1942"/>
<polygon fill="midnightblue" stroke="midnightblue" points="135.479,-34.4997 125.121,-36.728 134.608,-41.4453 135.479,-34.4997"/>
</g>
<!-- Node93 -->
<g id="node16" class="node"><title>Node93</title>
<g id="a_node16"><a xlink:href="../../d8/de9/class_edge_heap.html#aed5f5e75856c0e3bcb8ccc29184a88c0" target="_top" xlink:title="EdgeHeap::updateAt">
<polygon fill="white" stroke="black" points="162.5,-0.5 162.5,-19.5 269.5,-19.5 269.5,-0.5 162.5,-0.5"/>
<text text-anchor="middle" x="216" y="-7.5" font-family="Helvetica,sans-Serif" font-size="10.00">EdgeHeap::updateAt</text>
</a>
</g>
</g>
<!-- Node78&#45;&gt;Node93 -->
<g id="edge18" class="edge"><title>Node78&#45;&gt;Node93</title>
<path fill="none" stroke="midnightblue" d="M135.289,-19.9968C144.347,-18.8607 153.482,-17.7151 162.172,-16.6253"/>
<polygon fill="midnightblue" stroke="midnightblue" points="134.608,-16.5547 125.121,-21.272 135.479,-23.5003 134.608,-16.5547"/>
</g>
<!-- Node80 -->
<g id="node3" class="node"><title>Node80</title>
<g id="a_node3"><a xlink:href="../../d8/de9/class_edge_heap.html#a001dc48506130f599bddb241006d2920" target="_top" xlink:title="EdgeHeap::removeFront">
<polygon fill="white" stroke="black" points="444,-76.5 444,-95.5 567,-95.5 567,-76.5 444,-76.5"/>
<text text-anchor="middle" x="505.5" y="-83.5" font-family="Helvetica,sans-Serif" font-size="10.00">EdgeHeap::removeFront</text>
</a>
</g>
</g>
<!-- Node79&#45;&gt;Node80 -->
<g id="edge2" class="edge"><title>Node79&#45;&gt;Node80</title>
<path fill="none" stroke="midnightblue" d="M267.617,-59.7248C280.416,-62.4027 294.171,-65.035 307,-67 352.626,-73.9882 404.6,-78.8664 443.775,-81.9288"/>
<polygon fill="midnightblue" stroke="midnightblue" points="268.104,-56.2499 257.593,-57.5793 266.639,-63.0949 268.104,-56.2499"/>
</g>
<!-- Node91 -->
<g id="node14" class="node"><title>Node91</title>
<g id="a_node14"><a xlink:href="../../d8/de9/class_edge_heap.html#ac36afe05c095a87767748b41dfa831a5" target="_top" xlink:title="EdgeHeap::remove">
<polygon fill="white" stroke="black" points="307,-38.5 307,-57.5 408,-57.5 408,-38.5 307,-38.5"/>
<text text-anchor="middle" x="357.5" y="-45.5" font-family="Helvetica,sans-Serif" font-size="10.00">EdgeHeap::remove</text>
</a>
</g>
</g>
<!-- Node79&#45;&gt;Node91 -->
<g id="edge15" class="edge"><title>Node79&#45;&gt;Node91</title>
<path fill="none" stroke="midnightblue" d="M281.535,-48C289.968,-48 298.502,-48 306.642,-48"/>
<polygon fill="midnightblue" stroke="midnightblue" points="281.334,-44.5001 271.334,-48 281.334,-51.5001 281.334,-44.5001"/>
</g>
<!-- Node81 -->
<g id="node4" class="node"><title>Node81</title>
<g id="a_node4"><a xlink:href="../../d3/dd4/class_r_a_g.html#ab09eebb1b704d18b583d528e77f7604a" target="_top" xlink:title="RAG::regionMerging">
<polygon fill="white" stroke="black" points="603,-57.5 603,-76.5 708,-76.5 708,-57.5 603,-57.5"/>
<text text-anchor="middle" x="655.5" y="-64.5" font-family="Helvetica,sans-Serif" font-size="10.00">RAG::regionMerging</text>
</a>
</g>
</g>
<!-- Node80&#45;&gt;Node81 -->
<g id="edge3" class="edge"><title>Node80&#45;&gt;Node81</title>
<path fill="none" stroke="midnightblue" d="M577.177,-76.9267C585.787,-75.8213 594.457,-74.7082 602.721,-73.6474"/>
<polygon fill="midnightblue" stroke="midnightblue" points="576.597,-73.4722 567.124,-78.2172 577.489,-80.4152 576.597,-73.4722"/>
</g>
<!-- Node82 -->
<g id="node5" class="node"><title>Node82</title>
<g id="a_node5"><a xlink:href="../../d1/ded/classimage.html#a12343719e8d96a4bda9c5bd6c035d52a" target="_top" xlink:title="image::mergeBlockX">
<polygon fill="white" stroke="black" points="750,-95.5 750,-114.5 857,-114.5 857,-95.5 750,-95.5"/>
<text text-anchor="middle" x="803.5" y="-102.5" font-family="Helvetica,sans-Serif" font-size="10.00">image::mergeBlockX</text>
</a>
</g>
</g>
<!-- Node81&#45;&gt;Node82 -->
<g id="edge4" class="edge"><title>Node81&#45;&gt;Node82</title>
<path fill="none" stroke="midnightblue" d="M703.036,-79.1121C723.37,-84.4044 746.871,-90.5213 765.923,-95.4799"/>
<polygon fill="midnightblue" stroke="midnightblue" points="703.901,-75.7207 693.342,-76.589 702.138,-82.4951 703.901,-75.7207"/>
</g>
<!-- Node86 -->
<g id="node9" class="node"><title>Node86</title>
<g id="a_node9"><a xlink:href="../../d1/ded/classimage.html#aa21fc5a07af7528869425e750090b3b8" target="_top" xlink:title="image::mergeBlockY">
<polygon fill="white" stroke="black" points="750,-57.5 750,-76.5 857,-76.5 857,-57.5 750,-57.5"/>
<text text-anchor="middle" x="803.5" y="-64.5" font-family="Helvetica,sans-Serif" font-size="10.00">image::mergeBlockY</text>
</a>
</g>
</g>
<!-- Node81&#45;&gt;Node86 -->
<g id="edge8" class="edge"><title>Node81&#45;&gt;Node86</title>
<path fill="none" stroke="midnightblue" d="M718.631,-67C729.008,-67 739.685,-67 749.797,-67"/>
<polygon fill="midnightblue" stroke="midnightblue" points="718.385,-63.5001 708.385,-67 718.385,-70.5001 718.385,-63.5001"/>
</g>
<!-- Node88 -->
<g id="node11" class="node"><title>Node88</title>
<g id="a_node11"><a xlink:href="../../d8/dd2/classimageblock.html#abcc69a8c00ad79067185c700463f8126" target="_top" xlink:title="imageblock::createBPT">
<polygon fill="white" stroke="black" points="744,-19.5 744,-38.5 863,-38.5 863,-19.5 744,-19.5"/>
<text text-anchor="middle" x="803.5" y="-26.5" font-family="Helvetica,sans-Serif" font-size="10.00">imageblock::createBPT</text>
</a>
</g>
</g>
<!-- Node81&#45;&gt;Node88 -->
<g id="edge11" class="edge"><title>Node81&#45;&gt;Node88</title>
<path fill="none" stroke="midnightblue" d="M703.036,-54.8879C723.37,-49.5956 746.871,-43.4787 765.923,-38.5201"/>
<polygon fill="midnightblue" stroke="midnightblue" points="702.138,-51.5049 693.342,-57.411 703.901,-58.2793 702.138,-51.5049"/>
</g>
<!-- Node83 -->
<g id="node6" class="node"><title>Node83</title>
<g id="a_node6"><a xlink:href="../../d1/ded/classimage.html#a83026280ad6cc713ec9489ff3bd9776e" target="_top" xlink:title="image::ProcessBoundaryX">
<polygon fill="white" stroke="black" points="1068,-95.5 1068,-114.5 1201,-114.5 1201,-95.5 1068,-95.5"/>
<text text-anchor="middle" x="1134.5" y="-102.5" font-family="Helvetica,sans-Serif" font-size="10.00">image::ProcessBoundaryX</text>
</a>
</g>
</g>
<!-- Node82&#45;&gt;Node83 -->
<g id="edge5" class="edge"><title>Node82&#45;&gt;Node83</title>
<path fill="none" stroke="midnightblue" d="M867.399,-105C924.829,-105 1009.41,-105 1067.73,-105"/>
<polygon fill="midnightblue" stroke="midnightblue" points="867.36,-101.5 857.36,-105 867.36,-108.5 867.36,-101.5"/>
</g>
<!-- Node84 -->
<g id="node7" class="node"><title>Node84</title>
<g id="a_node7"><a xlink:href="../../d1/ded/classimage.html#a4689c56b85c46d48ea52f0c9fa13891e" target="_top" xlink:title="image::processing">
<polygon fill="white" stroke="black" points="1237,-57.5 1237,-76.5 1333,-76.5 1333,-57.5 1237,-57.5"/>
<text text-anchor="middle" x="1285" y="-64.5" font-family="Helvetica,sans-Serif" font-size="10.00">image::processing</text>
</a>
</g>
</g>
<!-- Node83&#45;&gt;Node84 -->
<g id="edge6" class="edge"><title>Node83&#45;&gt;Node84</title>
<path fill="none" stroke="midnightblue" d="M1182.83,-92.8879C1203.51,-87.5956 1227.42,-81.4787 1246.8,-76.5201"/>
<polygon fill="midnightblue" stroke="midnightblue" points="1181.79,-89.5411 1172.97,-95.411 1183.53,-96.3226 1181.79,-89.5411"/>
</g>
<!-- Node85 -->
<g id="node8" class="node"><title>Node85</title>
<g id="a_node8"><a xlink:href="../../d9/dc6/class_main_window.html#a9a45eb9ebe6d27bcd23677d9fbb74dd8" target="_top" xlink:title="MainWindow::on_Go_clicked">
<polygon fill="white" stroke="black" points="1369,-57.5 1369,-76.5 1512,-76.5 1512,-57.5 1369,-57.5"/>
<text text-anchor="middle" x="1440.5" y="-64.5" font-family="Helvetica,sans-Serif" font-size="10.00">MainWindow::on_Go_clicked</text>
</a>
</g>
</g>
<!-- Node84&#45;&gt;Node85 -->
<g id="edge7" class="edge"><title>Node84&#45;&gt;Node85</title>
<path fill="none" stroke="midnightblue" d="M1343.58,-67C1351.85,-67 1360.44,-67 1368.93,-67"/>
<polygon fill="midnightblue" stroke="midnightblue" points="1343.31,-63.5001 1333.31,-67 1343.31,-70.5001 1343.31,-63.5001"/>
</g>
<!-- Node87 -->
<g id="node10" class="node"><title>Node87</title>
<g id="a_node10"><a xlink:href="../../d1/ded/classimage.html#adf6b8c126649c9a40387f12b5f5f07d5" target="_top" xlink:title="image::ProcessBoundaryY">
<polygon fill="white" stroke="black" points="899,-57.5 899,-76.5 1032,-76.5 1032,-57.5 899,-57.5"/>
<text text-anchor="middle" x="965.5" y="-64.5" font-family="Helvetica,sans-Serif" font-size="10.00">image::ProcessBoundaryY</text>
</a>
</g>
</g>
<!-- Node86&#45;&gt;Node87 -->
<g id="edge9" class="edge"><title>Node86&#45;&gt;Node87</title>
<path fill="none" stroke="midnightblue" d="M867.486,-67C877.798,-67 888.505,-67 898.879,-67"/>
<polygon fill="midnightblue" stroke="midnightblue" points="867.333,-63.5001 857.333,-67 867.333,-70.5001 867.333,-63.5001"/>
</g>
<!-- Node87&#45;&gt;Node84 -->
<g id="edge10" class="edge"><title>Node87&#45;&gt;Node84</title>
<path fill="none" stroke="midnightblue" d="M1042.54,-67C1102.98,-67 1185.61,-67 1236.85,-67"/>
<polygon fill="midnightblue" stroke="midnightblue" points="1042.29,-63.5001 1032.29,-67 1042.29,-70.5001 1042.29,-63.5001"/>
</g>
<!-- Node89 -->
<g id="node12" class="node"><title>Node89</title>
<g id="a_node12"><a xlink:href="../../d8/dd2/classimageblock.html#af3b91e3daaa8014af1239f60da6b0bf5" target="_top" xlink:title="imageblock::processing">
<polygon fill="white" stroke="black" points="906,-19.5 906,-38.5 1025,-38.5 1025,-19.5 906,-19.5"/>
<text text-anchor="middle" x="965.5" y="-26.5" font-family="Helvetica,sans-Serif" font-size="10.00">imageblock::processing</text>
</a>
</g>
</g>
<!-- Node88&#45;&gt;Node89 -->
<g id="edge12" class="edge"><title>Node88&#45;&gt;Node89</title>
<path fill="none" stroke="midnightblue" d="M873.415,-29C884.217,-29 895.294,-29 905.838,-29"/>
<polygon fill="midnightblue" stroke="midnightblue" points="873.17,-25.5001 863.17,-29 873.17,-32.5001 873.17,-25.5001"/>
</g>
<!-- Node90 -->
<g id="node13" class="node"><title>Node90</title>
<g id="a_node13"><a xlink:href="../../d1/ded/classimage.html#ad5a9d767eca6f9bbb8dcb556527edf4d" target="_top" xlink:title="image::ProcessTiles">
<polygon fill="white" stroke="black" points="1081.5,-19.5 1081.5,-38.5 1187.5,-38.5 1187.5,-19.5 1081.5,-19.5"/>
<text text-anchor="middle" x="1134.5" y="-26.5" font-family="Helvetica,sans-Serif" font-size="10.00">image::ProcessTiles</text>
</a>
</g>
</g>
<!-- Node89&#45;&gt;Node90 -->
<g id="edge13" class="edge"><title>Node89&#45;&gt;Node90</title>
<path fill="none" stroke="midnightblue" d="M1035.78,-29C1050.99,-29 1066.86,-29 1081.27,-29"/>
<polygon fill="midnightblue" stroke="midnightblue" points="1035.38,-25.5001 1025.38,-29 1035.38,-32.5001 1035.38,-25.5001"/>
</g>
<!-- Node90&#45;&gt;Node84 -->
<g id="edge14" class="edge"><title>Node90&#45;&gt;Node84</title>
<path fill="none" stroke="midnightblue" d="M1182.83,-41.1121C1203.51,-46.4044 1227.42,-52.5213 1246.8,-57.4799"/>
<polygon fill="midnightblue" stroke="midnightblue" points="1183.53,-37.6774 1172.97,-38.589 1181.79,-44.4589 1183.53,-37.6774"/>
</g>
<!-- Node92 -->
<g id="node15" class="node"><title>Node92</title>
<g id="a_node15"><a xlink:href="../../d3/dd4/class_r_a_g.html#aa2de492a3df037db29b0e3ccab5251ee" target="_top" xlink:title="RAG::merge">
<polygon fill="white" stroke="black" points="470,-38.5 470,-57.5 541,-57.5 541,-38.5 470,-38.5"/>
<text text-anchor="middle" x="505.5" y="-45.5" font-family="Helvetica,sans-Serif" font-size="10.00">RAG::merge</text>
</a>
</g>
</g>
<!-- Node91&#45;&gt;Node92 -->
<g id="edge16" class="edge"><title>Node91&#45;&gt;Node92</title>
<path fill="none" stroke="midnightblue" d="M418.438,-48C435.849,-48 454.285,-48 469.608,-48"/>
<polygon fill="midnightblue" stroke="midnightblue" points="418.337,-44.5001 408.337,-48 418.337,-51.5001 418.337,-44.5001"/>
</g>
<!-- Node92&#45;&gt;Node81 -->
<g id="edge17" class="edge"><title>Node92&#45;&gt;Node81</title>
<path fill="none" stroke="midnightblue" d="M551.501,-53.7772C567.725,-55.8599 586.157,-58.2262 602.9,-60.3757"/>
<polygon fill="midnightblue" stroke="midnightblue" points="551.564,-50.2566 541.199,-52.4547 550.672,-57.1996 551.564,-50.2566"/>
</g>
<!-- Node94 -->
<g id="node17" class="node"><title>Node94</title>
<g id="a_node17"><a xlink:href="../../d8/de9/class_edge_heap.html#a7d8eaf4111da4c024feb5f2fb8d7cafa" target="_top" xlink:title="EdgeHeap::update">
<polygon fill="white" stroke="black" points="308.5,-0.5 308.5,-19.5 406.5,-19.5 406.5,-0.5 308.5,-0.5"/>
<text text-anchor="middle" x="357.5" y="-7.5" font-family="Helvetica,sans-Serif" font-size="10.00">EdgeHeap::update</text>
</a>
</g>
</g>
<!-- Node93&#45;&gt;Node94 -->
<g id="edge19" class="edge"><title>Node93&#45;&gt;Node94</title>
<path fill="none" stroke="midnightblue" d="M279.957,-10C289.466,-10 299.145,-10 308.278,-10"/>
<polygon fill="midnightblue" stroke="midnightblue" points="279.739,-6.5001 269.739,-10 279.739,-13.5001 279.739,-6.5001"/>
</g>
<!-- Node94&#45;&gt;Node92 -->
<g id="edge20" class="edge"><title>Node94&#45;&gt;Node92</title>
<path fill="none" stroke="midnightblue" d="M405.302,-22.1813C426.205,-27.6218 450.412,-33.9223 469.68,-38.9373"/>
<polygon fill="midnightblue" stroke="midnightblue" points="405.901,-18.7207 395.342,-19.589 404.138,-25.4951 405.901,-18.7207"/>
</g>
</g>
</svg>
        <g id="navigator" transform="translate(0 0)" fill="#404254">
                <rect fill="#f2f5e9" fill-opacity="0.5" stroke="#606060" stroke-width=".5" x="0" y="0" width="60" height="60"/>
                <use id="zoomplus" xlink:href="#zoomPlus" x="17" y="9" onmousedown="handleZoom(evt,'in')"/>
                <use id="zoomminus" xlink:href="#zoomMin" x="42" y="9" onmousedown="handleZoom(evt,'out')"/>
                <use id="reset" xlink:href="#resetDef" x="30" y="36" onmousedown="handleReset()"/>
                <g id="arrowUp" xlink:href="#dirArrow" transform="translate(30 24)" onmousedown="handlePan(0,-1)">
                  <use xlink:href="#rim" fill="#404040">
                        <set attributeName="fill" to="#808080" begin="arrowUp.mouseover" end="arrowUp.mouseout"/>
                  </use>
                  <path fill="none" stroke="white" stroke-width="1.5" d="M0,-3.0v7 M-2.5,-0.5L0,-3.0L2.5,-0.5"/>
                </g>
                <g id="arrowRight" xlink:href="#dirArrow" transform="rotate(90) translate(36 -43)" onmousedown="handlePan(1,0)">
                  <use xlink:href="#rim" fill="#404040">
                        <set attributeName="fill" to="#808080" begin="arrowRight.mouseover" end="arrowRight.mouseout"/>
                  </use>
                  <path fill="none" stroke="white" stroke-width="1.5" d="M0,-3.0v7 M-2.5,-0.5L0,-3.0L2.5,-0.5"/>
                </g>
                <g id="arrowDown" xlink:href="#dirArrow" transform="rotate(180) translate(-30 -48)" onmousedown="handlePan(0,1)">
                  <use xlink:href="#rim" fill="#404040">
                        <set attributeName="fill" to="#808080" begin="arrowDown.mouseover" end="arrowDown.mouseout"/>
                  </use>
                  <path fill="none" stroke="white" stroke-width="1.5" d="M0,-3.0v7 M-2.5,-0.5L0,-3.0L2.5,-0.5"/>
                </g>
                <g id="arrowLeft" xlink:href="#dirArrow" transform="rotate(270) translate(-36 17)" onmousedown="handlePan(-1,0)">
                  <use xlink:href="#rim" fill="#404040">
                        <set attributeName="fill" to="#808080" begin="arrowLeft.mouseover" end="arrowLeft.mouseout"/>
                  </use>
                  <path fill="none" stroke="white" stroke-width="1.5" d="M0,-3.0v7 M-2.5,-0.5L0,-3.0L2.5,-0.5"/>
                </g>
        </g>
        <svg viewBox="0 0 15 15" width="100%" height="30px" preserveAspectRatio="xMaxYMin meet">
         <g id="arrow_out" transform="scale(0.3 0.3)">
          <a xlink:href="class_edge_heap_af02715f2265926338a4b33135c821a4c_icgraph_org.svg" target="_base">
           <rect id="button" ry="5" rx="5" y="6" x="6" height="38" width="38"
                fill="#f2f5e9" fill-opacity="0.5" stroke="#606060" stroke-width="1.0"/>
           <path id="arrow"
             d="M 11.500037,31.436501 C 11.940474,20.09759 22.043105,11.32322 32.158766,21.979434 L 37.068811,17.246167 C 37.068811,17.246167 37.088388,32 37.088388,32 L 22.160133,31.978069 C 22.160133,31.978069 26.997745,27.140456 26.997745,27.140456 C 18.528582,18.264221 13.291696,25.230495 11.500037,31.436501 z"
             style="fill:#404040;"/>
          </a>
         </g>
        </svg>
</svg>
