<?xml version="1.0" encoding="UTF-8" standalone="no"?>
<!DOCTYPE svg PUBLIC "-//W3C//DTD SVG 1.1//EN"
 "http://www.w3.org/Graphics/SVG/1.1/DTD/svg11.dtd">
<!-- Generated by graphviz version 2.38.0 (20140413.2041)
 -->
<!-- Title: EdgeHeap::heapifyDown Pages: 1 -->
<svg width="585pt" height="180pt"
 viewBox="0.00 0.00 585.00 180.00" xmlns="http://www.w3.org/2000/svg" xmlns:xlink="http://www.w3.org/1999/xlink">
<g id="graph0" class="graph" transform="scale(1 1) rotate(0) translate(4 176)">
<title>EdgeHeap::heapifyDown</title>
<polygon fill="white" stroke="none" points="-4,4 -4,-176 581,-176 581,4 -4,4"/>
<!-- Node70 -->
<g id="node1" class="node"><title>Node70</title>
<polygon fill="#bfbfbf" stroke="black" points="0,-76.5 0,-95.5 125,-95.5 125,-76.5 0,-76.5"/>
<text text-anchor="middle" x="62.5" y="-83.5" font-family="Helvetica,sans-Serif" font-size="10.00">EdgeHeap::heapifyDown</text>
</g>
<!-- Node71 -->
<g id="node2" class="node"><title>Node71</title>
<g id="a_node2"><a xlink:href="../../d8/de9/class_edge_heap.html#add248e35c4c2443246ff6c7cd654ae9f" target="_top" xlink:title="EdgeHeap::edgeComparator">
<polygon fill="white" stroke="black" points="161,-76.5 161,-95.5 301,-95.5 301,-76.5 161,-76.5"/>
<text text-anchor="middle" x="231" y="-83.5" font-family="Helvetica,sans-Serif" font-size="10.00">EdgeHeap::edgeComparator</text>
</a>
</g>
</g>
<!-- Node70&#45;&gt;Node71 -->
<g id="edge1" class="edge"><title>Node70&#45;&gt;Node71</title>
<path fill="none" stroke="midnightblue" d="M125.025,-86C133.415,-86 142.121,-86 150.768,-86"/>
<polygon fill="midnightblue" stroke="midnightblue" points="150.871,-89.5001 160.871,-86 150.871,-82.5001 150.871,-89.5001"/>
</g>
<!-- Node72 -->
<g id="node3" class="node"><title>Node72</title>
<g id="a_node3"><a xlink:href="../../dc/d8f/class_node.html#a13467fc326459c1d607547b3e9470710" target="_top" xlink:title="Node::getArea">
<polygon fill="white" stroke="black" points="344.5,-152.5 344.5,-171.5 424.5,-171.5 424.5,-152.5 344.5,-152.5"/>
<text text-anchor="middle" x="384.5" y="-159.5" font-family="Helvetica,sans-Serif" font-size="10.00">Node::getArea</text>
</a>
</g>
</g>
<!-- Node71&#45;&gt;Node72 -->
<g id="edge2" class="edge"><title>Node71&#45;&gt;Node72</title>
<path fill="none" stroke="midnightblue" d="M248.44,-95.6545C268.867,-107.479 304.949,-127.808 337,-143 340.901,-144.849 345.032,-146.693 349.158,-148.466"/>
<polygon fill="midnightblue" stroke="midnightblue" points="348.09,-151.812 358.666,-152.439 350.789,-145.354 348.09,-151.812"/>
</g>
<!-- Node74 -->
<g id="node5" class="node"><title>Node74</title>
<g id="a_node5"><a xlink:href="../../d7/d77/class_edge.html#aaaa9cb49c141b310873cd75fd493e22d" target="_top" xlink:title="Edge::getNode1">
<polygon fill="white" stroke="black" points="341,-114.5 341,-133.5 428,-133.5 428,-114.5 341,-114.5"/>
<text text-anchor="middle" x="384.5" y="-121.5" font-family="Helvetica,sans-Serif" font-size="10.00">Edge::getNode1</text>
</a>
</g>
</g>
<!-- Node71&#45;&gt;Node74 -->
<g id="edge4" class="edge"><title>Node71&#45;&gt;Node74</title>
<path fill="none" stroke="midnightblue" d="M270.23,-95.589C290.132,-100.581 314.657,-106.732 335.791,-112.033"/>
<polygon fill="midnightblue" stroke="midnightblue" points="334.994,-115.442 345.545,-114.48 336.697,-108.652 334.994,-115.442"/>
</g>
<!-- Node75 -->
<g id="node6" class="node"><title>Node75</title>
<g id="a_node6"><a xlink:href="../../d7/d77/class_edge.html#a50017668f77ed019a5caceafbb1eb16f" target="_top" xlink:title="Edge::getNode2">
<polygon fill="white" stroke="black" points="341,-76.5 341,-95.5 428,-95.5 428,-76.5 341,-76.5"/>
<text text-anchor="middle" x="384.5" y="-83.5" font-family="Helvetica,sans-Serif" font-size="10.00">Edge::getNode2</text>
</a>
</g>
</g>
<!-- Node71&#45;&gt;Node75 -->
<g id="edge5" class="edge"><title>Node71&#45;&gt;Node75</title>
<path fill="none" stroke="midnightblue" d="M301.1,-86C311.072,-86 321.199,-86 330.782,-86"/>
<polygon fill="midnightblue" stroke="midnightblue" points="330.935,-89.5001 340.935,-86 330.935,-82.5001 330.935,-89.5001"/>
</g>
<!-- Node76 -->
<g id="node7" class="node"><title>Node76</title>
<g id="a_node7"><a xlink:href="../../dc/d8f/class_node.html#aa3512938403662345b64049920d1cdaf" target="_top" xlink:title="Node::getPosition">
<polygon fill="white" stroke="black" points="337,-38.5 337,-57.5 432,-57.5 432,-38.5 337,-38.5"/>
<text text-anchor="middle" x="384.5" y="-45.5" font-family="Helvetica,sans-Serif" font-size="10.00">Node::getPosition</text>
</a>
</g>
</g>
<!-- Node71&#45;&gt;Node76 -->
<g id="edge6" class="edge"><title>Node71&#45;&gt;Node76</title>
<path fill="none" stroke="midnightblue" d="M270.23,-76.411C290.132,-71.4191 314.657,-65.2676 335.791,-59.9666"/>
<polygon fill="midnightblue" stroke="midnightblue" points="336.697,-63.3479 345.545,-57.5201 334.994,-56.5582 336.697,-63.3479"/>
</g>
<!-- Node77 -->
<g id="node8" class="node"><title>Node77</title>
<g id="a_node8"><a xlink:href="../../d7/d77/class_edge.html#a3a776c1ccafacdbdb10fdedd9cb329af" target="_top" xlink:title="Edge::getWeight">
<polygon fill="white" stroke="black" points="340,-0.5 340,-19.5 429,-19.5 429,-0.5 340,-0.5"/>
<text text-anchor="middle" x="384.5" y="-7.5" font-family="Helvetica,sans-Serif" font-size="10.00">Edge::getWeight</text>
</a>
</g>
</g>
<!-- Node71&#45;&gt;Node77 -->
<g id="edge7" class="edge"><title>Node71&#45;&gt;Node77</title>
<path fill="none" stroke="midnightblue" d="M248.44,-76.3455C268.867,-64.5206 304.949,-44.1916 337,-29 340.901,-27.1511 345.032,-25.3068 349.158,-23.5345"/>
<polygon fill="midnightblue" stroke="midnightblue" points="350.789,-26.6464 358.666,-19.5614 348.09,-20.1875 350.789,-26.6464"/>
</g>
<!-- Node73 -->
<g id="node4" class="node"><title>Node73</title>
<g id="a_node4"><a xlink:href="../../dc/dd2/classregion_model.html#a56b1a22f355e85211760055c7559cd1e" target="_top" xlink:title="regionModel::getArea">
<polygon fill="white" stroke="black" points="468,-152.5 468,-171.5 577,-171.5 577,-152.5 468,-152.5"/>
<text text-anchor="middle" x="522.5" y="-159.5" font-family="Helvetica,sans-Serif" font-size="10.00">regionModel::getArea</text>
</a>
</g>
</g>
<!-- Node72&#45;&gt;Node73 -->
<g id="edge3" class="edge"><title>Node72&#45;&gt;Node73</title>
<path fill="none" stroke="midnightblue" d="M424.837,-162C435.108,-162 446.446,-162 457.635,-162"/>
<polygon fill="midnightblue" stroke="midnightblue" points="457.833,-165.5 467.833,-162 457.833,-158.5 457.833,-165.5"/>
</g>
</g>
</svg>
