<?xml version="1.0" encoding="UTF-8" standalone="no"?>
<!DOCTYPE svg PUBLIC "-//W3C//DTD SVG 1.1//EN"
 "http://www.w3.org/Graphics/SVG/1.1/DTD/svg11.dtd">
<!-- Generated by graphviz version 2.38.0 (20140413.2041)
 -->
<!-- Title: EdgeHeap::updateAt Pages: 1 -->
<!--zoomable 180 -->
<svg id="main" version="1.1" xmlns="http://www.w3.org/2000/svg" xmlns:xlink="http://www.w3.org/1999/xlink" xml:space="preserve" onload="init(evt)">
<style type="text/css"><![CDATA[
.edge:hover path { stroke: red; }
.edge:hover polygon { stroke: red; fill: red; }
]]></style>
<script type="text/javascript"><![CDATA[
var edges = document.getElementsByTagName('g');
if (edges && edges.length) {
  for (var i=0;i<edges.length;i++) {
    if (edges[i].id.substr(0,4)=='edge') {
      edges[i].setAttribute('class','edge');
    }
  }
}
]]></script>
        <defs>
                <circle id="rim" cx="0" cy="0" r="7"/>
                <circle id="rim2" cx="0" cy="0" r="3.5"/>
                <g id="zoomPlus">
                        <use xlink:href="#rim" fill="#404040">
                                <set attributeName="fill" to="#808080" begin="zoomplus.mouseover" end="zoomplus.mouseout"/>
                        </use>
                        <path d="M-4,0h8M0,-4v8" fill="none" stroke="white" stroke-width="1.5" pointer-events="none"/>
                </g>
                <g id="zoomMin">
                        <use xlink:href="#rim" fill="#404040">
                                <set attributeName="fill" to="#808080" begin="zoomminus.mouseover" end="zoomminus.mouseout"/>
                        </use>
                        <path d="M-4,0h8" fill="none" stroke="white" stroke-width="1.5" pointer-events="none"/>
                </g>
                <g id="dirArrow">
                        <path fill="none" stroke="white" stroke-width="1.5" d="M0,-3.0v7 M-2.5,-0.5L0,-3.0L2.5,-0.5"/>
                </g>
               <g id="resetDef">
                       <use xlink:href="#rim2" fill="#404040">
                               <set attributeName="fill" to="#808080" begin="reset.mouseover" end="reset.mouseout"/>
                       </use>
               </g>
        </defs>

<script type="text/javascript">
var viewWidth = 728;
var viewHeight = 180;
var sectionId = 'dynsection-21';
</script>
<script xlink:href="../../svgpan.js"/>
<svg id="graph" class="graph">
<g id="viewport">
<title>EdgeHeap::updateAt</title>
<polygon fill="white" stroke="none" points="-4,4 -4,-176 724,-176 724,4 -4,4"/>
<!-- Node261 -->
<g id="node1" class="node"><title>Node261</title>
<polygon fill="#bfbfbf" stroke="black" points="0,-76.5 0,-95.5 107,-95.5 107,-76.5 0,-76.5"/>
<text text-anchor="middle" x="53.5" y="-83.5" font-family="Helvetica,sans-Serif" font-size="10.00">EdgeHeap::updateAt</text>
</g>
<!-- Node262 -->
<g id="node2" class="node"><title>Node262</title>
<g id="a_node2"><a xlink:href="../../d8/de9/class_edge_heap.html#add248e35c4c2443246ff6c7cd654ae9f" target="_top" xlink:title="EdgeHeap::edgeComparator">
<polygon fill="white" stroke="black" points="304,-76.5 304,-95.5 444,-95.5 444,-76.5 304,-76.5"/>
<text text-anchor="middle" x="374" y="-83.5" font-family="Helvetica,sans-Serif" font-size="10.00">EdgeHeap::edgeComparator</text>
</a>
</g>
</g>
<!-- Node261&#45;&gt;Node262 -->
<g id="edge1" class="edge"><title>Node261&#45;&gt;Node262</title>
<path fill="none" stroke="midnightblue" d="M90.3903,-95.5087C106.371,-99.2735 125.498,-103.142 143,-105 198.245,-110.863 212.667,-109.966 268,-105 285.113,-103.464 303.609,-100.547 320.239,-97.4514"/>
<polygon fill="midnightblue" stroke="midnightblue" points="321.165,-100.838 330.323,-95.5115 319.842,-93.9636 321.165,-100.838"/>
</g>
<!-- Node269 -->
<g id="node9" class="node"><title>Node269</title>
<g id="a_node9"><a xlink:href="../../d8/de9/class_edge_heap.html#af02715f2265926338a4b33135c821a4c" target="_top" xlink:title="EdgeHeap::heapifyDown">
<polygon fill="white" stroke="black" points="143,-76.5 143,-95.5 268,-95.5 268,-76.5 143,-76.5"/>
<text text-anchor="middle" x="205.5" y="-83.5" font-family="Helvetica,sans-Serif" font-size="10.00">EdgeHeap::heapifyDown</text>
</a>
</g>
</g>
<!-- Node261&#45;&gt;Node269 -->
<g id="edge8" class="edge"><title>Node261&#45;&gt;Node269</title>
<path fill="none" stroke="midnightblue" d="M107.384,-86C115.629,-86 124.266,-86 132.844,-86"/>
<polygon fill="midnightblue" stroke="midnightblue" points="132.86,-89.5001 142.86,-86 132.86,-82.5001 132.86,-89.5001"/>
</g>
<!-- Node270 -->
<g id="node10" class="node"><title>Node270</title>
<g id="a_node10"><a xlink:href="../../d8/de9/class_edge_heap.html#afc03f4943c606b1d2617654cfaeeabb6" target="_top" xlink:title="EdgeHeap::heapifyUp">
<polygon fill="white" stroke="black" points="149,-38.5 149,-57.5 262,-57.5 262,-38.5 149,-38.5"/>
<text text-anchor="middle" x="205.5" y="-45.5" font-family="Helvetica,sans-Serif" font-size="10.00">EdgeHeap::heapifyUp</text>
</a>
</g>
</g>
<!-- Node261&#45;&gt;Node270 -->
<g id="edge10" class="edge"><title>Node261&#45;&gt;Node270</title>
<path fill="none" stroke="midnightblue" d="M92.3513,-76.411C111.967,-71.4417 136.119,-65.3233 156.979,-60.0387"/>
<polygon fill="midnightblue" stroke="midnightblue" points="158.087,-63.3687 166.921,-57.5201 156.368,-56.5831 158.087,-63.3687"/>
</g>
<!-- Node263 -->
<g id="node3" class="node"><title>Node263</title>
<g id="a_node3"><a xlink:href="../../dc/d8f/class_node.html#a13467fc326459c1d607547b3e9470710" target="_top" xlink:title="Node::getArea">
<polygon fill="white" stroke="black" points="487.5,-152.5 487.5,-171.5 567.5,-171.5 567.5,-152.5 487.5,-152.5"/>
<text text-anchor="middle" x="527.5" y="-159.5" font-family="Helvetica,sans-Serif" font-size="10.00">Node::getArea</text>
</a>
</g>
</g>
<!-- Node262&#45;&gt;Node263 -->
<g id="edge2" class="edge"><title>Node262&#45;&gt;Node263</title>
<path fill="none" stroke="midnightblue" d="M391.44,-95.6545C411.867,-107.479 447.949,-127.808 480,-143 483.901,-144.849 488.032,-146.693 492.158,-148.466"/>
<polygon fill="midnightblue" stroke="midnightblue" points="491.09,-151.812 501.666,-152.439 493.789,-145.354 491.09,-151.812"/>
</g>
<!-- Node265 -->
<g id="node5" class="node"><title>Node265</title>
<g id="a_node5"><a xlink:href="../../d7/d77/class_edge.html#aaaa9cb49c141b310873cd75fd493e22d" target="_top" xlink:title="Edge::getNode1">
<polygon fill="white" stroke="black" points="484,-114.5 484,-133.5 571,-133.5 571,-114.5 484,-114.5"/>
<text text-anchor="middle" x="527.5" y="-121.5" font-family="Helvetica,sans-Serif" font-size="10.00">Edge::getNode1</text>
</a>
</g>
</g>
<!-- Node262&#45;&gt;Node265 -->
<g id="edge4" class="edge"><title>Node262&#45;&gt;Node265</title>
<path fill="none" stroke="midnightblue" d="M413.23,-95.589C433.132,-100.581 457.657,-106.732 478.791,-112.033"/>
<polygon fill="midnightblue" stroke="midnightblue" points="477.994,-115.442 488.545,-114.48 479.697,-108.652 477.994,-115.442"/>
</g>
<!-- Node266 -->
<g id="node6" class="node"><title>Node266</title>
<g id="a_node6"><a xlink:href="../../d7/d77/class_edge.html#a50017668f77ed019a5caceafbb1eb16f" target="_top" xlink:title="Edge::getNode2">
<polygon fill="white" stroke="black" points="484,-76.5 484,-95.5 571,-95.5 571,-76.5 484,-76.5"/>
<text text-anchor="middle" x="527.5" y="-83.5" font-family="Helvetica,sans-Serif" font-size="10.00">Edge::getNode2</text>
</a>
</g>
</g>
<!-- Node262&#45;&gt;Node266 -->
<g id="edge5" class="edge"><title>Node262&#45;&gt;Node266</title>
<path fill="none" stroke="midnightblue" d="M444.1,-86C454.072,-86 464.199,-86 473.782,-86"/>
<polygon fill="midnightblue" stroke="midnightblue" points="473.935,-89.5001 483.935,-86 473.935,-82.5001 473.935,-89.5001"/>
</g>
<!-- Node267 -->
<g id="node7" class="node"><title>Node267</title>
<g id="a_node7"><a xlink:href="../../dc/d8f/class_node.html#aa3512938403662345b64049920d1cdaf" target="_top" xlink:title="Node::getPosition">
<polygon fill="white" stroke="black" points="480,-38.5 480,-57.5 575,-57.5 575,-38.5 480,-38.5"/>
<text text-anchor="middle" x="527.5" y="-45.5" font-family="Helvetica,sans-Serif" font-size="10.00">Node::getPosition</text>
</a>
</g>
</g>
<!-- Node262&#45;&gt;Node267 -->
<g id="edge6" class="edge"><title>Node262&#45;&gt;Node267</title>
<path fill="none" stroke="midnightblue" d="M413.23,-76.411C433.132,-71.4191 457.657,-65.2676 478.791,-59.9666"/>
<polygon fill="midnightblue" stroke="midnightblue" points="479.697,-63.3479 488.545,-57.5201 477.994,-56.5582 479.697,-63.3479"/>
</g>
<!-- Node268 -->
<g id="node8" class="node"><title>Node268</title>
<g id="a_node8"><a xlink:href="../../d7/d77/class_edge.html#a3a776c1ccafacdbdb10fdedd9cb329af" target="_top" xlink:title="Edge::getWeight">
<polygon fill="white" stroke="black" points="483,-0.5 483,-19.5 572,-19.5 572,-0.5 483,-0.5"/>
<text text-anchor="middle" x="527.5" y="-7.5" font-family="Helvetica,sans-Serif" font-size="10.00">Edge::getWeight</text>
</a>
</g>
</g>
<!-- Node262&#45;&gt;Node268 -->
<g id="edge7" class="edge"><title>Node262&#45;&gt;Node268</title>
<path fill="none" stroke="midnightblue" d="M391.44,-76.3455C411.867,-64.5206 447.949,-44.1916 480,-29 483.901,-27.1511 488.032,-25.3068 492.158,-23.5345"/>
<polygon fill="midnightblue" stroke="midnightblue" points="493.789,-26.6464 501.666,-19.5614 491.09,-20.1875 493.789,-26.6464"/>
</g>
<!-- Node264 -->
<g id="node4" class="node"><title>Node264</title>
<g id="a_node4"><a xlink:href="../../dc/dd2/classregion_model.html#a56b1a22f355e85211760055c7559cd1e" target="_top" xlink:title="regionModel::getArea">
<polygon fill="white" stroke="black" points="611,-152.5 611,-171.5 720,-171.5 720,-152.5 611,-152.5"/>
<text text-anchor="middle" x="665.5" y="-159.5" font-family="Helvetica,sans-Serif" font-size="10.00">regionModel::getArea</text>
</a>
</g>
</g>
<!-- Node263&#45;&gt;Node264 -->
<g id="edge3" class="edge"><title>Node263&#45;&gt;Node264</title>
<path fill="none" stroke="midnightblue" d="M567.837,-162C578.108,-162 589.446,-162 600.635,-162"/>
<polygon fill="midnightblue" stroke="midnightblue" points="600.833,-165.5 610.833,-162 600.833,-158.5 600.833,-165.5"/>
</g>
<!-- Node269&#45;&gt;Node262 -->
<g id="edge9" class="edge"><title>Node269&#45;&gt;Node262</title>
<path fill="none" stroke="midnightblue" d="M268.025,-86C276.415,-86 285.121,-86 293.768,-86"/>
<polygon fill="midnightblue" stroke="midnightblue" points="293.871,-89.5001 303.871,-86 293.871,-82.5001 293.871,-89.5001"/>
</g>
<!-- Node270&#45;&gt;Node262 -->
<g id="edge11" class="edge"><title>Node270&#45;&gt;Node262</title>
<path fill="none" stroke="midnightblue" d="M248.515,-57.589C270.684,-62.6487 298.073,-68.8996 321.511,-74.2488"/>
<polygon fill="midnightblue" stroke="midnightblue" points="320.759,-77.6671 331.287,-76.4799 322.317,-70.8425 320.759,-77.6671"/>
</g>
</g>
</svg>
        <g id="navigator" transform="translate(0 0)" fill="#404254">
                <rect fill="#f2f5e9" fill-opacity="0.5" stroke="#606060" stroke-width=".5" x="0" y="0" width="60" height="60"/>
                <use id="zoomplus" xlink:href="#zoomPlus" x="17" y="9" onmousedown="handleZoom(evt,'in')"/>
                <use id="zoomminus" xlink:href="#zoomMin" x="42" y="9" onmousedown="handleZoom(evt,'out')"/>
                <use id="reset" xlink:href="#resetDef" x="30" y="36" onmousedown="handleReset()"/>
                <g id="arrowUp" xlink:href="#dirArrow" transform="translate(30 24)" onmousedown="handlePan(0,-1)">
                  <use xlink:href="#rim" fill="#404040">
                        <set attributeName="fill" to="#808080" begin="arrowUp.mouseover" end="arrowUp.mouseout"/>
                  </use>
                  <path fill="none" stroke="white" stroke-width="1.5" d="M0,-3.0v7 M-2.5,-0.5L0,-3.0L2.5,-0.5"/>
                </g>
                <g id="arrowRight" xlink:href="#dirArrow" transform="rotate(90) translate(36 -43)" onmousedown="handlePan(1,0)">
                  <use xlink:href="#rim" fill="#404040">
                        <set attributeName="fill" to="#808080" begin="arrowRight.mouseover" end="arrowRight.mouseout"/>
                  </use>
                  <path fill="none" stroke="white" stroke-width="1.5" d="M0,-3.0v7 M-2.5,-0.5L0,-3.0L2.5,-0.5"/>
                </g>
                <g id="arrowDown" xlink:href="#dirArrow" transform="rotate(180) translate(-30 -48)" onmousedown="handlePan(0,1)">
                  <use xlink:href="#rim" fill="#404040">
                        <set attributeName="fill" to="#808080" begin="arrowDown.mouseover" end="arrowDown.mouseout"/>
                  </use>
                  <path fill="none" stroke="white" stroke-width="1.5" d="M0,-3.0v7 M-2.5,-0.5L0,-3.0L2.5,-0.5"/>
                </g>
                <g id="arrowLeft" xlink:href="#dirArrow" transform="rotate(270) translate(-36 17)" onmousedown="handlePan(-1,0)">
                  <use xlink:href="#rim" fill="#404040">
                        <set attributeName="fill" to="#808080" begin="arrowLeft.mouseover" end="arrowLeft.mouseout"/>
                  </use>
                  <path fill="none" stroke="white" stroke-width="1.5" d="M0,-3.0v7 M-2.5,-0.5L0,-3.0L2.5,-0.5"/>
                </g>
        </g>
        <svg viewBox="0 0 15 15" width="100%" height="30px" preserveAspectRatio="xMaxYMin meet">
         <g id="arrow_out" transform="scale(0.3 0.3)">
          <a xlink:href="class_edge_heap_aed5f5e75856c0e3bcb8ccc29184a88c0_cgraph_org.svg" target="_base">
           <rect id="button" ry="5" rx="5" y="6" x="6" height="38" width="38"
                fill="#f2f5e9" fill-opacity="0.5" stroke="#606060" stroke-width="1.0"/>
           <path id="arrow"
             d="M 11.500037,31.436501 C 11.940474,20.09759 22.043105,11.32322 32.158766,21.979434 L 37.068811,17.246167 C 37.068811,17.246167 37.088388,32 37.088388,32 L 22.160133,31.978069 C 22.160133,31.978069 26.997745,27.140456 26.997745,27.140456 C 18.528582,18.264221 13.291696,25.230495 11.500037,31.436501 z"
             style="fill:#404040;"/>
          </a>
         </g>
        </svg>
</svg>
