<?xml version="1.0" encoding="UTF-8" standalone="no"?>
<!DOCTYPE svg PUBLIC "-//W3C//DTD SVG 1.1//EN"
 "http://www.w3.org/Graphics/SVG/1.1/DTD/svg11.dtd">
<!-- Generated by graphviz version 2.38.0 (20140413.2041)
 -->
<!-- Title: EdgeHeap::updateAt Pages: 1 -->
<!--zoomable 104 -->
<svg id="main" version="1.1" xmlns="http://www.w3.org/2000/svg" xmlns:xlink="http://www.w3.org/1999/xlink" xml:space="preserve" onload="init(evt)">
<style type="text/css"><![CDATA[
.edge:hover path { stroke: red; }
.edge:hover polygon { stroke: red; fill: red; }
]]></style>
<script type="text/javascript"><![CDATA[
var edges = document.getElementsByTagName('g');
if (edges && edges.length) {
  for (var i=0;i<edges.length;i++) {
    if (edges[i].id.substr(0,4)=='edge') {
      edges[i].setAttribute('class','edge');
    }
  }
}
]]></script>
        <defs>
                <circle id="rim" cx="0" cy="0" r="7"/>
                <circle id="rim2" cx="0" cy="0" r="3.5"/>
                <g id="zoomPlus">
                        <use xlink:href="#rim" fill="#404040">
                                <set attributeName="fill" to="#808080" begin="zoomplus.mouseover" end="zoomplus.mouseout"/>
                        </use>
                        <path d="M-4,0h8M0,-4v8" fill="none" stroke="white" stroke-width="1.5" pointer-events="none"/>
                </g>
                <g id="zoomMin">
                        <use xlink:href="#rim" fill="#404040">
                                <set attributeName="fill" to="#808080" begin="zoomminus.mouseover" end="zoomminus.mouseout"/>
                        </use>
                        <path d="M-4,0h8" fill="none" stroke="white" stroke-width="1.5" pointer-events="none"/>
                </g>
                <g id="dirArrow">
                        <path fill="none" stroke="white" stroke-width="1.5" d="M0,-3.0v7 M-2.5,-0.5L0,-3.0L2.5,-0.5"/>
                </g>
               <g id="resetDef">
                       <use xlink:href="#rim2" fill="#404040">
                               <set attributeName="fill" to="#808080" begin="reset.mouseover" end="reset.mouseout"/>
                       </use>
               </g>
        </defs>

<script type="text/javascript">
var viewWidth = 1301;
var viewHeight = 104;
var sectionId = 'dynsection-22';
</script>
<script xlink:href="svgpan.js"/>
<svg id="graph" class="graph">
<g id="viewport">
<title>EdgeHeap::updateAt</title>
<polygon fill="white" stroke="none" points="-4,4 -4,-100 1297,-100 1297,4 -4,4"/>
<!-- Node271 -->
<g id="node1" class="node"><title>Node271</title>
<polygon fill="#bfbfbf" stroke="black" points="0,-38.5 0,-57.5 107,-57.5 107,-38.5 0,-38.5"/>
<text text-anchor="middle" x="53.5" y="-45.5" font-family="Helvetica,sans-Serif" font-size="10.00">EdgeHeap::updateAt</text>
</g>
<!-- Node272 -->
<g id="node2" class="node"><title>Node272</title>
<g id="a_node2"><a xlink:href="class_edge_heap.html#a7d8eaf4111da4c024feb5f2fb8d7cafa" target="_top" xlink:title="EdgeHeap::update">
<polygon fill="white" stroke="black" points="143,-38.5 143,-57.5 241,-57.5 241,-38.5 143,-38.5"/>
<text text-anchor="middle" x="192" y="-45.5" font-family="Helvetica,sans-Serif" font-size="10.00">EdgeHeap::update</text>
</a>
</g>
</g>
<!-- Node271&#45;&gt;Node272 -->
<g id="edge1" class="edge"><title>Node271&#45;&gt;Node272</title>
<path fill="none" stroke="midnightblue" d="M117.548,-48C126.044,-48 134.649,-48 142.83,-48"/>
<polygon fill="midnightblue" stroke="midnightblue" points="117.274,-44.5001 107.274,-48 117.274,-51.5001 117.274,-44.5001"/>
</g>
<!-- Node273 -->
<g id="node3" class="node"><title>Node273</title>
<g id="a_node3"><a xlink:href="class_r_a_g.html#aa2de492a3df037db29b0e3ccab5251ee" target="_top" xlink:title="RAG::merge">
<polygon fill="white" stroke="black" points="277,-38.5 277,-57.5 348,-57.5 348,-38.5 277,-38.5"/>
<text text-anchor="middle" x="312.5" y="-45.5" font-family="Helvetica,sans-Serif" font-size="10.00">RAG::merge</text>
</a>
</g>
</g>
<!-- Node272&#45;&gt;Node273 -->
<g id="edge2" class="edge"><title>Node272&#45;&gt;Node273</title>
<path fill="none" stroke="midnightblue" d="M251.356,-48C260.058,-48 268.785,-48 276.787,-48"/>
<polygon fill="midnightblue" stroke="midnightblue" points="251.199,-44.5001 241.198,-48 251.198,-51.5001 251.199,-44.5001"/>
</g>
<!-- Node274 -->
<g id="node4" class="node"><title>Node274</title>
<g id="a_node4"><a xlink:href="class_r_a_g.html#ab09eebb1b704d18b583d528e77f7604a" target="_top" xlink:title="RAG::regionMerging">
<polygon fill="white" stroke="black" points="384,-38.5 384,-57.5 489,-57.5 489,-38.5 384,-38.5"/>
<text text-anchor="middle" x="436.5" y="-45.5" font-family="Helvetica,sans-Serif" font-size="10.00">RAG::regionMerging</text>
</a>
</g>
</g>
<!-- Node273&#45;&gt;Node274 -->
<g id="edge3" class="edge"><title>Node273&#45;&gt;Node274</title>
<path fill="none" stroke="midnightblue" d="M358.379,-48C366.69,-48 375.43,-48 383.921,-48"/>
<polygon fill="midnightblue" stroke="midnightblue" points="358.134,-44.5001 348.134,-48 358.134,-51.5001 358.134,-44.5001"/>
</g>
<!-- Node275 -->
<g id="node5" class="node"><title>Node275</title>
<g id="a_node5"><a xlink:href="classimage.html#a12343719e8d96a4bda9c5bd6c035d52a" target="_top" xlink:title="image::mergeBlockX">
<polygon fill="white" stroke="black" points="531,-76.5 531,-95.5 638,-95.5 638,-76.5 531,-76.5"/>
<text text-anchor="middle" x="584.5" y="-83.5" font-family="Helvetica,sans-Serif" font-size="10.00">image::mergeBlockX</text>
</a>
</g>
</g>
<!-- Node274&#45;&gt;Node275 -->
<g id="edge4" class="edge"><title>Node274&#45;&gt;Node275</title>
<path fill="none" stroke="midnightblue" d="M484.036,-60.1121C504.37,-65.4044 527.871,-71.5213 546.923,-76.4799"/>
<polygon fill="midnightblue" stroke="midnightblue" points="484.901,-56.7207 474.342,-57.589 483.138,-63.4951 484.901,-56.7207"/>
</g>
<!-- Node279 -->
<g id="node9" class="node"><title>Node279</title>
<g id="a_node9"><a xlink:href="classimage.html#aa21fc5a07af7528869425e750090b3b8" target="_top" xlink:title="image::mergeBlockY">
<polygon fill="white" stroke="black" points="531,-38.5 531,-57.5 638,-57.5 638,-38.5 531,-38.5"/>
<text text-anchor="middle" x="584.5" y="-45.5" font-family="Helvetica,sans-Serif" font-size="10.00">image::mergeBlockY</text>
</a>
</g>
</g>
<!-- Node274&#45;&gt;Node279 -->
<g id="edge8" class="edge"><title>Node274&#45;&gt;Node279</title>
<path fill="none" stroke="midnightblue" d="M499.631,-48C510.008,-48 520.685,-48 530.797,-48"/>
<polygon fill="midnightblue" stroke="midnightblue" points="499.385,-44.5001 489.385,-48 499.385,-51.5001 499.385,-44.5001"/>
</g>
<!-- Node281 -->
<g id="node11" class="node"><title>Node281</title>
<g id="a_node11"><a xlink:href="classimageblock.html#abcc69a8c00ad79067185c700463f8126" target="_top" xlink:title="imageblock::createBPT">
<polygon fill="white" stroke="black" points="525,-0.5 525,-19.5 644,-19.5 644,-0.5 525,-0.5"/>
<text text-anchor="middle" x="584.5" y="-7.5" font-family="Helvetica,sans-Serif" font-size="10.00">imageblock::createBPT</text>
</a>
</g>
</g>
<!-- Node274&#45;&gt;Node281 -->
<g id="edge11" class="edge"><title>Node274&#45;&gt;Node281</title>
<path fill="none" stroke="midnightblue" d="M484.036,-35.8879C504.37,-30.5956 527.871,-24.4787 546.923,-19.5201"/>
<polygon fill="midnightblue" stroke="midnightblue" points="483.138,-32.5049 474.342,-38.411 484.901,-39.2793 483.138,-32.5049"/>
</g>
<!-- Node276 -->
<g id="node6" class="node"><title>Node276</title>
<g id="a_node6"><a xlink:href="classimage.html#a83026280ad6cc713ec9489ff3bd9776e" target="_top" xlink:title="image::ProcessBoundaryX">
<polygon fill="white" stroke="black" points="849,-76.5 849,-95.5 982,-95.5 982,-76.5 849,-76.5"/>
<text text-anchor="middle" x="915.5" y="-83.5" font-family="Helvetica,sans-Serif" font-size="10.00">image::ProcessBoundaryX</text>
</a>
</g>
</g>
<!-- Node275&#45;&gt;Node276 -->
<g id="edge5" class="edge"><title>Node275&#45;&gt;Node276</title>
<path fill="none" stroke="midnightblue" d="M648.399,-86C705.829,-86 790.414,-86 848.728,-86"/>
<polygon fill="midnightblue" stroke="midnightblue" points="648.36,-82.5001 638.36,-86 648.36,-89.5001 648.36,-82.5001"/>
</g>
<!-- Node277 -->
<g id="node7" class="node"><title>Node277</title>
<g id="a_node7"><a xlink:href="classimage.html#a4689c56b85c46d48ea52f0c9fa13891e" target="_top" xlink:title="image::processing">
<polygon fill="white" stroke="black" points="1018,-38.5 1018,-57.5 1114,-57.5 1114,-38.5 1018,-38.5"/>
<text text-anchor="middle" x="1066" y="-45.5" font-family="Helvetica,sans-Serif" font-size="10.00">image::processing</text>
</a>
</g>
</g>
<!-- Node276&#45;&gt;Node277 -->
<g id="edge6" class="edge"><title>Node276&#45;&gt;Node277</title>
<path fill="none" stroke="midnightblue" d="M963.833,-73.8879C984.515,-68.5956 1008.42,-62.4787 1027.8,-57.5201"/>
<polygon fill="midnightblue" stroke="midnightblue" points="962.793,-70.5411 953.973,-76.411 964.528,-77.3226 962.793,-70.5411"/>
</g>
<!-- Node278 -->
<g id="node8" class="node"><title>Node278</title>
<g id="a_node8"><a xlink:href="class_main_window.html#a9a45eb9ebe6d27bcd23677d9fbb74dd8" target="_top" xlink:title="MainWindow::on_Go_clicked">
<polygon fill="white" stroke="black" points="1150,-38.5 1150,-57.5 1293,-57.5 1293,-38.5 1150,-38.5"/>
<text text-anchor="middle" x="1221.5" y="-45.5" font-family="Helvetica,sans-Serif" font-size="10.00">MainWindow::on_Go_clicked</text>
</a>
</g>
</g>
<!-- Node277&#45;&gt;Node278 -->
<g id="edge7" class="edge"><title>Node277&#45;&gt;Node278</title>
<path fill="none" stroke="midnightblue" d="M1124.58,-48C1132.85,-48 1141.44,-48 1149.93,-48"/>
<polygon fill="midnightblue" stroke="midnightblue" points="1124.31,-44.5001 1114.31,-48 1124.31,-51.5001 1124.31,-44.5001"/>
</g>
<!-- Node280 -->
<g id="node10" class="node"><title>Node280</title>
<g id="a_node10"><a xlink:href="classimage.html#adf6b8c126649c9a40387f12b5f5f07d5" target="_top" xlink:title="image::ProcessBoundaryY">
<polygon fill="white" stroke="black" points="680,-38.5 680,-57.5 813,-57.5 813,-38.5 680,-38.5"/>
<text text-anchor="middle" x="746.5" y="-45.5" font-family="Helvetica,sans-Serif" font-size="10.00">image::ProcessBoundaryY</text>
</a>
</g>
</g>
<!-- Node279&#45;&gt;Node280 -->
<g id="edge9" class="edge"><title>Node279&#45;&gt;Node280</title>
<path fill="none" stroke="midnightblue" d="M648.486,-48C658.798,-48 669.505,-48 679.879,-48"/>
<polygon fill="midnightblue" stroke="midnightblue" points="648.333,-44.5001 638.333,-48 648.333,-51.5001 648.333,-44.5001"/>
</g>
<!-- Node280&#45;&gt;Node277 -->
<g id="edge10" class="edge"><title>Node280&#45;&gt;Node277</title>
<path fill="none" stroke="midnightblue" d="M823.542,-48C883.982,-48 966.613,-48 1017.85,-48"/>
<polygon fill="midnightblue" stroke="midnightblue" points="823.286,-44.5001 813.286,-48 823.286,-51.5001 823.286,-44.5001"/>
</g>
<!-- Node282 -->
<g id="node12" class="node"><title>Node282</title>
<g id="a_node12"><a xlink:href="classimageblock.html#af3b91e3daaa8014af1239f60da6b0bf5" target="_top" xlink:title="imageblock::processing">
<polygon fill="white" stroke="black" points="687,-0.5 687,-19.5 806,-19.5 806,-0.5 687,-0.5"/>
<text text-anchor="middle" x="746.5" y="-7.5" font-family="Helvetica,sans-Serif" font-size="10.00">imageblock::processing</text>
</a>
</g>
</g>
<!-- Node281&#45;&gt;Node282 -->
<g id="edge12" class="edge"><title>Node281&#45;&gt;Node282</title>
<path fill="none" stroke="midnightblue" d="M654.415,-10C665.217,-10 676.294,-10 686.838,-10"/>
<polygon fill="midnightblue" stroke="midnightblue" points="654.17,-6.5001 644.17,-10 654.17,-13.5001 654.17,-6.5001"/>
</g>
<!-- Node283 -->
<g id="node13" class="node"><title>Node283</title>
<g id="a_node13"><a xlink:href="classimage.html#ad5a9d767eca6f9bbb8dcb556527edf4d" target="_top" xlink:title="image::ProcessTiles">
<polygon fill="white" stroke="black" points="862.5,-0.5 862.5,-19.5 968.5,-19.5 968.5,-0.5 862.5,-0.5"/>
<text text-anchor="middle" x="915.5" y="-7.5" font-family="Helvetica,sans-Serif" font-size="10.00">image::ProcessTiles</text>
</a>
</g>
</g>
<!-- Node282&#45;&gt;Node283 -->
<g id="edge13" class="edge"><title>Node282&#45;&gt;Node283</title>
<path fill="none" stroke="midnightblue" d="M816.781,-10C831.994,-10 847.857,-10 862.267,-10"/>
<polygon fill="midnightblue" stroke="midnightblue" points="816.378,-6.5001 806.378,-10 816.378,-13.5001 816.378,-6.5001"/>
</g>
<!-- Node283&#45;&gt;Node277 -->
<g id="edge14" class="edge"><title>Node283&#45;&gt;Node277</title>
<path fill="none" stroke="midnightblue" d="M963.833,-22.1121C984.515,-27.4044 1008.42,-33.5213 1027.8,-38.4799"/>
<polygon fill="midnightblue" stroke="midnightblue" points="964.528,-18.6774 953.973,-19.589 962.793,-25.4589 964.528,-18.6774"/>
</g>
</g>
</svg>
        <g id="navigator" transform="translate(0 0)" fill="#404254">
                <rect fill="#f2f5e9" fill-opacity="0.5" stroke="#606060" stroke-width=".5" x="0" y="0" width="60" height="60"/>
                <use id="zoomplus" xlink:href="#zoomPlus" x="17" y="9" onmousedown="handleZoom(evt,'in')"/>
                <use id="zoomminus" xlink:href="#zoomMin" x="42" y="9" onmousedown="handleZoom(evt,'out')"/>
                <use id="reset" xlink:href="#resetDef" x="30" y="36" onmousedown="handleReset()"/>
                <g id="arrowUp" xlink:href="#dirArrow" transform="translate(30 24)" onmousedown="handlePan(0,-1)">
                  <use xlink:href="#rim" fill="#404040">
                        <set attributeName="fill" to="#808080" begin="arrowUp.mouseover" end="arrowUp.mouseout"/>
                  </use>
                  <path fill="none" stroke="white" stroke-width="1.5" d="M0,-3.0v7 M-2.5,-0.5L0,-3.0L2.5,-0.5"/>
                </g>
                <g id="arrowRight" xlink:href="#dirArrow" transform="rotate(90) translate(36 -43)" onmousedown="handlePan(1,0)">
                  <use xlink:href="#rim" fill="#404040">
                        <set attributeName="fill" to="#808080" begin="arrowRight.mouseover" end="arrowRight.mouseout"/>
                  </use>
                  <path fill="none" stroke="white" stroke-width="1.5" d="M0,-3.0v7 M-2.5,-0.5L0,-3.0L2.5,-0.5"/>
                </g>
                <g id="arrowDown" xlink:href="#dirArrow" transform="rotate(180) translate(-30 -48)" onmousedown="handlePan(0,1)">
                  <use xlink:href="#rim" fill="#404040">
                        <set attributeName="fill" to="#808080" begin="arrowDown.mouseover" end="arrowDown.mouseout"/>
                  </use>
                  <path fill="none" stroke="white" stroke-width="1.5" d="M0,-3.0v7 M-2.5,-0.5L0,-3.0L2.5,-0.5"/>
                </g>
                <g id="arrowLeft" xlink:href="#dirArrow" transform="rotate(270) translate(-36 17)" onmousedown="handlePan(-1,0)">
                  <use xlink:href="#rim" fill="#404040">
                        <set attributeName="fill" to="#808080" begin="arrowLeft.mouseover" end="arrowLeft.mouseout"/>
                  </use>
                  <path fill="none" stroke="white" stroke-width="1.5" d="M0,-3.0v7 M-2.5,-0.5L0,-3.0L2.5,-0.5"/>
                </g>
        </g>
        <svg viewBox="0 0 15 15" width="100%" height="30px" preserveAspectRatio="xMaxYMin meet">
         <g id="arrow_out" transform="scale(0.3 0.3)">
          <a xlink:href="class_edge_heap_aed5f5e75856c0e3bcb8ccc29184a88c0_icgraph_org.svg" target="_base">
           <rect id="button" ry="5" rx="5" y="6" x="6" height="38" width="38"
                fill="#f2f5e9" fill-opacity="0.5" stroke="#606060" stroke-width="1.0"/>
           <path id="arrow"
             d="M 11.500037,31.436501 C 11.940474,20.09759 22.043105,11.32322 32.158766,21.979434 L 37.068811,17.246167 C 37.068811,17.246167 37.088388,32 37.088388,32 L 22.160133,31.978069 C 22.160133,31.978069 26.997745,27.140456 26.997745,27.140456 C 18.528582,18.264221 13.291696,25.230495 11.500037,31.436501 z"
             style="fill:#404040;"/>
          </a>
         </g>
        </svg>
</svg>
