<?xml version="1.0" encoding="UTF-8" standalone="no"?>
<!DOCTYPE svg PUBLIC "-//W3C//DTD SVG 1.1//EN"
 "http://www.w3.org/Graphics/SVG/1.1/DTD/svg11.dtd">
<!-- Generated by graphviz version 2.38.0 (20140413.2041)
 -->
<!-- Title: io::writeClassMap Pages: 1 -->
<svg width="872pt" height="66pt"
 viewBox="0.00 0.00 872.00 66.00" xmlns="http://www.w3.org/2000/svg" xmlns:xlink="http://www.w3.org/1999/xlink">
<g id="graph0" class="graph" transform="scale(1 1) rotate(0) translate(4 62)">
<title>io::writeClassMap</title>
<polygon fill="white" stroke="none" points="-4,4 -4,-62 868,-62 868,4 -4,4"/>
<!-- Node1 -->
<g id="node1" class="node"><title>Node1</title>
<polygon fill="#bfbfbf" stroke="black" points="0,-19.5 0,-38.5 95,-38.5 95,-19.5 0,-19.5"/>
<text text-anchor="middle" x="47.5" y="-26.5" font-family="Helvetica,sans-Serif" font-size="10.00">io::writeClassMap</text>
</g>
<!-- Node2 -->
<g id="node2" class="node"><title>Node2</title>
<g id="a_node2"><a xlink:href="classimageblock.html#adbafde60f699582250656ddc2ebe82e2" target="_top" xlink:title="imageblock::saveToDisk">
<polygon fill="white" stroke="black" points="131,-38.5 131,-57.5 256,-57.5 256,-38.5 131,-38.5"/>
<text text-anchor="middle" x="193.5" y="-45.5" font-family="Helvetica,sans-Serif" font-size="10.00">imageblock::saveToDisk</text>
</a>
</g>
</g>
<!-- Node1&#45;&gt;Node2 -->
<g id="edge1" class="edge"><title>Node1&#45;&gt;Node2</title>
<path fill="none" stroke="midnightblue" d="M105.288,-36.4928C113.658,-37.5972 122.316,-38.7396 130.78,-39.8564"/>
<polygon fill="midnightblue" stroke="midnightblue" points="105.625,-33.007 95.2527,-35.1688 104.709,-39.9469 105.625,-33.007"/>
</g>
<!-- Node7 -->
<g id="node7" class="node"><title>Node7</title>
<g id="a_node7"><a xlink:href="classimage.html#a8a4c71e9c53353a4c65bb5f17122a9f4" target="_top" xlink:title="image::saveToDisk">
<polygon fill="white" stroke="black" points="143,-0.5 143,-19.5 244,-19.5 244,-0.5 143,-0.5"/>
<text text-anchor="middle" x="193.5" y="-7.5" font-family="Helvetica,sans-Serif" font-size="10.00">image::saveToDisk</text>
</a>
</g>
</g>
<!-- Node1&#45;&gt;Node7 -->
<g id="edge6" class="edge"><title>Node1&#45;&gt;Node7</title>
<path fill="none" stroke="midnightblue" d="M105.38,-21.495C117.647,-19.8764 130.527,-18.1769 142.508,-16.5961"/>
<polygon fill="midnightblue" stroke="midnightblue" points="104.709,-18.0531 95.2527,-22.8312 105.625,-24.993 104.709,-18.0531"/>
</g>
<!-- Node3 -->
<g id="node3" class="node"><title>Node3</title>
<g id="a_node3"><a xlink:href="classimageblock.html#af3b91e3daaa8014af1239f60da6b0bf5" target="_top" xlink:title="imageblock::processing">
<polygon fill="white" stroke="black" points="292,-38.5 292,-57.5 411,-57.5 411,-38.5 292,-38.5"/>
<text text-anchor="middle" x="351.5" y="-45.5" font-family="Helvetica,sans-Serif" font-size="10.00">imageblock::processing</text>
</a>
</g>
</g>
<!-- Node2&#45;&gt;Node3 -->
<g id="edge2" class="edge"><title>Node2&#45;&gt;Node3</title>
<path fill="none" stroke="midnightblue" d="M266.17,-48C274.762,-48 283.458,-48 291.836,-48"/>
<polygon fill="midnightblue" stroke="midnightblue" points="266.155,-44.5001 256.155,-48 266.155,-51.5001 266.155,-44.5001"/>
</g>
<!-- Node4 -->
<g id="node4" class="node"><title>Node4</title>
<g id="a_node4"><a xlink:href="classimage.html#ad5a9d767eca6f9bbb8dcb556527edf4d" target="_top" xlink:title="image::ProcessTiles">
<polygon fill="white" stroke="black" points="447,-38.5 447,-57.5 553,-57.5 553,-38.5 447,-38.5"/>
<text text-anchor="middle" x="500" y="-45.5" font-family="Helvetica,sans-Serif" font-size="10.00">image::ProcessTiles</text>
</a>
</g>
</g>
<!-- Node3&#45;&gt;Node4 -->
<g id="edge3" class="edge"><title>Node3&#45;&gt;Node4</title>
<path fill="none" stroke="midnightblue" d="M421.279,-48C429.884,-48 438.573,-48 446.866,-48"/>
<polygon fill="midnightblue" stroke="midnightblue" points="421.243,-44.5001 411.243,-48 421.243,-51.5001 421.243,-44.5001"/>
</g>
<!-- Node5 -->
<g id="node5" class="node"><title>Node5</title>
<g id="a_node5"><a xlink:href="classimage.html#a4689c56b85c46d48ea52f0c9fa13891e" target="_top" xlink:title="image::processing">
<polygon fill="white" stroke="black" points="589,-38.5 589,-57.5 685,-57.5 685,-38.5 589,-38.5"/>
<text text-anchor="middle" x="637" y="-45.5" font-family="Helvetica,sans-Serif" font-size="10.00">image::processing</text>
</a>
</g>
</g>
<!-- Node4&#45;&gt;Node5 -->
<g id="edge4" class="edge"><title>Node4&#45;&gt;Node5</title>
<path fill="none" stroke="midnightblue" d="M563.206,-48C571.809,-48 580.527,-48 588.797,-48"/>
<polygon fill="midnightblue" stroke="midnightblue" points="563.195,-44.5001 553.195,-48 563.194,-51.5001 563.195,-44.5001"/>
</g>
<!-- Node6 -->
<g id="node6" class="node"><title>Node6</title>
<g id="a_node6"><a xlink:href="class_main_window.html#a9a45eb9ebe6d27bcd23677d9fbb74dd8" target="_top" xlink:title="MainWindow::on_Go_clicked">
<polygon fill="white" stroke="black" points="721,-38.5 721,-57.5 864,-57.5 864,-38.5 721,-38.5"/>
<text text-anchor="middle" x="792.5" y="-45.5" font-family="Helvetica,sans-Serif" font-size="10.00">MainWindow::on_Go_clicked</text>
</a>
</g>
</g>
<!-- Node5&#45;&gt;Node6 -->
<g id="edge5" class="edge"><title>Node5&#45;&gt;Node6</title>
<path fill="none" stroke="midnightblue" d="M695.583,-48C703.853,-48 712.441,-48 720.928,-48"/>
<polygon fill="midnightblue" stroke="midnightblue" points="695.308,-44.5001 685.308,-48 695.308,-51.5001 695.308,-44.5001"/>
</g>
</g>
</svg>
