<?xml version="1.0" encoding="UTF-8" standalone="no"?>
<!DOCTYPE svg PUBLIC "-//W3C//DTD SVG 1.1//EN"
 "http://www.w3.org/Graphics/SVG/1.1/DTD/svg11.dtd">
<!-- Generated by graphviz version 2.38.0 (20140413.2041)
 -->
<!-- Title: compoundModel::getProbModel Pages: 1 -->
<svg width="356pt" height="104pt"
 viewBox="0.00 0.00 356.00 104.00" xmlns="http://www.w3.org/2000/svg" xmlns:xlink="http://www.w3.org/1999/xlink">
<g id="graph0" class="graph" transform="scale(1 1) rotate(0) translate(4 100)">
<title>compoundModel::getProbModel</title>
<polygon fill="white" stroke="none" points="-4,4 -4,-100 352,-100 352,4 -4,4"/>
<!-- Node1 -->
<g id="node1" class="node"><title>Node1</title>
<polygon fill="#bfbfbf" stroke="black" points="0,-38.5 0,-57.5 154,-57.5 154,-38.5 0,-38.5"/>
<text text-anchor="middle" x="77" y="-45.5" font-family="Helvetica,sans-Serif" font-size="10.00">compoundModel::getProbModel</text>
</g>
<!-- Node2 -->
<g id="node2" class="node"><title>Node2</title>
<g id="a_node2"><a xlink:href="classcompound_model.html#a0d8dbce587b645bb11db48683d20df58" target="_top" xlink:title="compoundModel::getOrder">
<polygon fill="white" stroke="black" points="203.5,-76.5 203.5,-95.5 334.5,-95.5 334.5,-76.5 203.5,-76.5"/>
<text text-anchor="middle" x="269" y="-83.5" font-family="Helvetica,sans-Serif" font-size="10.00">compoundModel::getOrder</text>
</a>
</g>
</g>
<!-- Node1&#45;&gt;Node2 -->
<g id="edge1" class="edge"><title>Node1&#45;&gt;Node2</title>
<path fill="none" stroke="midnightblue" d="M136.048,-59.6095C163.07,-65.014 194.818,-71.3635 220.4,-76.4799"/>
<polygon fill="midnightblue" stroke="midnightblue" points="136.437,-56.1182 125.945,-57.589 135.064,-62.9823 136.437,-56.1182"/>
</g>
<!-- Node3 -->
<g id="node3" class="node"><title>Node3</title>
<g id="a_node3"><a xlink:href="classcompound_model.html#a3a4f1be5ccd6230918036dcc56328033" target="_top" xlink:title="compoundModel::merge">
<polygon fill="white" stroke="black" points="208.5,-38.5 208.5,-57.5 329.5,-57.5 329.5,-38.5 208.5,-38.5"/>
<text text-anchor="middle" x="269" y="-45.5" font-family="Helvetica,sans-Serif" font-size="10.00">compoundModel::merge</text>
</a>
</g>
</g>
<!-- Node1&#45;&gt;Node3 -->
<g id="edge2" class="edge"><title>Node1&#45;&gt;Node3</title>
<path fill="none" stroke="midnightblue" d="M164.43,-48C179.319,-48 194.491,-48 208.467,-48"/>
<polygon fill="midnightblue" stroke="midnightblue" points="164.186,-44.5001 154.185,-48 164.185,-51.5001 164.186,-44.5001"/>
</g>
<!-- Node4 -->
<g id="node4" class="node"><title>Node4</title>
<g id="a_node4"><a xlink:href="classcompound_model.html#a0e02676235e30f43e3c574304593706b" target="_top" xlink:title="compoundModel::printHistogram">
<polygon fill="white" stroke="black" points="190,-0.5 190,-19.5 348,-19.5 348,-0.5 190,-0.5"/>
<text text-anchor="middle" x="269" y="-7.5" font-family="Helvetica,sans-Serif" font-size="10.00">compoundModel::printHistogram</text>
</a>
</g>
</g>
<!-- Node1&#45;&gt;Node4 -->
<g id="edge3" class="edge"><title>Node1&#45;&gt;Node4</title>
<path fill="none" stroke="midnightblue" d="M136.048,-36.3905C163.07,-30.986 194.818,-24.6365 220.4,-19.5201"/>
<polygon fill="midnightblue" stroke="midnightblue" points="135.064,-33.0177 125.945,-38.411 136.437,-39.8818 135.064,-33.0177"/>
</g>
</g>
</svg>
