<?xml version="1.0" encoding="UTF-8" standalone="no"?>
<!DOCTYPE svg PUBLIC "-//W3C//DTD SVG 1.1//EN"
 "http://www.w3.org/Graphics/SVG/1.1/DTD/svg11.dtd">
<!-- Generated by graphviz version 2.38.0 (20140413.2041)
 -->
<!-- Title: imageblock::createBPT Pages: 1 -->
<svg width="1348pt" height="885pt"
 viewBox="0.00 0.00 1348.00 885.18" xmlns="http://www.w3.org/2000/svg" xmlns:xlink="http://www.w3.org/1999/xlink">
<g id="graph0" class="graph" transform="scale(1 1) rotate(0) translate(4 881.177)">
<title>imageblock::createBPT</title>
<polygon fill="white" stroke="none" points="-4,4 -4,-881.177 1344,-881.177 1344,4 -4,4"/>
<!-- Node1 -->
<g id="node1" class="node"><title>Node1</title>
<polygon fill="#bfbfbf" stroke="black" points="0,-531.5 0,-550.5 119,-550.5 119,-531.5 0,-531.5"/>
<text text-anchor="middle" x="59.5" y="-538.5" font-family="Helvetica,sans-Serif" font-size="10.00">imageblock::createBPT</text>
</g>
<!-- Node2 -->
<g id="node2" class="node"><title>Node2</title>
<g id="a_node2"><a xlink:href="class_r_a_g.html#ab09eebb1b704d18b583d528e77f7604a" target="_top" xlink:title="RAG::regionMerging">
<polygon fill="white" stroke="black" points="155,-531.5 155,-550.5 260,-550.5 260,-531.5 155,-531.5"/>
<text text-anchor="middle" x="207.5" y="-538.5" font-family="Helvetica,sans-Serif" font-size="10.00">RAG::regionMerging</text>
</a>
</g>
</g>
<!-- Node1&#45;&gt;Node2 -->
<g id="edge1" class="edge"><title>Node1&#45;&gt;Node2</title>
<path fill="none" stroke="midnightblue" d="M119.043,-541C127.39,-541 136,-541 144.412,-541"/>
<polygon fill="midnightblue" stroke="midnightblue" points="144.544,-544.5 154.544,-541 144.544,-537.5 144.544,-544.5"/>
</g>
<!-- Node3 -->
<g id="node3" class="node"><title>Node3</title>
<g id="a_node3"><a xlink:href="class_edge_heap.html#a09c54300b957acc0f414fd9ee6c558fa" target="_top" xlink:title="EdgeHeap::heapify">
<polygon fill="white" stroke="black" points="775.5,-247.5 775.5,-266.5 875.5,-266.5 875.5,-247.5 775.5,-247.5"/>
<text text-anchor="middle" x="825.5" y="-254.5" font-family="Helvetica,sans-Serif" font-size="10.00">EdgeHeap::heapify</text>
</a>
</g>
</g>
<!-- Node2&#45;&gt;Node3 -->
<g id="edge2" class="edge"><title>Node2&#45;&gt;Node3</title>
<path fill="none" stroke="midnightblue" d="M210.188,-531.332C220.428,-476.006 279.739,-198.383 455,-95 584.401,-18.669 756.351,-183.968 808.712,-239.582"/>
<polygon fill="midnightblue" stroke="midnightblue" points="806.442,-242.281 815.808,-247.232 811.574,-237.52 806.442,-242.281"/>
</g>
<!-- Node7 -->
<g id="node7" class="node"><title>Node7</title>
<g id="a_node7"><a xlink:href="class_edge.html#aaaa9cb49c141b310873cd75fd493e22d" target="_top" xlink:title="Edge::getNode1">
<polygon fill="white" stroke="black" points="1104,-750.5 1104,-769.5 1191,-769.5 1191,-750.5 1104,-750.5"/>
<text text-anchor="middle" x="1147.5" y="-757.5" font-family="Helvetica,sans-Serif" font-size="10.00">Edge::getNode1</text>
</a>
</g>
</g>
<!-- Node2&#45;&gt;Node7 -->
<g id="edge19" class="edge"><title>Node2&#45;&gt;Node7</title>
<path fill="none" stroke="midnightblue" d="M208.246,-550.629C207.739,-591.009 211.447,-748.194 296,-826 369.643,-893.766 415.922,-874 516,-874 516,-874 516,-874 826.5,-874 943.37,-874 1071.05,-805.69 1122.78,-774.826"/>
<polygon fill="midnightblue" stroke="midnightblue" points="1124.79,-777.698 1131.53,-769.523 1121.17,-771.71 1124.79,-777.698"/>
</g>
<!-- Node8 -->
<g id="node8" class="node"><title>Node8</title>
<g id="a_node8"><a xlink:href="class_edge.html#a50017668f77ed019a5caceafbb1eb16f" target="_top" xlink:title="Edge::getNode2">
<polygon fill="white" stroke="black" points="1104,-66.5 1104,-85.5 1191,-85.5 1191,-66.5 1104,-66.5"/>
<text text-anchor="middle" x="1147.5" y="-73.5" font-family="Helvetica,sans-Serif" font-size="10.00">Edge::getNode2</text>
</a>
</g>
</g>
<!-- Node2&#45;&gt;Node8 -->
<g id="edge20" class="edge"><title>Node2&#45;&gt;Node8</title>
<path fill="none" stroke="midnightblue" d="M209.386,-531.281C214.719,-474.552 244.076,-186.338 296,-117 362.382,-28.355 405.255,-0 516,-0 516,-0 516,-0 826.5,-0 933.695,-0 1055.75,-40.869 1113.23,-62.6674"/>
<polygon fill="midnightblue" stroke="midnightblue" points="1112.28,-66.0511 1122.87,-66.3745 1114.79,-59.5177 1112.28,-66.0511"/>
</g>
<!-- Node11 -->
<g id="node11" class="node"><title>Node11</title>
<g id="a_node11"><a xlink:href="class_edge_heap.html#a82705f38a79714bb4f80a8218b6e50b1" target="_top" xlink:title="EdgeHeap::size">
<polygon fill="white" stroke="black" points="314.5,-550.5 314.5,-569.5 400.5,-569.5 400.5,-550.5 314.5,-550.5"/>
<text text-anchor="middle" x="357.5" y="-557.5" font-family="Helvetica,sans-Serif" font-size="10.00">EdgeHeap::size</text>
</a>
</g>
</g>
<!-- Node2&#45;&gt;Node11 -->
<g id="edge10" class="edge"><title>Node2&#45;&gt;Node11</title>
<path fill="none" stroke="midnightblue" d="M260.263,-547.645C274.483,-549.471 289.911,-551.451 304.164,-553.281"/>
<polygon fill="midnightblue" stroke="midnightblue" points="303.935,-556.78 314.3,-554.582 304.827,-549.837 303.935,-556.78"/>
</g>
<!-- Node12 -->
<g id="node12" class="node"><title>Node12</title>
<g id="a_node12"><a xlink:href="class_edge_heap.html#ad20ff8504ffd5ca5ac21be9093476741" target="_top" xlink:title="EdgeHeap::getFront">
<polygon fill="white" stroke="black" points="305.5,-512.5 305.5,-531.5 409.5,-531.5 409.5,-512.5 305.5,-512.5"/>
<text text-anchor="middle" x="357.5" y="-519.5" font-family="Helvetica,sans-Serif" font-size="10.00">EdgeHeap::getFront</text>
</a>
</g>
</g>
<!-- Node2&#45;&gt;Node12 -->
<g id="edge11" class="edge"><title>Node2&#45;&gt;Node12</title>
<path fill="none" stroke="midnightblue" d="M260.263,-534.355C271.546,-532.906 283.589,-531.36 295.201,-529.869"/>
<polygon fill="midnightblue" stroke="midnightblue" points="295.793,-533.322 305.266,-528.577 294.901,-526.379 295.793,-533.322"/>
</g>
<!-- Node13 -->
<g id="node13" class="node"><title>Node13</title>
<g id="a_node13"><a xlink:href="class_edge_heap.html#a001dc48506130f599bddb241006d2920" target="_top" xlink:title="EdgeHeap::removeFront">
<polygon fill="white" stroke="black" points="296,-797.5 296,-816.5 419,-816.5 419,-797.5 296,-797.5"/>
<text text-anchor="middle" x="357.5" y="-804.5" font-family="Helvetica,sans-Serif" font-size="10.00">EdgeHeap::removeFront</text>
</a>
</g>
</g>
<!-- Node2&#45;&gt;Node13 -->
<g id="edge12" class="edge"><title>Node2&#45;&gt;Node13</title>
<path fill="none" stroke="midnightblue" d="M213.943,-550.783C235.794,-590.055 317.352,-736.639 346.26,-788.596"/>
<polygon fill="midnightblue" stroke="midnightblue" points="343.243,-790.372 351.164,-797.409 349.36,-786.969 343.243,-790.372"/>
</g>
<!-- Node17 -->
<g id="node17" class="node"><title>Node17</title>
<g id="a_node17"><a xlink:href="class_node.html#a317d8090ed6ef5766b587a21038888b7" target="_top" xlink:title="Node::removeEdge">
<polygon fill="white" stroke="black" points="466.5,-788.5 466.5,-807.5 567.5,-807.5 567.5,-788.5 466.5,-788.5"/>
<text text-anchor="middle" x="517" y="-795.5" font-family="Helvetica,sans-Serif" font-size="10.00">Node::removeEdge</text>
</a>
</g>
</g>
<!-- Node2&#45;&gt;Node17 -->
<g id="edge21" class="edge"><title>Node2&#45;&gt;Node17</title>
<path fill="none" stroke="midnightblue" d="M216.41,-550.804C245.023,-585.704 347.145,-705.469 455,-774 461.34,-778.028 468.465,-781.575 475.549,-784.62"/>
<polygon fill="midnightblue" stroke="midnightblue" points="474.523,-787.979 485.107,-788.46 477.133,-781.484 474.523,-787.979"/>
</g>
<!-- Node18 -->
<g id="node18" class="node"><title>Node18</title>
<g id="a_node18"><a xlink:href="class_r_a_g.html#aa2de492a3df037db29b0e3ccab5251ee" target="_top" xlink:title="RAG::merge">
<polygon fill="white" stroke="black" points="322,-446.5 322,-465.5 393,-465.5 393,-446.5 322,-446.5"/>
<text text-anchor="middle" x="357.5" y="-453.5" font-family="Helvetica,sans-Serif" font-size="10.00">RAG::merge</text>
</a>
</g>
</g>
<!-- Node2&#45;&gt;Node18 -->
<g id="edge22" class="edge"><title>Node2&#45;&gt;Node18</title>
<path fill="none" stroke="midnightblue" d="M225.19,-531.415C250.95,-516.62 300.582,-488.115 330.902,-470.701"/>
<polygon fill="midnightblue" stroke="midnightblue" points="332.716,-473.696 339.644,-465.681 329.229,-467.626 332.716,-473.696"/>
</g>
<!-- Node4 -->
<g id="node4" class="node"><title>Node4</title>
<g id="a_node4"><a xlink:href="class_edge_heap.html#add248e35c4c2443246ff6c7cd654ae9f" target="_top" xlink:title="EdgeHeap::edgeComparator">
<polygon fill="white" stroke="black" points="924,-465.5 924,-484.5 1064,-484.5 1064,-465.5 924,-465.5"/>
<text text-anchor="middle" x="994" y="-472.5" font-family="Helvetica,sans-Serif" font-size="10.00">EdgeHeap::edgeComparator</text>
</a>
</g>
</g>
<!-- Node3&#45;&gt;Node4 -->
<g id="edge3" class="edge"><title>Node3&#45;&gt;Node4</title>
<path fill="none" stroke="midnightblue" d="M833.869,-266.648C859.658,-300.414 946.096,-413.588 979.585,-457.436"/>
<polygon fill="midnightblue" stroke="midnightblue" points="976.865,-459.64 985.716,-465.463 982.428,-455.391 976.865,-459.64"/>
</g>
<!-- Node5 -->
<g id="node5" class="node"><title>Node5</title>
<g id="a_node5"><a xlink:href="class_node.html#a13467fc326459c1d607547b3e9470710" target="_top" xlink:title="Node::getArea">
<polygon fill="white" stroke="black" points="1107.5,-503.5 1107.5,-522.5 1187.5,-522.5 1187.5,-503.5 1107.5,-503.5"/>
<text text-anchor="middle" x="1147.5" y="-510.5" font-family="Helvetica,sans-Serif" font-size="10.00">Node::getArea</text>
</a>
</g>
</g>
<!-- Node4&#45;&gt;Node5 -->
<g id="edge4" class="edge"><title>Node4&#45;&gt;Node5</title>
<path fill="none" stroke="midnightblue" d="M1033.23,-484.589C1053.13,-489.581 1077.66,-495.732 1098.79,-501.033"/>
<polygon fill="midnightblue" stroke="midnightblue" points="1097.99,-504.442 1108.55,-503.48 1099.7,-497.652 1097.99,-504.442"/>
</g>
<!-- Node4&#45;&gt;Node7 -->
<g id="edge6" class="edge"><title>Node4&#45;&gt;Node7</title>
<path fill="none" stroke="midnightblue" d="M1000.21,-484.81C1022.16,-526.091 1107.21,-686.088 1136.51,-741.211"/>
<polygon fill="midnightblue" stroke="midnightblue" points="1133.52,-743.044 1141.31,-750.231 1139.7,-739.758 1133.52,-743.044"/>
</g>
<!-- Node4&#45;&gt;Node8 -->
<g id="edge7" class="edge"><title>Node4&#45;&gt;Node8</title>
<path fill="none" stroke="midnightblue" d="M998.745,-465.137C1018.68,-412.63 1112.45,-165.683 1139.3,-94.9656"/>
<polygon fill="midnightblue" stroke="midnightblue" points="1142.61,-96.1094 1142.89,-85.5182 1136.06,-93.6246 1142.61,-96.1094"/>
</g>
<!-- Node9 -->
<g id="node9" class="node"><title>Node9</title>
<g id="a_node9"><a xlink:href="class_node.html#aa3512938403662345b64049920d1cdaf" target="_top" xlink:title="Node::getPosition">
<polygon fill="white" stroke="black" points="1100,-427.5 1100,-446.5 1195,-446.5 1195,-427.5 1100,-427.5"/>
<text text-anchor="middle" x="1147.5" y="-434.5" font-family="Helvetica,sans-Serif" font-size="10.00">Node::getPosition</text>
</a>
</g>
</g>
<!-- Node4&#45;&gt;Node9 -->
<g id="edge8" class="edge"><title>Node4&#45;&gt;Node9</title>
<path fill="none" stroke="midnightblue" d="M1033.23,-465.411C1053.13,-460.419 1077.66,-454.268 1098.79,-448.967"/>
<polygon fill="midnightblue" stroke="midnightblue" points="1099.7,-452.348 1108.55,-446.52 1097.99,-445.558 1099.7,-452.348"/>
</g>
<!-- Node10 -->
<g id="node10" class="node"><title>Node10</title>
<g id="a_node10"><a xlink:href="class_edge.html#a3a776c1ccafacdbdb10fdedd9cb329af" target="_top" xlink:title="Edge::getWeight">
<polygon fill="white" stroke="black" points="1103,-465.5 1103,-484.5 1192,-484.5 1192,-465.5 1103,-465.5"/>
<text text-anchor="middle" x="1147.5" y="-472.5" font-family="Helvetica,sans-Serif" font-size="10.00">Edge::getWeight</text>
</a>
</g>
</g>
<!-- Node4&#45;&gt;Node10 -->
<g id="edge9" class="edge"><title>Node4&#45;&gt;Node10</title>
<path fill="none" stroke="midnightblue" d="M1064.1,-475C1073.63,-475 1083.29,-475 1092.49,-475"/>
<polygon fill="midnightblue" stroke="midnightblue" points="1092.65,-478.5 1102.65,-475 1092.65,-471.5 1092.65,-478.5"/>
</g>
<!-- Node6 -->
<g id="node6" class="node"><title>Node6</title>
<g id="a_node6"><a xlink:href="classregion_model.html#a56b1a22f355e85211760055c7559cd1e" target="_top" xlink:title="regionModel::getArea">
<polygon fill="white" stroke="black" points="1231,-503.5 1231,-522.5 1340,-522.5 1340,-503.5 1231,-503.5"/>
<text text-anchor="middle" x="1285.5" y="-510.5" font-family="Helvetica,sans-Serif" font-size="10.00">regionModel::getArea</text>
</a>
</g>
</g>
<!-- Node5&#45;&gt;Node6 -->
<g id="edge5" class="edge"><title>Node5&#45;&gt;Node6</title>
<path fill="none" stroke="midnightblue" d="M1187.84,-513C1198.11,-513 1209.45,-513 1220.63,-513"/>
<polygon fill="midnightblue" stroke="midnightblue" points="1220.83,-516.5 1230.83,-513 1220.83,-509.5 1220.83,-516.5"/>
</g>
<!-- Node14 -->
<g id="node14" class="node"><title>Node14</title>
<g id="a_node14"><a xlink:href="class_edge_heap.html#a71040389a82aaff7be40c94a95afc357" target="_top" xlink:title="EdgeHeap::removeAt">
<polygon fill="white" stroke="black" points="616,-541.5 616,-560.5 726,-560.5 726,-541.5 616,-541.5"/>
<text text-anchor="middle" x="671" y="-548.5" font-family="Helvetica,sans-Serif" font-size="10.00">EdgeHeap::removeAt</text>
</a>
</g>
</g>
<!-- Node13&#45;&gt;Node14 -->
<g id="edge13" class="edge"><title>Node13&#45;&gt;Node14</title>
<path fill="none" stroke="midnightblue" d="M381.73,-816.585C425.041,-832.768 519.144,-859.785 579,-817 660.768,-758.553 669.87,-622.019 670.302,-570.842"/>
<polygon fill="midnightblue" stroke="midnightblue" points="673.802,-570.758 670.279,-560.766 666.802,-570.774 673.802,-570.758"/>
</g>
<!-- Node14&#45;&gt;Node4 -->
<g id="edge14" class="edge"><title>Node14&#45;&gt;Node4</title>
<path fill="none" stroke="midnightblue" d="M726.41,-552.287C770.795,-551.907 834.653,-548.067 888,-532 918.657,-522.767 950.518,-503.945 970.986,-490.454"/>
<polygon fill="midnightblue" stroke="midnightblue" points="973.208,-493.177 979.543,-484.685 969.295,-487.373 973.208,-493.177"/>
</g>
<!-- Node15 -->
<g id="node15" class="node"><title>Node15</title>
<g id="a_node15"><a xlink:href="class_edge_heap.html#af02715f2265926338a4b33135c821a4c" target="_top" xlink:title="EdgeHeap::heapifyDown">
<polygon fill="white" stroke="black" points="763,-503.5 763,-522.5 888,-522.5 888,-503.5 763,-503.5"/>
<text text-anchor="middle" x="825.5" y="-510.5" font-family="Helvetica,sans-Serif" font-size="10.00">EdgeHeap::heapifyDown</text>
</a>
</g>
</g>
<!-- Node14&#45;&gt;Node15 -->
<g id="edge15" class="edge"><title>Node14&#45;&gt;Node15</title>
<path fill="none" stroke="midnightblue" d="M710.482,-541.411C730.516,-536.419 755.202,-530.268 776.476,-524.967"/>
<polygon fill="midnightblue" stroke="midnightblue" points="777.438,-528.334 786.295,-522.52 775.745,-521.542 777.438,-528.334"/>
</g>
<!-- Node16 -->
<g id="node16" class="node"><title>Node16</title>
<g id="a_node16"><a xlink:href="class_edge_heap.html#afc03f4943c606b1d2617654cfaeeabb6" target="_top" xlink:title="EdgeHeap::heapifyUp">
<polygon fill="white" stroke="black" points="769,-465.5 769,-484.5 882,-484.5 882,-465.5 769,-465.5"/>
<text text-anchor="middle" x="825.5" y="-472.5" font-family="Helvetica,sans-Serif" font-size="10.00">EdgeHeap::heapifyUp</text>
</a>
</g>
</g>
<!-- Node14&#45;&gt;Node16 -->
<g id="edge17" class="edge"><title>Node14&#45;&gt;Node16</title>
<path fill="none" stroke="midnightblue" d="M693.199,-541.479C703.659,-536.466 716.296,-529.929 727,-523 744.247,-511.835 744.861,-503.649 763,-494 767.05,-491.846 771.382,-489.894 775.802,-488.135"/>
<polygon fill="midnightblue" stroke="midnightblue" points="777.343,-491.298 785.542,-484.588 774.948,-484.721 777.343,-491.298"/>
</g>
<!-- Node15&#45;&gt;Node4 -->
<g id="edge16" class="edge"><title>Node15&#45;&gt;Node4</title>
<path fill="none" stroke="midnightblue" d="M868.515,-503.411C890.684,-498.351 918.073,-492.1 941.511,-486.751"/>
<polygon fill="midnightblue" stroke="midnightblue" points="942.317,-490.157 951.287,-484.52 940.759,-483.333 942.317,-490.157"/>
</g>
<!-- Node16&#45;&gt;Node4 -->
<g id="edge18" class="edge"><title>Node16&#45;&gt;Node4</title>
<path fill="none" stroke="midnightblue" d="M882.405,-475C892.5,-475 903.198,-475 913.808,-475"/>
<polygon fill="midnightblue" stroke="midnightblue" points="913.931,-478.5 923.93,-475 913.93,-471.5 913.931,-478.5"/>
</g>
<!-- Node18&#45;&gt;Node7 -->
<g id="edge43" class="edge"><title>Node18&#45;&gt;Node7</title>
<path fill="none" stroke="midnightblue" d="M377.546,-465.629C391.382,-473.671 409.314,-486.477 419,-503 473.103,-595.292 377.045,-667.733 455,-741 524.9,-806.697 574.072,-760 670,-760 670,-760 670,-760 826.5,-760 920.569,-760 1030.19,-760 1093.64,-760"/>
<polygon fill="midnightblue" stroke="midnightblue" points="1093.8,-763.5 1103.8,-760 1093.8,-756.5 1093.8,-763.5"/>
</g>
<!-- Node18&#45;&gt;Node8 -->
<g id="edge45" class="edge"><title>Node18&#45;&gt;Node8</title>
<path fill="none" stroke="midnightblue" d="M359.596,-446.395C365.787,-393.948 398.133,-142.789 455,-95 528.44,-33.2847 574.072,-76 670,-76 670,-76 670,-76 826.5,-76 920.569,-76 1030.19,-76 1093.64,-76"/>
<polygon fill="midnightblue" stroke="midnightblue" points="1093.8,-79.5001 1103.8,-76 1093.8,-72.5001 1093.8,-79.5001"/>
</g>
<!-- Node18&#45;&gt;Node17 -->
<g id="edge44" class="edge"><title>Node18&#45;&gt;Node17</title>
<path fill="none" stroke="midnightblue" d="M377.632,-465.579C391.513,-473.595 409.463,-486.39 419,-503 479.498,-608.37 380.12,-678.314 455,-774 457.879,-777.679 461.403,-780.795 465.291,-783.434"/>
<polygon fill="midnightblue" stroke="midnightblue" points="463.843,-786.635 474.275,-788.484 467.273,-780.533 463.843,-786.635"/>
</g>
<!-- Node19 -->
<g id="node19" class="node"><title>Node19</title>
<g id="a_node19"><a xlink:href="class_node.html#a6ede207fb67e5aa1fb80f0230074a0c0" target="_top" xlink:title="Node::setLeftChild">
<polygon fill="white" stroke="black" points="468,-256.5 468,-275.5 566,-275.5 566,-256.5 468,-256.5"/>
<text text-anchor="middle" x="517" y="-263.5" font-family="Helvetica,sans-Serif" font-size="10.00">Node::setLeftChild</text>
</a>
</g>
</g>
<!-- Node18&#45;&gt;Node19 -->
<g id="edge23" class="edge"><title>Node18&#45;&gt;Node19</title>
<path fill="none" stroke="midnightblue" d="M361.21,-446.196C369.774,-417.057 399.048,-330.198 455,-285 457.265,-283.17 459.707,-281.516 462.265,-280.021"/>
<polygon fill="midnightblue" stroke="midnightblue" points="463.926,-283.104 471.327,-275.523 460.814,-276.834 463.926,-283.104"/>
</g>
<!-- Node20 -->
<g id="node20" class="node"><title>Node20</title>
<g id="a_node20"><a xlink:href="class_node.html#a1b945cb9d5755aef273c43d6c7ce58bb" target="_top" xlink:title="Node::setRightChild">
<polygon fill="white" stroke="black" points="464.5,-180.5 464.5,-199.5 569.5,-199.5 569.5,-180.5 464.5,-180.5"/>
<text text-anchor="middle" x="517" y="-187.5" font-family="Helvetica,sans-Serif" font-size="10.00">Node::setRightChild</text>
</a>
</g>
</g>
<!-- Node18&#45;&gt;Node20 -->
<g id="edge24" class="edge"><title>Node18&#45;&gt;Node20</title>
<path fill="none" stroke="midnightblue" d="M359.342,-446.32C363.057,-409.63 381.238,-277.737 455,-209 456.681,-207.433 458.49,-205.996 460.394,-204.677"/>
<polygon fill="midnightblue" stroke="midnightblue" points="462.308,-207.614 469.26,-199.619 458.84,-201.534 462.308,-207.614"/>
</g>
<!-- Node21 -->
<g id="node21" class="node"><title>Node21</title>
<g id="a_node21"><a xlink:href="class_node.html#ad7c28414b0d242ce7c491e22cf006041" target="_top" xlink:title="Node::setParent">
<polygon fill="white" stroke="black" points="473,-142.5 473,-161.5 561,-161.5 561,-142.5 473,-142.5"/>
<text text-anchor="middle" x="517" y="-149.5" font-family="Helvetica,sans-Serif" font-size="10.00">Node::setParent</text>
</a>
</g>
</g>
<!-- Node18&#45;&gt;Node21 -->
<g id="edge25" class="edge"><title>Node18&#45;&gt;Node21</title>
<path fill="none" stroke="midnightblue" d="M358.773,-446.27C360.436,-406.14 372.185,-251.809 455,-171 457.579,-168.484 460.486,-166.3 463.595,-164.405"/>
<polygon fill="midnightblue" stroke="midnightblue" points="465.423,-167.404 472.793,-159.793 462.285,-161.147 465.423,-167.404"/>
</g>
<!-- Node22 -->
<g id="node22" class="node"><title>Node22</title>
<g id="a_node22"><a xlink:href="class_node.html#a2784134529ab6341bf028b0d40660870" target="_top" xlink:title="Node::getBoarderIndexX">
<polygon fill="white" stroke="black" points="455,-104.5 455,-123.5 579,-123.5 579,-104.5 455,-104.5"/>
<text text-anchor="middle" x="517" y="-111.5" font-family="Helvetica,sans-Serif" font-size="10.00">Node::getBoarderIndexX</text>
</a>
</g>
</g>
<!-- Node18&#45;&gt;Node22 -->
<g id="edge26" class="edge"><title>Node18&#45;&gt;Node22</title>
<path fill="none" stroke="midnightblue" d="M358.327,-446.492C358.077,-403.606 362.841,-226.237 455,-133 456.433,-131.55 457.974,-130.211 459.601,-128.974"/>
<polygon fill="midnightblue" stroke="midnightblue" points="461.66,-131.817 468.343,-123.596 457.992,-125.854 461.66,-131.817"/>
</g>
<!-- Node23 -->
<g id="node23" class="node"><title>Node23</title>
<g id="a_node23"><a xlink:href="class_node.html#a9305e6376add78eafd94f198df0ee745" target="_top" xlink:title="Node::setBoarderIndexX">
<polygon fill="white" stroke="black" points="455,-712.5 455,-731.5 579,-731.5 579,-712.5 455,-712.5"/>
<text text-anchor="middle" x="517" y="-719.5" font-family="Helvetica,sans-Serif" font-size="10.00">Node::setBoarderIndexX</text>
</a>
</g>
</g>
<!-- Node18&#45;&gt;Node23 -->
<g id="edge27" class="edge"><title>Node18&#45;&gt;Node23</title>
<path fill="none" stroke="midnightblue" d="M377.127,-465.54C390.932,-473.613 409.015,-486.5 419,-503 465.761,-580.27 395.211,-635.306 455,-703 456.186,-704.343 457.466,-705.592 458.822,-706.754"/>
<polygon fill="midnightblue" stroke="midnightblue" points="457.07,-709.795 467.314,-712.499 460.993,-703.997 457.07,-709.795"/>
</g>
<!-- Node24 -->
<g id="node24" class="node"><title>Node24</title>
<g id="a_node24"><a xlink:href="class_node.html#a44362e2817f8eb2fd21b78f39797c48c" target="_top" xlink:title="Node::getBoarderIndexY">
<polygon fill="white" stroke="black" points="455,-674.5 455,-693.5 579,-693.5 579,-674.5 455,-674.5"/>
<text text-anchor="middle" x="517" y="-681.5" font-family="Helvetica,sans-Serif" font-size="10.00">Node::getBoarderIndexY</text>
</a>
</g>
</g>
<!-- Node18&#45;&gt;Node24 -->
<g id="edge28" class="edge"><title>Node18&#45;&gt;Node24</title>
<path fill="none" stroke="midnightblue" d="M376.94,-465.656C390.643,-473.792 408.682,-486.706 419,-503 458.459,-565.314 405.063,-610.72 455,-665 456.213,-666.319 457.516,-667.547 458.893,-668.69"/>
<polygon fill="midnightblue" stroke="midnightblue" points="457.198,-671.765 467.471,-674.358 461.057,-665.925 457.198,-671.765"/>
</g>
<!-- Node25 -->
<g id="node25" class="node"><title>Node25</title>
<g id="a_node25"><a xlink:href="class_node.html#aa969843e599c724456cc743b8b7f0f3b" target="_top" xlink:title="Node::setBoarderIndexY">
<polygon fill="white" stroke="black" points="455,-636.5 455,-655.5 579,-655.5 579,-636.5 455,-636.5"/>
<text text-anchor="middle" x="517" y="-643.5" font-family="Helvetica,sans-Serif" font-size="10.00">Node::setBoarderIndexY</text>
</a>
</g>
</g>
<!-- Node18&#45;&gt;Node25 -->
<g id="edge29" class="edge"><title>Node18&#45;&gt;Node25</title>
<path fill="none" stroke="midnightblue" d="M376.091,-465.508C389.699,-473.728 408.018,-486.824 419,-503 451.234,-550.478 414.817,-586.03 455,-627 456.427,-628.455 457.964,-629.799 459.587,-631.041"/>
<polygon fill="midnightblue" stroke="midnightblue" points="457.967,-634.154 468.314,-636.433 461.646,-628.199 457.967,-634.154"/>
</g>
<!-- Node26 -->
<g id="node26" class="node"><title>Node26</title>
<g id="a_node26"><a xlink:href="class_node.html#adcc7f26a2ccf3a8fcc387ed820624d99" target="_top" xlink:title="Node::getModel">
<polygon fill="white" stroke="black" points="474,-598.5 474,-617.5 560,-617.5 560,-598.5 474,-598.5"/>
<text text-anchor="middle" x="517" y="-605.5" font-family="Helvetica,sans-Serif" font-size="10.00">Node::getModel</text>
</a>
</g>
</g>
<!-- Node18&#45;&gt;Node26 -->
<g id="edge30" class="edge"><title>Node18&#45;&gt;Node26</title>
<path fill="none" stroke="midnightblue" d="M375.059,-465.522C388.435,-473.924 406.953,-487.264 419,-503 444.188,-535.901 424.349,-561.117 455,-589 457.833,-591.577 461.012,-593.805 464.392,-595.731"/>
<polygon fill="midnightblue" stroke="midnightblue" points="463.172,-599.026 473.707,-600.155 466.175,-592.703 463.172,-599.026"/>
</g>
<!-- Node27 -->
<g id="node27" class="node"><title>Node27</title>
<g id="a_node27"><a xlink:href="classregion_model.html#a109b2dd106c9fbda2a9db402d0021fe9" target="_top" xlink:title="regionModel::merge">
<polygon fill="white" stroke="black" points="466,-522.5 466,-541.5 568,-541.5 568,-522.5 466,-522.5"/>
<text text-anchor="middle" x="517" y="-529.5" font-family="Helvetica,sans-Serif" font-size="10.00">regionModel::merge</text>
</a>
</g>
</g>
<!-- Node18&#45;&gt;Node27 -->
<g id="edge31" class="edge"><title>Node18&#45;&gt;Node27</title>
<path fill="none" stroke="midnightblue" d="M372.335,-465.57C390.595,-477.868 424.055,-499.264 455,-513 460.006,-515.222 465.35,-517.294 470.715,-519.19"/>
<polygon fill="midnightblue" stroke="midnightblue" points="469.734,-522.553 480.328,-522.41 471.957,-515.915 469.734,-522.553"/>
</g>
<!-- Node28 -->
<g id="node28" class="node"><title>Node28</title>
<g id="a_node28"><a xlink:href="class_node.html#a8a60e0e373f3acf5a26036a0b40312a1" target="_top" xlink:title="Node::setModel">
<polygon fill="white" stroke="black" points="474,-218.5 474,-237.5 560,-237.5 560,-218.5 474,-218.5"/>
<text text-anchor="middle" x="517" y="-225.5" font-family="Helvetica,sans-Serif" font-size="10.00">Node::setModel</text>
</a>
</g>
</g>
<!-- Node18&#45;&gt;Node28 -->
<g id="edge32" class="edge"><title>Node18&#45;&gt;Node28</title>
<path fill="none" stroke="midnightblue" d="M360.079,-446.456C366.021,-413.58 390.105,-303.928 455,-247 457.879,-244.474 461.092,-242.284 464.495,-240.385"/>
<polygon fill="midnightblue" stroke="midnightblue" points="466.277,-243.415 473.852,-236.007 463.311,-237.075 466.277,-243.415"/>
</g>
<!-- Node30 -->
<g id="node30" class="node"><title>Node30</title>
<g id="a_node30"><a xlink:href="class_node.html#a6e506795cafa9ed120f236b58f32e3c5" target="_top" xlink:title="Node::getEdges">
<polygon fill="white" stroke="black" points="473.5,-484.5 473.5,-503.5 560.5,-503.5 560.5,-484.5 473.5,-484.5"/>
<text text-anchor="middle" x="517" y="-491.5" font-family="Helvetica,sans-Serif" font-size="10.00">Node::getEdges</text>
</a>
</g>
</g>
<!-- Node18&#45;&gt;Node30 -->
<g id="edge34" class="edge"><title>Node18&#45;&gt;Node30</title>
<path fill="none" stroke="midnightblue" d="M393.064,-464.339C414.615,-469.539 442.695,-476.314 466.576,-482.076"/>
<polygon fill="midnightblue" stroke="midnightblue" points="465.981,-485.532 476.523,-484.475 467.623,-478.728 465.981,-485.532"/>
</g>
<!-- Node31 -->
<g id="node31" class="node"><title>Node31</title>
<g id="a_node31"><a xlink:href="class_edge_heap.html#a7d8eaf4111da4c024feb5f2fb8d7cafa" target="_top" xlink:title="EdgeHeap::update">
<polygon fill="white" stroke="black" points="468,-446.5 468,-465.5 566,-465.5 566,-446.5 468,-446.5"/>
<text text-anchor="middle" x="517" y="-453.5" font-family="Helvetica,sans-Serif" font-size="10.00">EdgeHeap::update</text>
</a>
</g>
</g>
<!-- Node18&#45;&gt;Node31 -->
<g id="edge35" class="edge"><title>Node18&#45;&gt;Node31</title>
<path fill="none" stroke="midnightblue" d="M393.064,-456C411.982,-456 435.929,-456 457.652,-456"/>
<polygon fill="midnightblue" stroke="midnightblue" points="457.777,-459.5 467.777,-456 457.777,-452.5 457.777,-459.5"/>
</g>
<!-- Node34 -->
<g id="node34" class="node"><title>Node34</title>
<g id="a_node34"><a xlink:href="class_edge.html#a9825f846eb203bc2ebe0e5ee4dcf9c3b" target="_top" xlink:title="Edge::setLength">
<polygon fill="white" stroke="black" points="473,-408.5 473,-427.5 561,-427.5 561,-408.5 473,-408.5"/>
<text text-anchor="middle" x="517" y="-415.5" font-family="Helvetica,sans-Serif" font-size="10.00">Edge::setLength</text>
</a>
</g>
</g>
<!-- Node18&#45;&gt;Node34 -->
<g id="edge41" class="edge"><title>Node18&#45;&gt;Node34</title>
<path fill="none" stroke="midnightblue" d="M393.064,-447.661C414.615,-442.461 442.695,-435.686 466.576,-429.924"/>
<polygon fill="midnightblue" stroke="midnightblue" points="467.623,-433.272 476.523,-427.525 465.981,-426.468 467.623,-433.272"/>
</g>
<!-- Node35 -->
<g id="node35" class="node"><title>Node35</title>
<g id="a_node35"><a xlink:href="class_edge.html#ac5e6bca7dbde5cdd88579b1081ebe1db" target="_top" xlink:title="Edge::getLength">
<polygon fill="white" stroke="black" points="473,-370.5 473,-389.5 561,-389.5 561,-370.5 473,-370.5"/>
<text text-anchor="middle" x="517" y="-377.5" font-family="Helvetica,sans-Serif" font-size="10.00">Edge::getLength</text>
</a>
</g>
</g>
<!-- Node18&#45;&gt;Node35 -->
<g id="edge42" class="edge"><title>Node18&#45;&gt;Node35</title>
<path fill="none" stroke="midnightblue" d="M372.335,-446.43C390.595,-434.132 424.055,-412.736 455,-399 460.006,-396.778 465.35,-394.706 470.715,-392.81"/>
<polygon fill="midnightblue" stroke="midnightblue" points="471.957,-396.085 480.328,-389.59 469.734,-389.447 471.957,-396.085"/>
</g>
<!-- Node36 -->
<g id="node36" class="node"><title>Node36</title>
<g id="a_node36"><a xlink:href="class_edge_heap.html#ac36afe05c095a87767748b41dfa831a5" target="_top" xlink:title="EdgeHeap::remove">
<polygon fill="white" stroke="black" points="466.5,-560.5 466.5,-579.5 567.5,-579.5 567.5,-560.5 466.5,-560.5"/>
<text text-anchor="middle" x="517" y="-567.5" font-family="Helvetica,sans-Serif" font-size="10.00">EdgeHeap::remove</text>
</a>
</g>
</g>
<!-- Node18&#45;&gt;Node36 -->
<g id="edge46" class="edge"><title>Node18&#45;&gt;Node36</title>
<path fill="none" stroke="midnightblue" d="M373.324,-465.83C386.155,-474.717 404.826,-488.584 419,-503 437.696,-522.015 433.214,-535.623 455,-551 457.719,-552.919 460.638,-554.649 463.673,-556.208"/>
<polygon fill="midnightblue" stroke="midnightblue" points="462.485,-559.511 473.044,-560.391 465.339,-553.119 462.485,-559.511"/>
</g>
<!-- Node37 -->
<g id="node37" class="node"><title>Node37</title>
<g id="a_node37"><a xlink:href="class_node.html#a86573dcde1125e02936ee7c256fb270a" target="_top" xlink:title="Node::addEdge">
<polygon fill="white" stroke="black" points="475,-332.5 475,-351.5 559,-351.5 559,-332.5 475,-332.5"/>
<text text-anchor="middle" x="517" y="-339.5" font-family="Helvetica,sans-Serif" font-size="10.00">Node::addEdge</text>
</a>
</g>
</g>
<!-- Node18&#45;&gt;Node37 -->
<g id="edge49" class="edge"><title>Node18&#45;&gt;Node37</title>
<path fill="none" stroke="midnightblue" d="M365.628,-446.402C380.268,-427.348 415.674,-384.56 455,-361 458.586,-358.852 462.438,-356.924 466.401,-355.199"/>
<polygon fill="midnightblue" stroke="midnightblue" points="467.735,-358.435 475.772,-351.532 465.184,-351.916 467.735,-358.435"/>
</g>
<!-- Node38 -->
<g id="node38" class="node"><title>Node38</title>
<g id="a_node38"><a xlink:href="class_node.html#a65e1a7962c09ea80b33c2eb57ce4f362" target="_top" xlink:title="Node::removeAllEdges">
<polygon fill="white" stroke="black" points="458.5,-294.5 458.5,-313.5 575.5,-313.5 575.5,-294.5 458.5,-294.5"/>
<text text-anchor="middle" x="517" y="-301.5" font-family="Helvetica,sans-Serif" font-size="10.00">Node::removeAllEdges</text>
</a>
</g>
</g>
<!-- Node18&#45;&gt;Node38 -->
<g id="edge50" class="edge"><title>Node18&#45;&gt;Node38</title>
<path fill="none" stroke="midnightblue" d="M362.807,-446.328C374.189,-421.873 407.489,-357.101 455,-323 457.703,-321.06 460.611,-319.313 463.637,-317.742"/>
<polygon fill="midnightblue" stroke="midnightblue" points="465.306,-320.829 472.99,-313.534 462.434,-314.445 465.306,-320.829"/>
</g>
<!-- Node29 -->
<g id="node29" class="node"><title>Node29</title>
<g id="a_node29"><a xlink:href="classregion_model.html#aebdb837024f0eb627bb15742a19b9974" target="_top" xlink:title="regionModel::setNode">
<polygon fill="white" stroke="black" points="615,-218.5 615,-237.5 727,-237.5 727,-218.5 615,-218.5"/>
<text text-anchor="middle" x="671" y="-225.5" font-family="Helvetica,sans-Serif" font-size="10.00">regionModel::setNode</text>
</a>
</g>
</g>
<!-- Node28&#45;&gt;Node29 -->
<g id="edge33" class="edge"><title>Node28&#45;&gt;Node29</title>
<path fill="none" stroke="midnightblue" d="M560.34,-228C574.044,-228 589.577,-228 604.553,-228"/>
<polygon fill="midnightblue" stroke="midnightblue" points="604.802,-231.5 614.802,-228 604.802,-224.5 604.802,-231.5"/>
</g>
<!-- Node32 -->
<g id="node32" class="node"><title>Node32</title>
<g id="a_node32"><a xlink:href="class_edge.html#a54017590a12f8b5e68641e678f01655f" target="_top" xlink:title="Edge::getHeapIndex">
<polygon fill="white" stroke="black" points="618,-494.5 618,-513.5 724,-513.5 724,-494.5 618,-494.5"/>
<text text-anchor="middle" x="671" y="-501.5" font-family="Helvetica,sans-Serif" font-size="10.00">Edge::getHeapIndex</text>
</a>
</g>
</g>
<!-- Node31&#45;&gt;Node32 -->
<g id="edge36" class="edge"><title>Node31&#45;&gt;Node32</title>
<path fill="none" stroke="midnightblue" d="M548.732,-465.529C558.42,-468.545 569.161,-471.9 579,-475 595.895,-480.323 614.536,-486.254 630.524,-491.358"/>
<polygon fill="midnightblue" stroke="midnightblue" points="629.505,-494.706 640.096,-494.416 631.636,-488.038 629.505,-494.706"/>
</g>
<!-- Node33 -->
<g id="node33" class="node"><title>Node33</title>
<g id="a_node33"><a xlink:href="class_edge_heap.html#aed5f5e75856c0e3bcb8ccc29184a88c0" target="_top" xlink:title="EdgeHeap::updateAt">
<polygon fill="white" stroke="black" points="617.5,-451.5 617.5,-470.5 724.5,-470.5 724.5,-451.5 617.5,-451.5"/>
<text text-anchor="middle" x="671" y="-458.5" font-family="Helvetica,sans-Serif" font-size="10.00">EdgeHeap::updateAt</text>
</a>
</g>
</g>
<!-- Node31&#45;&gt;Node33 -->
<g id="edge37" class="edge"><title>Node31&#45;&gt;Node33</title>
<path fill="none" stroke="midnightblue" d="M566.094,-457.582C579.124,-458.011 593.425,-458.481 607.137,-458.932"/>
<polygon fill="midnightblue" stroke="midnightblue" points="607.368,-462.442 617.477,-459.272 607.598,-455.445 607.368,-462.442"/>
</g>
<!-- Node33&#45;&gt;Node4 -->
<g id="edge38" class="edge"><title>Node33&#45;&gt;Node4</title>
<path fill="none" stroke="midnightblue" d="M724.911,-457.601C737.396,-456.935 750.663,-456.339 763,-456 818.535,-454.475 832.667,-451.034 888,-456 905.113,-457.536 923.609,-460.453 940.239,-463.549"/>
<polygon fill="midnightblue" stroke="midnightblue" points="939.842,-467.036 950.323,-465.488 941.165,-460.162 939.842,-467.036"/>
</g>
<!-- Node33&#45;&gt;Node15 -->
<g id="edge39" class="edge"><title>Node33&#45;&gt;Node15</title>
<path fill="none" stroke="midnightblue" d="M697.381,-470.576C715.57,-477.347 740.695,-486.515 763,-494 769.406,-496.15 776.217,-498.344 782.885,-500.442"/>
<polygon fill="midnightblue" stroke="midnightblue" points="781.898,-503.8 792.486,-503.43 783.978,-497.116 781.898,-503.8"/>
</g>
<!-- Node33&#45;&gt;Node16 -->
<g id="edge40" class="edge"><title>Node33&#45;&gt;Node16</title>
<path fill="none" stroke="midnightblue" d="M724.909,-465.857C735.777,-466.855 747.344,-467.917 758.605,-468.951"/>
<polygon fill="midnightblue" stroke="midnightblue" points="758.553,-472.46 768.831,-469.889 759.193,-465.49 758.553,-472.46"/>
</g>
<!-- Node36&#45;&gt;Node14 -->
<g id="edge48" class="edge"><title>Node36&#45;&gt;Node14</title>
<path fill="none" stroke="midnightblue" d="M567.77,-563.779C579.931,-562.259 593.113,-560.611 605.841,-559.02"/>
<polygon fill="midnightblue" stroke="midnightblue" points="606.434,-562.473 615.922,-557.76 605.565,-555.527 606.434,-562.473"/>
</g>
<!-- Node36&#45;&gt;Node32 -->
<g id="edge47" class="edge"><title>Node36&#45;&gt;Node32</title>
<path fill="none" stroke="midnightblue" d="M552.593,-560.436C561.323,-557.693 570.601,-554.49 579,-551 595.707,-544.058 598.938,-540.326 615,-532 623.802,-527.437 633.427,-522.515 642.129,-518.089"/>
<polygon fill="midnightblue" stroke="midnightblue" points="643.795,-521.168 651.128,-513.521 640.627,-514.926 643.795,-521.168"/>
</g>
</g>
</svg>
