<?xml version="1.0" encoding="UTF-8" standalone="no"?>
<!DOCTYPE svg PUBLIC "-//W3C//DTD SVG 1.1//EN"
 "http://www.w3.org/Graphics/SVG/1.1/DTD/svg11.dtd">
<!-- Generated by graphviz version 2.38.0 (20140413.2041)
 -->
<!-- Title: image::blockStartPointCalculator_evenSplite Pages: 1 -->
<svg width="509pt" height="39pt"
 viewBox="0.00 0.00 509.00 39.00" xmlns="http://www.w3.org/2000/svg" xmlns:xlink="http://www.w3.org/1999/xlink">
<g id="graph0" class="graph" transform="scale(1 1) rotate(0) translate(4 35)">
<title>image::blockStartPointCalculator_evenSplite</title>
<polygon fill="white" stroke="none" points="-4,4 -4,-35 505,-35 505,4 -4,4"/>
<!-- Node1 -->
<g id="node1" class="node"><title>Node1</title>
<polygon fill="#bfbfbf" stroke="black" points="0,-0.5 0,-30.5 160,-30.5 160,-0.5 0,-0.5"/>
<text text-anchor="start" x="8" y="-18.5" font-family="Helvetica,sans-Serif" font-size="10.00">image::blockStartPointCalculator</text>
<text text-anchor="middle" x="80" y="-7.5" font-family="Helvetica,sans-Serif" font-size="10.00">_evenSplite</text>
</g>
<!-- Node2 -->
<g id="node2" class="node"><title>Node2</title>
<g id="a_node2"><a xlink:href="classimage.html#a16c139a7a2ab7bb2c412f97d5abdcacd" target="_top" xlink:title="image::setGlobalSettings">
<polygon fill="white" stroke="black" points="196,-6 196,-25 322,-25 322,-6 196,-6"/>
<text text-anchor="middle" x="259" y="-13" font-family="Helvetica,sans-Serif" font-size="10.00">image::setGlobalSettings</text>
</a>
</g>
</g>
<!-- Node1&#45;&gt;Node2 -->
<g id="edge1" class="edge"><title>Node1&#45;&gt;Node2</title>
<path fill="none" stroke="midnightblue" d="M170.312,-15.5C178.955,-15.5 187.588,-15.5 195.88,-15.5"/>
<polygon fill="midnightblue" stroke="midnightblue" points="170.181,-12.0001 160.181,-15.5 170.181,-19.0001 170.181,-12.0001"/>
</g>
<!-- Node3 -->
<g id="node3" class="node"><title>Node3</title>
<g id="a_node3"><a xlink:href="class_main_window.html#a9a45eb9ebe6d27bcd23677d9fbb74dd8" target="_top" xlink:title="MainWindow::on_Go_clicked">
<polygon fill="white" stroke="black" points="358,-6 358,-25 501,-25 501,-6 358,-6"/>
<text text-anchor="middle" x="429.5" y="-13" font-family="Helvetica,sans-Serif" font-size="10.00">MainWindow::on_Go_clicked</text>
</a>
</g>
</g>
<!-- Node2&#45;&gt;Node3 -->
<g id="edge2" class="edge"><title>Node2&#45;&gt;Node3</title>
<path fill="none" stroke="midnightblue" d="M332.472,-15.5C340.926,-15.5 349.541,-15.5 357.968,-15.5"/>
<polygon fill="midnightblue" stroke="midnightblue" points="332.264,-12.0001 322.264,-15.5 332.264,-19.0001 332.264,-12.0001"/>
</g>
</g>
</svg>
