<?xml version="1.0" encoding="UTF-8" standalone="no"?>
<!DOCTYPE svg PUBLIC "-//W3C//DTD SVG 1.1//EN"
 "http://www.w3.org/Graphics/SVG/1.1/DTD/svg11.dtd">
<!-- Generated by graphviz version 2.38.0 (20140413.2041)
 -->
<!-- Title: imageblock::saveToDisk Pages: 1 -->
<!--zoomable 294 -->
<svg id="main" version="1.1" xmlns="http://www.w3.org/2000/svg" xmlns:xlink="http://www.w3.org/1999/xlink" xml:space="preserve" onload="init(evt)">
<style type="text/css"><![CDATA[
.edge:hover path { stroke: red; }
.edge:hover polygon { stroke: red; fill: red; }
]]></style>
<script type="text/javascript"><![CDATA[
var edges = document.getElementsByTagName('g');
if (edges && edges.length) {
  for (var i=0;i<edges.length;i++) {
    if (edges[i].id.substr(0,4)=='edge') {
      edges[i].setAttribute('class','edge');
    }
  }
}
]]></script>
        <defs>
                <circle id="rim" cx="0" cy="0" r="7"/>
                <circle id="rim2" cx="0" cy="0" r="3.5"/>
                <g id="zoomPlus">
                        <use xlink:href="#rim" fill="#404040">
                                <set attributeName="fill" to="#808080" begin="zoomplus.mouseover" end="zoomplus.mouseout"/>
                        </use>
                        <path d="M-4,0h8M0,-4v8" fill="none" stroke="white" stroke-width="1.5" pointer-events="none"/>
                </g>
                <g id="zoomMin">
                        <use xlink:href="#rim" fill="#404040">
                                <set attributeName="fill" to="#808080" begin="zoomminus.mouseover" end="zoomminus.mouseout"/>
                        </use>
                        <path d="M-4,0h8" fill="none" stroke="white" stroke-width="1.5" pointer-events="none"/>
                </g>
                <g id="dirArrow">
                        <path fill="none" stroke="white" stroke-width="1.5" d="M0,-3.0v7 M-2.5,-0.5L0,-3.0L2.5,-0.5"/>
                </g>
               <g id="resetDef">
                       <use xlink:href="#rim2" fill="#404040">
                               <set attributeName="fill" to="#808080" begin="reset.mouseover" end="reset.mouseout"/>
                       </use>
               </g>
        </defs>

<script type="text/javascript">
var viewWidth = 661;
var viewHeight = 294;
var sectionId = 'dynsection-9';
</script>
<script xlink:href="svgpan.js"/>
<svg id="graph" class="graph">
<g id="viewport">
<title>imageblock::saveToDisk</title>
<polygon fill="white" stroke="none" points="-4,4 -4,-290 657,-290 657,4 -4,4"/>
<!-- Node1 -->
<g id="node1" class="node"><title>Node1</title>
<polygon fill="#bfbfbf" stroke="black" points="0,-190.5 0,-209.5 125,-209.5 125,-190.5 0,-190.5"/>
<text text-anchor="middle" x="62.5" y="-197.5" font-family="Helvetica,sans-Serif" font-size="10.00">imageblock::saveToDisk</text>
</g>
<!-- Node2 -->
<g id="node2" class="node"><title>Node2</title>
<g id="a_node2"><a xlink:href="classio.html#a4cca3fdf98e917cac1b3e776c7634aec" target="_top" xlink:title="io::writeBoarderNodeToCSV">
<polygon fill="white" stroke="black" points="161,-133.5 161,-152.5 301,-152.5 301,-133.5 161,-133.5"/>
<text text-anchor="middle" x="231" y="-140.5" font-family="Helvetica,sans-Serif" font-size="10.00">io::writeBoarderNodeToCSV</text>
</a>
</g>
</g>
<!-- Node1&#45;&gt;Node2 -->
<g id="edge1" class="edge"><title>Node1&#45;&gt;Node2</title>
<path fill="none" stroke="midnightblue" d="M86.1105,-190.423C105.719,-182.303 134.961,-170.634 161,-162 167.973,-159.688 175.406,-157.43 182.714,-155.325"/>
<polygon fill="midnightblue" stroke="midnightblue" points="183.868,-158.636 192.547,-152.559 181.973,-151.898 183.868,-158.636"/>
</g>
<!-- Node13 -->
<g id="node13" class="node"><title>Node13</title>
<g id="a_node13"><a xlink:href="classio.html#a72962f4d8ddc9b57256730b089be4288" target="_top" xlink:title="io::writeClassMap">
<polygon fill="white" stroke="black" points="183.5,-247.5 183.5,-266.5 278.5,-266.5 278.5,-247.5 183.5,-247.5"/>
<text text-anchor="middle" x="231" y="-254.5" font-family="Helvetica,sans-Serif" font-size="10.00">io::writeClassMap</text>
</a>
</g>
</g>
<!-- Node1&#45;&gt;Node13 -->
<g id="edge12" class="edge"><title>Node1&#45;&gt;Node13</title>
<path fill="none" stroke="midnightblue" d="M86.1105,-209.577C105.719,-217.697 134.961,-229.366 161,-238 167.973,-240.312 175.406,-242.57 182.714,-244.675"/>
<polygon fill="midnightblue" stroke="midnightblue" points="181.973,-248.102 192.547,-247.441 183.868,-241.364 181.973,-248.102"/>
</g>
<!-- Node14 -->
<g id="node14" class="node"><title>Node14</title>
<g id="a_node14"><a xlink:href="classio.html#a8aa97cb094b71a1583ef796b8200fbdb" target="_top" xlink:title="io::writeNodeToCSV">
<polygon fill="white" stroke="black" points="177.5,-209.5 177.5,-228.5 284.5,-228.5 284.5,-209.5 177.5,-209.5"/>
<text text-anchor="middle" x="231" y="-216.5" font-family="Helvetica,sans-Serif" font-size="10.00">io::writeNodeToCSV</text>
</a>
</g>
</g>
<!-- Node1&#45;&gt;Node14 -->
<g id="edge17" class="edge"><title>Node1&#45;&gt;Node14</title>
<path fill="none" stroke="midnightblue" d="M125.025,-207.021C138.89,-208.603 153.62,-210.284 167.523,-211.871"/>
<polygon fill="midnightblue" stroke="midnightblue" points="167.145,-215.35 177.477,-213.006 167.939,-208.395 167.145,-215.35"/>
</g>
<!-- Node15 -->
<g id="node15" class="node"><title>Node15</title>
<g id="a_node15"><a xlink:href="classio.html#aaa642111086b3ec2afee826a767d03ad" target="_top" xlink:title="io::writeNodeToDisk">
<polygon fill="white" stroke="black" points="178,-171.5 178,-190.5 284,-190.5 284,-171.5 178,-171.5"/>
<text text-anchor="middle" x="231" y="-178.5" font-family="Helvetica,sans-Serif" font-size="10.00">io::writeNodeToDisk</text>
</a>
</g>
</g>
<!-- Node1&#45;&gt;Node15 -->
<g id="edge22" class="edge"><title>Node1&#45;&gt;Node15</title>
<path fill="none" stroke="midnightblue" d="M125.025,-192.979C138.965,-191.388 153.778,-189.698 167.748,-188.104"/>
<polygon fill="midnightblue" stroke="midnightblue" points="168.207,-191.574 177.746,-186.963 167.413,-184.619 168.207,-191.574"/>
</g>
<!-- Node3 -->
<g id="node3" class="node"><title>Node3</title>
<g id="a_node3"><a xlink:href="class_node.html#a3a61dca67d5ad06cacb8c48eb6374973" target="_top" xlink:title="Node::isLeaf">
<polygon fill="white" stroke="black" points="363.5,-190.5 363.5,-209.5 435.5,-209.5 435.5,-190.5 363.5,-190.5"/>
<text text-anchor="middle" x="399.5" y="-197.5" font-family="Helvetica,sans-Serif" font-size="10.00">Node::isLeaf</text>
</a>
</g>
</g>
<!-- Node2&#45;&gt;Node3 -->
<g id="edge2" class="edge"><title>Node2&#45;&gt;Node3</title>
<path fill="none" stroke="midnightblue" d="M272.255,-152.504C281.81,-155.192 291.874,-158.385 301,-162 317.82,-168.663 320.285,-174.078 337,-181 342.424,-183.246 348.211,-185.37 353.985,-187.328"/>
<polygon fill="midnightblue" stroke="midnightblue" points="353.029,-190.698 363.621,-190.459 355.191,-184.04 353.029,-190.698"/>
</g>
<!-- Node4 -->
<g id="node4" class="node"><title>Node4</title>
<g id="a_node4"><a xlink:href="class_node.html#aa3512938403662345b64049920d1cdaf" target="_top" xlink:title="Node::getPosition">
<polygon fill="white" stroke="black" points="352,-152.5 352,-171.5 447,-171.5 447,-152.5 352,-152.5"/>
<text text-anchor="middle" x="399.5" y="-159.5" font-family="Helvetica,sans-Serif" font-size="10.00">Node::getPosition</text>
</a>
</g>
</g>
<!-- Node2&#45;&gt;Node4 -->
<g id="edge3" class="edge"><title>Node2&#45;&gt;Node4</title>
<path fill="none" stroke="midnightblue" d="M301.165,-150.893C314.56,-152.421 328.456,-154.007 341.411,-155.485"/>
<polygon fill="midnightblue" stroke="midnightblue" points="341.239,-158.988 351.572,-156.645 342.033,-152.034 341.239,-158.988"/>
</g>
<!-- Node5 -->
<g id="node5" class="node"><title>Node5</title>
<g id="a_node5"><a xlink:href="class_node.html#a2784134529ab6341bf028b0d40660870" target="_top" xlink:title="Node::getBoarderIndexX">
<polygon fill="white" stroke="black" points="337.5,-114.5 337.5,-133.5 461.5,-133.5 461.5,-114.5 337.5,-114.5"/>
<text text-anchor="middle" x="399.5" y="-121.5" font-family="Helvetica,sans-Serif" font-size="10.00">Node::getBoarderIndexX</text>
</a>
</g>
</g>
<!-- Node2&#45;&gt;Node5 -->
<g id="edge4" class="edge"><title>Node2&#45;&gt;Node5</title>
<path fill="none" stroke="midnightblue" d="M301.165,-135.107C309.77,-134.125 318.582,-133.12 327.218,-132.134"/>
<polygon fill="midnightblue" stroke="midnightblue" points="327.715,-135.6 337.253,-130.989 326.921,-128.646 327.715,-135.6"/>
</g>
<!-- Node6 -->
<g id="node6" class="node"><title>Node6</title>
<g id="a_node6"><a xlink:href="class_node.html#a44362e2817f8eb2fd21b78f39797c48c" target="_top" xlink:title="Node::getBoarderIndexY">
<polygon fill="white" stroke="black" points="337.5,-76.5 337.5,-95.5 461.5,-95.5 461.5,-76.5 337.5,-76.5"/>
<text text-anchor="middle" x="399.5" y="-83.5" font-family="Helvetica,sans-Serif" font-size="10.00">Node::getBoarderIndexY</text>
</a>
</g>
</g>
<!-- Node2&#45;&gt;Node6 -->
<g id="edge5" class="edge"><title>Node2&#45;&gt;Node6</title>
<path fill="none" stroke="midnightblue" d="M257.342,-133.445C278.536,-125.547 309.612,-114.181 337,-105 343.407,-102.852 350.219,-100.659 356.886,-98.5618"/>
<polygon fill="midnightblue" stroke="midnightblue" points="357.979,-101.887 366.488,-95.574 355.899,-95.2033 357.979,-101.887"/>
</g>
<!-- Node7 -->
<g id="node7" class="node"><title>Node7</title>
<g id="a_node7"><a xlink:href="class_node.html#a5560fab35ef65b0bf137c7c70c3b8e4d" target="_top" xlink:title="Node::getMeanSpectrum">
<polygon fill="white" stroke="black" points="337,-38.5 337,-57.5 462,-57.5 462,-38.5 337,-38.5"/>
<text text-anchor="middle" x="399.5" y="-45.5" font-family="Helvetica,sans-Serif" font-size="10.00">Node::getMeanSpectrum</text>
</a>
</g>
</g>
<!-- Node2&#45;&gt;Node7 -->
<g id="edge6" class="edge"><title>Node2&#45;&gt;Node7</title>
<path fill="none" stroke="midnightblue" d="M242.859,-133.254C261.092,-117.345 299.552,-85.6975 337,-67 341.393,-64.8066 346.089,-62.8065 350.856,-60.9979"/>
<polygon fill="midnightblue" stroke="midnightblue" points="352.388,-64.1694 360.664,-57.5538 350.069,-57.5648 352.388,-64.1694"/>
</g>
<!-- Node9 -->
<g id="node9" class="node"><title>Node9</title>
<g id="a_node9"><a xlink:href="class_node.html#a6b9517162b03a8f98df4bc63890ca092" target="_top" xlink:title="Node::getProbability">
<polygon fill="white" stroke="black" points="347,-0.5 347,-19.5 452,-19.5 452,-0.5 347,-0.5"/>
<text text-anchor="middle" x="399.5" y="-7.5" font-family="Helvetica,sans-Serif" font-size="10.00">Node::getProbability</text>
</a>
</g>
</g>
<!-- Node2&#45;&gt;Node9 -->
<g id="edge8" class="edge"><title>Node2&#45;&gt;Node9</title>
<path fill="none" stroke="midnightblue" d="M238.124,-133.473C252.619,-111.682 291.265,-57.8686 337,-29 340.307,-26.9123 343.86,-25.0403 347.529,-23.364"/>
<polygon fill="midnightblue" stroke="midnightblue" points="348.869,-26.5973 356.815,-19.5891 346.233,-20.1126 348.869,-26.5973"/>
</g>
<!-- Node11 -->
<g id="node11" class="node"><title>Node11</title>
<g id="a_node11"><a xlink:href="class_node.html#a531a8178f01a328bec4c4e8a3b93b67f" target="_top" xlink:title="Node::getRightChild">
<polygon fill="white" stroke="black" points="347,-266.5 347,-285.5 452,-285.5 452,-266.5 347,-266.5"/>
<text text-anchor="middle" x="399.5" y="-273.5" font-family="Helvetica,sans-Serif" font-size="10.00">Node::getRightChild</text>
</a>
</g>
</g>
<!-- Node2&#45;&gt;Node11 -->
<g id="edge10" class="edge"><title>Node2&#45;&gt;Node11</title>
<path fill="none" stroke="midnightblue" d="M286.586,-152.612C291.839,-155.073 296.774,-158.152 301,-162 334.385,-192.4 304.089,-226.087 337,-257 338.688,-258.585 340.505,-260.038 342.42,-261.37"/>
<polygon fill="midnightblue" stroke="midnightblue" points="340.922,-264.546 351.341,-266.468 344.395,-258.468 340.922,-264.546"/>
</g>
<!-- Node12 -->
<g id="node12" class="node"><title>Node12</title>
<g id="a_node12"><a xlink:href="class_node.html#a498a3ea76df240287b5a91aeaec2be95" target="_top" xlink:title="Node::getLeftChild">
<polygon fill="white" stroke="black" points="350.5,-228.5 350.5,-247.5 448.5,-247.5 448.5,-228.5 350.5,-228.5"/>
<text text-anchor="middle" x="399.5" y="-235.5" font-family="Helvetica,sans-Serif" font-size="10.00">Node::getLeftChild</text>
</a>
</g>
</g>
<!-- Node2&#45;&gt;Node12 -->
<g id="edge11" class="edge"><title>Node2&#45;&gt;Node12</title>
<path fill="none" stroke="midnightblue" d="M283.729,-152.635C289.882,-155.082 295.81,-158.151 301,-162 325.067,-179.848 313.212,-200.782 337,-219 339.45,-220.876 342.086,-222.568 344.841,-224.095"/>
<polygon fill="midnightblue" stroke="midnightblue" points="343.422,-227.296 353.956,-228.427 346.427,-220.973 343.422,-227.296"/>
</g>
<!-- Node8 -->
<g id="node8" class="node"><title>Node8</title>
<g id="a_node8"><a xlink:href="classregion_model.html#a09d4bdb8401b2de0d2dd41d2561bca30" target="_top" xlink:title="regionModel::getMeanSpectrum">
<polygon fill="white" stroke="black" points="498,-38.5 498,-57.5 653,-57.5 653,-38.5 498,-38.5"/>
<text text-anchor="middle" x="575.5" y="-45.5" font-family="Helvetica,sans-Serif" font-size="10.00">regionModel::getMeanSpectrum</text>
</a>
</g>
</g>
<!-- Node7&#45;&gt;Node8 -->
<g id="edge7" class="edge"><title>Node7&#45;&gt;Node8</title>
<path fill="none" stroke="midnightblue" d="M462.336,-48C470.62,-48 479.238,-48 487.851,-48"/>
<polygon fill="midnightblue" stroke="midnightblue" points="487.94,-51.5001 497.94,-48 487.94,-44.5001 487.94,-51.5001"/>
</g>
<!-- Node10 -->
<g id="node10" class="node"><title>Node10</title>
<g id="a_node10"><a xlink:href="classregion_model.html#a8a4064b3ef23992b52371b7a5ef7df1c" target="_top" xlink:title="regionModel::getProbability">
<polygon fill="white" stroke="black" points="508.5,-0.5 508.5,-19.5 642.5,-19.5 642.5,-0.5 508.5,-0.5"/>
<text text-anchor="middle" x="575.5" y="-7.5" font-family="Helvetica,sans-Serif" font-size="10.00">regionModel::getProbability</text>
</a>
</g>
</g>
<!-- Node9&#45;&gt;Node10 -->
<g id="edge9" class="edge"><title>Node9&#45;&gt;Node10</title>
<path fill="none" stroke="midnightblue" d="M452.235,-10C466.698,-10 482.726,-10 498.287,-10"/>
<polygon fill="midnightblue" stroke="midnightblue" points="498.423,-13.5001 508.423,-10 498.423,-6.5001 498.423,-13.5001"/>
</g>
<!-- Node13&#45;&gt;Node3 -->
<g id="edge13" class="edge"><title>Node13&#45;&gt;Node3</title>
<path fill="none" stroke="midnightblue" d="M272.255,-247.496C281.81,-244.808 291.874,-241.615 301,-238 317.82,-231.337 320.285,-225.922 337,-219 342.424,-216.754 348.211,-214.63 353.985,-212.672"/>
<polygon fill="midnightblue" stroke="midnightblue" points="355.191,-215.96 363.621,-209.541 353.029,-209.302 355.191,-215.96"/>
</g>
<!-- Node13&#45;&gt;Node4 -->
<g id="edge14" class="edge"><title>Node13&#45;&gt;Node4</title>
<path fill="none" stroke="midnightblue" d="M278.721,-249.21C286.636,-246.514 294.413,-242.885 301,-238 325.067,-220.152 313.212,-199.218 337,-181 339.45,-179.124 342.086,-177.432 344.841,-175.905"/>
<polygon fill="midnightblue" stroke="midnightblue" points="346.427,-179.027 353.956,-171.573 343.422,-172.704 346.427,-179.027"/>
</g>
<!-- Node13&#45;&gt;Node11 -->
<g id="edge15" class="edge"><title>Node13&#45;&gt;Node11</title>
<path fill="none" stroke="midnightblue" d="M278.823,-262.343C296.76,-264.39 317.507,-266.758 336.638,-268.941"/>
<polygon fill="midnightblue" stroke="midnightblue" points="336.438,-272.44 346.77,-270.097 337.232,-265.486 336.438,-272.44"/>
</g>
<!-- Node13&#45;&gt;Node12 -->
<g id="edge16" class="edge"><title>Node13&#45;&gt;Node12</title>
<path fill="none" stroke="midnightblue" d="M278.823,-251.657C297.912,-249.478 320.185,-246.937 340.305,-244.641"/>
<polygon fill="midnightblue" stroke="midnightblue" points="340.754,-248.112 350.292,-243.501 339.96,-241.158 340.754,-248.112"/>
</g>
<!-- Node14&#45;&gt;Node3 -->
<g id="edge18" class="edge"><title>Node14&#45;&gt;Node3</title>
<path fill="none" stroke="midnightblue" d="M284.682,-212.988C306.788,-210.466 332.233,-207.562 353.451,-205.141"/>
<polygon fill="midnightblue" stroke="midnightblue" points="353.956,-208.606 363.495,-203.995 353.162,-201.651 353.956,-208.606"/>
</g>
<!-- Node14&#45;&gt;Node4 -->
<g id="edge19" class="edge"><title>Node14&#45;&gt;Node4</title>
<path fill="none" stroke="midnightblue" d="M272.255,-209.496C281.81,-206.808 291.874,-203.615 301,-200 317.82,-193.337 320.285,-187.922 337,-181 342.424,-178.754 348.211,-176.63 353.985,-174.672"/>
<polygon fill="midnightblue" stroke="midnightblue" points="355.191,-177.96 363.621,-171.541 353.029,-171.302 355.191,-177.96"/>
</g>
<!-- Node14&#45;&gt;Node11 -->
<g id="edge20" class="edge"><title>Node14&#45;&gt;Node11</title>
<path fill="none" stroke="midnightblue" d="M272.255,-228.504C281.81,-231.192 291.874,-234.385 301,-238 317.82,-244.663 320.285,-250.078 337,-257 342.424,-259.246 348.211,-261.37 353.985,-263.328"/>
<polygon fill="midnightblue" stroke="midnightblue" points="353.029,-266.698 363.621,-266.459 355.191,-260.04 353.029,-266.698"/>
</g>
<!-- Node14&#45;&gt;Node12 -->
<g id="edge21" class="edge"><title>Node14&#45;&gt;Node12</title>
<path fill="none" stroke="midnightblue" d="M284.682,-225.012C302.365,-227.03 322.184,-229.291 340.268,-231.355"/>
<polygon fill="midnightblue" stroke="midnightblue" points="340.065,-234.854 350.397,-232.511 340.859,-227.899 340.065,-234.854"/>
</g>
<!-- Node15&#45;&gt;Node3 -->
<g id="edge23" class="edge"><title>Node15&#45;&gt;Node3</title>
<path fill="none" stroke="midnightblue" d="M284.225,-186.96C306.353,-189.485 331.895,-192.399 353.211,-194.832"/>
<polygon fill="midnightblue" stroke="midnightblue" points="352.97,-198.327 363.303,-195.983 353.764,-191.372 352.97,-198.327"/>
</g>
<!-- Node15&#45;&gt;Node4 -->
<g id="edge24" class="edge"><title>Node15&#45;&gt;Node4</title>
<path fill="none" stroke="midnightblue" d="M284.225,-175.04C302.491,-172.956 323.083,-170.606 341.704,-168.481"/>
<polygon fill="midnightblue" stroke="midnightblue" points="342.28,-171.938 351.819,-167.327 341.486,-164.983 342.28,-171.938"/>
</g>
<!-- Node15&#45;&gt;Node11 -->
<g id="edge25" class="edge"><title>Node15&#45;&gt;Node11</title>
<path fill="none" stroke="midnightblue" d="M283.729,-190.635C289.882,-193.082 295.81,-196.151 301,-200 325.067,-217.848 313.212,-238.782 337,-257 339.45,-258.876 342.086,-260.568 344.841,-262.095"/>
<polygon fill="midnightblue" stroke="midnightblue" points="343.422,-265.296 353.956,-266.427 346.427,-258.973 343.422,-265.296"/>
</g>
<!-- Node15&#45;&gt;Node12 -->
<g id="edge26" class="edge"><title>Node15&#45;&gt;Node12</title>
<path fill="none" stroke="midnightblue" d="M272.255,-190.504C281.81,-193.192 291.874,-196.385 301,-200 317.82,-206.663 320.285,-212.078 337,-219 342.424,-221.246 348.211,-223.37 353.985,-225.328"/>
<polygon fill="midnightblue" stroke="midnightblue" points="353.029,-228.698 363.621,-228.459 355.191,-222.04 353.029,-228.698"/>
</g>
</g>
</svg>
        <g id="navigator" transform="translate(0 0)" fill="#404254">
                <rect fill="#f2f5e9" fill-opacity="0.5" stroke="#606060" stroke-width=".5" x="0" y="0" width="60" height="60"/>
                <use id="zoomplus" xlink:href="#zoomPlus" x="17" y="9" onmousedown="handleZoom(evt,'in')"/>
                <use id="zoomminus" xlink:href="#zoomMin" x="42" y="9" onmousedown="handleZoom(evt,'out')"/>
                <use id="reset" xlink:href="#resetDef" x="30" y="36" onmousedown="handleReset()"/>
                <g id="arrowUp" xlink:href="#dirArrow" transform="translate(30 24)" onmousedown="handlePan(0,-1)">
                  <use xlink:href="#rim" fill="#404040">
                        <set attributeName="fill" to="#808080" begin="arrowUp.mouseover" end="arrowUp.mouseout"/>
                  </use>
                  <path fill="none" stroke="white" stroke-width="1.5" d="M0,-3.0v7 M-2.5,-0.5L0,-3.0L2.5,-0.5"/>
                </g>
                <g id="arrowRight" xlink:href="#dirArrow" transform="rotate(90) translate(36 -43)" onmousedown="handlePan(1,0)">
                  <use xlink:href="#rim" fill="#404040">
                        <set attributeName="fill" to="#808080" begin="arrowRight.mouseover" end="arrowRight.mouseout"/>
                  </use>
                  <path fill="none" stroke="white" stroke-width="1.5" d="M0,-3.0v7 M-2.5,-0.5L0,-3.0L2.5,-0.5"/>
                </g>
                <g id="arrowDown" xlink:href="#dirArrow" transform="rotate(180) translate(-30 -48)" onmousedown="handlePan(0,1)">
                  <use xlink:href="#rim" fill="#404040">
                        <set attributeName="fill" to="#808080" begin="arrowDown.mouseover" end="arrowDown.mouseout"/>
                  </use>
                  <path fill="none" stroke="white" stroke-width="1.5" d="M0,-3.0v7 M-2.5,-0.5L0,-3.0L2.5,-0.5"/>
                </g>
                <g id="arrowLeft" xlink:href="#dirArrow" transform="rotate(270) translate(-36 17)" onmousedown="handlePan(-1,0)">
                  <use xlink:href="#rim" fill="#404040">
                        <set attributeName="fill" to="#808080" begin="arrowLeft.mouseover" end="arrowLeft.mouseout"/>
                  </use>
                  <path fill="none" stroke="white" stroke-width="1.5" d="M0,-3.0v7 M-2.5,-0.5L0,-3.0L2.5,-0.5"/>
                </g>
        </g>
        <svg viewBox="0 0 15 15" width="100%" height="30px" preserveAspectRatio="xMaxYMin meet">
         <g id="arrow_out" transform="scale(0.3 0.3)">
          <a xlink:href="classimageblock_adbafde60f699582250656ddc2ebe82e2_cgraph_org.svg" target="_base">
           <rect id="button" ry="5" rx="5" y="6" x="6" height="38" width="38"
                fill="#f2f5e9" fill-opacity="0.5" stroke="#606060" stroke-width="1.0"/>
           <path id="arrow"
             d="M 11.500037,31.436501 C 11.940474,20.09759 22.043105,11.32322 32.158766,21.979434 L 37.068811,17.246167 C 37.068811,17.246167 37.088388,32 37.088388,32 L 22.160133,31.978069 C 22.160133,31.978069 26.997745,27.140456 26.997745,27.140456 C 18.528582,18.264221 13.291696,25.230495 11.500037,31.436501 z"
             style="fill:#404040;"/>
          </a>
         </g>
        </svg>
</svg>
