<?xml version="1.0" encoding="UTF-8" standalone="no"?>
<!DOCTYPE svg PUBLIC "-//W3C//DTD SVG 1.1//EN"
 "http://www.w3.org/Graphics/SVG/1.1/DTD/svg11.dtd">
<!-- Generated by graphviz version 2.38.0 (20140413.2041)
 -->
<!-- Title: io::writeBoarderNodeToCSV Pages: 1 -->
<!--zoomable 104 -->
<svg id="main" version="1.1" xmlns="http://www.w3.org/2000/svg" xmlns:xlink="http://www.w3.org/1999/xlink" xml:space="preserve" onload="init(evt)">
<style type="text/css"><![CDATA[
.edge:hover path { stroke: red; }
.edge:hover polygon { stroke: red; fill: red; }
]]></style>
<script type="text/javascript"><![CDATA[
var edges = document.getElementsByTagName('g');
if (edges && edges.length) {
  for (var i=0;i<edges.length;i++) {
    if (edges[i].id.substr(0,4)=='edge') {
      edges[i].setAttribute('class','edge');
    }
  }
}
]]></script>
        <defs>
                <circle id="rim" cx="0" cy="0" r="7"/>
                <circle id="rim2" cx="0" cy="0" r="3.5"/>
                <g id="zoomPlus">
                        <use xlink:href="#rim" fill="#404040">
                                <set attributeName="fill" to="#808080" begin="zoomplus.mouseover" end="zoomplus.mouseout"/>
                        </use>
                        <path d="M-4,0h8M0,-4v8" fill="none" stroke="white" stroke-width="1.5" pointer-events="none"/>
                </g>
                <g id="zoomMin">
                        <use xlink:href="#rim" fill="#404040">
                                <set attributeName="fill" to="#808080" begin="zoomminus.mouseover" end="zoomminus.mouseout"/>
                        </use>
                        <path d="M-4,0h8" fill="none" stroke="white" stroke-width="1.5" pointer-events="none"/>
                </g>
                <g id="dirArrow">
                        <path fill="none" stroke="white" stroke-width="1.5" d="M0,-3.0v7 M-2.5,-0.5L0,-3.0L2.5,-0.5"/>
                </g>
               <g id="resetDef">
                       <use xlink:href="#rim2" fill="#404040">
                               <set attributeName="fill" to="#808080" begin="reset.mouseover" end="reset.mouseout"/>
                       </use>
               </g>
        </defs>

<script type="text/javascript">
var viewWidth = 947;
var viewHeight = 104;
var sectionId = 'dynsection-6';
</script>
<script xlink:href="svgpan.js"/>
<svg id="graph" class="graph">
<g id="viewport">
<title>io::writeBoarderNodeToCSV</title>
<polygon fill="white" stroke="none" points="-4,4 -4,-100 943,-100 943,4 -4,4"/>
<!-- Node57 -->
<g id="node1" class="node"><title>Node57</title>
<polygon fill="#bfbfbf" stroke="black" points="0,-38.5 0,-57.5 140,-57.5 140,-38.5 0,-38.5"/>
<text text-anchor="middle" x="70" y="-45.5" font-family="Helvetica,sans-Serif" font-size="10.00">io::writeBoarderNodeToCSV</text>
</g>
<!-- Node58 -->
<g id="node2" class="node"><title>Node58</title>
<g id="a_node2"><a xlink:href="classimageblock.html#adbafde60f699582250656ddc2ebe82e2" target="_top" xlink:title="imageblock::saveToDisk">
<polygon fill="white" stroke="black" points="191,-76.5 191,-95.5 316,-95.5 316,-76.5 191,-76.5"/>
<text text-anchor="middle" x="253.5" y="-83.5" font-family="Helvetica,sans-Serif" font-size="10.00">imageblock::saveToDisk</text>
</a>
</g>
</g>
<!-- Node57&#45;&gt;Node58 -->
<g id="edge1" class="edge"><title>Node57&#45;&gt;Node58</title>
<path fill="none" stroke="midnightblue" d="M126.792,-59.681C152.531,-65.0699 182.699,-71.3861 207.029,-76.4799"/>
<polygon fill="midnightblue" stroke="midnightblue" points="127.305,-56.2126 116.8,-57.589 125.871,-63.064 127.305,-56.2126"/>
</g>
<!-- Node63 -->
<g id="node7" class="node"><title>Node63</title>
<g id="a_node7"><a xlink:href="classimage.html#aa04b765a3c2cc6860a22ebfbedbcd7fc" target="_top" xlink:title="image::saveToDisk">
<polygon fill="white" stroke="black" points="203,-38.5 203,-57.5 304,-57.5 304,-38.5 203,-38.5"/>
<text text-anchor="middle" x="253.5" y="-45.5" font-family="Helvetica,sans-Serif" font-size="10.00">image::saveToDisk</text>
</a>
</g>
</g>
<!-- Node57&#45;&gt;Node63 -->
<g id="edge6" class="edge"><title>Node57&#45;&gt;Node63</title>
<path fill="none" stroke="midnightblue" d="M150.5,-48C168.255,-48 186.593,-48 202.739,-48"/>
<polygon fill="midnightblue" stroke="midnightblue" points="150.135,-44.5001 140.135,-48 150.135,-51.5001 150.135,-44.5001"/>
</g>
<!-- Node64 -->
<g id="node8" class="node"><title>Node64</title>
<g id="a_node8"><a xlink:href="classio.html#af3def6eac9bbdd2a12de24104be3acd6" target="_top" xlink:title="io::writeBoarderNodeSetToCSV">
<polygon fill="white" stroke="black" points="176,-0.5 176,-19.5 331,-19.5 331,-0.5 176,-0.5"/>
<text text-anchor="middle" x="253.5" y="-7.5" font-family="Helvetica,sans-Serif" font-size="10.00">io::writeBoarderNodeSetToCSV</text>
</a>
</g>
</g>
<!-- Node57&#45;&gt;Node64 -->
<g id="edge7" class="edge"><title>Node57&#45;&gt;Node64</title>
<path fill="none" stroke="midnightblue" d="M126.792,-36.319C152.531,-30.9301 182.699,-24.6139 207.029,-19.5201"/>
<polygon fill="midnightblue" stroke="midnightblue" points="125.871,-32.936 116.8,-38.411 127.305,-39.7874 125.871,-32.936"/>
</g>
<!-- Node59 -->
<g id="node3" class="node"><title>Node59</title>
<g id="a_node3"><a xlink:href="classimageblock.html#af3b91e3daaa8014af1239f60da6b0bf5" target="_top" xlink:title="imageblock::processing">
<polygon fill="white" stroke="black" points="367,-76.5 367,-95.5 486,-95.5 486,-76.5 367,-76.5"/>
<text text-anchor="middle" x="426.5" y="-83.5" font-family="Helvetica,sans-Serif" font-size="10.00">imageblock::processing</text>
</a>
</g>
</g>
<!-- Node58&#45;&gt;Node59 -->
<g id="edge2" class="edge"><title>Node58&#45;&gt;Node59</title>
<path fill="none" stroke="midnightblue" d="M326.457,-86C339.972,-86 353.951,-86 366.995,-86"/>
<polygon fill="midnightblue" stroke="midnightblue" points="326.235,-82.5001 316.235,-86 326.235,-89.5001 326.235,-82.5001"/>
</g>
<!-- Node60 -->
<g id="node4" class="node"><title>Node60</title>
<g id="a_node4"><a xlink:href="classimage.html#ad5a9d767eca6f9bbb8dcb556527edf4d" target="_top" xlink:title="image::ProcessTiles">
<polygon fill="white" stroke="black" points="522,-76.5 522,-95.5 628,-95.5 628,-76.5 522,-76.5"/>
<text text-anchor="middle" x="575" y="-83.5" font-family="Helvetica,sans-Serif" font-size="10.00">image::ProcessTiles</text>
</a>
</g>
</g>
<!-- Node59&#45;&gt;Node60 -->
<g id="edge3" class="edge"><title>Node59&#45;&gt;Node60</title>
<path fill="none" stroke="midnightblue" d="M496.279,-86C504.884,-86 513.573,-86 521.866,-86"/>
<polygon fill="midnightblue" stroke="midnightblue" points="496.243,-82.5001 486.243,-86 496.243,-89.5001 496.243,-82.5001"/>
</g>
<!-- Node61 -->
<g id="node5" class="node"><title>Node61</title>
<g id="a_node5"><a xlink:href="classimage.html#a4689c56b85c46d48ea52f0c9fa13891e" target="_top" xlink:title="image::processing">
<polygon fill="white" stroke="black" points="664,-76.5 664,-95.5 760,-95.5 760,-76.5 664,-76.5"/>
<text text-anchor="middle" x="712" y="-83.5" font-family="Helvetica,sans-Serif" font-size="10.00">image::processing</text>
</a>
</g>
</g>
<!-- Node60&#45;&gt;Node61 -->
<g id="edge4" class="edge"><title>Node60&#45;&gt;Node61</title>
<path fill="none" stroke="midnightblue" d="M638.206,-86C646.809,-86 655.527,-86 663.797,-86"/>
<polygon fill="midnightblue" stroke="midnightblue" points="638.195,-82.5001 628.195,-86 638.194,-89.5001 638.195,-82.5001"/>
</g>
<!-- Node62 -->
<g id="node6" class="node"><title>Node62</title>
<g id="a_node6"><a xlink:href="class_main_window.html#a9a45eb9ebe6d27bcd23677d9fbb74dd8" target="_top" xlink:title="MainWindow::on_Go_clicked">
<polygon fill="white" stroke="black" points="796,-76.5 796,-95.5 939,-95.5 939,-76.5 796,-76.5"/>
<text text-anchor="middle" x="867.5" y="-83.5" font-family="Helvetica,sans-Serif" font-size="10.00">MainWindow::on_Go_clicked</text>
</a>
</g>
</g>
<!-- Node61&#45;&gt;Node62 -->
<g id="edge5" class="edge"><title>Node61&#45;&gt;Node62</title>
<path fill="none" stroke="midnightblue" d="M770.583,-86C778.853,-86 787.441,-86 795.928,-86"/>
<polygon fill="midnightblue" stroke="midnightblue" points="770.308,-82.5001 760.308,-86 770.308,-89.5001 770.308,-82.5001"/>
</g>
</g>
</svg>
        <g id="navigator" transform="translate(0 0)" fill="#404254">
                <rect fill="#f2f5e9" fill-opacity="0.5" stroke="#606060" stroke-width=".5" x="0" y="0" width="60" height="60"/>
                <use id="zoomplus" xlink:href="#zoomPlus" x="17" y="9" onmousedown="handleZoom(evt,'in')"/>
                <use id="zoomminus" xlink:href="#zoomMin" x="42" y="9" onmousedown="handleZoom(evt,'out')"/>
                <use id="reset" xlink:href="#resetDef" x="30" y="36" onmousedown="handleReset()"/>
                <g id="arrowUp" xlink:href="#dirArrow" transform="translate(30 24)" onmousedown="handlePan(0,-1)">
                  <use xlink:href="#rim" fill="#404040">
                        <set attributeName="fill" to="#808080" begin="arrowUp.mouseover" end="arrowUp.mouseout"/>
                  </use>
                  <path fill="none" stroke="white" stroke-width="1.5" d="M0,-3.0v7 M-2.5,-0.5L0,-3.0L2.5,-0.5"/>
                </g>
                <g id="arrowRight" xlink:href="#dirArrow" transform="rotate(90) translate(36 -43)" onmousedown="handlePan(1,0)">
                  <use xlink:href="#rim" fill="#404040">
                        <set attributeName="fill" to="#808080" begin="arrowRight.mouseover" end="arrowRight.mouseout"/>
                  </use>
                  <path fill="none" stroke="white" stroke-width="1.5" d="M0,-3.0v7 M-2.5,-0.5L0,-3.0L2.5,-0.5"/>
                </g>
                <g id="arrowDown" xlink:href="#dirArrow" transform="rotate(180) translate(-30 -48)" onmousedown="handlePan(0,1)">
                  <use xlink:href="#rim" fill="#404040">
                        <set attributeName="fill" to="#808080" begin="arrowDown.mouseover" end="arrowDown.mouseout"/>
                  </use>
                  <path fill="none" stroke="white" stroke-width="1.5" d="M0,-3.0v7 M-2.5,-0.5L0,-3.0L2.5,-0.5"/>
                </g>
                <g id="arrowLeft" xlink:href="#dirArrow" transform="rotate(270) translate(-36 17)" onmousedown="handlePan(-1,0)">
                  <use xlink:href="#rim" fill="#404040">
                        <set attributeName="fill" to="#808080" begin="arrowLeft.mouseover" end="arrowLeft.mouseout"/>
                  </use>
                  <path fill="none" stroke="white" stroke-width="1.5" d="M0,-3.0v7 M-2.5,-0.5L0,-3.0L2.5,-0.5"/>
                </g>
        </g>
        <svg viewBox="0 0 15 15" width="100%" height="30px" preserveAspectRatio="xMaxYMin meet">
         <g id="arrow_out" transform="scale(0.3 0.3)">
          <a xlink:href="classio_a4cca3fdf98e917cac1b3e776c7634aec_icgraph_org.svg" target="_base">
           <rect id="button" ry="5" rx="5" y="6" x="6" height="38" width="38"
                fill="#f2f5e9" fill-opacity="0.5" stroke="#606060" stroke-width="1.0"/>
           <path id="arrow"
             d="M 11.500037,31.436501 C 11.940474,20.09759 22.043105,11.32322 32.158766,21.979434 L 37.068811,17.246167 C 37.068811,17.246167 37.088388,32 37.088388,32 L 22.160133,31.978069 C 22.160133,31.978069 26.997745,27.140456 26.997745,27.140456 C 18.528582,18.264221 13.291696,25.230495 11.500037,31.436501 z"
             style="fill:#404040;"/>
          </a>
         </g>
        </svg>
</svg>
