<?xml version="1.0" encoding="UTF-8" standalone="no"?>
<!DOCTYPE svg PUBLIC "-//W3C//DTD SVG 1.1//EN"
 "http://www.w3.org/Graphics/SVG/1.1/DTD/svg11.dtd">
<!-- Generated by graphviz version 2.38.0 (20140413.2041)
 -->
<!-- Title: EdgeHeap::edgeComparator Pages: 1 -->
<svg width="1696pt" height="218pt"
 viewBox="0.00 0.00 1696.00 218.00" xmlns="http://www.w3.org/2000/svg" xmlns:xlink="http://www.w3.org/1999/xlink">
<g id="graph0" class="graph" transform="scale(1 1) rotate(0) translate(4 214)">
<title>EdgeHeap::edgeComparator</title>
<polygon fill="white" stroke="none" points="-4,4 -4,-214 1692,-214 1692,4 -4,4"/>
<!-- Node13 -->
<g id="node1" class="node"><title>Node13</title>
<polygon fill="#bfbfbf" stroke="black" points="0,-95.5 0,-114.5 140,-114.5 140,-95.5 0,-95.5"/>
<text text-anchor="middle" x="70" y="-102.5" font-family="Helvetica,sans-Serif" font-size="10.00">EdgeHeap::edgeComparator</text>
</g>
<!-- Node14 -->
<g id="node2" class="node"><title>Node14</title>
<g id="a_node2"><a xlink:href="class_edge_heap.html#a09c54300b957acc0f414fd9ee6c558fa" target="_top" xlink:title="EdgeHeap::heapify">
<polygon fill="white" stroke="black" points="631.5,-190.5 631.5,-209.5 731.5,-209.5 731.5,-190.5 631.5,-190.5"/>
<text text-anchor="middle" x="681.5" y="-197.5" font-family="Helvetica,sans-Serif" font-size="10.00">EdgeHeap::heapify</text>
</a>
</g>
</g>
<!-- Node13&#45;&gt;Node14 -->
<g id="edge1" class="edge"><title>Node13&#45;&gt;Node14</title>
<path fill="none" stroke="midnightblue" d="M93.82,-120.104C114.382,-132.871 145.916,-150.413 176,-159 337.818,-205.19 539.846,-205.218 631.377,-202.3"/>
<polygon fill="midnightblue" stroke="midnightblue" points="95.5074,-117.029 85.1894,-114.623 91.7549,-122.939 95.5074,-117.029"/>
</g>
<!-- Node25 -->
<g id="node13" class="node"><title>Node25</title>
<g id="a_node13"><a xlink:href="class_edge_heap.html#af02715f2265926338a4b33135c821a4c" target="_top" xlink:title="EdgeHeap::heapifyDown">
<polygon fill="white" stroke="black" points="176,-114.5 176,-133.5 301,-133.5 301,-114.5 176,-114.5"/>
<text text-anchor="middle" x="238.5" y="-121.5" font-family="Helvetica,sans-Serif" font-size="10.00">EdgeHeap::heapifyDown</text>
</a>
</g>
</g>
<!-- Node13&#45;&gt;Node25 -->
<g id="edge14" class="edge"><title>Node13&#45;&gt;Node25</title>
<path fill="none" stroke="midnightblue" d="M150.262,-114.045C158.905,-115.031 167.606,-116.024 175.99,-116.981"/>
<polygon fill="midnightblue" stroke="midnightblue" points="150.497,-110.549 140.165,-112.893 149.703,-117.504 150.497,-110.549"/>
</g>
<!-- Node26 -->
<g id="node14" class="node"><title>Node26</title>
<g id="a_node14"><a xlink:href="class_edge_heap.html#a71040389a82aaff7be40c94a95afc357" target="_top" xlink:title="EdgeHeap::removeAt">
<polygon fill="white" stroke="black" points="337,-114.5 337,-133.5 447,-133.5 447,-114.5 337,-114.5"/>
<text text-anchor="middle" x="392" y="-121.5" font-family="Helvetica,sans-Serif" font-size="10.00">EdgeHeap::removeAt</text>
</a>
</g>
</g>
<!-- Node13&#45;&gt;Node26 -->
<g id="edge29" class="edge"><title>Node13&#45;&gt;Node26</title>
<path fill="none" stroke="midnightblue" d="M100.122,-118.642C120.788,-127.544 149.461,-138.345 176,-143 230.72,-152.597 245.745,-148.769 301,-143 318.789,-141.143 338.239,-137.274 354.492,-133.509"/>
<polygon fill="midnightblue" stroke="midnightblue" points="101.508,-115.428 90.9464,-114.588 98.6787,-121.831 101.508,-115.428"/>
</g>
<!-- Node30 -->
<g id="node18" class="node"><title>Node30</title>
<g id="a_node18"><a xlink:href="class_edge_heap.html#aed5f5e75856c0e3bcb8ccc29184a88c0" target="_top" xlink:title="EdgeHeap::updateAt">
<polygon fill="white" stroke="black" points="338.5,-76.5 338.5,-95.5 445.5,-95.5 445.5,-76.5 338.5,-76.5"/>
<text text-anchor="middle" x="392" y="-83.5" font-family="Helvetica,sans-Serif" font-size="10.00">EdgeHeap::updateAt</text>
</a>
</g>
</g>
<!-- Node13&#45;&gt;Node30 -->
<g id="edge30" class="edge"><title>Node13&#45;&gt;Node30</title>
<path fill="none" stroke="midnightblue" d="M100.122,-91.3579C120.788,-82.4562 149.461,-71.6547 176,-67 230.72,-57.4028 245.745,-61.2311 301,-67 318.789,-68.8573 338.239,-72.7261 354.492,-76.491"/>
<polygon fill="midnightblue" stroke="midnightblue" points="98.6787,-88.1693 90.9464,-95.4124 101.508,-94.5722 98.6787,-88.1693"/>
</g>
<!-- Node32 -->
<g id="node20" class="node"><title>Node32</title>
<g id="a_node20"><a xlink:href="class_edge_heap.html#afc03f4943c606b1d2617654cfaeeabb6" target="_top" xlink:title="EdgeHeap::heapifyUp">
<polygon fill="white" stroke="black" points="182,-76.5 182,-95.5 295,-95.5 295,-76.5 182,-76.5"/>
<text text-anchor="middle" x="238.5" y="-83.5" font-family="Helvetica,sans-Serif" font-size="10.00">EdgeHeap::heapifyUp</text>
</a>
</g>
</g>
<!-- Node13&#45;&gt;Node32 -->
<g id="edge24" class="edge"><title>Node13&#45;&gt;Node32</title>
<path fill="none" stroke="midnightblue" d="M150.364,-95.9435C161.053,-94.7237 171.828,-93.4941 181.982,-92.3354"/>
<polygon fill="midnightblue" stroke="midnightblue" points="149.703,-92.4961 140.165,-97.1074 150.497,-99.4509 149.703,-92.4961"/>
</g>
<!-- Node34 -->
<g id="node22" class="node"><title>Node34</title>
<g id="a_node22"><a xlink:href="class_edge_heap.html#a12a595377687c8c568007e8cc8646665" target="_top" xlink:title="EdgeHeap::isHeap">
<polygon fill="white" stroke="black" points="189,-0.5 189,-19.5 288,-19.5 288,-0.5 189,-0.5"/>
<text text-anchor="middle" x="238.5" y="-7.5" font-family="Helvetica,sans-Serif" font-size="10.00">EdgeHeap::isHeap</text>
</a>
</g>
</g>
<!-- Node13&#45;&gt;Node34 -->
<g id="edge28" class="edge"><title>Node13&#45;&gt;Node34</title>
<path fill="none" stroke="midnightblue" d="M91.3599,-89.2204C111.914,-73.7845 144.97,-50.2855 176,-34 186.453,-28.5139 198.45,-23.5573 209.057,-19.5922"/>
<polygon fill="midnightblue" stroke="midnightblue" points="89.2052,-86.4618 83.3589,-95.2976 93.4392,-92.0362 89.2052,-86.4618"/>
</g>
<!-- Node15 -->
<g id="node3" class="node"><title>Node15</title>
<g id="a_node3"><a xlink:href="class_r_a_g.html#ab09eebb1b704d18b583d528e77f7604a" target="_top" xlink:title="RAG::regionMerging">
<polygon fill="white" stroke="black" points="779,-152.5 779,-171.5 884,-171.5 884,-152.5 779,-152.5"/>
<text text-anchor="middle" x="831.5" y="-159.5" font-family="Helvetica,sans-Serif" font-size="10.00">RAG::regionMerging</text>
</a>
</g>
</g>
<!-- Node14&#45;&gt;Node15 -->
<g id="edge2" class="edge"><title>Node14&#45;&gt;Node15</title>
<path fill="none" stroke="midnightblue" d="M729.673,-187.888C750.286,-182.596 774.109,-176.479 793.422,-171.52"/>
<polygon fill="midnightblue" stroke="midnightblue" points="728.662,-184.534 719.847,-190.411 730.403,-191.314 728.662,-184.534"/>
</g>
<!-- Node16 -->
<g id="node4" class="node"><title>Node16</title>
<g id="a_node4"><a xlink:href="classimage.html#a12343719e8d96a4bda9c5bd6c035d52a" target="_top" xlink:title="image::mergeBlockX">
<polygon fill="white" stroke="black" points="926,-190.5 926,-209.5 1033,-209.5 1033,-190.5 926,-190.5"/>
<text text-anchor="middle" x="979.5" y="-197.5" font-family="Helvetica,sans-Serif" font-size="10.00">image::mergeBlockX</text>
</a>
</g>
</g>
<!-- Node15&#45;&gt;Node16 -->
<g id="edge3" class="edge"><title>Node15&#45;&gt;Node16</title>
<path fill="none" stroke="midnightblue" d="M879.036,-174.112C899.37,-179.404 922.871,-185.521 941.923,-190.48"/>
<polygon fill="midnightblue" stroke="midnightblue" points="879.901,-170.721 869.342,-171.589 878.138,-177.495 879.901,-170.721"/>
</g>
<!-- Node20 -->
<g id="node8" class="node"><title>Node20</title>
<g id="a_node8"><a xlink:href="classimage.html#aa21fc5a07af7528869425e750090b3b8" target="_top" xlink:title="image::mergeBlockY">
<polygon fill="white" stroke="black" points="926,-152.5 926,-171.5 1033,-171.5 1033,-152.5 926,-152.5"/>
<text text-anchor="middle" x="979.5" y="-159.5" font-family="Helvetica,sans-Serif" font-size="10.00">image::mergeBlockY</text>
</a>
</g>
</g>
<!-- Node15&#45;&gt;Node20 -->
<g id="edge7" class="edge"><title>Node15&#45;&gt;Node20</title>
<path fill="none" stroke="midnightblue" d="M894.631,-162C905.008,-162 915.685,-162 925.797,-162"/>
<polygon fill="midnightblue" stroke="midnightblue" points="894.385,-158.5 884.385,-162 894.385,-165.5 894.385,-158.5"/>
</g>
<!-- Node22 -->
<g id="node10" class="node"><title>Node22</title>
<g id="a_node10"><a xlink:href="classimageblock.html#abcc69a8c00ad79067185c700463f8126" target="_top" xlink:title="imageblock::createBPT">
<polygon fill="white" stroke="black" points="920,-114.5 920,-133.5 1039,-133.5 1039,-114.5 920,-114.5"/>
<text text-anchor="middle" x="979.5" y="-121.5" font-family="Helvetica,sans-Serif" font-size="10.00">imageblock::createBPT</text>
</a>
</g>
</g>
<!-- Node15&#45;&gt;Node22 -->
<g id="edge10" class="edge"><title>Node15&#45;&gt;Node22</title>
<path fill="none" stroke="midnightblue" d="M879.036,-149.888C899.37,-144.596 922.871,-138.479 941.923,-133.52"/>
<polygon fill="midnightblue" stroke="midnightblue" points="878.138,-146.505 869.342,-152.411 879.901,-153.279 878.138,-146.505"/>
</g>
<!-- Node17 -->
<g id="node5" class="node"><title>Node17</title>
<g id="a_node5"><a xlink:href="classimage.html#a83026280ad6cc713ec9489ff3bd9776e" target="_top" xlink:title="image::ProcessBoundaryX">
<polygon fill="white" stroke="black" points="1244,-190.5 1244,-209.5 1377,-209.5 1377,-190.5 1244,-190.5"/>
<text text-anchor="middle" x="1310.5" y="-197.5" font-family="Helvetica,sans-Serif" font-size="10.00">image::ProcessBoundaryX</text>
</a>
</g>
</g>
<!-- Node16&#45;&gt;Node17 -->
<g id="edge4" class="edge"><title>Node16&#45;&gt;Node17</title>
<path fill="none" stroke="midnightblue" d="M1043.4,-200C1100.83,-200 1185.41,-200 1243.73,-200"/>
<polygon fill="midnightblue" stroke="midnightblue" points="1043.36,-196.5 1033.36,-200 1043.36,-203.5 1043.36,-196.5"/>
</g>
<!-- Node18 -->
<g id="node6" class="node"><title>Node18</title>
<g id="a_node6"><a xlink:href="classimage.html#a4689c56b85c46d48ea52f0c9fa13891e" target="_top" xlink:title="image::processing">
<polygon fill="white" stroke="black" points="1413,-152.5 1413,-171.5 1509,-171.5 1509,-152.5 1413,-152.5"/>
<text text-anchor="middle" x="1461" y="-159.5" font-family="Helvetica,sans-Serif" font-size="10.00">image::processing</text>
</a>
</g>
</g>
<!-- Node17&#45;&gt;Node18 -->
<g id="edge5" class="edge"><title>Node17&#45;&gt;Node18</title>
<path fill="none" stroke="midnightblue" d="M1358.83,-187.888C1379.51,-182.596 1403.42,-176.479 1422.8,-171.52"/>
<polygon fill="midnightblue" stroke="midnightblue" points="1357.79,-184.541 1348.97,-190.411 1359.53,-191.323 1357.79,-184.541"/>
</g>
<!-- Node19 -->
<g id="node7" class="node"><title>Node19</title>
<g id="a_node7"><a xlink:href="class_main_window.html#a9a45eb9ebe6d27bcd23677d9fbb74dd8" target="_top" xlink:title="MainWindow::on_Go_clicked">
<polygon fill="white" stroke="black" points="1545,-152.5 1545,-171.5 1688,-171.5 1688,-152.5 1545,-152.5"/>
<text text-anchor="middle" x="1616.5" y="-159.5" font-family="Helvetica,sans-Serif" font-size="10.00">MainWindow::on_Go_clicked</text>
</a>
</g>
</g>
<!-- Node18&#45;&gt;Node19 -->
<g id="edge6" class="edge"><title>Node18&#45;&gt;Node19</title>
<path fill="none" stroke="midnightblue" d="M1519.58,-162C1527.85,-162 1536.44,-162 1544.93,-162"/>
<polygon fill="midnightblue" stroke="midnightblue" points="1519.31,-158.5 1509.31,-162 1519.31,-165.5 1519.31,-158.5"/>
</g>
<!-- Node21 -->
<g id="node9" class="node"><title>Node21</title>
<g id="a_node9"><a xlink:href="classimage.html#adf6b8c126649c9a40387f12b5f5f07d5" target="_top" xlink:title="image::ProcessBoundaryY">
<polygon fill="white" stroke="black" points="1075,-152.5 1075,-171.5 1208,-171.5 1208,-152.5 1075,-152.5"/>
<text text-anchor="middle" x="1141.5" y="-159.5" font-family="Helvetica,sans-Serif" font-size="10.00">image::ProcessBoundaryY</text>
</a>
</g>
</g>
<!-- Node20&#45;&gt;Node21 -->
<g id="edge8" class="edge"><title>Node20&#45;&gt;Node21</title>
<path fill="none" stroke="midnightblue" d="M1043.49,-162C1053.8,-162 1064.51,-162 1074.88,-162"/>
<polygon fill="midnightblue" stroke="midnightblue" points="1043.33,-158.5 1033.33,-162 1043.33,-165.5 1043.33,-158.5"/>
</g>
<!-- Node21&#45;&gt;Node18 -->
<g id="edge9" class="edge"><title>Node21&#45;&gt;Node18</title>
<path fill="none" stroke="midnightblue" d="M1218.54,-162C1278.98,-162 1361.61,-162 1412.85,-162"/>
<polygon fill="midnightblue" stroke="midnightblue" points="1218.29,-158.5 1208.29,-162 1218.29,-165.5 1218.29,-158.5"/>
</g>
<!-- Node23 -->
<g id="node11" class="node"><title>Node23</title>
<g id="a_node11"><a xlink:href="classimageblock.html#af3b91e3daaa8014af1239f60da6b0bf5" target="_top" xlink:title="imageblock::processing">
<polygon fill="white" stroke="black" points="1082,-114.5 1082,-133.5 1201,-133.5 1201,-114.5 1082,-114.5"/>
<text text-anchor="middle" x="1141.5" y="-121.5" font-family="Helvetica,sans-Serif" font-size="10.00">imageblock::processing</text>
</a>
</g>
</g>
<!-- Node22&#45;&gt;Node23 -->
<g id="edge11" class="edge"><title>Node22&#45;&gt;Node23</title>
<path fill="none" stroke="midnightblue" d="M1049.42,-124C1060.22,-124 1071.29,-124 1081.84,-124"/>
<polygon fill="midnightblue" stroke="midnightblue" points="1049.17,-120.5 1039.17,-124 1049.17,-127.5 1049.17,-120.5"/>
</g>
<!-- Node24 -->
<g id="node12" class="node"><title>Node24</title>
<g id="a_node12"><a xlink:href="classimage.html#ad5a9d767eca6f9bbb8dcb556527edf4d" target="_top" xlink:title="image::ProcessTiles">
<polygon fill="white" stroke="black" points="1257.5,-114.5 1257.5,-133.5 1363.5,-133.5 1363.5,-114.5 1257.5,-114.5"/>
<text text-anchor="middle" x="1310.5" y="-121.5" font-family="Helvetica,sans-Serif" font-size="10.00">image::ProcessTiles</text>
</a>
</g>
</g>
<!-- Node23&#45;&gt;Node24 -->
<g id="edge12" class="edge"><title>Node23&#45;&gt;Node24</title>
<path fill="none" stroke="midnightblue" d="M1211.78,-124C1226.99,-124 1242.86,-124 1257.27,-124"/>
<polygon fill="midnightblue" stroke="midnightblue" points="1211.38,-120.5 1201.38,-124 1211.38,-127.5 1211.38,-120.5"/>
</g>
<!-- Node24&#45;&gt;Node18 -->
<g id="edge13" class="edge"><title>Node24&#45;&gt;Node18</title>
<path fill="none" stroke="midnightblue" d="M1358.83,-136.112C1379.51,-141.404 1403.42,-147.521 1422.8,-152.48"/>
<polygon fill="midnightblue" stroke="midnightblue" points="1359.53,-132.677 1348.97,-133.589 1357.79,-139.459 1359.53,-132.677"/>
</g>
<!-- Node25&#45;&gt;Node26 -->
<g id="edge15" class="edge"><title>Node25&#45;&gt;Node26</title>
<path fill="none" stroke="midnightblue" d="M311.16,-124C319.762,-124 328.435,-124 336.733,-124"/>
<polygon fill="midnightblue" stroke="midnightblue" points="311.121,-120.5 301.121,-124 311.121,-127.5 311.121,-120.5"/>
</g>
<!-- Node25&#45;&gt;Node30 -->
<g id="edge21" class="edge"><title>Node25&#45;&gt;Node30</title>
<path fill="none" stroke="midnightblue" d="M287.502,-111.96C308.667,-106.651 333.186,-100.501 353.045,-95.5201"/>
<polygon fill="midnightblue" stroke="midnightblue" points="286.578,-108.583 277.73,-114.411 288.281,-115.373 286.578,-108.583"/>
</g>
<!-- Node27 -->
<g id="node15" class="node"><title>Node27</title>
<g id="a_node15"><a xlink:href="class_edge_heap.html#a001dc48506130f599bddb241006d2920" target="_top" xlink:title="EdgeHeap::removeFront">
<polygon fill="white" stroke="black" points="620,-152.5 620,-171.5 743,-171.5 743,-152.5 620,-152.5"/>
<text text-anchor="middle" x="681.5" y="-159.5" font-family="Helvetica,sans-Serif" font-size="10.00">EdgeHeap::removeFront</text>
</a>
</g>
</g>
<!-- Node26&#45;&gt;Node27 -->
<g id="edge16" class="edge"><title>Node26&#45;&gt;Node27</title>
<path fill="none" stroke="midnightblue" d="M443.617,-135.725C456.416,-138.403 470.171,-141.035 483,-143 528.626,-149.988 580.6,-154.866 619.775,-157.929"/>
<polygon fill="midnightblue" stroke="midnightblue" points="444.104,-132.25 433.593,-133.579 442.639,-139.095 444.104,-132.25"/>
</g>
<!-- Node28 -->
<g id="node16" class="node"><title>Node28</title>
<g id="a_node16"><a xlink:href="class_edge_heap.html#ac36afe05c095a87767748b41dfa831a5" target="_top" xlink:title="EdgeHeap::remove">
<polygon fill="white" stroke="black" points="483,-114.5 483,-133.5 584,-133.5 584,-114.5 483,-114.5"/>
<text text-anchor="middle" x="533.5" y="-121.5" font-family="Helvetica,sans-Serif" font-size="10.00">EdgeHeap::remove</text>
</a>
</g>
</g>
<!-- Node26&#45;&gt;Node28 -->
<g id="edge18" class="edge"><title>Node26&#45;&gt;Node28</title>
<path fill="none" stroke="midnightblue" d="M457.535,-124C465.968,-124 474.502,-124 482.642,-124"/>
<polygon fill="midnightblue" stroke="midnightblue" points="457.334,-120.5 447.334,-124 457.334,-127.5 457.334,-120.5"/>
</g>
<!-- Node27&#45;&gt;Node15 -->
<g id="edge17" class="edge"><title>Node27&#45;&gt;Node15</title>
<path fill="none" stroke="midnightblue" d="M753.177,-162C761.787,-162 770.457,-162 778.721,-162"/>
<polygon fill="midnightblue" stroke="midnightblue" points="753.124,-158.5 743.124,-162 753.124,-165.5 753.124,-158.5"/>
</g>
<!-- Node29 -->
<g id="node17" class="node"><title>Node29</title>
<g id="a_node17"><a xlink:href="class_r_a_g.html#aa2de492a3df037db29b0e3ccab5251ee" target="_top" xlink:title="RAG::merge">
<polygon fill="white" stroke="black" points="646,-114.5 646,-133.5 717,-133.5 717,-114.5 646,-114.5"/>
<text text-anchor="middle" x="681.5" y="-121.5" font-family="Helvetica,sans-Serif" font-size="10.00">RAG::merge</text>
</a>
</g>
</g>
<!-- Node28&#45;&gt;Node29 -->
<g id="edge19" class="edge"><title>Node28&#45;&gt;Node29</title>
<path fill="none" stroke="midnightblue" d="M594.438,-124C611.849,-124 630.285,-124 645.608,-124"/>
<polygon fill="midnightblue" stroke="midnightblue" points="594.337,-120.5 584.337,-124 594.337,-127.5 594.337,-120.5"/>
</g>
<!-- Node29&#45;&gt;Node15 -->
<g id="edge20" class="edge"><title>Node29&#45;&gt;Node15</title>
<path fill="none" stroke="midnightblue" d="M726.953,-135.413C748.168,-140.861 773.261,-147.303 793.431,-152.482"/>
<polygon fill="midnightblue" stroke="midnightblue" points="727.756,-132.006 717.199,-132.909 726.015,-138.786 727.756,-132.006"/>
</g>
<!-- Node31 -->
<g id="node19" class="node"><title>Node31</title>
<g id="a_node19"><a xlink:href="class_edge_heap.html#a7d8eaf4111da4c024feb5f2fb8d7cafa" target="_top" xlink:title="EdgeHeap::update">
<polygon fill="white" stroke="black" points="484.5,-76.5 484.5,-95.5 582.5,-95.5 582.5,-76.5 484.5,-76.5"/>
<text text-anchor="middle" x="533.5" y="-83.5" font-family="Helvetica,sans-Serif" font-size="10.00">EdgeHeap::update</text>
</a>
</g>
</g>
<!-- Node30&#45;&gt;Node31 -->
<g id="edge22" class="edge"><title>Node30&#45;&gt;Node31</title>
<path fill="none" stroke="midnightblue" d="M455.957,-86C465.466,-86 475.145,-86 484.278,-86"/>
<polygon fill="midnightblue" stroke="midnightblue" points="455.739,-82.5001 445.739,-86 455.739,-89.5001 455.739,-82.5001"/>
</g>
<!-- Node31&#45;&gt;Node29 -->
<g id="edge23" class="edge"><title>Node31&#45;&gt;Node29</title>
<path fill="none" stroke="midnightblue" d="M581.302,-98.1813C602.205,-103.622 626.412,-109.922 645.68,-114.937"/>
<polygon fill="midnightblue" stroke="midnightblue" points="581.901,-94.7207 571.342,-95.589 580.138,-101.495 581.901,-94.7207"/>
</g>
<!-- Node32&#45;&gt;Node26 -->
<g id="edge26" class="edge"><title>Node32&#45;&gt;Node26</title>
<path fill="none" stroke="midnightblue" d="M287.502,-98.04C308.667,-103.349 333.186,-109.499 353.045,-114.48"/>
<polygon fill="midnightblue" stroke="midnightblue" points="288.281,-94.6271 277.73,-95.589 286.578,-101.417 288.281,-94.6271"/>
</g>
<!-- Node32&#45;&gt;Node30 -->
<g id="edge27" class="edge"><title>Node32&#45;&gt;Node30</title>
<path fill="none" stroke="midnightblue" d="M305.168,-86C316.304,-86 327.736,-86 338.478,-86"/>
<polygon fill="midnightblue" stroke="midnightblue" points="305.053,-82.5001 295.053,-86 305.053,-89.5001 305.053,-82.5001"/>
</g>
<!-- Node33 -->
<g id="node21" class="node"><title>Node33</title>
<g id="a_node21"><a xlink:href="class_edge_heap.html#ab0a6cd317e3e6c92c0072d3211ecc24b" target="_top" xlink:title="EdgeHeap::insert">
<polygon fill="white" stroke="black" points="346,-38.5 346,-57.5 438,-57.5 438,-38.5 346,-38.5"/>
<text text-anchor="middle" x="392" y="-45.5" font-family="Helvetica,sans-Serif" font-size="10.00">EdgeHeap::insert</text>
</a>
</g>
</g>
<!-- Node32&#45;&gt;Node33 -->
<g id="edge25" class="edge"><title>Node32&#45;&gt;Node33</title>
<path fill="none" stroke="midnightblue" d="M287.502,-73.96C308.667,-68.6512 333.186,-62.5012 353.045,-57.5201"/>
<polygon fill="midnightblue" stroke="midnightblue" points="286.578,-70.5832 277.73,-76.411 288.281,-77.3729 286.578,-70.5832"/>
</g>
</g>
</svg>
