<?xml version="1.0" encoding="UTF-8" standalone="no"?>
<!DOCTYPE svg PUBLIC "-//W3C//DTD SVG 1.1//EN"
 "http://www.w3.org/Graphics/SVG/1.1/DTD/svg11.dtd">
<!-- Generated by graphviz version 2.38.0 (20140413.2041)
 -->
<!-- Title: compoundModel Pages: 1 -->
<svg width="338pt" height="175pt"
 viewBox="0.00 0.00 337.53 175.00" xmlns="http://www.w3.org/2000/svg" xmlns:xlink="http://www.w3.org/1999/xlink">
<g id="graph0" class="graph" transform="scale(1 1) rotate(0) translate(4 171)">
<title>compoundModel</title>
<polygon fill="white" stroke="none" points="-4,4 -4,-171 333.527,-171 333.527,4 -4,4"/>
<!-- Node2 -->
<g id="node1" class="node"><title>Node2</title>
<polygon fill="#bfbfbf" stroke="black" points="137.027,-0.5 137.027,-19.5 225.027,-19.5 225.027,-0.5 137.027,-0.5"/>
<text text-anchor="middle" x="181.027" y="-7.5" font-family="Helvetica,sans-Serif" font-size="10.00">compoundModel</text>
</g>
<!-- Node3 -->
<g id="node2" class="node"><title>Node3</title>
<g id="a_node2"><a xlink:href="classregion_model.html" target="_top" xlink:title="regionModel">
<polygon fill="white" stroke="black" points="55.5274,-147.5 55.5274,-166.5 124.527,-166.5 124.527,-147.5 55.5274,-147.5"/>
<text text-anchor="middle" x="90.0274" y="-154.5" font-family="Helvetica,sans-Serif" font-size="10.00">regionModel</text>
</a>
</g>
</g>
<!-- Node3&#45;&gt;Node2 -->
<g id="edge1" class="edge"><title>Node3&#45;&gt;Node2</title>
<path fill="none" stroke="midnightblue" d="M51.0001,-143.496C42.5485,-139.678 34.0496,-134.889 27.0274,-129 4.94435,-110.481 -8.92566,-90.3069 8.02744,-67 37.2751,-26.7908 96.0172,-14.861 136.891,-11.6334"/>
<polygon fill="midnightblue" stroke="midnightblue" points="49.8624,-146.813 60.4409,-147.402 52.5382,-140.345 49.8624,-146.813"/>
</g>
<!-- Node4 -->
<g id="node3" class="node"><title>Node4</title>
<g id="a_node3"><a xlink:href="class_node.html" target="_top" xlink:title="Node">
<polygon fill="white" stroke="black" points="17.0274,-74 17.0274,-93 57.0274,-93 57.0274,-74 17.0274,-74"/>
<text text-anchor="middle" x="37.0274" y="-81" font-family="Helvetica,sans-Serif" font-size="10.00">Node</text>
</a>
</g>
</g>
<!-- Node3&#45;&gt;Node4 -->
<g id="edge4" class="edge"><title>Node3&#45;&gt;Node4</title>
<path fill="none" stroke="#9a32cd" stroke-dasharray="5,2" d="M48.1544,-142.579C42.5465,-139.032 37.5308,-134.578 34.0274,-129 27.1913,-118.115 30.4822,-102.635 33.641,-93.0968"/>
<polygon fill="#9a32cd" stroke="#9a32cd" points="46.8475,-145.847 57.3221,-147.439 50.1264,-139.663 46.8475,-145.847"/>
<text text-anchor="middle" x="49.0274" y="-121" font-family="Helvetica,sans-Serif" font-size="10.00"> model</text>
</g>
<!-- Node5 -->
<g id="node4" class="node"><title>Node5</title>
<g id="a_node4"><a xlink:href="classhistogram_model.html" target="_top" xlink:title="histogramModel">
<polygon fill="white" stroke="black" points="138.027,-74 138.027,-93 224.027,-93 224.027,-74 138.027,-74"/>
<text text-anchor="middle" x="181.027" y="-81" font-family="Helvetica,sans-Serif" font-size="10.00">histogramModel</text>
</a>
</g>
</g>
<!-- Node3&#45;&gt;Node5 -->
<g id="edge6" class="edge"><title>Node3&#45;&gt;Node5</title>
<path fill="none" stroke="midnightblue" d="M109.22,-140.921C127.702,-126.399 155.006,-104.945 170.062,-93.1157"/>
<polygon fill="midnightblue" stroke="midnightblue" points="106.887,-138.302 101.186,-147.233 111.211,-143.807 106.887,-138.302"/>
</g>
<!-- Node6 -->
<g id="node5" class="node"><title>Node6</title>
<g id="a_node5"><a xlink:href="classprobability_model.html" target="_top" xlink:title="probabilityModel">
<polygon fill="white" stroke="black" points="242.527,-74 242.527,-93 329.527,-93 329.527,-74 242.527,-74"/>
<text text-anchor="middle" x="286.027" y="-81" font-family="Helvetica,sans-Serif" font-size="10.00">probabilityModel</text>
</a>
</g>
</g>
<!-- Node3&#45;&gt;Node6 -->
<g id="edge8" class="edge"><title>Node3&#45;&gt;Node6</title>
<path fill="none" stroke="midnightblue" d="M123.143,-143.919C162.713,-129.484 227.913,-105.7 262.607,-93.0439"/>
<polygon fill="midnightblue" stroke="midnightblue" points="121.865,-140.66 113.67,-147.375 124.264,-147.236 121.865,-140.66"/>
</g>
<!-- Node4&#45;&gt;Node3 -->
<g id="edge2" class="edge"><title>Node4&#45;&gt;Node3</title>
<path fill="none" stroke="#9a32cd" stroke-dasharray="5,2" d="M53.0203,-100.328C58.0899,-105.715 63.5386,-111.917 68.0274,-118 74.9979,-127.446 81.5434,-139.279 85.6527,-147.208"/>
<polygon fill="#9a32cd" stroke="#9a32cd" points="55.5,-97.8574 46.0199,-93.1266 50.4807,-102.737 55.5,-97.8574"/>
<text text-anchor="middle" x="87.5274" y="-121" font-family="Helvetica,sans-Serif" font-size="10.00"> node</text>
</g>
<!-- Node4&#45;&gt;Node4 -->
<g id="edge3" class="edge"><title>Node4&#45;&gt;Node4</title>
<path fill="none" stroke="#9a32cd" stroke-dasharray="5,2" d="M67.4432,-90.3026C71.9677,-89.2429 75.0274,-86.9753 75.0274,-83.5 75.0274,-77.7969 66.7876,-75.3463 57.3569,-76.1483"/>
<polygon fill="#9a32cd" stroke="#9a32cd" points="67.1518,-86.8132 57.3569,-90.8517 67.5324,-93.8029 67.1518,-86.8132"/>
<text text-anchor="middle" x="97.5274" y="-92" font-family="Helvetica,sans-Serif" font-size="10.00"> rightChild</text>
<text text-anchor="middle" x="97.5274" y="-81" font-family="Helvetica,sans-Serif" font-size="10.00">parent</text>
<text text-anchor="middle" x="97.5274" y="-70" font-family="Helvetica,sans-Serif" font-size="10.00">leftChild</text>
</g>
<!-- Node5&#45;&gt;Node2 -->
<g id="edge5" class="edge"><title>Node5&#45;&gt;Node2</title>
<path fill="none" stroke="#9a32cd" stroke-dasharray="5,2" d="M181.027,-63.5936C181.027,-49.433 181.027,-30.7019 181.027,-19.839"/>
<polygon fill="#9a32cd" stroke="#9a32cd" points="177.528,-63.7327 181.027,-73.7327 184.528,-63.7327 177.528,-63.7327"/>
<text text-anchor="middle" x="206.527" y="-41" font-family="Helvetica,sans-Serif" font-size="10.00"> hist_model</text>
</g>
<!-- Node6&#45;&gt;Node2 -->
<g id="edge7" class="edge"><title>Node6&#45;&gt;Node2</title>
<path fill="none" stroke="#9a32cd" stroke-dasharray="5,2" d="M270.372,-66.5562C260.948,-57.4908 248.41,-46.3231 236.027,-38 225.345,-30.8198 212.474,-24.3952 201.869,-19.6161"/>
<polygon fill="#9a32cd" stroke="#9a32cd" points="268.194,-69.3236 277.769,-73.8573 273.111,-64.3416 268.194,-69.3236"/>
<text text-anchor="middle" x="277.027" y="-41" font-family="Helvetica,sans-Serif" font-size="10.00"> prob_model</text>
</g>
</g>
</svg>
