<?xml version="1.0" encoding="UTF-8" standalone="no"?>
<!DOCTYPE svg PUBLIC "-//W3C//DTD SVG 1.1//EN"
 "http://www.w3.org/Graphics/SVG/1.1/DTD/svg11.dtd">
<!-- Generated by graphviz version 2.38.0 (20140413.2041)
 -->
<!-- Title: imageblock::processing Pages: 1 -->
<svg width="580pt" height="28pt"
 viewBox="0.00 0.00 580.00 28.00" xmlns="http://www.w3.org/2000/svg" xmlns:xlink="http://www.w3.org/1999/xlink">
<g id="graph0" class="graph" transform="scale(1 1) rotate(0) translate(4 24)">
<title>imageblock::processing</title>
<polygon fill="white" stroke="none" points="-4,4 -4,-24 576,-24 576,4 -4,4"/>
<!-- Node132 -->
<g id="node1" class="node"><title>Node132</title>
<polygon fill="#bfbfbf" stroke="black" points="0,-0.5 0,-19.5 119,-19.5 119,-0.5 0,-0.5"/>
<text text-anchor="middle" x="59.5" y="-7.5" font-family="Helvetica,sans-Serif" font-size="10.00">imageblock::processing</text>
</g>
<!-- Node133 -->
<g id="node2" class="node"><title>Node133</title>
<g id="a_node2"><a xlink:href="classimage.html#ad5a9d767eca6f9bbb8dcb556527edf4d" target="_top" xlink:title="image::ProcessTiles">
<polygon fill="white" stroke="black" points="155,-0.5 155,-19.5 261,-19.5 261,-0.5 155,-0.5"/>
<text text-anchor="middle" x="208" y="-7.5" font-family="Helvetica,sans-Serif" font-size="10.00">image::ProcessTiles</text>
</a>
</g>
</g>
<!-- Node132&#45;&gt;Node133 -->
<g id="edge1" class="edge"><title>Node132&#45;&gt;Node133</title>
<path fill="none" stroke="midnightblue" d="M129.279,-10C137.884,-10 146.573,-10 154.866,-10"/>
<polygon fill="midnightblue" stroke="midnightblue" points="129.243,-6.5001 119.243,-10 129.243,-13.5001 129.243,-6.5001"/>
</g>
<!-- Node134 -->
<g id="node3" class="node"><title>Node134</title>
<g id="a_node3"><a xlink:href="classimage.html#a4689c56b85c46d48ea52f0c9fa13891e" target="_top" xlink:title="image::processing">
<polygon fill="white" stroke="black" points="297,-0.5 297,-19.5 393,-19.5 393,-0.5 297,-0.5"/>
<text text-anchor="middle" x="345" y="-7.5" font-family="Helvetica,sans-Serif" font-size="10.00">image::processing</text>
</a>
</g>
</g>
<!-- Node133&#45;&gt;Node134 -->
<g id="edge2" class="edge"><title>Node133&#45;&gt;Node134</title>
<path fill="none" stroke="midnightblue" d="M271.206,-10C279.809,-10 288.527,-10 296.797,-10"/>
<polygon fill="midnightblue" stroke="midnightblue" points="271.195,-6.5001 261.195,-10 271.194,-13.5001 271.195,-6.5001"/>
</g>
<!-- Node135 -->
<g id="node4" class="node"><title>Node135</title>
<g id="a_node4"><a xlink:href="class_main_window.html#a9a45eb9ebe6d27bcd23677d9fbb74dd8" target="_top" xlink:title="MainWindow::on_Go_clicked">
<polygon fill="white" stroke="black" points="429,-0.5 429,-19.5 572,-19.5 572,-0.5 429,-0.5"/>
<text text-anchor="middle" x="500.5" y="-7.5" font-family="Helvetica,sans-Serif" font-size="10.00">MainWindow::on_Go_clicked</text>
</a>
</g>
</g>
<!-- Node134&#45;&gt;Node135 -->
<g id="edge3" class="edge"><title>Node134&#45;&gt;Node135</title>
<path fill="none" stroke="midnightblue" d="M403.583,-10C411.853,-10 420.441,-10 428.928,-10"/>
<polygon fill="midnightblue" stroke="midnightblue" points="403.308,-6.5001 393.308,-10 403.308,-13.5001 403.308,-6.5001"/>
</g>
</g>
</svg>
