<?xml version="1.0" encoding="UTF-8" standalone="no"?>
<!DOCTYPE svg PUBLIC "-//W3C//DTD SVG 1.1//EN"
 "http://www.w3.org/Graphics/SVG/1.1/DTD/svg11.dtd">
<!-- Generated by graphviz version 2.38.0 (20140413.2041)
 -->
<!-- Title: probabilityModel::probabilityModel Pages: 1 -->
<svg width="334pt" height="66pt"
 viewBox="0.00 0.00 334.00 66.00" xmlns="http://www.w3.org/2000/svg" xmlns:xlink="http://www.w3.org/1999/xlink">
<g id="graph0" class="graph" transform="scale(1 1) rotate(0) translate(4 62)">
<title>probabilityModel::probabilityModel</title>
<polygon fill="white" stroke="none" points="-4,4 -4,-62 330,-62 330,4 -4,4"/>
<!-- Node1 -->
<g id="node1" class="node"><title>Node1</title>
<polygon fill="#bfbfbf" stroke="black" points="0,-14 0,-44 137,-44 137,-14 0,-14"/>
<text text-anchor="start" x="8" y="-32" font-family="Helvetica,sans-Serif" font-size="10.00">probabilityModel::probability</text>
<text text-anchor="middle" x="68.5" y="-21" font-family="Helvetica,sans-Serif" font-size="10.00">Model</text>
</g>
<!-- Node2 -->
<g id="node2" class="node"><title>Node2</title>
<g id="a_node2"><a xlink:href="classregion_model.html#a7f6a5d1ab86d69e213ebb81973481330" target="_top" xlink:title="regionModel::setArea">
<polygon fill="white" stroke="black" points="195,-38.5 195,-57.5 304,-57.5 304,-38.5 195,-38.5"/>
<text text-anchor="middle" x="249.5" y="-45.5" font-family="Helvetica,sans-Serif" font-size="10.00">regionModel::setArea</text>
</a>
</g>
</g>
<!-- Node1&#45;&gt;Node2 -->
<g id="edge1" class="edge"><title>Node1&#45;&gt;Node2</title>
<path fill="none" stroke="midnightblue" d="M137.172,-36.1831C152.846,-37.8468 169.472,-39.6115 184.962,-41.2557"/>
<polygon fill="midnightblue" stroke="midnightblue" points="184.642,-44.7413 194.955,-42.3165 185.38,-37.7804 184.642,-44.7413"/>
</g>
<!-- Node3 -->
<g id="node3" class="node"><title>Node3</title>
<g id="a_node3"><a xlink:href="classprobability_model.html#ab6946deb86171e935e9f085d103ec3be" target="_top" xlink:title="probabilityModel::setClassCost">
<polygon fill="white" stroke="black" points="173,-0.5 173,-19.5 326,-19.5 326,-0.5 173,-0.5"/>
<text text-anchor="middle" x="249.5" y="-7.5" font-family="Helvetica,sans-Serif" font-size="10.00">probabilityModel::setClassCost</text>
</a>
</g>
</g>
<!-- Node1&#45;&gt;Node3 -->
<g id="edge2" class="edge"><title>Node1&#45;&gt;Node3</title>
<path fill="none" stroke="midnightblue" d="M137.172,-21.8169C145.569,-20.9256 154.239,-20.0054 162.86,-19.0902"/>
<polygon fill="midnightblue" stroke="midnightblue" points="163.366,-22.5563 172.941,-18.0203 162.627,-15.5954 163.366,-22.5563"/>
</g>
</g>
</svg>
