<?xml version="1.0" encoding="UTF-8" standalone="no"?>
<!DOCTYPE svg PUBLIC "-//W3C//DTD SVG 1.1//EN"
 "http://www.w3.org/Graphics/SVG/1.1/DTD/svg11.dtd">
<!-- Generated by graphviz version 2.38.0 (20140413.2041)
 -->
<!-- Title: Node::removeAllEdges Pages: 1 -->
<svg width="1177pt" height="104pt"
 viewBox="0.00 0.00 1177.00 104.00" xmlns="http://www.w3.org/2000/svg" xmlns:xlink="http://www.w3.org/1999/xlink">
<g id="graph0" class="graph" transform="scale(1 1) rotate(0) translate(4 100)">
<title>Node::removeAllEdges</title>
<polygon fill="white" stroke="none" points="-4,4 -4,-100 1173,-100 1173,4 -4,4"/>
<!-- Node1 -->
<g id="node1" class="node"><title>Node1</title>
<polygon fill="#bfbfbf" stroke="black" points="0,-38.5 0,-57.5 117,-57.5 117,-38.5 0,-38.5"/>
<text text-anchor="middle" x="58.5" y="-45.5" font-family="Helvetica,sans-Serif" font-size="10.00">Node::removeAllEdges</text>
</g>
<!-- Node2 -->
<g id="node2" class="node"><title>Node2</title>
<g id="a_node2"><a xlink:href="class_r_a_g.html#aa2de492a3df037db29b0e3ccab5251ee" target="_top" xlink:title="RAG::merge">
<polygon fill="white" stroke="black" points="153,-38.5 153,-57.5 224,-57.5 224,-38.5 153,-38.5"/>
<text text-anchor="middle" x="188.5" y="-45.5" font-family="Helvetica,sans-Serif" font-size="10.00">RAG::merge</text>
</a>
</g>
</g>
<!-- Node1&#45;&gt;Node2 -->
<g id="edge1" class="edge"><title>Node1&#45;&gt;Node2</title>
<path fill="none" stroke="midnightblue" d="M127.183,-48C136.08,-48 144.882,-48 152.898,-48"/>
<polygon fill="midnightblue" stroke="midnightblue" points="127.134,-44.5001 117.134,-48 127.134,-51.5001 127.134,-44.5001"/>
</g>
<!-- Node3 -->
<g id="node3" class="node"><title>Node3</title>
<g id="a_node3"><a xlink:href="class_r_a_g.html#ab09eebb1b704d18b583d528e77f7604a" target="_top" xlink:title="RAG::regionMerging">
<polygon fill="white" stroke="black" points="260,-38.5 260,-57.5 365,-57.5 365,-38.5 260,-38.5"/>
<text text-anchor="middle" x="312.5" y="-45.5" font-family="Helvetica,sans-Serif" font-size="10.00">RAG::regionMerging</text>
</a>
</g>
</g>
<!-- Node2&#45;&gt;Node3 -->
<g id="edge2" class="edge"><title>Node2&#45;&gt;Node3</title>
<path fill="none" stroke="midnightblue" d="M234.379,-48C242.69,-48 251.43,-48 259.921,-48"/>
<polygon fill="midnightblue" stroke="midnightblue" points="234.134,-44.5001 224.134,-48 234.134,-51.5001 234.134,-44.5001"/>
</g>
<!-- Node4 -->
<g id="node4" class="node"><title>Node4</title>
<g id="a_node4"><a xlink:href="classimage.html#a12343719e8d96a4bda9c5bd6c035d52a" target="_top" xlink:title="image::mergeBlockX">
<polygon fill="white" stroke="black" points="407,-76.5 407,-95.5 514,-95.5 514,-76.5 407,-76.5"/>
<text text-anchor="middle" x="460.5" y="-83.5" font-family="Helvetica,sans-Serif" font-size="10.00">image::mergeBlockX</text>
</a>
</g>
</g>
<!-- Node3&#45;&gt;Node4 -->
<g id="edge3" class="edge"><title>Node3&#45;&gt;Node4</title>
<path fill="none" stroke="midnightblue" d="M360.036,-60.1121C380.37,-65.4044 403.871,-71.5213 422.923,-76.4799"/>
<polygon fill="midnightblue" stroke="midnightblue" points="360.901,-56.7207 350.342,-57.589 359.138,-63.4951 360.901,-56.7207"/>
</g>
<!-- Node8 -->
<g id="node8" class="node"><title>Node8</title>
<g id="a_node8"><a xlink:href="classimage.html#aa21fc5a07af7528869425e750090b3b8" target="_top" xlink:title="image::mergeBlockY">
<polygon fill="white" stroke="black" points="407,-38.5 407,-57.5 514,-57.5 514,-38.5 407,-38.5"/>
<text text-anchor="middle" x="460.5" y="-45.5" font-family="Helvetica,sans-Serif" font-size="10.00">image::mergeBlockY</text>
</a>
</g>
</g>
<!-- Node3&#45;&gt;Node8 -->
<g id="edge7" class="edge"><title>Node3&#45;&gt;Node8</title>
<path fill="none" stroke="midnightblue" d="M375.631,-48C386.008,-48 396.685,-48 406.797,-48"/>
<polygon fill="midnightblue" stroke="midnightblue" points="375.385,-44.5001 365.385,-48 375.385,-51.5001 375.385,-44.5001"/>
</g>
<!-- Node10 -->
<g id="node10" class="node"><title>Node10</title>
<g id="a_node10"><a xlink:href="classimageblock.html#abcc69a8c00ad79067185c700463f8126" target="_top" xlink:title="imageblock::createBPT">
<polygon fill="white" stroke="black" points="401,-0.5 401,-19.5 520,-19.5 520,-0.5 401,-0.5"/>
<text text-anchor="middle" x="460.5" y="-7.5" font-family="Helvetica,sans-Serif" font-size="10.00">imageblock::createBPT</text>
</a>
</g>
</g>
<!-- Node3&#45;&gt;Node10 -->
<g id="edge10" class="edge"><title>Node3&#45;&gt;Node10</title>
<path fill="none" stroke="midnightblue" d="M360.036,-35.8879C380.37,-30.5956 403.871,-24.4787 422.923,-19.5201"/>
<polygon fill="midnightblue" stroke="midnightblue" points="359.138,-32.5049 350.342,-38.411 360.901,-39.2793 359.138,-32.5049"/>
</g>
<!-- Node5 -->
<g id="node5" class="node"><title>Node5</title>
<g id="a_node5"><a xlink:href="classimage.html#a83026280ad6cc713ec9489ff3bd9776e" target="_top" xlink:title="image::ProcessBoundaryX">
<polygon fill="white" stroke="black" points="725,-76.5 725,-95.5 858,-95.5 858,-76.5 725,-76.5"/>
<text text-anchor="middle" x="791.5" y="-83.5" font-family="Helvetica,sans-Serif" font-size="10.00">image::ProcessBoundaryX</text>
</a>
</g>
</g>
<!-- Node4&#45;&gt;Node5 -->
<g id="edge4" class="edge"><title>Node4&#45;&gt;Node5</title>
<path fill="none" stroke="midnightblue" d="M524.399,-86C581.829,-86 666.414,-86 724.728,-86"/>
<polygon fill="midnightblue" stroke="midnightblue" points="524.36,-82.5001 514.36,-86 524.36,-89.5001 524.36,-82.5001"/>
</g>
<!-- Node6 -->
<g id="node6" class="node"><title>Node6</title>
<g id="a_node6"><a xlink:href="classimage.html#a4689c56b85c46d48ea52f0c9fa13891e" target="_top" xlink:title="image::processing">
<polygon fill="white" stroke="black" points="894,-38.5 894,-57.5 990,-57.5 990,-38.5 894,-38.5"/>
<text text-anchor="middle" x="942" y="-45.5" font-family="Helvetica,sans-Serif" font-size="10.00">image::processing</text>
</a>
</g>
</g>
<!-- Node5&#45;&gt;Node6 -->
<g id="edge5" class="edge"><title>Node5&#45;&gt;Node6</title>
<path fill="none" stroke="midnightblue" d="M839.833,-73.8879C860.515,-68.5956 884.419,-62.4787 903.797,-57.5201"/>
<polygon fill="midnightblue" stroke="midnightblue" points="838.793,-70.5411 829.973,-76.411 840.528,-77.3226 838.793,-70.5411"/>
</g>
<!-- Node7 -->
<g id="node7" class="node"><title>Node7</title>
<g id="a_node7"><a xlink:href="class_main_window.html#a9a45eb9ebe6d27bcd23677d9fbb74dd8" target="_top" xlink:title="MainWindow::on_Go_clicked">
<polygon fill="white" stroke="black" points="1026,-38.5 1026,-57.5 1169,-57.5 1169,-38.5 1026,-38.5"/>
<text text-anchor="middle" x="1097.5" y="-45.5" font-family="Helvetica,sans-Serif" font-size="10.00">MainWindow::on_Go_clicked</text>
</a>
</g>
</g>
<!-- Node6&#45;&gt;Node7 -->
<g id="edge6" class="edge"><title>Node6&#45;&gt;Node7</title>
<path fill="none" stroke="midnightblue" d="M1000.58,-48C1008.85,-48 1017.44,-48 1025.93,-48"/>
<polygon fill="midnightblue" stroke="midnightblue" points="1000.31,-44.5001 990.308,-48 1000.31,-51.5001 1000.31,-44.5001"/>
</g>
<!-- Node9 -->
<g id="node9" class="node"><title>Node9</title>
<g id="a_node9"><a xlink:href="classimage.html#adf6b8c126649c9a40387f12b5f5f07d5" target="_top" xlink:title="image::ProcessBoundaryY">
<polygon fill="white" stroke="black" points="556,-38.5 556,-57.5 689,-57.5 689,-38.5 556,-38.5"/>
<text text-anchor="middle" x="622.5" y="-45.5" font-family="Helvetica,sans-Serif" font-size="10.00">image::ProcessBoundaryY</text>
</a>
</g>
</g>
<!-- Node8&#45;&gt;Node9 -->
<g id="edge8" class="edge"><title>Node8&#45;&gt;Node9</title>
<path fill="none" stroke="midnightblue" d="M524.486,-48C534.798,-48 545.505,-48 555.879,-48"/>
<polygon fill="midnightblue" stroke="midnightblue" points="524.333,-44.5001 514.333,-48 524.333,-51.5001 524.333,-44.5001"/>
</g>
<!-- Node9&#45;&gt;Node6 -->
<g id="edge9" class="edge"><title>Node9&#45;&gt;Node6</title>
<path fill="none" stroke="midnightblue" d="M699.542,-48C759.982,-48 842.613,-48 893.853,-48"/>
<polygon fill="midnightblue" stroke="midnightblue" points="699.286,-44.5001 689.286,-48 699.286,-51.5001 699.286,-44.5001"/>
</g>
<!-- Node11 -->
<g id="node11" class="node"><title>Node11</title>
<g id="a_node11"><a xlink:href="classimageblock.html#af3b91e3daaa8014af1239f60da6b0bf5" target="_top" xlink:title="imageblock::processing">
<polygon fill="white" stroke="black" points="563,-0.5 563,-19.5 682,-19.5 682,-0.5 563,-0.5"/>
<text text-anchor="middle" x="622.5" y="-7.5" font-family="Helvetica,sans-Serif" font-size="10.00">imageblock::processing</text>
</a>
</g>
</g>
<!-- Node10&#45;&gt;Node11 -->
<g id="edge11" class="edge"><title>Node10&#45;&gt;Node11</title>
<path fill="none" stroke="midnightblue" d="M530.415,-10C541.217,-10 552.294,-10 562.838,-10"/>
<polygon fill="midnightblue" stroke="midnightblue" points="530.17,-6.5001 520.17,-10 530.17,-13.5001 530.17,-6.5001"/>
</g>
<!-- Node12 -->
<g id="node12" class="node"><title>Node12</title>
<g id="a_node12"><a xlink:href="classimage.html#ad5a9d767eca6f9bbb8dcb556527edf4d" target="_top" xlink:title="image::ProcessTiles">
<polygon fill="white" stroke="black" points="738.5,-0.5 738.5,-19.5 844.5,-19.5 844.5,-0.5 738.5,-0.5"/>
<text text-anchor="middle" x="791.5" y="-7.5" font-family="Helvetica,sans-Serif" font-size="10.00">image::ProcessTiles</text>
</a>
</g>
</g>
<!-- Node11&#45;&gt;Node12 -->
<g id="edge12" class="edge"><title>Node11&#45;&gt;Node12</title>
<path fill="none" stroke="midnightblue" d="M692.781,-10C707.994,-10 723.857,-10 738.267,-10"/>
<polygon fill="midnightblue" stroke="midnightblue" points="692.378,-6.5001 682.378,-10 692.378,-13.5001 692.378,-6.5001"/>
</g>
<!-- Node12&#45;&gt;Node6 -->
<g id="edge13" class="edge"><title>Node12&#45;&gt;Node6</title>
<path fill="none" stroke="midnightblue" d="M839.833,-22.1121C860.515,-27.4044 884.419,-33.5213 903.797,-38.4799"/>
<polygon fill="midnightblue" stroke="midnightblue" points="840.528,-18.6774 829.973,-19.589 838.793,-25.4589 840.528,-18.6774"/>
</g>
</g>
</svg>
