<?xml version="1.0" encoding="UTF-8" standalone="no"?>
<!DOCTYPE svg PUBLIC "-//W3C//DTD SVG 1.1//EN"
 "http://www.w3.org/Graphics/SVG/1.1/DTD/svg11.dtd">
<!-- Generated by graphviz version 2.38.0 (20140413.2041)
 -->
<!-- Title: io::writeBoarderNodeToCSV Pages: 1 -->
<svg width="500pt" height="294pt"
 viewBox="0.00 0.00 500.00 294.00" xmlns="http://www.w3.org/2000/svg" xmlns:xlink="http://www.w3.org/1999/xlink">
<g id="graph0" class="graph" transform="scale(1 1) rotate(0) translate(4 290)">
<title>io::writeBoarderNodeToCSV</title>
<polygon fill="white" stroke="none" points="-4,4 -4,-290 496,-290 496,4 -4,4"/>
<!-- Node46 -->
<g id="node1" class="node"><title>Node46</title>
<polygon fill="#bfbfbf" stroke="black" points="0,-133.5 0,-152.5 140,-152.5 140,-133.5 0,-133.5"/>
<text text-anchor="middle" x="70" y="-140.5" font-family="Helvetica,sans-Serif" font-size="10.00">io::writeBoarderNodeToCSV</text>
</g>
<!-- Node47 -->
<g id="node2" class="node"><title>Node47</title>
<g id="a_node2"><a xlink:href="class_node.html#a2784134529ab6341bf028b0d40660870" target="_top" xlink:title="Node::getBoarderIndexX">
<polygon fill="white" stroke="black" points="176.5,-266.5 176.5,-285.5 300.5,-285.5 300.5,-266.5 176.5,-266.5"/>
<text text-anchor="middle" x="238.5" y="-273.5" font-family="Helvetica,sans-Serif" font-size="10.00">Node::getBoarderIndexX</text>
</a>
</g>
</g>
<!-- Node46&#45;&gt;Node47 -->
<g id="edge1" class="edge"><title>Node46&#45;&gt;Node47</title>
<path fill="none" stroke="midnightblue" d="M77.1241,-152.527C91.6189,-174.318 130.265,-228.131 176,-257 179.307,-259.088 182.86,-260.96 186.529,-262.636"/>
<polygon fill="midnightblue" stroke="midnightblue" points="185.233,-265.887 195.815,-266.411 187.869,-259.403 185.233,-265.887"/>
</g>
<!-- Node48 -->
<g id="node3" class="node"><title>Node48</title>
<g id="a_node3"><a xlink:href="class_node.html#a44362e2817f8eb2fd21b78f39797c48c" target="_top" xlink:title="Node::getBoarderIndexY">
<polygon fill="white" stroke="black" points="176.5,-228.5 176.5,-247.5 300.5,-247.5 300.5,-228.5 176.5,-228.5"/>
<text text-anchor="middle" x="238.5" y="-235.5" font-family="Helvetica,sans-Serif" font-size="10.00">Node::getBoarderIndexY</text>
</a>
</g>
</g>
<!-- Node46&#45;&gt;Node48 -->
<g id="edge2" class="edge"><title>Node46&#45;&gt;Node48</title>
<path fill="none" stroke="midnightblue" d="M81.8589,-152.746C100.092,-168.655 138.552,-200.303 176,-219 180.393,-221.193 185.089,-223.193 189.856,-225.002"/>
<polygon fill="midnightblue" stroke="midnightblue" points="189.069,-228.435 199.664,-228.446 191.388,-221.831 189.069,-228.435"/>
</g>
<!-- Node49 -->
<g id="node4" class="node"><title>Node49</title>
<g id="a_node4"><a xlink:href="class_node.html#a498a3ea76df240287b5a91aeaec2be95" target="_top" xlink:title="Node::getLeftChild">
<polygon fill="white" stroke="black" points="189.5,-190.5 189.5,-209.5 287.5,-209.5 287.5,-190.5 189.5,-190.5"/>
<text text-anchor="middle" x="238.5" y="-197.5" font-family="Helvetica,sans-Serif" font-size="10.00">Node::getLeftChild</text>
</a>
</g>
</g>
<!-- Node46&#45;&gt;Node49 -->
<g id="edge3" class="edge"><title>Node46&#45;&gt;Node49</title>
<path fill="none" stroke="midnightblue" d="M96.3423,-152.555C117.536,-160.453 148.612,-171.819 176,-181 182.407,-183.148 189.219,-185.341 195.886,-187.438"/>
<polygon fill="midnightblue" stroke="midnightblue" points="194.899,-190.797 205.488,-190.426 196.979,-184.113 194.899,-190.797"/>
</g>
<!-- Node50 -->
<g id="node5" class="node"><title>Node50</title>
<g id="a_node5"><a xlink:href="class_node.html#a5560fab35ef65b0bf137c7c70c3b8e4d" target="_top" xlink:title="Node::getMeanSpectrum">
<polygon fill="white" stroke="black" points="176,-152.5 176,-171.5 301,-171.5 301,-152.5 176,-152.5"/>
<text text-anchor="middle" x="238.5" y="-159.5" font-family="Helvetica,sans-Serif" font-size="10.00">Node::getMeanSpectrum</text>
</a>
</g>
</g>
<!-- Node46&#45;&gt;Node50 -->
<g id="edge4" class="edge"><title>Node46&#45;&gt;Node50</title>
<path fill="none" stroke="midnightblue" d="M140.165,-150.893C148.706,-151.867 157.45,-152.865 166.025,-153.844"/>
<polygon fill="midnightblue" stroke="midnightblue" points="165.658,-157.324 175.99,-154.981 166.452,-150.37 165.658,-157.324"/>
</g>
<!-- Node52 -->
<g id="node7" class="node"><title>Node52</title>
<g id="a_node7"><a xlink:href="class_node.html#aa3512938403662345b64049920d1cdaf" target="_top" xlink:title="Node::getPosition">
<polygon fill="white" stroke="black" points="191,-114.5 191,-133.5 286,-133.5 286,-114.5 191,-114.5"/>
<text text-anchor="middle" x="238.5" y="-121.5" font-family="Helvetica,sans-Serif" font-size="10.00">Node::getPosition</text>
</a>
</g>
</g>
<!-- Node46&#45;&gt;Node52 -->
<g id="edge6" class="edge"><title>Node46&#45;&gt;Node52</title>
<path fill="none" stroke="midnightblue" d="M140.165,-135.107C153.56,-133.579 167.456,-131.993 180.411,-130.515"/>
<polygon fill="midnightblue" stroke="midnightblue" points="181.033,-133.966 190.572,-129.355 180.239,-127.012 181.033,-133.966"/>
</g>
<!-- Node53 -->
<g id="node8" class="node"><title>Node53</title>
<g id="a_node8"><a xlink:href="class_node.html#a6b9517162b03a8f98df4bc63890ca092" target="_top" xlink:title="Node::getProbability">
<polygon fill="white" stroke="black" points="186,-76.5 186,-95.5 291,-95.5 291,-76.5 186,-76.5"/>
<text text-anchor="middle" x="238.5" y="-83.5" font-family="Helvetica,sans-Serif" font-size="10.00">Node::getProbability</text>
</a>
</g>
</g>
<!-- Node46&#45;&gt;Node53 -->
<g id="edge7" class="edge"><title>Node46&#45;&gt;Node53</title>
<path fill="none" stroke="midnightblue" d="M96.3423,-133.445C117.536,-125.547 148.612,-114.181 176,-105 182.407,-102.852 189.219,-100.659 195.886,-98.5618"/>
<polygon fill="midnightblue" stroke="midnightblue" points="196.979,-101.887 205.488,-95.574 194.899,-95.2033 196.979,-101.887"/>
</g>
<!-- Node55 -->
<g id="node10" class="node"><title>Node55</title>
<g id="a_node10"><a xlink:href="class_node.html#a531a8178f01a328bec4c4e8a3b93b67f" target="_top" xlink:title="Node::getRightChild">
<polygon fill="white" stroke="black" points="186,-38.5 186,-57.5 291,-57.5 291,-38.5 186,-38.5"/>
<text text-anchor="middle" x="238.5" y="-45.5" font-family="Helvetica,sans-Serif" font-size="10.00">Node::getRightChild</text>
</a>
</g>
</g>
<!-- Node46&#45;&gt;Node55 -->
<g id="edge9" class="edge"><title>Node46&#45;&gt;Node55</title>
<path fill="none" stroke="midnightblue" d="M81.8589,-133.254C100.092,-117.345 138.552,-85.6975 176,-67 180.393,-64.8066 185.089,-62.8065 189.856,-60.9979"/>
<polygon fill="midnightblue" stroke="midnightblue" points="191.388,-64.1694 199.664,-57.5538 189.069,-57.5648 191.388,-64.1694"/>
</g>
<!-- Node56 -->
<g id="node11" class="node"><title>Node56</title>
<g id="a_node11"><a xlink:href="class_node.html#a3a61dca67d5ad06cacb8c48eb6374973" target="_top" xlink:title="Node::isLeaf">
<polygon fill="white" stroke="black" points="202.5,-0.5 202.5,-19.5 274.5,-19.5 274.5,-0.5 202.5,-0.5"/>
<text text-anchor="middle" x="238.5" y="-7.5" font-family="Helvetica,sans-Serif" font-size="10.00">Node::isLeaf</text>
</a>
</g>
</g>
<!-- Node46&#45;&gt;Node56 -->
<g id="edge10" class="edge"><title>Node46&#45;&gt;Node56</title>
<path fill="none" stroke="midnightblue" d="M77.1241,-133.473C91.6189,-111.682 130.265,-57.8686 176,-29 181.085,-25.7901 186.75,-23.0902 192.526,-20.8276"/>
<polygon fill="midnightblue" stroke="midnightblue" points="193.985,-24.0252 202.269,-17.42 191.674,-17.4177 193.985,-24.0252"/>
</g>
<!-- Node51 -->
<g id="node6" class="node"><title>Node51</title>
<g id="a_node6"><a xlink:href="classregion_model.html#a09d4bdb8401b2de0d2dd41d2561bca30" target="_top" xlink:title="regionModel::getMeanSpectrum">
<polygon fill="white" stroke="black" points="337,-152.5 337,-171.5 492,-171.5 492,-152.5 337,-152.5"/>
<text text-anchor="middle" x="414.5" y="-159.5" font-family="Helvetica,sans-Serif" font-size="10.00">regionModel::getMeanSpectrum</text>
</a>
</g>
</g>
<!-- Node50&#45;&gt;Node51 -->
<g id="edge5" class="edge"><title>Node50&#45;&gt;Node51</title>
<path fill="none" stroke="midnightblue" d="M301.336,-162C309.62,-162 318.238,-162 326.851,-162"/>
<polygon fill="midnightblue" stroke="midnightblue" points="326.94,-165.5 336.94,-162 326.94,-158.5 326.94,-165.5"/>
</g>
<!-- Node54 -->
<g id="node9" class="node"><title>Node54</title>
<g id="a_node9"><a xlink:href="classregion_model.html#a8a4064b3ef23992b52371b7a5ef7df1c" target="_top" xlink:title="regionModel::getProbability">
<polygon fill="white" stroke="black" points="347.5,-76.5 347.5,-95.5 481.5,-95.5 481.5,-76.5 347.5,-76.5"/>
<text text-anchor="middle" x="414.5" y="-83.5" font-family="Helvetica,sans-Serif" font-size="10.00">regionModel::getProbability</text>
</a>
</g>
</g>
<!-- Node53&#45;&gt;Node54 -->
<g id="edge8" class="edge"><title>Node53&#45;&gt;Node54</title>
<path fill="none" stroke="midnightblue" d="M291.235,-86C305.698,-86 321.726,-86 337.287,-86"/>
<polygon fill="midnightblue" stroke="midnightblue" points="337.423,-89.5001 347.423,-86 337.423,-82.5001 337.423,-89.5001"/>
</g>
</g>
</svg>
