<?xml version="1.0" encoding="UTF-8" standalone="no"?>
<!DOCTYPE svg PUBLIC "-//W3C//DTD SVG 1.1//EN"
 "http://www.w3.org/Graphics/SVG/1.1/DTD/svg11.dtd">
<!-- Generated by graphviz version 2.38.0 (20140413.2041)
 -->
<!-- Title: histogramModel::setMeanSpectrumAt Pages: 1 -->
<svg width="501pt" height="28pt"
 viewBox="0.00 0.00 501.00 28.00" xmlns="http://www.w3.org/2000/svg" xmlns:xlink="http://www.w3.org/1999/xlink">
<g id="graph0" class="graph" transform="scale(1 1) rotate(0) translate(4 24)">
<title>histogramModel::setMeanSpectrumAt</title>
<polygon fill="white" stroke="none" points="-4,4 -4,-24 497,-24 497,4 -4,4"/>
<!-- Node94 -->
<g id="node1" class="node"><title>Node94</title>
<polygon fill="#bfbfbf" stroke="black" points="0,-0.5 0,-19.5 181,-19.5 181,-0.5 0,-0.5"/>
<text text-anchor="middle" x="90.5" y="-7.5" font-family="Helvetica,sans-Serif" font-size="10.00">histogramModel::setMeanSpectrumAt</text>
</g>
<!-- Node95 -->
<g id="node2" class="node"><title>Node95</title>
<g id="a_node2"><a xlink:href="classhistogram_model.html#a2a84442dd0292f62b6ef0b35ea033790" target="_top" xlink:title="histogramModel::merge">
<polygon fill="white" stroke="black" points="217,-0.5 217,-19.5 336,-19.5 336,-0.5 217,-0.5"/>
<text text-anchor="middle" x="276.5" y="-7.5" font-family="Helvetica,sans-Serif" font-size="10.00">histogramModel::merge</text>
</a>
</g>
</g>
<!-- Node94&#45;&gt;Node95 -->
<g id="edge1" class="edge"><title>Node94&#45;&gt;Node95</title>
<path fill="none" stroke="midnightblue" d="M191.325,-10C200.036,-10 208.654,-10 216.861,-10"/>
<polygon fill="midnightblue" stroke="midnightblue" points="191.075,-6.5001 181.074,-10 191.074,-13.5001 191.075,-6.5001"/>
</g>
<!-- Node96 -->
<g id="node3" class="node"><title>Node96</title>
<g id="a_node3"><a xlink:href="classcompound_model.html#a3a4f1be5ccd6230918036dcc56328033" target="_top" xlink:title="compoundModel::merge">
<polygon fill="white" stroke="black" points="372,-0.5 372,-19.5 493,-19.5 493,-0.5 372,-0.5"/>
<text text-anchor="middle" x="432.5" y="-7.5" font-family="Helvetica,sans-Serif" font-size="10.00">compoundModel::merge</text>
</a>
</g>
</g>
<!-- Node95&#45;&gt;Node96 -->
<g id="edge2" class="edge"><title>Node95&#45;&gt;Node96</title>
<path fill="none" stroke="midnightblue" d="M346.174,-10C354.782,-10 363.53,-10 371.982,-10"/>
<polygon fill="midnightblue" stroke="midnightblue" points="346.16,-6.5001 336.16,-10 346.16,-13.5001 346.16,-6.5001"/>
</g>
</g>
</svg>
