<?xml version="1.0" encoding="UTF-8" standalone="no"?>
<!DOCTYPE svg PUBLIC "-//W3C//DTD SVG 1.1//EN"
 "http://www.w3.org/Graphics/SVG/1.1/DTD/svg11.dtd">
<!-- Generated by graphviz version 2.38.0 (20140413.2041)
 -->
<!-- Title: EdgeHeap::heapifyUp Pages: 1 -->
<!--zoomable 180 -->
<svg id="main" version="1.1" xmlns="http://www.w3.org/2000/svg" xmlns:xlink="http://www.w3.org/1999/xlink" xml:space="preserve" onload="init(evt)">
<style type="text/css"><![CDATA[
.edge:hover path { stroke: red; }
.edge:hover polygon { stroke: red; fill: red; }
]]></style>
<script type="text/javascript"><![CDATA[
var edges = document.getElementsByTagName('g');
if (edges && edges.length) {
  for (var i=0;i<edges.length;i++) {
    if (edges[i].id.substr(0,4)=='edge') {
      edges[i].setAttribute('class','edge');
    }
  }
}
]]></script>
        <defs>
                <circle id="rim" cx="0" cy="0" r="7"/>
                <circle id="rim2" cx="0" cy="0" r="3.5"/>
                <g id="zoomPlus">
                        <use xlink:href="#rim" fill="#404040">
                                <set attributeName="fill" to="#808080" begin="zoomplus.mouseover" end="zoomplus.mouseout"/>
                        </use>
                        <path d="M-4,0h8M0,-4v8" fill="none" stroke="white" stroke-width="1.5" pointer-events="none"/>
                </g>
                <g id="zoomMin">
                        <use xlink:href="#rim" fill="#404040">
                                <set attributeName="fill" to="#808080" begin="zoomminus.mouseover" end="zoomminus.mouseout"/>
                        </use>
                        <path d="M-4,0h8" fill="none" stroke="white" stroke-width="1.5" pointer-events="none"/>
                </g>
                <g id="dirArrow">
                        <path fill="none" stroke="white" stroke-width="1.5" d="M0,-3.0v7 M-2.5,-0.5L0,-3.0L2.5,-0.5"/>
                </g>
               <g id="resetDef">
                       <use xlink:href="#rim2" fill="#404040">
                               <set attributeName="fill" to="#808080" begin="reset.mouseover" end="reset.mouseout"/>
                       </use>
               </g>
        </defs>

<script type="text/javascript">
var viewWidth = 573;
var viewHeight = 180;
var sectionId = 'dynsection-7';
</script>
<script xlink:href="svgpan.js"/>
<svg id="graph" class="graph">
<g id="viewport">
<title>EdgeHeap::heapifyUp</title>
<polygon fill="white" stroke="none" points="-4,4 -4,-176 569,-176 569,4 -4,4"/>
<!-- Node95 -->
<g id="node1" class="node"><title>Node95</title>
<polygon fill="#bfbfbf" stroke="black" points="0,-76.5 0,-95.5 113,-95.5 113,-76.5 0,-76.5"/>
<text text-anchor="middle" x="56.5" y="-83.5" font-family="Helvetica,sans-Serif" font-size="10.00">EdgeHeap::heapifyUp</text>
</g>
<!-- Node96 -->
<g id="node2" class="node"><title>Node96</title>
<g id="a_node2"><a xlink:href="class_edge_heap.html#add248e35c4c2443246ff6c7cd654ae9f" target="_top" xlink:title="EdgeHeap::edgeComparator">
<polygon fill="white" stroke="black" points="149,-76.5 149,-95.5 289,-95.5 289,-76.5 149,-76.5"/>
<text text-anchor="middle" x="219" y="-83.5" font-family="Helvetica,sans-Serif" font-size="10.00">EdgeHeap::edgeComparator</text>
</a>
</g>
</g>
<!-- Node95&#45;&gt;Node96 -->
<g id="edge1" class="edge"><title>Node95&#45;&gt;Node96</title>
<path fill="none" stroke="midnightblue" d="M113.185,-86C121.449,-86 130.098,-86 138.733,-86"/>
<polygon fill="midnightblue" stroke="midnightblue" points="138.837,-89.5001 148.837,-86 138.837,-82.5001 138.837,-89.5001"/>
</g>
<!-- Node97 -->
<g id="node3" class="node"><title>Node97</title>
<g id="a_node3"><a xlink:href="class_node.html#a13467fc326459c1d607547b3e9470710" target="_top" xlink:title="Node::getArea">
<polygon fill="white" stroke="black" points="332.5,-152.5 332.5,-171.5 412.5,-171.5 412.5,-152.5 332.5,-152.5"/>
<text text-anchor="middle" x="372.5" y="-159.5" font-family="Helvetica,sans-Serif" font-size="10.00">Node::getArea</text>
</a>
</g>
</g>
<!-- Node96&#45;&gt;Node97 -->
<g id="edge2" class="edge"><title>Node96&#45;&gt;Node97</title>
<path fill="none" stroke="midnightblue" d="M236.44,-95.6545C256.867,-107.479 292.949,-127.808 325,-143 328.901,-144.849 333.032,-146.693 337.158,-148.466"/>
<polygon fill="midnightblue" stroke="midnightblue" points="336.09,-151.812 346.666,-152.439 338.789,-145.354 336.09,-151.812"/>
</g>
<!-- Node99 -->
<g id="node5" class="node"><title>Node99</title>
<g id="a_node5"><a xlink:href="class_edge.html#aaaa9cb49c141b310873cd75fd493e22d" target="_top" xlink:title="Edge::getNode1">
<polygon fill="white" stroke="black" points="329,-114.5 329,-133.5 416,-133.5 416,-114.5 329,-114.5"/>
<text text-anchor="middle" x="372.5" y="-121.5" font-family="Helvetica,sans-Serif" font-size="10.00">Edge::getNode1</text>
</a>
</g>
</g>
<!-- Node96&#45;&gt;Node99 -->
<g id="edge4" class="edge"><title>Node96&#45;&gt;Node99</title>
<path fill="none" stroke="midnightblue" d="M258.23,-95.589C278.132,-100.581 302.657,-106.732 323.791,-112.033"/>
<polygon fill="midnightblue" stroke="midnightblue" points="322.994,-115.442 333.545,-114.48 324.697,-108.652 322.994,-115.442"/>
</g>
<!-- Node100 -->
<g id="node6" class="node"><title>Node100</title>
<g id="a_node6"><a xlink:href="class_edge.html#a50017668f77ed019a5caceafbb1eb16f" target="_top" xlink:title="Edge::getNode2">
<polygon fill="white" stroke="black" points="329,-76.5 329,-95.5 416,-95.5 416,-76.5 329,-76.5"/>
<text text-anchor="middle" x="372.5" y="-83.5" font-family="Helvetica,sans-Serif" font-size="10.00">Edge::getNode2</text>
</a>
</g>
</g>
<!-- Node96&#45;&gt;Node100 -->
<g id="edge5" class="edge"><title>Node96&#45;&gt;Node100</title>
<path fill="none" stroke="midnightblue" d="M289.1,-86C299.072,-86 309.199,-86 318.782,-86"/>
<polygon fill="midnightblue" stroke="midnightblue" points="318.935,-89.5001 328.935,-86 318.935,-82.5001 318.935,-89.5001"/>
</g>
<!-- Node101 -->
<g id="node7" class="node"><title>Node101</title>
<g id="a_node7"><a xlink:href="class_node.html#aa3512938403662345b64049920d1cdaf" target="_top" xlink:title="Node::getPosition">
<polygon fill="white" stroke="black" points="325,-38.5 325,-57.5 420,-57.5 420,-38.5 325,-38.5"/>
<text text-anchor="middle" x="372.5" y="-45.5" font-family="Helvetica,sans-Serif" font-size="10.00">Node::getPosition</text>
</a>
</g>
</g>
<!-- Node96&#45;&gt;Node101 -->
<g id="edge6" class="edge"><title>Node96&#45;&gt;Node101</title>
<path fill="none" stroke="midnightblue" d="M258.23,-76.411C278.132,-71.4191 302.657,-65.2676 323.791,-59.9666"/>
<polygon fill="midnightblue" stroke="midnightblue" points="324.697,-63.3479 333.545,-57.5201 322.994,-56.5582 324.697,-63.3479"/>
</g>
<!-- Node102 -->
<g id="node8" class="node"><title>Node102</title>
<g id="a_node8"><a xlink:href="class_edge.html#a3a776c1ccafacdbdb10fdedd9cb329af" target="_top" xlink:title="Edge::getWeight">
<polygon fill="white" stroke="black" points="328,-0.5 328,-19.5 417,-19.5 417,-0.5 328,-0.5"/>
<text text-anchor="middle" x="372.5" y="-7.5" font-family="Helvetica,sans-Serif" font-size="10.00">Edge::getWeight</text>
</a>
</g>
</g>
<!-- Node96&#45;&gt;Node102 -->
<g id="edge7" class="edge"><title>Node96&#45;&gt;Node102</title>
<path fill="none" stroke="midnightblue" d="M236.44,-76.3455C256.867,-64.5206 292.949,-44.1916 325,-29 328.901,-27.1511 333.032,-25.3068 337.158,-23.5345"/>
<polygon fill="midnightblue" stroke="midnightblue" points="338.789,-26.6464 346.666,-19.5614 336.09,-20.1875 338.789,-26.6464"/>
</g>
<!-- Node98 -->
<g id="node4" class="node"><title>Node98</title>
<g id="a_node4"><a xlink:href="classregion_model.html#a56b1a22f355e85211760055c7559cd1e" target="_top" xlink:title="regionModel::getArea">
<polygon fill="white" stroke="black" points="456,-152.5 456,-171.5 565,-171.5 565,-152.5 456,-152.5"/>
<text text-anchor="middle" x="510.5" y="-159.5" font-family="Helvetica,sans-Serif" font-size="10.00">regionModel::getArea</text>
</a>
</g>
</g>
<!-- Node97&#45;&gt;Node98 -->
<g id="edge3" class="edge"><title>Node97&#45;&gt;Node98</title>
<path fill="none" stroke="midnightblue" d="M412.837,-162C423.108,-162 434.446,-162 445.635,-162"/>
<polygon fill="midnightblue" stroke="midnightblue" points="445.833,-165.5 455.833,-162 445.833,-158.5 445.833,-165.5"/>
</g>
</g>
</svg>
        <g id="navigator" transform="translate(0 0)" fill="#404254">
                <rect fill="#f2f5e9" fill-opacity="0.5" stroke="#606060" stroke-width=".5" x="0" y="0" width="60" height="60"/>
                <use id="zoomplus" xlink:href="#zoomPlus" x="17" y="9" onmousedown="handleZoom(evt,'in')"/>
                <use id="zoomminus" xlink:href="#zoomMin" x="42" y="9" onmousedown="handleZoom(evt,'out')"/>
                <use id="reset" xlink:href="#resetDef" x="30" y="36" onmousedown="handleReset()"/>
                <g id="arrowUp" xlink:href="#dirArrow" transform="translate(30 24)" onmousedown="handlePan(0,-1)">
                  <use xlink:href="#rim" fill="#404040">
                        <set attributeName="fill" to="#808080" begin="arrowUp.mouseover" end="arrowUp.mouseout"/>
                  </use>
                  <path fill="none" stroke="white" stroke-width="1.5" d="M0,-3.0v7 M-2.5,-0.5L0,-3.0L2.5,-0.5"/>
                </g>
                <g id="arrowRight" xlink:href="#dirArrow" transform="rotate(90) translate(36 -43)" onmousedown="handlePan(1,0)">
                  <use xlink:href="#rim" fill="#404040">
                        <set attributeName="fill" to="#808080" begin="arrowRight.mouseover" end="arrowRight.mouseout"/>
                  </use>
                  <path fill="none" stroke="white" stroke-width="1.5" d="M0,-3.0v7 M-2.5,-0.5L0,-3.0L2.5,-0.5"/>
                </g>
                <g id="arrowDown" xlink:href="#dirArrow" transform="rotate(180) translate(-30 -48)" onmousedown="handlePan(0,1)">
                  <use xlink:href="#rim" fill="#404040">
                        <set attributeName="fill" to="#808080" begin="arrowDown.mouseover" end="arrowDown.mouseout"/>
                  </use>
                  <path fill="none" stroke="white" stroke-width="1.5" d="M0,-3.0v7 M-2.5,-0.5L0,-3.0L2.5,-0.5"/>
                </g>
                <g id="arrowLeft" xlink:href="#dirArrow" transform="rotate(270) translate(-36 17)" onmousedown="handlePan(-1,0)">
                  <use xlink:href="#rim" fill="#404040">
                        <set attributeName="fill" to="#808080" begin="arrowLeft.mouseover" end="arrowLeft.mouseout"/>
                  </use>
                  <path fill="none" stroke="white" stroke-width="1.5" d="M0,-3.0v7 M-2.5,-0.5L0,-3.0L2.5,-0.5"/>
                </g>
        </g>
        <svg viewBox="0 0 15 15" width="100%" height="30px" preserveAspectRatio="xMaxYMin meet">
         <g id="arrow_out" transform="scale(0.3 0.3)">
          <a xlink:href="class_edge_heap_afc03f4943c606b1d2617654cfaeeabb6_cgraph_org.svg" target="_base">
           <rect id="button" ry="5" rx="5" y="6" x="6" height="38" width="38"
                fill="#f2f5e9" fill-opacity="0.5" stroke="#606060" stroke-width="1.0"/>
           <path id="arrow"
             d="M 11.500037,31.436501 C 11.940474,20.09759 22.043105,11.32322 32.158766,21.979434 L 37.068811,17.246167 C 37.068811,17.246167 37.088388,32 37.088388,32 L 22.160133,31.978069 C 22.160133,31.978069 26.997745,27.140456 26.997745,27.140456 C 18.528582,18.264221 13.291696,25.230495 11.500037,31.436501 z"
             style="fill:#404040;"/>
          </a>
         </g>
        </svg>
</svg>
