<?xml version="1.0" encoding="UTF-8" standalone="no"?>
<!DOCTYPE svg PUBLIC "-//W3C//DTD SVG 1.1//EN"
 "http://www.w3.org/Graphics/SVG/1.1/DTD/svg11.dtd">
<!-- Generated by graphviz version 2.38.0 (20140413.2041)
 -->
<!-- Title: image::saveToDisk Pages: 1 -->
<!--zoomable 294 -->
<svg id="main" version="1.1" xmlns="http://www.w3.org/2000/svg" xmlns:xlink="http://www.w3.org/1999/xlink" xml:space="preserve" onload="init(evt)">
<style type="text/css"><![CDATA[
.edge:hover path { stroke: red; }
.edge:hover polygon { stroke: red; fill: red; }
]]></style>
<script type="text/javascript"><![CDATA[
var edges = document.getElementsByTagName('g');
if (edges && edges.length) {
  for (var i=0;i<edges.length;i++) {
    if (edges[i].id.substr(0,4)=='edge') {
      edges[i].setAttribute('class','edge');
    }
  }
}
]]></script>
        <defs>
                <circle id="rim" cx="0" cy="0" r="7"/>
                <circle id="rim2" cx="0" cy="0" r="3.5"/>
                <g id="zoomPlus">
                        <use xlink:href="#rim" fill="#404040">
                                <set attributeName="fill" to="#808080" begin="zoomplus.mouseover" end="zoomplus.mouseout"/>
                        </use>
                        <path d="M-4,0h8M0,-4v8" fill="none" stroke="white" stroke-width="1.5" pointer-events="none"/>
                </g>
                <g id="zoomMin">
                        <use xlink:href="#rim" fill="#404040">
                                <set attributeName="fill" to="#808080" begin="zoomminus.mouseover" end="zoomminus.mouseout"/>
                        </use>
                        <path d="M-4,0h8" fill="none" stroke="white" stroke-width="1.5" pointer-events="none"/>
                </g>
                <g id="dirArrow">
                        <path fill="none" stroke="white" stroke-width="1.5" d="M0,-3.0v7 M-2.5,-0.5L0,-3.0L2.5,-0.5"/>
                </g>
               <g id="resetDef">
                       <use xlink:href="#rim2" fill="#404040">
                               <set attributeName="fill" to="#808080" begin="reset.mouseover" end="reset.mouseout"/>
                       </use>
               </g>
        </defs>

<script type="text/javascript">
var viewWidth = 637;
var viewHeight = 294;
var sectionId = 'dynsection-22';
</script>
<script xlink:href="svgpan.js"/>
<svg id="graph" class="graph">
<g id="viewport">
<title>image::saveToDisk</title>
<polygon fill="white" stroke="none" points="-4,4 -4,-290 633,-290 633,4 -4,4"/>
<!-- Node1 -->
<g id="node1" class="node"><title>Node1</title>
<polygon fill="#bfbfbf" stroke="black" points="0,-190.5 0,-209.5 101,-209.5 101,-190.5 0,-190.5"/>
<text text-anchor="middle" x="50.5" y="-197.5" font-family="Helvetica,sans-Serif" font-size="10.00">image::saveToDisk</text>
</g>
<!-- Node2 -->
<g id="node2" class="node"><title>Node2</title>
<g id="a_node2"><a xlink:href="classio.html#a4cca3fdf98e917cac1b3e776c7634aec" target="_top" xlink:title="io::writeBoarderNodeToCSV">
<polygon fill="white" stroke="black" points="137,-133.5 137,-152.5 277,-152.5 277,-133.5 137,-133.5"/>
<text text-anchor="middle" x="207" y="-140.5" font-family="Helvetica,sans-Serif" font-size="10.00">io::writeBoarderNodeToCSV</text>
</a>
</g>
</g>
<!-- Node1&#45;&gt;Node2 -->
<g id="edge1" class="edge"><title>Node1&#45;&gt;Node2</title>
<path fill="none" stroke="midnightblue" d="M70.8567,-190.398C87.9685,-182.152 113.752,-170.315 137,-162 143.524,-159.667 150.48,-157.448 157.37,-155.406"/>
<polygon fill="midnightblue" stroke="midnightblue" points="158.71,-158.663 167.36,-152.545 156.783,-151.933 158.71,-158.663"/>
</g>
<!-- Node13 -->
<g id="node13" class="node"><title>Node13</title>
<g id="a_node13"><a xlink:href="classio.html#a72962f4d8ddc9b57256730b089be4288" target="_top" xlink:title="io::writeClassMap">
<polygon fill="white" stroke="black" points="159.5,-247.5 159.5,-266.5 254.5,-266.5 254.5,-247.5 159.5,-247.5"/>
<text text-anchor="middle" x="207" y="-254.5" font-family="Helvetica,sans-Serif" font-size="10.00">io::writeClassMap</text>
</a>
</g>
</g>
<!-- Node1&#45;&gt;Node13 -->
<g id="edge12" class="edge"><title>Node1&#45;&gt;Node13</title>
<path fill="none" stroke="midnightblue" d="M70.8567,-209.602C87.9685,-217.848 113.752,-229.685 137,-238 143.524,-240.333 150.48,-242.552 157.37,-244.594"/>
<polygon fill="midnightblue" stroke="midnightblue" points="156.783,-248.067 167.36,-247.455 158.71,-241.337 156.783,-248.067"/>
</g>
<!-- Node14 -->
<g id="node14" class="node"><title>Node14</title>
<g id="a_node14"><a xlink:href="classio.html#a8aa97cb094b71a1583ef796b8200fbdb" target="_top" xlink:title="io::writeNodeToCSV">
<polygon fill="white" stroke="black" points="153.5,-209.5 153.5,-228.5 260.5,-228.5 260.5,-209.5 153.5,-209.5"/>
<text text-anchor="middle" x="207" y="-216.5" font-family="Helvetica,sans-Serif" font-size="10.00">io::writeNodeToCSV</text>
</a>
</g>
</g>
<!-- Node1&#45;&gt;Node14 -->
<g id="edge17" class="edge"><title>Node1&#45;&gt;Node14</title>
<path fill="none" stroke="midnightblue" d="M101.235,-206.116C114.651,-207.766 129.341,-209.573 143.364,-211.297"/>
<polygon fill="midnightblue" stroke="midnightblue" points="143.076,-214.788 153.429,-212.535 143.931,-207.84 143.076,-214.788"/>
</g>
<!-- Node15 -->
<g id="node15" class="node"><title>Node15</title>
<g id="a_node15"><a xlink:href="classio.html#aaa642111086b3ec2afee826a767d03ad" target="_top" xlink:title="io::writeNodeToDisk">
<polygon fill="white" stroke="black" points="154,-171.5 154,-190.5 260,-190.5 260,-171.5 154,-171.5"/>
<text text-anchor="middle" x="207" y="-178.5" font-family="Helvetica,sans-Serif" font-size="10.00">io::writeNodeToDisk</text>
</a>
</g>
</g>
<!-- Node1&#45;&gt;Node15 -->
<g id="edge22" class="edge"><title>Node1&#45;&gt;Node15</title>
<path fill="none" stroke="midnightblue" d="M101.235,-193.884C114.793,-192.216 129.652,-190.389 143.809,-188.648"/>
<polygon fill="midnightblue" stroke="midnightblue" points="144.466,-192.094 153.964,-187.399 143.612,-185.146 144.466,-192.094"/>
</g>
<!-- Node3 -->
<g id="node3" class="node"><title>Node3</title>
<g id="a_node3"><a xlink:href="class_node.html#a3a61dca67d5ad06cacb8c48eb6374973" target="_top" xlink:title="Node::isLeaf">
<polygon fill="white" stroke="black" points="339.5,-190.5 339.5,-209.5 411.5,-209.5 411.5,-190.5 339.5,-190.5"/>
<text text-anchor="middle" x="375.5" y="-197.5" font-family="Helvetica,sans-Serif" font-size="10.00">Node::isLeaf</text>
</a>
</g>
</g>
<!-- Node2&#45;&gt;Node3 -->
<g id="edge2" class="edge"><title>Node2&#45;&gt;Node3</title>
<path fill="none" stroke="midnightblue" d="M248.255,-152.504C257.81,-155.192 267.874,-158.385 277,-162 293.82,-168.663 296.285,-174.078 313,-181 318.424,-183.246 324.211,-185.37 329.985,-187.328"/>
<polygon fill="midnightblue" stroke="midnightblue" points="329.029,-190.698 339.621,-190.459 331.191,-184.04 329.029,-190.698"/>
</g>
<!-- Node4 -->
<g id="node4" class="node"><title>Node4</title>
<g id="a_node4"><a xlink:href="class_node.html#aa3512938403662345b64049920d1cdaf" target="_top" xlink:title="Node::getPosition">
<polygon fill="white" stroke="black" points="328,-152.5 328,-171.5 423,-171.5 423,-152.5 328,-152.5"/>
<text text-anchor="middle" x="375.5" y="-159.5" font-family="Helvetica,sans-Serif" font-size="10.00">Node::getPosition</text>
</a>
</g>
</g>
<!-- Node2&#45;&gt;Node4 -->
<g id="edge3" class="edge"><title>Node2&#45;&gt;Node4</title>
<path fill="none" stroke="midnightblue" d="M277.165,-150.893C290.56,-152.421 304.456,-154.007 317.411,-155.485"/>
<polygon fill="midnightblue" stroke="midnightblue" points="317.239,-158.988 327.572,-156.645 318.033,-152.034 317.239,-158.988"/>
</g>
<!-- Node5 -->
<g id="node5" class="node"><title>Node5</title>
<g id="a_node5"><a xlink:href="class_node.html#a2784134529ab6341bf028b0d40660870" target="_top" xlink:title="Node::getBoarderIndexX">
<polygon fill="white" stroke="black" points="313.5,-114.5 313.5,-133.5 437.5,-133.5 437.5,-114.5 313.5,-114.5"/>
<text text-anchor="middle" x="375.5" y="-121.5" font-family="Helvetica,sans-Serif" font-size="10.00">Node::getBoarderIndexX</text>
</a>
</g>
</g>
<!-- Node2&#45;&gt;Node5 -->
<g id="edge4" class="edge"><title>Node2&#45;&gt;Node5</title>
<path fill="none" stroke="midnightblue" d="M277.165,-135.107C285.77,-134.125 294.582,-133.12 303.218,-132.134"/>
<polygon fill="midnightblue" stroke="midnightblue" points="303.715,-135.6 313.253,-130.989 302.921,-128.646 303.715,-135.6"/>
</g>
<!-- Node6 -->
<g id="node6" class="node"><title>Node6</title>
<g id="a_node6"><a xlink:href="class_node.html#a44362e2817f8eb2fd21b78f39797c48c" target="_top" xlink:title="Node::getBoarderIndexY">
<polygon fill="white" stroke="black" points="313.5,-76.5 313.5,-95.5 437.5,-95.5 437.5,-76.5 313.5,-76.5"/>
<text text-anchor="middle" x="375.5" y="-83.5" font-family="Helvetica,sans-Serif" font-size="10.00">Node::getBoarderIndexY</text>
</a>
</g>
</g>
<!-- Node2&#45;&gt;Node6 -->
<g id="edge5" class="edge"><title>Node2&#45;&gt;Node6</title>
<path fill="none" stroke="midnightblue" d="M233.342,-133.445C254.536,-125.547 285.612,-114.181 313,-105 319.407,-102.852 326.219,-100.659 332.886,-98.5618"/>
<polygon fill="midnightblue" stroke="midnightblue" points="333.979,-101.887 342.488,-95.574 331.899,-95.2033 333.979,-101.887"/>
</g>
<!-- Node7 -->
<g id="node7" class="node"><title>Node7</title>
<g id="a_node7"><a xlink:href="class_node.html#a5560fab35ef65b0bf137c7c70c3b8e4d" target="_top" xlink:title="Node::getMeanSpectrum">
<polygon fill="white" stroke="black" points="313,-38.5 313,-57.5 438,-57.5 438,-38.5 313,-38.5"/>
<text text-anchor="middle" x="375.5" y="-45.5" font-family="Helvetica,sans-Serif" font-size="10.00">Node::getMeanSpectrum</text>
</a>
</g>
</g>
<!-- Node2&#45;&gt;Node7 -->
<g id="edge6" class="edge"><title>Node2&#45;&gt;Node7</title>
<path fill="none" stroke="midnightblue" d="M218.859,-133.254C237.092,-117.345 275.552,-85.6975 313,-67 317.393,-64.8066 322.089,-62.8065 326.856,-60.9979"/>
<polygon fill="midnightblue" stroke="midnightblue" points="328.388,-64.1694 336.664,-57.5538 326.069,-57.5648 328.388,-64.1694"/>
</g>
<!-- Node9 -->
<g id="node9" class="node"><title>Node9</title>
<g id="a_node9"><a xlink:href="class_node.html#a6b9517162b03a8f98df4bc63890ca092" target="_top" xlink:title="Node::getProbability">
<polygon fill="white" stroke="black" points="323,-0.5 323,-19.5 428,-19.5 428,-0.5 323,-0.5"/>
<text text-anchor="middle" x="375.5" y="-7.5" font-family="Helvetica,sans-Serif" font-size="10.00">Node::getProbability</text>
</a>
</g>
</g>
<!-- Node2&#45;&gt;Node9 -->
<g id="edge8" class="edge"><title>Node2&#45;&gt;Node9</title>
<path fill="none" stroke="midnightblue" d="M214.124,-133.473C228.619,-111.682 267.265,-57.8686 313,-29 316.307,-26.9123 319.86,-25.0403 323.529,-23.364"/>
<polygon fill="midnightblue" stroke="midnightblue" points="324.869,-26.5973 332.815,-19.5891 322.233,-20.1126 324.869,-26.5973"/>
</g>
<!-- Node11 -->
<g id="node11" class="node"><title>Node11</title>
<g id="a_node11"><a xlink:href="class_node.html#a531a8178f01a328bec4c4e8a3b93b67f" target="_top" xlink:title="Node::getRightChild">
<polygon fill="white" stroke="black" points="323,-266.5 323,-285.5 428,-285.5 428,-266.5 323,-266.5"/>
<text text-anchor="middle" x="375.5" y="-273.5" font-family="Helvetica,sans-Serif" font-size="10.00">Node::getRightChild</text>
</a>
</g>
</g>
<!-- Node2&#45;&gt;Node11 -->
<g id="edge10" class="edge"><title>Node2&#45;&gt;Node11</title>
<path fill="none" stroke="midnightblue" d="M262.586,-152.612C267.839,-155.073 272.774,-158.152 277,-162 310.385,-192.4 280.089,-226.087 313,-257 314.688,-258.585 316.505,-260.038 318.42,-261.37"/>
<polygon fill="midnightblue" stroke="midnightblue" points="316.922,-264.546 327.341,-266.468 320.395,-258.468 316.922,-264.546"/>
</g>
<!-- Node12 -->
<g id="node12" class="node"><title>Node12</title>
<g id="a_node12"><a xlink:href="class_node.html#a498a3ea76df240287b5a91aeaec2be95" target="_top" xlink:title="Node::getLeftChild">
<polygon fill="white" stroke="black" points="326.5,-228.5 326.5,-247.5 424.5,-247.5 424.5,-228.5 326.5,-228.5"/>
<text text-anchor="middle" x="375.5" y="-235.5" font-family="Helvetica,sans-Serif" font-size="10.00">Node::getLeftChild</text>
</a>
</g>
</g>
<!-- Node2&#45;&gt;Node12 -->
<g id="edge11" class="edge"><title>Node2&#45;&gt;Node12</title>
<path fill="none" stroke="midnightblue" d="M259.729,-152.635C265.882,-155.082 271.81,-158.151 277,-162 301.067,-179.848 289.212,-200.782 313,-219 315.45,-220.876 318.086,-222.568 320.841,-224.095"/>
<polygon fill="midnightblue" stroke="midnightblue" points="319.422,-227.296 329.956,-228.427 322.427,-220.973 319.422,-227.296"/>
</g>
<!-- Node8 -->
<g id="node8" class="node"><title>Node8</title>
<g id="a_node8"><a xlink:href="classregion_model.html#a09d4bdb8401b2de0d2dd41d2561bca30" target="_top" xlink:title="regionModel::getMeanSpectrum">
<polygon fill="white" stroke="black" points="474,-38.5 474,-57.5 629,-57.5 629,-38.5 474,-38.5"/>
<text text-anchor="middle" x="551.5" y="-45.5" font-family="Helvetica,sans-Serif" font-size="10.00">regionModel::getMeanSpectrum</text>
</a>
</g>
</g>
<!-- Node7&#45;&gt;Node8 -->
<g id="edge7" class="edge"><title>Node7&#45;&gt;Node8</title>
<path fill="none" stroke="midnightblue" d="M438.336,-48C446.62,-48 455.238,-48 463.851,-48"/>
<polygon fill="midnightblue" stroke="midnightblue" points="463.94,-51.5001 473.94,-48 463.94,-44.5001 463.94,-51.5001"/>
</g>
<!-- Node10 -->
<g id="node10" class="node"><title>Node10</title>
<g id="a_node10"><a xlink:href="classregion_model.html#a8a4064b3ef23992b52371b7a5ef7df1c" target="_top" xlink:title="regionModel::getProbability">
<polygon fill="white" stroke="black" points="484.5,-0.5 484.5,-19.5 618.5,-19.5 618.5,-0.5 484.5,-0.5"/>
<text text-anchor="middle" x="551.5" y="-7.5" font-family="Helvetica,sans-Serif" font-size="10.00">regionModel::getProbability</text>
</a>
</g>
</g>
<!-- Node9&#45;&gt;Node10 -->
<g id="edge9" class="edge"><title>Node9&#45;&gt;Node10</title>
<path fill="none" stroke="midnightblue" d="M428.235,-10C442.698,-10 458.726,-10 474.287,-10"/>
<polygon fill="midnightblue" stroke="midnightblue" points="474.423,-13.5001 484.423,-10 474.423,-6.5001 474.423,-13.5001"/>
</g>
<!-- Node13&#45;&gt;Node3 -->
<g id="edge13" class="edge"><title>Node13&#45;&gt;Node3</title>
<path fill="none" stroke="midnightblue" d="M248.255,-247.496C257.81,-244.808 267.874,-241.615 277,-238 293.82,-231.337 296.285,-225.922 313,-219 318.424,-216.754 324.211,-214.63 329.985,-212.672"/>
<polygon fill="midnightblue" stroke="midnightblue" points="331.191,-215.96 339.621,-209.541 329.029,-209.302 331.191,-215.96"/>
</g>
<!-- Node13&#45;&gt;Node4 -->
<g id="edge14" class="edge"><title>Node13&#45;&gt;Node4</title>
<path fill="none" stroke="midnightblue" d="M254.721,-249.21C262.636,-246.514 270.413,-242.885 277,-238 301.067,-220.152 289.212,-199.218 313,-181 315.45,-179.124 318.086,-177.432 320.841,-175.905"/>
<polygon fill="midnightblue" stroke="midnightblue" points="322.427,-179.027 329.956,-171.573 319.422,-172.704 322.427,-179.027"/>
</g>
<!-- Node13&#45;&gt;Node11 -->
<g id="edge15" class="edge"><title>Node13&#45;&gt;Node11</title>
<path fill="none" stroke="midnightblue" d="M254.823,-262.343C272.76,-264.39 293.507,-266.758 312.638,-268.941"/>
<polygon fill="midnightblue" stroke="midnightblue" points="312.438,-272.44 322.77,-270.097 313.232,-265.486 312.438,-272.44"/>
</g>
<!-- Node13&#45;&gt;Node12 -->
<g id="edge16" class="edge"><title>Node13&#45;&gt;Node12</title>
<path fill="none" stroke="midnightblue" d="M254.823,-251.657C273.912,-249.478 296.185,-246.937 316.305,-244.641"/>
<polygon fill="midnightblue" stroke="midnightblue" points="316.754,-248.112 326.292,-243.501 315.96,-241.158 316.754,-248.112"/>
</g>
<!-- Node14&#45;&gt;Node3 -->
<g id="edge18" class="edge"><title>Node14&#45;&gt;Node3</title>
<path fill="none" stroke="midnightblue" d="M260.682,-212.988C282.788,-210.466 308.233,-207.562 329.451,-205.141"/>
<polygon fill="midnightblue" stroke="midnightblue" points="329.956,-208.606 339.495,-203.995 329.162,-201.651 329.956,-208.606"/>
</g>
<!-- Node14&#45;&gt;Node4 -->
<g id="edge19" class="edge"><title>Node14&#45;&gt;Node4</title>
<path fill="none" stroke="midnightblue" d="M248.255,-209.496C257.81,-206.808 267.874,-203.615 277,-200 293.82,-193.337 296.285,-187.922 313,-181 318.424,-178.754 324.211,-176.63 329.985,-174.672"/>
<polygon fill="midnightblue" stroke="midnightblue" points="331.191,-177.96 339.621,-171.541 329.029,-171.302 331.191,-177.96"/>
</g>
<!-- Node14&#45;&gt;Node11 -->
<g id="edge20" class="edge"><title>Node14&#45;&gt;Node11</title>
<path fill="none" stroke="midnightblue" d="M248.255,-228.504C257.81,-231.192 267.874,-234.385 277,-238 293.82,-244.663 296.285,-250.078 313,-257 318.424,-259.246 324.211,-261.37 329.985,-263.328"/>
<polygon fill="midnightblue" stroke="midnightblue" points="329.029,-266.698 339.621,-266.459 331.191,-260.04 329.029,-266.698"/>
</g>
<!-- Node14&#45;&gt;Node12 -->
<g id="edge21" class="edge"><title>Node14&#45;&gt;Node12</title>
<path fill="none" stroke="midnightblue" d="M260.682,-225.012C278.365,-227.03 298.184,-229.291 316.268,-231.355"/>
<polygon fill="midnightblue" stroke="midnightblue" points="316.065,-234.854 326.397,-232.511 316.859,-227.899 316.065,-234.854"/>
</g>
<!-- Node15&#45;&gt;Node3 -->
<g id="edge23" class="edge"><title>Node15&#45;&gt;Node3</title>
<path fill="none" stroke="midnightblue" d="M260.225,-186.96C282.353,-189.485 307.895,-192.399 329.211,-194.832"/>
<polygon fill="midnightblue" stroke="midnightblue" points="328.97,-198.327 339.303,-195.983 329.764,-191.372 328.97,-198.327"/>
</g>
<!-- Node15&#45;&gt;Node4 -->
<g id="edge24" class="edge"><title>Node15&#45;&gt;Node4</title>
<path fill="none" stroke="midnightblue" d="M260.225,-175.04C278.491,-172.956 299.083,-170.606 317.704,-168.481"/>
<polygon fill="midnightblue" stroke="midnightblue" points="318.28,-171.938 327.819,-167.327 317.486,-164.983 318.28,-171.938"/>
</g>
<!-- Node15&#45;&gt;Node11 -->
<g id="edge25" class="edge"><title>Node15&#45;&gt;Node11</title>
<path fill="none" stroke="midnightblue" d="M259.729,-190.635C265.882,-193.082 271.81,-196.151 277,-200 301.067,-217.848 289.212,-238.782 313,-257 315.45,-258.876 318.086,-260.568 320.841,-262.095"/>
<polygon fill="midnightblue" stroke="midnightblue" points="319.422,-265.296 329.956,-266.427 322.427,-258.973 319.422,-265.296"/>
</g>
<!-- Node15&#45;&gt;Node12 -->
<g id="edge26" class="edge"><title>Node15&#45;&gt;Node12</title>
<path fill="none" stroke="midnightblue" d="M248.255,-190.504C257.81,-193.192 267.874,-196.385 277,-200 293.82,-206.663 296.285,-212.078 313,-219 318.424,-221.246 324.211,-223.37 329.985,-225.328"/>
<polygon fill="midnightblue" stroke="midnightblue" points="329.029,-228.698 339.621,-228.459 331.191,-222.04 329.029,-228.698"/>
</g>
</g>
</svg>
        <g id="navigator" transform="translate(0 0)" fill="#404254">
                <rect fill="#f2f5e9" fill-opacity="0.5" stroke="#606060" stroke-width=".5" x="0" y="0" width="60" height="60"/>
                <use id="zoomplus" xlink:href="#zoomPlus" x="17" y="9" onmousedown="handleZoom(evt,'in')"/>
                <use id="zoomminus" xlink:href="#zoomMin" x="42" y="9" onmousedown="handleZoom(evt,'out')"/>
                <use id="reset" xlink:href="#resetDef" x="30" y="36" onmousedown="handleReset()"/>
                <g id="arrowUp" xlink:href="#dirArrow" transform="translate(30 24)" onmousedown="handlePan(0,-1)">
                  <use xlink:href="#rim" fill="#404040">
                        <set attributeName="fill" to="#808080" begin="arrowUp.mouseover" end="arrowUp.mouseout"/>
                  </use>
                  <path fill="none" stroke="white" stroke-width="1.5" d="M0,-3.0v7 M-2.5,-0.5L0,-3.0L2.5,-0.5"/>
                </g>
                <g id="arrowRight" xlink:href="#dirArrow" transform="rotate(90) translate(36 -43)" onmousedown="handlePan(1,0)">
                  <use xlink:href="#rim" fill="#404040">
                        <set attributeName="fill" to="#808080" begin="arrowRight.mouseover" end="arrowRight.mouseout"/>
                  </use>
                  <path fill="none" stroke="white" stroke-width="1.5" d="M0,-3.0v7 M-2.5,-0.5L0,-3.0L2.5,-0.5"/>
                </g>
                <g id="arrowDown" xlink:href="#dirArrow" transform="rotate(180) translate(-30 -48)" onmousedown="handlePan(0,1)">
                  <use xlink:href="#rim" fill="#404040">
                        <set attributeName="fill" to="#808080" begin="arrowDown.mouseover" end="arrowDown.mouseout"/>
                  </use>
                  <path fill="none" stroke="white" stroke-width="1.5" d="M0,-3.0v7 M-2.5,-0.5L0,-3.0L2.5,-0.5"/>
                </g>
                <g id="arrowLeft" xlink:href="#dirArrow" transform="rotate(270) translate(-36 17)" onmousedown="handlePan(-1,0)">
                  <use xlink:href="#rim" fill="#404040">
                        <set attributeName="fill" to="#808080" begin="arrowLeft.mouseover" end="arrowLeft.mouseout"/>
                  </use>
                  <path fill="none" stroke="white" stroke-width="1.5" d="M0,-3.0v7 M-2.5,-0.5L0,-3.0L2.5,-0.5"/>
                </g>
        </g>
        <svg viewBox="0 0 15 15" width="100%" height="30px" preserveAspectRatio="xMaxYMin meet">
         <g id="arrow_out" transform="scale(0.3 0.3)">
          <a xlink:href="classimage_a3a11f9e84755d71dd86e6161f633dd80_cgraph_org.svg" target="_base">
           <rect id="button" ry="5" rx="5" y="6" x="6" height="38" width="38"
                fill="#f2f5e9" fill-opacity="0.5" stroke="#606060" stroke-width="1.0"/>
           <path id="arrow"
             d="M 11.500037,31.436501 C 11.940474,20.09759 22.043105,11.32322 32.158766,21.979434 L 37.068811,17.246167 C 37.068811,17.246167 37.088388,32 37.088388,32 L 22.160133,31.978069 C 22.160133,31.978069 26.997745,27.140456 26.997745,27.140456 C 18.528582,18.264221 13.291696,25.230495 11.500037,31.436501 z"
             style="fill:#404040;"/>
          </a>
         </g>
        </svg>
</svg>
