<?xml version="1.0" encoding="UTF-8" standalone="no"?>
<!DOCTYPE svg PUBLIC "-//W3C//DTD SVG 1.1//EN"
 "http://www.w3.org/Graphics/SVG/1.1/DTD/svg11.dtd">
<!-- Generated by graphviz version 2.38.0 (20140413.2041)
 -->
<!-- Title: regionModel::setNode Pages: 1 -->
<!--zoomable 142 -->
<svg id="main" version="1.1" xmlns="http://www.w3.org/2000/svg" xmlns:xlink="http://www.w3.org/1999/xlink" xml:space="preserve" onload="init(evt)">
<style type="text/css"><![CDATA[
.edge:hover path { stroke: red; }
.edge:hover polygon { stroke: red; fill: red; }
]]></style>
<script type="text/javascript"><![CDATA[
var edges = document.getElementsByTagName('g');
if (edges && edges.length) {
  for (var i=0;i<edges.length;i++) {
    if (edges[i].id.substr(0,4)=='edge') {
      edges[i].setAttribute('class','edge');
    }
  }
}
]]></script>
        <defs>
                <circle id="rim" cx="0" cy="0" r="7"/>
                <circle id="rim2" cx="0" cy="0" r="3.5"/>
                <g id="zoomPlus">
                        <use xlink:href="#rim" fill="#404040">
                                <set attributeName="fill" to="#808080" begin="zoomplus.mouseover" end="zoomplus.mouseout"/>
                        </use>
                        <path d="M-4,0h8M0,-4v8" fill="none" stroke="white" stroke-width="1.5" pointer-events="none"/>
                </g>
                <g id="zoomMin">
                        <use xlink:href="#rim" fill="#404040">
                                <set attributeName="fill" to="#808080" begin="zoomminus.mouseover" end="zoomminus.mouseout"/>
                        </use>
                        <path d="M-4,0h8" fill="none" stroke="white" stroke-width="1.5" pointer-events="none"/>
                </g>
                <g id="dirArrow">
                        <path fill="none" stroke="white" stroke-width="1.5" d="M0,-3.0v7 M-2.5,-0.5L0,-3.0L2.5,-0.5"/>
                </g>
               <g id="resetDef">
                       <use xlink:href="#rim2" fill="#404040">
                               <set attributeName="fill" to="#808080" begin="reset.mouseover" end="reset.mouseout"/>
                       </use>
               </g>
        </defs>

<script type="text/javascript">
var viewWidth = 1420;
var viewHeight = 142;
var sectionId = 'dynsection-10';
</script>
<script xlink:href="svgpan.js"/>
<svg id="graph" class="graph">
<g id="viewport">
<title>regionModel::setNode</title>
<polygon fill="white" stroke="none" points="-4,4 -4,-138 1416,-138 1416,4 -4,4"/>
<!-- Node113 -->
<g id="node1" class="node"><title>Node113</title>
<polygon fill="#bfbfbf" stroke="black" points="0,-19.5 0,-38.5 112,-38.5 112,-19.5 0,-19.5"/>
<text text-anchor="middle" x="56" y="-26.5" font-family="Helvetica,sans-Serif" font-size="10.00">regionModel::setNode</text>
</g>
<!-- Node114 -->
<g id="node2" class="node"><title>Node114</title>
<g id="a_node2"><a xlink:href="class_node.html#a8a60e0e373f3acf5a26036a0b40312a1" target="_top" xlink:title="Node::setModel">
<polygon fill="white" stroke="black" points="170.5,-38.5 170.5,-57.5 256.5,-57.5 256.5,-38.5 170.5,-38.5"/>
<text text-anchor="middle" x="213.5" y="-45.5" font-family="Helvetica,sans-Serif" font-size="10.00">Node::setModel</text>
</a>
</g>
</g>
<!-- Node113&#45;&gt;Node114 -->
<g id="edge1" class="edge"><title>Node113&#45;&gt;Node114</title>
<path fill="none" stroke="midnightblue" d="M122.222,-36.9693C138.416,-38.948 155.355,-41.0176 170.128,-42.8227"/>
<polygon fill="midnightblue" stroke="midnightblue" points="122.612,-33.491 112.261,-35.7522 121.763,-40.4393 122.612,-33.491"/>
</g>
<!-- Node128 -->
<g id="node16" class="node"><title>Node128</title>
<g id="a_node16"><a xlink:href="classcompound_model.html#a62e27efef9340f3c576b354cd0dccb15" target="_top" xlink:title="compoundModel::setNode">
<polygon fill="white" stroke="black" points="148,-0.5 148,-19.5 279,-19.5 279,-0.5 148,-0.5"/>
<text text-anchor="middle" x="213.5" y="-7.5" font-family="Helvetica,sans-Serif" font-size="10.00">compoundModel::setNode</text>
</a>
</g>
</g>
<!-- Node113&#45;&gt;Node128 -->
<g id="edge19" class="edge"><title>Node113&#45;&gt;Node128</title>
<path fill="none" stroke="midnightblue" d="M122.407,-21.0081C130.828,-19.9792 139.447,-18.9261 147.856,-17.8987"/>
<polygon fill="midnightblue" stroke="midnightblue" points="121.763,-17.5607 112.261,-22.2478 122.612,-24.509 121.763,-17.5607"/>
</g>
<!-- Node115 -->
<g id="node3" class="node"><title>Node115</title>
<g id="a_node3"><a xlink:href="class_r_a_g.html#aa2de492a3df037db29b0e3ccab5251ee" target="_top" xlink:title="RAG::merge">
<polygon fill="white" stroke="black" points="331.5,-76.5 331.5,-95.5 402.5,-95.5 402.5,-76.5 331.5,-76.5"/>
<text text-anchor="middle" x="367" y="-83.5" font-family="Helvetica,sans-Serif" font-size="10.00">RAG::merge</text>
</a>
</g>
</g>
<!-- Node114&#45;&gt;Node115 -->
<g id="edge2" class="edge"><title>Node114&#45;&gt;Node115</title>
<path fill="none" stroke="midnightblue" d="M262.697,-60.0891C285.031,-65.6909 311.064,-72.2207 331.409,-77.3237"/>
<polygon fill="midnightblue" stroke="midnightblue" points="263.281,-56.6271 252.73,-57.589 261.578,-63.4168 263.281,-56.6271"/>
</g>
<!-- Node126 -->
<g id="node14" class="node"><title>Node126</title>
<g id="a_node14"><a xlink:href="class_node.html#af221340b45ee89667b4a26f3d4b46b1c" target="_top" xlink:title="Node::replaceModel">
<polygon fill="white" stroke="black" points="315,-0.5 315,-19.5 419,-19.5 419,-0.5 315,-0.5"/>
<text text-anchor="middle" x="367" y="-7.5" font-family="Helvetica,sans-Serif" font-size="10.00">Node::replaceModel</text>
</a>
</g>
</g>
<!-- Node114&#45;&gt;Node126 -->
<g id="edge15" class="edge"><title>Node114&#45;&gt;Node126</title>
<path fill="none" stroke="midnightblue" d="M262.502,-35.96C283.667,-30.6512 308.186,-24.5012 328.045,-19.5201"/>
<polygon fill="midnightblue" stroke="midnightblue" points="261.578,-32.5832 252.73,-38.411 263.281,-39.3729 261.578,-32.5832"/>
</g>
<!-- Node127 -->
<g id="node15" class="node"><title>Node127</title>
<g id="a_node15"><a xlink:href="classimage.html#a96cc6f2b2f3b5c2e283623872ada5fc7" target="_top" xlink:title="image::selectBoarderSegments">
<polygon fill="white" stroke="black" points="455,-38.5 455,-57.5 608,-57.5 608,-38.5 455,-38.5"/>
<text text-anchor="middle" x="531.5" y="-45.5" font-family="Helvetica,sans-Serif" font-size="10.00">image::selectBoarderSegments</text>
</a>
</g>
</g>
<!-- Node114&#45;&gt;Node127 -->
<g id="edge16" class="edge"><title>Node114&#45;&gt;Node127</title>
<path fill="none" stroke="midnightblue" d="M266.981,-48C318.251,-48 396.824,-48 454.84,-48"/>
<polygon fill="midnightblue" stroke="midnightblue" points="266.789,-44.5001 256.789,-48 266.789,-51.5001 266.789,-44.5001"/>
</g>
<!-- Node116 -->
<g id="node4" class="node"><title>Node116</title>
<g id="a_node4"><a xlink:href="class_r_a_g.html#ab09eebb1b704d18b583d528e77f7604a" target="_top" xlink:title="RAG::regionMerging">
<polygon fill="white" stroke="black" points="479,-76.5 479,-95.5 584,-95.5 584,-76.5 479,-76.5"/>
<text text-anchor="middle" x="531.5" y="-83.5" font-family="Helvetica,sans-Serif" font-size="10.00">RAG::regionMerging</text>
</a>
</g>
</g>
<!-- Node115&#45;&gt;Node116 -->
<g id="edge3" class="edge"><title>Node115&#45;&gt;Node116</title>
<path fill="none" stroke="midnightblue" d="M413.122,-86C433.476,-86 457.628,-86 478.717,-86"/>
<polygon fill="midnightblue" stroke="midnightblue" points="412.86,-82.5001 402.86,-86 412.86,-89.5001 412.86,-82.5001"/>
</g>
<!-- Node117 -->
<g id="node5" class="node"><title>Node117</title>
<g id="a_node5"><a xlink:href="classimageblock.html#abcc69a8c00ad79067185c700463f8126" target="_top" xlink:title="imageblock::createBPT">
<polygon fill="white" stroke="black" points="644,-114.5 644,-133.5 763,-133.5 763,-114.5 644,-114.5"/>
<text text-anchor="middle" x="703.5" y="-121.5" font-family="Helvetica,sans-Serif" font-size="10.00">imageblock::createBPT</text>
</a>
</g>
</g>
<!-- Node116&#45;&gt;Node117 -->
<g id="edge4" class="edge"><title>Node116&#45;&gt;Node117</title>
<path fill="none" stroke="midnightblue" d="M585.398,-97.8243C609.365,-103.182 637.324,-109.431 659.91,-114.48"/>
<polygon fill="midnightblue" stroke="midnightblue" points="585.921,-94.3548 575.398,-95.589 584.394,-101.186 585.921,-94.3548"/>
</g>
<!-- Node122 -->
<g id="node10" class="node"><title>Node122</title>
<g id="a_node10"><a xlink:href="classimage.html#a12343719e8d96a4bda9c5bd6c035d52a" target="_top" xlink:title="image::mergeBlockX">
<polygon fill="white" stroke="black" points="650,-38.5 650,-57.5 757,-57.5 757,-38.5 650,-38.5"/>
<text text-anchor="middle" x="703.5" y="-45.5" font-family="Helvetica,sans-Serif" font-size="10.00">image::mergeBlockX</text>
</a>
</g>
</g>
<!-- Node116&#45;&gt;Node122 -->
<g id="edge9" class="edge"><title>Node116&#45;&gt;Node122</title>
<path fill="none" stroke="midnightblue" d="M585.398,-74.1757C609.365,-68.8184 637.324,-62.5689 659.91,-57.5201"/>
<polygon fill="midnightblue" stroke="midnightblue" points="584.394,-70.8138 575.398,-76.411 585.921,-77.6452 584.394,-70.8138"/>
</g>
<!-- Node124 -->
<g id="node12" class="node"><title>Node124</title>
<g id="a_node12"><a xlink:href="classimage.html#aa21fc5a07af7528869425e750090b3b8" target="_top" xlink:title="image::mergeBlockY">
<polygon fill="white" stroke="black" points="650,-76.5 650,-95.5 757,-95.5 757,-76.5 650,-76.5"/>
<text text-anchor="middle" x="703.5" y="-83.5" font-family="Helvetica,sans-Serif" font-size="10.00">image::mergeBlockY</text>
</a>
</g>
</g>
<!-- Node116&#45;&gt;Node124 -->
<g id="edge12" class="edge"><title>Node116&#45;&gt;Node124</title>
<path fill="none" stroke="midnightblue" d="M594.589,-86C612.676,-86 632.26,-86 649.715,-86"/>
<polygon fill="midnightblue" stroke="midnightblue" points="594.429,-82.5001 584.429,-86 594.429,-89.5001 594.429,-82.5001"/>
</g>
<!-- Node118 -->
<g id="node6" class="node"><title>Node118</title>
<g id="a_node6"><a xlink:href="classimageblock.html#af3b91e3daaa8014af1239f60da6b0bf5" target="_top" xlink:title="imageblock::processing">
<polygon fill="white" stroke="black" points="806,-114.5 806,-133.5 925,-133.5 925,-114.5 806,-114.5"/>
<text text-anchor="middle" x="865.5" y="-121.5" font-family="Helvetica,sans-Serif" font-size="10.00">imageblock::processing</text>
</a>
</g>
</g>
<!-- Node117&#45;&gt;Node118 -->
<g id="edge5" class="edge"><title>Node117&#45;&gt;Node118</title>
<path fill="none" stroke="midnightblue" d="M773.415,-124C784.217,-124 795.294,-124 805.838,-124"/>
<polygon fill="midnightblue" stroke="midnightblue" points="773.17,-120.5 763.17,-124 773.17,-127.5 773.17,-120.5"/>
</g>
<!-- Node119 -->
<g id="node7" class="node"><title>Node119</title>
<g id="a_node7"><a xlink:href="classimage.html#ad5a9d767eca6f9bbb8dcb556527edf4d" target="_top" xlink:title="image::ProcessTiles">
<polygon fill="white" stroke="black" points="981.5,-114.5 981.5,-133.5 1087.5,-133.5 1087.5,-114.5 981.5,-114.5"/>
<text text-anchor="middle" x="1034.5" y="-121.5" font-family="Helvetica,sans-Serif" font-size="10.00">image::ProcessTiles</text>
</a>
</g>
</g>
<!-- Node118&#45;&gt;Node119 -->
<g id="edge6" class="edge"><title>Node118&#45;&gt;Node119</title>
<path fill="none" stroke="midnightblue" d="M935.781,-124C950.994,-124 966.857,-124 981.267,-124"/>
<polygon fill="midnightblue" stroke="midnightblue" points="935.378,-120.5 925.378,-124 935.378,-127.5 935.378,-120.5"/>
</g>
<!-- Node120 -->
<g id="node8" class="node"><title>Node120</title>
<g id="a_node8"><a xlink:href="classimage.html#a4689c56b85c46d48ea52f0c9fa13891e" target="_top" xlink:title="image::processing">
<polygon fill="white" stroke="black" points="1137,-76.5 1137,-95.5 1233,-95.5 1233,-76.5 1137,-76.5"/>
<text text-anchor="middle" x="1185" y="-83.5" font-family="Helvetica,sans-Serif" font-size="10.00">image::processing</text>
</a>
</g>
</g>
<!-- Node119&#45;&gt;Node120 -->
<g id="edge7" class="edge"><title>Node119&#45;&gt;Node120</title>
<path fill="none" stroke="midnightblue" d="M1082.83,-111.888C1103.51,-106.596 1127.42,-100.479 1146.8,-95.5201"/>
<polygon fill="midnightblue" stroke="midnightblue" points="1081.79,-108.541 1072.97,-114.411 1083.53,-115.323 1081.79,-108.541"/>
</g>
<!-- Node121 -->
<g id="node9" class="node"><title>Node121</title>
<g id="a_node9"><a xlink:href="class_main_window.html#a9a45eb9ebe6d27bcd23677d9fbb74dd8" target="_top" xlink:title="MainWindow::on_Go_clicked">
<polygon fill="white" stroke="black" points="1269,-76.5 1269,-95.5 1412,-95.5 1412,-76.5 1269,-76.5"/>
<text text-anchor="middle" x="1340.5" y="-83.5" font-family="Helvetica,sans-Serif" font-size="10.00">MainWindow::on_Go_clicked</text>
</a>
</g>
</g>
<!-- Node120&#45;&gt;Node121 -->
<g id="edge8" class="edge"><title>Node120&#45;&gt;Node121</title>
<path fill="none" stroke="midnightblue" d="M1243.58,-86C1251.85,-86 1260.44,-86 1268.93,-86"/>
<polygon fill="midnightblue" stroke="midnightblue" points="1243.31,-82.5001 1233.31,-86 1243.31,-89.5001 1243.31,-82.5001"/>
</g>
<!-- Node123 -->
<g id="node11" class="node"><title>Node123</title>
<g id="a_node11"><a xlink:href="classimage.html#a83026280ad6cc713ec9489ff3bd9776e" target="_top" xlink:title="image::ProcessBoundaryX">
<polygon fill="white" stroke="black" points="968,-38.5 968,-57.5 1101,-57.5 1101,-38.5 968,-38.5"/>
<text text-anchor="middle" x="1034.5" y="-45.5" font-family="Helvetica,sans-Serif" font-size="10.00">image::ProcessBoundaryX</text>
</a>
</g>
</g>
<!-- Node122&#45;&gt;Node123 -->
<g id="edge10" class="edge"><title>Node122&#45;&gt;Node123</title>
<path fill="none" stroke="midnightblue" d="M767.399,-48C824.829,-48 909.414,-48 967.728,-48"/>
<polygon fill="midnightblue" stroke="midnightblue" points="767.36,-44.5001 757.36,-48 767.36,-51.5001 767.36,-44.5001"/>
</g>
<!-- Node123&#45;&gt;Node120 -->
<g id="edge11" class="edge"><title>Node123&#45;&gt;Node120</title>
<path fill="none" stroke="midnightblue" d="M1082.83,-60.1121C1103.51,-65.4044 1127.42,-71.5213 1146.8,-76.4799"/>
<polygon fill="midnightblue" stroke="midnightblue" points="1083.53,-56.6774 1072.97,-57.589 1081.79,-63.4589 1083.53,-56.6774"/>
</g>
<!-- Node125 -->
<g id="node13" class="node"><title>Node125</title>
<g id="a_node13"><a xlink:href="classimage.html#adf6b8c126649c9a40387f12b5f5f07d5" target="_top" xlink:title="image::ProcessBoundaryY">
<polygon fill="white" stroke="black" points="799,-76.5 799,-95.5 932,-95.5 932,-76.5 799,-76.5"/>
<text text-anchor="middle" x="865.5" y="-83.5" font-family="Helvetica,sans-Serif" font-size="10.00">image::ProcessBoundaryY</text>
</a>
</g>
</g>
<!-- Node124&#45;&gt;Node125 -->
<g id="edge13" class="edge"><title>Node124&#45;&gt;Node125</title>
<path fill="none" stroke="midnightblue" d="M767.486,-86C777.798,-86 788.505,-86 798.879,-86"/>
<polygon fill="midnightblue" stroke="midnightblue" points="767.333,-82.5001 757.333,-86 767.333,-89.5001 767.333,-82.5001"/>
</g>
<!-- Node125&#45;&gt;Node120 -->
<g id="edge14" class="edge"><title>Node125&#45;&gt;Node120</title>
<path fill="none" stroke="midnightblue" d="M942.542,-86C1002.98,-86 1085.61,-86 1136.85,-86"/>
<polygon fill="midnightblue" stroke="midnightblue" points="942.286,-82.5001 932.286,-86 942.286,-89.5001 942.286,-82.5001"/>
</g>
<!-- Node127&#45;&gt;Node122 -->
<g id="edge17" class="edge"><title>Node127&#45;&gt;Node122</title>
<path fill="none" stroke="midnightblue" d="M618.338,-48C629.082,-48 639.808,-48 649.829,-48"/>
<polygon fill="midnightblue" stroke="midnightblue" points="618.055,-44.5001 608.054,-48 618.054,-51.5001 618.055,-44.5001"/>
</g>
<!-- Node127&#45;&gt;Node124 -->
<g id="edge18" class="edge"><title>Node127&#45;&gt;Node124</title>
<path fill="none" stroke="midnightblue" d="M585.398,-59.8243C609.365,-65.1816 637.324,-71.4311 659.91,-76.4799"/>
<polygon fill="midnightblue" stroke="midnightblue" points="585.921,-56.3548 575.398,-57.589 584.394,-63.1862 585.921,-56.3548"/>
</g>
</g>
</svg>
        <g id="navigator" transform="translate(0 0)" fill="#404254">
                <rect fill="#f2f5e9" fill-opacity="0.5" stroke="#606060" stroke-width=".5" x="0" y="0" width="60" height="60"/>
                <use id="zoomplus" xlink:href="#zoomPlus" x="17" y="9" onmousedown="handleZoom(evt,'in')"/>
                <use id="zoomminus" xlink:href="#zoomMin" x="42" y="9" onmousedown="handleZoom(evt,'out')"/>
                <use id="reset" xlink:href="#resetDef" x="30" y="36" onmousedown="handleReset()"/>
                <g id="arrowUp" xlink:href="#dirArrow" transform="translate(30 24)" onmousedown="handlePan(0,-1)">
                  <use xlink:href="#rim" fill="#404040">
                        <set attributeName="fill" to="#808080" begin="arrowUp.mouseover" end="arrowUp.mouseout"/>
                  </use>
                  <path fill="none" stroke="white" stroke-width="1.5" d="M0,-3.0v7 M-2.5,-0.5L0,-3.0L2.5,-0.5"/>
                </g>
                <g id="arrowRight" xlink:href="#dirArrow" transform="rotate(90) translate(36 -43)" onmousedown="handlePan(1,0)">
                  <use xlink:href="#rim" fill="#404040">
                        <set attributeName="fill" to="#808080" begin="arrowRight.mouseover" end="arrowRight.mouseout"/>
                  </use>
                  <path fill="none" stroke="white" stroke-width="1.5" d="M0,-3.0v7 M-2.5,-0.5L0,-3.0L2.5,-0.5"/>
                </g>
                <g id="arrowDown" xlink:href="#dirArrow" transform="rotate(180) translate(-30 -48)" onmousedown="handlePan(0,1)">
                  <use xlink:href="#rim" fill="#404040">
                        <set attributeName="fill" to="#808080" begin="arrowDown.mouseover" end="arrowDown.mouseout"/>
                  </use>
                  <path fill="none" stroke="white" stroke-width="1.5" d="M0,-3.0v7 M-2.5,-0.5L0,-3.0L2.5,-0.5"/>
                </g>
                <g id="arrowLeft" xlink:href="#dirArrow" transform="rotate(270) translate(-36 17)" onmousedown="handlePan(-1,0)">
                  <use xlink:href="#rim" fill="#404040">
                        <set attributeName="fill" to="#808080" begin="arrowLeft.mouseover" end="arrowLeft.mouseout"/>
                  </use>
                  <path fill="none" stroke="white" stroke-width="1.5" d="M0,-3.0v7 M-2.5,-0.5L0,-3.0L2.5,-0.5"/>
                </g>
        </g>
        <svg viewBox="0 0 15 15" width="100%" height="30px" preserveAspectRatio="xMaxYMin meet">
         <g id="arrow_out" transform="scale(0.3 0.3)">
          <a xlink:href="classregion_model_aebdb837024f0eb627bb15742a19b9974_icgraph_org.svg" target="_base">
           <rect id="button" ry="5" rx="5" y="6" x="6" height="38" width="38"
                fill="#f2f5e9" fill-opacity="0.5" stroke="#606060" stroke-width="1.0"/>
           <path id="arrow"
             d="M 11.500037,31.436501 C 11.940474,20.09759 22.043105,11.32322 32.158766,21.979434 L 37.068811,17.246167 C 37.068811,17.246167 37.088388,32 37.088388,32 L 22.160133,31.978069 C 22.160133,31.978069 26.997745,27.140456 26.997745,27.140456 C 18.528582,18.264221 13.291696,25.230495 11.500037,31.436501 z"
             style="fill:#404040;"/>
          </a>
         </g>
        </svg>
</svg>
