<?xml version="1.0" encoding="UTF-8" standalone="no"?>
<!DOCTYPE svg PUBLIC "-//W3C//DTD SVG 1.1//EN"
 "http://www.w3.org/Graphics/SVG/1.1/DTD/svg11.dtd">
<!-- Generated by graphviz version 2.38.0 (20140413.2041)
 -->
<!-- Title: io::read2Mat Pages: 1 -->
<svg width="838pt" height="28pt"
 viewBox="0.00 0.00 838.00 28.00" xmlns="http://www.w3.org/2000/svg" xmlns:xlink="http://www.w3.org/1999/xlink">
<g id="graph0" class="graph" transform="scale(1 1) rotate(0) translate(4 24)">
<title>io::read2Mat</title>
<polygon fill="white" stroke="none" points="-4,4 -4,-24 834,-24 834,4 -4,4"/>
<!-- Node1 -->
<g id="node1" class="node"><title>Node1</title>
<polygon fill="#bfbfbf" stroke="black" points="0,-0.5 0,-19.5 71,-19.5 71,-0.5 0,-0.5"/>
<text text-anchor="middle" x="35.5" y="-7.5" font-family="Helvetica,sans-Serif" font-size="10.00">io::read2Mat</text>
</g>
<!-- Node2 -->
<g id="node2" class="node"><title>Node2</title>
<g id="a_node2"><a xlink:href="classimageblock.html#a9db5210c0a9c9870ddff47d71c019055" target="_top" xlink:title="imageblock::loadBlock">
<polygon fill="white" stroke="black" points="107,-0.5 107,-19.5 222,-19.5 222,-0.5 107,-0.5"/>
<text text-anchor="middle" x="164.5" y="-7.5" font-family="Helvetica,sans-Serif" font-size="10.00">imageblock::loadBlock</text>
</a>
</g>
</g>
<!-- Node1&#45;&gt;Node2 -->
<g id="edge1" class="edge"><title>Node1&#45;&gt;Node2</title>
<path fill="none" stroke="midnightblue" d="M81.3554,-10C89.6018,-10 98.3086,-10 106.848,-10"/>
<polygon fill="midnightblue" stroke="midnightblue" points="81.2033,-6.5001 71.2033,-10 81.2033,-13.5001 81.2033,-6.5001"/>
</g>
<!-- Node3 -->
<g id="node3" class="node"><title>Node3</title>
<g id="a_node3"><a xlink:href="classimageblock.html#af3b91e3daaa8014af1239f60da6b0bf5" target="_top" xlink:title="imageblock::processing">
<polygon fill="white" stroke="black" points="258,-0.5 258,-19.5 377,-19.5 377,-0.5 258,-0.5"/>
<text text-anchor="middle" x="317.5" y="-7.5" font-family="Helvetica,sans-Serif" font-size="10.00">imageblock::processing</text>
</a>
</g>
</g>
<!-- Node2&#45;&gt;Node3 -->
<g id="edge2" class="edge"><title>Node2&#45;&gt;Node3</title>
<path fill="none" stroke="midnightblue" d="M232.375,-10C240.835,-10 249.442,-10 257.762,-10"/>
<polygon fill="midnightblue" stroke="midnightblue" points="232.156,-6.5001 222.156,-10 232.156,-13.5001 232.156,-6.5001"/>
</g>
<!-- Node4 -->
<g id="node4" class="node"><title>Node4</title>
<g id="a_node4"><a xlink:href="classimage.html#ad5a9d767eca6f9bbb8dcb556527edf4d" target="_top" xlink:title="image::ProcessTiles">
<polygon fill="white" stroke="black" points="413,-0.5 413,-19.5 519,-19.5 519,-0.5 413,-0.5"/>
<text text-anchor="middle" x="466" y="-7.5" font-family="Helvetica,sans-Serif" font-size="10.00">image::ProcessTiles</text>
</a>
</g>
</g>
<!-- Node3&#45;&gt;Node4 -->
<g id="edge3" class="edge"><title>Node3&#45;&gt;Node4</title>
<path fill="none" stroke="midnightblue" d="M387.279,-10C395.884,-10 404.573,-10 412.866,-10"/>
<polygon fill="midnightblue" stroke="midnightblue" points="387.243,-6.5001 377.243,-10 387.243,-13.5001 387.243,-6.5001"/>
</g>
<!-- Node5 -->
<g id="node5" class="node"><title>Node5</title>
<g id="a_node5"><a xlink:href="classimage.html#a4689c56b85c46d48ea52f0c9fa13891e" target="_top" xlink:title="image::processing">
<polygon fill="white" stroke="black" points="555,-0.5 555,-19.5 651,-19.5 651,-0.5 555,-0.5"/>
<text text-anchor="middle" x="603" y="-7.5" font-family="Helvetica,sans-Serif" font-size="10.00">image::processing</text>
</a>
</g>
</g>
<!-- Node4&#45;&gt;Node5 -->
<g id="edge4" class="edge"><title>Node4&#45;&gt;Node5</title>
<path fill="none" stroke="midnightblue" d="M529.206,-10C537.809,-10 546.527,-10 554.797,-10"/>
<polygon fill="midnightblue" stroke="midnightblue" points="529.195,-6.5001 519.195,-10 529.194,-13.5001 529.195,-6.5001"/>
</g>
<!-- Node6 -->
<g id="node6" class="node"><title>Node6</title>
<g id="a_node6"><a xlink:href="class_main_window.html#a9a45eb9ebe6d27bcd23677d9fbb74dd8" target="_top" xlink:title="MainWindow::on_Go_clicked">
<polygon fill="white" stroke="black" points="687,-0.5 687,-19.5 830,-19.5 830,-0.5 687,-0.5"/>
<text text-anchor="middle" x="758.5" y="-7.5" font-family="Helvetica,sans-Serif" font-size="10.00">MainWindow::on_Go_clicked</text>
</a>
</g>
</g>
<!-- Node5&#45;&gt;Node6 -->
<g id="edge5" class="edge"><title>Node5&#45;&gt;Node6</title>
<path fill="none" stroke="midnightblue" d="M661.583,-10C669.853,-10 678.441,-10 686.928,-10"/>
<polygon fill="midnightblue" stroke="midnightblue" points="661.308,-6.5001 651.308,-10 661.308,-13.5001 661.308,-6.5001"/>
</g>
</g>
</svg>
