<?xml version="1.0" encoding="UTF-8" standalone="no"?>
<!DOCTYPE svg PUBLIC "-//W3C//DTD SVG 1.1//EN"
 "http://www.w3.org/Graphics/SVG/1.1/DTD/svg11.dtd">
<!-- Generated by graphviz version 2.38.0 (20140413.2041)
 -->
<!-- Title: Node::removeEdge Pages: 1 -->
<svg width="1161pt" height="104pt"
 viewBox="0.00 0.00 1161.00 104.00" xmlns="http://www.w3.org/2000/svg" xmlns:xlink="http://www.w3.org/1999/xlink">
<g id="graph0" class="graph" transform="scale(1 1) rotate(0) translate(4 100)">
<title>Node::removeEdge</title>
<polygon fill="white" stroke="none" points="-4,4 -4,-100 1157,-100 1157,4 -4,4"/>
<!-- Node298 -->
<g id="node1" class="node"><title>Node298</title>
<polygon fill="#bfbfbf" stroke="black" points="0,-38.5 0,-57.5 101,-57.5 101,-38.5 0,-38.5"/>
<text text-anchor="middle" x="50.5" y="-45.5" font-family="Helvetica,sans-Serif" font-size="10.00">Node::removeEdge</text>
</g>
<!-- Node299 -->
<g id="node2" class="node"><title>Node299</title>
<g id="a_node2"><a xlink:href="class_r_a_g.html#aa2de492a3df037db29b0e3ccab5251ee" target="_top" xlink:title="RAG::merge">
<polygon fill="white" stroke="black" points="137,-57.5 137,-76.5 208,-76.5 208,-57.5 137,-57.5"/>
<text text-anchor="middle" x="172.5" y="-64.5" font-family="Helvetica,sans-Serif" font-size="10.00">RAG::merge</text>
</a>
</g>
</g>
<!-- Node298&#45;&gt;Node299 -->
<g id="edge1" class="edge"><title>Node298&#45;&gt;Node299</title>
<path fill="none" stroke="midnightblue" d="M110.941,-57.4115C119.787,-58.8121 128.649,-60.2153 136.758,-61.4992"/>
<polygon fill="midnightblue" stroke="midnightblue" points="111.426,-53.9447 101.001,-55.8377 110.331,-60.8586 111.426,-53.9447"/>
</g>
<!-- Node300 -->
<g id="node3" class="node"><title>Node300</title>
<g id="a_node3"><a xlink:href="class_r_a_g.html#ab09eebb1b704d18b583d528e77f7604a" target="_top" xlink:title="RAG::regionMerging">
<polygon fill="white" stroke="black" points="244,-38.5 244,-57.5 349,-57.5 349,-38.5 244,-38.5"/>
<text text-anchor="middle" x="296.5" y="-45.5" font-family="Helvetica,sans-Serif" font-size="10.00">RAG::regionMerging</text>
</a>
</g>
</g>
<!-- Node298&#45;&gt;Node300 -->
<g id="edge14" class="edge"><title>Node298&#45;&gt;Node300</title>
<path fill="none" stroke="midnightblue" d="M111.207,-48C151.813,-48 205.001,-48 243.795,-48"/>
<polygon fill="midnightblue" stroke="midnightblue" points="111.171,-44.5001 101.171,-48 111.171,-51.5001 111.171,-44.5001"/>
</g>
<!-- Node299&#45;&gt;Node300 -->
<g id="edge2" class="edge"><title>Node299&#45;&gt;Node300</title>
<path fill="none" stroke="midnightblue" d="M218.103,-60.0537C226.496,-58.7466 235.336,-57.3698 243.921,-56.0328"/>
<polygon fill="midnightblue" stroke="midnightblue" points="217.476,-56.609 208.134,-61.6062 218.553,-63.5256 217.476,-56.609"/>
</g>
<!-- Node301 -->
<g id="node4" class="node"><title>Node301</title>
<g id="a_node4"><a xlink:href="classimage.html#a12343719e8d96a4bda9c5bd6c035d52a" target="_top" xlink:title="image::mergeBlockX">
<polygon fill="white" stroke="black" points="391,-76.5 391,-95.5 498,-95.5 498,-76.5 391,-76.5"/>
<text text-anchor="middle" x="444.5" y="-83.5" font-family="Helvetica,sans-Serif" font-size="10.00">image::mergeBlockX</text>
</a>
</g>
</g>
<!-- Node300&#45;&gt;Node301 -->
<g id="edge3" class="edge"><title>Node300&#45;&gt;Node301</title>
<path fill="none" stroke="midnightblue" d="M344.036,-60.1121C364.37,-65.4044 387.871,-71.5213 406.923,-76.4799"/>
<polygon fill="midnightblue" stroke="midnightblue" points="344.901,-56.7207 334.342,-57.589 343.138,-63.4951 344.901,-56.7207"/>
</g>
<!-- Node305 -->
<g id="node8" class="node"><title>Node305</title>
<g id="a_node8"><a xlink:href="classimage.html#aa21fc5a07af7528869425e750090b3b8" target="_top" xlink:title="image::mergeBlockY">
<polygon fill="white" stroke="black" points="391,-38.5 391,-57.5 498,-57.5 498,-38.5 391,-38.5"/>
<text text-anchor="middle" x="444.5" y="-45.5" font-family="Helvetica,sans-Serif" font-size="10.00">image::mergeBlockY</text>
</a>
</g>
</g>
<!-- Node300&#45;&gt;Node305 -->
<g id="edge7" class="edge"><title>Node300&#45;&gt;Node305</title>
<path fill="none" stroke="midnightblue" d="M359.631,-48C370.008,-48 380.685,-48 390.797,-48"/>
<polygon fill="midnightblue" stroke="midnightblue" points="359.385,-44.5001 349.385,-48 359.385,-51.5001 359.385,-44.5001"/>
</g>
<!-- Node307 -->
<g id="node10" class="node"><title>Node307</title>
<g id="a_node10"><a xlink:href="classimageblock.html#abcc69a8c00ad79067185c700463f8126" target="_top" xlink:title="imageblock::createBPT">
<polygon fill="white" stroke="black" points="385,-0.5 385,-19.5 504,-19.5 504,-0.5 385,-0.5"/>
<text text-anchor="middle" x="444.5" y="-7.5" font-family="Helvetica,sans-Serif" font-size="10.00">imageblock::createBPT</text>
</a>
</g>
</g>
<!-- Node300&#45;&gt;Node307 -->
<g id="edge10" class="edge"><title>Node300&#45;&gt;Node307</title>
<path fill="none" stroke="midnightblue" d="M344.036,-35.8879C364.37,-30.5956 387.871,-24.4787 406.923,-19.5201"/>
<polygon fill="midnightblue" stroke="midnightblue" points="343.138,-32.5049 334.342,-38.411 344.901,-39.2793 343.138,-32.5049"/>
</g>
<!-- Node302 -->
<g id="node5" class="node"><title>Node302</title>
<g id="a_node5"><a xlink:href="classimage.html#a83026280ad6cc713ec9489ff3bd9776e" target="_top" xlink:title="image::ProcessBoundaryX">
<polygon fill="white" stroke="black" points="709,-76.5 709,-95.5 842,-95.5 842,-76.5 709,-76.5"/>
<text text-anchor="middle" x="775.5" y="-83.5" font-family="Helvetica,sans-Serif" font-size="10.00">image::ProcessBoundaryX</text>
</a>
</g>
</g>
<!-- Node301&#45;&gt;Node302 -->
<g id="edge4" class="edge"><title>Node301&#45;&gt;Node302</title>
<path fill="none" stroke="midnightblue" d="M508.399,-86C565.829,-86 650.414,-86 708.728,-86"/>
<polygon fill="midnightblue" stroke="midnightblue" points="508.36,-82.5001 498.36,-86 508.36,-89.5001 508.36,-82.5001"/>
</g>
<!-- Node303 -->
<g id="node6" class="node"><title>Node303</title>
<g id="a_node6"><a xlink:href="classimage.html#a4689c56b85c46d48ea52f0c9fa13891e" target="_top" xlink:title="image::processing">
<polygon fill="white" stroke="black" points="878,-38.5 878,-57.5 974,-57.5 974,-38.5 878,-38.5"/>
<text text-anchor="middle" x="926" y="-45.5" font-family="Helvetica,sans-Serif" font-size="10.00">image::processing</text>
</a>
</g>
</g>
<!-- Node302&#45;&gt;Node303 -->
<g id="edge5" class="edge"><title>Node302&#45;&gt;Node303</title>
<path fill="none" stroke="midnightblue" d="M823.833,-73.8879C844.515,-68.5956 868.419,-62.4787 887.797,-57.5201"/>
<polygon fill="midnightblue" stroke="midnightblue" points="822.793,-70.5411 813.973,-76.411 824.528,-77.3226 822.793,-70.5411"/>
</g>
<!-- Node304 -->
<g id="node7" class="node"><title>Node304</title>
<g id="a_node7"><a xlink:href="class_main_window.html#a9a45eb9ebe6d27bcd23677d9fbb74dd8" target="_top" xlink:title="MainWindow::on_Go_clicked">
<polygon fill="white" stroke="black" points="1010,-38.5 1010,-57.5 1153,-57.5 1153,-38.5 1010,-38.5"/>
<text text-anchor="middle" x="1081.5" y="-45.5" font-family="Helvetica,sans-Serif" font-size="10.00">MainWindow::on_Go_clicked</text>
</a>
</g>
</g>
<!-- Node303&#45;&gt;Node304 -->
<g id="edge6" class="edge"><title>Node303&#45;&gt;Node304</title>
<path fill="none" stroke="midnightblue" d="M984.583,-48C992.853,-48 1001.44,-48 1009.93,-48"/>
<polygon fill="midnightblue" stroke="midnightblue" points="984.308,-44.5001 974.308,-48 984.308,-51.5001 984.308,-44.5001"/>
</g>
<!-- Node306 -->
<g id="node9" class="node"><title>Node306</title>
<g id="a_node9"><a xlink:href="classimage.html#adf6b8c126649c9a40387f12b5f5f07d5" target="_top" xlink:title="image::ProcessBoundaryY">
<polygon fill="white" stroke="black" points="540,-38.5 540,-57.5 673,-57.5 673,-38.5 540,-38.5"/>
<text text-anchor="middle" x="606.5" y="-45.5" font-family="Helvetica,sans-Serif" font-size="10.00">image::ProcessBoundaryY</text>
</a>
</g>
</g>
<!-- Node305&#45;&gt;Node306 -->
<g id="edge8" class="edge"><title>Node305&#45;&gt;Node306</title>
<path fill="none" stroke="midnightblue" d="M508.486,-48C518.798,-48 529.505,-48 539.879,-48"/>
<polygon fill="midnightblue" stroke="midnightblue" points="508.333,-44.5001 498.333,-48 508.333,-51.5001 508.333,-44.5001"/>
</g>
<!-- Node306&#45;&gt;Node303 -->
<g id="edge9" class="edge"><title>Node306&#45;&gt;Node303</title>
<path fill="none" stroke="midnightblue" d="M683.542,-48C743.982,-48 826.613,-48 877.853,-48"/>
<polygon fill="midnightblue" stroke="midnightblue" points="683.286,-44.5001 673.286,-48 683.286,-51.5001 683.286,-44.5001"/>
</g>
<!-- Node308 -->
<g id="node11" class="node"><title>Node308</title>
<g id="a_node11"><a xlink:href="classimageblock.html#af3b91e3daaa8014af1239f60da6b0bf5" target="_top" xlink:title="imageblock::processing">
<polygon fill="white" stroke="black" points="547,-0.5 547,-19.5 666,-19.5 666,-0.5 547,-0.5"/>
<text text-anchor="middle" x="606.5" y="-7.5" font-family="Helvetica,sans-Serif" font-size="10.00">imageblock::processing</text>
</a>
</g>
</g>
<!-- Node307&#45;&gt;Node308 -->
<g id="edge11" class="edge"><title>Node307&#45;&gt;Node308</title>
<path fill="none" stroke="midnightblue" d="M514.415,-10C525.217,-10 536.294,-10 546.838,-10"/>
<polygon fill="midnightblue" stroke="midnightblue" points="514.17,-6.5001 504.17,-10 514.17,-13.5001 514.17,-6.5001"/>
</g>
<!-- Node309 -->
<g id="node12" class="node"><title>Node309</title>
<g id="a_node12"><a xlink:href="classimage.html#ad5a9d767eca6f9bbb8dcb556527edf4d" target="_top" xlink:title="image::ProcessTiles">
<polygon fill="white" stroke="black" points="722.5,-0.5 722.5,-19.5 828.5,-19.5 828.5,-0.5 722.5,-0.5"/>
<text text-anchor="middle" x="775.5" y="-7.5" font-family="Helvetica,sans-Serif" font-size="10.00">image::ProcessTiles</text>
</a>
</g>
</g>
<!-- Node308&#45;&gt;Node309 -->
<g id="edge12" class="edge"><title>Node308&#45;&gt;Node309</title>
<path fill="none" stroke="midnightblue" d="M676.781,-10C691.994,-10 707.857,-10 722.267,-10"/>
<polygon fill="midnightblue" stroke="midnightblue" points="676.378,-6.5001 666.378,-10 676.378,-13.5001 676.378,-6.5001"/>
</g>
<!-- Node309&#45;&gt;Node303 -->
<g id="edge13" class="edge"><title>Node309&#45;&gt;Node303</title>
<path fill="none" stroke="midnightblue" d="M823.833,-22.1121C844.515,-27.4044 868.419,-33.5213 887.797,-38.4799"/>
<polygon fill="midnightblue" stroke="midnightblue" points="824.528,-18.6774 813.973,-19.589 822.793,-25.4589 824.528,-18.6774"/>
</g>
</g>
</svg>
