<?xml version="1.0" encoding="UTF-8" standalone="no"?>
<!DOCTYPE svg PUBLIC "-//W3C//DTD SVG 1.1//EN"
 "http://www.w3.org/Graphics/SVG/1.1/DTD/svg11.dtd">
<!-- Generated by graphviz version 2.38.0 (20140413.2041)
 -->
<!-- Title: EdgeHeap::heapifyUp Pages: 1 -->
<svg width="573pt" height="180pt"
 viewBox="0.00 0.00 573.00 180.00" xmlns="http://www.w3.org/2000/svg" xmlns:xlink="http://www.w3.org/1999/xlink">
<g id="graph0" class="graph" transform="scale(1 1) rotate(0) translate(4 176)">
<title>EdgeHeap::heapifyUp</title>
<polygon fill="white" stroke="none" points="-4,4 -4,-176 569,-176 569,4 -4,4"/>
<!-- Node1 -->
<g id="node1" class="node"><title>Node1</title>
<polygon fill="#bfbfbf" stroke="black" points="0,-76.5 0,-95.5 113,-95.5 113,-76.5 0,-76.5"/>
<text text-anchor="middle" x="56.5" y="-83.5" font-family="Helvetica,sans-Serif" font-size="10.00">EdgeHeap::heapifyUp</text>
</g>
<!-- Node2 -->
<g id="node2" class="node"><title>Node2</title>
<g id="a_node2"><a xlink:href="class_edge_heap.html#add248e35c4c2443246ff6c7cd654ae9f" target="_top" xlink:title="EdgeHeap::edgeComparator">
<polygon fill="white" stroke="black" points="149,-76.5 149,-95.5 289,-95.5 289,-76.5 149,-76.5"/>
<text text-anchor="middle" x="219" y="-83.5" font-family="Helvetica,sans-Serif" font-size="10.00">EdgeHeap::edgeComparator</text>
</a>
</g>
</g>
<!-- Node1&#45;&gt;Node2 -->
<g id="edge1" class="edge"><title>Node1&#45;&gt;Node2</title>
<path fill="none" stroke="midnightblue" d="M113.185,-86C121.449,-86 130.098,-86 138.733,-86"/>
<polygon fill="midnightblue" stroke="midnightblue" points="138.837,-89.5001 148.837,-86 138.837,-82.5001 138.837,-89.5001"/>
</g>
<!-- Node3 -->
<g id="node3" class="node"><title>Node3</title>
<g id="a_node3"><a xlink:href="class_node.html#a13467fc326459c1d607547b3e9470710" target="_top" xlink:title="Node::getArea">
<polygon fill="white" stroke="black" points="332.5,-152.5 332.5,-171.5 412.5,-171.5 412.5,-152.5 332.5,-152.5"/>
<text text-anchor="middle" x="372.5" y="-159.5" font-family="Helvetica,sans-Serif" font-size="10.00">Node::getArea</text>
</a>
</g>
</g>
<!-- Node2&#45;&gt;Node3 -->
<g id="edge2" class="edge"><title>Node2&#45;&gt;Node3</title>
<path fill="none" stroke="midnightblue" d="M236.44,-95.6545C256.867,-107.479 292.949,-127.808 325,-143 328.901,-144.849 333.032,-146.693 337.158,-148.466"/>
<polygon fill="midnightblue" stroke="midnightblue" points="336.09,-151.812 346.666,-152.439 338.789,-145.354 336.09,-151.812"/>
</g>
<!-- Node5 -->
<g id="node5" class="node"><title>Node5</title>
<g id="a_node5"><a xlink:href="class_edge.html#aaaa9cb49c141b310873cd75fd493e22d" target="_top" xlink:title="Edge::getNode1">
<polygon fill="white" stroke="black" points="329,-114.5 329,-133.5 416,-133.5 416,-114.5 329,-114.5"/>
<text text-anchor="middle" x="372.5" y="-121.5" font-family="Helvetica,sans-Serif" font-size="10.00">Edge::getNode1</text>
</a>
</g>
</g>
<!-- Node2&#45;&gt;Node5 -->
<g id="edge4" class="edge"><title>Node2&#45;&gt;Node5</title>
<path fill="none" stroke="midnightblue" d="M258.23,-95.589C278.132,-100.581 302.657,-106.732 323.791,-112.033"/>
<polygon fill="midnightblue" stroke="midnightblue" points="322.994,-115.442 333.545,-114.48 324.697,-108.652 322.994,-115.442"/>
</g>
<!-- Node6 -->
<g id="node6" class="node"><title>Node6</title>
<g id="a_node6"><a xlink:href="class_edge.html#a50017668f77ed019a5caceafbb1eb16f" target="_top" xlink:title="Edge::getNode2">
<polygon fill="white" stroke="black" points="329,-76.5 329,-95.5 416,-95.5 416,-76.5 329,-76.5"/>
<text text-anchor="middle" x="372.5" y="-83.5" font-family="Helvetica,sans-Serif" font-size="10.00">Edge::getNode2</text>
</a>
</g>
</g>
<!-- Node2&#45;&gt;Node6 -->
<g id="edge5" class="edge"><title>Node2&#45;&gt;Node6</title>
<path fill="none" stroke="midnightblue" d="M289.1,-86C299.072,-86 309.199,-86 318.782,-86"/>
<polygon fill="midnightblue" stroke="midnightblue" points="318.935,-89.5001 328.935,-86 318.935,-82.5001 318.935,-89.5001"/>
</g>
<!-- Node7 -->
<g id="node7" class="node"><title>Node7</title>
<g id="a_node7"><a xlink:href="class_node.html#aa3512938403662345b64049920d1cdaf" target="_top" xlink:title="Node::getPosition">
<polygon fill="white" stroke="black" points="325,-38.5 325,-57.5 420,-57.5 420,-38.5 325,-38.5"/>
<text text-anchor="middle" x="372.5" y="-45.5" font-family="Helvetica,sans-Serif" font-size="10.00">Node::getPosition</text>
</a>
</g>
</g>
<!-- Node2&#45;&gt;Node7 -->
<g id="edge6" class="edge"><title>Node2&#45;&gt;Node7</title>
<path fill="none" stroke="midnightblue" d="M258.23,-76.411C278.132,-71.4191 302.657,-65.2676 323.791,-59.9666"/>
<polygon fill="midnightblue" stroke="midnightblue" points="324.697,-63.3479 333.545,-57.5201 322.994,-56.5582 324.697,-63.3479"/>
</g>
<!-- Node8 -->
<g id="node8" class="node"><title>Node8</title>
<g id="a_node8"><a xlink:href="class_edge.html#a3a776c1ccafacdbdb10fdedd9cb329af" target="_top" xlink:title="Edge::getWeight">
<polygon fill="white" stroke="black" points="328,-0.5 328,-19.5 417,-19.5 417,-0.5 328,-0.5"/>
<text text-anchor="middle" x="372.5" y="-7.5" font-family="Helvetica,sans-Serif" font-size="10.00">Edge::getWeight</text>
</a>
</g>
</g>
<!-- Node2&#45;&gt;Node8 -->
<g id="edge7" class="edge"><title>Node2&#45;&gt;Node8</title>
<path fill="none" stroke="midnightblue" d="M236.44,-76.3455C256.867,-64.5206 292.949,-44.1916 325,-29 328.901,-27.1511 333.032,-25.3068 337.158,-23.5345"/>
<polygon fill="midnightblue" stroke="midnightblue" points="338.789,-26.6464 346.666,-19.5614 336.09,-20.1875 338.789,-26.6464"/>
</g>
<!-- Node4 -->
<g id="node4" class="node"><title>Node4</title>
<g id="a_node4"><a xlink:href="classregion_model.html#a56b1a22f355e85211760055c7559cd1e" target="_top" xlink:title="regionModel::getArea">
<polygon fill="white" stroke="black" points="456,-152.5 456,-171.5 565,-171.5 565,-152.5 456,-152.5"/>
<text text-anchor="middle" x="510.5" y="-159.5" font-family="Helvetica,sans-Serif" font-size="10.00">regionModel::getArea</text>
</a>
</g>
</g>
<!-- Node3&#45;&gt;Node4 -->
<g id="edge3" class="edge"><title>Node3&#45;&gt;Node4</title>
<path fill="none" stroke="midnightblue" d="M412.837,-162C423.108,-162 434.446,-162 445.635,-162"/>
<polygon fill="midnightblue" stroke="midnightblue" points="445.833,-165.5 455.833,-162 445.833,-158.5 445.833,-165.5"/>
</g>
</g>
</svg>
