<?xml version="1.0" encoding="UTF-8" standalone="no"?>
<!DOCTYPE svg PUBLIC "-//W3C//DTD SVG 1.1//EN"
 "http://www.w3.org/Graphics/SVG/1.1/DTD/svg11.dtd">
<!-- Generated by graphviz version 2.38.0 (20140413.2041)
 -->
<!-- Title: histogramModel::getMeanSpectrumAt Pages: 1 -->
<svg width="565pt" height="66pt"
 viewBox="0.00 0.00 565.00 66.00" xmlns="http://www.w3.org/2000/svg" xmlns:xlink="http://www.w3.org/1999/xlink">
<g id="graph0" class="graph" transform="scale(1 1) rotate(0) translate(4 62)">
<title>histogramModel::getMeanSpectrumAt</title>
<polygon fill="white" stroke="none" points="-4,4 -4,-62 561,-62 561,4 -4,4"/>
<!-- Node32 -->
<g id="node1" class="node"><title>Node32</title>
<polygon fill="#bfbfbf" stroke="black" points="0,-19.5 0,-38.5 181,-38.5 181,-19.5 0,-19.5"/>
<text text-anchor="middle" x="90.5" y="-26.5" font-family="Helvetica,sans-Serif" font-size="10.00">histogramModel::getMeanSpectrumAt</text>
</g>
<!-- Node33 -->
<g id="node2" class="node"><title>Node33</title>
<g id="a_node2"><a xlink:href="classcompound_model.html#ac753a0474a8917e00968e8c38b8c67bc" target="_top" xlink:title="compoundModel::getMeanSpectrumAt">
<polygon fill="white" stroke="black" points="217,-38.5 217,-57.5 400,-57.5 400,-38.5 217,-38.5"/>
<text text-anchor="middle" x="308.5" y="-45.5" font-family="Helvetica,sans-Serif" font-size="10.00">compoundModel::getMeanSpectrumAt</text>
</a>
</g>
</g>
<!-- Node32&#45;&gt;Node33 -->
<g id="edge1" class="edge"><title>Node32&#45;&gt;Node33</title>
<path fill="none" stroke="midnightblue" d="M191.439,-37.7909C199.849,-38.5307 208.325,-39.2763 216.661,-40.0095"/>
<polygon fill="midnightblue" stroke="midnightblue" points="191.495,-34.2824 181.227,-36.8926 190.882,-41.2555 191.495,-34.2824"/>
</g>
<!-- Node34 -->
<g id="node3" class="node"><title>Node34</title>
<g id="a_node3"><a xlink:href="classhistogram_model.html#a2a84442dd0292f62b6ef0b35ea033790" target="_top" xlink:title="histogramModel::merge">
<polygon fill="white" stroke="black" points="249,-0.5 249,-19.5 368,-19.5 368,-0.5 249,-0.5"/>
<text text-anchor="middle" x="308.5" y="-7.5" font-family="Helvetica,sans-Serif" font-size="10.00">histogramModel::merge</text>
</a>
</g>
</g>
<!-- Node32&#45;&gt;Node34 -->
<g id="edge2" class="edge"><title>Node32&#45;&gt;Node34</title>
<path fill="none" stroke="midnightblue" d="M191.456,-20.2076C211.104,-18.4792 231.11,-16.7195 248.853,-15.1588"/>
<polygon fill="midnightblue" stroke="midnightblue" points="190.882,-16.7445 181.227,-21.1074 191.495,-23.7176 190.882,-16.7445"/>
</g>
<!-- Node35 -->
<g id="node4" class="node"><title>Node35</title>
<g id="a_node4"><a xlink:href="classcompound_model.html#a3a4f1be5ccd6230918036dcc56328033" target="_top" xlink:title="compoundModel::merge">
<polygon fill="white" stroke="black" points="436,-0.5 436,-19.5 557,-19.5 557,-0.5 436,-0.5"/>
<text text-anchor="middle" x="496.5" y="-7.5" font-family="Helvetica,sans-Serif" font-size="10.00">compoundModel::merge</text>
</a>
</g>
</g>
<!-- Node34&#45;&gt;Node35 -->
<g id="edge3" class="edge"><title>Node34&#45;&gt;Node35</title>
<path fill="none" stroke="midnightblue" d="M378.157,-10C397.113,-10 417.522,-10 435.918,-10"/>
<polygon fill="midnightblue" stroke="midnightblue" points="378.096,-6.5001 368.096,-10 378.096,-13.5001 378.096,-6.5001"/>
</g>
</g>
</svg>
