<?xml version="1.0" encoding="UTF-8" standalone="no"?>
<!DOCTYPE svg PUBLIC "-//W3C//DTD SVG 1.1//EN"
 "http://www.w3.org/Graphics/SVG/1.1/DTD/svg11.dtd">
<!-- Generated by graphviz version 2.38.0 (20140413.2041)
 -->
<!-- Title: Node::getMeanSpectrum Pages: 1 -->
<svg width="1108pt" height="104pt"
 viewBox="0.00 0.00 1108.00 104.00" xmlns="http://www.w3.org/2000/svg" xmlns:xlink="http://www.w3.org/1999/xlink">
<g id="graph0" class="graph" transform="scale(1 1) rotate(0) translate(4 100)">
<title>Node::getMeanSpectrum</title>
<polygon fill="white" stroke="none" points="-4,4 -4,-100 1104,-100 1104,4 -4,4"/>
<!-- Node1 -->
<g id="node1" class="node"><title>Node1</title>
<polygon fill="#bfbfbf" stroke="black" points="0,-38.5 0,-57.5 125,-57.5 125,-38.5 0,-38.5"/>
<text text-anchor="middle" x="62.5" y="-45.5" font-family="Helvetica,sans-Serif" font-size="10.00">Node::getMeanSpectrum</text>
</g>
<!-- Node2 -->
<g id="node2" class="node"><title>Node2</title>
<g id="a_node2"><a xlink:href="classio.html#a4cca3fdf98e917cac1b3e776c7634aec" target="_top" xlink:title="io::writeBoarderNodeToCSV">
<polygon fill="white" stroke="black" points="161,-38.5 161,-57.5 301,-57.5 301,-38.5 161,-38.5"/>
<text text-anchor="middle" x="231" y="-45.5" font-family="Helvetica,sans-Serif" font-size="10.00">io::writeBoarderNodeToCSV</text>
</a>
</g>
</g>
<!-- Node1&#45;&gt;Node2 -->
<g id="edge1" class="edge"><title>Node1&#45;&gt;Node2</title>
<path fill="none" stroke="midnightblue" d="M135.277,-48C143.767,-48 152.419,-48 160.871,-48"/>
<polygon fill="midnightblue" stroke="midnightblue" points="135.025,-44.5001 125.025,-48 135.025,-51.5001 135.025,-44.5001"/>
</g>
<!-- Node3 -->
<g id="node3" class="node"><title>Node3</title>
<g id="a_node3"><a xlink:href="classimageblock.html#adbafde60f699582250656ddc2ebe82e2" target="_top" xlink:title="imageblock::saveToDisk">
<polygon fill="white" stroke="black" points="352,-76.5 352,-95.5 477,-95.5 477,-76.5 352,-76.5"/>
<text text-anchor="middle" x="414.5" y="-83.5" font-family="Helvetica,sans-Serif" font-size="10.00">imageblock::saveToDisk</text>
</a>
</g>
</g>
<!-- Node2&#45;&gt;Node3 -->
<g id="edge2" class="edge"><title>Node2&#45;&gt;Node3</title>
<path fill="none" stroke="midnightblue" d="M287.792,-59.681C313.531,-65.0699 343.699,-71.3861 368.029,-76.4799"/>
<polygon fill="midnightblue" stroke="midnightblue" points="288.305,-56.2126 277.8,-57.589 286.871,-63.064 288.305,-56.2126"/>
</g>
<!-- Node8 -->
<g id="node8" class="node"><title>Node8</title>
<g id="a_node8"><a xlink:href="classimage.html#a8a4c71e9c53353a4c65bb5f17122a9f4" target="_top" xlink:title="image::saveToDisk">
<polygon fill="white" stroke="black" points="364,-38.5 364,-57.5 465,-57.5 465,-38.5 364,-38.5"/>
<text text-anchor="middle" x="414.5" y="-45.5" font-family="Helvetica,sans-Serif" font-size="10.00">image::saveToDisk</text>
</a>
</g>
</g>
<!-- Node2&#45;&gt;Node8 -->
<g id="edge7" class="edge"><title>Node2&#45;&gt;Node8</title>
<path fill="none" stroke="midnightblue" d="M311.5,-48C329.255,-48 347.593,-48 363.739,-48"/>
<polygon fill="midnightblue" stroke="midnightblue" points="311.135,-44.5001 301.135,-48 311.135,-51.5001 311.135,-44.5001"/>
</g>
<!-- Node9 -->
<g id="node9" class="node"><title>Node9</title>
<g id="a_node9"><a xlink:href="classio.html#ac201c9bbc67dbfcbde52a061462f4ced" target="_top" xlink:title="io::writeBoarderNodeSetToCSV">
<polygon fill="white" stroke="black" points="337,-0.5 337,-19.5 492,-19.5 492,-0.5 337,-0.5"/>
<text text-anchor="middle" x="414.5" y="-7.5" font-family="Helvetica,sans-Serif" font-size="10.00">io::writeBoarderNodeSetToCSV</text>
</a>
</g>
</g>
<!-- Node2&#45;&gt;Node9 -->
<g id="edge8" class="edge"><title>Node2&#45;&gt;Node9</title>
<path fill="none" stroke="midnightblue" d="M287.792,-36.319C313.531,-30.9301 343.699,-24.6139 368.029,-19.5201"/>
<polygon fill="midnightblue" stroke="midnightblue" points="286.871,-32.936 277.8,-38.411 288.305,-39.7874 286.871,-32.936"/>
</g>
<!-- Node4 -->
<g id="node4" class="node"><title>Node4</title>
<g id="a_node4"><a xlink:href="classimageblock.html#af3b91e3daaa8014af1239f60da6b0bf5" target="_top" xlink:title="imageblock::processing">
<polygon fill="white" stroke="black" points="528,-76.5 528,-95.5 647,-95.5 647,-76.5 528,-76.5"/>
<text text-anchor="middle" x="587.5" y="-83.5" font-family="Helvetica,sans-Serif" font-size="10.00">imageblock::processing</text>
</a>
</g>
</g>
<!-- Node3&#45;&gt;Node4 -->
<g id="edge3" class="edge"><title>Node3&#45;&gt;Node4</title>
<path fill="none" stroke="midnightblue" d="M487.457,-86C500.972,-86 514.951,-86 527.995,-86"/>
<polygon fill="midnightblue" stroke="midnightblue" points="487.235,-82.5001 477.235,-86 487.235,-89.5001 487.235,-82.5001"/>
</g>
<!-- Node5 -->
<g id="node5" class="node"><title>Node5</title>
<g id="a_node5"><a xlink:href="classimage.html#ad5a9d767eca6f9bbb8dcb556527edf4d" target="_top" xlink:title="image::ProcessTiles">
<polygon fill="white" stroke="black" points="683,-76.5 683,-95.5 789,-95.5 789,-76.5 683,-76.5"/>
<text text-anchor="middle" x="736" y="-83.5" font-family="Helvetica,sans-Serif" font-size="10.00">image::ProcessTiles</text>
</a>
</g>
</g>
<!-- Node4&#45;&gt;Node5 -->
<g id="edge4" class="edge"><title>Node4&#45;&gt;Node5</title>
<path fill="none" stroke="midnightblue" d="M657.279,-86C665.884,-86 674.573,-86 682.866,-86"/>
<polygon fill="midnightblue" stroke="midnightblue" points="657.243,-82.5001 647.243,-86 657.243,-89.5001 657.243,-82.5001"/>
</g>
<!-- Node6 -->
<g id="node6" class="node"><title>Node6</title>
<g id="a_node6"><a xlink:href="classimage.html#a4689c56b85c46d48ea52f0c9fa13891e" target="_top" xlink:title="image::processing">
<polygon fill="white" stroke="black" points="825,-76.5 825,-95.5 921,-95.5 921,-76.5 825,-76.5"/>
<text text-anchor="middle" x="873" y="-83.5" font-family="Helvetica,sans-Serif" font-size="10.00">image::processing</text>
</a>
</g>
</g>
<!-- Node5&#45;&gt;Node6 -->
<g id="edge5" class="edge"><title>Node5&#45;&gt;Node6</title>
<path fill="none" stroke="midnightblue" d="M799.206,-86C807.809,-86 816.527,-86 824.797,-86"/>
<polygon fill="midnightblue" stroke="midnightblue" points="799.195,-82.5001 789.195,-86 799.194,-89.5001 799.195,-82.5001"/>
</g>
<!-- Node7 -->
<g id="node7" class="node"><title>Node7</title>
<g id="a_node7"><a xlink:href="class_main_window.html#a9a45eb9ebe6d27bcd23677d9fbb74dd8" target="_top" xlink:title="MainWindow::on_Go_clicked">
<polygon fill="white" stroke="black" points="957,-76.5 957,-95.5 1100,-95.5 1100,-76.5 957,-76.5"/>
<text text-anchor="middle" x="1028.5" y="-83.5" font-family="Helvetica,sans-Serif" font-size="10.00">MainWindow::on_Go_clicked</text>
</a>
</g>
</g>
<!-- Node6&#45;&gt;Node7 -->
<g id="edge6" class="edge"><title>Node6&#45;&gt;Node7</title>
<path fill="none" stroke="midnightblue" d="M931.583,-86C939.853,-86 948.441,-86 956.928,-86"/>
<polygon fill="midnightblue" stroke="midnightblue" points="931.308,-82.5001 921.308,-86 931.308,-89.5001 931.308,-82.5001"/>
</g>
</g>
</svg>
