<?xml version="1.0" encoding="UTF-8" standalone="no"?>
<!DOCTYPE svg PUBLIC "-//W3C//DTD SVG 1.1//EN"
 "http://www.w3.org/Graphics/SVG/1.1/DTD/svg11.dtd">
<!-- Generated by graphviz version 2.38.0 (20140413.2041)
 -->
<!-- Title: Node::setPosition Pages: 1 -->
<!--zoomable 85 -->
<svg id="main" version="1.1" xmlns="http://www.w3.org/2000/svg" xmlns:xlink="http://www.w3.org/1999/xlink" xml:space="preserve" onload="init(evt)">
<style type="text/css"><![CDATA[
.edge:hover path { stroke: red; }
.edge:hover polygon { stroke: red; fill: red; }
]]></style>
<script type="text/javascript"><![CDATA[
var edges = document.getElementsByTagName('g');
if (edges && edges.length) {
  for (var i=0;i<edges.length;i++) {
    if (edges[i].id.substr(0,4)=='edge') {
      edges[i].setAttribute('class','edge');
    }
  }
}
]]></script>
        <defs>
                <circle id="rim" cx="0" cy="0" r="7"/>
                <circle id="rim2" cx="0" cy="0" r="3.5"/>
                <g id="zoomPlus">
                        <use xlink:href="#rim" fill="#404040">
                                <set attributeName="fill" to="#808080" begin="zoomplus.mouseover" end="zoomplus.mouseout"/>
                        </use>
                        <path d="M-4,0h8M0,-4v8" fill="none" stroke="white" stroke-width="1.5" pointer-events="none"/>
                </g>
                <g id="zoomMin">
                        <use xlink:href="#rim" fill="#404040">
                                <set attributeName="fill" to="#808080" begin="zoomminus.mouseover" end="zoomminus.mouseout"/>
                        </use>
                        <path d="M-4,0h8" fill="none" stroke="white" stroke-width="1.5" pointer-events="none"/>
                </g>
                <g id="dirArrow">
                        <path fill="none" stroke="white" stroke-width="1.5" d="M0,-3.0v7 M-2.5,-0.5L0,-3.0L2.5,-0.5"/>
                </g>
               <g id="resetDef">
                       <use xlink:href="#rim2" fill="#404040">
                               <set attributeName="fill" to="#808080" begin="reset.mouseover" end="reset.mouseout"/>
                       </use>
               </g>
        </defs>

<script type="text/javascript">
var viewWidth = 915;
var viewHeight = 85;
var sectionId = 'dynsection-37';
</script>
<script xlink:href="svgpan.js"/>
<svg id="graph" class="graph">
<g id="viewport">
<title>Node::setPosition</title>
<polygon fill="white" stroke="none" points="-4,4 -4,-81 911,-81 911,4 -4,4"/>
<!-- Node393 -->
<g id="node1" class="node"><title>Node393</title>
<polygon fill="#bfbfbf" stroke="black" points="0,-38.5 0,-57.5 95,-57.5 95,-38.5 0,-38.5"/>
<text text-anchor="middle" x="47.5" y="-45.5" font-family="Helvetica,sans-Serif" font-size="10.00">Node::setPosition</text>
</g>
<!-- Node394 -->
<g id="node2" class="node"><title>Node394</title>
<g id="a_node2"><a xlink:href="classinitializer.html#ac5edfb9421710ba998db242a96e38393" target="_top" xlink:title="initializer::createNodeMatrix">
<polygon fill="white" stroke="black" points="138.5,-57.5 138.5,-76.5 276.5,-76.5 276.5,-57.5 138.5,-57.5"/>
<text text-anchor="middle" x="207.5" y="-64.5" font-family="Helvetica,sans-Serif" font-size="10.00">initializer::createNodeMatrix</text>
</a>
</g>
</g>
<!-- Node393&#45;&gt;Node394 -->
<g id="edge1" class="edge"><title>Node393&#45;&gt;Node394</title>
<path fill="none" stroke="midnightblue" d="M105.148,-54.8121C115.902,-56.1053 127.258,-57.4709 138.326,-58.8018"/>
<polygon fill="midnightblue" stroke="midnightblue" points="105.397,-51.3169 95.0506,-53.5979 104.561,-58.2668 105.397,-51.3169"/>
</g>
<!-- Node395 -->
<g id="node3" class="node"><title>Node395</title>
<g id="a_node3"><a xlink:href="classimage.html#a96cc6f2b2f3b5c2e283623872ada5fc7" target="_top" xlink:title="image::selectBoarderSegments">
<polygon fill="white" stroke="black" points="131,-19.5 131,-38.5 284,-38.5 284,-19.5 131,-19.5"/>
<text text-anchor="middle" x="207.5" y="-26.5" font-family="Helvetica,sans-Serif" font-size="10.00">image::selectBoarderSegments</text>
</a>
</g>
</g>
<!-- Node393&#45;&gt;Node395 -->
<g id="edge2" class="edge"><title>Node393&#45;&gt;Node395</title>
<path fill="none" stroke="midnightblue" d="M105.079,-41.1962C113.473,-40.1868 122.235,-39.1331 130.942,-38.0861"/>
<polygon fill="midnightblue" stroke="midnightblue" points="104.561,-37.7332 95.0506,-42.4021 105.397,-44.6831 104.561,-37.7332"/>
</g>
<!-- Node396 -->
<g id="node4" class="node"><title>Node396</title>
<g id="a_node4"><a xlink:href="classimage.html#a12343719e8d96a4bda9c5bd6c035d52a" target="_top" xlink:title="image::mergeBlockX">
<polygon fill="white" stroke="black" points="320,-38.5 320,-57.5 427,-57.5 427,-38.5 320,-38.5"/>
<text text-anchor="middle" x="373.5" y="-45.5" font-family="Helvetica,sans-Serif" font-size="10.00">image::mergeBlockX</text>
</a>
</g>
</g>
<!-- Node395&#45;&gt;Node396 -->
<g id="edge3" class="edge"><title>Node395&#45;&gt;Node396</title>
<path fill="none" stroke="midnightblue" d="M294.334,-38.9442C302.914,-39.9382 311.437,-40.9257 319.528,-41.863"/>
<polygon fill="midnightblue" stroke="midnightblue" points="294.596,-35.4512 284.259,-37.777 293.79,-42.4047 294.596,-35.4512"/>
</g>
<!-- Node400 -->
<g id="node8" class="node"><title>Node400</title>
<g id="a_node8"><a xlink:href="classimage.html#aa21fc5a07af7528869425e750090b3b8" target="_top" xlink:title="image::mergeBlockY">
<polygon fill="white" stroke="black" points="320,-0.5 320,-19.5 427,-19.5 427,-0.5 320,-0.5"/>
<text text-anchor="middle" x="373.5" y="-7.5" font-family="Helvetica,sans-Serif" font-size="10.00">image::mergeBlockY</text>
</a>
</g>
</g>
<!-- Node395&#45;&gt;Node400 -->
<g id="edge7" class="edge"><title>Node395&#45;&gt;Node400</title>
<path fill="none" stroke="midnightblue" d="M294.334,-19.0558C302.914,-18.0618 311.437,-17.0743 319.528,-16.137"/>
<polygon fill="midnightblue" stroke="midnightblue" points="293.79,-15.5953 284.259,-20.223 294.596,-22.5488 293.79,-15.5953"/>
</g>
<!-- Node397 -->
<g id="node5" class="node"><title>Node397</title>
<g id="a_node5"><a xlink:href="classimage.html#a83026280ad6cc713ec9489ff3bd9776e" target="_top" xlink:title="image::ProcessBoundaryX">
<polygon fill="white" stroke="black" points="463,-38.5 463,-57.5 596,-57.5 596,-38.5 463,-38.5"/>
<text text-anchor="middle" x="529.5" y="-45.5" font-family="Helvetica,sans-Serif" font-size="10.00">image::ProcessBoundaryX</text>
</a>
</g>
</g>
<!-- Node396&#45;&gt;Node397 -->
<g id="edge4" class="edge"><title>Node396&#45;&gt;Node397</title>
<path fill="none" stroke="midnightblue" d="M437.216,-48C445.656,-48 454.334,-48 462.824,-48"/>
<polygon fill="midnightblue" stroke="midnightblue" points="437.067,-44.5001 427.067,-48 437.067,-51.5001 437.067,-44.5001"/>
</g>
<!-- Node398 -->
<g id="node6" class="node"><title>Node398</title>
<g id="a_node6"><a xlink:href="classimage.html#a4689c56b85c46d48ea52f0c9fa13891e" target="_top" xlink:title="image::processing">
<polygon fill="white" stroke="black" points="632,-19.5 632,-38.5 728,-38.5 728,-19.5 632,-19.5"/>
<text text-anchor="middle" x="680" y="-26.5" font-family="Helvetica,sans-Serif" font-size="10.00">image::processing</text>
</a>
</g>
</g>
<!-- Node397&#45;&gt;Node398 -->
<g id="edge5" class="edge"><title>Node397&#45;&gt;Node398</title>
<path fill="none" stroke="midnightblue" d="M606.207,-38.3136C614.858,-37.2067 623.483,-36.1032 631.612,-35.0631"/>
<polygon fill="midnightblue" stroke="midnightblue" points="605.541,-34.8701 596.067,-39.611 606.43,-41.8135 605.541,-34.8701"/>
</g>
<!-- Node399 -->
<g id="node7" class="node"><title>Node399</title>
<g id="a_node7"><a xlink:href="class_main_window.html#a9a45eb9ebe6d27bcd23677d9fbb74dd8" target="_top" xlink:title="MainWindow::on_Go_clicked">
<polygon fill="white" stroke="black" points="764,-19.5 764,-38.5 907,-38.5 907,-19.5 764,-19.5"/>
<text text-anchor="middle" x="835.5" y="-26.5" font-family="Helvetica,sans-Serif" font-size="10.00">MainWindow::on_Go_clicked</text>
</a>
</g>
</g>
<!-- Node398&#45;&gt;Node399 -->
<g id="edge6" class="edge"><title>Node398&#45;&gt;Node399</title>
<path fill="none" stroke="midnightblue" d="M738.583,-29C746.853,-29 755.441,-29 763.928,-29"/>
<polygon fill="midnightblue" stroke="midnightblue" points="738.308,-25.5001 728.308,-29 738.308,-32.5001 738.308,-25.5001"/>
</g>
<!-- Node401 -->
<g id="node9" class="node"><title>Node401</title>
<g id="a_node9"><a xlink:href="classimage.html#adf6b8c126649c9a40387f12b5f5f07d5" target="_top" xlink:title="image::ProcessBoundaryY">
<polygon fill="white" stroke="black" points="463,-0.5 463,-19.5 596,-19.5 596,-0.5 463,-0.5"/>
<text text-anchor="middle" x="529.5" y="-7.5" font-family="Helvetica,sans-Serif" font-size="10.00">image::ProcessBoundaryY</text>
</a>
</g>
</g>
<!-- Node400&#45;&gt;Node401 -->
<g id="edge8" class="edge"><title>Node400&#45;&gt;Node401</title>
<path fill="none" stroke="midnightblue" d="M437.216,-10C445.656,-10 454.334,-10 462.824,-10"/>
<polygon fill="midnightblue" stroke="midnightblue" points="437.067,-6.5001 427.067,-10 437.067,-13.5001 437.067,-6.5001"/>
</g>
<!-- Node401&#45;&gt;Node398 -->
<g id="edge9" class="edge"><title>Node401&#45;&gt;Node398</title>
<path fill="none" stroke="midnightblue" d="M606.207,-19.6864C614.858,-20.7933 623.483,-21.8968 631.612,-22.9369"/>
<polygon fill="midnightblue" stroke="midnightblue" points="606.43,-16.1865 596.067,-18.389 605.541,-23.1299 606.43,-16.1865"/>
</g>
</g>
</svg>
        <g id="navigator" transform="translate(0 0)" fill="#404254">
                <rect fill="#f2f5e9" fill-opacity="0.5" stroke="#606060" stroke-width=".5" x="0" y="0" width="60" height="60"/>
                <use id="zoomplus" xlink:href="#zoomPlus" x="17" y="9" onmousedown="handleZoom(evt,'in')"/>
                <use id="zoomminus" xlink:href="#zoomMin" x="42" y="9" onmousedown="handleZoom(evt,'out')"/>
                <use id="reset" xlink:href="#resetDef" x="30" y="36" onmousedown="handleReset()"/>
                <g id="arrowUp" xlink:href="#dirArrow" transform="translate(30 24)" onmousedown="handlePan(0,-1)">
                  <use xlink:href="#rim" fill="#404040">
                        <set attributeName="fill" to="#808080" begin="arrowUp.mouseover" end="arrowUp.mouseout"/>
                  </use>
                  <path fill="none" stroke="white" stroke-width="1.5" d="M0,-3.0v7 M-2.5,-0.5L0,-3.0L2.5,-0.5"/>
                </g>
                <g id="arrowRight" xlink:href="#dirArrow" transform="rotate(90) translate(36 -43)" onmousedown="handlePan(1,0)">
                  <use xlink:href="#rim" fill="#404040">
                        <set attributeName="fill" to="#808080" begin="arrowRight.mouseover" end="arrowRight.mouseout"/>
                  </use>
                  <path fill="none" stroke="white" stroke-width="1.5" d="M0,-3.0v7 M-2.5,-0.5L0,-3.0L2.5,-0.5"/>
                </g>
                <g id="arrowDown" xlink:href="#dirArrow" transform="rotate(180) translate(-30 -48)" onmousedown="handlePan(0,1)">
                  <use xlink:href="#rim" fill="#404040">
                        <set attributeName="fill" to="#808080" begin="arrowDown.mouseover" end="arrowDown.mouseout"/>
                  </use>
                  <path fill="none" stroke="white" stroke-width="1.5" d="M0,-3.0v7 M-2.5,-0.5L0,-3.0L2.5,-0.5"/>
                </g>
                <g id="arrowLeft" xlink:href="#dirArrow" transform="rotate(270) translate(-36 17)" onmousedown="handlePan(-1,0)">
                  <use xlink:href="#rim" fill="#404040">
                        <set attributeName="fill" to="#808080" begin="arrowLeft.mouseover" end="arrowLeft.mouseout"/>
                  </use>
                  <path fill="none" stroke="white" stroke-width="1.5" d="M0,-3.0v7 M-2.5,-0.5L0,-3.0L2.5,-0.5"/>
                </g>
        </g>
        <svg viewBox="0 0 15 15" width="100%" height="30px" preserveAspectRatio="xMaxYMin meet">
         <g id="arrow_out" transform="scale(0.3 0.3)">
          <a xlink:href="class_node_a2bfcbd3b82b596744f81432f1824d522_icgraph_org.svg" target="_base">
           <rect id="button" ry="5" rx="5" y="6" x="6" height="38" width="38"
                fill="#f2f5e9" fill-opacity="0.5" stroke="#606060" stroke-width="1.0"/>
           <path id="arrow"
             d="M 11.500037,31.436501 C 11.940474,20.09759 22.043105,11.32322 32.158766,21.979434 L 37.068811,17.246167 C 37.068811,17.246167 37.088388,32 37.088388,32 L 22.160133,31.978069 C 22.160133,31.978069 26.997745,27.140456 26.997745,27.140456 C 18.528582,18.264221 13.291696,25.230495 11.500037,31.436501 z"
             style="fill:#404040;"/>
          </a>
         </g>
        </svg>
</svg>
