<?xml version="1.0" encoding="UTF-8" standalone="no"?>
<!DOCTYPE svg PUBLIC "-//W3C//DTD SVG 1.1//EN"
 "http://www.w3.org/Graphics/SVG/1.1/DTD/svg11.dtd">
<!-- Generated by graphviz version 2.38.0 (20140413.2041)
 -->
<!-- Title: image::ComputeCircle Pages: 1 -->
<svg width="602pt" height="66pt"
 viewBox="0.00 0.00 602.00 66.00" xmlns="http://www.w3.org/2000/svg" xmlns:xlink="http://www.w3.org/1999/xlink">
<g id="graph0" class="graph" transform="scale(1 1) rotate(0) translate(4 62)">
<title>image::ComputeCircle</title>
<polygon fill="white" stroke="none" points="-4,4 -4,-62 598,-62 598,4 -4,4"/>
<!-- Node1 -->
<g id="node1" class="node"><title>Node1</title>
<polygon fill="#bfbfbf" stroke="black" points="0,-19.5 0,-38.5 114,-38.5 114,-19.5 0,-19.5"/>
<text text-anchor="middle" x="57" y="-26.5" font-family="Helvetica,sans-Serif" font-size="10.00">image::ComputeCircle</text>
</g>
<!-- Node2 -->
<g id="node2" class="node"><title>Node2</title>
<g id="a_node2"><a xlink:href="classimage.html#a83026280ad6cc713ec9489ff3bd9776e" target="_top" xlink:title="image::ProcessBoundaryX">
<polygon fill="white" stroke="black" points="150,-38.5 150,-57.5 283,-57.5 283,-38.5 150,-38.5"/>
<text text-anchor="middle" x="216.5" y="-45.5" font-family="Helvetica,sans-Serif" font-size="10.00">image::ProcessBoundaryX</text>
</a>
</g>
</g>
<!-- Node1&#45;&gt;Node2 -->
<g id="edge1" class="edge"><title>Node1&#45;&gt;Node2</title>
<path fill="none" stroke="midnightblue" d="M124.514,-37.0239C132.89,-38.0344 141.456,-39.0677 149.82,-40.0767"/>
<polygon fill="midnightblue" stroke="midnightblue" points="124.763,-33.5287 114.416,-35.8058 123.925,-40.4783 124.763,-33.5287"/>
</g>
<!-- Node5 -->
<g id="node5" class="node"><title>Node5</title>
<g id="a_node5"><a xlink:href="classimage.html#adf6b8c126649c9a40387f12b5f5f07d5" target="_top" xlink:title="image::ProcessBoundaryY">
<polygon fill="white" stroke="black" points="150,-0.5 150,-19.5 283,-19.5 283,-0.5 150,-0.5"/>
<text text-anchor="middle" x="216.5" y="-7.5" font-family="Helvetica,sans-Serif" font-size="10.00">image::ProcessBoundaryY</text>
</a>
</g>
</g>
<!-- Node1&#45;&gt;Node5 -->
<g id="edge4" class="edge"><title>Node1&#45;&gt;Node5</title>
<path fill="none" stroke="midnightblue" d="M124.514,-20.9761C132.89,-19.9656 141.456,-18.9323 149.82,-17.9233"/>
<polygon fill="midnightblue" stroke="midnightblue" points="123.925,-17.5217 114.416,-22.1942 124.763,-24.4713 123.925,-17.5217"/>
</g>
<!-- Node3 -->
<g id="node3" class="node"><title>Node3</title>
<g id="a_node3"><a xlink:href="classimage.html#a4689c56b85c46d48ea52f0c9fa13891e" target="_top" xlink:title="image::processing">
<polygon fill="white" stroke="black" points="319,-19.5 319,-38.5 415,-38.5 415,-19.5 319,-19.5"/>
<text text-anchor="middle" x="367" y="-26.5" font-family="Helvetica,sans-Serif" font-size="10.00">image::processing</text>
</a>
</g>
</g>
<!-- Node2&#45;&gt;Node3 -->
<g id="edge2" class="edge"><title>Node2&#45;&gt;Node3</title>
<path fill="none" stroke="midnightblue" d="M293.207,-38.3136C301.858,-37.2067 310.483,-36.1032 318.612,-35.0631"/>
<polygon fill="midnightblue" stroke="midnightblue" points="292.541,-34.8701 283.067,-39.611 293.43,-41.8135 292.541,-34.8701"/>
</g>
<!-- Node4 -->
<g id="node4" class="node"><title>Node4</title>
<g id="a_node4"><a xlink:href="class_main_window.html#a9a45eb9ebe6d27bcd23677d9fbb74dd8" target="_top" xlink:title="MainWindow::on_Go_clicked">
<polygon fill="white" stroke="black" points="451,-19.5 451,-38.5 594,-38.5 594,-19.5 451,-19.5"/>
<text text-anchor="middle" x="522.5" y="-26.5" font-family="Helvetica,sans-Serif" font-size="10.00">MainWindow::on_Go_clicked</text>
</a>
</g>
</g>
<!-- Node3&#45;&gt;Node4 -->
<g id="edge3" class="edge"><title>Node3&#45;&gt;Node4</title>
<path fill="none" stroke="midnightblue" d="M425.583,-29C433.853,-29 442.441,-29 450.928,-29"/>
<polygon fill="midnightblue" stroke="midnightblue" points="425.308,-25.5001 415.308,-29 425.308,-32.5001 425.308,-25.5001"/>
</g>
<!-- Node5&#45;&gt;Node3 -->
<g id="edge5" class="edge"><title>Node5&#45;&gt;Node3</title>
<path fill="none" stroke="midnightblue" d="M293.207,-19.6864C301.858,-20.7933 310.483,-21.8968 318.612,-22.9369"/>
<polygon fill="midnightblue" stroke="midnightblue" points="293.43,-16.1865 283.067,-18.389 292.541,-23.1299 293.43,-16.1865"/>
</g>
</g>
</svg>
