<?xml version="1.0" encoding="UTF-8" standalone="no"?>
<!DOCTYPE svg PUBLIC "-//W3C//DTD SVG 1.1//EN"
 "http://www.w3.org/Graphics/SVG/1.1/DTD/svg11.dtd">
<!-- Generated by graphviz version 2.38.0 (20140413.2041)
 -->
<!-- Title: Edge::setLength Pages: 1 -->
<svg width="1190pt" height="142pt"
 viewBox="0.00 0.00 1190.00 142.00" xmlns="http://www.w3.org/2000/svg" xmlns:xlink="http://www.w3.org/1999/xlink">
<g id="graph0" class="graph" transform="scale(1 1) rotate(0) translate(4 138)">
<title>Edge::setLength</title>
<polygon fill="white" stroke="none" points="-4,4 -4,-138 1186,-138 1186,4 -4,4"/>
<!-- Node1 -->
<g id="node1" class="node"><title>Node1</title>
<polygon fill="#bfbfbf" stroke="black" points="0,-57.5 0,-76.5 88,-76.5 88,-57.5 0,-57.5"/>
<text text-anchor="middle" x="44" y="-64.5" font-family="Helvetica,sans-Serif" font-size="10.00">Edge::setLength</text>
</g>
<!-- Node2 -->
<g id="node2" class="node"><title>Node2</title>
<g id="a_node2"><a xlink:href="classinitializer.html#af25116f6ca0979e447a4a266bceba2b8" target="_top" xlink:title="initializer::addEdges">
<polygon fill="white" stroke="black" points="124,-114.5 124,-133.5 228,-133.5 228,-114.5 124,-114.5"/>
<text text-anchor="middle" x="176" y="-121.5" font-family="Helvetica,sans-Serif" font-size="10.00">initializer::addEdges</text>
</a>
</g>
</g>
<!-- Node1&#45;&gt;Node2 -->
<g id="edge1" class="edge"><title>Node1&#45;&gt;Node2</title>
<path fill="none" stroke="midnightblue" d="M72.8491,-81.1667C87.8515,-88.6017 106.769,-97.6646 124,-105 131.737,-108.294 140.259,-111.594 148.084,-114.498"/>
<polygon fill="midnightblue" stroke="midnightblue" points="74.1227,-77.8904 63.6129,-76.5504 70.9931,-84.1519 74.1227,-77.8904"/>
</g>
<!-- Node10 -->
<g id="node10" class="node"><title>Node10</title>
<g id="a_node10"><a xlink:href="class_edge.html#a4a4344c441ddb7529213eba214c878fa" target="_top" xlink:title="Edge::clone">
<polygon fill="white" stroke="black" points="142,-38.5 142,-57.5 210,-57.5 210,-38.5 142,-38.5"/>
<text text-anchor="middle" x="176" y="-45.5" font-family="Helvetica,sans-Serif" font-size="10.00">Edge::clone</text>
</a>
</g>
</g>
<!-- Node1&#45;&gt;Node10 -->
<g id="edge10" class="edge"><title>Node1&#45;&gt;Node10</title>
<path fill="none" stroke="midnightblue" d="M98.3027,-59.2096C113.015,-57.0593 128.554,-54.7882 141.77,-52.8567"/>
<polygon fill="midnightblue" stroke="midnightblue" points="97.6768,-55.7638 88.2881,-60.6733 98.6892,-62.6902 97.6768,-55.7638"/>
</g>
<!-- Node11 -->
<g id="node11" class="node"><title>Node11</title>
<g id="a_node11"><a xlink:href="classinitializer.html#af23e5a2f80a74bce9caccbf86a028c96" target="_top" xlink:title="initializer::connect">
<polygon fill="white" stroke="black" points="128.5,-0.5 128.5,-19.5 223.5,-19.5 223.5,-0.5 128.5,-0.5"/>
<text text-anchor="middle" x="176" y="-7.5" font-family="Helvetica,sans-Serif" font-size="10.00">initializer::connect</text>
</a>
</g>
</g>
<!-- Node1&#45;&gt;Node11 -->
<g id="edge11" class="edge"><title>Node1&#45;&gt;Node11</title>
<path fill="none" stroke="midnightblue" d="M72.8491,-52.8333C87.8515,-45.3983 106.769,-36.3354 124,-29 131.737,-25.7061 140.259,-22.406 148.084,-19.5022"/>
<polygon fill="midnightblue" stroke="midnightblue" points="70.9931,-49.8481 63.6129,-57.4496 74.1227,-56.1096 70.9931,-49.8481"/>
</g>
<!-- Node12 -->
<g id="node12" class="node"><title>Node12</title>
<g id="a_node12"><a xlink:href="class_r_a_g.html#aa2de492a3df037db29b0e3ccab5251ee" target="_top" xlink:title="RAG::merge">
<polygon fill="white" stroke="black" points="140.5,-76.5 140.5,-95.5 211.5,-95.5 211.5,-76.5 140.5,-76.5"/>
<text text-anchor="middle" x="176" y="-83.5" font-family="Helvetica,sans-Serif" font-size="10.00">RAG::merge</text>
</a>
</g>
</g>
<!-- Node1&#45;&gt;Node12 -->
<g id="edge12" class="edge"><title>Node1&#45;&gt;Node12</title>
<path fill="none" stroke="midnightblue" d="M98.3675,-74.7999C112.447,-76.8576 127.279,-79.0253 140.104,-80.8998"/>
<polygon fill="midnightblue" stroke="midnightblue" points="98.6892,-71.3098 88.2881,-73.3267 97.6768,-78.2362 98.6892,-71.3098"/>
</g>
<!-- Node3 -->
<g id="node3" class="node"><title>Node3</title>
<g id="a_node3"><a xlink:href="classinitializer.html#ae6d34d311f884ceb489b3043a011864c" target="_top" xlink:title="initializer::initializeRag">
<polygon fill="white" stroke="black" points="264,-114.5 264,-133.5 378,-133.5 378,-114.5 264,-114.5"/>
<text text-anchor="middle" x="321" y="-121.5" font-family="Helvetica,sans-Serif" font-size="10.00">initializer::initializeRag</text>
</a>
</g>
</g>
<!-- Node2&#45;&gt;Node3 -->
<g id="edge2" class="edge"><title>Node2&#45;&gt;Node3</title>
<path fill="none" stroke="midnightblue" d="M238.39,-124C246.83,-124 255.463,-124 263.803,-124"/>
<polygon fill="midnightblue" stroke="midnightblue" points="238.222,-120.5 228.222,-124 238.222,-127.5 238.222,-120.5"/>
</g>
<!-- Node4 -->
<g id="node4" class="node"><title>Node4</title>
<g id="a_node4"><a xlink:href="classimage.html#a12343719e8d96a4bda9c5bd6c035d52a" target="_top" xlink:title="image::mergeBlockX">
<polygon fill="white" stroke="black" points="420,-76.5 420,-95.5 527,-95.5 527,-76.5 420,-76.5"/>
<text text-anchor="middle" x="473.5" y="-83.5" font-family="Helvetica,sans-Serif" font-size="10.00">image::mergeBlockX</text>
</a>
</g>
</g>
<!-- Node3&#45;&gt;Node4 -->
<g id="edge3" class="edge"><title>Node3&#45;&gt;Node4</title>
<path fill="none" stroke="midnightblue" d="M369.685,-111.96C390.71,-106.651 415.067,-100.501 434.796,-95.5201"/>
<polygon fill="midnightblue" stroke="midnightblue" points="368.816,-108.569 359.978,-114.411 370.53,-115.356 368.816,-108.569"/>
</g>
<!-- Node8 -->
<g id="node8" class="node"><title>Node8</title>
<g id="a_node8"><a xlink:href="classimage.html#aa21fc5a07af7528869425e750090b3b8" target="_top" xlink:title="image::mergeBlockY">
<polygon fill="white" stroke="black" points="420,-114.5 420,-133.5 527,-133.5 527,-114.5 420,-114.5"/>
<text text-anchor="middle" x="473.5" y="-121.5" font-family="Helvetica,sans-Serif" font-size="10.00">image::mergeBlockY</text>
</a>
</g>
</g>
<!-- Node3&#45;&gt;Node8 -->
<g id="edge7" class="edge"><title>Node3&#45;&gt;Node8</title>
<path fill="none" stroke="midnightblue" d="M388.131,-124C398.763,-124 409.643,-124 419.902,-124"/>
<polygon fill="midnightblue" stroke="midnightblue" points="388.041,-120.5 378.041,-124 388.041,-127.5 388.041,-120.5"/>
</g>
<!-- Node5 -->
<g id="node5" class="node"><title>Node5</title>
<g id="a_node5"><a xlink:href="classimage.html#a83026280ad6cc713ec9489ff3bd9776e" target="_top" xlink:title="image::ProcessBoundaryX">
<polygon fill="white" stroke="black" points="738,-76.5 738,-95.5 871,-95.5 871,-76.5 738,-76.5"/>
<text text-anchor="middle" x="804.5" y="-83.5" font-family="Helvetica,sans-Serif" font-size="10.00">image::ProcessBoundaryX</text>
</a>
</g>
</g>
<!-- Node4&#45;&gt;Node5 -->
<g id="edge4" class="edge"><title>Node4&#45;&gt;Node5</title>
<path fill="none" stroke="midnightblue" d="M537.399,-86C594.829,-86 679.414,-86 737.728,-86"/>
<polygon fill="midnightblue" stroke="midnightblue" points="537.36,-82.5001 527.36,-86 537.36,-89.5001 537.36,-82.5001"/>
</g>
<!-- Node6 -->
<g id="node6" class="node"><title>Node6</title>
<g id="a_node6"><a xlink:href="classimage.html#a4689c56b85c46d48ea52f0c9fa13891e" target="_top" xlink:title="image::processing">
<polygon fill="white" stroke="black" points="907,-76.5 907,-95.5 1003,-95.5 1003,-76.5 907,-76.5"/>
<text text-anchor="middle" x="955" y="-83.5" font-family="Helvetica,sans-Serif" font-size="10.00">image::processing</text>
</a>
</g>
</g>
<!-- Node5&#45;&gt;Node6 -->
<g id="edge5" class="edge"><title>Node5&#45;&gt;Node6</title>
<path fill="none" stroke="midnightblue" d="M881.207,-86C889.858,-86 898.483,-86 906.612,-86"/>
<polygon fill="midnightblue" stroke="midnightblue" points="881.067,-82.5001 871.067,-86 881.066,-89.5001 881.067,-82.5001"/>
</g>
<!-- Node7 -->
<g id="node7" class="node"><title>Node7</title>
<g id="a_node7"><a xlink:href="class_main_window.html#a9a45eb9ebe6d27bcd23677d9fbb74dd8" target="_top" xlink:title="MainWindow::on_Go_clicked">
<polygon fill="white" stroke="black" points="1039,-76.5 1039,-95.5 1182,-95.5 1182,-76.5 1039,-76.5"/>
<text text-anchor="middle" x="1110.5" y="-83.5" font-family="Helvetica,sans-Serif" font-size="10.00">MainWindow::on_Go_clicked</text>
</a>
</g>
</g>
<!-- Node6&#45;&gt;Node7 -->
<g id="edge6" class="edge"><title>Node6&#45;&gt;Node7</title>
<path fill="none" stroke="midnightblue" d="M1013.58,-86C1021.85,-86 1030.44,-86 1038.93,-86"/>
<polygon fill="midnightblue" stroke="midnightblue" points="1013.31,-82.5001 1003.31,-86 1013.31,-89.5001 1013.31,-82.5001"/>
</g>
<!-- Node9 -->
<g id="node9" class="node"><title>Node9</title>
<g id="a_node9"><a xlink:href="classimage.html#adf6b8c126649c9a40387f12b5f5f07d5" target="_top" xlink:title="image::ProcessBoundaryY">
<polygon fill="white" stroke="black" points="569,-114.5 569,-133.5 702,-133.5 702,-114.5 569,-114.5"/>
<text text-anchor="middle" x="635.5" y="-121.5" font-family="Helvetica,sans-Serif" font-size="10.00">image::ProcessBoundaryY</text>
</a>
</g>
</g>
<!-- Node8&#45;&gt;Node9 -->
<g id="edge8" class="edge"><title>Node8&#45;&gt;Node9</title>
<path fill="none" stroke="midnightblue" d="M537.486,-124C547.798,-124 558.505,-124 568.879,-124"/>
<polygon fill="midnightblue" stroke="midnightblue" points="537.333,-120.5 527.333,-124 537.333,-127.5 537.333,-120.5"/>
</g>
<!-- Node9&#45;&gt;Node6 -->
<g id="edge9" class="edge"><title>Node9&#45;&gt;Node6</title>
<path fill="none" stroke="midnightblue" d="M712.451,-120.626C758.513,-117.891 818.364,-113.114 871,-105 886.34,-102.635 903.06,-99.0141 917.446,-95.5649"/>
<polygon fill="midnightblue" stroke="midnightblue" points="712.029,-117.145 702.246,-121.212 712.43,-124.133 712.029,-117.145"/>
</g>
<!-- Node13 -->
<g id="node13" class="node"><title>Node13</title>
<g id="a_node13"><a xlink:href="class_r_a_g.html#ab09eebb1b704d18b583d528e77f7604a" target="_top" xlink:title="RAG::regionMerging">
<polygon fill="white" stroke="black" points="268.5,-76.5 268.5,-95.5 373.5,-95.5 373.5,-76.5 268.5,-76.5"/>
<text text-anchor="middle" x="321" y="-83.5" font-family="Helvetica,sans-Serif" font-size="10.00">RAG::regionMerging</text>
</a>
</g>
</g>
<!-- Node12&#45;&gt;Node13 -->
<g id="edge13" class="edge"><title>Node12&#45;&gt;Node13</title>
<path fill="none" stroke="midnightblue" d="M221.99,-86C236.72,-86 253.2,-86 268.38,-86"/>
<polygon fill="midnightblue" stroke="midnightblue" points="221.616,-82.5001 211.616,-86 221.616,-89.5001 221.616,-82.5001"/>
</g>
<!-- Node13&#45;&gt;Node4 -->
<g id="edge14" class="edge"><title>Node13&#45;&gt;Node4</title>
<path fill="none" stroke="midnightblue" d="M384.086,-86C395.965,-86 408.296,-86 419.844,-86"/>
<polygon fill="midnightblue" stroke="midnightblue" points="383.794,-82.5001 373.794,-86 383.794,-89.5001 383.794,-82.5001"/>
</g>
<!-- Node13&#45;&gt;Node8 -->
<g id="edge15" class="edge"><title>Node13&#45;&gt;Node8</title>
<path fill="none" stroke="midnightblue" d="M369.685,-98.04C390.71,-103.349 415.067,-109.499 434.796,-114.48"/>
<polygon fill="midnightblue" stroke="midnightblue" points="370.53,-94.6437 359.978,-95.589 368.816,-101.431 370.53,-94.6437"/>
</g>
<!-- Node14 -->
<g id="node14" class="node"><title>Node14</title>
<g id="a_node14"><a xlink:href="classimageblock.html#abcc69a8c00ad79067185c700463f8126" target="_top" xlink:title="imageblock::createBPT">
<polygon fill="white" stroke="black" points="414,-38.5 414,-57.5 533,-57.5 533,-38.5 414,-38.5"/>
<text text-anchor="middle" x="473.5" y="-45.5" font-family="Helvetica,sans-Serif" font-size="10.00">imageblock::createBPT</text>
</a>
</g>
</g>
<!-- Node13&#45;&gt;Node14 -->
<g id="edge16" class="edge"><title>Node13&#45;&gt;Node14</title>
<path fill="none" stroke="midnightblue" d="M369.685,-73.96C390.71,-68.6512 415.067,-62.5012 434.796,-57.5201"/>
<polygon fill="midnightblue" stroke="midnightblue" points="368.816,-70.5693 359.978,-76.411 370.53,-77.3563 368.816,-70.5693"/>
</g>
<!-- Node15 -->
<g id="node15" class="node"><title>Node15</title>
<g id="a_node15"><a xlink:href="classimageblock.html#af3b91e3daaa8014af1239f60da6b0bf5" target="_top" xlink:title="imageblock::processing">
<polygon fill="white" stroke="black" points="576,-38.5 576,-57.5 695,-57.5 695,-38.5 576,-38.5"/>
<text text-anchor="middle" x="635.5" y="-45.5" font-family="Helvetica,sans-Serif" font-size="10.00">imageblock::processing</text>
</a>
</g>
</g>
<!-- Node14&#45;&gt;Node15 -->
<g id="edge17" class="edge"><title>Node14&#45;&gt;Node15</title>
<path fill="none" stroke="midnightblue" d="M543.415,-48C554.217,-48 565.294,-48 575.838,-48"/>
<polygon fill="midnightblue" stroke="midnightblue" points="543.17,-44.5001 533.17,-48 543.17,-51.5001 543.17,-44.5001"/>
</g>
<!-- Node16 -->
<g id="node16" class="node"><title>Node16</title>
<g id="a_node16"><a xlink:href="classimage.html#ad5a9d767eca6f9bbb8dcb556527edf4d" target="_top" xlink:title="image::ProcessTiles">
<polygon fill="white" stroke="black" points="751.5,-38.5 751.5,-57.5 857.5,-57.5 857.5,-38.5 751.5,-38.5"/>
<text text-anchor="middle" x="804.5" y="-45.5" font-family="Helvetica,sans-Serif" font-size="10.00">image::ProcessTiles</text>
</a>
</g>
</g>
<!-- Node15&#45;&gt;Node16 -->
<g id="edge18" class="edge"><title>Node15&#45;&gt;Node16</title>
<path fill="none" stroke="midnightblue" d="M705.781,-48C720.994,-48 736.857,-48 751.267,-48"/>
<polygon fill="midnightblue" stroke="midnightblue" points="705.378,-44.5001 695.378,-48 705.378,-51.5001 705.378,-44.5001"/>
</g>
<!-- Node16&#45;&gt;Node6 -->
<g id="edge19" class="edge"><title>Node16&#45;&gt;Node6</title>
<path fill="none" stroke="midnightblue" d="M852.833,-60.1121C873.515,-65.4044 897.419,-71.5213 916.797,-76.4799"/>
<polygon fill="midnightblue" stroke="midnightblue" points="853.528,-56.6774 842.973,-57.589 851.793,-63.4589 853.528,-56.6774"/>
</g>
</g>
</svg>
