<?xml version="1.0" encoding="UTF-8" standalone="no"?>
<!DOCTYPE svg PUBLIC "-//W3C//DTD SVG 1.1//EN"
 "http://www.w3.org/Graphics/SVG/1.1/DTD/svg11.dtd">
<!-- Generated by graphviz version 2.38.0 (20140413.2041)
 -->
<!-- Title: io::writeNodeToCSV Pages: 1 -->
<svg width="884pt" height="66pt"
 viewBox="0.00 0.00 884.00 66.00" xmlns="http://www.w3.org/2000/svg" xmlns:xlink="http://www.w3.org/1999/xlink">
<g id="graph0" class="graph" transform="scale(1 1) rotate(0) translate(4 62)">
<title>io::writeNodeToCSV</title>
<polygon fill="white" stroke="none" points="-4,4 -4,-62 880,-62 880,4 -4,4"/>
<!-- Node1 -->
<g id="node1" class="node"><title>Node1</title>
<polygon fill="#bfbfbf" stroke="black" points="0,-19.5 0,-38.5 107,-38.5 107,-19.5 0,-19.5"/>
<text text-anchor="middle" x="53.5" y="-26.5" font-family="Helvetica,sans-Serif" font-size="10.00">io::writeNodeToCSV</text>
</g>
<!-- Node2 -->
<g id="node2" class="node"><title>Node2</title>
<g id="a_node2"><a xlink:href="classimageblock.html#adbafde60f699582250656ddc2ebe82e2" target="_top" xlink:title="imageblock::saveToDisk">
<polygon fill="white" stroke="black" points="143,-38.5 143,-57.5 268,-57.5 268,-38.5 143,-38.5"/>
<text text-anchor="middle" x="205.5" y="-45.5" font-family="Helvetica,sans-Serif" font-size="10.00">imageblock::saveToDisk</text>
</a>
</g>
</g>
<!-- Node1&#45;&gt;Node2 -->
<g id="edge1" class="edge"><title>Node1&#45;&gt;Node2</title>
<path fill="none" stroke="midnightblue" d="M117.493,-36.9791C125.888,-38.0425 134.489,-39.1319 142.86,-40.1923"/>
<polygon fill="midnightblue" stroke="midnightblue" points="117.745,-33.4831 107.384,-35.6987 116.865,-40.4277 117.745,-33.4831"/>
</g>
<!-- Node7 -->
<g id="node7" class="node"><title>Node7</title>
<g id="a_node7"><a xlink:href="classimage.html#a8a4c71e9c53353a4c65bb5f17122a9f4" target="_top" xlink:title="image::saveToDisk">
<polygon fill="white" stroke="black" points="155,-0.5 155,-19.5 256,-19.5 256,-0.5 155,-0.5"/>
<text text-anchor="middle" x="205.5" y="-7.5" font-family="Helvetica,sans-Serif" font-size="10.00">image::saveToDisk</text>
</a>
</g>
</g>
<!-- Node1&#45;&gt;Node7 -->
<g id="edge6" class="edge"><title>Node1&#45;&gt;Node7</title>
<path fill="none" stroke="midnightblue" d="M117.308,-21.0444C129.841,-19.4569 142.84,-17.8102 154.856,-16.2883"/>
<polygon fill="midnightblue" stroke="midnightblue" points="116.865,-17.5723 107.384,-22.3013 117.745,-24.5169 116.865,-17.5723"/>
</g>
<!-- Node3 -->
<g id="node3" class="node"><title>Node3</title>
<g id="a_node3"><a xlink:href="classimageblock.html#af3b91e3daaa8014af1239f60da6b0bf5" target="_top" xlink:title="imageblock::processing">
<polygon fill="white" stroke="black" points="304,-38.5 304,-57.5 423,-57.5 423,-38.5 304,-38.5"/>
<text text-anchor="middle" x="363.5" y="-45.5" font-family="Helvetica,sans-Serif" font-size="10.00">imageblock::processing</text>
</a>
</g>
</g>
<!-- Node2&#45;&gt;Node3 -->
<g id="edge2" class="edge"><title>Node2&#45;&gt;Node3</title>
<path fill="none" stroke="midnightblue" d="M278.17,-48C286.762,-48 295.458,-48 303.836,-48"/>
<polygon fill="midnightblue" stroke="midnightblue" points="278.155,-44.5001 268.155,-48 278.155,-51.5001 278.155,-44.5001"/>
</g>
<!-- Node4 -->
<g id="node4" class="node"><title>Node4</title>
<g id="a_node4"><a xlink:href="classimage.html#ad5a9d767eca6f9bbb8dcb556527edf4d" target="_top" xlink:title="image::ProcessTiles">
<polygon fill="white" stroke="black" points="459,-38.5 459,-57.5 565,-57.5 565,-38.5 459,-38.5"/>
<text text-anchor="middle" x="512" y="-45.5" font-family="Helvetica,sans-Serif" font-size="10.00">image::ProcessTiles</text>
</a>
</g>
</g>
<!-- Node3&#45;&gt;Node4 -->
<g id="edge3" class="edge"><title>Node3&#45;&gt;Node4</title>
<path fill="none" stroke="midnightblue" d="M433.279,-48C441.884,-48 450.573,-48 458.866,-48"/>
<polygon fill="midnightblue" stroke="midnightblue" points="433.243,-44.5001 423.243,-48 433.243,-51.5001 433.243,-44.5001"/>
</g>
<!-- Node5 -->
<g id="node5" class="node"><title>Node5</title>
<g id="a_node5"><a xlink:href="classimage.html#a4689c56b85c46d48ea52f0c9fa13891e" target="_top" xlink:title="image::processing">
<polygon fill="white" stroke="black" points="601,-38.5 601,-57.5 697,-57.5 697,-38.5 601,-38.5"/>
<text text-anchor="middle" x="649" y="-45.5" font-family="Helvetica,sans-Serif" font-size="10.00">image::processing</text>
</a>
</g>
</g>
<!-- Node4&#45;&gt;Node5 -->
<g id="edge4" class="edge"><title>Node4&#45;&gt;Node5</title>
<path fill="none" stroke="midnightblue" d="M575.206,-48C583.809,-48 592.527,-48 600.797,-48"/>
<polygon fill="midnightblue" stroke="midnightblue" points="575.195,-44.5001 565.195,-48 575.194,-51.5001 575.195,-44.5001"/>
</g>
<!-- Node6 -->
<g id="node6" class="node"><title>Node6</title>
<g id="a_node6"><a xlink:href="class_main_window.html#a9a45eb9ebe6d27bcd23677d9fbb74dd8" target="_top" xlink:title="MainWindow::on_Go_clicked">
<polygon fill="white" stroke="black" points="733,-38.5 733,-57.5 876,-57.5 876,-38.5 733,-38.5"/>
<text text-anchor="middle" x="804.5" y="-45.5" font-family="Helvetica,sans-Serif" font-size="10.00">MainWindow::on_Go_clicked</text>
</a>
</g>
</g>
<!-- Node5&#45;&gt;Node6 -->
<g id="edge5" class="edge"><title>Node5&#45;&gt;Node6</title>
<path fill="none" stroke="midnightblue" d="M707.583,-48C715.853,-48 724.441,-48 732.928,-48"/>
<polygon fill="midnightblue" stroke="midnightblue" points="707.308,-44.5001 697.308,-48 707.308,-51.5001 707.308,-44.5001"/>
</g>
</g>
</svg>
