<?xml version="1.0" encoding="UTF-8" standalone="no"?>
<!DOCTYPE svg PUBLIC "-//W3C//DTD SVG 1.1//EN"
 "http://www.w3.org/Graphics/SVG/1.1/DTD/svg11.dtd">
<!-- Generated by graphviz version 2.38.0 (20140413.2041)
 -->
<!-- Title: histogramModel::histogramModel Pages: 1 -->
<svg width="454pt" height="66pt"
 viewBox="0.00 0.00 454.00 66.00" xmlns="http://www.w3.org/2000/svg" xmlns:xlink="http://www.w3.org/1999/xlink">
<g id="graph0" class="graph" transform="scale(1 1) rotate(0) translate(4 62)">
<title>histogramModel::histogramModel</title>
<polygon fill="white" stroke="none" points="-4,4 -4,-62 450,-62 450,4 -4,4"/>
<!-- Node2 -->
<g id="node1" class="node"><title>Node2</title>
<polygon fill="#bfbfbf" stroke="black" points="0,-14 0,-44 134,-44 134,-14 0,-14"/>
<text text-anchor="start" x="8" y="-32" font-family="Helvetica,sans-Serif" font-size="10.00">histogramModel::histogram</text>
<text text-anchor="middle" x="67" y="-21" font-family="Helvetica,sans-Serif" font-size="10.00">Model</text>
</g>
<!-- Node3 -->
<g id="node2" class="node"><title>Node3</title>
<g id="a_node2"><a xlink:href="classhistogram_model.html#a774070ff631cfdcf92731cef69088099" target="_top" xlink:title="histogramModel::clone">
<polygon fill="white" stroke="black" points="172,-38.5 172,-57.5 287,-57.5 287,-38.5 172,-38.5"/>
<text text-anchor="middle" x="229.5" y="-45.5" font-family="Helvetica,sans-Serif" font-size="10.00">histogramModel::clone</text>
</a>
</g>
</g>
<!-- Node2&#45;&gt;Node3 -->
<g id="edge1" class="edge"><title>Node2&#45;&gt;Node3</title>
<path fill="none" stroke="midnightblue" d="M144.261,-38.0278C153.574,-39.1303 162.959,-40.2412 171.912,-41.3011"/>
<polygon fill="midnightblue" stroke="midnightblue" points="144.55,-34.5377 134.208,-36.8377 143.727,-41.4891 144.55,-34.5377"/>
</g>
<!-- Node5 -->
<g id="node4" class="node"><title>Node5</title>
<g id="a_node4"><a xlink:href="classhistogram_model.html#a2a84442dd0292f62b6ef0b35ea033790" target="_top" xlink:title="histogramModel::merge">
<polygon fill="white" stroke="black" points="170,-0.5 170,-19.5 289,-19.5 289,-0.5 170,-0.5"/>
<text text-anchor="middle" x="229.5" y="-7.5" font-family="Helvetica,sans-Serif" font-size="10.00">histogramModel::merge</text>
</a>
</g>
</g>
<!-- Node2&#45;&gt;Node5 -->
<g id="edge3" class="edge"><title>Node2&#45;&gt;Node5</title>
<path fill="none" stroke="midnightblue" d="M144.266,-19.9717C152.877,-18.9522 161.55,-17.9255 169.887,-16.9386"/>
<polygon fill="midnightblue" stroke="midnightblue" points="143.727,-16.5109 134.208,-21.1623 144.55,-23.4623 143.727,-16.5109"/>
</g>
<!-- Node4 -->
<g id="node3" class="node"><title>Node4</title>
<g id="a_node3"><a xlink:href="classcompound_model.html#abcb9db15611b3866feebf88f0d2fdff8" target="_top" xlink:title="compoundModel::clone">
<polygon fill="white" stroke="black" points="327,-38.5 327,-57.5 444,-57.5 444,-38.5 327,-38.5"/>
<text text-anchor="middle" x="385.5" y="-45.5" font-family="Helvetica,sans-Serif" font-size="10.00">compoundModel::clone</text>
</a>
</g>
</g>
<!-- Node3&#45;&gt;Node4 -->
<g id="edge2" class="edge"><title>Node3&#45;&gt;Node4</title>
<path fill="none" stroke="midnightblue" d="M297.48,-48C307.248,-48 317.236,-48 326.798,-48"/>
<polygon fill="midnightblue" stroke="midnightblue" points="297.406,-44.5001 287.406,-48 297.406,-51.5001 297.406,-44.5001"/>
</g>
<!-- Node6 -->
<g id="node5" class="node"><title>Node6</title>
<g id="a_node5"><a xlink:href="classcompound_model.html#a3a4f1be5ccd6230918036dcc56328033" target="_top" xlink:title="compoundModel::merge">
<polygon fill="white" stroke="black" points="325,-0.5 325,-19.5 446,-19.5 446,-0.5 325,-0.5"/>
<text text-anchor="middle" x="385.5" y="-7.5" font-family="Helvetica,sans-Serif" font-size="10.00">compoundModel::merge</text>
</a>
</g>
</g>
<!-- Node5&#45;&gt;Node6 -->
<g id="edge4" class="edge"><title>Node5&#45;&gt;Node6</title>
<path fill="none" stroke="midnightblue" d="M299.174,-10C307.782,-10 316.53,-10 324.982,-10"/>
<polygon fill="midnightblue" stroke="midnightblue" points="299.16,-6.5001 289.16,-10 299.16,-13.5001 299.16,-6.5001"/>
</g>
</g>
</svg>
