<?xml version="1.0" encoding="UTF-8" standalone="no"?>
<!DOCTYPE svg PUBLIC "-//W3C//DTD SVG 1.1//EN"
 "http://www.w3.org/Graphics/SVG/1.1/DTD/svg11.dtd">
<!-- Generated by graphviz version 2.38.0 (20140413.2041)
 -->
<!-- Title: image::selectBoarderSegments Pages: 1 -->
<svg width="784pt" height="66pt"
 viewBox="0.00 0.00 784.00 66.00" xmlns="http://www.w3.org/2000/svg" xmlns:xlink="http://www.w3.org/1999/xlink">
<g id="graph0" class="graph" transform="scale(1 1) rotate(0) translate(4 62)">
<title>image::selectBoarderSegments</title>
<polygon fill="white" stroke="none" points="-4,4 -4,-62 780,-62 780,4 -4,4"/>
<!-- Node509 -->
<g id="node1" class="node"><title>Node509</title>
<polygon fill="#bfbfbf" stroke="black" points="0,-19.5 0,-38.5 153,-38.5 153,-19.5 0,-19.5"/>
<text text-anchor="middle" x="76.5" y="-26.5" font-family="Helvetica,sans-Serif" font-size="10.00">image::selectBoarderSegments</text>
</g>
<!-- Node510 -->
<g id="node2" class="node"><title>Node510</title>
<g id="a_node2"><a xlink:href="classimage.html#a12343719e8d96a4bda9c5bd6c035d52a" target="_top" xlink:title="image::mergeBlockX">
<polygon fill="white" stroke="black" points="189,-38.5 189,-57.5 296,-57.5 296,-38.5 189,-38.5"/>
<text text-anchor="middle" x="242.5" y="-45.5" font-family="Helvetica,sans-Serif" font-size="10.00">image::mergeBlockX</text>
</a>
</g>
</g>
<!-- Node509&#45;&gt;Node510 -->
<g id="edge1" class="edge"><title>Node509&#45;&gt;Node510</title>
<path fill="none" stroke="midnightblue" d="M163.334,-38.9442C171.914,-39.9382 180.437,-40.9257 188.528,-41.863"/>
<polygon fill="midnightblue" stroke="midnightblue" points="163.596,-35.4512 153.259,-37.777 162.79,-42.4047 163.596,-35.4512"/>
</g>
<!-- Node514 -->
<g id="node6" class="node"><title>Node514</title>
<g id="a_node6"><a xlink:href="classimage.html#aa21fc5a07af7528869425e750090b3b8" target="_top" xlink:title="image::mergeBlockY">
<polygon fill="white" stroke="black" points="189,-0.5 189,-19.5 296,-19.5 296,-0.5 189,-0.5"/>
<text text-anchor="middle" x="242.5" y="-7.5" font-family="Helvetica,sans-Serif" font-size="10.00">image::mergeBlockY</text>
</a>
</g>
</g>
<!-- Node509&#45;&gt;Node514 -->
<g id="edge5" class="edge"><title>Node509&#45;&gt;Node514</title>
<path fill="none" stroke="midnightblue" d="M163.334,-19.0558C171.914,-18.0618 180.437,-17.0743 188.528,-16.137"/>
<polygon fill="midnightblue" stroke="midnightblue" points="162.79,-15.5953 153.259,-20.223 163.596,-22.5488 162.79,-15.5953"/>
</g>
<!-- Node511 -->
<g id="node3" class="node"><title>Node511</title>
<g id="a_node3"><a xlink:href="classimage.html#a83026280ad6cc713ec9489ff3bd9776e" target="_top" xlink:title="image::ProcessBoundaryX">
<polygon fill="white" stroke="black" points="332,-38.5 332,-57.5 465,-57.5 465,-38.5 332,-38.5"/>
<text text-anchor="middle" x="398.5" y="-45.5" font-family="Helvetica,sans-Serif" font-size="10.00">image::ProcessBoundaryX</text>
</a>
</g>
</g>
<!-- Node510&#45;&gt;Node511 -->
<g id="edge2" class="edge"><title>Node510&#45;&gt;Node511</title>
<path fill="none" stroke="midnightblue" d="M306.216,-48C314.656,-48 323.334,-48 331.824,-48"/>
<polygon fill="midnightblue" stroke="midnightblue" points="306.067,-44.5001 296.067,-48 306.067,-51.5001 306.067,-44.5001"/>
</g>
<!-- Node512 -->
<g id="node4" class="node"><title>Node512</title>
<g id="a_node4"><a xlink:href="classimage.html#a4689c56b85c46d48ea52f0c9fa13891e" target="_top" xlink:title="image::processing">
<polygon fill="white" stroke="black" points="501,-19.5 501,-38.5 597,-38.5 597,-19.5 501,-19.5"/>
<text text-anchor="middle" x="549" y="-26.5" font-family="Helvetica,sans-Serif" font-size="10.00">image::processing</text>
</a>
</g>
</g>
<!-- Node511&#45;&gt;Node512 -->
<g id="edge3" class="edge"><title>Node511&#45;&gt;Node512</title>
<path fill="none" stroke="midnightblue" d="M475.207,-38.3136C483.858,-37.2067 492.483,-36.1032 500.612,-35.0631"/>
<polygon fill="midnightblue" stroke="midnightblue" points="474.541,-34.8701 465.067,-39.611 475.43,-41.8135 474.541,-34.8701"/>
</g>
<!-- Node513 -->
<g id="node5" class="node"><title>Node513</title>
<g id="a_node5"><a xlink:href="class_main_window.html#a9a45eb9ebe6d27bcd23677d9fbb74dd8" target="_top" xlink:title="MainWindow::on_Go_clicked">
<polygon fill="white" stroke="black" points="633,-19.5 633,-38.5 776,-38.5 776,-19.5 633,-19.5"/>
<text text-anchor="middle" x="704.5" y="-26.5" font-family="Helvetica,sans-Serif" font-size="10.00">MainWindow::on_Go_clicked</text>
</a>
</g>
</g>
<!-- Node512&#45;&gt;Node513 -->
<g id="edge4" class="edge"><title>Node512&#45;&gt;Node513</title>
<path fill="none" stroke="midnightblue" d="M607.583,-29C615.853,-29 624.441,-29 632.928,-29"/>
<polygon fill="midnightblue" stroke="midnightblue" points="607.308,-25.5001 597.308,-29 607.308,-32.5001 607.308,-25.5001"/>
</g>
<!-- Node515 -->
<g id="node7" class="node"><title>Node515</title>
<g id="a_node7"><a xlink:href="classimage.html#adf6b8c126649c9a40387f12b5f5f07d5" target="_top" xlink:title="image::ProcessBoundaryY">
<polygon fill="white" stroke="black" points="332,-0.5 332,-19.5 465,-19.5 465,-0.5 332,-0.5"/>
<text text-anchor="middle" x="398.5" y="-7.5" font-family="Helvetica,sans-Serif" font-size="10.00">image::ProcessBoundaryY</text>
</a>
</g>
</g>
<!-- Node514&#45;&gt;Node515 -->
<g id="edge6" class="edge"><title>Node514&#45;&gt;Node515</title>
<path fill="none" stroke="midnightblue" d="M306.216,-10C314.656,-10 323.334,-10 331.824,-10"/>
<polygon fill="midnightblue" stroke="midnightblue" points="306.067,-6.5001 296.067,-10 306.067,-13.5001 306.067,-6.5001"/>
</g>
<!-- Node515&#45;&gt;Node512 -->
<g id="edge7" class="edge"><title>Node515&#45;&gt;Node512</title>
<path fill="none" stroke="midnightblue" d="M475.207,-19.6864C483.858,-20.7933 492.483,-21.8968 500.612,-22.9369"/>
<polygon fill="midnightblue" stroke="midnightblue" points="475.43,-16.1865 465.067,-18.389 474.541,-23.1299 475.43,-16.1865"/>
</g>
</g>
</svg>
