<?xml version="1.0" encoding="UTF-8" standalone="no"?>
<!DOCTYPE svg PUBLIC "-//W3C//DTD SVG 1.1//EN"
 "http://www.w3.org/Graphics/SVG/1.1/DTD/svg11.dtd">
<!-- Generated by graphviz version 2.38.0 (20140413.2041)
 -->
<!-- Title: Node::setPosition Pages: 1 -->
<svg width="915pt" height="85pt"
 viewBox="0.00 0.00 915.00 85.00" xmlns="http://www.w3.org/2000/svg" xmlns:xlink="http://www.w3.org/1999/xlink">
<g id="graph0" class="graph" transform="scale(1 1) rotate(0) translate(4 81)">
<title>Node::setPosition</title>
<polygon fill="white" stroke="none" points="-4,4 -4,-81 911,-81 911,4 -4,4"/>
<!-- Node393 -->
<g id="node1" class="node"><title>Node393</title>
<polygon fill="#bfbfbf" stroke="black" points="0,-38.5 0,-57.5 95,-57.5 95,-38.5 0,-38.5"/>
<text text-anchor="middle" x="47.5" y="-45.5" font-family="Helvetica,sans-Serif" font-size="10.00">Node::setPosition</text>
</g>
<!-- Node394 -->
<g id="node2" class="node"><title>Node394</title>
<g id="a_node2"><a xlink:href="classinitializer.html#ac5edfb9421710ba998db242a96e38393" target="_top" xlink:title="initializer::createNodeMatrix">
<polygon fill="white" stroke="black" points="138.5,-57.5 138.5,-76.5 276.5,-76.5 276.5,-57.5 138.5,-57.5"/>
<text text-anchor="middle" x="207.5" y="-64.5" font-family="Helvetica,sans-Serif" font-size="10.00">initializer::createNodeMatrix</text>
</a>
</g>
</g>
<!-- Node393&#45;&gt;Node394 -->
<g id="edge1" class="edge"><title>Node393&#45;&gt;Node394</title>
<path fill="none" stroke="midnightblue" d="M105.148,-54.8121C115.902,-56.1053 127.258,-57.4709 138.326,-58.8018"/>
<polygon fill="midnightblue" stroke="midnightblue" points="105.397,-51.3169 95.0506,-53.5979 104.561,-58.2668 105.397,-51.3169"/>
</g>
<!-- Node395 -->
<g id="node3" class="node"><title>Node395</title>
<g id="a_node3"><a xlink:href="classimage.html#a96cc6f2b2f3b5c2e283623872ada5fc7" target="_top" xlink:title="image::selectBoarderSegments">
<polygon fill="white" stroke="black" points="131,-19.5 131,-38.5 284,-38.5 284,-19.5 131,-19.5"/>
<text text-anchor="middle" x="207.5" y="-26.5" font-family="Helvetica,sans-Serif" font-size="10.00">image::selectBoarderSegments</text>
</a>
</g>
</g>
<!-- Node393&#45;&gt;Node395 -->
<g id="edge2" class="edge"><title>Node393&#45;&gt;Node395</title>
<path fill="none" stroke="midnightblue" d="M105.079,-41.1962C113.473,-40.1868 122.235,-39.1331 130.942,-38.0861"/>
<polygon fill="midnightblue" stroke="midnightblue" points="104.561,-37.7332 95.0506,-42.4021 105.397,-44.6831 104.561,-37.7332"/>
</g>
<!-- Node396 -->
<g id="node4" class="node"><title>Node396</title>
<g id="a_node4"><a xlink:href="classimage.html#a12343719e8d96a4bda9c5bd6c035d52a" target="_top" xlink:title="image::mergeBlockX">
<polygon fill="white" stroke="black" points="320,-38.5 320,-57.5 427,-57.5 427,-38.5 320,-38.5"/>
<text text-anchor="middle" x="373.5" y="-45.5" font-family="Helvetica,sans-Serif" font-size="10.00">image::mergeBlockX</text>
</a>
</g>
</g>
<!-- Node395&#45;&gt;Node396 -->
<g id="edge3" class="edge"><title>Node395&#45;&gt;Node396</title>
<path fill="none" stroke="midnightblue" d="M294.334,-38.9442C302.914,-39.9382 311.437,-40.9257 319.528,-41.863"/>
<polygon fill="midnightblue" stroke="midnightblue" points="294.596,-35.4512 284.259,-37.777 293.79,-42.4047 294.596,-35.4512"/>
</g>
<!-- Node400 -->
<g id="node8" class="node"><title>Node400</title>
<g id="a_node8"><a xlink:href="classimage.html#aa21fc5a07af7528869425e750090b3b8" target="_top" xlink:title="image::mergeBlockY">
<polygon fill="white" stroke="black" points="320,-0.5 320,-19.5 427,-19.5 427,-0.5 320,-0.5"/>
<text text-anchor="middle" x="373.5" y="-7.5" font-family="Helvetica,sans-Serif" font-size="10.00">image::mergeBlockY</text>
</a>
</g>
</g>
<!-- Node395&#45;&gt;Node400 -->
<g id="edge7" class="edge"><title>Node395&#45;&gt;Node400</title>
<path fill="none" stroke="midnightblue" d="M294.334,-19.0558C302.914,-18.0618 311.437,-17.0743 319.528,-16.137"/>
<polygon fill="midnightblue" stroke="midnightblue" points="293.79,-15.5953 284.259,-20.223 294.596,-22.5488 293.79,-15.5953"/>
</g>
<!-- Node397 -->
<g id="node5" class="node"><title>Node397</title>
<g id="a_node5"><a xlink:href="classimage.html#a83026280ad6cc713ec9489ff3bd9776e" target="_top" xlink:title="image::ProcessBoundaryX">
<polygon fill="white" stroke="black" points="463,-38.5 463,-57.5 596,-57.5 596,-38.5 463,-38.5"/>
<text text-anchor="middle" x="529.5" y="-45.5" font-family="Helvetica,sans-Serif" font-size="10.00">image::ProcessBoundaryX</text>
</a>
</g>
</g>
<!-- Node396&#45;&gt;Node397 -->
<g id="edge4" class="edge"><title>Node396&#45;&gt;Node397</title>
<path fill="none" stroke="midnightblue" d="M437.216,-48C445.656,-48 454.334,-48 462.824,-48"/>
<polygon fill="midnightblue" stroke="midnightblue" points="437.067,-44.5001 427.067,-48 437.067,-51.5001 437.067,-44.5001"/>
</g>
<!-- Node398 -->
<g id="node6" class="node"><title>Node398</title>
<g id="a_node6"><a xlink:href="classimage.html#a4689c56b85c46d48ea52f0c9fa13891e" target="_top" xlink:title="image::processing">
<polygon fill="white" stroke="black" points="632,-19.5 632,-38.5 728,-38.5 728,-19.5 632,-19.5"/>
<text text-anchor="middle" x="680" y="-26.5" font-family="Helvetica,sans-Serif" font-size="10.00">image::processing</text>
</a>
</g>
</g>
<!-- Node397&#45;&gt;Node398 -->
<g id="edge5" class="edge"><title>Node397&#45;&gt;Node398</title>
<path fill="none" stroke="midnightblue" d="M606.207,-38.3136C614.858,-37.2067 623.483,-36.1032 631.612,-35.0631"/>
<polygon fill="midnightblue" stroke="midnightblue" points="605.541,-34.8701 596.067,-39.611 606.43,-41.8135 605.541,-34.8701"/>
</g>
<!-- Node399 -->
<g id="node7" class="node"><title>Node399</title>
<g id="a_node7"><a xlink:href="class_main_window.html#a9a45eb9ebe6d27bcd23677d9fbb74dd8" target="_top" xlink:title="MainWindow::on_Go_clicked">
<polygon fill="white" stroke="black" points="764,-19.5 764,-38.5 907,-38.5 907,-19.5 764,-19.5"/>
<text text-anchor="middle" x="835.5" y="-26.5" font-family="Helvetica,sans-Serif" font-size="10.00">MainWindow::on_Go_clicked</text>
</a>
</g>
</g>
<!-- Node398&#45;&gt;Node399 -->
<g id="edge6" class="edge"><title>Node398&#45;&gt;Node399</title>
<path fill="none" stroke="midnightblue" d="M738.583,-29C746.853,-29 755.441,-29 763.928,-29"/>
<polygon fill="midnightblue" stroke="midnightblue" points="738.308,-25.5001 728.308,-29 738.308,-32.5001 738.308,-25.5001"/>
</g>
<!-- Node401 -->
<g id="node9" class="node"><title>Node401</title>
<g id="a_node9"><a xlink:href="classimage.html#adf6b8c126649c9a40387f12b5f5f07d5" target="_top" xlink:title="image::ProcessBoundaryY">
<polygon fill="white" stroke="black" points="463,-0.5 463,-19.5 596,-19.5 596,-0.5 463,-0.5"/>
<text text-anchor="middle" x="529.5" y="-7.5" font-family="Helvetica,sans-Serif" font-size="10.00">image::ProcessBoundaryY</text>
</a>
</g>
</g>
<!-- Node400&#45;&gt;Node401 -->
<g id="edge8" class="edge"><title>Node400&#45;&gt;Node401</title>
<path fill="none" stroke="midnightblue" d="M437.216,-10C445.656,-10 454.334,-10 462.824,-10"/>
<polygon fill="midnightblue" stroke="midnightblue" points="437.067,-6.5001 427.067,-10 437.067,-13.5001 437.067,-6.5001"/>
</g>
<!-- Node401&#45;&gt;Node398 -->
<g id="edge9" class="edge"><title>Node401&#45;&gt;Node398</title>
<path fill="none" stroke="midnightblue" d="M606.207,-19.6864C614.858,-20.7933 623.483,-21.8968 631.612,-22.9369"/>
<polygon fill="midnightblue" stroke="midnightblue" points="606.43,-16.1865 596.067,-18.389 605.541,-23.1299 606.43,-16.1865"/>
</g>
</g>
</svg>
