<?xml version="1.0" encoding="UTF-8" standalone="no"?>
<!DOCTYPE svg PUBLIC "-//W3C//DTD SVG 1.1//EN"
 "http://www.w3.org/Graphics/SVG/1.1/DTD/svg11.dtd">
<!-- Generated by graphviz version 2.38.0 (20140413.2041)
 -->
<!-- Title: Node::getLeftChild Pages: 1 -->
<svg width="1108pt" height="274pt"
 viewBox="0.00 0.00 1108.00 274.00" xmlns="http://www.w3.org/2000/svg" xmlns:xlink="http://www.w3.org/1999/xlink">
<g id="graph0" class="graph" transform="scale(1 1) rotate(0) translate(4 270)">
<title>Node::getLeftChild</title>
<polygon fill="white" stroke="none" points="-4,4 -4,-270 1104,-270 1104,4 -4,4"/>
<!-- Node1 -->
<g id="node1" class="node"><title>Node1</title>
<polygon fill="#bfbfbf" stroke="black" points="0,-114.5 0,-133.5 98,-133.5 98,-114.5 0,-114.5"/>
<text text-anchor="middle" x="49" y="-121.5" font-family="Helvetica,sans-Serif" font-size="10.00">Node::getLeftChild</text>
</g>
<!-- Node2 -->
<g id="node2" class="node"><title>Node2</title>
<g id="a_node2"><a xlink:href="classio.html#a665eff0517fb9afbded1a2a7db62e1d7" target="_top" xlink:title="io::bestSegmentation">
<polygon fill="white" stroke="black" points="333,-190.5 333,-209.5 442,-209.5 442,-190.5 333,-190.5"/>
<text text-anchor="middle" x="387.5" y="-197.5" font-family="Helvetica,sans-Serif" font-size="10.00">io::bestSegmentation</text>
</a>
</g>
</g>
<!-- Node1&#45;&gt;Node2 -->
<g id="edge1" class="edge"><title>Node1&#45;&gt;Node2</title>
<path fill="none" stroke="midnightblue" d="M68.38,-140.696C84.429,-154.174 109.008,-172.282 134,-181 199.582,-203.878 280.394,-205.754 332.654,-203.837"/>
<polygon fill="midnightblue" stroke="midnightblue" points="70.242,-137.678 60.3931,-133.772 65.657,-142.967 70.242,-137.678"/>
</g>
<!-- Node11 -->
<g id="node11" class="node"><title>Node11</title>
<g id="a_node11"><a xlink:href="class_node.html#a9538c5096b9fae8beb5a716d98c41959" target="_top" xlink:title="Node::getSibling">
<polygon fill="white" stroke="black" points="159.5,-0.5 159.5,-19.5 248.5,-19.5 248.5,-0.5 159.5,-0.5"/>
<text text-anchor="middle" x="204" y="-7.5" font-family="Helvetica,sans-Serif" font-size="10.00">Node::getSibling</text>
</a>
</g>
</g>
<!-- Node1&#45;&gt;Node11 -->
<g id="edge12" class="edge"><title>Node1&#45;&gt;Node11</title>
<path fill="none" stroke="midnightblue" d="M61.3535,-105.694C75.6652,-84.1452 102.271,-48.7929 134,-29 141.696,-24.1994 150.613,-20.5917 159.43,-17.8869"/>
<polygon fill="midnightblue" stroke="midnightblue" points="58.3086,-103.958 55.8308,-114.259 64.1916,-107.752 58.3086,-103.958"/>
</g>
<!-- Node12 -->
<g id="node12" class="node"><title>Node12</title>
<g id="a_node12"><a xlink:href="class_node.html#adaaa531eae8cc809934f80b09ad8224e" target="_top" xlink:title="Node::releaseTree">
<polygon fill="white" stroke="black" points="339,-228.5 339,-247.5 436,-247.5 436,-228.5 339,-228.5"/>
<text text-anchor="middle" x="387.5" y="-235.5" font-family="Helvetica,sans-Serif" font-size="10.00">Node::releaseTree</text>
</a>
</g>
</g>
<!-- Node1&#45;&gt;Node12 -->
<g id="edge13" class="edge"><title>Node1&#45;&gt;Node12</title>
<path fill="none" stroke="midnightblue" d="M62.616,-141.913C77.3374,-161.272 103.579,-191.316 134,-206 199.859,-237.79 286.095,-241.85 338.836,-240.749"/>
<polygon fill="midnightblue" stroke="midnightblue" points="65.2627,-139.604 56.5177,-133.623 59.624,-143.752 65.2627,-139.604"/>
</g>
<!-- Node13 -->
<g id="node13" class="node"><title>Node13</title>
<g id="a_node13"><a xlink:href="classio.html#a4cca3fdf98e917cac1b3e776c7634aec" target="_top" xlink:title="io::writeBoarderNodeToCSV">
<polygon fill="white" stroke="black" points="134,-152.5 134,-171.5 274,-171.5 274,-152.5 134,-152.5"/>
<text text-anchor="middle" x="204" y="-159.5" font-family="Helvetica,sans-Serif" font-size="10.00">io::writeBoarderNodeToCSV</text>
</a>
</g>
</g>
<!-- Node1&#45;&gt;Node13 -->
<g id="edge18" class="edge"><title>Node1&#45;&gt;Node13</title>
<path fill="none" stroke="midnightblue" d="M98.4768,-136.04C119.852,-141.349 144.613,-147.499 164.669,-152.48"/>
<polygon fill="midnightblue" stroke="midnightblue" points="99.1572,-132.603 88.6084,-133.589 97.4698,-139.396 99.1572,-132.603"/>
</g>
<!-- Node17 -->
<g id="node17" class="node"><title>Node17</title>
<g id="a_node17"><a xlink:href="classio.html#a72962f4d8ddc9b57256730b089be4288" target="_top" xlink:title="io::writeClassMap">
<polygon fill="white" stroke="black" points="156.5,-114.5 156.5,-133.5 251.5,-133.5 251.5,-114.5 156.5,-114.5"/>
<text text-anchor="middle" x="204" y="-121.5" font-family="Helvetica,sans-Serif" font-size="10.00">io::writeClassMap</text>
</a>
</g>
</g>
<!-- Node1&#45;&gt;Node17 -->
<g id="edge23" class="edge"><title>Node1&#45;&gt;Node17</title>
<path fill="none" stroke="midnightblue" d="M108.633,-124C124.472,-124 141.395,-124 156.472,-124"/>
<polygon fill="midnightblue" stroke="midnightblue" points="108.41,-120.5 98.4102,-124 108.41,-127.5 108.41,-120.5"/>
</g>
<!-- Node18 -->
<g id="node18" class="node"><title>Node18</title>
<g id="a_node18"><a xlink:href="classio.html#a8aa97cb094b71a1583ef796b8200fbdb" target="_top" xlink:title="io::writeNodeToCSV">
<polygon fill="white" stroke="black" points="150.5,-76.5 150.5,-95.5 257.5,-95.5 257.5,-76.5 150.5,-76.5"/>
<text text-anchor="middle" x="204" y="-83.5" font-family="Helvetica,sans-Serif" font-size="10.00">io::writeNodeToCSV</text>
</a>
</g>
</g>
<!-- Node1&#45;&gt;Node18 -->
<g id="edge26" class="edge"><title>Node1&#45;&gt;Node18</title>
<path fill="none" stroke="midnightblue" d="M98.4768,-111.96C119.852,-106.651 144.613,-100.501 164.669,-95.5201"/>
<polygon fill="midnightblue" stroke="midnightblue" points="97.4698,-108.604 88.6084,-114.411 99.1572,-115.397 97.4698,-108.604"/>
</g>
<!-- Node19 -->
<g id="node19" class="node"><title>Node19</title>
<g id="a_node19"><a xlink:href="classio.html#aaa642111086b3ec2afee826a767d03ad" target="_top" xlink:title="io::writeNodeToDisk">
<polygon fill="white" stroke="black" points="151,-38.5 151,-57.5 257,-57.5 257,-38.5 151,-38.5"/>
<text text-anchor="middle" x="204" y="-45.5" font-family="Helvetica,sans-Serif" font-size="10.00">io::writeNodeToDisk</text>
</a>
</g>
</g>
<!-- Node1&#45;&gt;Node19 -->
<g id="edge29" class="edge"><title>Node1&#45;&gt;Node19</title>
<path fill="none" stroke="midnightblue" d="M69.7057,-107.874C86.0562,-95.1939 110.373,-77.9061 134,-67 142.122,-63.2507 151.134,-60.1075 159.892,-57.526"/>
<polygon fill="midnightblue" stroke="midnightblue" points="67.1636,-105.422 61.4966,-114.374 71.5092,-110.91 67.1636,-105.422"/>
</g>
<!-- Node3 -->
<g id="node3" class="node"><title>Node3</title>
<g id="a_node3"><a xlink:href="classimage.html#a12343719e8d96a4bda9c5bd6c035d52a" target="_top" xlink:title="image::mergeBlockX">
<polygon fill="white" stroke="black" points="507,-190.5 507,-209.5 614,-209.5 614,-190.5 507,-190.5"/>
<text text-anchor="middle" x="560.5" y="-197.5" font-family="Helvetica,sans-Serif" font-size="10.00">image::mergeBlockX</text>
</a>
</g>
</g>
<!-- Node2&#45;&gt;Node3 -->
<g id="edge2" class="edge"><title>Node2&#45;&gt;Node3</title>
<path fill="none" stroke="midnightblue" d="M452.265,-200C470.274,-200 489.662,-200 506.933,-200"/>
<polygon fill="midnightblue" stroke="midnightblue" points="452.136,-196.5 442.136,-200 452.136,-203.5 452.136,-196.5"/>
</g>
<!-- Node7 -->
<g id="node7" class="node"><title>Node7</title>
<g id="a_node7"><a xlink:href="classimage.html#aa21fc5a07af7528869425e750090b3b8" target="_top" xlink:title="image::mergeBlockY">
<polygon fill="white" stroke="black" points="507,-228.5 507,-247.5 614,-247.5 614,-228.5 507,-228.5"/>
<text text-anchor="middle" x="560.5" y="-235.5" font-family="Helvetica,sans-Serif" font-size="10.00">image::mergeBlockY</text>
</a>
</g>
</g>
<!-- Node2&#45;&gt;Node7 -->
<g id="edge6" class="edge"><title>Node2&#45;&gt;Node7</title>
<path fill="none" stroke="midnightblue" d="M441.709,-211.824C465.817,-217.182 493.94,-223.431 516.66,-228.48"/>
<polygon fill="midnightblue" stroke="midnightblue" points="442.172,-208.342 431.651,-209.589 440.653,-215.175 442.172,-208.342"/>
</g>
<!-- Node9 -->
<g id="node9" class="node"><title>Node9</title>
<g id="a_node9"><a xlink:href="classimageblock.html#af3b91e3daaa8014af1239f60da6b0bf5" target="_top" xlink:title="imageblock::processing">
<polygon fill="white" stroke="black" points="501,-152.5 501,-171.5 620,-171.5 620,-152.5 501,-152.5"/>
<text text-anchor="middle" x="560.5" y="-159.5" font-family="Helvetica,sans-Serif" font-size="10.00">imageblock::processing</text>
</a>
</g>
</g>
<!-- Node2&#45;&gt;Node9 -->
<g id="edge9" class="edge"><title>Node2&#45;&gt;Node9</title>
<path fill="none" stroke="midnightblue" d="M441.709,-188.176C465.817,-182.818 493.94,-176.569 516.66,-171.52"/>
<polygon fill="midnightblue" stroke="midnightblue" points="440.653,-184.825 431.651,-190.411 442.172,-191.658 440.653,-184.825"/>
</g>
<!-- Node4 -->
<g id="node4" class="node"><title>Node4</title>
<g id="a_node4"><a xlink:href="classimage.html#a83026280ad6cc713ec9489ff3bd9776e" target="_top" xlink:title="image::ProcessBoundaryX">
<polygon fill="white" stroke="black" points="656,-190.5 656,-209.5 789,-209.5 789,-190.5 656,-190.5"/>
<text text-anchor="middle" x="722.5" y="-197.5" font-family="Helvetica,sans-Serif" font-size="10.00">image::ProcessBoundaryX</text>
</a>
</g>
</g>
<!-- Node3&#45;&gt;Node4 -->
<g id="edge3" class="edge"><title>Node3&#45;&gt;Node4</title>
<path fill="none" stroke="midnightblue" d="M624.486,-200C634.798,-200 645.505,-200 655.879,-200"/>
<polygon fill="midnightblue" stroke="midnightblue" points="624.333,-196.5 614.333,-200 624.333,-203.5 624.333,-196.5"/>
</g>
<!-- Node5 -->
<g id="node5" class="node"><title>Node5</title>
<g id="a_node5"><a xlink:href="classimage.html#a4689c56b85c46d48ea52f0c9fa13891e" target="_top" xlink:title="image::processing">
<polygon fill="white" stroke="black" points="825,-190.5 825,-209.5 921,-209.5 921,-190.5 825,-190.5"/>
<text text-anchor="middle" x="873" y="-197.5" font-family="Helvetica,sans-Serif" font-size="10.00">image::processing</text>
</a>
</g>
</g>
<!-- Node4&#45;&gt;Node5 -->
<g id="edge4" class="edge"><title>Node4&#45;&gt;Node5</title>
<path fill="none" stroke="midnightblue" d="M799.207,-200C807.858,-200 816.483,-200 824.612,-200"/>
<polygon fill="midnightblue" stroke="midnightblue" points="799.067,-196.5 789.067,-200 799.066,-203.5 799.067,-196.5"/>
</g>
<!-- Node6 -->
<g id="node6" class="node"><title>Node6</title>
<g id="a_node6"><a xlink:href="class_main_window.html#a9a45eb9ebe6d27bcd23677d9fbb74dd8" target="_top" xlink:title="MainWindow::on_Go_clicked">
<polygon fill="white" stroke="black" points="957,-190.5 957,-209.5 1100,-209.5 1100,-190.5 957,-190.5"/>
<text text-anchor="middle" x="1028.5" y="-197.5" font-family="Helvetica,sans-Serif" font-size="10.00">MainWindow::on_Go_clicked</text>
</a>
</g>
</g>
<!-- Node5&#45;&gt;Node6 -->
<g id="edge5" class="edge"><title>Node5&#45;&gt;Node6</title>
<path fill="none" stroke="midnightblue" d="M931.583,-200C939.853,-200 948.441,-200 956.928,-200"/>
<polygon fill="midnightblue" stroke="midnightblue" points="931.308,-196.5 921.308,-200 931.308,-203.5 931.308,-196.5"/>
</g>
<!-- Node8 -->
<g id="node8" class="node"><title>Node8</title>
<g id="a_node8"><a xlink:href="classimage.html#adf6b8c126649c9a40387f12b5f5f07d5" target="_top" xlink:title="image::ProcessBoundaryY">
<polygon fill="white" stroke="black" points="656,-228.5 656,-247.5 789,-247.5 789,-228.5 656,-228.5"/>
<text text-anchor="middle" x="722.5" y="-235.5" font-family="Helvetica,sans-Serif" font-size="10.00">image::ProcessBoundaryY</text>
</a>
</g>
</g>
<!-- Node7&#45;&gt;Node8 -->
<g id="edge7" class="edge"><title>Node7&#45;&gt;Node8</title>
<path fill="none" stroke="midnightblue" d="M624.486,-238C634.798,-238 645.505,-238 655.879,-238"/>
<polygon fill="midnightblue" stroke="midnightblue" points="624.333,-234.5 614.333,-238 624.333,-241.5 624.333,-234.5"/>
</g>
<!-- Node8&#45;&gt;Node5 -->
<g id="edge8" class="edge"><title>Node8&#45;&gt;Node5</title>
<path fill="none" stroke="midnightblue" d="M770.833,-225.888C791.515,-220.596 815.419,-214.479 834.797,-209.52"/>
<polygon fill="midnightblue" stroke="midnightblue" points="769.793,-222.541 760.973,-228.411 771.528,-229.323 769.793,-222.541"/>
</g>
<!-- Node10 -->
<g id="node10" class="node"><title>Node10</title>
<g id="a_node10"><a xlink:href="classimage.html#ad5a9d767eca6f9bbb8dcb556527edf4d" target="_top" xlink:title="image::ProcessTiles">
<polygon fill="white" stroke="black" points="669.5,-152.5 669.5,-171.5 775.5,-171.5 775.5,-152.5 669.5,-152.5"/>
<text text-anchor="middle" x="722.5" y="-159.5" font-family="Helvetica,sans-Serif" font-size="10.00">image::ProcessTiles</text>
</a>
</g>
</g>
<!-- Node9&#45;&gt;Node10 -->
<g id="edge10" class="edge"><title>Node9&#45;&gt;Node10</title>
<path fill="none" stroke="midnightblue" d="M630.525,-162C643.577,-162 657.026,-162 669.447,-162"/>
<polygon fill="midnightblue" stroke="midnightblue" points="630.17,-158.5 620.17,-162 630.17,-165.5 630.17,-158.5"/>
</g>
<!-- Node10&#45;&gt;Node5 -->
<g id="edge11" class="edge"><title>Node10&#45;&gt;Node5</title>
<path fill="none" stroke="midnightblue" d="M770.833,-174.112C791.515,-179.404 815.419,-185.521 834.797,-190.48"/>
<polygon fill="midnightblue" stroke="midnightblue" points="771.528,-170.677 760.973,-171.589 769.793,-177.459 771.528,-170.677"/>
</g>
<!-- Node12&#45;&gt;Node3 -->
<g id="edge14" class="edge"><title>Node12&#45;&gt;Node3</title>
<path fill="none" stroke="midnightblue" d="M441.709,-226.176C465.817,-220.818 493.94,-214.569 516.66,-209.52"/>
<polygon fill="midnightblue" stroke="midnightblue" points="440.653,-222.825 431.651,-228.411 442.172,-229.658 440.653,-222.825"/>
</g>
<!-- Node12&#45;&gt;Node7 -->
<g id="edge15" class="edge"><title>Node12&#45;&gt;Node7</title>
<path fill="none" stroke="midnightblue" d="M446.153,-238C465.744,-238 487.524,-238 506.715,-238"/>
<polygon fill="midnightblue" stroke="midnightblue" points="446.133,-234.5 436.133,-238 446.133,-241.5 446.133,-234.5"/>
</g>
<!-- Node12&#45;&gt;Node9 -->
<g id="edge16" class="edge"><title>Node12&#45;&gt;Node9</title>
<path fill="none" stroke="midnightblue" d="M446.016,-227.548C452.642,-225.24 459.122,-222.427 465,-219 485.097,-207.281 481.329,-193.421 501,-181 507.049,-177.18 513.939,-174.058 520.816,-171.531"/>
<polygon fill="midnightblue" stroke="midnightblue" points="444.766,-224.271 436.255,-230.58 446.843,-230.956 444.766,-224.271"/>
</g>
<!-- Node12&#45;&gt;Node12 -->
<g id="edge17" class="edge"><title>Node12&#45;&gt;Node12</title>
<path fill="none" stroke="midnightblue" d="M355.314,-256.275C356.232,-261.741 366.961,-266 387.5,-266 418.07,-266 426.907,-256.565 414.01,-247.757"/>
<polygon fill="midnightblue" stroke="midnightblue" points="358.357,-258.02 360.99,-247.757 352.532,-254.138 358.357,-258.02"/>
</g>
<!-- Node14 -->
<g id="node14" class="node"><title>Node14</title>
<g id="a_node14"><a xlink:href="classimageblock.html#adbafde60f699582250656ddc2ebe82e2" target="_top" xlink:title="imageblock::saveToDisk">
<polygon fill="white" stroke="black" points="325,-76.5 325,-95.5 450,-95.5 450,-76.5 325,-76.5"/>
<text text-anchor="middle" x="387.5" y="-83.5" font-family="Helvetica,sans-Serif" font-size="10.00">imageblock::saveToDisk</text>
</a>
</g>
</g>
<!-- Node13&#45;&gt;Node14 -->
<g id="edge19" class="edge"><title>Node13&#45;&gt;Node14</title>
<path fill="none" stroke="midnightblue" d="M262.588,-148.783C266.558,-147.077 270.404,-145.158 274,-143 293.947,-131.028 289.903,-116.719 310,-105 316.62,-101.14 324.005,-98.0589 331.502,-95.6016"/>
<polygon fill="midnightblue" stroke="midnightblue" points="261.254,-145.546 253.165,-152.388 263.756,-152.084 261.254,-145.546"/>
</g>
<!-- Node15 -->
<g id="node15" class="node"><title>Node15</title>
<g id="a_node15"><a xlink:href="classimage.html#a8a4c71e9c53353a4c65bb5f17122a9f4" target="_top" xlink:title="image::saveToDisk">
<polygon fill="white" stroke="black" points="337,-114.5 337,-133.5 438,-133.5 438,-114.5 337,-114.5"/>
<text text-anchor="middle" x="387.5" y="-121.5" font-family="Helvetica,sans-Serif" font-size="10.00">image::saveToDisk</text>
</a>
</g>
</g>
<!-- Node13&#45;&gt;Node15 -->
<g id="edge21" class="edge"><title>Node13&#45;&gt;Node15</title>
<path fill="none" stroke="midnightblue" d="M260.792,-150.319C286.531,-144.93 316.699,-138.614 341.029,-133.52"/>
<polygon fill="midnightblue" stroke="midnightblue" points="259.871,-146.936 250.8,-152.411 261.305,-153.787 259.871,-146.936"/>
</g>
<!-- Node16 -->
<g id="node16" class="node"><title>Node16</title>
<g id="a_node16"><a xlink:href="classio.html#ac201c9bbc67dbfcbde52a061462f4ced" target="_top" xlink:title="io::writeBoarderNodeSetToCSV">
<polygon fill="white" stroke="black" points="310,-152.5 310,-171.5 465,-171.5 465,-152.5 310,-152.5"/>
<text text-anchor="middle" x="387.5" y="-159.5" font-family="Helvetica,sans-Serif" font-size="10.00">io::writeBoarderNodeSetToCSV</text>
</a>
</g>
</g>
<!-- Node13&#45;&gt;Node16 -->
<g id="edge22" class="edge"><title>Node13&#45;&gt;Node16</title>
<path fill="none" stroke="midnightblue" d="M284.407,-162C292.9,-162 301.527,-162 309.985,-162"/>
<polygon fill="midnightblue" stroke="midnightblue" points="284.135,-158.5 274.135,-162 284.135,-165.5 284.135,-158.5"/>
</g>
<!-- Node14&#45;&gt;Node9 -->
<g id="edge20" class="edge"><title>Node14&#45;&gt;Node9</title>
<path fill="none" stroke="midnightblue" d="M446.497,-98.4381C452.83,-100.375 459.11,-102.558 465,-105 495.972,-117.843 528.759,-139.764 546.407,-152.349"/>
<polygon fill="midnightblue" stroke="midnightblue" points="447.127,-94.978 436.55,-95.5954 445.203,-101.709 447.127,-94.978"/>
</g>
<!-- Node17&#45;&gt;Node14 -->
<g id="edge24" class="edge"><title>Node17&#45;&gt;Node14</title>
<path fill="none" stroke="midnightblue" d="M260.792,-112.319C286.531,-106.93 316.699,-100.614 341.029,-95.5201"/>
<polygon fill="midnightblue" stroke="midnightblue" points="259.871,-108.936 250.8,-114.411 261.305,-115.787 259.871,-108.936"/>
</g>
<!-- Node17&#45;&gt;Node15 -->
<g id="edge25" class="edge"><title>Node17&#45;&gt;Node15</title>
<path fill="none" stroke="midnightblue" d="M261.784,-124C285.804,-124 313.535,-124 336.739,-124"/>
<polygon fill="midnightblue" stroke="midnightblue" points="261.741,-120.5 251.741,-124 261.741,-127.5 261.741,-120.5"/>
</g>
<!-- Node18&#45;&gt;Node14 -->
<g id="edge27" class="edge"><title>Node18&#45;&gt;Node14</title>
<path fill="none" stroke="midnightblue" d="M268.012,-86C286.41,-86 306.491,-86 324.807,-86"/>
<polygon fill="midnightblue" stroke="midnightblue" points="267.985,-82.5001 257.985,-86 267.985,-89.5001 267.985,-82.5001"/>
</g>
<!-- Node18&#45;&gt;Node15 -->
<g id="edge28" class="edge"><title>Node18&#45;&gt;Node15</title>
<path fill="none" stroke="midnightblue" d="M260.792,-97.681C286.531,-103.07 316.699,-109.386 341.029,-114.48"/>
<polygon fill="midnightblue" stroke="midnightblue" points="261.305,-94.2126 250.8,-95.589 259.871,-101.064 261.305,-94.2126"/>
</g>
<!-- Node19&#45;&gt;Node14 -->
<g id="edge30" class="edge"><title>Node19&#45;&gt;Node14</title>
<path fill="none" stroke="midnightblue" d="M260.792,-59.681C286.531,-65.0699 316.699,-71.3861 341.029,-76.4799"/>
<polygon fill="midnightblue" stroke="midnightblue" points="261.305,-56.2126 250.8,-57.589 259.871,-63.064 261.305,-56.2126"/>
</g>
<!-- Node19&#45;&gt;Node15 -->
<g id="edge31" class="edge"><title>Node19&#45;&gt;Node15</title>
<path fill="none" stroke="midnightblue" d="M262.588,-61.2168C266.558,-62.9227 270.404,-64.842 274,-67 293.947,-78.9723 289.903,-93.2806 310,-105 318.157,-109.757 327.474,-113.329 336.734,-116.011"/>
<polygon fill="midnightblue" stroke="midnightblue" points="263.756,-57.916 253.165,-57.6115 261.254,-64.4538 263.756,-57.916"/>
</g>
</g>
</svg>
