<?xml version="1.0" encoding="UTF-8" standalone="no"?>
<!DOCTYPE svg PUBLIC "-//W3C//DTD SVG 1.1//EN"
 "http://www.w3.org/Graphics/SVG/1.1/DTD/svg11.dtd">
<!-- Generated by graphviz version 2.38.0 (20140413.2041)
 -->
<!-- Title: image::blockSizeCalculator_evenSplite Pages: 1 -->
<svg width="485pt" height="39pt"
 viewBox="0.00 0.00 485.00 39.00" xmlns="http://www.w3.org/2000/svg" xmlns:xlink="http://www.w3.org/1999/xlink">
<g id="graph0" class="graph" transform="scale(1 1) rotate(0) translate(4 35)">
<title>image::blockSizeCalculator_evenSplite</title>
<polygon fill="white" stroke="none" points="-4,4 -4,-35 481,-35 481,4 -4,4"/>
<!-- Node1 -->
<g id="node1" class="node"><title>Node1</title>
<polygon fill="#bfbfbf" stroke="black" points="0,-0.5 0,-30.5 136,-30.5 136,-0.5 0,-0.5"/>
<text text-anchor="start" x="8" y="-18.5" font-family="Helvetica,sans-Serif" font-size="10.00">image::blockSizeCalculator</text>
<text text-anchor="middle" x="68" y="-7.5" font-family="Helvetica,sans-Serif" font-size="10.00">_evenSplite</text>
</g>
<!-- Node2 -->
<g id="node2" class="node"><title>Node2</title>
<g id="a_node2"><a xlink:href="classimage.html#a16c139a7a2ab7bb2c412f97d5abdcacd" target="_top" xlink:title="image::setGlobalSettings">
<polygon fill="white" stroke="black" points="172,-6 172,-25 298,-25 298,-6 172,-6"/>
<text text-anchor="middle" x="235" y="-13" font-family="Helvetica,sans-Serif" font-size="10.00">image::setGlobalSettings</text>
</a>
</g>
</g>
<!-- Node1&#45;&gt;Node2 -->
<g id="edge1" class="edge"><title>Node1&#45;&gt;Node2</title>
<path fill="none" stroke="midnightblue" d="M146.129,-15.5C154.712,-15.5 163.373,-15.5 171.738,-15.5"/>
<polygon fill="midnightblue" stroke="midnightblue" points="146.112,-12.0001 136.112,-15.5 146.112,-19.0001 146.112,-12.0001"/>
</g>
<!-- Node3 -->
<g id="node3" class="node"><title>Node3</title>
<g id="a_node3"><a xlink:href="class_main_window.html#a9a45eb9ebe6d27bcd23677d9fbb74dd8" target="_top" xlink:title="MainWindow::on_Go_clicked">
<polygon fill="white" stroke="black" points="334,-6 334,-25 477,-25 477,-6 334,-6"/>
<text text-anchor="middle" x="405.5" y="-13" font-family="Helvetica,sans-Serif" font-size="10.00">MainWindow::on_Go_clicked</text>
</a>
</g>
</g>
<!-- Node2&#45;&gt;Node3 -->
<g id="edge2" class="edge"><title>Node2&#45;&gt;Node3</title>
<path fill="none" stroke="midnightblue" d="M308.472,-15.5C316.926,-15.5 325.541,-15.5 333.968,-15.5"/>
<polygon fill="midnightblue" stroke="midnightblue" points="308.264,-12.0001 298.264,-15.5 308.264,-19.0001 308.264,-12.0001"/>
</g>
</g>
</svg>
