<?xml version="1.0" encoding="UTF-8" standalone="no"?>
<!DOCTYPE svg PUBLIC "-//W3C//DTD SVG 1.1//EN"
 "http://www.w3.org/Graphics/SVG/1.1/DTD/svg11.dtd">
<!-- Generated by graphviz version 2.38.0 (20140413.2041)
 -->
<!-- Title: EdgeHeap::removeAt Pages: 1 -->
<svg width="1359pt" height="104pt"
 viewBox="0.00 0.00 1359.00 104.00" xmlns="http://www.w3.org/2000/svg" xmlns:xlink="http://www.w3.org/1999/xlink">
<g id="graph0" class="graph" transform="scale(1 1) rotate(0) translate(4 100)">
<title>EdgeHeap::removeAt</title>
<polygon fill="white" stroke="none" points="-4,4 -4,-100 1355,-100 1355,4 -4,4"/>
<!-- Node188 -->
<g id="node1" class="node"><title>Node188</title>
<polygon fill="#bfbfbf" stroke="black" points="0,-38.5 0,-57.5 110,-57.5 110,-38.5 0,-38.5"/>
<text text-anchor="middle" x="55" y="-45.5" font-family="Helvetica,sans-Serif" font-size="10.00">EdgeHeap::removeAt</text>
</g>
<!-- Node189 -->
<g id="node2" class="node"><title>Node189</title>
<g id="a_node2"><a xlink:href="class_edge_heap.html#ac36afe05c095a87767748b41dfa831a5" target="_top" xlink:title="EdgeHeap::remove">
<polygon fill="white" stroke="black" points="146,-57.5 146,-76.5 247,-76.5 247,-57.5 146,-57.5"/>
<text text-anchor="middle" x="196.5" y="-64.5" font-family="Helvetica,sans-Serif" font-size="10.00">EdgeHeap::remove</text>
</a>
</g>
</g>
<!-- Node188&#45;&gt;Node189 -->
<g id="edge1" class="edge"><title>Node188&#45;&gt;Node189</title>
<path fill="none" stroke="midnightblue" d="M120.257,-56.7519C128.78,-57.9127 137.413,-59.0884 145.642,-60.2093"/>
<polygon fill="midnightblue" stroke="midnightblue" points="120.715,-53.282 110.334,-55.4003 119.77,-60.2179 120.715,-53.282"/>
</g>
<!-- Node201 -->
<g id="node14" class="node"><title>Node201</title>
<g id="a_node14"><a xlink:href="class_edge_heap.html#a001dc48506130f599bddb241006d2920" target="_top" xlink:title="EdgeHeap::removeFront">
<polygon fill="white" stroke="black" points="283,-19.5 283,-38.5 406,-38.5 406,-19.5 283,-19.5"/>
<text text-anchor="middle" x="344.5" y="-26.5" font-family="Helvetica,sans-Serif" font-size="10.00">EdgeHeap::removeFront</text>
</a>
</g>
</g>
<!-- Node188&#45;&gt;Node201 -->
<g id="edge15" class="edge"><title>Node188&#45;&gt;Node201</title>
<path fill="none" stroke="midnightblue" d="M120.175,-43.7589C168.821,-40.544 235.22,-36.1559 282.953,-33.0014"/>
<polygon fill="midnightblue" stroke="midnightblue" points="119.824,-40.2743 110.077,-44.4262 120.286,-47.2591 119.824,-40.2743"/>
</g>
<!-- Node190 -->
<g id="node3" class="node"><title>Node190</title>
<g id="a_node3"><a xlink:href="class_r_a_g.html#aa2de492a3df037db29b0e3ccab5251ee" target="_top" xlink:title="RAG::merge">
<polygon fill="white" stroke="black" points="309,-57.5 309,-76.5 380,-76.5 380,-57.5 309,-57.5"/>
<text text-anchor="middle" x="344.5" y="-64.5" font-family="Helvetica,sans-Serif" font-size="10.00">RAG::merge</text>
</a>
</g>
</g>
<!-- Node189&#45;&gt;Node190 -->
<g id="edge2" class="edge"><title>Node189&#45;&gt;Node190</title>
<path fill="none" stroke="midnightblue" d="M257.438,-67C274.849,-67 293.285,-67 308.608,-67"/>
<polygon fill="midnightblue" stroke="midnightblue" points="257.337,-63.5001 247.337,-67 257.337,-70.5001 257.337,-63.5001"/>
</g>
<!-- Node191 -->
<g id="node4" class="node"><title>Node191</title>
<g id="a_node4"><a xlink:href="class_r_a_g.html#ab09eebb1b704d18b583d528e77f7604a" target="_top" xlink:title="RAG::regionMerging">
<polygon fill="white" stroke="black" points="442,-38.5 442,-57.5 547,-57.5 547,-38.5 442,-38.5"/>
<text text-anchor="middle" x="494.5" y="-45.5" font-family="Helvetica,sans-Serif" font-size="10.00">RAG::regionMerging</text>
</a>
</g>
</g>
<!-- Node190&#45;&gt;Node191 -->
<g id="edge3" class="edge"><title>Node190&#45;&gt;Node191</title>
<path fill="none" stroke="midnightblue" d="M390.501,-61.2228C406.725,-59.1401 425.157,-56.7738 441.9,-54.6243"/>
<polygon fill="midnightblue" stroke="midnightblue" points="389.672,-57.8004 380.199,-62.5453 390.564,-64.7434 389.672,-57.8004"/>
</g>
<!-- Node192 -->
<g id="node5" class="node"><title>Node192</title>
<g id="a_node5"><a xlink:href="classimage.html#a12343719e8d96a4bda9c5bd6c035d52a" target="_top" xlink:title="image::mergeBlockX">
<polygon fill="white" stroke="black" points="589,-76.5 589,-95.5 696,-95.5 696,-76.5 589,-76.5"/>
<text text-anchor="middle" x="642.5" y="-83.5" font-family="Helvetica,sans-Serif" font-size="10.00">image::mergeBlockX</text>
</a>
</g>
</g>
<!-- Node191&#45;&gt;Node192 -->
<g id="edge4" class="edge"><title>Node191&#45;&gt;Node192</title>
<path fill="none" stroke="midnightblue" d="M542.036,-60.1121C562.37,-65.4044 585.871,-71.5213 604.923,-76.4799"/>
<polygon fill="midnightblue" stroke="midnightblue" points="542.901,-56.7207 532.342,-57.589 541.138,-63.4951 542.901,-56.7207"/>
</g>
<!-- Node196 -->
<g id="node9" class="node"><title>Node196</title>
<g id="a_node9"><a xlink:href="classimage.html#aa21fc5a07af7528869425e750090b3b8" target="_top" xlink:title="image::mergeBlockY">
<polygon fill="white" stroke="black" points="589,-38.5 589,-57.5 696,-57.5 696,-38.5 589,-38.5"/>
<text text-anchor="middle" x="642.5" y="-45.5" font-family="Helvetica,sans-Serif" font-size="10.00">image::mergeBlockY</text>
</a>
</g>
</g>
<!-- Node191&#45;&gt;Node196 -->
<g id="edge8" class="edge"><title>Node191&#45;&gt;Node196</title>
<path fill="none" stroke="midnightblue" d="M557.631,-48C568.008,-48 578.685,-48 588.797,-48"/>
<polygon fill="midnightblue" stroke="midnightblue" points="557.385,-44.5001 547.385,-48 557.385,-51.5001 557.385,-44.5001"/>
</g>
<!-- Node198 -->
<g id="node11" class="node"><title>Node198</title>
<g id="a_node11"><a xlink:href="classimageblock.html#abcc69a8c00ad79067185c700463f8126" target="_top" xlink:title="imageblock::createBPT">
<polygon fill="white" stroke="black" points="583,-0.5 583,-19.5 702,-19.5 702,-0.5 583,-0.5"/>
<text text-anchor="middle" x="642.5" y="-7.5" font-family="Helvetica,sans-Serif" font-size="10.00">imageblock::createBPT</text>
</a>
</g>
</g>
<!-- Node191&#45;&gt;Node198 -->
<g id="edge11" class="edge"><title>Node191&#45;&gt;Node198</title>
<path fill="none" stroke="midnightblue" d="M542.036,-35.8879C562.37,-30.5956 585.871,-24.4787 604.923,-19.5201"/>
<polygon fill="midnightblue" stroke="midnightblue" points="541.138,-32.5049 532.342,-38.411 542.901,-39.2793 541.138,-32.5049"/>
</g>
<!-- Node193 -->
<g id="node6" class="node"><title>Node193</title>
<g id="a_node6"><a xlink:href="classimage.html#a83026280ad6cc713ec9489ff3bd9776e" target="_top" xlink:title="image::ProcessBoundaryX">
<polygon fill="white" stroke="black" points="907,-76.5 907,-95.5 1040,-95.5 1040,-76.5 907,-76.5"/>
<text text-anchor="middle" x="973.5" y="-83.5" font-family="Helvetica,sans-Serif" font-size="10.00">image::ProcessBoundaryX</text>
</a>
</g>
</g>
<!-- Node192&#45;&gt;Node193 -->
<g id="edge5" class="edge"><title>Node192&#45;&gt;Node193</title>
<path fill="none" stroke="midnightblue" d="M706.399,-86C763.829,-86 848.414,-86 906.728,-86"/>
<polygon fill="midnightblue" stroke="midnightblue" points="706.36,-82.5001 696.36,-86 706.36,-89.5001 706.36,-82.5001"/>
</g>
<!-- Node194 -->
<g id="node7" class="node"><title>Node194</title>
<g id="a_node7"><a xlink:href="classimage.html#a4689c56b85c46d48ea52f0c9fa13891e" target="_top" xlink:title="image::processing">
<polygon fill="white" stroke="black" points="1076,-38.5 1076,-57.5 1172,-57.5 1172,-38.5 1076,-38.5"/>
<text text-anchor="middle" x="1124" y="-45.5" font-family="Helvetica,sans-Serif" font-size="10.00">image::processing</text>
</a>
</g>
</g>
<!-- Node193&#45;&gt;Node194 -->
<g id="edge6" class="edge"><title>Node193&#45;&gt;Node194</title>
<path fill="none" stroke="midnightblue" d="M1021.83,-73.8879C1042.51,-68.5956 1066.42,-62.4787 1085.8,-57.5201"/>
<polygon fill="midnightblue" stroke="midnightblue" points="1020.79,-70.5411 1011.97,-76.411 1022.53,-77.3226 1020.79,-70.5411"/>
</g>
<!-- Node195 -->
<g id="node8" class="node"><title>Node195</title>
<g id="a_node8"><a xlink:href="class_main_window.html#a9a45eb9ebe6d27bcd23677d9fbb74dd8" target="_top" xlink:title="MainWindow::on_Go_clicked">
<polygon fill="white" stroke="black" points="1208,-38.5 1208,-57.5 1351,-57.5 1351,-38.5 1208,-38.5"/>
<text text-anchor="middle" x="1279.5" y="-45.5" font-family="Helvetica,sans-Serif" font-size="10.00">MainWindow::on_Go_clicked</text>
</a>
</g>
</g>
<!-- Node194&#45;&gt;Node195 -->
<g id="edge7" class="edge"><title>Node194&#45;&gt;Node195</title>
<path fill="none" stroke="midnightblue" d="M1182.58,-48C1190.85,-48 1199.44,-48 1207.93,-48"/>
<polygon fill="midnightblue" stroke="midnightblue" points="1182.31,-44.5001 1172.31,-48 1182.31,-51.5001 1182.31,-44.5001"/>
</g>
<!-- Node197 -->
<g id="node10" class="node"><title>Node197</title>
<g id="a_node10"><a xlink:href="classimage.html#adf6b8c126649c9a40387f12b5f5f07d5" target="_top" xlink:title="image::ProcessBoundaryY">
<polygon fill="white" stroke="black" points="738,-38.5 738,-57.5 871,-57.5 871,-38.5 738,-38.5"/>
<text text-anchor="middle" x="804.5" y="-45.5" font-family="Helvetica,sans-Serif" font-size="10.00">image::ProcessBoundaryY</text>
</a>
</g>
</g>
<!-- Node196&#45;&gt;Node197 -->
<g id="edge9" class="edge"><title>Node196&#45;&gt;Node197</title>
<path fill="none" stroke="midnightblue" d="M706.486,-48C716.798,-48 727.505,-48 737.879,-48"/>
<polygon fill="midnightblue" stroke="midnightblue" points="706.333,-44.5001 696.333,-48 706.333,-51.5001 706.333,-44.5001"/>
</g>
<!-- Node197&#45;&gt;Node194 -->
<g id="edge10" class="edge"><title>Node197&#45;&gt;Node194</title>
<path fill="none" stroke="midnightblue" d="M881.542,-48C941.982,-48 1024.61,-48 1075.85,-48"/>
<polygon fill="midnightblue" stroke="midnightblue" points="881.286,-44.5001 871.286,-48 881.286,-51.5001 881.286,-44.5001"/>
</g>
<!-- Node199 -->
<g id="node12" class="node"><title>Node199</title>
<g id="a_node12"><a xlink:href="classimageblock.html#af3b91e3daaa8014af1239f60da6b0bf5" target="_top" xlink:title="imageblock::processing">
<polygon fill="white" stroke="black" points="745,-0.5 745,-19.5 864,-19.5 864,-0.5 745,-0.5"/>
<text text-anchor="middle" x="804.5" y="-7.5" font-family="Helvetica,sans-Serif" font-size="10.00">imageblock::processing</text>
</a>
</g>
</g>
<!-- Node198&#45;&gt;Node199 -->
<g id="edge12" class="edge"><title>Node198&#45;&gt;Node199</title>
<path fill="none" stroke="midnightblue" d="M712.415,-10C723.217,-10 734.294,-10 744.838,-10"/>
<polygon fill="midnightblue" stroke="midnightblue" points="712.17,-6.5001 702.17,-10 712.17,-13.5001 712.17,-6.5001"/>
</g>
<!-- Node200 -->
<g id="node13" class="node"><title>Node200</title>
<g id="a_node13"><a xlink:href="classimage.html#ad5a9d767eca6f9bbb8dcb556527edf4d" target="_top" xlink:title="image::ProcessTiles">
<polygon fill="white" stroke="black" points="920.5,-0.5 920.5,-19.5 1026.5,-19.5 1026.5,-0.5 920.5,-0.5"/>
<text text-anchor="middle" x="973.5" y="-7.5" font-family="Helvetica,sans-Serif" font-size="10.00">image::ProcessTiles</text>
</a>
</g>
</g>
<!-- Node199&#45;&gt;Node200 -->
<g id="edge13" class="edge"><title>Node199&#45;&gt;Node200</title>
<path fill="none" stroke="midnightblue" d="M874.781,-10C889.994,-10 905.857,-10 920.267,-10"/>
<polygon fill="midnightblue" stroke="midnightblue" points="874.378,-6.5001 864.378,-10 874.378,-13.5001 874.378,-6.5001"/>
</g>
<!-- Node200&#45;&gt;Node194 -->
<g id="edge14" class="edge"><title>Node200&#45;&gt;Node194</title>
<path fill="none" stroke="midnightblue" d="M1021.83,-22.1121C1042.51,-27.4044 1066.42,-33.5213 1085.8,-38.4799"/>
<polygon fill="midnightblue" stroke="midnightblue" points="1022.53,-18.6774 1011.97,-19.589 1020.79,-25.4589 1022.53,-18.6774"/>
</g>
<!-- Node201&#45;&gt;Node191 -->
<g id="edge16" class="edge"><title>Node201&#45;&gt;Node191</title>
<path fill="none" stroke="midnightblue" d="M416.177,-38.0733C424.787,-39.1787 433.457,-40.2918 441.721,-41.3526"/>
<polygon fill="midnightblue" stroke="midnightblue" points="416.489,-34.5848 406.124,-36.7828 415.597,-41.5278 416.489,-34.5848"/>
</g>
</g>
</svg>
