<?xml version="1.0" encoding="UTF-8" standalone="no"?>
<!DOCTYPE svg PUBLIC "-//W3C//DTD SVG 1.1//EN"
 "http://www.w3.org/Graphics/SVG/1.1/DTD/svg11.dtd">
<!-- Generated by graphviz version 2.38.0 (20140413.2041)
 -->
<!-- Title: compoundModel::merge Pages: 1 -->
<svg width="692pt" height="770pt"
 viewBox="0.00 0.00 692.00 770.00" xmlns="http://www.w3.org/2000/svg" xmlns:xlink="http://www.w3.org/1999/xlink">
<g id="graph0" class="graph" transform="scale(1 1) rotate(0) translate(4 766)">
<title>compoundModel::merge</title>
<polygon fill="white" stroke="none" points="-4,4 -4,-766 688,-766 688,4 -4,4"/>
<!-- Node57 -->
<g id="node1" class="node"><title>Node57</title>
<polygon fill="#bfbfbf" stroke="black" points="0,-233.5 0,-252.5 121,-252.5 121,-233.5 0,-233.5"/>
<text text-anchor="middle" x="60.5" y="-240.5" font-family="Helvetica,sans-Serif" font-size="10.00">compoundModel::merge</text>
</g>
<!-- Node58 -->
<g id="node2" class="node"><title>Node58</title>
<g id="a_node2"><a xlink:href="classcompound_model.html#a66e0b4d1d75debf6d14cf58640f96acd" target="_top" xlink:title="compoundModel::compoundModel">
<polygon fill="white" stroke="black" points="157,-742.5 157,-761.5 322,-761.5 322,-742.5 157,-742.5"/>
<text text-anchor="middle" x="239.5" y="-749.5" font-family="Helvetica,sans-Serif" font-size="10.00">compoundModel::compoundModel</text>
</a>
</g>
</g>
<!-- Node57&#45;&gt;Node58 -->
<g id="edge1" class="edge"><title>Node57&#45;&gt;Node58</title>
<path fill="none" stroke="midnightblue" d="M62.067,-252.647C65.8861,-314.423 89.7736,-654.288 157,-728 160.513,-731.852 164.609,-735.098 169.061,-737.831"/>
<polygon fill="midnightblue" stroke="midnightblue" points="167.514,-740.971 178,-742.481 170.744,-734.761 167.514,-740.971"/>
</g>
<!-- Node59 -->
<g id="node3" class="node"><title>Node59</title>
<g id="a_node3"><a xlink:href="classregion_model.html#a56b1a22f355e85211760055c7559cd1e" target="_top" xlink:title="regionModel::getArea">
<polygon fill="white" stroke="black" points="394,-301.5 394,-320.5 503,-320.5 503,-301.5 394,-301.5"/>
<text text-anchor="middle" x="448.5" y="-308.5" font-family="Helvetica,sans-Serif" font-size="10.00">regionModel::getArea</text>
</a>
</g>
</g>
<!-- Node57&#45;&gt;Node59 -->
<g id="edge2" class="edge"><title>Node57&#45;&gt;Node59</title>
<path fill="none" stroke="midnightblue" d="M108.079,-252.551C123.619,-255.662 141.039,-259.067 157,-262 234.987,-276.332 325.056,-291.276 383.972,-300.834"/>
<polygon fill="midnightblue" stroke="midnightblue" points="383.445,-304.294 393.876,-302.438 384.564,-297.384 383.445,-304.294"/>
</g>
<!-- Node60 -->
<g id="node4" class="node"><title>Node60</title>
<g id="a_node4"><a xlink:href="classcompound_model.html#af472d21073ced49f2636abf687bae5ac" target="_top" xlink:title="compoundModel::getHistogram\lModel">
<polygon fill="white" stroke="black" points="163.5,-184 163.5,-214 315.5,-214 315.5,-184 163.5,-184"/>
<text text-anchor="start" x="171.5" y="-202" font-family="Helvetica,sans-Serif" font-size="10.00">compoundModel::getHistogram</text>
<text text-anchor="middle" x="239.5" y="-191" font-family="Helvetica,sans-Serif" font-size="10.00">Model</text>
</a>
</g>
</g>
<!-- Node57&#45;&gt;Node60 -->
<g id="edge3" class="edge"><title>Node57&#45;&gt;Node60</title>
<path fill="none" stroke="midnightblue" d="M99.9064,-233.453C119.834,-228.499 144.815,-222.289 168.06,-216.51"/>
<polygon fill="midnightblue" stroke="midnightblue" points="169.036,-219.875 177.896,-214.065 167.347,-213.081 169.036,-219.875"/>
</g>
<!-- Node61 -->
<g id="node5" class="node"><title>Node61</title>
<g id="a_node5"><a xlink:href="classcompound_model.html#aa843ad54b59e7a02a3b85a0b8578a750" target="_top" xlink:title="compoundModel::getProbModel">
<polygon fill="white" stroke="black" points="162.5,-145.5 162.5,-164.5 316.5,-164.5 316.5,-145.5 162.5,-145.5"/>
<text text-anchor="middle" x="239.5" y="-152.5" font-family="Helvetica,sans-Serif" font-size="10.00">compoundModel::getProbModel</text>
</a>
</g>
</g>
<!-- Node57&#45;&gt;Node61 -->
<g id="edge4" class="edge"><title>Node57&#45;&gt;Node61</title>
<path fill="none" stroke="midnightblue" d="M71.7853,-233.398C88.398,-218.42 122.748,-189.599 157,-174 162.421,-171.531 168.196,-169.366 174.073,-167.47"/>
<polygon fill="midnightblue" stroke="midnightblue" points="175.419,-170.722 184.014,-164.528 173.432,-164.009 175.419,-170.722"/>
</g>
<!-- Node62 -->
<g id="node6" class="node"><title>Node62</title>
<g id="a_node6"><a xlink:href="classprobability_model.html#a1d238fa939658901dc69099d4c350637" target="_top" xlink:title="probabilityModel::merge">
<polygon fill="white" stroke="black" points="179.5,-233.5 179.5,-252.5 299.5,-252.5 299.5,-233.5 179.5,-233.5"/>
<text text-anchor="middle" x="239.5" y="-240.5" font-family="Helvetica,sans-Serif" font-size="10.00">probabilityModel::merge</text>
</a>
</g>
</g>
<!-- Node57&#45;&gt;Node62 -->
<g id="edge5" class="edge"><title>Node57&#45;&gt;Node62</title>
<path fill="none" stroke="midnightblue" d="M121.424,-243C136.726,-243 153.305,-243 169.041,-243"/>
<polygon fill="midnightblue" stroke="midnightblue" points="169.239,-246.5 179.239,-243 169.238,-239.5 169.239,-246.5"/>
</g>
<!-- Node64 -->
<g id="node8" class="node"><title>Node64</title>
<g id="a_node8"><a xlink:href="classregion_model.html#a7f6a5d1ab86d69e213ebb81973481330" target="_top" xlink:title="regionModel::setArea">
<polygon fill="white" stroke="black" points="575,-339.5 575,-358.5 684,-358.5 684,-339.5 575,-339.5"/>
<text text-anchor="middle" x="629.5" y="-346.5" font-family="Helvetica,sans-Serif" font-size="10.00">regionModel::setArea</text>
</a>
</g>
</g>
<!-- Node57&#45;&gt;Node64 -->
<g id="edge27" class="edge"><title>Node57&#45;&gt;Node64</title>
<path fill="none" stroke="midnightblue" d="M63.7413,-252.617C77.7429,-310.088 159.141,-608.511 358,-694 431.905,-725.772 475.375,-743.226 539,-694 591.857,-653.105 619.235,-435.602 626.499,-368.638"/>
<polygon fill="midnightblue" stroke="midnightblue" points="629.991,-368.902 627.559,-358.59 623.029,-368.168 629.991,-368.902"/>
</g>
<!-- Node70 -->
<g id="node14" class="node"><title>Node70</title>
<g id="a_node14"><a xlink:href="classhistogram_model.html#a2a84442dd0292f62b6ef0b35ea033790" target="_top" xlink:title="histogramModel::merge">
<polygon fill="white" stroke="black" points="180,-453.5 180,-472.5 299,-472.5 299,-453.5 180,-453.5"/>
<text text-anchor="middle" x="239.5" y="-460.5" font-family="Helvetica,sans-Serif" font-size="10.00">histogramModel::merge</text>
</a>
</g>
</g>
<!-- Node57&#45;&gt;Node70 -->
<g id="edge15" class="edge"><title>Node57&#45;&gt;Node70</title>
<path fill="none" stroke="midnightblue" d="M69.3339,-252.737C96.8063,-286.884 189.022,-401.502 224.462,-445.551"/>
<polygon fill="midnightblue" stroke="midnightblue" points="221.761,-447.778 230.757,-453.375 227.215,-443.39 221.761,-447.778"/>
</g>
<!-- Node79 -->
<g id="node23" class="node"><title>Node79</title>
<g id="a_node23"><a xlink:href="classcompound_model.html#abb85def877d9b37e744b5f355360dcf8" target="_top" xlink:title="compoundModel::setHistogram\lModel">
<polygon fill="white" stroke="black" points="163.5,-96 163.5,-126 315.5,-126 315.5,-96 163.5,-96"/>
<text text-anchor="start" x="171.5" y="-114" font-family="Helvetica,sans-Serif" font-size="10.00">compoundModel::setHistogram</text>
<text text-anchor="middle" x="239.5" y="-103" font-family="Helvetica,sans-Serif" font-size="10.00">Model</text>
</a>
</g>
</g>
<!-- Node57&#45;&gt;Node79 -->
<g id="edge28" class="edge"><title>Node57&#45;&gt;Node79</title>
<path fill="none" stroke="midnightblue" d="M67.3904,-233.424C80.7149,-212.561 115.281,-162.734 157,-136 160.178,-133.964 163.531,-132.085 166.993,-130.353"/>
<polygon fill="midnightblue" stroke="midnightblue" points="168.705,-133.42 176.367,-126.102 165.814,-127.045 168.705,-133.42"/>
</g>
<!-- Node80 -->
<g id="node24" class="node"><title>Node80</title>
<g id="a_node24"><a xlink:href="classcompound_model.html#a362e93e0481b5a5b9a3801f505fe99d2" target="_top" xlink:title="compoundModel::setProbModel">
<polygon fill="white" stroke="black" points="162.5,-57.5 162.5,-76.5 316.5,-76.5 316.5,-57.5 162.5,-57.5"/>
<text text-anchor="middle" x="239.5" y="-64.5" font-family="Helvetica,sans-Serif" font-size="10.00">compoundModel::setProbModel</text>
</a>
</g>
</g>
<!-- Node57&#45;&gt;Node80 -->
<g id="edge29" class="edge"><title>Node57&#45;&gt;Node80</title>
<path fill="none" stroke="midnightblue" d="M64.3859,-233.42C73.2348,-205.767 102.733,-125.291 157,-86 159.565,-84.1428 162.284,-82.4641 165.112,-80.9471"/>
<polygon fill="midnightblue" stroke="midnightblue" points="166.85,-84.0001 174.462,-76.631 163.916,-77.6446 166.85,-84.0001"/>
</g>
<!-- Node62&#45;&gt;Node59 -->
<g id="edge8" class="edge"><title>Node62&#45;&gt;Node59</title>
<path fill="none" stroke="midnightblue" d="M260.915,-252.569C284.053,-263.122 323.096,-280.056 358,-291 367.571,-294.001 377.852,-296.736 387.913,-299.155"/>
<polygon fill="midnightblue" stroke="midnightblue" points="387.334,-302.613 397.867,-301.466 388.917,-295.795 387.334,-302.613"/>
</g>
<!-- Node63 -->
<g id="node7" class="node"><title>Node63</title>
<g id="a_node7"><a xlink:href="classprobability_model.html#ac2356304ead700ea3b440261149b57cc" target="_top" xlink:title="probabilityModel::probability\lModel">
<polygon fill="white" stroke="black" points="380,-39 380,-69 517,-69 517,-39 380,-39"/>
<text text-anchor="start" x="388" y="-57" font-family="Helvetica,sans-Serif" font-size="10.00">probabilityModel::probability</text>
<text text-anchor="middle" x="448.5" y="-46" font-family="Helvetica,sans-Serif" font-size="10.00">Model</text>
</a>
</g>
</g>
<!-- Node62&#45;&gt;Node63 -->
<g id="edge6" class="edge"><title>Node62&#45;&gt;Node63</title>
<path fill="none" stroke="midnightblue" d="M299.729,-236.581C307.998,-233.503 315.779,-229.142 322,-223 367.412,-178.164 314.482,-130.676 358,-84 361.842,-79.8797 366.265,-76.325 371.045,-73.2583"/>
<polygon fill="midnightblue" stroke="midnightblue" points="372.973,-76.1903 379.986,-68.2485 369.551,-70.0836 372.973,-76.1903"/>
</g>
<!-- Node62&#45;&gt;Node64 -->
<g id="edge9" class="edge"><title>Node62&#45;&gt;Node64</title>
<path fill="none" stroke="midnightblue" d="M299.752,-236.017C307.92,-233.002 315.664,-228.809 322,-223 358.674,-189.377 317.555,-145.978 358,-117 423.393,-70.1478 472.666,-71.491 539,-117 611.035,-166.42 625.11,-282.664 627.846,-329.215"/>
<polygon fill="midnightblue" stroke="midnightblue" points="624.362,-329.64 628.326,-339.466 631.355,-329.313 624.362,-329.64"/>
</g>
<!-- Node65 -->
<g id="node9" class="node"><title>Node65</title>
<g id="a_node9"><a xlink:href="classprobability_model.html#a18a9e2d0cd721c41addfe8e910e67c01" target="_top" xlink:title="probabilityModel::getNClasses">
<polygon fill="white" stroke="black" points="373.5,-0.5 373.5,-19.5 523.5,-19.5 523.5,-0.5 373.5,-0.5"/>
<text text-anchor="middle" x="448.5" y="-7.5" font-family="Helvetica,sans-Serif" font-size="10.00">probabilityModel::getNClasses</text>
</a>
</g>
</g>
<!-- Node62&#45;&gt;Node65 -->
<g id="edge10" class="edge"><title>Node62&#45;&gt;Node65</title>
<path fill="none" stroke="midnightblue" d="M299.702,-237.112C308.077,-233.979 315.898,-229.461 322,-223 382.212,-159.244 296.793,-91.801 358,-29 360.079,-26.8671 362.333,-24.9447 364.726,-23.2135"/>
<polygon fill="midnightblue" stroke="midnightblue" points="366.575,-26.186 373.344,-18.0354 362.969,-20.1859 366.575,-26.186"/>
</g>
<!-- Node66 -->
<g id="node10" class="node"><title>Node66</title>
<g id="a_node10"><a xlink:href="classprobability_model.html#aef8c1f8a7a14f8cc1b4e5458cdc172de" target="_top" xlink:title="probabilityModel::getClass\lProbability">
<polygon fill="white" stroke="black" points="382.5,-252 382.5,-282 514.5,-282 514.5,-252 382.5,-252"/>
<text text-anchor="start" x="390.5" y="-270" font-family="Helvetica,sans-Serif" font-size="10.00">probabilityModel::getClass</text>
<text text-anchor="middle" x="448.5" y="-259" font-family="Helvetica,sans-Serif" font-size="10.00">Probability</text>
</a>
</g>
</g>
<!-- Node62&#45;&gt;Node66 -->
<g id="edge11" class="edge"><title>Node62&#45;&gt;Node66</title>
<path fill="none" stroke="midnightblue" d="M299.541,-249.845C322.126,-252.464 348.199,-255.487 372.107,-258.259"/>
<polygon fill="midnightblue" stroke="midnightblue" points="371.867,-261.754 382.204,-259.429 372.673,-254.801 371.867,-261.754"/>
</g>
<!-- Node67 -->
<g id="node11" class="node"><title>Node67</title>
<g id="a_node11"><a xlink:href="classprobability_model.html#ab5b9f2804370816e02829af11124b3b5" target="_top" xlink:title="probabilityModel::setClass\lProbability">
<polygon fill="white" stroke="black" points="382.5,-203 382.5,-233 514.5,-233 514.5,-203 382.5,-203"/>
<text text-anchor="start" x="390.5" y="-221" font-family="Helvetica,sans-Serif" font-size="10.00">probabilityModel::setClass</text>
<text text-anchor="middle" x="448.5" y="-210" font-family="Helvetica,sans-Serif" font-size="10.00">Probability</text>
</a>
</g>
</g>
<!-- Node62&#45;&gt;Node67 -->
<g id="edge12" class="edge"><title>Node62&#45;&gt;Node67</title>
<path fill="none" stroke="midnightblue" d="M299.541,-235.869C322.126,-233.142 348.199,-229.993 372.107,-227.105"/>
<polygon fill="midnightblue" stroke="midnightblue" points="372.696,-230.56 382.204,-225.886 371.856,-223.61 372.696,-230.56"/>
</g>
<!-- Node68 -->
<g id="node12" class="node"><title>Node68</title>
<g id="a_node12"><a xlink:href="classprobability_model.html#a6a8786c7364018af1aeca4a4fe59cc5e" target="_top" xlink:title="probabilityModel::getClassCost">
<polygon fill="white" stroke="black" points="372,-164.5 372,-183.5 525,-183.5 525,-164.5 372,-164.5"/>
<text text-anchor="middle" x="448.5" y="-171.5" font-family="Helvetica,sans-Serif" font-size="10.00">probabilityModel::getClassCost</text>
</a>
</g>
</g>
<!-- Node62&#45;&gt;Node68 -->
<g id="edge13" class="edge"><title>Node62&#45;&gt;Node68</title>
<path fill="none" stroke="midnightblue" d="M294.358,-233.466C303.843,-230.764 313.417,-227.335 322,-223 340.591,-213.61 339.264,-202.096 358,-193 363.001,-190.572 368.308,-188.453 373.743,-186.603"/>
<polygon fill="midnightblue" stroke="midnightblue" points="375.101,-189.847 383.627,-183.557 373.04,-183.158 375.101,-189.847"/>
</g>
<!-- Node69 -->
<g id="node13" class="node"><title>Node69</title>
<g id="a_node13"><a xlink:href="classprobability_model.html#ab6946deb86171e935e9f085d103ec3be" target="_top" xlink:title="probabilityModel::setClassCost">
<polygon fill="white" stroke="black" points="372,-126.5 372,-145.5 525,-145.5 525,-126.5 372,-126.5"/>
<text text-anchor="middle" x="448.5" y="-133.5" font-family="Helvetica,sans-Serif" font-size="10.00">probabilityModel::setClassCost</text>
</a>
</g>
</g>
<!-- Node62&#45;&gt;Node69 -->
<g id="edge14" class="edge"><title>Node62&#45;&gt;Node69</title>
<path fill="none" stroke="midnightblue" d="M299.806,-234.79C307.778,-231.93 315.451,-228.106 322,-223 348.967,-201.972 330.706,-175.601 358,-155 360.377,-153.206 362.886,-151.572 365.495,-150.086"/>
<polygon fill="midnightblue" stroke="midnightblue" points="367.261,-153.119 374.704,-145.578 364.183,-146.832 367.261,-153.119"/>
</g>
<!-- Node63&#45;&gt;Node64 -->
<g id="edge7" class="edge"><title>Node63&#45;&gt;Node64</title>
<path fill="none" stroke="midnightblue" d="M517.032,-68.8838C525.131,-72.8013 532.735,-77.7496 539,-84 609.174,-154.014 624.343,-280.869 627.609,-329.397"/>
<polygon fill="midnightblue" stroke="midnightblue" points="624.121,-329.705 628.187,-339.488 631.109,-329.305 624.121,-329.705"/>
</g>
<!-- Node70&#45;&gt;Node59 -->
<g id="edge18" class="edge"><title>Node70&#45;&gt;Node59</title>
<path fill="none" stroke="midnightblue" d="M246.561,-453.251C262.009,-429.243 305.38,-366.906 358,-335 366.066,-330.11 375.131,-326.2 384.316,-323.079"/>
<polygon fill="midnightblue" stroke="midnightblue" points="385.382,-326.413 393.894,-320.104 383.306,-319.728 385.382,-326.413"/>
</g>
<!-- Node70&#45;&gt;Node64 -->
<g id="edge19" class="edge"><title>Node70&#45;&gt;Node64</title>
<path fill="none" stroke="midnightblue" d="M248.684,-453.204C266.254,-432.982 309.913,-386.929 358,-368 424.91,-341.661 508.273,-339.989 564.635,-342.925"/>
<polygon fill="midnightblue" stroke="midnightblue" points="564.648,-346.431 574.835,-343.521 565.057,-339.443 564.648,-346.431"/>
</g>
<!-- Node71 -->
<g id="node15" class="node"><title>Node71</title>
<g id="a_node15"><a xlink:href="classhistogram_model.html#a165ed6726e5911b4332e687618f10a05" target="_top" xlink:title="histogramModel::histogram\lModel">
<polygon fill="white" stroke="black" points="381.5,-655 381.5,-685 515.5,-685 515.5,-655 381.5,-655"/>
<text text-anchor="start" x="389.5" y="-673" font-family="Helvetica,sans-Serif" font-size="10.00">histogramModel::histogram</text>
<text text-anchor="middle" x="448.5" y="-662" font-family="Helvetica,sans-Serif" font-size="10.00">Model</text>
</a>
</g>
</g>
<!-- Node70&#45;&gt;Node71 -->
<g id="edge16" class="edge"><title>Node70&#45;&gt;Node71</title>
<path fill="none" stroke="midnightblue" d="M243.873,-472.658C254.991,-503.043 293.504,-597.484 358,-645 362.384,-648.23 367.167,-651.042 372.169,-653.491"/>
<polygon fill="midnightblue" stroke="midnightblue" points="370.804,-656.715 381.368,-657.52 373.611,-650.302 370.804,-656.715"/>
</g>
<!-- Node72 -->
<g id="node16" class="node"><title>Node72</title>
<g id="a_node16"><a xlink:href="classhistogram_model.html#a80ac69aede60d42816e2cf7e4a8e8dff" target="_top" xlink:title="histogramModel::setHistogram\lValue">
<polygon fill="white" stroke="black" points="373.5,-606 373.5,-636 523.5,-636 523.5,-606 373.5,-606"/>
<text text-anchor="start" x="381.5" y="-624" font-family="Helvetica,sans-Serif" font-size="10.00">histogramModel::setHistogram</text>
<text text-anchor="middle" x="448.5" y="-613" font-family="Helvetica,sans-Serif" font-size="10.00">Value</text>
</a>
</g>
</g>
<!-- Node70&#45;&gt;Node72 -->
<g id="edge20" class="edge"><title>Node70&#45;&gt;Node72</title>
<path fill="none" stroke="midnightblue" d="M246.26,-472.739C261.328,-497.35 304.479,-562.461 358,-596 361.364,-598.108 364.909,-600.042 368.568,-601.816"/>
<polygon fill="midnightblue" stroke="midnightblue" points="367.299,-605.081 377.861,-605.902 370.116,-598.673 367.299,-605.081"/>
</g>
<!-- Node73 -->
<g id="node17" class="node"><title>Node73</title>
<g id="a_node17"><a xlink:href="classhistogram_model.html#a698d779f2ff0695f5624c23af267034d" target="_top" xlink:title="histogramModel::getValue">
<polygon fill="white" stroke="black" points="383.5,-567.5 383.5,-586.5 513.5,-586.5 513.5,-567.5 383.5,-567.5"/>
<text text-anchor="middle" x="448.5" y="-574.5" font-family="Helvetica,sans-Serif" font-size="10.00">histogramModel::getValue</text>
</a>
</g>
</g>
<!-- Node70&#45;&gt;Node73 -->
<g id="edge21" class="edge"><title>Node70&#45;&gt;Node73</title>
<path fill="none" stroke="midnightblue" d="M249.188,-472.565C267.365,-491.948 311.581,-535.889 358,-558 363.237,-560.494 368.8,-562.664 374.491,-564.55"/>
<polygon fill="midnightblue" stroke="midnightblue" points="373.568,-567.928 384.153,-567.465 375.59,-561.226 373.568,-567.928"/>
</g>
<!-- Node74 -->
<g id="node18" class="node"><title>Node74</title>
<g id="a_node18"><a xlink:href="classhistogram_model.html#a3e6e68560c5fd12e0cbc98ae136fedd0" target="_top" xlink:title="histogramModel::getMeanSpectrumAt">
<polygon fill="white" stroke="black" points="358,-529.5 358,-548.5 539,-548.5 539,-529.5 358,-529.5"/>
<text text-anchor="middle" x="448.5" y="-536.5" font-family="Helvetica,sans-Serif" font-size="10.00">histogramModel::getMeanSpectrumAt</text>
</a>
</g>
</g>
<!-- Node70&#45;&gt;Node74 -->
<g id="edge22" class="edge"><title>Node70&#45;&gt;Node74</title>
<path fill="none" stroke="midnightblue" d="M257.074,-472.642C279.342,-485.218 320.469,-507.127 358,-520 365.691,-522.638 373.885,-524.981 382.072,-527.041"/>
<polygon fill="midnightblue" stroke="midnightblue" points="381.483,-530.498 392.023,-529.414 383.107,-523.689 381.483,-530.498"/>
</g>
<!-- Node75 -->
<g id="node19" class="node"><title>Node75</title>
<g id="a_node19"><a xlink:href="classhistogram_model.html#ac5e04798a647cc5f0e022cbf71db6421" target="_top" xlink:title="histogramModel::setMeanSpectrumAt">
<polygon fill="white" stroke="black" points="358,-491.5 358,-510.5 539,-510.5 539,-491.5 358,-491.5"/>
<text text-anchor="middle" x="448.5" y="-498.5" font-family="Helvetica,sans-Serif" font-size="10.00">histogramModel::setMeanSpectrumAt</text>
</a>
</g>
</g>
<!-- Node70&#45;&gt;Node75 -->
<g id="edge23" class="edge"><title>Node70&#45;&gt;Node75</title>
<path fill="none" stroke="midnightblue" d="M292.468,-472.54C320.766,-477.735 355.964,-484.196 385.667,-489.649"/>
<polygon fill="midnightblue" stroke="midnightblue" points="385.043,-493.093 395.511,-491.456 386.307,-486.208 385.043,-493.093"/>
</g>
<!-- Node76 -->
<g id="node20" class="node"><title>Node76</title>
<g id="a_node20"><a xlink:href="classhistogram_model.html#a9888f3ebd10f39ab8d353e12a2630f65" target="_top" xlink:title="histogramModel::getStd">
<polygon fill="white" stroke="black" points="388.5,-453.5 388.5,-472.5 508.5,-472.5 508.5,-453.5 388.5,-453.5"/>
<text text-anchor="middle" x="448.5" y="-460.5" font-family="Helvetica,sans-Serif" font-size="10.00">histogramModel::getStd</text>
</a>
</g>
</g>
<!-- Node70&#45;&gt;Node76 -->
<g id="edge24" class="edge"><title>Node70&#45;&gt;Node76</title>
<path fill="none" stroke="midnightblue" d="M299.264,-463C323.851,-463 352.607,-463 378.215,-463"/>
<polygon fill="midnightblue" stroke="midnightblue" points="378.23,-466.5 388.23,-463 378.23,-459.5 378.23,-466.5"/>
</g>
<!-- Node77 -->
<g id="node21" class="node"><title>Node77</title>
<g id="a_node21"><a xlink:href="classhistogram_model.html#a29f1b47d4c87f6a9e46c70758dd7c892" target="_top" xlink:title="histogramModel::setStd">
<polygon fill="white" stroke="black" points="388.5,-415.5 388.5,-434.5 508.5,-434.5 508.5,-415.5 388.5,-415.5"/>
<text text-anchor="middle" x="448.5" y="-422.5" font-family="Helvetica,sans-Serif" font-size="10.00">histogramModel::setStd</text>
</a>
</g>
</g>
<!-- Node70&#45;&gt;Node77 -->
<g id="edge25" class="edge"><title>Node70&#45;&gt;Node77</title>
<path fill="none" stroke="midnightblue" d="M292.468,-453.46C320.766,-448.265 355.964,-441.804 385.667,-436.351"/>
<polygon fill="midnightblue" stroke="midnightblue" points="386.307,-439.792 395.511,-434.544 385.043,-432.907 386.307,-439.792"/>
</g>
<!-- Node78 -->
<g id="node22" class="node"><title>Node78</title>
<g id="a_node22"><a xlink:href="classhistogram_model.html#a4d9af6d2786591a437f8bea4c7ce32df" target="_top" xlink:title="histogramModel::releaseHistogram">
<polygon fill="white" stroke="black" points="364.5,-377.5 364.5,-396.5 532.5,-396.5 532.5,-377.5 364.5,-377.5"/>
<text text-anchor="middle" x="448.5" y="-384.5" font-family="Helvetica,sans-Serif" font-size="10.00">histogramModel::releaseHistogram</text>
</a>
</g>
</g>
<!-- Node70&#45;&gt;Node78 -->
<g id="edge26" class="edge"><title>Node70&#45;&gt;Node78</title>
<path fill="none" stroke="midnightblue" d="M257.074,-453.358C279.342,-440.782 320.469,-418.873 358,-406 365.691,-403.362 373.885,-401.019 382.072,-398.959"/>
<polygon fill="midnightblue" stroke="midnightblue" points="383.107,-402.311 392.023,-396.586 381.483,-395.502 383.107,-402.311"/>
</g>
<!-- Node71&#45;&gt;Node64 -->
<g id="edge17" class="edge"><title>Node71&#45;&gt;Node64</title>
<path fill="none" stroke="midnightblue" d="M515.753,-659.828C524.347,-656.241 532.429,-651.433 539,-645 618.523,-567.148 627.944,-421.299 628.649,-368.615"/>
<polygon fill="midnightblue" stroke="midnightblue" points="632.149,-368.6 628.688,-358.587 625.149,-368.573 632.149,-368.6"/>
</g>
</g>
</svg>
