<?xml version="1.0" encoding="UTF-8" standalone="no"?>
<!DOCTYPE svg PUBLIC "-//W3C//DTD SVG 1.1//EN"
 "http://www.w3.org/Graphics/SVG/1.1/DTD/svg11.dtd">
<!-- Generated by graphviz version 2.38.0 (20140413.2041)
 -->
<!-- Title: Node::nodeComparator_X Pages: 1 -->
<svg width="1051pt" height="66pt"
 viewBox="0.00 0.00 1051.00 66.00" xmlns="http://www.w3.org/2000/svg" xmlns:xlink="http://www.w3.org/1999/xlink">
<g id="graph0" class="graph" transform="scale(1 1) rotate(0) translate(4 62)">
<title>Node::nodeComparator_X</title>
<polygon fill="white" stroke="none" points="-4,4 -4,-62 1047,-62 1047,4 -4,4"/>
<!-- Node247 -->
<g id="node1" class="node"><title>Node247</title>
<polygon fill="#bfbfbf" stroke="black" points="0,-19.5 0,-38.5 130,-38.5 130,-19.5 0,-19.5"/>
<text text-anchor="middle" x="65" y="-26.5" font-family="Helvetica,sans-Serif" font-size="10.00">Node::nodeComparator_X</text>
</g>
<!-- Node248 -->
<g id="node2" class="node"><title>Node248</title>
<g id="a_node2"><a xlink:href="classinitializer.html#a3b9f79140d510e7aea1287bfe891e8b9" target="_top" xlink:title="initializer::addEdges">
<polygon fill="white" stroke="black" points="166,-19.5 166,-38.5 270,-38.5 270,-19.5 166,-19.5"/>
<text text-anchor="middle" x="218" y="-26.5" font-family="Helvetica,sans-Serif" font-size="10.00">initializer::addEdges</text>
</a>
</g>
</g>
<!-- Node247&#45;&gt;Node248 -->
<g id="edge1" class="edge"><title>Node247&#45;&gt;Node248</title>
<path fill="none" stroke="midnightblue" d="M140.14,-29C148.779,-29 157.441,-29 165.674,-29"/>
<polygon fill="midnightblue" stroke="midnightblue" points="140.038,-25.5001 130.038,-29 140.038,-32.5001 140.038,-25.5001"/>
</g>
<!-- Node249 -->
<g id="node3" class="node"><title>Node249</title>
<g id="a_node3"><a xlink:href="classinitializer.html#aaa8cb78ad7655020875fa970001d899e" target="_top" xlink:title="initializer::initializeRag">
<polygon fill="white" stroke="black" points="306,-19.5 306,-38.5 420,-38.5 420,-19.5 306,-19.5"/>
<text text-anchor="middle" x="363" y="-26.5" font-family="Helvetica,sans-Serif" font-size="10.00">initializer::initializeRag</text>
</a>
</g>
</g>
<!-- Node248&#45;&gt;Node249 -->
<g id="edge2" class="edge"><title>Node248&#45;&gt;Node249</title>
<path fill="none" stroke="midnightblue" d="M280.39,-29C288.83,-29 297.463,-29 305.803,-29"/>
<polygon fill="midnightblue" stroke="midnightblue" points="280.222,-25.5001 270.222,-29 280.222,-32.5001 280.222,-25.5001"/>
</g>
<!-- Node250 -->
<g id="node4" class="node"><title>Node250</title>
<g id="a_node4"><a xlink:href="classimage.html#a12343719e8d96a4bda9c5bd6c035d52a" target="_top" xlink:title="image::mergeBlockX">
<polygon fill="white" stroke="black" points="456,-38.5 456,-57.5 563,-57.5 563,-38.5 456,-38.5"/>
<text text-anchor="middle" x="509.5" y="-45.5" font-family="Helvetica,sans-Serif" font-size="10.00">image::mergeBlockX</text>
</a>
</g>
</g>
<!-- Node249&#45;&gt;Node250 -->
<g id="edge3" class="edge"><title>Node249&#45;&gt;Node250</title>
<path fill="none" stroke="midnightblue" d="M430.288,-37.716C438.881,-38.846 447.588,-39.9908 455.917,-41.086"/>
<polygon fill="midnightblue" stroke="midnightblue" points="430.652,-34.2339 420.281,-36.4003 429.74,-41.1742 430.652,-34.2339"/>
</g>
<!-- Node254 -->
<g id="node8" class="node"><title>Node254</title>
<g id="a_node8"><a xlink:href="classimage.html#aa21fc5a07af7528869425e750090b3b8" target="_top" xlink:title="image::mergeBlockY">
<polygon fill="white" stroke="black" points="456,-0.5 456,-19.5 563,-19.5 563,-0.5 456,-0.5"/>
<text text-anchor="middle" x="509.5" y="-7.5" font-family="Helvetica,sans-Serif" font-size="10.00">image::mergeBlockY</text>
</a>
</g>
</g>
<!-- Node249&#45;&gt;Node254 -->
<g id="edge7" class="edge"><title>Node249&#45;&gt;Node254</title>
<path fill="none" stroke="midnightblue" d="M430.288,-20.284C438.881,-19.154 447.588,-18.0092 455.917,-16.914"/>
<polygon fill="midnightblue" stroke="midnightblue" points="429.74,-16.8258 420.281,-21.5997 430.652,-23.7661 429.74,-16.8258"/>
</g>
<!-- Node251 -->
<g id="node5" class="node"><title>Node251</title>
<g id="a_node5"><a xlink:href="classimage.html#a83026280ad6cc713ec9489ff3bd9776e" target="_top" xlink:title="image::ProcessBoundaryX">
<polygon fill="white" stroke="black" points="599,-38.5 599,-57.5 732,-57.5 732,-38.5 599,-38.5"/>
<text text-anchor="middle" x="665.5" y="-45.5" font-family="Helvetica,sans-Serif" font-size="10.00">image::ProcessBoundaryX</text>
</a>
</g>
</g>
<!-- Node250&#45;&gt;Node251 -->
<g id="edge4" class="edge"><title>Node250&#45;&gt;Node251</title>
<path fill="none" stroke="midnightblue" d="M573.216,-48C581.656,-48 590.334,-48 598.824,-48"/>
<polygon fill="midnightblue" stroke="midnightblue" points="573.067,-44.5001 563.067,-48 573.067,-51.5001 573.067,-44.5001"/>
</g>
<!-- Node252 -->
<g id="node6" class="node"><title>Node252</title>
<g id="a_node6"><a xlink:href="classimage.html#a4689c56b85c46d48ea52f0c9fa13891e" target="_top" xlink:title="image::processing">
<polygon fill="white" stroke="black" points="768,-19.5 768,-38.5 864,-38.5 864,-19.5 768,-19.5"/>
<text text-anchor="middle" x="816" y="-26.5" font-family="Helvetica,sans-Serif" font-size="10.00">image::processing</text>
</a>
</g>
</g>
<!-- Node251&#45;&gt;Node252 -->
<g id="edge5" class="edge"><title>Node251&#45;&gt;Node252</title>
<path fill="none" stroke="midnightblue" d="M742.207,-38.3136C750.858,-37.2067 759.483,-36.1032 767.612,-35.0631"/>
<polygon fill="midnightblue" stroke="midnightblue" points="741.541,-34.8701 732.067,-39.611 742.43,-41.8135 741.541,-34.8701"/>
</g>
<!-- Node253 -->
<g id="node7" class="node"><title>Node253</title>
<g id="a_node7"><a xlink:href="class_main_window.html#a9a45eb9ebe6d27bcd23677d9fbb74dd8" target="_top" xlink:title="MainWindow::on_Go_clicked">
<polygon fill="white" stroke="black" points="900,-19.5 900,-38.5 1043,-38.5 1043,-19.5 900,-19.5"/>
<text text-anchor="middle" x="971.5" y="-26.5" font-family="Helvetica,sans-Serif" font-size="10.00">MainWindow::on_Go_clicked</text>
</a>
</g>
</g>
<!-- Node252&#45;&gt;Node253 -->
<g id="edge6" class="edge"><title>Node252&#45;&gt;Node253</title>
<path fill="none" stroke="midnightblue" d="M874.583,-29C882.853,-29 891.441,-29 899.928,-29"/>
<polygon fill="midnightblue" stroke="midnightblue" points="874.308,-25.5001 864.308,-29 874.308,-32.5001 874.308,-25.5001"/>
</g>
<!-- Node255 -->
<g id="node9" class="node"><title>Node255</title>
<g id="a_node9"><a xlink:href="classimage.html#adf6b8c126649c9a40387f12b5f5f07d5" target="_top" xlink:title="image::ProcessBoundaryY">
<polygon fill="white" stroke="black" points="599,-0.5 599,-19.5 732,-19.5 732,-0.5 599,-0.5"/>
<text text-anchor="middle" x="665.5" y="-7.5" font-family="Helvetica,sans-Serif" font-size="10.00">image::ProcessBoundaryY</text>
</a>
</g>
</g>
<!-- Node254&#45;&gt;Node255 -->
<g id="edge8" class="edge"><title>Node254&#45;&gt;Node255</title>
<path fill="none" stroke="midnightblue" d="M573.216,-10C581.656,-10 590.334,-10 598.824,-10"/>
<polygon fill="midnightblue" stroke="midnightblue" points="573.067,-6.5001 563.067,-10 573.067,-13.5001 573.067,-6.5001"/>
</g>
<!-- Node255&#45;&gt;Node252 -->
<g id="edge9" class="edge"><title>Node255&#45;&gt;Node252</title>
<path fill="none" stroke="midnightblue" d="M742.207,-19.6864C750.858,-20.7933 759.483,-21.8968 767.612,-22.9369"/>
<polygon fill="midnightblue" stroke="midnightblue" points="742.43,-16.1865 732.067,-18.389 741.541,-23.1299 742.43,-16.1865"/>
</g>
</g>
</svg>
