<?xml version="1.0" encoding="UTF-8" standalone="no"?>
<!DOCTYPE svg PUBLIC "-//W3C//DTD SVG 1.1//EN"
 "http://www.w3.org/Graphics/SVG/1.1/DTD/svg11.dtd">
<!-- Generated by graphviz version 2.38.0 (20140413.2041)
 -->
<!-- Title: EdgeHeap::isHeap Pages: 1 -->
<!--zoomable 180 -->
<svg id="main" version="1.1" xmlns="http://www.w3.org/2000/svg" xmlns:xlink="http://www.w3.org/1999/xlink" xml:space="preserve" onload="init(evt)">
<style type="text/css"><![CDATA[
.edge:hover path { stroke: red; }
.edge:hover polygon { stroke: red; fill: red; }
]]></style>
<script type="text/javascript"><![CDATA[
var edges = document.getElementsByTagName('g');
if (edges && edges.length) {
  for (var i=0;i<edges.length;i++) {
    if (edges[i].id.substr(0,4)=='edge') {
      edges[i].setAttribute('class','edge');
    }
  }
}
]]></script>
        <defs>
                <circle id="rim" cx="0" cy="0" r="7"/>
                <circle id="rim2" cx="0" cy="0" r="3.5"/>
                <g id="zoomPlus">
                        <use xlink:href="#rim" fill="#404040">
                                <set attributeName="fill" to="#808080" begin="zoomplus.mouseover" end="zoomplus.mouseout"/>
                        </use>
                        <path d="M-4,0h8M0,-4v8" fill="none" stroke="white" stroke-width="1.5" pointer-events="none"/>
                </g>
                <g id="zoomMin">
                        <use xlink:href="#rim" fill="#404040">
                                <set attributeName="fill" to="#808080" begin="zoomminus.mouseover" end="zoomminus.mouseout"/>
                        </use>
                        <path d="M-4,0h8" fill="none" stroke="white" stroke-width="1.5" pointer-events="none"/>
                </g>
                <g id="dirArrow">
                        <path fill="none" stroke="white" stroke-width="1.5" d="M0,-3.0v7 M-2.5,-0.5L0,-3.0L2.5,-0.5"/>
                </g>
               <g id="resetDef">
                       <use xlink:href="#rim2" fill="#404040">
                               <set attributeName="fill" to="#808080" begin="reset.mouseover" end="reset.mouseout"/>
                       </use>
               </g>
        </defs>

<script type="text/javascript">
var viewWidth = 559;
var viewHeight = 180;
var sectionId = 'dynsection-10';
</script>
<script xlink:href="svgpan.js"/>
<svg id="graph" class="graph">
<g id="viewport">
<title>EdgeHeap::isHeap</title>
<polygon fill="white" stroke="none" points="-4,4 -4,-176 555,-176 555,4 -4,4"/>
<!-- Node131 -->
<g id="node1" class="node"><title>Node131</title>
<polygon fill="#bfbfbf" stroke="black" points="0,-76.5 0,-95.5 99,-95.5 99,-76.5 0,-76.5"/>
<text text-anchor="middle" x="49.5" y="-83.5" font-family="Helvetica,sans-Serif" font-size="10.00">EdgeHeap::isHeap</text>
</g>
<!-- Node132 -->
<g id="node2" class="node"><title>Node132</title>
<g id="a_node2"><a xlink:href="class_edge_heap.html#add248e35c4c2443246ff6c7cd654ae9f" target="_top" xlink:title="EdgeHeap::edgeComparator">
<polygon fill="white" stroke="black" points="135,-76.5 135,-95.5 275,-95.5 275,-76.5 135,-76.5"/>
<text text-anchor="middle" x="205" y="-83.5" font-family="Helvetica,sans-Serif" font-size="10.00">EdgeHeap::edgeComparator</text>
</a>
</g>
</g>
<!-- Node131&#45;&gt;Node132 -->
<g id="edge1" class="edge"><title>Node131&#45;&gt;Node132</title>
<path fill="none" stroke="midnightblue" d="M99.0684,-86C107.275,-86 115.981,-86 124.731,-86"/>
<polygon fill="midnightblue" stroke="midnightblue" points="124.996,-89.5001 134.996,-86 124.996,-82.5001 124.996,-89.5001"/>
</g>
<!-- Node133 -->
<g id="node3" class="node"><title>Node133</title>
<g id="a_node3"><a xlink:href="class_node.html#a13467fc326459c1d607547b3e9470710" target="_top" xlink:title="Node::getArea">
<polygon fill="white" stroke="black" points="318.5,-152.5 318.5,-171.5 398.5,-171.5 398.5,-152.5 318.5,-152.5"/>
<text text-anchor="middle" x="358.5" y="-159.5" font-family="Helvetica,sans-Serif" font-size="10.00">Node::getArea</text>
</a>
</g>
</g>
<!-- Node132&#45;&gt;Node133 -->
<g id="edge2" class="edge"><title>Node132&#45;&gt;Node133</title>
<path fill="none" stroke="midnightblue" d="M222.44,-95.6545C242.867,-107.479 278.949,-127.808 311,-143 314.901,-144.849 319.032,-146.693 323.158,-148.466"/>
<polygon fill="midnightblue" stroke="midnightblue" points="322.09,-151.812 332.666,-152.439 324.789,-145.354 322.09,-151.812"/>
</g>
<!-- Node135 -->
<g id="node5" class="node"><title>Node135</title>
<g id="a_node5"><a xlink:href="class_edge.html#aaaa9cb49c141b310873cd75fd493e22d" target="_top" xlink:title="Edge::getNode1">
<polygon fill="white" stroke="black" points="315,-114.5 315,-133.5 402,-133.5 402,-114.5 315,-114.5"/>
<text text-anchor="middle" x="358.5" y="-121.5" font-family="Helvetica,sans-Serif" font-size="10.00">Edge::getNode1</text>
</a>
</g>
</g>
<!-- Node132&#45;&gt;Node135 -->
<g id="edge4" class="edge"><title>Node132&#45;&gt;Node135</title>
<path fill="none" stroke="midnightblue" d="M244.23,-95.589C264.132,-100.581 288.657,-106.732 309.791,-112.033"/>
<polygon fill="midnightblue" stroke="midnightblue" points="308.994,-115.442 319.545,-114.48 310.697,-108.652 308.994,-115.442"/>
</g>
<!-- Node136 -->
<g id="node6" class="node"><title>Node136</title>
<g id="a_node6"><a xlink:href="class_edge.html#a50017668f77ed019a5caceafbb1eb16f" target="_top" xlink:title="Edge::getNode2">
<polygon fill="white" stroke="black" points="315,-76.5 315,-95.5 402,-95.5 402,-76.5 315,-76.5"/>
<text text-anchor="middle" x="358.5" y="-83.5" font-family="Helvetica,sans-Serif" font-size="10.00">Edge::getNode2</text>
</a>
</g>
</g>
<!-- Node132&#45;&gt;Node136 -->
<g id="edge5" class="edge"><title>Node132&#45;&gt;Node136</title>
<path fill="none" stroke="midnightblue" d="M275.1,-86C285.072,-86 295.199,-86 304.782,-86"/>
<polygon fill="midnightblue" stroke="midnightblue" points="304.935,-89.5001 314.935,-86 304.935,-82.5001 304.935,-89.5001"/>
</g>
<!-- Node137 -->
<g id="node7" class="node"><title>Node137</title>
<g id="a_node7"><a xlink:href="class_node.html#aa3512938403662345b64049920d1cdaf" target="_top" xlink:title="Node::getPosition">
<polygon fill="white" stroke="black" points="311,-38.5 311,-57.5 406,-57.5 406,-38.5 311,-38.5"/>
<text text-anchor="middle" x="358.5" y="-45.5" font-family="Helvetica,sans-Serif" font-size="10.00">Node::getPosition</text>
</a>
</g>
</g>
<!-- Node132&#45;&gt;Node137 -->
<g id="edge6" class="edge"><title>Node132&#45;&gt;Node137</title>
<path fill="none" stroke="midnightblue" d="M244.23,-76.411C264.132,-71.4191 288.657,-65.2676 309.791,-59.9666"/>
<polygon fill="midnightblue" stroke="midnightblue" points="310.697,-63.3479 319.545,-57.5201 308.994,-56.5582 310.697,-63.3479"/>
</g>
<!-- Node138 -->
<g id="node8" class="node"><title>Node138</title>
<g id="a_node8"><a xlink:href="class_edge.html#a3a776c1ccafacdbdb10fdedd9cb329af" target="_top" xlink:title="Edge::getWeight">
<polygon fill="white" stroke="black" points="314,-0.5 314,-19.5 403,-19.5 403,-0.5 314,-0.5"/>
<text text-anchor="middle" x="358.5" y="-7.5" font-family="Helvetica,sans-Serif" font-size="10.00">Edge::getWeight</text>
</a>
</g>
</g>
<!-- Node132&#45;&gt;Node138 -->
<g id="edge7" class="edge"><title>Node132&#45;&gt;Node138</title>
<path fill="none" stroke="midnightblue" d="M222.44,-76.3455C242.867,-64.5206 278.949,-44.1916 311,-29 314.901,-27.1511 319.032,-25.3068 323.158,-23.5345"/>
<polygon fill="midnightblue" stroke="midnightblue" points="324.789,-26.6464 332.666,-19.5614 322.09,-20.1875 324.789,-26.6464"/>
</g>
<!-- Node134 -->
<g id="node4" class="node"><title>Node134</title>
<g id="a_node4"><a xlink:href="classregion_model.html#a56b1a22f355e85211760055c7559cd1e" target="_top" xlink:title="regionModel::getArea">
<polygon fill="white" stroke="black" points="442,-152.5 442,-171.5 551,-171.5 551,-152.5 442,-152.5"/>
<text text-anchor="middle" x="496.5" y="-159.5" font-family="Helvetica,sans-Serif" font-size="10.00">regionModel::getArea</text>
</a>
</g>
</g>
<!-- Node133&#45;&gt;Node134 -->
<g id="edge3" class="edge"><title>Node133&#45;&gt;Node134</title>
<path fill="none" stroke="midnightblue" d="M398.837,-162C409.108,-162 420.446,-162 431.635,-162"/>
<polygon fill="midnightblue" stroke="midnightblue" points="431.833,-165.5 441.833,-162 431.833,-158.5 431.833,-165.5"/>
</g>
</g>
</svg>
        <g id="navigator" transform="translate(0 0)" fill="#404254">
                <rect fill="#f2f5e9" fill-opacity="0.5" stroke="#606060" stroke-width=".5" x="0" y="0" width="60" height="60"/>
                <use id="zoomplus" xlink:href="#zoomPlus" x="17" y="9" onmousedown="handleZoom(evt,'in')"/>
                <use id="zoomminus" xlink:href="#zoomMin" x="42" y="9" onmousedown="handleZoom(evt,'out')"/>
                <use id="reset" xlink:href="#resetDef" x="30" y="36" onmousedown="handleReset()"/>
                <g id="arrowUp" xlink:href="#dirArrow" transform="translate(30 24)" onmousedown="handlePan(0,-1)">
                  <use xlink:href="#rim" fill="#404040">
                        <set attributeName="fill" to="#808080" begin="arrowUp.mouseover" end="arrowUp.mouseout"/>
                  </use>
                  <path fill="none" stroke="white" stroke-width="1.5" d="M0,-3.0v7 M-2.5,-0.5L0,-3.0L2.5,-0.5"/>
                </g>
                <g id="arrowRight" xlink:href="#dirArrow" transform="rotate(90) translate(36 -43)" onmousedown="handlePan(1,0)">
                  <use xlink:href="#rim" fill="#404040">
                        <set attributeName="fill" to="#808080" begin="arrowRight.mouseover" end="arrowRight.mouseout"/>
                  </use>
                  <path fill="none" stroke="white" stroke-width="1.5" d="M0,-3.0v7 M-2.5,-0.5L0,-3.0L2.5,-0.5"/>
                </g>
                <g id="arrowDown" xlink:href="#dirArrow" transform="rotate(180) translate(-30 -48)" onmousedown="handlePan(0,1)">
                  <use xlink:href="#rim" fill="#404040">
                        <set attributeName="fill" to="#808080" begin="arrowDown.mouseover" end="arrowDown.mouseout"/>
                  </use>
                  <path fill="none" stroke="white" stroke-width="1.5" d="M0,-3.0v7 M-2.5,-0.5L0,-3.0L2.5,-0.5"/>
                </g>
                <g id="arrowLeft" xlink:href="#dirArrow" transform="rotate(270) translate(-36 17)" onmousedown="handlePan(-1,0)">
                  <use xlink:href="#rim" fill="#404040">
                        <set attributeName="fill" to="#808080" begin="arrowLeft.mouseover" end="arrowLeft.mouseout"/>
                  </use>
                  <path fill="none" stroke="white" stroke-width="1.5" d="M0,-3.0v7 M-2.5,-0.5L0,-3.0L2.5,-0.5"/>
                </g>
        </g>
        <svg viewBox="0 0 15 15" width="100%" height="30px" preserveAspectRatio="xMaxYMin meet">
         <g id="arrow_out" transform="scale(0.3 0.3)">
          <a xlink:href="class_edge_heap_a12a595377687c8c568007e8cc8646665_cgraph_org.svg" target="_base">
           <rect id="button" ry="5" rx="5" y="6" x="6" height="38" width="38"
                fill="#f2f5e9" fill-opacity="0.5" stroke="#606060" stroke-width="1.0"/>
           <path id="arrow"
             d="M 11.500037,31.436501 C 11.940474,20.09759 22.043105,11.32322 32.158766,21.979434 L 37.068811,17.246167 C 37.068811,17.246167 37.088388,32 37.088388,32 L 22.160133,31.978069 C 22.160133,31.978069 26.997745,27.140456 26.997745,27.140456 C 18.528582,18.264221 13.291696,25.230495 11.500037,31.436501 z"
             style="fill:#404040;"/>
          </a>
         </g>
        </svg>
</svg>
