<?xml version="1.0" encoding="UTF-8" standalone="no"?>
<!DOCTYPE svg PUBLIC "-//W3C//DTD SVG 1.1//EN"
 "http://www.w3.org/Graphics/SVG/1.1/DTD/svg11.dtd">
<!-- Generated by graphviz version 2.38.0 (20140413.2041)
 -->
<!-- Title: initializer::createNodeMatrix Pages: 1 -->
<svg width="306pt" height="104pt"
 viewBox="0.00 0.00 306.00 104.00" xmlns="http://www.w3.org/2000/svg" xmlns:xlink="http://www.w3.org/1999/xlink">
<g id="graph0" class="graph" transform="scale(1 1) rotate(0) translate(4 100)">
<title>initializer::createNodeMatrix</title>
<polygon fill="white" stroke="none" points="-4,4 -4,-100 302,-100 302,4 -4,4"/>
<!-- Node46 -->
<g id="node1" class="node"><title>Node46</title>
<polygon fill="#bfbfbf" stroke="black" points="0,-38.5 0,-57.5 138,-57.5 138,-38.5 0,-38.5"/>
<text text-anchor="middle" x="69" y="-45.5" font-family="Helvetica,sans-Serif" font-size="10.00">initializer::createNodeMatrix</text>
</g>
<!-- Node47 -->
<g id="node2" class="node"><title>Node47</title>
<g id="a_node2"><a xlink:href="class_node.html#a9305e6376add78eafd94f198df0ee745" target="_top" xlink:title="Node::setBoarderIndexX">
<polygon fill="white" stroke="black" points="174,-76.5 174,-95.5 298,-95.5 298,-76.5 174,-76.5"/>
<text text-anchor="middle" x="236" y="-83.5" font-family="Helvetica,sans-Serif" font-size="10.00">Node::setBoarderIndexX</text>
</a>
</g>
</g>
<!-- Node46&#45;&gt;Node47 -->
<g id="edge1" class="edge"><title>Node46&#45;&gt;Node47</title>
<path fill="none" stroke="midnightblue" d="M111.636,-57.589C133.508,-62.6261 160.506,-68.8438 183.664,-74.1771"/>
<polygon fill="midnightblue" stroke="midnightblue" points="183.133,-77.6463 193.663,-76.4799 184.704,-70.8249 183.133,-77.6463"/>
</g>
<!-- Node48 -->
<g id="node3" class="node"><title>Node48</title>
<g id="a_node3"><a xlink:href="class_node.html#aa969843e599c724456cc743b8b7f0f3b" target="_top" xlink:title="Node::setBoarderIndexY">
<polygon fill="white" stroke="black" points="174,-38.5 174,-57.5 298,-57.5 298,-38.5 174,-38.5"/>
<text text-anchor="middle" x="236" y="-45.5" font-family="Helvetica,sans-Serif" font-size="10.00">Node::setBoarderIndexY</text>
</a>
</g>
</g>
<!-- Node46&#45;&gt;Node48 -->
<g id="edge2" class="edge"><title>Node46&#45;&gt;Node48</title>
<path fill="none" stroke="midnightblue" d="M138.064,-48C146.521,-48 155.187,-48 163.691,-48"/>
<polygon fill="midnightblue" stroke="midnightblue" points="163.959,-51.5001 173.959,-48 163.959,-44.5001 163.959,-51.5001"/>
</g>
<!-- Node49 -->
<g id="node4" class="node"><title>Node49</title>
<g id="a_node4"><a xlink:href="class_node.html#a2bfcbd3b82b596744f81432f1824d522" target="_top" xlink:title="Node::setPosition">
<polygon fill="white" stroke="black" points="188.5,-0.5 188.5,-19.5 283.5,-19.5 283.5,-0.5 188.5,-0.5"/>
<text text-anchor="middle" x="236" y="-7.5" font-family="Helvetica,sans-Serif" font-size="10.00">Node::setPosition</text>
</a>
</g>
</g>
<!-- Node46&#45;&gt;Node49 -->
<g id="edge3" class="edge"><title>Node46&#45;&gt;Node49</title>
<path fill="none" stroke="midnightblue" d="M111.636,-38.411C133.508,-33.3739 160.506,-27.1562 183.664,-21.8229"/>
<polygon fill="midnightblue" stroke="midnightblue" points="184.704,-25.1751 193.663,-19.5201 183.133,-18.3537 184.704,-25.1751"/>
</g>
</g>
</svg>
