<?xml version="1.0" encoding="UTF-8" standalone="no"?>
<!DOCTYPE svg PUBLIC "-//W3C//DTD SVG 1.1//EN"
 "http://www.w3.org/Graphics/SVG/1.1/DTD/svg11.dtd">
<!-- Generated by graphviz version 2.38.0 (20140413.2041)
 -->
<!-- Title: Edge::clone Pages: 1 -->
<svg width="218pt" height="256pt"
 viewBox="0.00 0.00 218.00 256.00" xmlns="http://www.w3.org/2000/svg" xmlns:xlink="http://www.w3.org/1999/xlink">
<g id="graph0" class="graph" transform="scale(1 1) rotate(0) translate(4 252)">
<title>Edge::clone</title>
<polygon fill="white" stroke="none" points="-4,4 -4,-252 214,-252 214,4 -4,4"/>
<!-- Node3 -->
<g id="node1" class="node"><title>Node3</title>
<polygon fill="#bfbfbf" stroke="black" points="0,-114.5 0,-133.5 68,-133.5 68,-114.5 0,-114.5"/>
<text text-anchor="middle" x="34" y="-121.5" font-family="Helvetica,sans-Serif" font-size="10.00">Edge::clone</text>
</g>
<!-- Node4 -->
<g id="node2" class="node"><title>Node4</title>
<g id="a_node2"><a xlink:href="class_edge.html#a9a6f65ea678304262268a5208814a2f2" target="_top" xlink:title="Edge::Edge">
<polygon fill="white" stroke="black" points="123,-228.5 123,-247.5 191,-247.5 191,-228.5 123,-228.5"/>
<text text-anchor="middle" x="157" y="-235.5" font-family="Helvetica,sans-Serif" font-size="10.00">Edge::Edge</text>
</a>
</g>
</g>
<!-- Node3&#45;&gt;Node4 -->
<g id="edge1" class="edge"><title>Node3&#45;&gt;Node4</title>
<path fill="none" stroke="midnightblue" d="M39.4816,-133.533C48.8445,-152.469 72.2714,-195.056 104,-219 106.975,-221.245 110.243,-223.246 113.645,-225.026"/>
<polygon fill="midnightblue" stroke="midnightblue" points="112.309,-228.263 122.859,-229.233 115.216,-221.896 112.309,-228.263"/>
</g>
<!-- Node5 -->
<g id="node3" class="node"><title>Node5</title>
<g id="a_node3"><a xlink:href="class_edge.html#a54017590a12f8b5e68641e678f01655f" target="_top" xlink:title="Edge::getHeapIndex">
<polygon fill="white" stroke="black" points="104,-190.5 104,-209.5 210,-209.5 210,-190.5 104,-190.5"/>
<text text-anchor="middle" x="157" y="-197.5" font-family="Helvetica,sans-Serif" font-size="10.00">Edge::getHeapIndex</text>
</a>
</g>
</g>
<!-- Node3&#45;&gt;Node5 -->
<g id="edge2" class="edge"><title>Node3&#45;&gt;Node5</title>
<path fill="none" stroke="midnightblue" d="M44.4828,-133.66C57.0964,-146.056 80.5427,-167.557 104,-181 107.466,-182.986 111.177,-184.828 114.963,-186.521"/>
<polygon fill="midnightblue" stroke="midnightblue" points="113.848,-189.847 124.428,-190.416 116.512,-183.374 113.848,-189.847"/>
</g>
<!-- Node6 -->
<g id="node4" class="node"><title>Node6</title>
<g id="a_node4"><a xlink:href="class_edge.html#ac5e6bca7dbde5cdd88579b1081ebe1db" target="_top" xlink:title="Edge::getLength">
<polygon fill="white" stroke="black" points="113,-152.5 113,-171.5 201,-171.5 201,-152.5 113,-152.5"/>
<text text-anchor="middle" x="157" y="-159.5" font-family="Helvetica,sans-Serif" font-size="10.00">Edge::getLength</text>
</a>
</g>
</g>
<!-- Node3&#45;&gt;Node6 -->
<g id="edge3" class="edge"><title>Node3&#45;&gt;Node6</title>
<path fill="none" stroke="midnightblue" d="M65.5334,-133.589C80.7234,-138.359 99.2853,-144.189 115.633,-149.323"/>
<polygon fill="midnightblue" stroke="midnightblue" points="114.887,-152.757 125.476,-152.414 116.984,-146.079 114.887,-152.757"/>
</g>
<!-- Node7 -->
<g id="node5" class="node"><title>Node7</title>
<g id="a_node5"><a xlink:href="class_edge.html#a3a776c1ccafacdbdb10fdedd9cb329af" target="_top" xlink:title="Edge::getWeight">
<polygon fill="white" stroke="black" points="112.5,-114.5 112.5,-133.5 201.5,-133.5 201.5,-114.5 112.5,-114.5"/>
<text text-anchor="middle" x="157" y="-121.5" font-family="Helvetica,sans-Serif" font-size="10.00">Edge::getWeight</text>
</a>
</g>
</g>
<!-- Node3&#45;&gt;Node7 -->
<g id="edge4" class="edge"><title>Node3&#45;&gt;Node7</title>
<path fill="none" stroke="midnightblue" d="M68.0638,-124C78.5629,-124 90.4606,-124 102.035,-124"/>
<polygon fill="midnightblue" stroke="midnightblue" points="102.081,-127.5 112.081,-124 102.081,-120.5 102.081,-127.5"/>
</g>
<!-- Node8 -->
<g id="node6" class="node"><title>Node8</title>
<g id="a_node6"><a xlink:href="class_edge.html#ab8f35e1362c7a7289134f14291aa21b1" target="_top" xlink:title="Edge::setHeapIndex">
<polygon fill="white" stroke="black" points="104,-76.5 104,-95.5 210,-95.5 210,-76.5 104,-76.5"/>
<text text-anchor="middle" x="157" y="-83.5" font-family="Helvetica,sans-Serif" font-size="10.00">Edge::setHeapIndex</text>
</a>
</g>
</g>
<!-- Node3&#45;&gt;Node8 -->
<g id="edge5" class="edge"><title>Node3&#45;&gt;Node8</title>
<path fill="none" stroke="midnightblue" d="M65.5334,-114.411C80.7234,-109.641 99.2853,-103.811 115.633,-98.6771"/>
<polygon fill="midnightblue" stroke="midnightblue" points="116.984,-101.921 125.476,-95.5859 114.887,-95.243 116.984,-101.921"/>
</g>
<!-- Node9 -->
<g id="node7" class="node"><title>Node9</title>
<g id="a_node7"><a xlink:href="class_edge.html#a9825f846eb203bc2ebe0e5ee4dcf9c3b" target="_top" xlink:title="Edge::setLength">
<polygon fill="white" stroke="black" points="113,-38.5 113,-57.5 201,-57.5 201,-38.5 113,-38.5"/>
<text text-anchor="middle" x="157" y="-45.5" font-family="Helvetica,sans-Serif" font-size="10.00">Edge::setLength</text>
</a>
</g>
</g>
<!-- Node3&#45;&gt;Node9 -->
<g id="edge6" class="edge"><title>Node3&#45;&gt;Node9</title>
<path fill="none" stroke="midnightblue" d="M44.4828,-114.34C57.0964,-101.944 80.5427,-80.4426 104,-67 107.466,-65.0137 111.177,-63.1716 114.963,-61.4792"/>
<polygon fill="midnightblue" stroke="midnightblue" points="116.512,-64.6263 124.428,-57.5838 113.848,-58.153 116.512,-64.6263"/>
</g>
<!-- Node10 -->
<g id="node8" class="node"><title>Node10</title>
<g id="a_node8"><a xlink:href="class_edge.html#a7ba1bfa5c9c7972d2c31b2c3ba3d7c69" target="_top" xlink:title="Edge::setWeight">
<polygon fill="white" stroke="black" points="112.5,-0.5 112.5,-19.5 201.5,-19.5 201.5,-0.5 112.5,-0.5"/>
<text text-anchor="middle" x="157" y="-7.5" font-family="Helvetica,sans-Serif" font-size="10.00">Edge::setWeight</text>
</a>
</g>
</g>
<!-- Node3&#45;&gt;Node10 -->
<g id="edge7" class="edge"><title>Node3&#45;&gt;Node10</title>
<path fill="none" stroke="midnightblue" d="M39.4816,-114.467C48.8445,-95.5313 72.2714,-52.944 104,-29 106.453,-27.1491 109.104,-25.4642 111.865,-23.9326"/>
<polygon fill="midnightblue" stroke="midnightblue" points="113.468,-27.0453 120.954,-19.5479 110.427,-20.7406 113.468,-27.0453"/>
</g>
</g>
</svg>
