<?xml version="1.0" encoding="UTF-8" standalone="no"?>
<!DOCTYPE svg PUBLIC "-//W3C//DTD SVG 1.1//EN"
 "http://www.w3.org/Graphics/SVG/1.1/DTD/svg11.dtd">
<!-- Generated by graphviz version 2.38.0 (20140413.2041)
 -->
<!-- Title: io::writeNodeToCSV Pages: 1 -->
<svg width="256pt" height="142pt"
 viewBox="0.00 0.00 256.00 142.00" xmlns="http://www.w3.org/2000/svg" xmlns:xlink="http://www.w3.org/1999/xlink">
<g id="graph0" class="graph" transform="scale(1 1) rotate(0) translate(4 138)">
<title>io::writeNodeToCSV</title>
<polygon fill="white" stroke="none" points="-4,4 -4,-138 252,-138 252,4 -4,4"/>
<!-- Node1 -->
<g id="node1" class="node"><title>Node1</title>
<polygon fill="#bfbfbf" stroke="black" points="0,-57.5 0,-76.5 107,-76.5 107,-57.5 0,-57.5"/>
<text text-anchor="middle" x="53.5" y="-64.5" font-family="Helvetica,sans-Serif" font-size="10.00">io::writeNodeToCSV</text>
</g>
<!-- Node2 -->
<g id="node2" class="node"><title>Node2</title>
<g id="a_node2"><a xlink:href="class_node.html#a498a3ea76df240287b5a91aeaec2be95" target="_top" xlink:title="Node::getLeftChild">
<polygon fill="white" stroke="black" points="146.5,-114.5 146.5,-133.5 244.5,-133.5 244.5,-114.5 146.5,-114.5"/>
<text text-anchor="middle" x="195.5" y="-121.5" font-family="Helvetica,sans-Serif" font-size="10.00">Node::getLeftChild</text>
</a>
</g>
</g>
<!-- Node1&#45;&gt;Node2 -->
<g id="edge1" class="edge"><title>Node1&#45;&gt;Node2</title>
<path fill="none" stroke="midnightblue" d="M75.8297,-76.5289C93.6747,-84.4115 119.858,-95.7702 143,-105 147.909,-106.958 153.107,-108.959 158.24,-110.893"/>
<polygon fill="midnightblue" stroke="midnightblue" points="157.342,-114.293 167.935,-114.5 159.783,-107.732 157.342,-114.293"/>
</g>
<!-- Node3 -->
<g id="node3" class="node"><title>Node3</title>
<g id="a_node3"><a xlink:href="class_node.html#aa3512938403662345b64049920d1cdaf" target="_top" xlink:title="Node::getPosition">
<polygon fill="white" stroke="black" points="148,-76.5 148,-95.5 243,-95.5 243,-76.5 148,-76.5"/>
<text text-anchor="middle" x="195.5" y="-83.5" font-family="Helvetica,sans-Serif" font-size="10.00">Node::getPosition</text>
</a>
</g>
</g>
<!-- Node1&#45;&gt;Node3 -->
<g id="edge2" class="edge"><title>Node1&#45;&gt;Node3</title>
<path fill="none" stroke="midnightblue" d="M107.029,-74.129C117.038,-75.4873 127.556,-76.9148 137.691,-78.2903"/>
<polygon fill="midnightblue" stroke="midnightblue" points="137.286,-81.7673 147.666,-79.644 138.228,-74.8309 137.286,-81.7673"/>
</g>
<!-- Node4 -->
<g id="node4" class="node"><title>Node4</title>
<g id="a_node4"><a xlink:href="class_node.html#a531a8178f01a328bec4c4e8a3b93b67f" target="_top" xlink:title="Node::getRightChild">
<polygon fill="white" stroke="black" points="143,-38.5 143,-57.5 248,-57.5 248,-38.5 143,-38.5"/>
<text text-anchor="middle" x="195.5" y="-45.5" font-family="Helvetica,sans-Serif" font-size="10.00">Node::getRightChild</text>
</a>
</g>
</g>
<!-- Node1&#45;&gt;Node4 -->
<g id="edge3" class="edge"><title>Node1&#45;&gt;Node4</title>
<path fill="none" stroke="midnightblue" d="M107.029,-59.871C115.394,-58.7358 124.115,-57.5523 132.67,-56.3912"/>
<polygon fill="midnightblue" stroke="midnightblue" points="133.169,-59.8557 142.607,-55.0426 132.227,-52.9193 133.169,-59.8557"/>
</g>
<!-- Node5 -->
<g id="node5" class="node"><title>Node5</title>
<g id="a_node5"><a xlink:href="class_node.html#a3a61dca67d5ad06cacb8c48eb6374973" target="_top" xlink:title="Node::isLeaf">
<polygon fill="white" stroke="black" points="159.5,-0.5 159.5,-19.5 231.5,-19.5 231.5,-0.5 159.5,-0.5"/>
<text text-anchor="middle" x="195.5" y="-7.5" font-family="Helvetica,sans-Serif" font-size="10.00">Node::isLeaf</text>
</a>
</g>
</g>
<!-- Node1&#45;&gt;Node5 -->
<g id="edge4" class="edge"><title>Node1&#45;&gt;Node5</title>
<path fill="none" stroke="midnightblue" d="M75.8297,-57.4711C93.6747,-49.5885 119.858,-38.2298 143,-29 147.909,-27.0422 153.107,-25.0411 158.24,-23.1073"/>
<polygon fill="midnightblue" stroke="midnightblue" points="159.783,-26.2676 167.935,-19.5005 157.342,-19.7069 159.783,-26.2676"/>
</g>
</g>
</svg>
