<?xml version="1.0" encoding="UTF-8" standalone="no"?>
<!DOCTYPE svg PUBLIC "-//W3C//DTD SVG 1.1//EN"
 "http://www.w3.org/Graphics/SVG/1.1/DTD/svg11.dtd">
<!-- Generated by graphviz version 2.38.0 (20140413.2041)
 -->
<!-- Title: EdgeHeap::size Pages: 1 -->
<!--zoomable 104 -->
<svg id="main" version="1.1" xmlns="http://www.w3.org/2000/svg" xmlns:xlink="http://www.w3.org/1999/xlink" xml:space="preserve" onload="init(evt)">
<style type="text/css"><![CDATA[
.edge:hover path { stroke: red; }
.edge:hover polygon { stroke: red; fill: red; }
]]></style>
<script type="text/javascript"><![CDATA[
var edges = document.getElementsByTagName('g');
if (edges && edges.length) {
  for (var i=0;i<edges.length;i++) {
    if (edges[i].id.substr(0,4)=='edge') {
      edges[i].setAttribute('class','edge');
    }
  }
}
]]></script>
        <defs>
                <circle id="rim" cx="0" cy="0" r="7"/>
                <circle id="rim2" cx="0" cy="0" r="3.5"/>
                <g id="zoomPlus">
                        <use xlink:href="#rim" fill="#404040">
                                <set attributeName="fill" to="#808080" begin="zoomplus.mouseover" end="zoomplus.mouseout"/>
                        </use>
                        <path d="M-4,0h8M0,-4v8" fill="none" stroke="white" stroke-width="1.5" pointer-events="none"/>
                </g>
                <g id="zoomMin">
                        <use xlink:href="#rim" fill="#404040">
                                <set attributeName="fill" to="#808080" begin="zoomminus.mouseover" end="zoomminus.mouseout"/>
                        </use>
                        <path d="M-4,0h8" fill="none" stroke="white" stroke-width="1.5" pointer-events="none"/>
                </g>
                <g id="dirArrow">
                        <path fill="none" stroke="white" stroke-width="1.5" d="M0,-3.0v7 M-2.5,-0.5L0,-3.0L2.5,-0.5"/>
                </g>
               <g id="resetDef">
                       <use xlink:href="#rim2" fill="#404040">
                               <set attributeName="fill" to="#808080" begin="reset.mouseover" end="reset.mouseout"/>
                       </use>
               </g>
        </defs>

<script type="text/javascript">
var viewWidth = 1039;
var viewHeight = 104;
var sectionId = 'dynsection-18';
</script>
<script xlink:href="svgpan.js"/>
<svg id="graph" class="graph">
<g id="viewport">
<title>EdgeHeap::size</title>
<polygon fill="white" stroke="none" points="-4,4 -4,-100 1035,-100 1035,4 -4,4"/>
<!-- Node225 -->
<g id="node1" class="node"><title>Node225</title>
<polygon fill="#bfbfbf" stroke="black" points="0,-57.5 0,-76.5 86,-76.5 86,-57.5 0,-57.5"/>
<text text-anchor="middle" x="43" y="-64.5" font-family="Helvetica,sans-Serif" font-size="10.00">EdgeHeap::size</text>
</g>
<!-- Node226 -->
<g id="node2" class="node"><title>Node226</title>
<g id="a_node2"><a xlink:href="class_r_a_g.html#a76d9384023ca7be0d4b9aac114abd06f" target="_top" xlink:title="RAG::getEdgeSize">
<polygon fill="white" stroke="black" points="124.5,-76.5 124.5,-95.5 224.5,-95.5 224.5,-76.5 124.5,-76.5"/>
<text text-anchor="middle" x="174.5" y="-83.5" font-family="Helvetica,sans-Serif" font-size="10.00">RAG::getEdgeSize</text>
</a>
</g>
</g>
<!-- Node225&#45;&gt;Node226 -->
<g id="edge1" class="edge"><title>Node225&#45;&gt;Node226</title>
<path fill="none" stroke="midnightblue" d="M96.0383,-74.635C105.418,-76.0112 115.168,-77.4417 124.459,-78.8049"/>
<polygon fill="midnightblue" stroke="midnightblue" points="96.4471,-71.1576 86.0449,-73.1688 95.4309,-78.0834 96.4471,-71.1576"/>
</g>
<!-- Node227 -->
<g id="node3" class="node"><title>Node227</title>
<g id="a_node3"><a xlink:href="class_r_a_g.html#ab09eebb1b704d18b583d528e77f7604a" target="_top" xlink:title="RAG::regionMerging">
<polygon fill="white" stroke="black" points="122,-38.5 122,-57.5 227,-57.5 227,-38.5 122,-38.5"/>
<text text-anchor="middle" x="174.5" y="-45.5" font-family="Helvetica,sans-Serif" font-size="10.00">RAG::regionMerging</text>
</a>
</g>
</g>
<!-- Node225&#45;&gt;Node227 -->
<g id="edge2" class="edge"><title>Node225&#45;&gt;Node227</title>
<path fill="none" stroke="midnightblue" d="M96.1357,-59.3507C104.562,-58.1144 113.285,-56.8347 121.703,-55.5995"/>
<polygon fill="midnightblue" stroke="midnightblue" points="95.4309,-55.9166 86.0449,-60.8312 96.4471,-62.8424 95.4309,-55.9166"/>
</g>
<!-- Node228 -->
<g id="node4" class="node"><title>Node228</title>
<g id="a_node4"><a xlink:href="classimage.html#a12343719e8d96a4bda9c5bd6c035d52a" target="_top" xlink:title="image::mergeBlockX">
<polygon fill="white" stroke="black" points="269,-76.5 269,-95.5 376,-95.5 376,-76.5 269,-76.5"/>
<text text-anchor="middle" x="322.5" y="-83.5" font-family="Helvetica,sans-Serif" font-size="10.00">image::mergeBlockX</text>
</a>
</g>
</g>
<!-- Node227&#45;&gt;Node228 -->
<g id="edge3" class="edge"><title>Node227&#45;&gt;Node228</title>
<path fill="none" stroke="midnightblue" d="M222.036,-60.1121C242.37,-65.4044 265.871,-71.5213 284.923,-76.4799"/>
<polygon fill="midnightblue" stroke="midnightblue" points="222.901,-56.7207 212.342,-57.589 221.138,-63.4951 222.901,-56.7207"/>
</g>
<!-- Node232 -->
<g id="node8" class="node"><title>Node232</title>
<g id="a_node8"><a xlink:href="classimage.html#aa21fc5a07af7528869425e750090b3b8" target="_top" xlink:title="image::mergeBlockY">
<polygon fill="white" stroke="black" points="269,-38.5 269,-57.5 376,-57.5 376,-38.5 269,-38.5"/>
<text text-anchor="middle" x="322.5" y="-45.5" font-family="Helvetica,sans-Serif" font-size="10.00">image::mergeBlockY</text>
</a>
</g>
</g>
<!-- Node227&#45;&gt;Node232 -->
<g id="edge7" class="edge"><title>Node227&#45;&gt;Node232</title>
<path fill="none" stroke="midnightblue" d="M237.631,-48C248.008,-48 258.685,-48 268.797,-48"/>
<polygon fill="midnightblue" stroke="midnightblue" points="237.385,-44.5001 227.385,-48 237.385,-51.5001 237.385,-44.5001"/>
</g>
<!-- Node234 -->
<g id="node10" class="node"><title>Node234</title>
<g id="a_node10"><a xlink:href="classimageblock.html#abcc69a8c00ad79067185c700463f8126" target="_top" xlink:title="imageblock::createBPT">
<polygon fill="white" stroke="black" points="263,-0.5 263,-19.5 382,-19.5 382,-0.5 263,-0.5"/>
<text text-anchor="middle" x="322.5" y="-7.5" font-family="Helvetica,sans-Serif" font-size="10.00">imageblock::createBPT</text>
</a>
</g>
</g>
<!-- Node227&#45;&gt;Node234 -->
<g id="edge10" class="edge"><title>Node227&#45;&gt;Node234</title>
<path fill="none" stroke="midnightblue" d="M222.036,-35.8879C242.37,-30.5956 265.871,-24.4787 284.923,-19.5201"/>
<polygon fill="midnightblue" stroke="midnightblue" points="221.138,-32.5049 212.342,-38.411 222.901,-39.2793 221.138,-32.5049"/>
</g>
<!-- Node229 -->
<g id="node5" class="node"><title>Node229</title>
<g id="a_node5"><a xlink:href="classimage.html#a83026280ad6cc713ec9489ff3bd9776e" target="_top" xlink:title="image::ProcessBoundaryX">
<polygon fill="white" stroke="black" points="587,-76.5 587,-95.5 720,-95.5 720,-76.5 587,-76.5"/>
<text text-anchor="middle" x="653.5" y="-83.5" font-family="Helvetica,sans-Serif" font-size="10.00">image::ProcessBoundaryX</text>
</a>
</g>
</g>
<!-- Node228&#45;&gt;Node229 -->
<g id="edge4" class="edge"><title>Node228&#45;&gt;Node229</title>
<path fill="none" stroke="midnightblue" d="M386.399,-86C443.829,-86 528.414,-86 586.728,-86"/>
<polygon fill="midnightblue" stroke="midnightblue" points="386.36,-82.5001 376.36,-86 386.36,-89.5001 386.36,-82.5001"/>
</g>
<!-- Node230 -->
<g id="node6" class="node"><title>Node230</title>
<g id="a_node6"><a xlink:href="classimage.html#a4689c56b85c46d48ea52f0c9fa13891e" target="_top" xlink:title="image::processing">
<polygon fill="white" stroke="black" points="756,-38.5 756,-57.5 852,-57.5 852,-38.5 756,-38.5"/>
<text text-anchor="middle" x="804" y="-45.5" font-family="Helvetica,sans-Serif" font-size="10.00">image::processing</text>
</a>
</g>
</g>
<!-- Node229&#45;&gt;Node230 -->
<g id="edge5" class="edge"><title>Node229&#45;&gt;Node230</title>
<path fill="none" stroke="midnightblue" d="M701.833,-73.8879C722.515,-68.5956 746.419,-62.4787 765.797,-57.5201"/>
<polygon fill="midnightblue" stroke="midnightblue" points="700.793,-70.5411 691.973,-76.411 702.528,-77.3226 700.793,-70.5411"/>
</g>
<!-- Node231 -->
<g id="node7" class="node"><title>Node231</title>
<g id="a_node7"><a xlink:href="class_main_window.html#a9a45eb9ebe6d27bcd23677d9fbb74dd8" target="_top" xlink:title="MainWindow::on_Go_clicked">
<polygon fill="white" stroke="black" points="888,-38.5 888,-57.5 1031,-57.5 1031,-38.5 888,-38.5"/>
<text text-anchor="middle" x="959.5" y="-45.5" font-family="Helvetica,sans-Serif" font-size="10.00">MainWindow::on_Go_clicked</text>
</a>
</g>
</g>
<!-- Node230&#45;&gt;Node231 -->
<g id="edge6" class="edge"><title>Node230&#45;&gt;Node231</title>
<path fill="none" stroke="midnightblue" d="M862.583,-48C870.853,-48 879.441,-48 887.928,-48"/>
<polygon fill="midnightblue" stroke="midnightblue" points="862.308,-44.5001 852.308,-48 862.308,-51.5001 862.308,-44.5001"/>
</g>
<!-- Node233 -->
<g id="node9" class="node"><title>Node233</title>
<g id="a_node9"><a xlink:href="classimage.html#adf6b8c126649c9a40387f12b5f5f07d5" target="_top" xlink:title="image::ProcessBoundaryY">
<polygon fill="white" stroke="black" points="418,-38.5 418,-57.5 551,-57.5 551,-38.5 418,-38.5"/>
<text text-anchor="middle" x="484.5" y="-45.5" font-family="Helvetica,sans-Serif" font-size="10.00">image::ProcessBoundaryY</text>
</a>
</g>
</g>
<!-- Node232&#45;&gt;Node233 -->
<g id="edge8" class="edge"><title>Node232&#45;&gt;Node233</title>
<path fill="none" stroke="midnightblue" d="M386.486,-48C396.798,-48 407.505,-48 417.879,-48"/>
<polygon fill="midnightblue" stroke="midnightblue" points="386.333,-44.5001 376.333,-48 386.333,-51.5001 386.333,-44.5001"/>
</g>
<!-- Node233&#45;&gt;Node230 -->
<g id="edge9" class="edge"><title>Node233&#45;&gt;Node230</title>
<path fill="none" stroke="midnightblue" d="M561.542,-48C621.982,-48 704.613,-48 755.853,-48"/>
<polygon fill="midnightblue" stroke="midnightblue" points="561.286,-44.5001 551.286,-48 561.286,-51.5001 561.286,-44.5001"/>
</g>
<!-- Node235 -->
<g id="node11" class="node"><title>Node235</title>
<g id="a_node11"><a xlink:href="classimageblock.html#af3b91e3daaa8014af1239f60da6b0bf5" target="_top" xlink:title="imageblock::processing">
<polygon fill="white" stroke="black" points="425,-0.5 425,-19.5 544,-19.5 544,-0.5 425,-0.5"/>
<text text-anchor="middle" x="484.5" y="-7.5" font-family="Helvetica,sans-Serif" font-size="10.00">imageblock::processing</text>
</a>
</g>
</g>
<!-- Node234&#45;&gt;Node235 -->
<g id="edge11" class="edge"><title>Node234&#45;&gt;Node235</title>
<path fill="none" stroke="midnightblue" d="M392.415,-10C403.217,-10 414.294,-10 424.838,-10"/>
<polygon fill="midnightblue" stroke="midnightblue" points="392.17,-6.5001 382.17,-10 392.17,-13.5001 392.17,-6.5001"/>
</g>
<!-- Node236 -->
<g id="node12" class="node"><title>Node236</title>
<g id="a_node12"><a xlink:href="classimage.html#ad5a9d767eca6f9bbb8dcb556527edf4d" target="_top" xlink:title="image::ProcessTiles">
<polygon fill="white" stroke="black" points="600.5,-0.5 600.5,-19.5 706.5,-19.5 706.5,-0.5 600.5,-0.5"/>
<text text-anchor="middle" x="653.5" y="-7.5" font-family="Helvetica,sans-Serif" font-size="10.00">image::ProcessTiles</text>
</a>
</g>
</g>
<!-- Node235&#45;&gt;Node236 -->
<g id="edge12" class="edge"><title>Node235&#45;&gt;Node236</title>
<path fill="none" stroke="midnightblue" d="M554.781,-10C569.994,-10 585.857,-10 600.267,-10"/>
<polygon fill="midnightblue" stroke="midnightblue" points="554.378,-6.5001 544.378,-10 554.378,-13.5001 554.378,-6.5001"/>
</g>
<!-- Node236&#45;&gt;Node230 -->
<g id="edge13" class="edge"><title>Node236&#45;&gt;Node230</title>
<path fill="none" stroke="midnightblue" d="M701.833,-22.1121C722.515,-27.4044 746.419,-33.5213 765.797,-38.4799"/>
<polygon fill="midnightblue" stroke="midnightblue" points="702.528,-18.6774 691.973,-19.589 700.793,-25.4589 702.528,-18.6774"/>
</g>
</g>
</svg>
        <g id="navigator" transform="translate(0 0)" fill="#404254">
                <rect fill="#f2f5e9" fill-opacity="0.5" stroke="#606060" stroke-width=".5" x="0" y="0" width="60" height="60"/>
                <use id="zoomplus" xlink:href="#zoomPlus" x="17" y="9" onmousedown="handleZoom(evt,'in')"/>
                <use id="zoomminus" xlink:href="#zoomMin" x="42" y="9" onmousedown="handleZoom(evt,'out')"/>
                <use id="reset" xlink:href="#resetDef" x="30" y="36" onmousedown="handleReset()"/>
                <g id="arrowUp" xlink:href="#dirArrow" transform="translate(30 24)" onmousedown="handlePan(0,-1)">
                  <use xlink:href="#rim" fill="#404040">
                        <set attributeName="fill" to="#808080" begin="arrowUp.mouseover" end="arrowUp.mouseout"/>
                  </use>
                  <path fill="none" stroke="white" stroke-width="1.5" d="M0,-3.0v7 M-2.5,-0.5L0,-3.0L2.5,-0.5"/>
                </g>
                <g id="arrowRight" xlink:href="#dirArrow" transform="rotate(90) translate(36 -43)" onmousedown="handlePan(1,0)">
                  <use xlink:href="#rim" fill="#404040">
                        <set attributeName="fill" to="#808080" begin="arrowRight.mouseover" end="arrowRight.mouseout"/>
                  </use>
                  <path fill="none" stroke="white" stroke-width="1.5" d="M0,-3.0v7 M-2.5,-0.5L0,-3.0L2.5,-0.5"/>
                </g>
                <g id="arrowDown" xlink:href="#dirArrow" transform="rotate(180) translate(-30 -48)" onmousedown="handlePan(0,1)">
                  <use xlink:href="#rim" fill="#404040">
                        <set attributeName="fill" to="#808080" begin="arrowDown.mouseover" end="arrowDown.mouseout"/>
                  </use>
                  <path fill="none" stroke="white" stroke-width="1.5" d="M0,-3.0v7 M-2.5,-0.5L0,-3.0L2.5,-0.5"/>
                </g>
                <g id="arrowLeft" xlink:href="#dirArrow" transform="rotate(270) translate(-36 17)" onmousedown="handlePan(-1,0)">
                  <use xlink:href="#rim" fill="#404040">
                        <set attributeName="fill" to="#808080" begin="arrowLeft.mouseover" end="arrowLeft.mouseout"/>
                  </use>
                  <path fill="none" stroke="white" stroke-width="1.5" d="M0,-3.0v7 M-2.5,-0.5L0,-3.0L2.5,-0.5"/>
                </g>
        </g>
        <svg viewBox="0 0 15 15" width="100%" height="30px" preserveAspectRatio="xMaxYMin meet">
         <g id="arrow_out" transform="scale(0.3 0.3)">
          <a xlink:href="class_edge_heap_a82705f38a79714bb4f80a8218b6e50b1_icgraph_org.svg" target="_base">
           <rect id="button" ry="5" rx="5" y="6" x="6" height="38" width="38"
                fill="#f2f5e9" fill-opacity="0.5" stroke="#606060" stroke-width="1.0"/>
           <path id="arrow"
             d="M 11.500037,31.436501 C 11.940474,20.09759 22.043105,11.32322 32.158766,21.979434 L 37.068811,17.246167 C 37.068811,17.246167 37.088388,32 37.088388,32 L 22.160133,31.978069 C 22.160133,31.978069 26.997745,27.140456 26.997745,27.140456 C 18.528582,18.264221 13.291696,25.230495 11.500037,31.436501 z"
             style="fill:#404040;"/>
          </a>
         </g>
        </svg>
</svg>
