<?xml version="1.0" encoding="UTF-8" standalone="no"?>
<!DOCTYPE svg PUBLIC "-//W3C//DTD SVG 1.1//EN"
 "http://www.w3.org/Graphics/SVG/1.1/DTD/svg11.dtd">
<!-- Generated by graphviz version 2.38.0 (20140413.2041)
 -->
<!-- Title: regionModel Pages: 1 -->
<svg width="126pt" height="108pt"
 viewBox="0.00 0.00 125.50 108.00" xmlns="http://www.w3.org/2000/svg" xmlns:xlink="http://www.w3.org/1999/xlink">
<g id="graph0" class="graph" transform="scale(1 1) rotate(0) translate(4 104)">
<title>regionModel</title>
<polygon fill="white" stroke="none" points="-4,4 -4,-104 121.5,-104 121.5,4 -4,4"/>
<!-- Node4 -->
<g id="node1" class="node"><title>Node4</title>
<polygon fill="#bfbfbf" stroke="black" points="0,-80.5 0,-99.5 69,-99.5 69,-80.5 0,-80.5"/>
<text text-anchor="middle" x="34.5" y="-87.5" font-family="Helvetica,sans-Serif" font-size="10.00">regionModel</text>
</g>
<!-- Node5 -->
<g id="node2" class="node"><title>Node5</title>
<g id="a_node2"><a xlink:href="class_node.html" target="_top" xlink:title="Node">
<polygon fill="white" stroke="black" points="14.5,-7 14.5,-26 54.5,-26 54.5,-7 14.5,-7"/>
<text text-anchor="middle" x="34.5" y="-14" font-family="Helvetica,sans-Serif" font-size="10.00">Node</text>
</a>
</g>
</g>
<!-- Node4&#45;&gt;Node5 -->
<g id="edge3" class="edge"><title>Node4&#45;&gt;Node5</title>
<path fill="none" stroke="#9a32cd" stroke-dasharray="5,2" d="M12.9465,-73.4449C6.7834,-67.0157 2.45858,-59.1603 5.5,-51 9.15367,-41.197 17.1099,-32.3551 23.766,-26.2198"/>
<polygon fill="#9a32cd" stroke="#9a32cd" points="10.8772,-76.2864 20.6946,-80.27 15.5042,-71.0336 10.8772,-76.2864"/>
<text text-anchor="middle" x="20.5" y="-54" font-family="Helvetica,sans-Serif" font-size="10.00"> model</text>
</g>
<!-- Node5&#45;&gt;Node4 -->
<g id="edge1" class="edge"><title>Node5&#45;&gt;Node4</title>
<path fill="none" stroke="#9a32cd" stroke-dasharray="5,2" d="M38.2833,-36.0791C39.467,-44.0517 40.2826,-53.4756 39.5,-62 38.9421,-68.0765 37.6921,-74.8265 36.5816,-80.0573"/>
<polygon fill="#9a32cd" stroke="#9a32cd" points="41.6912,-35.2524 36.4931,-26.0204 34.7995,-36.479 41.6912,-35.2524"/>
<text text-anchor="middle" x="52" y="-54" font-family="Helvetica,sans-Serif" font-size="10.00"> node</text>
</g>
<!-- Node5&#45;&gt;Node5 -->
<g id="edge2" class="edge"><title>Node5&#45;&gt;Node5</title>
<path fill="none" stroke="#9a32cd" stroke-dasharray="5,2" d="M64.9158,-23.3026C69.4402,-22.2429 72.5,-19.9753 72.5,-16.5 72.5,-10.7969 64.2602,-8.34631 54.8294,-9.14832"/>
<polygon fill="#9a32cd" stroke="#9a32cd" points="64.6244,-19.8132 54.8294,-23.8517 65.0049,-26.8029 64.6244,-19.8132"/>
<text text-anchor="middle" x="95" y="-25" font-family="Helvetica,sans-Serif" font-size="10.00"> rightChild</text>
<text text-anchor="middle" x="95" y="-14" font-family="Helvetica,sans-Serif" font-size="10.00">parent</text>
<text text-anchor="middle" x="95" y="-3" font-family="Helvetica,sans-Serif" font-size="10.00">leftChild</text>
</g>
</g>
</svg>
