<?xml version="1.0" encoding="UTF-8" standalone="no"?>
<!DOCTYPE svg PUBLIC "-//W3C//DTD SVG 1.1//EN"
 "http://www.w3.org/Graphics/SVG/1.1/DTD/svg11.dtd">
<!-- Generated by graphviz version 2.38.0 (20140413.2041)
 -->
<!-- Title: EdgeHeap::heapifyUp Pages: 1 -->
<svg width="1508pt" height="123pt"
 viewBox="0.00 0.00 1508.00 123.00" xmlns="http://www.w3.org/2000/svg" xmlns:xlink="http://www.w3.org/1999/xlink">
<g id="graph0" class="graph" transform="scale(1 1) rotate(0) translate(4 119)">
<title>EdgeHeap::heapifyUp</title>
<polygon fill="white" stroke="none" points="-4,4 -4,-119 1504,-119 1504,4 -4,4"/>
<!-- Node103 -->
<g id="node1" class="node"><title>Node103</title>
<polygon fill="#bfbfbf" stroke="black" points="0,-38.5 0,-57.5 113,-57.5 113,-38.5 0,-38.5"/>
<text text-anchor="middle" x="56.5" y="-45.5" font-family="Helvetica,sans-Serif" font-size="10.00">EdgeHeap::heapifyUp</text>
</g>
<!-- Node104 -->
<g id="node2" class="node"><title>Node104</title>
<g id="a_node2"><a xlink:href="class_edge_heap.html#ab0a6cd317e3e6c92c0072d3211ecc24b" target="_top" xlink:title="EdgeHeap::insert">
<polygon fill="white" stroke="black" points="158,-76.5 158,-95.5 250,-95.5 250,-76.5 158,-76.5"/>
<text text-anchor="middle" x="204" y="-83.5" font-family="Helvetica,sans-Serif" font-size="10.00">EdgeHeap::insert</text>
</a>
</g>
</g>
<!-- Node103&#45;&gt;Node104 -->
<g id="edge1" class="edge"><title>Node103&#45;&gt;Node104</title>
<path fill="none" stroke="midnightblue" d="M104.153,-60.1843C124.353,-65.46 147.648,-71.5438 166.548,-76.4799"/>
<polygon fill="midnightblue" stroke="midnightblue" points="104.776,-56.7296 94.2158,-57.589 103.007,-63.5024 104.776,-56.7296"/>
</g>
<!-- Node105 -->
<g id="node3" class="node"><title>Node105</title>
<g id="a_node3"><a xlink:href="class_edge_heap.html#a71040389a82aaff7be40c94a95afc357" target="_top" xlink:title="EdgeHeap::removeAt">
<polygon fill="white" stroke="black" points="149,-38.5 149,-57.5 259,-57.5 259,-38.5 149,-38.5"/>
<text text-anchor="middle" x="204" y="-45.5" font-family="Helvetica,sans-Serif" font-size="10.00">EdgeHeap::removeAt</text>
</a>
</g>
</g>
<!-- Node103&#45;&gt;Node105 -->
<g id="edge2" class="edge"><title>Node103&#45;&gt;Node105</title>
<path fill="none" stroke="midnightblue" d="M123.608,-48C132.103,-48 140.719,-48 148.989,-48"/>
<polygon fill="midnightblue" stroke="midnightblue" points="123.338,-44.5001 113.338,-48 123.338,-51.5001 123.338,-44.5001"/>
</g>
<!-- Node119 -->
<g id="node17" class="node"><title>Node119</title>
<g id="a_node17"><a xlink:href="class_edge_heap.html#aed5f5e75856c0e3bcb8ccc29184a88c0" target="_top" xlink:title="EdgeHeap::updateAt">
<polygon fill="white" stroke="black" points="150.5,-0.5 150.5,-19.5 257.5,-19.5 257.5,-0.5 150.5,-0.5"/>
<text text-anchor="middle" x="204" y="-7.5" font-family="Helvetica,sans-Serif" font-size="10.00">EdgeHeap::updateAt</text>
</a>
</g>
</g>
<!-- Node103&#45;&gt;Node119 -->
<g id="edge19" class="edge"><title>Node103&#45;&gt;Node119</title>
<path fill="none" stroke="midnightblue" d="M104.153,-35.8157C124.353,-30.54 147.648,-24.4562 166.548,-19.5201"/>
<polygon fill="midnightblue" stroke="midnightblue" points="103.007,-32.4976 94.2158,-38.411 104.776,-39.2704 103.007,-32.4976"/>
</g>
<!-- Node106 -->
<g id="node4" class="node"><title>Node106</title>
<g id="a_node4"><a xlink:href="class_edge_heap.html#a001dc48506130f599bddb241006d2920" target="_top" xlink:title="EdgeHeap::removeFront">
<polygon fill="white" stroke="black" points="432,-76.5 432,-95.5 555,-95.5 555,-76.5 432,-76.5"/>
<text text-anchor="middle" x="493.5" y="-83.5" font-family="Helvetica,sans-Serif" font-size="10.00">EdgeHeap::removeFront</text>
</a>
</g>
</g>
<!-- Node105&#45;&gt;Node106 -->
<g id="edge3" class="edge"><title>Node105&#45;&gt;Node106</title>
<path fill="none" stroke="midnightblue" d="M255.617,-59.7248C268.416,-62.4027 282.171,-65.035 295,-67 340.626,-73.9882 392.6,-78.8664 431.775,-81.9288"/>
<polygon fill="midnightblue" stroke="midnightblue" points="256.104,-56.2499 245.593,-57.5793 254.639,-63.0949 256.104,-56.2499"/>
</g>
<!-- Node117 -->
<g id="node15" class="node"><title>Node117</title>
<g id="a_node15"><a xlink:href="class_edge_heap.html#ac36afe05c095a87767748b41dfa831a5" target="_top" xlink:title="EdgeHeap::remove">
<polygon fill="white" stroke="black" points="295,-38.5 295,-57.5 396,-57.5 396,-38.5 295,-38.5"/>
<text text-anchor="middle" x="345.5" y="-45.5" font-family="Helvetica,sans-Serif" font-size="10.00">EdgeHeap::remove</text>
</a>
</g>
</g>
<!-- Node105&#45;&gt;Node117 -->
<g id="edge16" class="edge"><title>Node105&#45;&gt;Node117</title>
<path fill="none" stroke="midnightblue" d="M269.535,-48C277.968,-48 286.502,-48 294.642,-48"/>
<polygon fill="midnightblue" stroke="midnightblue" points="269.334,-44.5001 259.334,-48 269.334,-51.5001 269.334,-44.5001"/>
</g>
<!-- Node107 -->
<g id="node5" class="node"><title>Node107</title>
<g id="a_node5"><a xlink:href="class_r_a_g.html#ab09eebb1b704d18b583d528e77f7604a" target="_top" xlink:title="RAG::regionMerging">
<polygon fill="white" stroke="black" points="591,-57.5 591,-76.5 696,-76.5 696,-57.5 591,-57.5"/>
<text text-anchor="middle" x="643.5" y="-64.5" font-family="Helvetica,sans-Serif" font-size="10.00">RAG::regionMerging</text>
</a>
</g>
</g>
<!-- Node106&#45;&gt;Node107 -->
<g id="edge4" class="edge"><title>Node106&#45;&gt;Node107</title>
<path fill="none" stroke="midnightblue" d="M565.177,-76.9267C573.787,-75.8213 582.457,-74.7082 590.721,-73.6474"/>
<polygon fill="midnightblue" stroke="midnightblue" points="564.597,-73.4722 555.124,-78.2172 565.489,-80.4152 564.597,-73.4722"/>
</g>
<!-- Node108 -->
<g id="node6" class="node"><title>Node108</title>
<g id="a_node6"><a xlink:href="classimage.html#a12343719e8d96a4bda9c5bd6c035d52a" target="_top" xlink:title="image::mergeBlockX">
<polygon fill="white" stroke="black" points="738,-95.5 738,-114.5 845,-114.5 845,-95.5 738,-95.5"/>
<text text-anchor="middle" x="791.5" y="-102.5" font-family="Helvetica,sans-Serif" font-size="10.00">image::mergeBlockX</text>
</a>
</g>
</g>
<!-- Node107&#45;&gt;Node108 -->
<g id="edge5" class="edge"><title>Node107&#45;&gt;Node108</title>
<path fill="none" stroke="midnightblue" d="M691.036,-79.1121C711.37,-84.4044 734.871,-90.5213 753.923,-95.4799"/>
<polygon fill="midnightblue" stroke="midnightblue" points="691.901,-75.7207 681.342,-76.589 690.138,-82.4951 691.901,-75.7207"/>
</g>
<!-- Node112 -->
<g id="node10" class="node"><title>Node112</title>
<g id="a_node10"><a xlink:href="classimage.html#aa21fc5a07af7528869425e750090b3b8" target="_top" xlink:title="image::mergeBlockY">
<polygon fill="white" stroke="black" points="738,-57.5 738,-76.5 845,-76.5 845,-57.5 738,-57.5"/>
<text text-anchor="middle" x="791.5" y="-64.5" font-family="Helvetica,sans-Serif" font-size="10.00">image::mergeBlockY</text>
</a>
</g>
</g>
<!-- Node107&#45;&gt;Node112 -->
<g id="edge9" class="edge"><title>Node107&#45;&gt;Node112</title>
<path fill="none" stroke="midnightblue" d="M706.631,-67C717.008,-67 727.685,-67 737.797,-67"/>
<polygon fill="midnightblue" stroke="midnightblue" points="706.385,-63.5001 696.385,-67 706.385,-70.5001 706.385,-63.5001"/>
</g>
<!-- Node114 -->
<g id="node12" class="node"><title>Node114</title>
<g id="a_node12"><a xlink:href="classimageblock.html#abcc69a8c00ad79067185c700463f8126" target="_top" xlink:title="imageblock::createBPT">
<polygon fill="white" stroke="black" points="732,-19.5 732,-38.5 851,-38.5 851,-19.5 732,-19.5"/>
<text text-anchor="middle" x="791.5" y="-26.5" font-family="Helvetica,sans-Serif" font-size="10.00">imageblock::createBPT</text>
</a>
</g>
</g>
<!-- Node107&#45;&gt;Node114 -->
<g id="edge12" class="edge"><title>Node107&#45;&gt;Node114</title>
<path fill="none" stroke="midnightblue" d="M691.036,-54.8879C711.37,-49.5956 734.871,-43.4787 753.923,-38.5201"/>
<polygon fill="midnightblue" stroke="midnightblue" points="690.138,-51.5049 681.342,-57.411 691.901,-58.2793 690.138,-51.5049"/>
</g>
<!-- Node109 -->
<g id="node7" class="node"><title>Node109</title>
<g id="a_node7"><a xlink:href="classimage.html#a83026280ad6cc713ec9489ff3bd9776e" target="_top" xlink:title="image::ProcessBoundaryX">
<polygon fill="white" stroke="black" points="1056,-95.5 1056,-114.5 1189,-114.5 1189,-95.5 1056,-95.5"/>
<text text-anchor="middle" x="1122.5" y="-102.5" font-family="Helvetica,sans-Serif" font-size="10.00">image::ProcessBoundaryX</text>
</a>
</g>
</g>
<!-- Node108&#45;&gt;Node109 -->
<g id="edge6" class="edge"><title>Node108&#45;&gt;Node109</title>
<path fill="none" stroke="midnightblue" d="M855.399,-105C912.829,-105 997.414,-105 1055.73,-105"/>
<polygon fill="midnightblue" stroke="midnightblue" points="855.36,-101.5 845.36,-105 855.36,-108.5 855.36,-101.5"/>
</g>
<!-- Node110 -->
<g id="node8" class="node"><title>Node110</title>
<g id="a_node8"><a xlink:href="classimage.html#a4689c56b85c46d48ea52f0c9fa13891e" target="_top" xlink:title="image::processing">
<polygon fill="white" stroke="black" points="1225,-57.5 1225,-76.5 1321,-76.5 1321,-57.5 1225,-57.5"/>
<text text-anchor="middle" x="1273" y="-64.5" font-family="Helvetica,sans-Serif" font-size="10.00">image::processing</text>
</a>
</g>
</g>
<!-- Node109&#45;&gt;Node110 -->
<g id="edge7" class="edge"><title>Node109&#45;&gt;Node110</title>
<path fill="none" stroke="midnightblue" d="M1170.83,-92.8879C1191.51,-87.5956 1215.42,-81.4787 1234.8,-76.5201"/>
<polygon fill="midnightblue" stroke="midnightblue" points="1169.79,-89.5411 1160.97,-95.411 1171.53,-96.3226 1169.79,-89.5411"/>
</g>
<!-- Node111 -->
<g id="node9" class="node"><title>Node111</title>
<g id="a_node9"><a xlink:href="class_main_window.html#a9a45eb9ebe6d27bcd23677d9fbb74dd8" target="_top" xlink:title="MainWindow::on_Go_clicked">
<polygon fill="white" stroke="black" points="1357,-57.5 1357,-76.5 1500,-76.5 1500,-57.5 1357,-57.5"/>
<text text-anchor="middle" x="1428.5" y="-64.5" font-family="Helvetica,sans-Serif" font-size="10.00">MainWindow::on_Go_clicked</text>
</a>
</g>
</g>
<!-- Node110&#45;&gt;Node111 -->
<g id="edge8" class="edge"><title>Node110&#45;&gt;Node111</title>
<path fill="none" stroke="midnightblue" d="M1331.58,-67C1339.85,-67 1348.44,-67 1356.93,-67"/>
<polygon fill="midnightblue" stroke="midnightblue" points="1331.31,-63.5001 1321.31,-67 1331.31,-70.5001 1331.31,-63.5001"/>
</g>
<!-- Node113 -->
<g id="node11" class="node"><title>Node113</title>
<g id="a_node11"><a xlink:href="classimage.html#adf6b8c126649c9a40387f12b5f5f07d5" target="_top" xlink:title="image::ProcessBoundaryY">
<polygon fill="white" stroke="black" points="887,-57.5 887,-76.5 1020,-76.5 1020,-57.5 887,-57.5"/>
<text text-anchor="middle" x="953.5" y="-64.5" font-family="Helvetica,sans-Serif" font-size="10.00">image::ProcessBoundaryY</text>
</a>
</g>
</g>
<!-- Node112&#45;&gt;Node113 -->
<g id="edge10" class="edge"><title>Node112&#45;&gt;Node113</title>
<path fill="none" stroke="midnightblue" d="M855.486,-67C865.798,-67 876.505,-67 886.879,-67"/>
<polygon fill="midnightblue" stroke="midnightblue" points="855.333,-63.5001 845.333,-67 855.333,-70.5001 855.333,-63.5001"/>
</g>
<!-- Node113&#45;&gt;Node110 -->
<g id="edge11" class="edge"><title>Node113&#45;&gt;Node110</title>
<path fill="none" stroke="midnightblue" d="M1030.54,-67C1090.98,-67 1173.61,-67 1224.85,-67"/>
<polygon fill="midnightblue" stroke="midnightblue" points="1030.29,-63.5001 1020.29,-67 1030.29,-70.5001 1030.29,-63.5001"/>
</g>
<!-- Node115 -->
<g id="node13" class="node"><title>Node115</title>
<g id="a_node13"><a xlink:href="classimageblock.html#af3b91e3daaa8014af1239f60da6b0bf5" target="_top" xlink:title="imageblock::processing">
<polygon fill="white" stroke="black" points="894,-19.5 894,-38.5 1013,-38.5 1013,-19.5 894,-19.5"/>
<text text-anchor="middle" x="953.5" y="-26.5" font-family="Helvetica,sans-Serif" font-size="10.00">imageblock::processing</text>
</a>
</g>
</g>
<!-- Node114&#45;&gt;Node115 -->
<g id="edge13" class="edge"><title>Node114&#45;&gt;Node115</title>
<path fill="none" stroke="midnightblue" d="M861.415,-29C872.217,-29 883.294,-29 893.838,-29"/>
<polygon fill="midnightblue" stroke="midnightblue" points="861.17,-25.5001 851.17,-29 861.17,-32.5001 861.17,-25.5001"/>
</g>
<!-- Node116 -->
<g id="node14" class="node"><title>Node116</title>
<g id="a_node14"><a xlink:href="classimage.html#ad5a9d767eca6f9bbb8dcb556527edf4d" target="_top" xlink:title="image::ProcessTiles">
<polygon fill="white" stroke="black" points="1069.5,-19.5 1069.5,-38.5 1175.5,-38.5 1175.5,-19.5 1069.5,-19.5"/>
<text text-anchor="middle" x="1122.5" y="-26.5" font-family="Helvetica,sans-Serif" font-size="10.00">image::ProcessTiles</text>
</a>
</g>
</g>
<!-- Node115&#45;&gt;Node116 -->
<g id="edge14" class="edge"><title>Node115&#45;&gt;Node116</title>
<path fill="none" stroke="midnightblue" d="M1023.78,-29C1038.99,-29 1054.86,-29 1069.27,-29"/>
<polygon fill="midnightblue" stroke="midnightblue" points="1023.38,-25.5001 1013.38,-29 1023.38,-32.5001 1023.38,-25.5001"/>
</g>
<!-- Node116&#45;&gt;Node110 -->
<g id="edge15" class="edge"><title>Node116&#45;&gt;Node110</title>
<path fill="none" stroke="midnightblue" d="M1170.83,-41.1121C1191.51,-46.4044 1215.42,-52.5213 1234.8,-57.4799"/>
<polygon fill="midnightblue" stroke="midnightblue" points="1171.53,-37.6774 1160.97,-38.589 1169.79,-44.4589 1171.53,-37.6774"/>
</g>
<!-- Node118 -->
<g id="node16" class="node"><title>Node118</title>
<g id="a_node16"><a xlink:href="class_r_a_g.html#aa2de492a3df037db29b0e3ccab5251ee" target="_top" xlink:title="RAG::merge">
<polygon fill="white" stroke="black" points="458,-38.5 458,-57.5 529,-57.5 529,-38.5 458,-38.5"/>
<text text-anchor="middle" x="493.5" y="-45.5" font-family="Helvetica,sans-Serif" font-size="10.00">RAG::merge</text>
</a>
</g>
</g>
<!-- Node117&#45;&gt;Node118 -->
<g id="edge17" class="edge"><title>Node117&#45;&gt;Node118</title>
<path fill="none" stroke="midnightblue" d="M406.438,-48C423.849,-48 442.285,-48 457.608,-48"/>
<polygon fill="midnightblue" stroke="midnightblue" points="406.337,-44.5001 396.337,-48 406.337,-51.5001 406.337,-44.5001"/>
</g>
<!-- Node118&#45;&gt;Node107 -->
<g id="edge18" class="edge"><title>Node118&#45;&gt;Node107</title>
<path fill="none" stroke="midnightblue" d="M539.501,-53.7772C555.725,-55.8599 574.157,-58.2262 590.9,-60.3757"/>
<polygon fill="midnightblue" stroke="midnightblue" points="539.564,-50.2566 529.199,-52.4547 538.672,-57.1996 539.564,-50.2566"/>
</g>
<!-- Node120 -->
<g id="node18" class="node"><title>Node120</title>
<g id="a_node18"><a xlink:href="class_edge_heap.html#a7d8eaf4111da4c024feb5f2fb8d7cafa" target="_top" xlink:title="EdgeHeap::update">
<polygon fill="white" stroke="black" points="296.5,-0.5 296.5,-19.5 394.5,-19.5 394.5,-0.5 296.5,-0.5"/>
<text text-anchor="middle" x="345.5" y="-7.5" font-family="Helvetica,sans-Serif" font-size="10.00">EdgeHeap::update</text>
</a>
</g>
</g>
<!-- Node119&#45;&gt;Node120 -->
<g id="edge20" class="edge"><title>Node119&#45;&gt;Node120</title>
<path fill="none" stroke="midnightblue" d="M267.957,-10C277.466,-10 287.145,-10 296.278,-10"/>
<polygon fill="midnightblue" stroke="midnightblue" points="267.739,-6.5001 257.739,-10 267.739,-13.5001 267.739,-6.5001"/>
</g>
<!-- Node120&#45;&gt;Node118 -->
<g id="edge21" class="edge"><title>Node120&#45;&gt;Node118</title>
<path fill="none" stroke="midnightblue" d="M393.302,-22.1813C414.205,-27.6218 438.412,-33.9223 457.68,-38.9373"/>
<polygon fill="midnightblue" stroke="midnightblue" points="393.901,-18.7207 383.342,-19.589 392.138,-25.4951 393.901,-18.7207"/>
</g>
</g>
</svg>
