<?xml version="1.0" encoding="UTF-8" standalone="no"?>
<!DOCTYPE svg PUBLIC "-//W3C//DTD SVG 1.1//EN"
 "http://www.w3.org/Graphics/SVG/1.1/DTD/svg11.dtd">
<!-- Generated by graphviz version 2.38.0 (20140413.2041)
 -->
<!-- Title: io::bestSegmentation Pages: 1 -->
<svg width="752pt" height="104pt"
 viewBox="0.00 0.00 752.00 104.00" xmlns="http://www.w3.org/2000/svg" xmlns:xlink="http://www.w3.org/1999/xlink">
<g id="graph0" class="graph" transform="scale(1 1) rotate(0) translate(4 100)">
<title>io::bestSegmentation</title>
<polygon fill="white" stroke="none" points="-4,4 -4,-100 748,-100 748,4 -4,4"/>
<!-- Node1 -->
<g id="node1" class="node"><title>Node1</title>
<polygon fill="#bfbfbf" stroke="black" points="0,-38.5 0,-57.5 109,-57.5 109,-38.5 0,-38.5"/>
<text text-anchor="middle" x="54.5" y="-45.5" font-family="Helvetica,sans-Serif" font-size="10.00">io::bestSegmentation</text>
</g>
<!-- Node2 -->
<g id="node2" class="node"><title>Node2</title>
<g id="a_node2"><a xlink:href="classimage.html#a12343719e8d96a4bda9c5bd6c035d52a" target="_top" xlink:title="image::mergeBlockX">
<polygon fill="white" stroke="black" points="151,-76.5 151,-95.5 258,-95.5 258,-76.5 151,-76.5"/>
<text text-anchor="middle" x="204.5" y="-83.5" font-family="Helvetica,sans-Serif" font-size="10.00">image::mergeBlockX</text>
</a>
</g>
</g>
<!-- Node1&#45;&gt;Node2 -->
<g id="edge1" class="edge"><title>Node1&#45;&gt;Node2</title>
<path fill="none" stroke="midnightblue" d="M102.673,-60.1121C123.286,-65.4044 147.109,-71.5213 166.422,-76.4799"/>
<polygon fill="midnightblue" stroke="midnightblue" points="103.403,-56.6859 92.8466,-57.589 101.662,-63.466 103.403,-56.6859"/>
</g>
<!-- Node6 -->
<g id="node6" class="node"><title>Node6</title>
<g id="a_node6"><a xlink:href="classimage.html#aa21fc5a07af7528869425e750090b3b8" target="_top" xlink:title="image::mergeBlockY">
<polygon fill="white" stroke="black" points="151,-38.5 151,-57.5 258,-57.5 258,-38.5 151,-38.5"/>
<text text-anchor="middle" x="204.5" y="-45.5" font-family="Helvetica,sans-Serif" font-size="10.00">image::mergeBlockY</text>
</a>
</g>
</g>
<!-- Node1&#45;&gt;Node6 -->
<g id="edge5" class="edge"><title>Node1&#45;&gt;Node6</title>
<path fill="none" stroke="midnightblue" d="M119.668,-48C130.105,-48 140.808,-48 150.927,-48"/>
<polygon fill="midnightblue" stroke="midnightblue" points="119.35,-44.5001 109.35,-48 119.35,-51.5001 119.35,-44.5001"/>
</g>
<!-- Node8 -->
<g id="node8" class="node"><title>Node8</title>
<g id="a_node8"><a xlink:href="classimageblock.html#af3b91e3daaa8014af1239f60da6b0bf5" target="_top" xlink:title="imageblock::processing">
<polygon fill="white" stroke="black" points="145,-0.5 145,-19.5 264,-19.5 264,-0.5 145,-0.5"/>
<text text-anchor="middle" x="204.5" y="-7.5" font-family="Helvetica,sans-Serif" font-size="10.00">imageblock::processing</text>
</a>
</g>
</g>
<!-- Node1&#45;&gt;Node8 -->
<g id="edge8" class="edge"><title>Node1&#45;&gt;Node8</title>
<path fill="none" stroke="midnightblue" d="M102.673,-35.8879C123.286,-30.5956 147.109,-24.4787 166.422,-19.5201"/>
<polygon fill="midnightblue" stroke="midnightblue" points="101.662,-32.534 92.8466,-38.411 103.403,-39.3141 101.662,-32.534"/>
</g>
<!-- Node3 -->
<g id="node3" class="node"><title>Node3</title>
<g id="a_node3"><a xlink:href="classimage.html#a83026280ad6cc713ec9489ff3bd9776e" target="_top" xlink:title="image::ProcessBoundaryX">
<polygon fill="white" stroke="black" points="300,-76.5 300,-95.5 433,-95.5 433,-76.5 300,-76.5"/>
<text text-anchor="middle" x="366.5" y="-83.5" font-family="Helvetica,sans-Serif" font-size="10.00">image::ProcessBoundaryX</text>
</a>
</g>
</g>
<!-- Node2&#45;&gt;Node3 -->
<g id="edge2" class="edge"><title>Node2&#45;&gt;Node3</title>
<path fill="none" stroke="midnightblue" d="M268.486,-86C278.798,-86 289.505,-86 299.879,-86"/>
<polygon fill="midnightblue" stroke="midnightblue" points="268.333,-82.5001 258.333,-86 268.333,-89.5001 268.333,-82.5001"/>
</g>
<!-- Node4 -->
<g id="node4" class="node"><title>Node4</title>
<g id="a_node4"><a xlink:href="classimage.html#a4689c56b85c46d48ea52f0c9fa13891e" target="_top" xlink:title="image::processing">
<polygon fill="white" stroke="black" points="469,-38.5 469,-57.5 565,-57.5 565,-38.5 469,-38.5"/>
<text text-anchor="middle" x="517" y="-45.5" font-family="Helvetica,sans-Serif" font-size="10.00">image::processing</text>
</a>
</g>
</g>
<!-- Node3&#45;&gt;Node4 -->
<g id="edge3" class="edge"><title>Node3&#45;&gt;Node4</title>
<path fill="none" stroke="midnightblue" d="M414.833,-73.8879C435.515,-68.5956 459.419,-62.4787 478.797,-57.5201"/>
<polygon fill="midnightblue" stroke="midnightblue" points="413.793,-70.5411 404.973,-76.411 415.528,-77.3226 413.793,-70.5411"/>
</g>
<!-- Node5 -->
<g id="node5" class="node"><title>Node5</title>
<g id="a_node5"><a xlink:href="class_main_window.html#a9a45eb9ebe6d27bcd23677d9fbb74dd8" target="_top" xlink:title="MainWindow::on_Go_clicked">
<polygon fill="white" stroke="black" points="601,-38.5 601,-57.5 744,-57.5 744,-38.5 601,-38.5"/>
<text text-anchor="middle" x="672.5" y="-45.5" font-family="Helvetica,sans-Serif" font-size="10.00">MainWindow::on_Go_clicked</text>
</a>
</g>
</g>
<!-- Node4&#45;&gt;Node5 -->
<g id="edge4" class="edge"><title>Node4&#45;&gt;Node5</title>
<path fill="none" stroke="midnightblue" d="M575.583,-48C583.853,-48 592.441,-48 600.928,-48"/>
<polygon fill="midnightblue" stroke="midnightblue" points="575.308,-44.5001 565.308,-48 575.308,-51.5001 575.308,-44.5001"/>
</g>
<!-- Node7 -->
<g id="node7" class="node"><title>Node7</title>
<g id="a_node7"><a xlink:href="classimage.html#adf6b8c126649c9a40387f12b5f5f07d5" target="_top" xlink:title="image::ProcessBoundaryY">
<polygon fill="white" stroke="black" points="300,-38.5 300,-57.5 433,-57.5 433,-38.5 300,-38.5"/>
<text text-anchor="middle" x="366.5" y="-45.5" font-family="Helvetica,sans-Serif" font-size="10.00">image::ProcessBoundaryY</text>
</a>
</g>
</g>
<!-- Node6&#45;&gt;Node7 -->
<g id="edge6" class="edge"><title>Node6&#45;&gt;Node7</title>
<path fill="none" stroke="midnightblue" d="M268.486,-48C278.798,-48 289.505,-48 299.879,-48"/>
<polygon fill="midnightblue" stroke="midnightblue" points="268.333,-44.5001 258.333,-48 268.333,-51.5001 268.333,-44.5001"/>
</g>
<!-- Node7&#45;&gt;Node4 -->
<g id="edge7" class="edge"><title>Node7&#45;&gt;Node4</title>
<path fill="none" stroke="midnightblue" d="M443.207,-48C451.858,-48 460.483,-48 468.612,-48"/>
<polygon fill="midnightblue" stroke="midnightblue" points="443.067,-44.5001 433.067,-48 443.066,-51.5001 443.067,-44.5001"/>
</g>
<!-- Node9 -->
<g id="node9" class="node"><title>Node9</title>
<g id="a_node9"><a xlink:href="classimage.html#ad5a9d767eca6f9bbb8dcb556527edf4d" target="_top" xlink:title="image::ProcessTiles">
<polygon fill="white" stroke="black" points="313.5,-0.5 313.5,-19.5 419.5,-19.5 419.5,-0.5 313.5,-0.5"/>
<text text-anchor="middle" x="366.5" y="-7.5" font-family="Helvetica,sans-Serif" font-size="10.00">image::ProcessTiles</text>
</a>
</g>
</g>
<!-- Node8&#45;&gt;Node9 -->
<g id="edge9" class="edge"><title>Node8&#45;&gt;Node9</title>
<path fill="none" stroke="midnightblue" d="M274.525,-10C287.577,-10 301.026,-10 313.447,-10"/>
<polygon fill="midnightblue" stroke="midnightblue" points="274.17,-6.5001 264.17,-10 274.17,-13.5001 274.17,-6.5001"/>
</g>
<!-- Node9&#45;&gt;Node4 -->
<g id="edge10" class="edge"><title>Node9&#45;&gt;Node4</title>
<path fill="none" stroke="midnightblue" d="M414.833,-22.1121C435.515,-27.4044 459.419,-33.5213 478.797,-38.4799"/>
<polygon fill="midnightblue" stroke="midnightblue" points="415.528,-18.6774 404.973,-19.589 413.793,-25.4589 415.528,-18.6774"/>
</g>
</g>
</svg>
