<?xml version="1.0" encoding="UTF-8" standalone="no"?>
<!DOCTYPE svg PUBLIC "-//W3C//DTD SVG 1.1//EN"
 "http://www.w3.org/Graphics/SVG/1.1/DTD/svg11.dtd">
<!-- Generated by graphviz version 2.38.0 (20140413.2041)
 -->
<!-- Title: histogramModel::getMeanSpectrum Pages: 1 -->
<svg width="582pt" height="28pt"
 viewBox="0.00 0.00 582.00 28.00" xmlns="http://www.w3.org/2000/svg" xmlns:xlink="http://www.w3.org/1999/xlink">
<g id="graph0" class="graph" transform="scale(1 1) rotate(0) translate(4 24)">
<title>histogramModel::getMeanSpectrum</title>
<polygon fill="white" stroke="none" points="-4,4 -4,-24 578,-24 578,4 -4,4"/>
<!-- Node1 -->
<g id="node1" class="node"><title>Node1</title>
<polygon fill="#bfbfbf" stroke="black" points="0,-0.5 0,-19.5 171,-19.5 171,-0.5 0,-0.5"/>
<text text-anchor="middle" x="85.5" y="-7.5" font-family="Helvetica,sans-Serif" font-size="10.00">histogramModel::getMeanSpectrum</text>
</g>
<!-- Node2 -->
<g id="node2" class="node"><title>Node2</title>
<g id="a_node2"><a xlink:href="classcompound_model.html#a3b415a65b71a0db08f189f9c351f9f80" target="_top" xlink:title="compoundModel::getMeanSpectrum">
<polygon fill="white" stroke="black" points="207,-0.5 207,-19.5 380,-19.5 380,-0.5 207,-0.5"/>
<text text-anchor="middle" x="293.5" y="-7.5" font-family="Helvetica,sans-Serif" font-size="10.00">compoundModel::getMeanSpectrum</text>
</a>
</g>
</g>
<!-- Node1&#45;&gt;Node2 -->
<g id="edge1" class="edge"><title>Node1&#45;&gt;Node2</title>
<path fill="none" stroke="midnightblue" d="M181.448,-10C189.908,-10 198.441,-10 206.817,-10"/>
<polygon fill="midnightblue" stroke="midnightblue" points="181.18,-6.5001 171.18,-10 181.18,-13.5001 181.18,-6.5001"/>
</g>
<!-- Node3 -->
<g id="node3" class="node"><title>Node3</title>
<g id="a_node3"><a xlink:href="classcompound_model.html#a0e02676235e30f43e3c574304593706b" target="_top" xlink:title="compoundModel::printHistogram">
<polygon fill="white" stroke="black" points="416,-0.5 416,-19.5 574,-19.5 574,-0.5 416,-0.5"/>
<text text-anchor="middle" x="495" y="-7.5" font-family="Helvetica,sans-Serif" font-size="10.00">compoundModel::printHistogram</text>
</a>
</g>
</g>
<!-- Node2&#45;&gt;Node3 -->
<g id="edge2" class="edge"><title>Node2&#45;&gt;Node3</title>
<path fill="none" stroke="midnightblue" d="M390.292,-10C398.863,-10 407.473,-10 415.868,-10"/>
<polygon fill="midnightblue" stroke="midnightblue" points="390.264,-6.5001 380.264,-10 390.264,-13.5001 390.264,-6.5001"/>
</g>
</g>
</svg>
