<?xml version="1.0" encoding="UTF-8" standalone="no"?>
<!DOCTYPE svg PUBLIC "-//W3C//DTD SVG 1.1//EN"
 "http://www.w3.org/Graphics/SVG/1.1/DTD/svg11.dtd">
<!-- Generated by graphviz version 2.38.0 (20140413.2041)
 -->
<!-- Title: Node::setRightChild Pages: 1 -->
<svg width="1165pt" height="104pt"
 viewBox="0.00 0.00 1165.00 104.00" xmlns="http://www.w3.org/2000/svg" xmlns:xlink="http://www.w3.org/1999/xlink">
<g id="graph0" class="graph" transform="scale(1 1) rotate(0) translate(4 100)">
<title>Node::setRightChild</title>
<polygon fill="white" stroke="none" points="-4,4 -4,-100 1161,-100 1161,4 -4,4"/>
<!-- Node403 -->
<g id="node1" class="node"><title>Node403</title>
<polygon fill="#bfbfbf" stroke="black" points="0,-38.5 0,-57.5 105,-57.5 105,-38.5 0,-38.5"/>
<text text-anchor="middle" x="52.5" y="-45.5" font-family="Helvetica,sans-Serif" font-size="10.00">Node::setRightChild</text>
</g>
<!-- Node404 -->
<g id="node2" class="node"><title>Node404</title>
<g id="a_node2"><a xlink:href="class_r_a_g.html#aa2de492a3df037db29b0e3ccab5251ee" target="_top" xlink:title="RAG::merge">
<polygon fill="white" stroke="black" points="141,-38.5 141,-57.5 212,-57.5 212,-38.5 141,-38.5"/>
<text text-anchor="middle" x="176.5" y="-45.5" font-family="Helvetica,sans-Serif" font-size="10.00">RAG::merge</text>
</a>
</g>
</g>
<!-- Node403&#45;&gt;Node404 -->
<g id="edge1" class="edge"><title>Node403&#45;&gt;Node404</title>
<path fill="none" stroke="midnightblue" d="M115.395,-48C124.072,-48 132.725,-48 140.652,-48"/>
<polygon fill="midnightblue" stroke="midnightblue" points="115.239,-44.5001 105.239,-48 115.239,-51.5001 115.239,-44.5001"/>
</g>
<!-- Node405 -->
<g id="node3" class="node"><title>Node405</title>
<g id="a_node3"><a xlink:href="class_r_a_g.html#ab09eebb1b704d18b583d528e77f7604a" target="_top" xlink:title="RAG::regionMerging">
<polygon fill="white" stroke="black" points="248,-38.5 248,-57.5 353,-57.5 353,-38.5 248,-38.5"/>
<text text-anchor="middle" x="300.5" y="-45.5" font-family="Helvetica,sans-Serif" font-size="10.00">RAG::regionMerging</text>
</a>
</g>
</g>
<!-- Node404&#45;&gt;Node405 -->
<g id="edge2" class="edge"><title>Node404&#45;&gt;Node405</title>
<path fill="none" stroke="midnightblue" d="M222.379,-48C230.69,-48 239.43,-48 247.921,-48"/>
<polygon fill="midnightblue" stroke="midnightblue" points="222.134,-44.5001 212.134,-48 222.134,-51.5001 222.134,-44.5001"/>
</g>
<!-- Node406 -->
<g id="node4" class="node"><title>Node406</title>
<g id="a_node4"><a xlink:href="classimage.html#a12343719e8d96a4bda9c5bd6c035d52a" target="_top" xlink:title="image::mergeBlockX">
<polygon fill="white" stroke="black" points="395,-76.5 395,-95.5 502,-95.5 502,-76.5 395,-76.5"/>
<text text-anchor="middle" x="448.5" y="-83.5" font-family="Helvetica,sans-Serif" font-size="10.00">image::mergeBlockX</text>
</a>
</g>
</g>
<!-- Node405&#45;&gt;Node406 -->
<g id="edge3" class="edge"><title>Node405&#45;&gt;Node406</title>
<path fill="none" stroke="midnightblue" d="M348.036,-60.1121C368.37,-65.4044 391.871,-71.5213 410.923,-76.4799"/>
<polygon fill="midnightblue" stroke="midnightblue" points="348.901,-56.7207 338.342,-57.589 347.138,-63.4951 348.901,-56.7207"/>
</g>
<!-- Node410 -->
<g id="node8" class="node"><title>Node410</title>
<g id="a_node8"><a xlink:href="classimage.html#aa21fc5a07af7528869425e750090b3b8" target="_top" xlink:title="image::mergeBlockY">
<polygon fill="white" stroke="black" points="395,-38.5 395,-57.5 502,-57.5 502,-38.5 395,-38.5"/>
<text text-anchor="middle" x="448.5" y="-45.5" font-family="Helvetica,sans-Serif" font-size="10.00">image::mergeBlockY</text>
</a>
</g>
</g>
<!-- Node405&#45;&gt;Node410 -->
<g id="edge7" class="edge"><title>Node405&#45;&gt;Node410</title>
<path fill="none" stroke="midnightblue" d="M363.631,-48C374.008,-48 384.685,-48 394.797,-48"/>
<polygon fill="midnightblue" stroke="midnightblue" points="363.385,-44.5001 353.385,-48 363.385,-51.5001 363.385,-44.5001"/>
</g>
<!-- Node412 -->
<g id="node10" class="node"><title>Node412</title>
<g id="a_node10"><a xlink:href="classimageblock.html#abcc69a8c00ad79067185c700463f8126" target="_top" xlink:title="imageblock::createBPT">
<polygon fill="white" stroke="black" points="389,-0.5 389,-19.5 508,-19.5 508,-0.5 389,-0.5"/>
<text text-anchor="middle" x="448.5" y="-7.5" font-family="Helvetica,sans-Serif" font-size="10.00">imageblock::createBPT</text>
</a>
</g>
</g>
<!-- Node405&#45;&gt;Node412 -->
<g id="edge10" class="edge"><title>Node405&#45;&gt;Node412</title>
<path fill="none" stroke="midnightblue" d="M348.036,-35.8879C368.37,-30.5956 391.871,-24.4787 410.923,-19.5201"/>
<polygon fill="midnightblue" stroke="midnightblue" points="347.138,-32.5049 338.342,-38.411 348.901,-39.2793 347.138,-32.5049"/>
</g>
<!-- Node407 -->
<g id="node5" class="node"><title>Node407</title>
<g id="a_node5"><a xlink:href="classimage.html#a83026280ad6cc713ec9489ff3bd9776e" target="_top" xlink:title="image::ProcessBoundaryX">
<polygon fill="white" stroke="black" points="713,-76.5 713,-95.5 846,-95.5 846,-76.5 713,-76.5"/>
<text text-anchor="middle" x="779.5" y="-83.5" font-family="Helvetica,sans-Serif" font-size="10.00">image::ProcessBoundaryX</text>
</a>
</g>
</g>
<!-- Node406&#45;&gt;Node407 -->
<g id="edge4" class="edge"><title>Node406&#45;&gt;Node407</title>
<path fill="none" stroke="midnightblue" d="M512.399,-86C569.829,-86 654.414,-86 712.728,-86"/>
<polygon fill="midnightblue" stroke="midnightblue" points="512.36,-82.5001 502.36,-86 512.36,-89.5001 512.36,-82.5001"/>
</g>
<!-- Node408 -->
<g id="node6" class="node"><title>Node408</title>
<g id="a_node6"><a xlink:href="classimage.html#a4689c56b85c46d48ea52f0c9fa13891e" target="_top" xlink:title="image::processing">
<polygon fill="white" stroke="black" points="882,-38.5 882,-57.5 978,-57.5 978,-38.5 882,-38.5"/>
<text text-anchor="middle" x="930" y="-45.5" font-family="Helvetica,sans-Serif" font-size="10.00">image::processing</text>
</a>
</g>
</g>
<!-- Node407&#45;&gt;Node408 -->
<g id="edge5" class="edge"><title>Node407&#45;&gt;Node408</title>
<path fill="none" stroke="midnightblue" d="M827.833,-73.8879C848.515,-68.5956 872.419,-62.4787 891.797,-57.5201"/>
<polygon fill="midnightblue" stroke="midnightblue" points="826.793,-70.5411 817.973,-76.411 828.528,-77.3226 826.793,-70.5411"/>
</g>
<!-- Node409 -->
<g id="node7" class="node"><title>Node409</title>
<g id="a_node7"><a xlink:href="class_main_window.html#a9a45eb9ebe6d27bcd23677d9fbb74dd8" target="_top" xlink:title="MainWindow::on_Go_clicked">
<polygon fill="white" stroke="black" points="1014,-38.5 1014,-57.5 1157,-57.5 1157,-38.5 1014,-38.5"/>
<text text-anchor="middle" x="1085.5" y="-45.5" font-family="Helvetica,sans-Serif" font-size="10.00">MainWindow::on_Go_clicked</text>
</a>
</g>
</g>
<!-- Node408&#45;&gt;Node409 -->
<g id="edge6" class="edge"><title>Node408&#45;&gt;Node409</title>
<path fill="none" stroke="midnightblue" d="M988.583,-48C996.853,-48 1005.44,-48 1013.93,-48"/>
<polygon fill="midnightblue" stroke="midnightblue" points="988.308,-44.5001 978.308,-48 988.308,-51.5001 988.308,-44.5001"/>
</g>
<!-- Node411 -->
<g id="node9" class="node"><title>Node411</title>
<g id="a_node9"><a xlink:href="classimage.html#adf6b8c126649c9a40387f12b5f5f07d5" target="_top" xlink:title="image::ProcessBoundaryY">
<polygon fill="white" stroke="black" points="544,-38.5 544,-57.5 677,-57.5 677,-38.5 544,-38.5"/>
<text text-anchor="middle" x="610.5" y="-45.5" font-family="Helvetica,sans-Serif" font-size="10.00">image::ProcessBoundaryY</text>
</a>
</g>
</g>
<!-- Node410&#45;&gt;Node411 -->
<g id="edge8" class="edge"><title>Node410&#45;&gt;Node411</title>
<path fill="none" stroke="midnightblue" d="M512.486,-48C522.798,-48 533.505,-48 543.879,-48"/>
<polygon fill="midnightblue" stroke="midnightblue" points="512.333,-44.5001 502.333,-48 512.333,-51.5001 512.333,-44.5001"/>
</g>
<!-- Node411&#45;&gt;Node408 -->
<g id="edge9" class="edge"><title>Node411&#45;&gt;Node408</title>
<path fill="none" stroke="midnightblue" d="M687.542,-48C747.982,-48 830.613,-48 881.853,-48"/>
<polygon fill="midnightblue" stroke="midnightblue" points="687.286,-44.5001 677.286,-48 687.286,-51.5001 687.286,-44.5001"/>
</g>
<!-- Node413 -->
<g id="node11" class="node"><title>Node413</title>
<g id="a_node11"><a xlink:href="classimageblock.html#af3b91e3daaa8014af1239f60da6b0bf5" target="_top" xlink:title="imageblock::processing">
<polygon fill="white" stroke="black" points="551,-0.5 551,-19.5 670,-19.5 670,-0.5 551,-0.5"/>
<text text-anchor="middle" x="610.5" y="-7.5" font-family="Helvetica,sans-Serif" font-size="10.00">imageblock::processing</text>
</a>
</g>
</g>
<!-- Node412&#45;&gt;Node413 -->
<g id="edge11" class="edge"><title>Node412&#45;&gt;Node413</title>
<path fill="none" stroke="midnightblue" d="M518.415,-10C529.217,-10 540.294,-10 550.838,-10"/>
<polygon fill="midnightblue" stroke="midnightblue" points="518.17,-6.5001 508.17,-10 518.17,-13.5001 518.17,-6.5001"/>
</g>
<!-- Node414 -->
<g id="node12" class="node"><title>Node414</title>
<g id="a_node12"><a xlink:href="classimage.html#ad5a9d767eca6f9bbb8dcb556527edf4d" target="_top" xlink:title="image::ProcessTiles">
<polygon fill="white" stroke="black" points="726.5,-0.5 726.5,-19.5 832.5,-19.5 832.5,-0.5 726.5,-0.5"/>
<text text-anchor="middle" x="779.5" y="-7.5" font-family="Helvetica,sans-Serif" font-size="10.00">image::ProcessTiles</text>
</a>
</g>
</g>
<!-- Node413&#45;&gt;Node414 -->
<g id="edge12" class="edge"><title>Node413&#45;&gt;Node414</title>
<path fill="none" stroke="midnightblue" d="M680.781,-10C695.994,-10 711.857,-10 726.267,-10"/>
<polygon fill="midnightblue" stroke="midnightblue" points="680.378,-6.5001 670.378,-10 680.378,-13.5001 680.378,-6.5001"/>
</g>
<!-- Node414&#45;&gt;Node408 -->
<g id="edge13" class="edge"><title>Node414&#45;&gt;Node408</title>
<path fill="none" stroke="midnightblue" d="M827.833,-22.1121C848.515,-27.4044 872.419,-33.5213 891.797,-38.4799"/>
<polygon fill="midnightblue" stroke="midnightblue" points="828.528,-18.6774 817.973,-19.589 826.793,-25.4589 828.528,-18.6774"/>
</g>
</g>
</svg>
