<?xml version="1.0" encoding="UTF-8" standalone="no"?>
<!DOCTYPE svg PUBLIC "-//W3C//DTD SVG 1.1//EN"
 "http://www.w3.org/Graphics/SVG/1.1/DTD/svg11.dtd">
<!-- Generated by graphviz version 2.38.0 (20140413.2041)
 -->
<!-- Title: image::saveToDisk Pages: 1 -->
<svg width="732pt" height="66pt"
 viewBox="0.00 0.00 732.00 66.00" xmlns="http://www.w3.org/2000/svg" xmlns:xlink="http://www.w3.org/1999/xlink">
<g id="graph0" class="graph" transform="scale(1 1) rotate(0) translate(4 62)">
<title>image::saveToDisk</title>
<polygon fill="white" stroke="none" points="-4,4 -4,-62 728,-62 728,4 -4,4"/>
<!-- Node1 -->
<g id="node1" class="node"><title>Node1</title>
<polygon fill="#bfbfbf" stroke="black" points="0,-19.5 0,-38.5 101,-38.5 101,-19.5 0,-19.5"/>
<text text-anchor="middle" x="50.5" y="-26.5" font-family="Helvetica,sans-Serif" font-size="10.00">image::saveToDisk</text>
</g>
<!-- Node2 -->
<g id="node2" class="node"><title>Node2</title>
<g id="a_node2"><a xlink:href="classimage.html#a12343719e8d96a4bda9c5bd6c035d52a" target="_top" xlink:title="image::mergeBlockX">
<polygon fill="white" stroke="black" points="137,-38.5 137,-57.5 244,-57.5 244,-38.5 137,-38.5"/>
<text text-anchor="middle" x="190.5" y="-45.5" font-family="Helvetica,sans-Serif" font-size="10.00">image::mergeBlockX</text>
</a>
</g>
</g>
<!-- Node1&#45;&gt;Node2 -->
<g id="edge1" class="edge"><title>Node1&#45;&gt;Node2</title>
<path fill="none" stroke="midnightblue" d="M111.246,-37.2259C119.803,-38.4041 128.554,-39.6089 136.959,-40.7661"/>
<polygon fill="midnightblue" stroke="midnightblue" points="111.705,-33.7562 101.321,-35.8594 110.75,-40.6908 111.705,-33.7562"/>
</g>
<!-- Node6 -->
<g id="node6" class="node"><title>Node6</title>
<g id="a_node6"><a xlink:href="classimage.html#aa21fc5a07af7528869425e750090b3b8" target="_top" xlink:title="image::mergeBlockY">
<polygon fill="white" stroke="black" points="137,-0.5 137,-19.5 244,-19.5 244,-0.5 137,-0.5"/>
<text text-anchor="middle" x="190.5" y="-7.5" font-family="Helvetica,sans-Serif" font-size="10.00">image::mergeBlockY</text>
</a>
</g>
</g>
<!-- Node1&#45;&gt;Node6 -->
<g id="edge5" class="edge"><title>Node1&#45;&gt;Node6</title>
<path fill="none" stroke="midnightblue" d="M111.246,-20.7741C119.803,-19.5959 128.554,-18.3911 136.959,-17.2339"/>
<polygon fill="midnightblue" stroke="midnightblue" points="110.75,-17.3092 101.321,-22.1406 111.705,-24.2438 110.75,-17.3092"/>
</g>
<!-- Node3 -->
<g id="node3" class="node"><title>Node3</title>
<g id="a_node3"><a xlink:href="classimage.html#a83026280ad6cc713ec9489ff3bd9776e" target="_top" xlink:title="image::ProcessBoundaryX">
<polygon fill="white" stroke="black" points="280,-38.5 280,-57.5 413,-57.5 413,-38.5 280,-38.5"/>
<text text-anchor="middle" x="346.5" y="-45.5" font-family="Helvetica,sans-Serif" font-size="10.00">image::ProcessBoundaryX</text>
</a>
</g>
</g>
<!-- Node2&#45;&gt;Node3 -->
<g id="edge2" class="edge"><title>Node2&#45;&gt;Node3</title>
<path fill="none" stroke="midnightblue" d="M254.216,-48C262.656,-48 271.334,-48 279.824,-48"/>
<polygon fill="midnightblue" stroke="midnightblue" points="254.067,-44.5001 244.067,-48 254.067,-51.5001 254.067,-44.5001"/>
</g>
<!-- Node4 -->
<g id="node4" class="node"><title>Node4</title>
<g id="a_node4"><a xlink:href="classimage.html#a4689c56b85c46d48ea52f0c9fa13891e" target="_top" xlink:title="image::processing">
<polygon fill="white" stroke="black" points="449,-19.5 449,-38.5 545,-38.5 545,-19.5 449,-19.5"/>
<text text-anchor="middle" x="497" y="-26.5" font-family="Helvetica,sans-Serif" font-size="10.00">image::processing</text>
</a>
</g>
</g>
<!-- Node3&#45;&gt;Node4 -->
<g id="edge3" class="edge"><title>Node3&#45;&gt;Node4</title>
<path fill="none" stroke="midnightblue" d="M423.207,-38.3136C431.858,-37.2067 440.483,-36.1032 448.612,-35.0631"/>
<polygon fill="midnightblue" stroke="midnightblue" points="422.541,-34.8701 413.067,-39.611 423.43,-41.8135 422.541,-34.8701"/>
</g>
<!-- Node5 -->
<g id="node5" class="node"><title>Node5</title>
<g id="a_node5"><a xlink:href="class_main_window.html#a9a45eb9ebe6d27bcd23677d9fbb74dd8" target="_top" xlink:title="MainWindow::on_Go_clicked">
<polygon fill="white" stroke="black" points="581,-19.5 581,-38.5 724,-38.5 724,-19.5 581,-19.5"/>
<text text-anchor="middle" x="652.5" y="-26.5" font-family="Helvetica,sans-Serif" font-size="10.00">MainWindow::on_Go_clicked</text>
</a>
</g>
</g>
<!-- Node4&#45;&gt;Node5 -->
<g id="edge4" class="edge"><title>Node4&#45;&gt;Node5</title>
<path fill="none" stroke="midnightblue" d="M555.583,-29C563.853,-29 572.441,-29 580.928,-29"/>
<polygon fill="midnightblue" stroke="midnightblue" points="555.308,-25.5001 545.308,-29 555.308,-32.5001 555.308,-25.5001"/>
</g>
<!-- Node7 -->
<g id="node7" class="node"><title>Node7</title>
<g id="a_node7"><a xlink:href="classimage.html#adf6b8c126649c9a40387f12b5f5f07d5" target="_top" xlink:title="image::ProcessBoundaryY">
<polygon fill="white" stroke="black" points="280,-0.5 280,-19.5 413,-19.5 413,-0.5 280,-0.5"/>
<text text-anchor="middle" x="346.5" y="-7.5" font-family="Helvetica,sans-Serif" font-size="10.00">image::ProcessBoundaryY</text>
</a>
</g>
</g>
<!-- Node6&#45;&gt;Node7 -->
<g id="edge6" class="edge"><title>Node6&#45;&gt;Node7</title>
<path fill="none" stroke="midnightblue" d="M254.216,-10C262.656,-10 271.334,-10 279.824,-10"/>
<polygon fill="midnightblue" stroke="midnightblue" points="254.067,-6.5001 244.067,-10 254.067,-13.5001 254.067,-6.5001"/>
</g>
<!-- Node7&#45;&gt;Node4 -->
<g id="edge7" class="edge"><title>Node7&#45;&gt;Node4</title>
<path fill="none" stroke="midnightblue" d="M423.207,-19.6864C431.858,-20.7933 440.483,-21.8968 448.612,-22.9369"/>
<polygon fill="midnightblue" stroke="midnightblue" points="423.43,-16.1865 413.067,-18.389 422.541,-23.1299 423.43,-16.1865"/>
</g>
</g>
</svg>
