<?xml version="1.0" encoding="UTF-8" standalone="no"?>
<!DOCTYPE svg PUBLIC "-//W3C//DTD SVG 1.1//EN"
 "http://www.w3.org/Graphics/SVG/1.1/DTD/svg11.dtd">
<!-- Generated by graphviz version 2.38.0 (20140413.2041)
 -->
<!-- Title: imageblock::InitializeRag Pages: 1 -->
<svg width="742pt" height="28pt"
 viewBox="0.00 0.00 742.00 28.00" xmlns="http://www.w3.org/2000/svg" xmlns:xlink="http://www.w3.org/1999/xlink">
<g id="graph0" class="graph" transform="scale(1 1) rotate(0) translate(4 24)">
<title>imageblock::InitializeRag</title>
<polygon fill="white" stroke="none" points="-4,4 -4,-24 738,-24 738,4 -4,4"/>
<!-- Node56 -->
<g id="node1" class="node"><title>Node56</title>
<polygon fill="#bfbfbf" stroke="black" points="0,-0.5 0,-19.5 126,-19.5 126,-0.5 0,-0.5"/>
<text text-anchor="middle" x="63" y="-7.5" font-family="Helvetica,sans-Serif" font-size="10.00">imageblock::InitializeRag</text>
</g>
<!-- Node57 -->
<g id="node2" class="node"><title>Node57</title>
<g id="a_node2"><a xlink:href="classimageblock.html#af3b91e3daaa8014af1239f60da6b0bf5" target="_top" xlink:title="imageblock::processing">
<polygon fill="white" stroke="black" points="162,-0.5 162,-19.5 281,-19.5 281,-0.5 162,-0.5"/>
<text text-anchor="middle" x="221.5" y="-7.5" font-family="Helvetica,sans-Serif" font-size="10.00">imageblock::processing</text>
</a>
</g>
</g>
<!-- Node56&#45;&gt;Node57 -->
<g id="edge1" class="edge"><title>Node56&#45;&gt;Node57</title>
<path fill="none" stroke="midnightblue" d="M136.322,-10C144.916,-10 153.605,-10 161.973,-10"/>
<polygon fill="midnightblue" stroke="midnightblue" points="136.303,-6.5001 126.303,-10 136.303,-13.5001 136.303,-6.5001"/>
</g>
<!-- Node58 -->
<g id="node3" class="node"><title>Node58</title>
<g id="a_node3"><a xlink:href="classimage.html#ad5a9d767eca6f9bbb8dcb556527edf4d" target="_top" xlink:title="image::ProcessTiles">
<polygon fill="white" stroke="black" points="317,-0.5 317,-19.5 423,-19.5 423,-0.5 317,-0.5"/>
<text text-anchor="middle" x="370" y="-7.5" font-family="Helvetica,sans-Serif" font-size="10.00">image::ProcessTiles</text>
</a>
</g>
</g>
<!-- Node57&#45;&gt;Node58 -->
<g id="edge2" class="edge"><title>Node57&#45;&gt;Node58</title>
<path fill="none" stroke="midnightblue" d="M291.279,-10C299.884,-10 308.573,-10 316.866,-10"/>
<polygon fill="midnightblue" stroke="midnightblue" points="291.243,-6.5001 281.243,-10 291.243,-13.5001 291.243,-6.5001"/>
</g>
<!-- Node59 -->
<g id="node4" class="node"><title>Node59</title>
<g id="a_node4"><a xlink:href="classimage.html#a4689c56b85c46d48ea52f0c9fa13891e" target="_top" xlink:title="image::processing">
<polygon fill="white" stroke="black" points="459,-0.5 459,-19.5 555,-19.5 555,-0.5 459,-0.5"/>
<text text-anchor="middle" x="507" y="-7.5" font-family="Helvetica,sans-Serif" font-size="10.00">image::processing</text>
</a>
</g>
</g>
<!-- Node58&#45;&gt;Node59 -->
<g id="edge3" class="edge"><title>Node58&#45;&gt;Node59</title>
<path fill="none" stroke="midnightblue" d="M433.206,-10C441.809,-10 450.527,-10 458.797,-10"/>
<polygon fill="midnightblue" stroke="midnightblue" points="433.195,-6.5001 423.195,-10 433.194,-13.5001 433.195,-6.5001"/>
</g>
<!-- Node60 -->
<g id="node5" class="node"><title>Node60</title>
<g id="a_node5"><a xlink:href="class_main_window.html#a9a45eb9ebe6d27bcd23677d9fbb74dd8" target="_top" xlink:title="MainWindow::on_Go_clicked">
<polygon fill="white" stroke="black" points="591,-0.5 591,-19.5 734,-19.5 734,-0.5 591,-0.5"/>
<text text-anchor="middle" x="662.5" y="-7.5" font-family="Helvetica,sans-Serif" font-size="10.00">MainWindow::on_Go_clicked</text>
</a>
</g>
</g>
<!-- Node59&#45;&gt;Node60 -->
<g id="edge4" class="edge"><title>Node59&#45;&gt;Node60</title>
<path fill="none" stroke="midnightblue" d="M565.583,-10C573.853,-10 582.441,-10 590.928,-10"/>
<polygon fill="midnightblue" stroke="midnightblue" points="565.308,-6.5001 555.308,-10 565.308,-13.5001 565.308,-6.5001"/>
</g>
</g>
</svg>
