<?xml version="1.0" encoding="UTF-8" standalone="no"?>
<!DOCTYPE svg PUBLIC "-//W3C//DTD SVG 1.1//EN"
 "http://www.w3.org/Graphics/SVG/1.1/DTD/svg11.dtd">
<!-- Generated by graphviz version 2.38.0 (20140413.2041)
 -->
<!-- Title: histogramModel Pages: 1 -->
<svg width="217pt" height="108pt"
 viewBox="0.00 0.00 217.00 108.00" xmlns="http://www.w3.org/2000/svg" xmlns:xlink="http://www.w3.org/1999/xlink">
<g id="graph0" class="graph" transform="scale(1 1) rotate(0) translate(4 104)">
<title>histogramModel</title>
<polygon fill="white" stroke="none" points="-4,4 -4,-104 213,-104 213,4 -4,4"/>
<!-- Node2 -->
<g id="node1" class="node"><title>Node2</title>
<polygon fill="#bfbfbf" stroke="black" points="0,-7 0,-26 86,-26 86,-7 0,-7"/>
<text text-anchor="middle" x="43" y="-14" font-family="Helvetica,sans-Serif" font-size="10.00">histogramModel</text>
</g>
<!-- Node3 -->
<g id="node2" class="node"><title>Node3</title>
<g id="a_node2"><a xlink:href="classregion_model.html" target="_top" xlink:title="regionModel">
<polygon fill="white" stroke="black" points="41.5,-80.5 41.5,-99.5 110.5,-99.5 110.5,-80.5 41.5,-80.5"/>
<text text-anchor="middle" x="76" y="-87.5" font-family="Helvetica,sans-Serif" font-size="10.00">regionModel</text>
</a>
</g>
</g>
<!-- Node3&#45;&gt;Node2 -->
<g id="edge1" class="edge"><title>Node3&#45;&gt;Node2</title>
<path fill="none" stroke="midnightblue" d="M62.9072,-72.0629C60.7508,-68.8288 58.6761,-65.3914 57,-62 51.1869,-50.2376 47.1247,-35.5419 44.9253,-26.3356"/>
<polygon fill="midnightblue" stroke="midnightblue" points="60.2524,-74.3656 68.9379,-80.433 65.9318,-70.2735 60.2524,-74.3656"/>
</g>
<!-- Node4 -->
<g id="node3" class="node"><title>Node4</title>
<g id="a_node3"><a xlink:href="class_node.html" target="_top" xlink:title="Node">
<polygon fill="white" stroke="black" points="106,-7 106,-26 146,-26 146,-7 106,-7"/>
<text text-anchor="middle" x="126" y="-14" font-family="Helvetica,sans-Serif" font-size="10.00">Node</text>
</a>
</g>
</g>
<!-- Node3&#45;&gt;Node4 -->
<g id="edge4" class="edge"><title>Node3&#45;&gt;Node4</title>
<path fill="none" stroke="#9a32cd" stroke-dasharray="5,2" d="M70.4565,-70.3101C69.5661,-63.8537 69.8086,-56.7927 73,-51 76.9921,-43.754 94.9281,-33.3026 108.842,-26.0067"/>
<polygon fill="#9a32cd" stroke="#9a32cd" points="67.0894,-71.2893 72.7039,-80.2741 73.9178,-69.7491 67.0894,-71.2893"/>
<text text-anchor="middle" x="88" y="-54" font-family="Helvetica,sans-Serif" font-size="10.00"> model</text>
</g>
<!-- Node4&#45;&gt;Node3 -->
<g id="edge2" class="edge"><title>Node4&#45;&gt;Node3</title>
<path fill="none" stroke="#9a32cd" stroke-dasharray="5,2" d="M120.255,-35.9498C117.118,-44.3612 112.698,-54.1665 107,-62 101.878,-69.0414 94.5974,-75.5034 88.3789,-80.3392"/>
<polygon fill="#9a32cd" stroke="#9a32cd" points="123.633,-36.8887 123.542,-26.2942 117.006,-34.6327 123.633,-36.8887"/>
<text text-anchor="middle" x="125.5" y="-54" font-family="Helvetica,sans-Serif" font-size="10.00"> node</text>
</g>
<!-- Node4&#45;&gt;Node4 -->
<g id="edge3" class="edge"><title>Node4&#45;&gt;Node4</title>
<path fill="none" stroke="#9a32cd" stroke-dasharray="5,2" d="M156.416,-23.3026C160.94,-22.2429 164,-19.9753 164,-16.5 164,-10.7969 155.76,-8.34631 146.329,-9.14832"/>
<polygon fill="#9a32cd" stroke="#9a32cd" points="156.124,-19.8132 146.329,-23.8517 156.505,-26.8029 156.124,-19.8132"/>
<text text-anchor="middle" x="186.5" y="-25" font-family="Helvetica,sans-Serif" font-size="10.00"> rightChild</text>
<text text-anchor="middle" x="186.5" y="-14" font-family="Helvetica,sans-Serif" font-size="10.00">parent</text>
<text text-anchor="middle" x="186.5" y="-3" font-family="Helvetica,sans-Serif" font-size="10.00">leftChild</text>
</g>
</g>
</svg>
