<?xml version="1.0" encoding="UTF-8" standalone="no"?>
<!DOCTYPE svg PUBLIC "-//W3C//DTD SVG 1.1//EN"
 "http://www.w3.org/Graphics/SVG/1.1/DTD/svg11.dtd">
<!-- Generated by graphviz version 2.38.0 (20140413.2041)
 -->
<!-- Title: regionModel::setArea Pages: 1 -->
<svg width="603pt" height="297pt"
 viewBox="0.00 0.00 603.00 296.99" xmlns="http://www.w3.org/2000/svg" xmlns:xlink="http://www.w3.org/1999/xlink">
<g id="graph0" class="graph" transform="scale(1 1) rotate(0) translate(4 292.994)">
<title>regionModel::setArea</title>
<polygon fill="white" stroke="none" points="-4,4 -4,-292.994 599,-292.994 599,4 -4,4"/>
<!-- Node103 -->
<g id="node1" class="node"><title>Node103</title>
<polygon fill="#bfbfbf" stroke="black" points="0,-126.095 0,-145.095 109,-145.095 109,-126.095 0,-126.095"/>
<text text-anchor="middle" x="54.5" y="-133.095" font-family="Helvetica,sans-Serif" font-size="10.00">regionModel::setArea</text>
</g>
<!-- Node104 -->
<g id="node2" class="node"><title>Node104</title>
<g id="a_node2"><a xlink:href="classprobability_model.html#a4ba6e94c137bb251c4148a7c254ef337" target="_top" xlink:title="probabilityModel::clone">
<polygon fill="white" stroke="black" points="320,-84.095 320,-103.095 436,-103.095 436,-84.095 320,-84.095"/>
<text text-anchor="middle" x="378" y="-91.095" font-family="Helvetica,sans-Serif" font-size="10.00">probabilityModel::clone</text>
</a>
</g>
</g>
<!-- Node103&#45;&gt;Node104 -->
<g id="edge1" class="edge"><title>Node103&#45;&gt;Node104</title>
<path fill="none" stroke="midnightblue" d="M119.532,-127.23C177.969,-119.596 263.55,-108.416 319.757,-101.073"/>
<polygon fill="midnightblue" stroke="midnightblue" points="118.774,-123.799 109.312,-128.565 119.681,-130.74 118.774,-123.799"/>
</g>
<!-- Node105 -->
<g id="node3" class="node"><title>Node105</title>
<g id="a_node3"><a xlink:href="classcompound_model.html#abcb9db15611b3866feebf88f0d2fdff8" target="_top" xlink:title="compoundModel::clone">
<polygon fill="white" stroke="black" points="476,-252.095 476,-271.095 593,-271.095 593,-252.095 476,-252.095"/>
<text text-anchor="middle" x="534.5" y="-259.095" font-family="Helvetica,sans-Serif" font-size="10.00">compoundModel::clone</text>
</a>
</g>
</g>
<!-- Node103&#45;&gt;Node105 -->
<g id="edge2" class="edge"><title>Node103&#45;&gt;Node105</title>
<path fill="none" stroke="midnightblue" d="M64.0718,-154.514C77.2353,-181.063 105.154,-228.483 145,-249.595 259.336,-310.175 420.354,-286.736 493.975,-271.154"/>
<polygon fill="midnightblue" stroke="midnightblue" points="67.075,-152.68 59.6162,-145.156 60.7547,-155.689 67.075,-152.68"/>
</g>
<!-- Node106 -->
<g id="node4" class="node"><title>Node106</title>
<g id="a_node4"><a xlink:href="classhistogram_model.html#a774070ff631cfdcf92731cef69088099" target="_top" xlink:title="histogramModel::clone">
<polygon fill="white" stroke="black" points="320.5,-233.095 320.5,-252.095 435.5,-252.095 435.5,-233.095 320.5,-233.095"/>
<text text-anchor="middle" x="378" y="-240.095" font-family="Helvetica,sans-Serif" font-size="10.00">histogramModel::clone</text>
</a>
</g>
</g>
<!-- Node103&#45;&gt;Node106 -->
<g id="edge3" class="edge"><title>Node103&#45;&gt;Node106</title>
<path fill="none" stroke="midnightblue" d="M67.6483,-153.546C82.9476,-174.483 111.344,-208.187 145,-223.595 200.669,-249.081 271.7,-251.056 320.415,-248.422"/>
<polygon fill="midnightblue" stroke="midnightblue" points="70.3725,-151.336 61.7422,-145.19 64.6564,-155.377 70.3725,-151.336"/>
</g>
<!-- Node107 -->
<g id="node5" class="node"><title>Node107</title>
<g id="a_node5"><a xlink:href="classhistogram_model.html#a165ed6726e5911b4332e687618f10a05" target="_top" xlink:title="histogramModel::histogram\lModel">
<polygon fill="white" stroke="black" points="146.5,-183.595 146.5,-213.595 280.5,-213.595 280.5,-183.595 146.5,-183.595"/>
<text text-anchor="start" x="154.5" y="-201.595" font-family="Helvetica,sans-Serif" font-size="10.00">histogramModel::histogram</text>
<text text-anchor="middle" x="213.5" y="-190.595" font-family="Helvetica,sans-Serif" font-size="10.00">Model</text>
</a>
</g>
</g>
<!-- Node103&#45;&gt;Node107 -->
<g id="edge5" class="edge"><title>Node103&#45;&gt;Node107</title>
<path fill="none" stroke="midnightblue" d="M88.8537,-148.979C114.088,-159.105 148.752,-173.015 174.957,-183.53"/>
<polygon fill="midnightblue" stroke="midnightblue" points="89.9291,-145.639 79.3449,-145.163 87.3222,-152.136 89.9291,-145.639"/>
</g>
<!-- Node108 -->
<g id="node6" class="node"><title>Node108</title>
<g id="a_node6"><a xlink:href="classhistogram_model.html#a2a84442dd0292f62b6ef0b35ea033790" target="_top" xlink:title="histogramModel::merge">
<polygon fill="white" stroke="black" points="318.5,-145.095 318.5,-164.095 437.5,-164.095 437.5,-145.095 318.5,-145.095"/>
<text text-anchor="middle" x="378" y="-152.095" font-family="Helvetica,sans-Serif" font-size="10.00">histogramModel::merge</text>
</a>
</g>
</g>
<!-- Node103&#45;&gt;Node108 -->
<g id="edge12" class="edge"><title>Node103&#45;&gt;Node108</title>
<path fill="none" stroke="midnightblue" d="M119.451,-139.374C177.415,-142.8 262.135,-147.807 318.38,-151.131"/>
<polygon fill="midnightblue" stroke="midnightblue" points="119.501,-135.871 109.312,-138.775 119.088,-142.859 119.501,-135.871"/>
</g>
<!-- Node109 -->
<g id="node7" class="node"><title>Node109</title>
<g id="a_node7"><a xlink:href="classcompound_model.html#a3a4f1be5ccd6230918036dcc56328033" target="_top" xlink:title="compoundModel::merge">
<polygon fill="white" stroke="black" points="474,-43.095 474,-62.095 595,-62.095 595,-43.095 474,-43.095"/>
<text text-anchor="middle" x="534.5" y="-50.095" font-family="Helvetica,sans-Serif" font-size="10.00">compoundModel::merge</text>
</a>
</g>
</g>
<!-- Node103&#45;&gt;Node109 -->
<g id="edge11" class="edge"><title>Node103&#45;&gt;Node109</title>
<path fill="none" stroke="midnightblue" d="M64.3639,-116.904C77.7227,-91.211 105.699,-46.0681 145,-27.595 270.393,31.3452 444.087,-20.1423 508.317,-42.9961"/>
<polygon fill="midnightblue" stroke="midnightblue" points="61.1584,-115.489 59.8244,-125.999 67.4217,-118.615 61.1584,-115.489"/>
</g>
<!-- Node110 -->
<g id="node8" class="node"><title>Node110</title>
<g id="a_node8"><a xlink:href="classprobability_model.html#a1d238fa939658901dc69099d4c350637" target="_top" xlink:title="probabilityModel::merge">
<polygon fill="white" stroke="black" points="318,-43.095 318,-62.095 438,-62.095 438,-43.095 318,-43.095"/>
<text text-anchor="middle" x="378" y="-50.095" font-family="Helvetica,sans-Serif" font-size="10.00">probabilityModel::merge</text>
</a>
</g>
</g>
<!-- Node103&#45;&gt;Node110 -->
<g id="edge9" class="edge"><title>Node103&#45;&gt;Node110</title>
<path fill="none" stroke="midnightblue" d="M67.2129,-117.501C82.2539,-96.1246 110.568,-61.6873 145,-47.595 209.504,-21.1956 292.776,-32.76 339.993,-43.0339"/>
<polygon fill="midnightblue" stroke="midnightblue" points="64.1481,-115.785 61.4306,-126.025 69.9409,-119.714 64.1481,-115.785"/>
</g>
<!-- Node111 -->
<g id="node9" class="node"><title>Node111</title>
<g id="a_node9"><a xlink:href="classprobability_model.html#ac2356304ead700ea3b440261149b57cc" target="_top" xlink:title="probabilityModel::probability\lModel">
<polygon fill="white" stroke="black" points="145,-57.595 145,-87.595 282,-87.595 282,-57.595 145,-57.595"/>
<text text-anchor="start" x="153" y="-75.595" font-family="Helvetica,sans-Serif" font-size="10.00">probabilityModel::probability</text>
<text text-anchor="middle" x="213.5" y="-64.595" font-family="Helvetica,sans-Serif" font-size="10.00">Model</text>
</a>
</g>
</g>
<!-- Node103&#45;&gt;Node111 -->
<g id="edge13" class="edge"><title>Node103&#45;&gt;Node111</title>
<path fill="none" stroke="midnightblue" d="M88.8537,-122.211C114.088,-112.085 148.752,-98.1756 174.957,-87.6601"/>
<polygon fill="midnightblue" stroke="midnightblue" points="87.3222,-119.054 79.3449,-126.027 89.9291,-125.551 87.3222,-119.054"/>
</g>
<!-- Node106&#45;&gt;Node105 -->
<g id="edge4" class="edge"><title>Node106&#45;&gt;Node105</title>
<path fill="none" stroke="midnightblue" d="M445.604,-250.786C455.664,-252.023 465.968,-253.29 475.819,-254.502"/>
<polygon fill="midnightblue" stroke="midnightblue" points="446.005,-247.309 435.653,-249.562 445.151,-254.257 446.005,-247.309"/>
</g>
<!-- Node107&#45;&gt;Node106 -->
<g id="edge6" class="edge"><title>Node107&#45;&gt;Node106</title>
<path fill="none" stroke="midnightblue" d="M279.858,-216.292C300.958,-222.005 323.546,-228.121 341.626,-233.017"/>
<polygon fill="midnightblue" stroke="midnightblue" points="280.536,-212.85 269.969,-213.614 278.706,-219.606 280.536,-212.85"/>
</g>
<!-- Node107&#45;&gt;Node108 -->
<g id="edge7" class="edge"><title>Node107&#45;&gt;Node108</title>
<path fill="none" stroke="midnightblue" d="M279.858,-180.898C300.958,-175.185 323.546,-169.069 341.626,-164.173"/>
<polygon fill="midnightblue" stroke="midnightblue" points="278.706,-177.584 269.969,-183.576 280.536,-184.34 278.706,-177.584"/>
</g>
<!-- Node108&#45;&gt;Node109 -->
<g id="edge8" class="edge"><title>Node108&#45;&gt;Node109</title>
<path fill="none" stroke="midnightblue" d="M401.899,-139.478C434.122,-118.204 491.919,-80.0467 518.891,-62.2397"/>
<polygon fill="midnightblue" stroke="midnightblue" points="399.952,-136.569 393.535,-144.999 403.809,-142.41 399.952,-136.569"/>
</g>
<!-- Node110&#45;&gt;Node109 -->
<g id="edge10" class="edge"><title>Node110&#45;&gt;Node109</title>
<path fill="none" stroke="midnightblue" d="M448.519,-52.595C456.977,-52.595 465.56,-52.595 473.856,-52.595"/>
<polygon fill="midnightblue" stroke="midnightblue" points="448.292,-49.0951 438.292,-52.595 448.292,-56.0951 448.292,-49.0951"/>
</g>
<!-- Node111&#45;&gt;Node104 -->
<g id="edge14" class="edge"><title>Node111&#45;&gt;Node104</title>
<path fill="none" stroke="midnightblue" d="M292.081,-82.6209C301.414,-83.827 310.812,-85.0415 319.78,-86.2004"/>
<polygon fill="midnightblue" stroke="midnightblue" points="292.369,-79.1291 282.003,-81.3185 291.472,-86.0714 292.369,-79.1291"/>
</g>
<!-- Node111&#45;&gt;Node110 -->
<g id="edge15" class="edge"><title>Node111&#45;&gt;Node110</title>
<path fill="none" stroke="midnightblue" d="M292.156,-63.0374C300.846,-61.9678 309.592,-60.8914 317.994,-59.8574"/>
<polygon fill="midnightblue" stroke="midnightblue" points="291.5,-59.5916 282.003,-64.287 292.356,-66.5391 291.5,-59.5916"/>
</g>
</g>
</svg>
