<?xml version="1.0" encoding="UTF-8" standalone="no"?>
<!DOCTYPE svg PUBLIC "-//W3C//DTD SVG 1.1//EN"
 "http://www.w3.org/Graphics/SVG/1.1/DTD/svg11.dtd">
<!-- Generated by graphviz version 2.38.0 (20140413.2041)
 -->
<!-- Title: Node::getBoarderIndexX Pages: 1 -->
<!--zoomable 208 -->
<svg id="main" version="1.1" xmlns="http://www.w3.org/2000/svg" xmlns:xlink="http://www.w3.org/1999/xlink" xml:space="preserve" onload="init(evt)">
<style type="text/css"><![CDATA[
.edge:hover path { stroke: red; }
.edge:hover polygon { stroke: red; fill: red; }
]]></style>
<script type="text/javascript"><![CDATA[
var edges = document.getElementsByTagName('g');
if (edges && edges.length) {
  for (var i=0;i<edges.length;i++) {
    if (edges[i].id.substr(0,4)=='edge') {
      edges[i].setAttribute('class','edge');
    }
  }
}
]]></script>
        <defs>
                <circle id="rim" cx="0" cy="0" r="7"/>
                <circle id="rim2" cx="0" cy="0" r="3.5"/>
                <g id="zoomPlus">
                        <use xlink:href="#rim" fill="#404040">
                                <set attributeName="fill" to="#808080" begin="zoomplus.mouseover" end="zoomplus.mouseout"/>
                        </use>
                        <path d="M-4,0h8M0,-4v8" fill="none" stroke="white" stroke-width="1.5" pointer-events="none"/>
                </g>
                <g id="zoomMin">
                        <use xlink:href="#rim" fill="#404040">
                                <set attributeName="fill" to="#808080" begin="zoomminus.mouseover" end="zoomminus.mouseout"/>
                        </use>
                        <path d="M-4,0h8" fill="none" stroke="white" stroke-width="1.5" pointer-events="none"/>
                </g>
                <g id="dirArrow">
                        <path fill="none" stroke="white" stroke-width="1.5" d="M0,-3.0v7 M-2.5,-0.5L0,-3.0L2.5,-0.5"/>
                </g>
               <g id="resetDef">
                       <use xlink:href="#rim2" fill="#404040">
                               <set attributeName="fill" to="#808080" begin="reset.mouseover" end="reset.mouseout"/>
                       </use>
               </g>
        </defs>

<script type="text/javascript">
var viewWidth = 1309;
var viewHeight = 208;
var sectionId = 'dynsection-4';
</script>
<script xlink:href="svgpan.js"/>
<svg id="graph" class="graph">
<g id="viewport">
<title>Node::getBoarderIndexX</title>
<polygon fill="white" stroke="none" points="-4,4 -4,-204 1305,-204 1305,4 -4,4"/>
<!-- Node46 -->
<g id="node1" class="node"><title>Node46</title>
<polygon fill="#bfbfbf" stroke="black" points="0,-75.5 0,-94.5 124,-94.5 124,-75.5 0,-75.5"/>
<text text-anchor="middle" x="62" y="-82.5" font-family="Helvetica,sans-Serif" font-size="10.00">Node::getBoarderIndexX</text>
</g>
<!-- Node47 -->
<g id="node2" class="node"><title>Node47</title>
<g id="a_node2"><a xlink:href="class_r_a_g.html#aa2de492a3df037db29b0e3ccab5251ee" target="_top" xlink:title="RAG::merge">
<polygon fill="white" stroke="black" points="194.5,-104.5 194.5,-123.5 265.5,-123.5 265.5,-104.5 194.5,-104.5"/>
<text text-anchor="middle" x="230" y="-111.5" font-family="Helvetica,sans-Serif" font-size="10.00">RAG::merge</text>
</a>
</g>
</g>
<!-- Node46&#45;&gt;Node47 -->
<g id="edge1" class="edge"><title>Node46&#45;&gt;Node47</title>
<path fill="none" stroke="midnightblue" d="M127.701,-96.3032C150.304,-100.252 174.812,-104.534 194.06,-107.896"/>
<polygon fill="midnightblue" stroke="midnightblue" points="128.268,-92.8493 117.815,-94.5761 127.063,-99.7448 128.268,-92.8493"/>
</g>
<!-- Node58 -->
<g id="node13" class="node"><title>Node58</title>
<g id="a_node13"><a xlink:href="classio.html#a4cca3fdf98e917cac1b3e776c7634aec" target="_top" xlink:title="io::writeBoarderNodeToCSV">
<polygon fill="white" stroke="black" points="160,-47.5 160,-66.5 300,-66.5 300,-47.5 160,-47.5"/>
<text text-anchor="middle" x="230" y="-54.5" font-family="Helvetica,sans-Serif" font-size="10.00">io::writeBoarderNodeToCSV</text>
</a>
</g>
</g>
<!-- Node46&#45;&gt;Node58 -->
<g id="edge14" class="edge"><title>Node46&#45;&gt;Node58</title>
<path fill="none" stroke="midnightblue" d="M129.845,-73.7249C144.02,-71.3339 158.85,-68.8326 172.592,-66.5146"/>
<polygon fill="midnightblue" stroke="midnightblue" points="128.942,-70.3277 119.663,-75.4423 130.106,-77.2302 128.942,-70.3277"/>
</g>
<!-- Node48 -->
<g id="node3" class="node"><title>Node48</title>
<g id="a_node3"><a xlink:href="class_r_a_g.html#ab09eebb1b704d18b583d528e77f7604a" target="_top" xlink:title="RAG::regionMerging">
<polygon fill="white" stroke="black" points="361,-133.5 361,-152.5 466,-152.5 466,-133.5 361,-133.5"/>
<text text-anchor="middle" x="413.5" y="-140.5" font-family="Helvetica,sans-Serif" font-size="10.00">RAG::regionMerging</text>
</a>
</g>
</g>
<!-- Node47&#45;&gt;Node48 -->
<g id="edge2" class="edge"><title>Node47&#45;&gt;Node48</title>
<path fill="none" stroke="midnightblue" d="M275.459,-121.104C301.283,-125.23 333.935,-130.447 360.89,-134.754"/>
<polygon fill="midnightblue" stroke="midnightblue" points="275.993,-117.645 265.566,-119.523 274.888,-124.557 275.993,-117.645"/>
</g>
<!-- Node49 -->
<g id="node4" class="node"><title>Node49</title>
<g id="a_node4"><a xlink:href="classimage.html#a12343719e8d96a4bda9c5bd6c035d52a" target="_top" xlink:title="image::mergeBlockX">
<polygon fill="white" stroke="black" points="536,-180.5 536,-199.5 643,-199.5 643,-180.5 536,-180.5"/>
<text text-anchor="middle" x="589.5" y="-187.5" font-family="Helvetica,sans-Serif" font-size="10.00">image::mergeBlockX</text>
</a>
</g>
</g>
<!-- Node48&#45;&gt;Node49 -->
<g id="edge3" class="edge"><title>Node48&#45;&gt;Node49</title>
<path fill="none" stroke="midnightblue" d="M459.635,-155.192C488.744,-163.055 526.064,-173.135 553.043,-180.422"/>
<polygon fill="midnightblue" stroke="midnightblue" points="460.278,-151.74 449.711,-152.511 458.453,-158.498 460.278,-151.74"/>
</g>
<!-- Node53 -->
<g id="node8" class="node"><title>Node53</title>
<g id="a_node8"><a xlink:href="classimage.html#aa21fc5a07af7528869425e750090b3b8" target="_top" xlink:title="image::mergeBlockY">
<polygon fill="white" stroke="black" points="536,-142.5 536,-161.5 643,-161.5 643,-142.5 536,-142.5"/>
<text text-anchor="middle" x="589.5" y="-149.5" font-family="Helvetica,sans-Serif" font-size="10.00">image::mergeBlockY</text>
</a>
</g>
</g>
<!-- Node48&#45;&gt;Node53 -->
<g id="edge7" class="edge"><title>Node48&#45;&gt;Node53</title>
<path fill="none" stroke="midnightblue" d="M476.487,-146.206C495.874,-147.209 517.072,-148.305 535.76,-149.272"/>
<polygon fill="midnightblue" stroke="midnightblue" points="476.402,-142.697 466.235,-145.676 476.04,-149.688 476.402,-142.697"/>
</g>
<!-- Node55 -->
<g id="node10" class="node"><title>Node55</title>
<g id="a_node10"><a xlink:href="classimageblock.html#abcc69a8c00ad79067185c700463f8126" target="_top" xlink:title="imageblock::createBPT">
<polygon fill="white" stroke="black" points="530,-104.5 530,-123.5 649,-123.5 649,-104.5 530,-104.5"/>
<text text-anchor="middle" x="589.5" y="-111.5" font-family="Helvetica,sans-Serif" font-size="10.00">imageblock::createBPT</text>
</a>
</g>
</g>
<!-- Node48&#45;&gt;Node55 -->
<g id="edge10" class="edge"><title>Node48&#45;&gt;Node55</title>
<path fill="none" stroke="midnightblue" d="M476.321,-132.697C494.291,-129.701 513.831,-126.445 531.491,-123.501"/>
<polygon fill="midnightblue" stroke="midnightblue" points="475.523,-129.281 466.235,-134.378 476.674,-136.186 475.523,-129.281"/>
</g>
<!-- Node50 -->
<g id="node5" class="node"><title>Node50</title>
<g id="a_node5"><a xlink:href="classimage.html#a83026280ad6cc713ec9489ff3bd9776e" target="_top" xlink:title="image::ProcessBoundaryX">
<polygon fill="white" stroke="black" points="857,-180.5 857,-199.5 990,-199.5 990,-180.5 857,-180.5"/>
<text text-anchor="middle" x="923.5" y="-187.5" font-family="Helvetica,sans-Serif" font-size="10.00">image::ProcessBoundaryX</text>
</a>
</g>
</g>
<!-- Node49&#45;&gt;Node50 -->
<g id="edge4" class="edge"><title>Node49&#45;&gt;Node50</title>
<path fill="none" stroke="midnightblue" d="M653.267,-190C711.423,-190 797.612,-190 856.715,-190"/>
<polygon fill="midnightblue" stroke="midnightblue" points="653.106,-186.5 643.106,-190 653.106,-193.5 653.106,-186.5"/>
</g>
<!-- Node51 -->
<g id="node6" class="node"><title>Node51</title>
<g id="a_node6"><a xlink:href="classimage.html#a4689c56b85c46d48ea52f0c9fa13891e" target="_top" xlink:title="image::processing">
<polygon fill="white" stroke="black" points="1026,-142.5 1026,-161.5 1122,-161.5 1122,-142.5 1026,-142.5"/>
<text text-anchor="middle" x="1074" y="-149.5" font-family="Helvetica,sans-Serif" font-size="10.00">image::processing</text>
</a>
</g>
</g>
<!-- Node50&#45;&gt;Node51 -->
<g id="edge5" class="edge"><title>Node50&#45;&gt;Node51</title>
<path fill="none" stroke="midnightblue" d="M971.833,-177.888C992.515,-172.596 1016.42,-166.479 1035.8,-161.52"/>
<polygon fill="midnightblue" stroke="midnightblue" points="970.793,-174.541 961.973,-180.411 972.528,-181.323 970.793,-174.541"/>
</g>
<!-- Node52 -->
<g id="node7" class="node"><title>Node52</title>
<g id="a_node7"><a xlink:href="class_main_window.html#a9a45eb9ebe6d27bcd23677d9fbb74dd8" target="_top" xlink:title="MainWindow::on_Go_clicked">
<polygon fill="white" stroke="black" points="1158,-142.5 1158,-161.5 1301,-161.5 1301,-142.5 1158,-142.5"/>
<text text-anchor="middle" x="1229.5" y="-149.5" font-family="Helvetica,sans-Serif" font-size="10.00">MainWindow::on_Go_clicked</text>
</a>
</g>
</g>
<!-- Node51&#45;&gt;Node52 -->
<g id="edge6" class="edge"><title>Node51&#45;&gt;Node52</title>
<path fill="none" stroke="midnightblue" d="M1132.58,-152C1140.85,-152 1149.44,-152 1157.93,-152"/>
<polygon fill="midnightblue" stroke="midnightblue" points="1132.31,-148.5 1122.31,-152 1132.31,-155.5 1132.31,-148.5"/>
</g>
<!-- Node54 -->
<g id="node9" class="node"><title>Node54</title>
<g id="a_node9"><a xlink:href="classimage.html#adf6b8c126649c9a40387f12b5f5f07d5" target="_top" xlink:title="image::ProcessBoundaryY">
<polygon fill="white" stroke="black" points="688,-142.5 688,-161.5 821,-161.5 821,-142.5 688,-142.5"/>
<text text-anchor="middle" x="754.5" y="-149.5" font-family="Helvetica,sans-Serif" font-size="10.00">image::ProcessBoundaryY</text>
</a>
</g>
</g>
<!-- Node53&#45;&gt;Node54 -->
<g id="edge8" class="edge"><title>Node53&#45;&gt;Node54</title>
<path fill="none" stroke="midnightblue" d="M653.547,-152C664.75,-152 676.445,-152 687.723,-152"/>
<polygon fill="midnightblue" stroke="midnightblue" points="653.421,-148.5 643.421,-152 653.421,-155.5 653.421,-148.5"/>
</g>
<!-- Node54&#45;&gt;Node51 -->
<g id="edge9" class="edge"><title>Node54&#45;&gt;Node51</title>
<path fill="none" stroke="midnightblue" d="M831.542,-152C891.982,-152 974.613,-152 1025.85,-152"/>
<polygon fill="midnightblue" stroke="midnightblue" points="831.286,-148.5 821.286,-152 831.286,-155.5 831.286,-148.5"/>
</g>
<!-- Node56 -->
<g id="node11" class="node"><title>Node56</title>
<g id="a_node11"><a xlink:href="classimageblock.html#af3b91e3daaa8014af1239f60da6b0bf5" target="_top" xlink:title="imageblock::processing">
<polygon fill="white" stroke="black" points="695,-104.5 695,-123.5 814,-123.5 814,-104.5 695,-104.5"/>
<text text-anchor="middle" x="754.5" y="-111.5" font-family="Helvetica,sans-Serif" font-size="10.00">imageblock::processing</text>
</a>
</g>
</g>
<!-- Node55&#45;&gt;Node56 -->
<g id="edge11" class="edge"><title>Node55&#45;&gt;Node56</title>
<path fill="none" stroke="midnightblue" d="M659.529,-114C671.247,-114 683.317,-114 694.74,-114"/>
<polygon fill="midnightblue" stroke="midnightblue" points="659.347,-110.5 649.347,-114 659.347,-117.5 659.347,-110.5"/>
</g>
<!-- Node57 -->
<g id="node12" class="node"><title>Node57</title>
<g id="a_node12"><a xlink:href="classimage.html#ad5a9d767eca6f9bbb8dcb556527edf4d" target="_top" xlink:title="image::ProcessTiles">
<polygon fill="white" stroke="black" points="870.5,-104.5 870.5,-123.5 976.5,-123.5 976.5,-104.5 870.5,-104.5"/>
<text text-anchor="middle" x="923.5" y="-111.5" font-family="Helvetica,sans-Serif" font-size="10.00">image::ProcessTiles</text>
</a>
</g>
</g>
<!-- Node56&#45;&gt;Node57 -->
<g id="edge12" class="edge"><title>Node56&#45;&gt;Node57</title>
<path fill="none" stroke="midnightblue" d="M824.781,-114C839.994,-114 855.857,-114 870.267,-114"/>
<polygon fill="midnightblue" stroke="midnightblue" points="824.378,-110.5 814.378,-114 824.378,-117.5 824.378,-110.5"/>
</g>
<!-- Node57&#45;&gt;Node51 -->
<g id="edge13" class="edge"><title>Node57&#45;&gt;Node51</title>
<path fill="none" stroke="midnightblue" d="M971.833,-126.112C992.515,-131.404 1016.42,-137.521 1035.8,-142.48"/>
<polygon fill="midnightblue" stroke="midnightblue" points="972.528,-122.677 961.973,-123.589 970.793,-129.459 972.528,-122.677"/>
</g>
<!-- Node59 -->
<g id="node14" class="node"><title>Node59</title>
<g id="a_node14"><a xlink:href="classimageblock.html#adbafde60f699582250656ddc2ebe82e2" target="_top" xlink:title="imageblock::saveToDisk">
<polygon fill="white" stroke="black" points="527,-66.5 527,-85.5 652,-85.5 652,-66.5 527,-66.5"/>
<text text-anchor="middle" x="589.5" y="-73.5" font-family="Helvetica,sans-Serif" font-size="10.00">imageblock::saveToDisk</text>
</a>
</g>
</g>
<!-- Node58&#45;&gt;Node59 -->
<g id="edge15" class="edge"><title>Node58&#45;&gt;Node59</title>
<path fill="none" stroke="midnightblue" d="M310.284,-65.0552C318.957,-65.786 327.66,-66.4547 336,-67 401.11,-71.2571 475.805,-73.6056 526.964,-74.8262"/>
<polygon fill="midnightblue" stroke="midnightblue" points="310.407,-61.5528 300.141,-64.1725 309.8,-68.5264 310.407,-61.5528"/>
</g>
<!-- Node60 -->
<g id="node15" class="node"><title>Node60</title>
<g id="a_node15"><a xlink:href="classimage.html#aa04b765a3c2cc6860a22ebfbedbcd7fc" target="_top" xlink:title="image::saveToDisk">
<polygon fill="white" stroke="black" points="363,-38.5 363,-57.5 464,-57.5 464,-38.5 363,-38.5"/>
<text text-anchor="middle" x="413.5" y="-45.5" font-family="Helvetica,sans-Serif" font-size="10.00">image::saveToDisk</text>
</a>
</g>
</g>
<!-- Node58&#45;&gt;Node60 -->
<g id="edge17" class="edge"><title>Node58&#45;&gt;Node60</title>
<path fill="none" stroke="midnightblue" d="M310.5,-53.0578C328.255,-52.1774 346.593,-51.2681 362.739,-50.4675"/>
<polygon fill="midnightblue" stroke="midnightblue" points="309.949,-49.5808 300.135,-53.5718 310.296,-56.5722 309.949,-49.5808"/>
</g>
<!-- Node61 -->
<g id="node16" class="node"><title>Node61</title>
<g id="a_node16"><a xlink:href="classio.html#af3def6eac9bbdd2a12de24104be3acd6" target="_top" xlink:title="io::writeBoarderNodeSetToCSV">
<polygon fill="white" stroke="black" points="336,-0.5 336,-19.5 491,-19.5 491,-0.5 336,-0.5"/>
<text text-anchor="middle" x="413.5" y="-7.5" font-family="Helvetica,sans-Serif" font-size="10.00">io::writeBoarderNodeSetToCSV</text>
</a>
</g>
</g>
<!-- Node58&#45;&gt;Node61 -->
<g id="edge18" class="edge"><title>Node58&#45;&gt;Node61</title>
<path fill="none" stroke="midnightblue" d="M276.099,-44.7918C294.637,-39.821 316.332,-34.0645 336,-29 348.192,-25.8605 361.501,-22.5237 373.55,-19.5368"/>
<polygon fill="midnightblue" stroke="midnightblue" points="275.189,-41.4122 266.44,-47.3873 277.006,-48.1724 275.189,-41.4122"/>
</g>
<!-- Node59&#45;&gt;Node56 -->
<g id="edge16" class="edge"><title>Node59&#45;&gt;Node56</title>
<path fill="none" stroke="midnightblue" d="M641.528,-87.8961C664.439,-93.2374 691.104,-99.4537 712.664,-104.48"/>
<polygon fill="midnightblue" stroke="midnightblue" points="642.165,-84.4509 631.632,-85.589 640.576,-91.2681 642.165,-84.4509"/>
</g>
</g>
</svg>
        <g id="navigator" transform="translate(0 0)" fill="#404254">
                <rect fill="#f2f5e9" fill-opacity="0.5" stroke="#606060" stroke-width=".5" x="0" y="0" width="60" height="60"/>
                <use id="zoomplus" xlink:href="#zoomPlus" x="17" y="9" onmousedown="handleZoom(evt,'in')"/>
                <use id="zoomminus" xlink:href="#zoomMin" x="42" y="9" onmousedown="handleZoom(evt,'out')"/>
                <use id="reset" xlink:href="#resetDef" x="30" y="36" onmousedown="handleReset()"/>
                <g id="arrowUp" xlink:href="#dirArrow" transform="translate(30 24)" onmousedown="handlePan(0,-1)">
                  <use xlink:href="#rim" fill="#404040">
                        <set attributeName="fill" to="#808080" begin="arrowUp.mouseover" end="arrowUp.mouseout"/>
                  </use>
                  <path fill="none" stroke="white" stroke-width="1.5" d="M0,-3.0v7 M-2.5,-0.5L0,-3.0L2.5,-0.5"/>
                </g>
                <g id="arrowRight" xlink:href="#dirArrow" transform="rotate(90) translate(36 -43)" onmousedown="handlePan(1,0)">
                  <use xlink:href="#rim" fill="#404040">
                        <set attributeName="fill" to="#808080" begin="arrowRight.mouseover" end="arrowRight.mouseout"/>
                  </use>
                  <path fill="none" stroke="white" stroke-width="1.5" d="M0,-3.0v7 M-2.5,-0.5L0,-3.0L2.5,-0.5"/>
                </g>
                <g id="arrowDown" xlink:href="#dirArrow" transform="rotate(180) translate(-30 -48)" onmousedown="handlePan(0,1)">
                  <use xlink:href="#rim" fill="#404040">
                        <set attributeName="fill" to="#808080" begin="arrowDown.mouseover" end="arrowDown.mouseout"/>
                  </use>
                  <path fill="none" stroke="white" stroke-width="1.5" d="M0,-3.0v7 M-2.5,-0.5L0,-3.0L2.5,-0.5"/>
                </g>
                <g id="arrowLeft" xlink:href="#dirArrow" transform="rotate(270) translate(-36 17)" onmousedown="handlePan(-1,0)">
                  <use xlink:href="#rim" fill="#404040">
                        <set attributeName="fill" to="#808080" begin="arrowLeft.mouseover" end="arrowLeft.mouseout"/>
                  </use>
                  <path fill="none" stroke="white" stroke-width="1.5" d="M0,-3.0v7 M-2.5,-0.5L0,-3.0L2.5,-0.5"/>
                </g>
        </g>
        <svg viewBox="0 0 15 15" width="100%" height="30px" preserveAspectRatio="xMaxYMin meet">
         <g id="arrow_out" transform="scale(0.3 0.3)">
          <a xlink:href="class_node_a2784134529ab6341bf028b0d40660870_icgraph_org.svg" target="_base">
           <rect id="button" ry="5" rx="5" y="6" x="6" height="38" width="38"
                fill="#f2f5e9" fill-opacity="0.5" stroke="#606060" stroke-width="1.0"/>
           <path id="arrow"
             d="M 11.500037,31.436501 C 11.940474,20.09759 22.043105,11.32322 32.158766,21.979434 L 37.068811,17.246167 C 37.068811,17.246167 37.088388,32 37.088388,32 L 22.160133,31.978069 C 22.160133,31.978069 26.997745,27.140456 26.997745,27.140456 C 18.528582,18.264221 13.291696,25.230495 11.500037,31.436501 z"
             style="fill:#404040;"/>
          </a>
         </g>
        </svg>
</svg>
