<?xml version="1.0" encoding="UTF-8" standalone="no"?>
<!DOCTYPE svg PUBLIC "-//W3C//DTD SVG 1.1//EN"
 "http://www.w3.org/Graphics/SVG/1.1/DTD/svg11.dtd">
<!-- Generated by graphviz version 2.38.0 (20140413.2041)
 -->
<!-- Title: Node::getRightChild Pages: 1 -->
<svg width="1115pt" height="274pt"
 viewBox="0.00 0.00 1115.00 274.00" xmlns="http://www.w3.org/2000/svg" xmlns:xlink="http://www.w3.org/1999/xlink">
<g id="graph0" class="graph" transform="scale(1 1) rotate(0) translate(4 270)">
<title>Node::getRightChild</title>
<polygon fill="white" stroke="none" points="-4,4 -4,-270 1111,-270 1111,4 -4,4"/>
<!-- Node199 -->
<g id="node1" class="node"><title>Node199</title>
<polygon fill="#bfbfbf" stroke="black" points="0,-114.5 0,-133.5 105,-133.5 105,-114.5 0,-114.5"/>
<text text-anchor="middle" x="52.5" y="-121.5" font-family="Helvetica,sans-Serif" font-size="10.00">Node::getRightChild</text>
</g>
<!-- Node200 -->
<g id="node2" class="node"><title>Node200</title>
<g id="a_node2"><a xlink:href="classio.html#a51779ac390d81e68077752ddf9ee2042" target="_top" xlink:title="io::bestSegmentation">
<polygon fill="white" stroke="black" points="340,-190.5 340,-209.5 449,-209.5 449,-190.5 340,-190.5"/>
<text text-anchor="middle" x="394.5" y="-197.5" font-family="Helvetica,sans-Serif" font-size="10.00">io::bestSegmentation</text>
</a>
</g>
</g>
<!-- Node199&#45;&gt;Node200 -->
<g id="edge1" class="edge"><title>Node199&#45;&gt;Node200</title>
<path fill="none" stroke="midnightblue" d="M72.023,-140.091C88.7967,-153.625 114.822,-172.143 141,-181 206.794,-203.26 287.556,-205.281 339.748,-203.565"/>
<polygon fill="midnightblue" stroke="midnightblue" points="74.0717,-137.243 64.1429,-133.545 69.5989,-142.627 74.0717,-137.243"/>
</g>
<!-- Node209 -->
<g id="node11" class="node"><title>Node209</title>
<g id="a_node11"><a xlink:href="class_node.html#a9538c5096b9fae8beb5a716d98c41959" target="_top" xlink:title="Node::getSibling">
<polygon fill="white" stroke="black" points="166.5,-0.5 166.5,-19.5 255.5,-19.5 255.5,-0.5 166.5,-0.5"/>
<text text-anchor="middle" x="211" y="-7.5" font-family="Helvetica,sans-Serif" font-size="10.00">Node::getSibling</text>
</a>
</g>
</g>
<!-- Node199&#45;&gt;Node209 -->
<g id="edge12" class="edge"><title>Node199&#45;&gt;Node209</title>
<path fill="none" stroke="midnightblue" d="M65.3052,-105.996C80.3428,-84.4873 108.335,-48.9188 141,-29 148.638,-24.3424 157.438,-20.8018 166.141,-18.1183"/>
<polygon fill="midnightblue" stroke="midnightblue" points="62.4096,-104.03 59.6778,-114.266 68.197,-107.968 62.4096,-104.03"/>
</g>
<!-- Node210 -->
<g id="node12" class="node"><title>Node210</title>
<g id="a_node12"><a xlink:href="class_node.html#adaaa531eae8cc809934f80b09ad8224e" target="_top" xlink:title="Node::releaseTree">
<polygon fill="white" stroke="black" points="346,-228.5 346,-247.5 443,-247.5 443,-228.5 346,-228.5"/>
<text text-anchor="middle" x="394.5" y="-235.5" font-family="Helvetica,sans-Serif" font-size="10.00">Node::releaseTree</text>
</a>
</g>
</g>
<!-- Node199&#45;&gt;Node210 -->
<g id="edge13" class="edge"><title>Node199&#45;&gt;Node210</title>
<path fill="none" stroke="midnightblue" d="M66.604,-141.652C82.0528,-161 109.631,-191.251 141,-206 207.18,-237.117 293.322,-241.375 345.956,-240.496"/>
<polygon fill="midnightblue" stroke="midnightblue" points="69.2784,-139.389 60.3893,-133.623 63.7431,-143.673 69.2784,-139.389"/>
</g>
<!-- Node211 -->
<g id="node13" class="node"><title>Node211</title>
<g id="a_node13"><a xlink:href="classio.html#a4cca3fdf98e917cac1b3e776c7634aec" target="_top" xlink:title="io::writeBoarderNodeToCSV">
<polygon fill="white" stroke="black" points="141,-152.5 141,-171.5 281,-171.5 281,-152.5 141,-152.5"/>
<text text-anchor="middle" x="211" y="-159.5" font-family="Helvetica,sans-Serif" font-size="10.00">io::writeBoarderNodeToCSV</text>
</a>
</g>
</g>
<!-- Node199&#45;&gt;Node211 -->
<g id="edge18" class="edge"><title>Node199&#45;&gt;Node211</title>
<path fill="none" stroke="midnightblue" d="M102.789,-135.968C124.72,-141.293 150.185,-147.476 170.792,-152.48"/>
<polygon fill="midnightblue" stroke="midnightblue" points="103.535,-132.547 92.9916,-133.589 101.883,-139.35 103.535,-132.547"/>
</g>
<!-- Node215 -->
<g id="node17" class="node"><title>Node215</title>
<g id="a_node17"><a xlink:href="classio.html#a72962f4d8ddc9b57256730b089be4288" target="_top" xlink:title="io::writeClassMap">
<polygon fill="white" stroke="black" points="163.5,-114.5 163.5,-133.5 258.5,-133.5 258.5,-114.5 163.5,-114.5"/>
<text text-anchor="middle" x="211" y="-121.5" font-family="Helvetica,sans-Serif" font-size="10.00">io::writeClassMap</text>
</a>
</g>
</g>
<!-- Node199&#45;&gt;Node215 -->
<g id="edge23" class="edge"><title>Node199&#45;&gt;Node215</title>
<path fill="none" stroke="midnightblue" d="M115.5,-124C131.458,-124 148.36,-124 163.39,-124"/>
<polygon fill="midnightblue" stroke="midnightblue" points="115.178,-120.5 105.178,-124 115.178,-127.5 115.178,-120.5"/>
</g>
<!-- Node216 -->
<g id="node18" class="node"><title>Node216</title>
<g id="a_node18"><a xlink:href="classio.html#a8aa97cb094b71a1583ef796b8200fbdb" target="_top" xlink:title="io::writeNodeToCSV">
<polygon fill="white" stroke="black" points="157.5,-76.5 157.5,-95.5 264.5,-95.5 264.5,-76.5 157.5,-76.5"/>
<text text-anchor="middle" x="211" y="-83.5" font-family="Helvetica,sans-Serif" font-size="10.00">io::writeNodeToCSV</text>
</a>
</g>
</g>
<!-- Node199&#45;&gt;Node216 -->
<g id="edge26" class="edge"><title>Node199&#45;&gt;Node216</title>
<path fill="none" stroke="midnightblue" d="M102.789,-112.032C124.72,-106.707 150.185,-100.524 170.792,-95.5201"/>
<polygon fill="midnightblue" stroke="midnightblue" points="101.883,-108.65 92.9916,-114.411 103.535,-115.453 101.883,-108.65"/>
</g>
<!-- Node217 -->
<g id="node19" class="node"><title>Node217</title>
<g id="a_node19"><a xlink:href="classio.html#aaa642111086b3ec2afee826a767d03ad" target="_top" xlink:title="io::writeNodeToDisk">
<polygon fill="white" stroke="black" points="158,-38.5 158,-57.5 264,-57.5 264,-38.5 158,-38.5"/>
<text text-anchor="middle" x="211" y="-45.5" font-family="Helvetica,sans-Serif" font-size="10.00">io::writeNodeToDisk</text>
</a>
</g>
</g>
<!-- Node199&#45;&gt;Node217 -->
<g id="edge29" class="edge"><title>Node199&#45;&gt;Node217</title>
<path fill="none" stroke="midnightblue" d="M73.6624,-108.269C90.7595,-95.5854 116.364,-78.0918 141,-67 149.271,-63.2763 158.435,-60.1314 167.311,-57.5378"/>
<polygon fill="midnightblue" stroke="midnightblue" points="71.4137,-105.581 65.5474,-114.404 75.6351,-111.165 71.4137,-105.581"/>
</g>
<!-- Node201 -->
<g id="node3" class="node"><title>Node201</title>
<g id="a_node3"><a xlink:href="classimage.html#a12343719e8d96a4bda9c5bd6c035d52a" target="_top" xlink:title="image::mergeBlockX">
<polygon fill="white" stroke="black" points="514,-190.5 514,-209.5 621,-209.5 621,-190.5 514,-190.5"/>
<text text-anchor="middle" x="567.5" y="-197.5" font-family="Helvetica,sans-Serif" font-size="10.00">image::mergeBlockX</text>
</a>
</g>
</g>
<!-- Node200&#45;&gt;Node201 -->
<g id="edge2" class="edge"><title>Node200&#45;&gt;Node201</title>
<path fill="none" stroke="midnightblue" d="M459.265,-200C477.274,-200 496.662,-200 513.933,-200"/>
<polygon fill="midnightblue" stroke="midnightblue" points="459.136,-196.5 449.136,-200 459.136,-203.5 459.136,-196.5"/>
</g>
<!-- Node205 -->
<g id="node7" class="node"><title>Node205</title>
<g id="a_node7"><a xlink:href="classimage.html#aa21fc5a07af7528869425e750090b3b8" target="_top" xlink:title="image::mergeBlockY">
<polygon fill="white" stroke="black" points="514,-228.5 514,-247.5 621,-247.5 621,-228.5 514,-228.5"/>
<text text-anchor="middle" x="567.5" y="-235.5" font-family="Helvetica,sans-Serif" font-size="10.00">image::mergeBlockY</text>
</a>
</g>
</g>
<!-- Node200&#45;&gt;Node205 -->
<g id="edge6" class="edge"><title>Node200&#45;&gt;Node205</title>
<path fill="none" stroke="midnightblue" d="M448.709,-211.824C472.817,-217.182 500.94,-223.431 523.66,-228.48"/>
<polygon fill="midnightblue" stroke="midnightblue" points="449.172,-208.342 438.651,-209.589 447.653,-215.175 449.172,-208.342"/>
</g>
<!-- Node207 -->
<g id="node9" class="node"><title>Node207</title>
<g id="a_node9"><a xlink:href="classimageblock.html#af3b91e3daaa8014af1239f60da6b0bf5" target="_top" xlink:title="imageblock::processing">
<polygon fill="white" stroke="black" points="508,-152.5 508,-171.5 627,-171.5 627,-152.5 508,-152.5"/>
<text text-anchor="middle" x="567.5" y="-159.5" font-family="Helvetica,sans-Serif" font-size="10.00">imageblock::processing</text>
</a>
</g>
</g>
<!-- Node200&#45;&gt;Node207 -->
<g id="edge9" class="edge"><title>Node200&#45;&gt;Node207</title>
<path fill="none" stroke="midnightblue" d="M448.709,-188.176C472.817,-182.818 500.94,-176.569 523.66,-171.52"/>
<polygon fill="midnightblue" stroke="midnightblue" points="447.653,-184.825 438.651,-190.411 449.172,-191.658 447.653,-184.825"/>
</g>
<!-- Node202 -->
<g id="node4" class="node"><title>Node202</title>
<g id="a_node4"><a xlink:href="classimage.html#a83026280ad6cc713ec9489ff3bd9776e" target="_top" xlink:title="image::ProcessBoundaryX">
<polygon fill="white" stroke="black" points="663,-190.5 663,-209.5 796,-209.5 796,-190.5 663,-190.5"/>
<text text-anchor="middle" x="729.5" y="-197.5" font-family="Helvetica,sans-Serif" font-size="10.00">image::ProcessBoundaryX</text>
</a>
</g>
</g>
<!-- Node201&#45;&gt;Node202 -->
<g id="edge3" class="edge"><title>Node201&#45;&gt;Node202</title>
<path fill="none" stroke="midnightblue" d="M631.486,-200C641.798,-200 652.505,-200 662.879,-200"/>
<polygon fill="midnightblue" stroke="midnightblue" points="631.333,-196.5 621.333,-200 631.333,-203.5 631.333,-196.5"/>
</g>
<!-- Node203 -->
<g id="node5" class="node"><title>Node203</title>
<g id="a_node5"><a xlink:href="classimage.html#a4689c56b85c46d48ea52f0c9fa13891e" target="_top" xlink:title="image::processing">
<polygon fill="white" stroke="black" points="832,-190.5 832,-209.5 928,-209.5 928,-190.5 832,-190.5"/>
<text text-anchor="middle" x="880" y="-197.5" font-family="Helvetica,sans-Serif" font-size="10.00">image::processing</text>
</a>
</g>
</g>
<!-- Node202&#45;&gt;Node203 -->
<g id="edge4" class="edge"><title>Node202&#45;&gt;Node203</title>
<path fill="none" stroke="midnightblue" d="M806.207,-200C814.858,-200 823.483,-200 831.612,-200"/>
<polygon fill="midnightblue" stroke="midnightblue" points="806.067,-196.5 796.067,-200 806.066,-203.5 806.067,-196.5"/>
</g>
<!-- Node204 -->
<g id="node6" class="node"><title>Node204</title>
<g id="a_node6"><a xlink:href="class_main_window.html#a9a45eb9ebe6d27bcd23677d9fbb74dd8" target="_top" xlink:title="MainWindow::on_Go_clicked">
<polygon fill="white" stroke="black" points="964,-190.5 964,-209.5 1107,-209.5 1107,-190.5 964,-190.5"/>
<text text-anchor="middle" x="1035.5" y="-197.5" font-family="Helvetica,sans-Serif" font-size="10.00">MainWindow::on_Go_clicked</text>
</a>
</g>
</g>
<!-- Node203&#45;&gt;Node204 -->
<g id="edge5" class="edge"><title>Node203&#45;&gt;Node204</title>
<path fill="none" stroke="midnightblue" d="M938.583,-200C946.853,-200 955.441,-200 963.928,-200"/>
<polygon fill="midnightblue" stroke="midnightblue" points="938.308,-196.5 928.308,-200 938.308,-203.5 938.308,-196.5"/>
</g>
<!-- Node206 -->
<g id="node8" class="node"><title>Node206</title>
<g id="a_node8"><a xlink:href="classimage.html#adf6b8c126649c9a40387f12b5f5f07d5" target="_top" xlink:title="image::ProcessBoundaryY">
<polygon fill="white" stroke="black" points="663,-228.5 663,-247.5 796,-247.5 796,-228.5 663,-228.5"/>
<text text-anchor="middle" x="729.5" y="-235.5" font-family="Helvetica,sans-Serif" font-size="10.00">image::ProcessBoundaryY</text>
</a>
</g>
</g>
<!-- Node205&#45;&gt;Node206 -->
<g id="edge7" class="edge"><title>Node205&#45;&gt;Node206</title>
<path fill="none" stroke="midnightblue" d="M631.486,-238C641.798,-238 652.505,-238 662.879,-238"/>
<polygon fill="midnightblue" stroke="midnightblue" points="631.333,-234.5 621.333,-238 631.333,-241.5 631.333,-234.5"/>
</g>
<!-- Node206&#45;&gt;Node203 -->
<g id="edge8" class="edge"><title>Node206&#45;&gt;Node203</title>
<path fill="none" stroke="midnightblue" d="M777.833,-225.888C798.515,-220.596 822.419,-214.479 841.797,-209.52"/>
<polygon fill="midnightblue" stroke="midnightblue" points="776.793,-222.541 767.973,-228.411 778.528,-229.323 776.793,-222.541"/>
</g>
<!-- Node208 -->
<g id="node10" class="node"><title>Node208</title>
<g id="a_node10"><a xlink:href="classimage.html#ad5a9d767eca6f9bbb8dcb556527edf4d" target="_top" xlink:title="image::ProcessTiles">
<polygon fill="white" stroke="black" points="676.5,-152.5 676.5,-171.5 782.5,-171.5 782.5,-152.5 676.5,-152.5"/>
<text text-anchor="middle" x="729.5" y="-159.5" font-family="Helvetica,sans-Serif" font-size="10.00">image::ProcessTiles</text>
</a>
</g>
</g>
<!-- Node207&#45;&gt;Node208 -->
<g id="edge10" class="edge"><title>Node207&#45;&gt;Node208</title>
<path fill="none" stroke="midnightblue" d="M637.525,-162C650.577,-162 664.026,-162 676.447,-162"/>
<polygon fill="midnightblue" stroke="midnightblue" points="637.17,-158.5 627.17,-162 637.17,-165.5 637.17,-158.5"/>
</g>
<!-- Node208&#45;&gt;Node203 -->
<g id="edge11" class="edge"><title>Node208&#45;&gt;Node203</title>
<path fill="none" stroke="midnightblue" d="M777.833,-174.112C798.515,-179.404 822.419,-185.521 841.797,-190.48"/>
<polygon fill="midnightblue" stroke="midnightblue" points="778.528,-170.677 767.973,-171.589 776.793,-177.459 778.528,-170.677"/>
</g>
<!-- Node210&#45;&gt;Node201 -->
<g id="edge14" class="edge"><title>Node210&#45;&gt;Node201</title>
<path fill="none" stroke="midnightblue" d="M448.709,-226.176C472.817,-220.818 500.94,-214.569 523.66,-209.52"/>
<polygon fill="midnightblue" stroke="midnightblue" points="447.653,-222.825 438.651,-228.411 449.172,-229.658 447.653,-222.825"/>
</g>
<!-- Node210&#45;&gt;Node205 -->
<g id="edge15" class="edge"><title>Node210&#45;&gt;Node205</title>
<path fill="none" stroke="midnightblue" d="M453.153,-238C472.744,-238 494.524,-238 513.715,-238"/>
<polygon fill="midnightblue" stroke="midnightblue" points="453.133,-234.5 443.133,-238 453.133,-241.5 453.133,-234.5"/>
</g>
<!-- Node210&#45;&gt;Node207 -->
<g id="edge16" class="edge"><title>Node210&#45;&gt;Node207</title>
<path fill="none" stroke="midnightblue" d="M453.016,-227.548C459.642,-225.24 466.122,-222.427 472,-219 492.097,-207.281 488.329,-193.421 508,-181 514.049,-177.18 520.939,-174.058 527.816,-171.531"/>
<polygon fill="midnightblue" stroke="midnightblue" points="451.766,-224.271 443.255,-230.58 453.843,-230.956 451.766,-224.271"/>
</g>
<!-- Node210&#45;&gt;Node210 -->
<g id="edge17" class="edge"><title>Node210&#45;&gt;Node210</title>
<path fill="none" stroke="midnightblue" d="M362.314,-256.275C363.232,-261.741 373.961,-266 394.5,-266 425.07,-266 433.907,-256.565 421.01,-247.757"/>
<polygon fill="midnightblue" stroke="midnightblue" points="365.357,-258.02 367.99,-247.757 359.532,-254.138 365.357,-258.02"/>
</g>
<!-- Node212 -->
<g id="node14" class="node"><title>Node212</title>
<g id="a_node14"><a xlink:href="classimageblock.html#adbafde60f699582250656ddc2ebe82e2" target="_top" xlink:title="imageblock::saveToDisk">
<polygon fill="white" stroke="black" points="332,-76.5 332,-95.5 457,-95.5 457,-76.5 332,-76.5"/>
<text text-anchor="middle" x="394.5" y="-83.5" font-family="Helvetica,sans-Serif" font-size="10.00">imageblock::saveToDisk</text>
</a>
</g>
</g>
<!-- Node211&#45;&gt;Node212 -->
<g id="edge19" class="edge"><title>Node211&#45;&gt;Node212</title>
<path fill="none" stroke="midnightblue" d="M269.588,-148.783C273.558,-147.077 277.404,-145.158 281,-143 300.947,-131.028 296.903,-116.719 317,-105 323.62,-101.14 331.005,-98.0589 338.502,-95.6016"/>
<polygon fill="midnightblue" stroke="midnightblue" points="268.254,-145.546 260.165,-152.388 270.756,-152.084 268.254,-145.546"/>
</g>
<!-- Node213 -->
<g id="node15" class="node"><title>Node213</title>
<g id="a_node15"><a xlink:href="classimage.html#aa04b765a3c2cc6860a22ebfbedbcd7fc" target="_top" xlink:title="image::saveToDisk">
<polygon fill="white" stroke="black" points="344,-114.5 344,-133.5 445,-133.5 445,-114.5 344,-114.5"/>
<text text-anchor="middle" x="394.5" y="-121.5" font-family="Helvetica,sans-Serif" font-size="10.00">image::saveToDisk</text>
</a>
</g>
</g>
<!-- Node211&#45;&gt;Node213 -->
<g id="edge21" class="edge"><title>Node211&#45;&gt;Node213</title>
<path fill="none" stroke="midnightblue" d="M267.792,-150.319C293.531,-144.93 323.699,-138.614 348.029,-133.52"/>
<polygon fill="midnightblue" stroke="midnightblue" points="266.871,-146.936 257.8,-152.411 268.305,-153.787 266.871,-146.936"/>
</g>
<!-- Node214 -->
<g id="node16" class="node"><title>Node214</title>
<g id="a_node16"><a xlink:href="classio.html#af3def6eac9bbdd2a12de24104be3acd6" target="_top" xlink:title="io::writeBoarderNodeSetToCSV">
<polygon fill="white" stroke="black" points="317,-152.5 317,-171.5 472,-171.5 472,-152.5 317,-152.5"/>
<text text-anchor="middle" x="394.5" y="-159.5" font-family="Helvetica,sans-Serif" font-size="10.00">io::writeBoarderNodeSetToCSV</text>
</a>
</g>
</g>
<!-- Node211&#45;&gt;Node214 -->
<g id="edge22" class="edge"><title>Node211&#45;&gt;Node214</title>
<path fill="none" stroke="midnightblue" d="M291.407,-162C299.9,-162 308.527,-162 316.985,-162"/>
<polygon fill="midnightblue" stroke="midnightblue" points="291.135,-158.5 281.135,-162 291.135,-165.5 291.135,-158.5"/>
</g>
<!-- Node212&#45;&gt;Node207 -->
<g id="edge20" class="edge"><title>Node212&#45;&gt;Node207</title>
<path fill="none" stroke="midnightblue" d="M453.497,-98.4381C459.83,-100.375 466.11,-102.558 472,-105 502.972,-117.843 535.759,-139.764 553.407,-152.349"/>
<polygon fill="midnightblue" stroke="midnightblue" points="454.127,-94.978 443.55,-95.5954 452.203,-101.709 454.127,-94.978"/>
</g>
<!-- Node215&#45;&gt;Node212 -->
<g id="edge24" class="edge"><title>Node215&#45;&gt;Node212</title>
<path fill="none" stroke="midnightblue" d="M267.792,-112.319C293.531,-106.93 323.699,-100.614 348.029,-95.5201"/>
<polygon fill="midnightblue" stroke="midnightblue" points="266.871,-108.936 257.8,-114.411 268.305,-115.787 266.871,-108.936"/>
</g>
<!-- Node215&#45;&gt;Node213 -->
<g id="edge25" class="edge"><title>Node215&#45;&gt;Node213</title>
<path fill="none" stroke="midnightblue" d="M268.784,-124C292.804,-124 320.535,-124 343.739,-124"/>
<polygon fill="midnightblue" stroke="midnightblue" points="268.741,-120.5 258.741,-124 268.741,-127.5 268.741,-120.5"/>
</g>
<!-- Node216&#45;&gt;Node212 -->
<g id="edge27" class="edge"><title>Node216&#45;&gt;Node212</title>
<path fill="none" stroke="midnightblue" d="M275.012,-86C293.41,-86 313.491,-86 331.807,-86"/>
<polygon fill="midnightblue" stroke="midnightblue" points="274.985,-82.5001 264.985,-86 274.985,-89.5001 274.985,-82.5001"/>
</g>
<!-- Node216&#45;&gt;Node213 -->
<g id="edge28" class="edge"><title>Node216&#45;&gt;Node213</title>
<path fill="none" stroke="midnightblue" d="M267.792,-97.681C293.531,-103.07 323.699,-109.386 348.029,-114.48"/>
<polygon fill="midnightblue" stroke="midnightblue" points="268.305,-94.2126 257.8,-95.589 266.871,-101.064 268.305,-94.2126"/>
</g>
<!-- Node217&#45;&gt;Node212 -->
<g id="edge30" class="edge"><title>Node217&#45;&gt;Node212</title>
<path fill="none" stroke="midnightblue" d="M267.792,-59.681C293.531,-65.0699 323.699,-71.3861 348.029,-76.4799"/>
<polygon fill="midnightblue" stroke="midnightblue" points="268.305,-56.2126 257.8,-57.589 266.871,-63.064 268.305,-56.2126"/>
</g>
<!-- Node217&#45;&gt;Node213 -->
<g id="edge31" class="edge"><title>Node217&#45;&gt;Node213</title>
<path fill="none" stroke="midnightblue" d="M269.588,-61.2168C273.558,-62.9227 277.404,-64.842 281,-67 300.947,-78.9723 296.903,-93.2806 317,-105 325.157,-109.757 334.474,-113.329 343.734,-116.011"/>
<polygon fill="midnightblue" stroke="midnightblue" points="270.756,-57.916 260.165,-57.6115 268.254,-64.4538 270.756,-57.916"/>
</g>
</g>
</svg>
