<?xml version="1.0" encoding="UTF-8" standalone="no"?>
<!DOCTYPE svg PUBLIC "-//W3C//DTD SVG 1.1//EN"
 "http://www.w3.org/Graphics/SVG/1.1/DTD/svg11.dtd">
<!-- Generated by graphviz version 2.38.0 (20140413.2041)
 -->
<!-- Title: Edge::getNode2 Pages: 1 -->
<svg width="1819pt" height="322pt"
 viewBox="0.00 0.00 1819.00 322.00" xmlns="http://www.w3.org/2000/svg" xmlns:xlink="http://www.w3.org/1999/xlink">
<g id="graph0" class="graph" transform="scale(1 1) rotate(0) translate(4 318)">
<title>Edge::getNode2</title>
<polygon fill="white" stroke="none" points="-4,4 -4,-318 1815,-318 1815,4 -4,4"/>
<!-- Node72 -->
<g id="node1" class="node"><title>Node72</title>
<polygon fill="#bfbfbf" stroke="black" points="0,-95.5 0,-114.5 87,-114.5 87,-95.5 0,-95.5"/>
<text text-anchor="middle" x="43.5" y="-102.5" font-family="Helvetica,sans-Serif" font-size="10.00">Edge::getNode2</text>
</g>
<!-- Node73 -->
<g id="node2" class="node"><title>Node73</title>
<g id="a_node2"><a xlink:href="class_edge_heap.html#add248e35c4c2443246ff6c7cd654ae9f" target="_top" xlink:title="EdgeHeap::edgeComparator">
<polygon fill="white" stroke="black" points="123,-152.5 123,-171.5 263,-171.5 263,-152.5 123,-152.5"/>
<text text-anchor="middle" x="193" y="-159.5" font-family="Helvetica,sans-Serif" font-size="10.00">EdgeHeap::edgeComparator</text>
</a>
</g>
</g>
<!-- Node72&#45;&gt;Node73 -->
<g id="edge1" class="edge"><title>Node72&#45;&gt;Node73</title>
<path fill="none" stroke="midnightblue" d="M78.6656,-118.203C105.749,-128.669 142.953,-143.046 167.231,-152.428"/>
<polygon fill="midnightblue" stroke="midnightblue" points="79.7776,-114.88 69.1882,-114.541 77.2543,-121.41 79.7776,-114.88"/>
</g>
<!-- Node75 -->
<g id="node4" class="node"><title>Node75</title>
<g id="a_node4"><a xlink:href="class_r_a_g.html#ab09eebb1b704d18b583d528e77f7604a" target="_top" xlink:title="RAG::regionMerging">
<polygon fill="white" stroke="black" points="902,-219.5 902,-238.5 1007,-238.5 1007,-219.5 902,-219.5"/>
<text text-anchor="middle" x="954.5" y="-226.5" font-family="Helvetica,sans-Serif" font-size="10.00">RAG::regionMerging</text>
</a>
</g>
</g>
<!-- Node72&#45;&gt;Node75 -->
<g id="edge34" class="edge"><title>Node72&#45;&gt;Node75</title>
<path fill="none" stroke="midnightblue" d="M57.8516,-122.554C97.7838,-172.866 222.13,-314 360.5,-314 360.5,-314 360.5,-314 657.5,-314 751.32,-314 777.759,-312.87 866,-281 894.753,-270.615 924.604,-250.519 940.938,-238.579"/>
<polygon fill="midnightblue" stroke="midnightblue" points="60.4976,-120.255 51.587,-114.523 54.9785,-124.561 60.4976,-120.255"/>
</g>
<!-- Node88 -->
<g id="node17" class="node"><title>Node88</title>
<g id="a_node17"><a xlink:href="class_r_a_g.html#aa2de492a3df037db29b0e3ccab5251ee" target="_top" xlink:title="RAG::merge">
<polygon fill="white" stroke="black" points="769,-114.5 769,-133.5 840,-133.5 840,-114.5 769,-114.5"/>
<text text-anchor="middle" x="804.5" y="-121.5" font-family="Helvetica,sans-Serif" font-size="10.00">RAG::merge</text>
</a>
</g>
</g>
<!-- Node72&#45;&gt;Node88 -->
<g id="edge33" class="edge"><title>Node72&#45;&gt;Node88</title>
<path fill="none" stroke="midnightblue" d="M85.8471,-92.6702C145.803,-75.9103 260.638,-48 360.5,-48 360.5,-48 360.5,-48 516,-48 602.147,-48 624.578,-55.9426 707,-81 735.428,-89.6427 766.521,-104.566 785.521,-114.361"/>
<polygon fill="midnightblue" stroke="midnightblue" points="84.6728,-89.3651 76.0062,-95.4595 86.5817,-96.0999 84.6728,-89.3651"/>
</g>
<!-- Node95 -->
<g id="node24" class="node"><title>Node95</title>
<g id="a_node24"><a xlink:href="class_edge.html#a5a18e11da73bdb56e5c7013ae388e345" target="_top" xlink:title="Edge::equals">
<polygon fill="white" stroke="black" points="156,-0.5 156,-19.5 230,-19.5 230,-0.5 156,-0.5"/>
<text text-anchor="middle" x="193" y="-7.5" font-family="Helvetica,sans-Serif" font-size="10.00">Edge::equals</text>
</a>
</g>
</g>
<!-- Node72&#45;&gt;Node95 -->
<g id="edge32" class="edge"><title>Node72&#45;&gt;Node95</title>
<path fill="none" stroke="midnightblue" d="M59.5926,-87.8625C74.3744,-71.9877 98.2305,-48.6799 123,-34 133.038,-28.0509 144.773,-23.2781 155.688,-19.6045"/>
<polygon fill="midnightblue" stroke="midnightblue" points="56.8743,-85.6493 52.7331,-95.4013 62.0518,-90.3603 56.8743,-85.6493"/>
</g>
<!-- Node74 -->
<g id="node3" class="node"><title>Node74</title>
<g id="a_node3"><a xlink:href="class_edge_heap.html#a09c54300b957acc0f414fd9ee6c558fa" target="_top" xlink:title="EdgeHeap::heapify">
<polygon fill="white" stroke="black" points="754.5,-252.5 754.5,-271.5 854.5,-271.5 854.5,-252.5 754.5,-252.5"/>
<text text-anchor="middle" x="804.5" y="-259.5" font-family="Helvetica,sans-Serif" font-size="10.00">EdgeHeap::heapify</text>
</a>
</g>
</g>
<!-- Node73&#45;&gt;Node74 -->
<g id="edge2" class="edge"><title>Node73&#45;&gt;Node74</title>
<path fill="none" stroke="midnightblue" d="M206.912,-179.889C224.658,-202.784 258.979,-241.354 299,-257 459.098,-319.589 670.217,-289.155 760.045,-271.539"/>
<polygon fill="midnightblue" stroke="midnightblue" points="209.554,-177.579 200.746,-171.69 203.959,-181.786 209.554,-177.579"/>
</g>
<!-- Node85 -->
<g id="node14" class="node"><title>Node85</title>
<g id="a_node14"><a xlink:href="class_edge_heap.html#a71040389a82aaff7be40c94a95afc357" target="_top" xlink:title="EdgeHeap::removeAt">
<polygon fill="white" stroke="black" points="460,-156.5 460,-175.5 570,-175.5 570,-156.5 460,-156.5"/>
<text text-anchor="middle" x="515" y="-163.5" font-family="Helvetica,sans-Serif" font-size="10.00">EdgeHeap::removeAt</text>
</a>
</g>
</g>
<!-- Node73&#45;&gt;Node85 -->
<g id="edge15" class="edge"><title>Node73&#45;&gt;Node85</title>
<path fill="none" stroke="midnightblue" d="M246.761,-173.451C263.391,-176.547 281.887,-179.464 299,-181 354.333,-185.966 368.634,-185.582 424,-181 437.576,-179.876 452.188,-177.815 465.607,-175.572"/>
<polygon fill="midnightblue" stroke="midnightblue" points="247.158,-169.964 236.677,-171.512 245.835,-176.838 247.158,-169.964"/>
</g>
<!-- Node89 -->
<g id="node18" class="node"><title>Node89</title>
<g id="a_node18"><a xlink:href="class_edge_heap.html#aed5f5e75856c0e3bcb8ccc29184a88c0" target="_top" xlink:title="EdgeHeap::updateAt">
<polygon fill="white" stroke="black" points="461.5,-80.5 461.5,-99.5 568.5,-99.5 568.5,-80.5 461.5,-80.5"/>
<text text-anchor="middle" x="515" y="-87.5" font-family="Helvetica,sans-Serif" font-size="10.00">EdgeHeap::updateAt</text>
</a>
</g>
</g>
<!-- Node73&#45;&gt;Node89 -->
<g id="edge21" class="edge"><title>Node73&#45;&gt;Node89</title>
<path fill="none" stroke="midnightblue" d="M215.632,-146.643C236.059,-133.047 268.088,-114.006 299,-105 352.706,-89.3531 417.008,-86.8657 461.215,-87.5041"/>
<polygon fill="midnightblue" stroke="midnightblue" points="213.402,-143.927 207.109,-152.451 217.344,-149.712 213.402,-143.927"/>
</g>
<!-- Node91 -->
<g id="node20" class="node"><title>Node91</title>
<g id="a_node20"><a xlink:href="class_edge_heap.html#a12a595377687c8c568007e8cc8646665" target="_top" xlink:title="EdgeHeap::isHeap">
<polygon fill="white" stroke="black" points="312,-228.5 312,-247.5 411,-247.5 411,-228.5 312,-228.5"/>
<text text-anchor="middle" x="361.5" y="-235.5" font-family="Helvetica,sans-Serif" font-size="10.00">EdgeHeap::isHeap</text>
</a>
</g>
</g>
<!-- Node73&#45;&gt;Node91 -->
<g id="edge24" class="edge"><title>Node73&#45;&gt;Node91</title>
<path fill="none" stroke="midnightblue" d="M220.963,-176.169C241.991,-187.02 272.052,-202.097 299,-214 310.532,-219.094 323.509,-224.242 334.559,-228.456"/>
<polygon fill="midnightblue" stroke="midnightblue" points="222.469,-173.007 211.981,-171.508 219.245,-179.221 222.469,-173.007"/>
</g>
<!-- Node92 -->
<g id="node21" class="node"><title>Node92</title>
<g id="a_node21"><a xlink:href="class_edge_heap.html#afc03f4943c606b1d2617654cfaeeabb6" target="_top" xlink:title="EdgeHeap::heapifyUp">
<polygon fill="white" stroke="black" points="305,-114.5 305,-133.5 418,-133.5 418,-114.5 305,-114.5"/>
<text text-anchor="middle" x="361.5" y="-121.5" font-family="Helvetica,sans-Serif" font-size="10.00">EdgeHeap::heapifyUp</text>
</a>
</g>
</g>
<!-- Node73&#45;&gt;Node92 -->
<g id="edge25" class="edge"><title>Node73&#45;&gt;Node92</title>
<path fill="none" stroke="midnightblue" d="M245.809,-150.176C269.283,-144.818 296.665,-138.569 318.787,-133.52"/>
<polygon fill="midnightblue" stroke="midnightblue" points="244.985,-146.774 236.015,-152.411 246.543,-153.598 244.985,-146.774"/>
</g>
<!-- Node94 -->
<g id="node23" class="node"><title>Node94</title>
<g id="a_node23"><a xlink:href="class_edge_heap.html#af02715f2265926338a4b33135c821a4c" target="_top" xlink:title="EdgeHeap::heapifyDown">
<polygon fill="white" stroke="black" points="299,-152.5 299,-171.5 424,-171.5 424,-152.5 299,-152.5"/>
<text text-anchor="middle" x="361.5" y="-159.5" font-family="Helvetica,sans-Serif" font-size="10.00">EdgeHeap::heapifyDown</text>
</a>
</g>
</g>
<!-- Node73&#45;&gt;Node94 -->
<g id="edge29" class="edge"><title>Node73&#45;&gt;Node94</title>
<path fill="none" stroke="midnightblue" d="M273.262,-162C281.905,-162 290.606,-162 298.99,-162"/>
<polygon fill="midnightblue" stroke="midnightblue" points="273.165,-158.5 263.165,-162 273.164,-165.5 273.165,-158.5"/>
</g>
<!-- Node74&#45;&gt;Node75 -->
<g id="edge3" class="edge"><title>Node74&#45;&gt;Node75</title>
<path fill="none" stroke="midnightblue" d="M858.23,-250.243C875.466,-246.399 894.384,-242.181 910.788,-238.524"/>
<polygon fill="midnightblue" stroke="midnightblue" points="857.306,-246.863 848.308,-252.455 858.83,-253.695 857.306,-246.863"/>
</g>
<!-- Node76 -->
<g id="node5" class="node"><title>Node76</title>
<g id="a_node5"><a xlink:href="classimage.html#a12343719e8d96a4bda9c5bd6c035d52a" target="_top" xlink:title="image::mergeBlockX">
<polygon fill="white" stroke="black" points="1049,-257.5 1049,-276.5 1156,-276.5 1156,-257.5 1049,-257.5"/>
<text text-anchor="middle" x="1102.5" y="-264.5" font-family="Helvetica,sans-Serif" font-size="10.00">image::mergeBlockX</text>
</a>
</g>
</g>
<!-- Node75&#45;&gt;Node76 -->
<g id="edge4" class="edge"><title>Node75&#45;&gt;Node76</title>
<path fill="none" stroke="midnightblue" d="M1002.04,-241.112C1022.37,-246.404 1045.87,-252.521 1064.92,-257.48"/>
<polygon fill="midnightblue" stroke="midnightblue" points="1002.9,-237.721 992.342,-238.589 1001.14,-244.495 1002.9,-237.721"/>
</g>
<!-- Node80 -->
<g id="node9" class="node"><title>Node80</title>
<g id="a_node9"><a xlink:href="classimage.html#aa21fc5a07af7528869425e750090b3b8" target="_top" xlink:title="image::mergeBlockY">
<polygon fill="white" stroke="black" points="1049,-219.5 1049,-238.5 1156,-238.5 1156,-219.5 1049,-219.5"/>
<text text-anchor="middle" x="1102.5" y="-226.5" font-family="Helvetica,sans-Serif" font-size="10.00">image::mergeBlockY</text>
</a>
</g>
</g>
<!-- Node75&#45;&gt;Node80 -->
<g id="edge8" class="edge"><title>Node75&#45;&gt;Node80</title>
<path fill="none" stroke="midnightblue" d="M1017.63,-229C1028.01,-229 1038.68,-229 1048.8,-229"/>
<polygon fill="midnightblue" stroke="midnightblue" points="1017.39,-225.5 1007.39,-229 1017.39,-232.5 1017.39,-225.5"/>
</g>
<!-- Node82 -->
<g id="node11" class="node"><title>Node82</title>
<g id="a_node11"><a xlink:href="classimageblock.html#abcc69a8c00ad79067185c700463f8126" target="_top" xlink:title="imageblock::createBPT">
<polygon fill="white" stroke="black" points="1043,-181.5 1043,-200.5 1162,-200.5 1162,-181.5 1043,-181.5"/>
<text text-anchor="middle" x="1102.5" y="-188.5" font-family="Helvetica,sans-Serif" font-size="10.00">imageblock::createBPT</text>
</a>
</g>
</g>
<!-- Node75&#45;&gt;Node82 -->
<g id="edge11" class="edge"><title>Node75&#45;&gt;Node82</title>
<path fill="none" stroke="midnightblue" d="M1002.04,-216.888C1022.37,-211.596 1045.87,-205.479 1064.92,-200.52"/>
<polygon fill="midnightblue" stroke="midnightblue" points="1001.14,-213.505 992.342,-219.411 1002.9,-220.279 1001.14,-213.505"/>
</g>
<!-- Node77 -->
<g id="node6" class="node"><title>Node77</title>
<g id="a_node6"><a xlink:href="classimage.html#a83026280ad6cc713ec9489ff3bd9776e" target="_top" xlink:title="image::ProcessBoundaryX">
<polygon fill="white" stroke="black" points="1367,-257.5 1367,-276.5 1500,-276.5 1500,-257.5 1367,-257.5"/>
<text text-anchor="middle" x="1433.5" y="-264.5" font-family="Helvetica,sans-Serif" font-size="10.00">image::ProcessBoundaryX</text>
</a>
</g>
</g>
<!-- Node76&#45;&gt;Node77 -->
<g id="edge5" class="edge"><title>Node76&#45;&gt;Node77</title>
<path fill="none" stroke="midnightblue" d="M1166.4,-267C1223.83,-267 1308.41,-267 1366.73,-267"/>
<polygon fill="midnightblue" stroke="midnightblue" points="1166.36,-263.5 1156.36,-267 1166.36,-270.5 1166.36,-263.5"/>
</g>
<!-- Node78 -->
<g id="node7" class="node"><title>Node78</title>
<g id="a_node7"><a xlink:href="classimage.html#a4689c56b85c46d48ea52f0c9fa13891e" target="_top" xlink:title="image::processing">
<polygon fill="white" stroke="black" points="1536,-219.5 1536,-238.5 1632,-238.5 1632,-219.5 1536,-219.5"/>
<text text-anchor="middle" x="1584" y="-226.5" font-family="Helvetica,sans-Serif" font-size="10.00">image::processing</text>
</a>
</g>
</g>
<!-- Node77&#45;&gt;Node78 -->
<g id="edge6" class="edge"><title>Node77&#45;&gt;Node78</title>
<path fill="none" stroke="midnightblue" d="M1481.83,-254.888C1502.51,-249.596 1526.42,-243.479 1545.8,-238.52"/>
<polygon fill="midnightblue" stroke="midnightblue" points="1480.79,-251.541 1471.97,-257.411 1482.53,-258.323 1480.79,-251.541"/>
</g>
<!-- Node79 -->
<g id="node8" class="node"><title>Node79</title>
<g id="a_node8"><a xlink:href="class_main_window.html#a9a45eb9ebe6d27bcd23677d9fbb74dd8" target="_top" xlink:title="MainWindow::on_Go_clicked">
<polygon fill="white" stroke="black" points="1668,-219.5 1668,-238.5 1811,-238.5 1811,-219.5 1668,-219.5"/>
<text text-anchor="middle" x="1739.5" y="-226.5" font-family="Helvetica,sans-Serif" font-size="10.00">MainWindow::on_Go_clicked</text>
</a>
</g>
</g>
<!-- Node78&#45;&gt;Node79 -->
<g id="edge7" class="edge"><title>Node78&#45;&gt;Node79</title>
<path fill="none" stroke="midnightblue" d="M1642.58,-229C1650.85,-229 1659.44,-229 1667.93,-229"/>
<polygon fill="midnightblue" stroke="midnightblue" points="1642.31,-225.5 1632.31,-229 1642.31,-232.5 1642.31,-225.5"/>
</g>
<!-- Node81 -->
<g id="node10" class="node"><title>Node81</title>
<g id="a_node10"><a xlink:href="classimage.html#adf6b8c126649c9a40387f12b5f5f07d5" target="_top" xlink:title="image::ProcessBoundaryY">
<polygon fill="white" stroke="black" points="1198,-219.5 1198,-238.5 1331,-238.5 1331,-219.5 1198,-219.5"/>
<text text-anchor="middle" x="1264.5" y="-226.5" font-family="Helvetica,sans-Serif" font-size="10.00">image::ProcessBoundaryY</text>
</a>
</g>
</g>
<!-- Node80&#45;&gt;Node81 -->
<g id="edge9" class="edge"><title>Node80&#45;&gt;Node81</title>
<path fill="none" stroke="midnightblue" d="M1166.49,-229C1176.8,-229 1187.51,-229 1197.88,-229"/>
<polygon fill="midnightblue" stroke="midnightblue" points="1166.33,-225.5 1156.33,-229 1166.33,-232.5 1166.33,-225.5"/>
</g>
<!-- Node81&#45;&gt;Node78 -->
<g id="edge10" class="edge"><title>Node81&#45;&gt;Node78</title>
<path fill="none" stroke="midnightblue" d="M1341.54,-229C1401.98,-229 1484.61,-229 1535.85,-229"/>
<polygon fill="midnightblue" stroke="midnightblue" points="1341.29,-225.5 1331.29,-229 1341.29,-232.5 1341.29,-225.5"/>
</g>
<!-- Node83 -->
<g id="node12" class="node"><title>Node83</title>
<g id="a_node12"><a xlink:href="classimageblock.html#af3b91e3daaa8014af1239f60da6b0bf5" target="_top" xlink:title="imageblock::processing">
<polygon fill="white" stroke="black" points="1205,-181.5 1205,-200.5 1324,-200.5 1324,-181.5 1205,-181.5"/>
<text text-anchor="middle" x="1264.5" y="-188.5" font-family="Helvetica,sans-Serif" font-size="10.00">imageblock::processing</text>
</a>
</g>
</g>
<!-- Node82&#45;&gt;Node83 -->
<g id="edge12" class="edge"><title>Node82&#45;&gt;Node83</title>
<path fill="none" stroke="midnightblue" d="M1172.42,-191C1183.22,-191 1194.29,-191 1204.84,-191"/>
<polygon fill="midnightblue" stroke="midnightblue" points="1172.17,-187.5 1162.17,-191 1172.17,-194.5 1172.17,-187.5"/>
</g>
<!-- Node84 -->
<g id="node13" class="node"><title>Node84</title>
<g id="a_node13"><a xlink:href="classimage.html#ad5a9d767eca6f9bbb8dcb556527edf4d" target="_top" xlink:title="image::ProcessTiles">
<polygon fill="white" stroke="black" points="1380.5,-181.5 1380.5,-200.5 1486.5,-200.5 1486.5,-181.5 1380.5,-181.5"/>
<text text-anchor="middle" x="1433.5" y="-188.5" font-family="Helvetica,sans-Serif" font-size="10.00">image::ProcessTiles</text>
</a>
</g>
</g>
<!-- Node83&#45;&gt;Node84 -->
<g id="edge13" class="edge"><title>Node83&#45;&gt;Node84</title>
<path fill="none" stroke="midnightblue" d="M1334.78,-191C1349.99,-191 1365.86,-191 1380.27,-191"/>
<polygon fill="midnightblue" stroke="midnightblue" points="1334.38,-187.5 1324.38,-191 1334.38,-194.5 1334.38,-187.5"/>
</g>
<!-- Node84&#45;&gt;Node78 -->
<g id="edge14" class="edge"><title>Node84&#45;&gt;Node78</title>
<path fill="none" stroke="midnightblue" d="M1481.83,-203.112C1502.51,-208.404 1526.42,-214.521 1545.8,-219.48"/>
<polygon fill="midnightblue" stroke="midnightblue" points="1482.53,-199.677 1471.97,-200.589 1480.79,-206.459 1482.53,-199.677"/>
</g>
<!-- Node86 -->
<g id="node15" class="node"><title>Node86</title>
<g id="a_node15"><a xlink:href="class_edge_heap.html#a001dc48506130f599bddb241006d2920" target="_top" xlink:title="EdgeHeap::removeFront">
<polygon fill="white" stroke="black" points="743,-186.5 743,-205.5 866,-205.5 866,-186.5 743,-186.5"/>
<text text-anchor="middle" x="804.5" y="-193.5" font-family="Helvetica,sans-Serif" font-size="10.00">EdgeHeap::removeFront</text>
</a>
</g>
</g>
<!-- Node85&#45;&gt;Node86 -->
<g id="edge16" class="edge"><title>Node85&#45;&gt;Node86</title>
<path fill="none" stroke="midnightblue" d="M580.175,-172.696C628.821,-177.773 695.22,-184.701 742.953,-189.682"/>
<polygon fill="midnightblue" stroke="midnightblue" points="580.386,-169.2 570.077,-171.643 579.659,-176.162 580.386,-169.2"/>
</g>
<!-- Node87 -->
<g id="node16" class="node"><title>Node87</title>
<g id="a_node16"><a xlink:href="class_edge_heap.html#ac36afe05c095a87767748b41dfa831a5" target="_top" xlink:title="EdgeHeap::remove">
<polygon fill="white" stroke="black" points="606,-137.5 606,-156.5 707,-156.5 707,-137.5 606,-137.5"/>
<text text-anchor="middle" x="656.5" y="-144.5" font-family="Helvetica,sans-Serif" font-size="10.00">EdgeHeap::remove</text>
</a>
</g>
</g>
<!-- Node85&#45;&gt;Node87 -->
<g id="edge18" class="edge"><title>Node85&#45;&gt;Node87</title>
<path fill="none" stroke="midnightblue" d="M580.257,-157.248C588.78,-156.087 597.413,-154.912 605.642,-153.791"/>
<polygon fill="midnightblue" stroke="midnightblue" points="579.77,-153.782 570.334,-158.6 580.715,-160.718 579.77,-153.782"/>
</g>
<!-- Node86&#45;&gt;Node75 -->
<g id="edge17" class="edge"><title>Node86&#45;&gt;Node75</title>
<path fill="none" stroke="midnightblue" d="M858.23,-207.757C875.466,-211.601 894.384,-215.819 910.788,-219.476"/>
<polygon fill="midnightblue" stroke="midnightblue" points="858.83,-204.305 848.308,-205.545 857.306,-211.137 858.83,-204.305"/>
</g>
<!-- Node87&#45;&gt;Node88 -->
<g id="edge19" class="edge"><title>Node87&#45;&gt;Node88</title>
<path fill="none" stroke="midnightblue" d="M717.438,-137.558C734.849,-134.815 753.285,-131.911 768.608,-129.497"/>
<polygon fill="midnightblue" stroke="midnightblue" points="716.67,-134.135 707.337,-139.149 717.759,-141.05 716.67,-134.135"/>
</g>
<!-- Node88&#45;&gt;Node75 -->
<g id="edge20" class="edge"><title>Node88&#45;&gt;Node75</title>
<path fill="none" stroke="midnightblue" d="M827.284,-139.455C858.244,-161.42 914.069,-201.025 939.814,-219.29"/>
<polygon fill="midnightblue" stroke="midnightblue" points="829.076,-136.435 818.895,-133.503 825.026,-142.144 829.076,-136.435"/>
</g>
<!-- Node90 -->
<g id="node19" class="node"><title>Node90</title>
<g id="a_node19"><a xlink:href="class_edge_heap.html#a7d8eaf4111da4c024feb5f2fb8d7cafa" target="_top" xlink:title="EdgeHeap::update">
<polygon fill="white" stroke="black" points="607.5,-90.5 607.5,-109.5 705.5,-109.5 705.5,-90.5 607.5,-90.5"/>
<text text-anchor="middle" x="656.5" y="-97.5" font-family="Helvetica,sans-Serif" font-size="10.00">EdgeHeap::update</text>
</a>
</g>
</g>
<!-- Node89&#45;&gt;Node90 -->
<g id="edge22" class="edge"><title>Node89&#45;&gt;Node90</title>
<path fill="none" stroke="midnightblue" d="M578.957,-94.513C588.466,-95.1947 598.145,-95.8885 607.278,-96.5433"/>
<polygon fill="midnightblue" stroke="midnightblue" points="578.964,-91.0046 568.739,-93.7806 578.463,-97.9867 578.964,-91.0046"/>
</g>
<!-- Node90&#45;&gt;Node88 -->
<g id="edge23" class="edge"><title>Node90&#45;&gt;Node88</title>
<path fill="none" stroke="midnightblue" d="M715.806,-109.585C733.743,-112.533 752.915,-115.685 768.744,-118.287"/>
<polygon fill="midnightblue" stroke="midnightblue" points="716.146,-106.094 705.71,-107.925 715.01,-113.001 716.146,-106.094"/>
</g>
<!-- Node92&#45;&gt;Node85 -->
<g id="edge27" class="edge"><title>Node92&#45;&gt;Node85</title>
<path fill="none" stroke="midnightblue" d="M406.818,-136.286C429.997,-142.712 457.95,-150.461 479.496,-156.435"/>
<polygon fill="midnightblue" stroke="midnightblue" points="407.449,-132.829 396.878,-133.53 405.579,-139.575 407.449,-132.829"/>
</g>
<!-- Node92&#45;&gt;Node89 -->
<g id="edge28" class="edge"><title>Node92&#45;&gt;Node89</title>
<path fill="none" stroke="midnightblue" d="M415.098,-112.196C433.518,-108.062 453.958,-103.475 471.453,-99.5485"/>
<polygon fill="midnightblue" stroke="midnightblue" points="414.095,-108.834 405.104,-114.439 415.628,-115.664 414.095,-108.834"/>
</g>
<!-- Node93 -->
<g id="node22" class="node"><title>Node93</title>
<g id="a_node22"><a xlink:href="class_edge_heap.html#ab0a6cd317e3e6c92c0072d3211ecc24b" target="_top" xlink:title="EdgeHeap::insert">
<polygon fill="white" stroke="black" points="469,-118.5 469,-137.5 561,-137.5 561,-118.5 469,-118.5"/>
<text text-anchor="middle" x="515" y="-125.5" font-family="Helvetica,sans-Serif" font-size="10.00">EdgeHeap::insert</text>
</a>
</g>
</g>
<!-- Node92&#45;&gt;Node93 -->
<g id="edge26" class="edge"><title>Node92&#45;&gt;Node93</title>
<path fill="none" stroke="midnightblue" d="M428.387,-125.74C442.052,-126.1 456.152,-126.473 468.869,-126.808"/>
<polygon fill="midnightblue" stroke="midnightblue" points="428.142,-122.232 418.053,-125.467 427.957,-129.23 428.142,-122.232"/>
</g>
<!-- Node94&#45;&gt;Node85 -->
<g id="edge30" class="edge"><title>Node94&#45;&gt;Node85</title>
<path fill="none" stroke="midnightblue" d="M434.16,-163.892C442.762,-164.119 451.435,-164.348 459.733,-164.567"/>
<polygon fill="midnightblue" stroke="midnightblue" points="434.21,-160.392 424.121,-163.627 434.025,-167.39 434.21,-160.392"/>
</g>
<!-- Node94&#45;&gt;Node89 -->
<g id="edge31" class="edge"><title>Node94&#45;&gt;Node89</title>
<path fill="none" stroke="midnightblue" d="M412.458,-148.745C416.463,-147.032 420.362,-145.123 424,-143 443.008,-131.908 441.21,-120.458 460,-109 466.109,-105.275 473.054,-102.142 479.88,-99.563"/>
<polygon fill="midnightblue" stroke="midnightblue" points="411.065,-145.531 402.993,-152.394 413.583,-152.063 411.065,-145.531"/>
</g>
</g>
</svg>
