<?xml version="1.0" encoding="UTF-8" standalone="no"?>
<!DOCTYPE svg PUBLIC "-//W3C//DTD SVG 1.1//EN"
 "http://www.w3.org/Graphics/SVG/1.1/DTD/svg11.dtd">
<!-- Generated by graphviz version 2.38.0 (20140413.2041)
 -->
<!-- Title: EdgeHeap::push_back Pages: 1 -->
<!--zoomable 85 -->
<svg id="main" version="1.1" xmlns="http://www.w3.org/2000/svg" xmlns:xlink="http://www.w3.org/1999/xlink" xml:space="preserve" onload="init(evt)">
<style type="text/css"><![CDATA[
.edge:hover path { stroke: red; }
.edge:hover polygon { stroke: red; fill: red; }
]]></style>
<script type="text/javascript"><![CDATA[
var edges = document.getElementsByTagName('g');
if (edges && edges.length) {
  for (var i=0;i<edges.length;i++) {
    if (edges[i].id.substr(0,4)=='edge') {
      edges[i].setAttribute('class','edge');
    }
  }
}
]]></script>
        <defs>
                <circle id="rim" cx="0" cy="0" r="7"/>
                <circle id="rim2" cx="0" cy="0" r="3.5"/>
                <g id="zoomPlus">
                        <use xlink:href="#rim" fill="#404040">
                                <set attributeName="fill" to="#808080" begin="zoomplus.mouseover" end="zoomplus.mouseout"/>
                        </use>
                        <path d="M-4,0h8M0,-4v8" fill="none" stroke="white" stroke-width="1.5" pointer-events="none"/>
                </g>
                <g id="zoomMin">
                        <use xlink:href="#rim" fill="#404040">
                                <set attributeName="fill" to="#808080" begin="zoomminus.mouseover" end="zoomminus.mouseout"/>
                        </use>
                        <path d="M-4,0h8" fill="none" stroke="white" stroke-width="1.5" pointer-events="none"/>
                </g>
                <g id="dirArrow">
                        <path fill="none" stroke="white" stroke-width="1.5" d="M0,-3.0v7 M-2.5,-0.5L0,-3.0L2.5,-0.5"/>
                </g>
               <g id="resetDef">
                       <use xlink:href="#rim2" fill="#404040">
                               <set attributeName="fill" to="#808080" begin="reset.mouseover" end="reset.mouseout"/>
                       </use>
               </g>
        </defs>

<script type="text/javascript">
var viewWidth = 1156;
var viewHeight = 85;
var sectionId = 'dynsection-11';
</script>
<script xlink:href="svgpan.js"/>
<svg id="graph" class="graph">
<g id="viewport">
<title>EdgeHeap::push_back</title>
<polygon fill="white" stroke="none" points="-4,4 -4,-81 1152,-81 1152,4 -4,4"/>
<!-- Node141 -->
<g id="node1" class="node"><title>Node141</title>
<polygon fill="#bfbfbf" stroke="black" points="0,-38.5 0,-57.5 116,-57.5 116,-38.5 0,-38.5"/>
<text text-anchor="middle" x="58" y="-45.5" font-family="Helvetica,sans-Serif" font-size="10.00">EdgeHeap::push_back</text>
</g>
<!-- Node142 -->
<g id="node2" class="node"><title>Node142</title>
<g id="a_node2"><a xlink:href="class_r_a_g.html#a7e9e7021580e97ce5cac0ca30ccd8119" target="_top" xlink:title="RAG::addEdge">
<polygon fill="white" stroke="black" points="152,-38.5 152,-57.5 235,-57.5 235,-38.5 152,-38.5"/>
<text text-anchor="middle" x="193.5" y="-45.5" font-family="Helvetica,sans-Serif" font-size="10.00">RAG::addEdge</text>
</a>
</g>
</g>
<!-- Node141&#45;&gt;Node142 -->
<g id="edge1" class="edge"><title>Node141&#45;&gt;Node142</title>
<path fill="none" stroke="midnightblue" d="M126.235,-48C134.978,-48 143.709,-48 151.83,-48"/>
<polygon fill="midnightblue" stroke="midnightblue" points="126.003,-44.5001 116.003,-48 126.003,-51.5001 126.003,-44.5001"/>
</g>
<!-- Node143 -->
<g id="node3" class="node"><title>Node143</title>
<g id="a_node3"><a xlink:href="classinitializer.html#a900944d3d61eb5da03b64cd96e8dac8e" target="_top" xlink:title="initializer::connect">
<polygon fill="white" stroke="black" points="275.5,-57.5 275.5,-76.5 370.5,-76.5 370.5,-57.5 275.5,-57.5"/>
<text text-anchor="middle" x="323" y="-64.5" font-family="Helvetica,sans-Serif" font-size="10.00">initializer::connect</text>
</a>
</g>
</g>
<!-- Node142&#45;&gt;Node143 -->
<g id="edge2" class="edge"><title>Node142&#45;&gt;Node143</title>
<path fill="none" stroke="midnightblue" d="M245.357,-55.5787C255.304,-57.061 265.688,-58.6084 275.485,-60.0683"/>
<polygon fill="midnightblue" stroke="midnightblue" points="245.599,-52.0762 235.192,-54.064 244.567,-58.9997 245.599,-52.0762"/>
</g>
<!-- Node144 -->
<g id="node4" class="node"><title>Node144</title>
<g id="a_node4"><a xlink:href="classinitializer.html#a3b9f79140d510e7aea1287bfe891e8b9" target="_top" xlink:title="initializer::addEdges">
<polygon fill="white" stroke="black" points="271,-19.5 271,-38.5 375,-38.5 375,-19.5 271,-19.5"/>
<text text-anchor="middle" x="323" y="-26.5" font-family="Helvetica,sans-Serif" font-size="10.00">initializer::addEdges</text>
</a>
</g>
</g>
<!-- Node142&#45;&gt;Node144 -->
<g id="edge3" class="edge"><title>Node142&#45;&gt;Node144</title>
<path fill="none" stroke="midnightblue" d="M245.293,-40.4309C253.737,-39.1726 262.497,-37.8671 270.947,-36.6079"/>
<polygon fill="midnightblue" stroke="midnightblue" points="244.567,-37.0003 235.192,-41.936 245.599,-43.9238 244.567,-37.0003"/>
</g>
<!-- Node145 -->
<g id="node5" class="node"><title>Node145</title>
<g id="a_node5"><a xlink:href="classinitializer.html#aaa8cb78ad7655020875fa970001d899e" target="_top" xlink:title="initializer::initializeRag">
<polygon fill="white" stroke="black" points="411,-19.5 411,-38.5 525,-38.5 525,-19.5 411,-19.5"/>
<text text-anchor="middle" x="468" y="-26.5" font-family="Helvetica,sans-Serif" font-size="10.00">initializer::initializeRag</text>
</a>
</g>
</g>
<!-- Node144&#45;&gt;Node145 -->
<g id="edge4" class="edge"><title>Node144&#45;&gt;Node145</title>
<path fill="none" stroke="midnightblue" d="M385.39,-29C393.83,-29 402.463,-29 410.803,-29"/>
<polygon fill="midnightblue" stroke="midnightblue" points="385.222,-25.5001 375.222,-29 385.222,-32.5001 385.222,-25.5001"/>
</g>
<!-- Node146 -->
<g id="node6" class="node"><title>Node146</title>
<g id="a_node6"><a xlink:href="classimage.html#a12343719e8d96a4bda9c5bd6c035d52a" target="_top" xlink:title="image::mergeBlockX">
<polygon fill="white" stroke="black" points="561,-38.5 561,-57.5 668,-57.5 668,-38.5 561,-38.5"/>
<text text-anchor="middle" x="614.5" y="-45.5" font-family="Helvetica,sans-Serif" font-size="10.00">image::mergeBlockX</text>
</a>
</g>
</g>
<!-- Node145&#45;&gt;Node146 -->
<g id="edge5" class="edge"><title>Node145&#45;&gt;Node146</title>
<path fill="none" stroke="midnightblue" d="M535.288,-37.716C543.881,-38.846 552.588,-39.9908 560.917,-41.086"/>
<polygon fill="midnightblue" stroke="midnightblue" points="535.652,-34.2339 525.281,-36.4003 534.74,-41.1742 535.652,-34.2339"/>
</g>
<!-- Node150 -->
<g id="node10" class="node"><title>Node150</title>
<g id="a_node10"><a xlink:href="classimage.html#aa21fc5a07af7528869425e750090b3b8" target="_top" xlink:title="image::mergeBlockY">
<polygon fill="white" stroke="black" points="561,-0.5 561,-19.5 668,-19.5 668,-0.5 561,-0.5"/>
<text text-anchor="middle" x="614.5" y="-7.5" font-family="Helvetica,sans-Serif" font-size="10.00">image::mergeBlockY</text>
</a>
</g>
</g>
<!-- Node145&#45;&gt;Node150 -->
<g id="edge9" class="edge"><title>Node145&#45;&gt;Node150</title>
<path fill="none" stroke="midnightblue" d="M535.288,-20.284C543.881,-19.154 552.588,-18.0092 560.917,-16.914"/>
<polygon fill="midnightblue" stroke="midnightblue" points="534.74,-16.8258 525.281,-21.5997 535.652,-23.7661 534.74,-16.8258"/>
</g>
<!-- Node147 -->
<g id="node7" class="node"><title>Node147</title>
<g id="a_node7"><a xlink:href="classimage.html#a83026280ad6cc713ec9489ff3bd9776e" target="_top" xlink:title="image::ProcessBoundaryX">
<polygon fill="white" stroke="black" points="704,-38.5 704,-57.5 837,-57.5 837,-38.5 704,-38.5"/>
<text text-anchor="middle" x="770.5" y="-45.5" font-family="Helvetica,sans-Serif" font-size="10.00">image::ProcessBoundaryX</text>
</a>
</g>
</g>
<!-- Node146&#45;&gt;Node147 -->
<g id="edge6" class="edge"><title>Node146&#45;&gt;Node147</title>
<path fill="none" stroke="midnightblue" d="M678.216,-48C686.656,-48 695.334,-48 703.824,-48"/>
<polygon fill="midnightblue" stroke="midnightblue" points="678.067,-44.5001 668.067,-48 678.067,-51.5001 678.067,-44.5001"/>
</g>
<!-- Node148 -->
<g id="node8" class="node"><title>Node148</title>
<g id="a_node8"><a xlink:href="classimage.html#a4689c56b85c46d48ea52f0c9fa13891e" target="_top" xlink:title="image::processing">
<polygon fill="white" stroke="black" points="873,-19.5 873,-38.5 969,-38.5 969,-19.5 873,-19.5"/>
<text text-anchor="middle" x="921" y="-26.5" font-family="Helvetica,sans-Serif" font-size="10.00">image::processing</text>
</a>
</g>
</g>
<!-- Node147&#45;&gt;Node148 -->
<g id="edge7" class="edge"><title>Node147&#45;&gt;Node148</title>
<path fill="none" stroke="midnightblue" d="M847.207,-38.3136C855.858,-37.2067 864.483,-36.1032 872.612,-35.0631"/>
<polygon fill="midnightblue" stroke="midnightblue" points="846.541,-34.8701 837.067,-39.611 847.43,-41.8135 846.541,-34.8701"/>
</g>
<!-- Node149 -->
<g id="node9" class="node"><title>Node149</title>
<g id="a_node9"><a xlink:href="class_main_window.html#a9a45eb9ebe6d27bcd23677d9fbb74dd8" target="_top" xlink:title="MainWindow::on_Go_clicked">
<polygon fill="white" stroke="black" points="1005,-19.5 1005,-38.5 1148,-38.5 1148,-19.5 1005,-19.5"/>
<text text-anchor="middle" x="1076.5" y="-26.5" font-family="Helvetica,sans-Serif" font-size="10.00">MainWindow::on_Go_clicked</text>
</a>
</g>
</g>
<!-- Node148&#45;&gt;Node149 -->
<g id="edge8" class="edge"><title>Node148&#45;&gt;Node149</title>
<path fill="none" stroke="midnightblue" d="M979.583,-29C987.853,-29 996.441,-29 1004.93,-29"/>
<polygon fill="midnightblue" stroke="midnightblue" points="979.308,-25.5001 969.308,-29 979.308,-32.5001 979.308,-25.5001"/>
</g>
<!-- Node151 -->
<g id="node11" class="node"><title>Node151</title>
<g id="a_node11"><a xlink:href="classimage.html#adf6b8c126649c9a40387f12b5f5f07d5" target="_top" xlink:title="image::ProcessBoundaryY">
<polygon fill="white" stroke="black" points="704,-0.5 704,-19.5 837,-19.5 837,-0.5 704,-0.5"/>
<text text-anchor="middle" x="770.5" y="-7.5" font-family="Helvetica,sans-Serif" font-size="10.00">image::ProcessBoundaryY</text>
</a>
</g>
</g>
<!-- Node150&#45;&gt;Node151 -->
<g id="edge10" class="edge"><title>Node150&#45;&gt;Node151</title>
<path fill="none" stroke="midnightblue" d="M678.216,-10C686.656,-10 695.334,-10 703.824,-10"/>
<polygon fill="midnightblue" stroke="midnightblue" points="678.067,-6.5001 668.067,-10 678.067,-13.5001 678.067,-6.5001"/>
</g>
<!-- Node151&#45;&gt;Node148 -->
<g id="edge11" class="edge"><title>Node151&#45;&gt;Node148</title>
<path fill="none" stroke="midnightblue" d="M847.207,-19.6864C855.858,-20.7933 864.483,-21.8968 872.612,-22.9369"/>
<polygon fill="midnightblue" stroke="midnightblue" points="847.43,-16.1865 837.067,-18.389 846.541,-23.1299 847.43,-16.1865"/>
</g>
</g>
</svg>
        <g id="navigator" transform="translate(0 0)" fill="#404254">
                <rect fill="#f2f5e9" fill-opacity="0.5" stroke="#606060" stroke-width=".5" x="0" y="0" width="60" height="60"/>
                <use id="zoomplus" xlink:href="#zoomPlus" x="17" y="9" onmousedown="handleZoom(evt,'in')"/>
                <use id="zoomminus" xlink:href="#zoomMin" x="42" y="9" onmousedown="handleZoom(evt,'out')"/>
                <use id="reset" xlink:href="#resetDef" x="30" y="36" onmousedown="handleReset()"/>
                <g id="arrowUp" xlink:href="#dirArrow" transform="translate(30 24)" onmousedown="handlePan(0,-1)">
                  <use xlink:href="#rim" fill="#404040">
                        <set attributeName="fill" to="#808080" begin="arrowUp.mouseover" end="arrowUp.mouseout"/>
                  </use>
                  <path fill="none" stroke="white" stroke-width="1.5" d="M0,-3.0v7 M-2.5,-0.5L0,-3.0L2.5,-0.5"/>
                </g>
                <g id="arrowRight" xlink:href="#dirArrow" transform="rotate(90) translate(36 -43)" onmousedown="handlePan(1,0)">
                  <use xlink:href="#rim" fill="#404040">
                        <set attributeName="fill" to="#808080" begin="arrowRight.mouseover" end="arrowRight.mouseout"/>
                  </use>
                  <path fill="none" stroke="white" stroke-width="1.5" d="M0,-3.0v7 M-2.5,-0.5L0,-3.0L2.5,-0.5"/>
                </g>
                <g id="arrowDown" xlink:href="#dirArrow" transform="rotate(180) translate(-30 -48)" onmousedown="handlePan(0,1)">
                  <use xlink:href="#rim" fill="#404040">
                        <set attributeName="fill" to="#808080" begin="arrowDown.mouseover" end="arrowDown.mouseout"/>
                  </use>
                  <path fill="none" stroke="white" stroke-width="1.5" d="M0,-3.0v7 M-2.5,-0.5L0,-3.0L2.5,-0.5"/>
                </g>
                <g id="arrowLeft" xlink:href="#dirArrow" transform="rotate(270) translate(-36 17)" onmousedown="handlePan(-1,0)">
                  <use xlink:href="#rim" fill="#404040">
                        <set attributeName="fill" to="#808080" begin="arrowLeft.mouseover" end="arrowLeft.mouseout"/>
                  </use>
                  <path fill="none" stroke="white" stroke-width="1.5" d="M0,-3.0v7 M-2.5,-0.5L0,-3.0L2.5,-0.5"/>
                </g>
        </g>
        <svg viewBox="0 0 15 15" width="100%" height="30px" preserveAspectRatio="xMaxYMin meet">
         <g id="arrow_out" transform="scale(0.3 0.3)">
          <a xlink:href="class_edge_heap_a00862191edc866b129f0a735a81861bf_icgraph_org.svg" target="_base">
           <rect id="button" ry="5" rx="5" y="6" x="6" height="38" width="38"
                fill="#f2f5e9" fill-opacity="0.5" stroke="#606060" stroke-width="1.0"/>
           <path id="arrow"
             d="M 11.500037,31.436501 C 11.940474,20.09759 22.043105,11.32322 32.158766,21.979434 L 37.068811,17.246167 C 37.068811,17.246167 37.088388,32 37.088388,32 L 22.160133,31.978069 C 22.160133,31.978069 26.997745,27.140456 26.997745,27.140456 C 18.528582,18.264221 13.291696,25.230495 11.500037,31.436501 z"
             style="fill:#404040;"/>
          </a>
         </g>
        </svg>
</svg>
