<?xml version="1.0" encoding="UTF-8" standalone="no"?>
<!DOCTYPE svg PUBLIC "-//W3C//DTD SVG 1.1//EN"
 "http://www.w3.org/Graphics/SVG/1.1/DTD/svg11.dtd">
<!-- Generated by graphviz version 2.38.0 (20140413.2041)
 -->
<!-- Title: compoundModel::cutCost Pages: 1 -->
<svg width="300pt" height="66pt"
 viewBox="0.00 0.00 300.00 66.00" xmlns="http://www.w3.org/2000/svg" xmlns:xlink="http://www.w3.org/1999/xlink">
<g id="graph0" class="graph" transform="scale(1 1) rotate(0) translate(4 62)">
<title>compoundModel::cutCost</title>
<polygon fill="white" stroke="none" points="-4,4 -4,-62 296,-62 296,4 -4,4"/>
<!-- Node1 -->
<g id="node1" class="node"><title>Node1</title>
<polygon fill="#bfbfbf" stroke="black" points="0,-19.5 0,-38.5 128,-38.5 128,-19.5 0,-19.5"/>
<text text-anchor="middle" x="64" y="-26.5" font-family="Helvetica,sans-Serif" font-size="10.00">compoundModel::cutCost</text>
</g>
<!-- Node2 -->
<g id="node2" class="node"><title>Node2</title>
<g id="a_node2"><a xlink:href="classhistogram_model.html#ae1b6e5247c3c5fddff0ff32a7aff5365" target="_top" xlink:title="histogramModel::cutCost">
<polygon fill="white" stroke="black" points="165,-38.5 165,-57.5 291,-57.5 291,-38.5 165,-38.5"/>
<text text-anchor="middle" x="228" y="-45.5" font-family="Helvetica,sans-Serif" font-size="10.00">histogramModel::cutCost</text>
</a>
</g>
</g>
<!-- Node1&#45;&gt;Node2 -->
<g id="edge1" class="edge"><title>Node1&#45;&gt;Node2</title>
<path fill="none" stroke="midnightblue" d="M128.097,-36.4003C136.876,-37.4299 145.95,-38.4941 154.878,-39.5413"/>
<polygon fill="midnightblue" stroke="midnightblue" points="154.534,-43.0248 164.873,-40.7135 155.349,-36.0724 154.534,-43.0248"/>
</g>
<!-- Node3 -->
<g id="node3" class="node"><title>Node3</title>
<g id="a_node3"><a xlink:href="classprobability_model.html#a93730846f752dea968b81c2e9d087ff7" target="_top" xlink:title="return the probability std::vector ">
<polygon fill="white" stroke="black" points="164,-0.5 164,-19.5 292,-19.5 292,-0.5 164,-0.5"/>
<text text-anchor="middle" x="228" y="-7.5" font-family="Helvetica,sans-Serif" font-size="10.00">probabilityModel::cutCost</text>
</a>
</g>
</g>
<!-- Node1&#45;&gt;Node3 -->
<g id="edge2" class="edge"><title>Node1&#45;&gt;Node3</title>
<path fill="none" stroke="midnightblue" d="M128.097,-21.5997C136.526,-20.6111 145.227,-19.5906 153.81,-18.584"/>
<polygon fill="midnightblue" stroke="midnightblue" points="154.284,-22.0525 163.808,-17.4114 153.469,-15.1001 154.284,-22.0525"/>
</g>
</g>
</svg>
