<?xml version="1.0" encoding="UTF-8" standalone="no"?>
<!DOCTYPE svg PUBLIC "-//W3C//DTD SVG 1.1//EN"
 "http://www.w3.org/Graphics/SVG/1.1/DTD/svg11.dtd">
<!-- Generated by graphviz version 2.38.0 (20140413.2041)
 -->
<!-- Title: RAG::merge Pages: 1 -->
<svg width="1000pt" height="750pt"
 viewBox="0.00 0.00 1000.00 750.00" xmlns="http://www.w3.org/2000/svg" xmlns:xlink="http://www.w3.org/1999/xlink">
<g id="graph0" class="graph" transform="scale(1 1) rotate(0) translate(4 746)">
<title>RAG::merge</title>
<polygon fill="white" stroke="none" points="-4,4 -4,-746 996,-746 996,4 -4,4"/>
<!-- Node1 -->
<g id="node1" class="node"><title>Node1</title>
<polygon fill="#bfbfbf" stroke="black" points="0,-361.5 0,-380.5 71,-380.5 71,-361.5 0,-361.5"/>
<text text-anchor="middle" x="35.5" y="-368.5" font-family="Helvetica,sans-Serif" font-size="10.00">RAG::merge</text>
</g>
<!-- Node2 -->
<g id="node2" class="node"><title>Node2</title>
<g id="a_node2"><a xlink:href="class_node.html#a86573dcde1125e02936ee7c256fb270a" target="_top" xlink:title="Node::addEdge">
<polygon fill="white" stroke="black" points="127,-722.5 127,-741.5 211,-741.5 211,-722.5 127,-722.5"/>
<text text-anchor="middle" x="169" y="-729.5" font-family="Helvetica,sans-Serif" font-size="10.00">Node::addEdge</text>
</a>
</g>
</g>
<!-- Node1&#45;&gt;Node2 -->
<g id="edge1" class="edge"><title>Node1&#45;&gt;Node2</title>
<path fill="none" stroke="midnightblue" d="M37.1804,-380.541C40.9286,-430.517 60.6005,-661.781 107,-713 110.057,-716.374 113.702,-719.155 117.667,-721.446"/>
<polygon fill="midnightblue" stroke="midnightblue" points="116.218,-724.632 126.757,-725.718 119.196,-718.297 116.218,-724.632"/>
</g>
<!-- Node3 -->
<g id="node3" class="node"><title>Node3</title>
<g id="a_node3"><a xlink:href="class_node.html#a2784134529ab6341bf028b0d40660870" target="_top" xlink:title="Node::getBoarderIndexX">
<polygon fill="white" stroke="black" points="107,-684.5 107,-703.5 231,-703.5 231,-684.5 107,-684.5"/>
<text text-anchor="middle" x="169" y="-691.5" font-family="Helvetica,sans-Serif" font-size="10.00">Node::getBoarderIndexX</text>
</a>
</g>
</g>
<!-- Node1&#45;&gt;Node3 -->
<g id="edge2" class="edge"><title>Node1&#45;&gt;Node3</title>
<path fill="none" stroke="midnightblue" d="M37.4614,-380.698C42.2918,-427.56 65.3424,-630.137 107,-675 108.359,-676.463 109.828,-677.814 111.385,-679.062"/>
<polygon fill="midnightblue" stroke="midnightblue" points="109.501,-682.012 119.804,-684.48 113.289,-676.126 109.501,-682.012"/>
</g>
<!-- Node4 -->
<g id="node4" class="node"><title>Node4</title>
<g id="a_node4"><a xlink:href="class_node.html#a44362e2817f8eb2fd21b78f39797c48c" target="_top" xlink:title="Node::getBoarderIndexY">
<polygon fill="white" stroke="black" points="107,-646.5 107,-665.5 231,-665.5 231,-646.5 107,-646.5"/>
<text text-anchor="middle" x="169" y="-653.5" font-family="Helvetica,sans-Serif" font-size="10.00">Node::getBoarderIndexY</text>
</a>
</g>
</g>
<!-- Node1&#45;&gt;Node4 -->
<g id="edge3" class="edge"><title>Node1&#45;&gt;Node4</title>
<path fill="none" stroke="midnightblue" d="M35.987,-380.538C34.4854,-418.561 34.1243,-560.931 107,-637 108.381,-638.442 109.87,-639.775 111.444,-641.007"/>
<polygon fill="midnightblue" stroke="midnightblue" points="109.601,-643.983 119.924,-646.368 113.341,-638.066 109.601,-643.983"/>
</g>
<!-- Node5 -->
<g id="node5" class="node"><title>Node5</title>
<g id="a_node5"><a xlink:href="class_node.html#a6e506795cafa9ed120f236b58f32e3c5" target="_top" xlink:title="Node::getEdges">
<polygon fill="white" stroke="black" points="125.5,-608.5 125.5,-627.5 212.5,-627.5 212.5,-608.5 125.5,-608.5"/>
<text text-anchor="middle" x="169" y="-615.5" font-family="Helvetica,sans-Serif" font-size="10.00">Node::getEdges</text>
</a>
</g>
</g>
<!-- Node1&#45;&gt;Node5 -->
<g id="edge4" class="edge"><title>Node1&#45;&gt;Node5</title>
<path fill="none" stroke="midnightblue" d="M36.4882,-380.831C36.9938,-415.787 43.4909,-535.36 107,-599 109.706,-601.711 112.791,-604.037 116.105,-606.031"/>
<polygon fill="midnightblue" stroke="midnightblue" points="114.79,-609.285 125.306,-610.575 117.889,-603.009 114.79,-609.285"/>
</g>
<!-- Node6 -->
<g id="node6" class="node"><title>Node6</title>
<g id="a_node6"><a xlink:href="class_edge.html#ac5e6bca7dbde5cdd88579b1081ebe1db" target="_top" xlink:title="Edge::getLength">
<polygon fill="white" stroke="black" points="125,-570.5 125,-589.5 213,-589.5 213,-570.5 125,-570.5"/>
<text text-anchor="middle" x="169" y="-577.5" font-family="Helvetica,sans-Serif" font-size="10.00">Edge::getLength</text>
</a>
</g>
</g>
<!-- Node1&#45;&gt;Node6 -->
<g id="edge5" class="edge"><title>Node1&#45;&gt;Node6</title>
<path fill="none" stroke="midnightblue" d="M37.1957,-380.917C39.9242,-412.147 52.6139,-509.441 107,-561 109.615,-563.479 112.548,-565.635 115.677,-567.509"/>
<polygon fill="midnightblue" stroke="midnightblue" points="114.397,-570.781 124.912,-572.083 117.504,-564.508 114.397,-570.781"/>
</g>
<!-- Node7 -->
<g id="node7" class="node"><title>Node7</title>
<g id="a_node7"><a xlink:href="class_node.html#adcc7f26a2ccf3a8fcc387ed820624d99" target="_top" xlink:title="Node::getModel">
<polygon fill="white" stroke="black" points="126,-532.5 126,-551.5 212,-551.5 212,-532.5 126,-532.5"/>
<text text-anchor="middle" x="169" y="-539.5" font-family="Helvetica,sans-Serif" font-size="10.00">Node::getModel</text>
</a>
</g>
</g>
<!-- Node1&#45;&gt;Node7 -->
<g id="edge6" class="edge"><title>Node1&#45;&gt;Node7</title>
<path fill="none" stroke="midnightblue" d="M38.5447,-380.709C44.4827,-406.612 64.0998,-478.096 107,-518 111.324,-522.022 116.401,-525.4 121.749,-528.229"/>
<polygon fill="midnightblue" stroke="midnightblue" points="120.375,-531.45 130.919,-532.489 123.324,-525.101 120.375,-531.45"/>
</g>
<!-- Node8 -->
<g id="node8" class="node"><title>Node8</title>
<g id="a_node8"><a xlink:href="class_edge.html#aaaa9cb49c141b310873cd75fd493e22d" target="_top" xlink:title="Edge::getNode1">
<polygon fill="white" stroke="black" points="756,-512.5 756,-531.5 843,-531.5 843,-512.5 756,-512.5"/>
<text text-anchor="middle" x="799.5" y="-519.5" font-family="Helvetica,sans-Serif" font-size="10.00">Edge::getNode1</text>
</a>
</g>
</g>
<!-- Node1&#45;&gt;Node8 -->
<g id="edge7" class="edge"><title>Node1&#45;&gt;Node8</title>
<path fill="none" stroke="midnightblue" d="M39.2964,-380.704C46.3837,-403.361 67.3637,-459.73 107,-485 212.327,-552.151 602.282,-534.665 745.391,-525.7"/>
<polygon fill="midnightblue" stroke="midnightblue" points="745.906,-529.175 755.663,-525.045 745.461,-522.189 745.906,-529.175"/>
</g>
<!-- Node9 -->
<g id="node9" class="node"><title>Node9</title>
<g id="a_node9"><a xlink:href="class_edge.html#a50017668f77ed019a5caceafbb1eb16f" target="_top" xlink:title="Edge::getNode2">
<polygon fill="white" stroke="black" points="756,-332.5 756,-351.5 843,-351.5 843,-332.5 756,-332.5"/>
<text text-anchor="middle" x="799.5" y="-339.5" font-family="Helvetica,sans-Serif" font-size="10.00">Edge::getNode2</text>
</a>
</g>
</g>
<!-- Node1&#45;&gt;Node9 -->
<g id="edge8" class="edge"><title>Node1&#45;&gt;Node9</title>
<path fill="none" stroke="midnightblue" d="M71.2903,-371.535C110.211,-372.009 175.133,-372.427 231,-371 420.547,-366.16 645.358,-352.241 745.642,-345.604"/>
<polygon fill="midnightblue" stroke="midnightblue" points="746.069,-349.084 755.814,-344.928 745.604,-342.099 746.069,-349.084"/>
</g>
<!-- Node10 -->
<g id="node10" class="node"><title>Node10</title>
<g id="a_node10"><a xlink:href="classregion_model.html#a109b2dd106c9fbda2a9db402d0021fe9" target="_top" xlink:title="regionModel::merge">
<polygon fill="white" stroke="black" points="118,-342.5 118,-361.5 220,-361.5 220,-342.5 118,-342.5"/>
<text text-anchor="middle" x="169" y="-349.5" font-family="Helvetica,sans-Serif" font-size="10.00">regionModel::merge</text>
</a>
</g>
</g>
<!-- Node1&#45;&gt;Node10 -->
<g id="edge9" class="edge"><title>Node1&#45;&gt;Node10</title>
<path fill="none" stroke="midnightblue" d="M71.0501,-366.008C82.3385,-364.377 95.2241,-362.515 107.834,-360.693"/>
<polygon fill="midnightblue" stroke="midnightblue" points="108.455,-364.14 117.852,-359.246 107.454,-357.212 108.455,-364.14"/>
</g>
<!-- Node11 -->
<g id="node11" class="node"><title>Node11</title>
<g id="a_node11"><a xlink:href="class_edge_heap.html#ac36afe05c095a87767748b41dfa831a5" target="_top" xlink:title="EdgeHeap::remove">
<polygon fill="white" stroke="black" points="118.5,-418.5 118.5,-437.5 219.5,-437.5 219.5,-418.5 118.5,-418.5"/>
<text text-anchor="middle" x="169" y="-425.5" font-family="Helvetica,sans-Serif" font-size="10.00">EdgeHeap::remove</text>
</a>
</g>
</g>
<!-- Node1&#45;&gt;Node11 -->
<g id="edge10" class="edge"><title>Node1&#45;&gt;Node11</title>
<path fill="none" stroke="midnightblue" d="M56.1024,-380.581C70.1654,-387.354 89.6207,-396.522 107,-404 115.431,-407.627 124.604,-411.351 133.214,-414.751"/>
<polygon fill="midnightblue" stroke="midnightblue" points="132.04,-418.049 142.628,-418.429 134.587,-411.529 132.04,-418.049"/>
</g>
<!-- Node21 -->
<g id="node21" class="node"><title>Node21</title>
<g id="a_node21"><a xlink:href="class_node.html#a65e1a7962c09ea80b33c2eb57ce4f362" target="_top" xlink:title="Node::removeAllEdges">
<polygon fill="white" stroke="black" points="110.5,-304.5 110.5,-323.5 227.5,-323.5 227.5,-304.5 110.5,-304.5"/>
<text text-anchor="middle" x="169" y="-311.5" font-family="Helvetica,sans-Serif" font-size="10.00">Node::removeAllEdges</text>
</a>
</g>
</g>
<!-- Node1&#45;&gt;Node21 -->
<g id="edge24" class="edge"><title>Node1&#45;&gt;Node21</title>
<path fill="none" stroke="midnightblue" d="M52.3065,-361.338C66.3174,-353.054 87.5186,-341.194 107,-333 112.371,-330.741 118.106,-328.609 123.83,-326.647"/>
<polygon fill="midnightblue" stroke="midnightblue" points="124.975,-329.955 133.386,-323.513 122.793,-323.304 124.975,-329.955"/>
</g>
<!-- Node22 -->
<g id="node22" class="node"><title>Node22</title>
<g id="a_node22"><a xlink:href="class_node.html#a317d8090ed6ef5766b587a21038888b7" target="_top" xlink:title="Node::removeEdge">
<polygon fill="white" stroke="black" points="118.5,-266.5 118.5,-285.5 219.5,-285.5 219.5,-266.5 118.5,-266.5"/>
<text text-anchor="middle" x="169" y="-273.5" font-family="Helvetica,sans-Serif" font-size="10.00">Node::removeEdge</text>
</a>
</g>
</g>
<!-- Node1&#45;&gt;Node22 -->
<g id="edge25" class="edge"><title>Node1&#45;&gt;Node22</title>
<path fill="none" stroke="midnightblue" d="M42.8991,-361.324C54.0349,-345.227 78.5294,-312.946 107,-295 110.336,-292.897 113.921,-291.012 117.622,-289.325"/>
<polygon fill="midnightblue" stroke="midnightblue" points="119.035,-292.529 126.986,-285.527 116.404,-286.042 119.035,-292.529"/>
</g>
<!-- Node23 -->
<g id="node23" class="node"><title>Node23</title>
<g id="a_node23"><a xlink:href="class_node.html#a9305e6376add78eafd94f198df0ee745" target="_top" xlink:title="Node::setBoarderIndexX">
<polygon fill="white" stroke="black" points="107,-228.5 107,-247.5 231,-247.5 231,-228.5 107,-228.5"/>
<text text-anchor="middle" x="169" y="-235.5" font-family="Helvetica,sans-Serif" font-size="10.00">Node::setBoarderIndexX</text>
</a>
</g>
</g>
<!-- Node1&#45;&gt;Node23 -->
<g id="edge26" class="edge"><title>Node1&#45;&gt;Node23</title>
<path fill="none" stroke="midnightblue" d="M39.7452,-361.443C47.6547,-339.591 70.0332,-285.657 107,-257 109.42,-255.124 112.028,-253.431 114.755,-251.904"/>
<polygon fill="midnightblue" stroke="midnightblue" points="116.283,-255.053 123.784,-247.571 113.254,-248.743 116.283,-255.053"/>
</g>
<!-- Node24 -->
<g id="node24" class="node"><title>Node24</title>
<g id="a_node24"><a xlink:href="class_node.html#aa969843e599c724456cc743b8b7f0f3b" target="_top" xlink:title="Node::setBoarderIndexY">
<polygon fill="white" stroke="black" points="107,-190.5 107,-209.5 231,-209.5 231,-190.5 107,-190.5"/>
<text text-anchor="middle" x="169" y="-197.5" font-family="Helvetica,sans-Serif" font-size="10.00">Node::setBoarderIndexY</text>
</a>
</g>
</g>
<!-- Node1&#45;&gt;Node24 -->
<g id="edge27" class="edge"><title>Node1&#45;&gt;Node24</title>
<path fill="none" stroke="midnightblue" d="M38.2053,-361.177C43.3894,-334.292 61.481,-258.861 107,-219 108.935,-217.306 111.02,-215.762 113.212,-214.356"/>
<polygon fill="midnightblue" stroke="midnightblue" points="114.945,-217.398 122.104,-209.588 111.637,-211.229 114.945,-217.398"/>
</g>
<!-- Node25 -->
<g id="node25" class="node"><title>Node25</title>
<g id="a_node25"><a xlink:href="class_node.html#a6ede207fb67e5aa1fb80f0230074a0c0" target="_top" xlink:title="Node::setLeftChild">
<polygon fill="white" stroke="black" points="120,-152.5 120,-171.5 218,-171.5 218,-152.5 120,-152.5"/>
<text text-anchor="middle" x="169" y="-159.5" font-family="Helvetica,sans-Serif" font-size="10.00">Node::setLeftChild</text>
</a>
</g>
</g>
<!-- Node1&#45;&gt;Node25 -->
<g id="edge28" class="edge"><title>Node1&#45;&gt;Node25</title>
<path fill="none" stroke="midnightblue" d="M37.1957,-361.083C39.9242,-329.853 52.6139,-232.559 107,-181 108.668,-179.419 110.465,-177.969 112.36,-176.64"/>
<polygon fill="midnightblue" stroke="midnightblue" points="114.277,-179.575 121.196,-171.551 110.784,-173.509 114.277,-179.575"/>
</g>
<!-- Node26 -->
<g id="node26" class="node"><title>Node26</title>
<g id="a_node26"><a xlink:href="class_edge.html#a9825f846eb203bc2ebe0e5ee4dcf9c3b" target="_top" xlink:title="Edge::setLength">
<polygon fill="white" stroke="black" points="125,-114.5 125,-133.5 213,-133.5 213,-114.5 125,-114.5"/>
<text text-anchor="middle" x="169" y="-121.5" font-family="Helvetica,sans-Serif" font-size="10.00">Edge::setLength</text>
</a>
</g>
</g>
<!-- Node1&#45;&gt;Node26 -->
<g id="edge29" class="edge"><title>Node1&#45;&gt;Node26</title>
<path fill="none" stroke="midnightblue" d="M36.4882,-361.169C36.9938,-326.213 43.4909,-206.64 107,-143 109.664,-140.331 112.696,-138.035 115.952,-136.061"/>
<polygon fill="midnightblue" stroke="midnightblue" points="117.607,-139.147 124.993,-131.552 114.482,-132.883 117.607,-139.147"/>
</g>
<!-- Node27 -->
<g id="node27" class="node"><title>Node27</title>
<g id="a_node27"><a xlink:href="class_node.html#a8a60e0e373f3acf5a26036a0b40312a1" target="_top" xlink:title="Node::setModel">
<polygon fill="white" stroke="black" points="126,-76.5 126,-95.5 212,-95.5 212,-76.5 126,-76.5"/>
<text text-anchor="middle" x="169" y="-83.5" font-family="Helvetica,sans-Serif" font-size="10.00">Node::setModel</text>
</a>
</g>
</g>
<!-- Node1&#45;&gt;Node27 -->
<g id="edge30" class="edge"><title>Node1&#45;&gt;Node27</title>
<path fill="none" stroke="midnightblue" d="M35.987,-361.462C34.4854,-323.439 34.1243,-181.069 107,-105 109.812,-102.065 113.068,-99.5813 116.584,-97.4793"/>
<polygon fill="midnightblue" stroke="midnightblue" points="118.304,-100.535 125.755,-93.0018 115.233,-94.2443 118.304,-100.535"/>
</g>
<!-- Node29 -->
<g id="node29" class="node"><title>Node29</title>
<g id="a_node29"><a xlink:href="class_node.html#ad7c28414b0d242ce7c491e22cf006041" target="_top" xlink:title="Node::setParent">
<polygon fill="white" stroke="black" points="125,-38.5 125,-57.5 213,-57.5 213,-38.5 125,-38.5"/>
<text text-anchor="middle" x="169" y="-45.5" font-family="Helvetica,sans-Serif" font-size="10.00">Node::setParent</text>
</a>
</g>
</g>
<!-- Node1&#45;&gt;Node29 -->
<g id="edge32" class="edge"><title>Node1&#45;&gt;Node29</title>
<path fill="none" stroke="midnightblue" d="M37.4614,-361.302C42.2918,-314.44 65.3424,-111.863 107,-67 109.606,-64.1932 112.619,-61.7979 115.882,-59.7541"/>
<polygon fill="midnightblue" stroke="midnightblue" points="117.664,-62.7746 124.993,-55.1242 114.493,-56.5341 117.664,-62.7746"/>
</g>
<!-- Node30 -->
<g id="node30" class="node"><title>Node30</title>
<g id="a_node30"><a xlink:href="class_node.html#a1b945cb9d5755aef273c43d6c7ce58bb" target="_top" xlink:title="Node::setRightChild">
<polygon fill="white" stroke="black" points="116.5,-0.5 116.5,-19.5 221.5,-19.5 221.5,-0.5 116.5,-0.5"/>
<text text-anchor="middle" x="169" y="-7.5" font-family="Helvetica,sans-Serif" font-size="10.00">Node::setRightChild</text>
</a>
</g>
</g>
<!-- Node1&#45;&gt;Node30 -->
<g id="edge33" class="edge"><title>Node1&#45;&gt;Node30</title>
<path fill="none" stroke="midnightblue" d="M37.1804,-361.459C40.9286,-311.483 60.6005,-80.2189 107,-29 108.203,-27.6719 109.497,-26.4357 110.866,-25.2852"/>
<polygon fill="midnightblue" stroke="midnightblue" points="113.033,-28.0475 119.412,-19.5883 109.15,-22.2231 113.033,-28.0475"/>
</g>
<!-- Node31 -->
<g id="node31" class="node"><title>Node31</title>
<g id="a_node31"><a xlink:href="class_edge_heap.html#a7d8eaf4111da4c024feb5f2fb8d7cafa" target="_top" xlink:title="EdgeHeap::update">
<polygon fill="white" stroke="black" points="120,-456.5 120,-475.5 218,-475.5 218,-456.5 120,-456.5"/>
<text text-anchor="middle" x="169" y="-463.5" font-family="Helvetica,sans-Serif" font-size="10.00">EdgeHeap::update</text>
</a>
</g>
</g>
<!-- Node1&#45;&gt;Node31 -->
<g id="edge34" class="edge"><title>Node1&#45;&gt;Node31</title>
<path fill="none" stroke="midnightblue" d="M42.8991,-380.676C54.0349,-396.773 78.5294,-429.054 107,-447 110.336,-449.103 113.921,-450.988 117.622,-452.675"/>
<polygon fill="midnightblue" stroke="midnightblue" points="116.404,-455.958 126.986,-456.473 119.035,-449.471 116.404,-455.958"/>
</g>
<!-- Node12 -->
<g id="node12" class="node"><title>Node12</title>
<g id="a_node12"><a xlink:href="class_edge.html#a54017590a12f8b5e68641e678f01655f" target="_top" xlink:title="Edge::getHeapIndex">
<polygon fill="white" stroke="black" points="270,-437.5 270,-456.5 376,-456.5 376,-437.5 270,-437.5"/>
<text text-anchor="middle" x="323" y="-444.5" font-family="Helvetica,sans-Serif" font-size="10.00">Edge::getHeapIndex</text>
</a>
</g>
</g>
<!-- Node11&#45;&gt;Node12 -->
<g id="edge11" class="edge"><title>Node11&#45;&gt;Node12</title>
<path fill="none" stroke="midnightblue" d="M219.77,-434.221C232.534,-435.817 246.423,-437.553 259.731,-439.216"/>
<polygon fill="midnightblue" stroke="midnightblue" points="259.41,-442.703 269.767,-440.471 260.278,-435.757 259.41,-442.703"/>
</g>
<!-- Node13 -->
<g id="node13" class="node"><title>Node13</title>
<g id="a_node13"><a xlink:href="class_edge_heap.html#a71040389a82aaff7be40c94a95afc357" target="_top" xlink:title="EdgeHeap::removeAt">
<polygon fill="white" stroke="black" points="268,-399.5 268,-418.5 378,-418.5 378,-399.5 268,-399.5"/>
<text text-anchor="middle" x="323" y="-406.5" font-family="Helvetica,sans-Serif" font-size="10.00">EdgeHeap::removeAt</text>
</a>
</g>
</g>
<!-- Node11&#45;&gt;Node13 -->
<g id="edge12" class="edge"><title>Node11&#45;&gt;Node13</title>
<path fill="none" stroke="midnightblue" d="M219.77,-421.779C231.931,-420.259 245.113,-418.611 257.841,-417.02"/>
<polygon fill="midnightblue" stroke="midnightblue" points="258.434,-420.473 267.922,-415.76 257.565,-413.527 258.434,-420.473"/>
</g>
<!-- Node14 -->
<g id="node14" class="node"><title>Node14</title>
<g id="a_node14"><a xlink:href="class_edge_heap.html#add248e35c4c2443246ff6c7cd654ae9f" target="_top" xlink:title="EdgeHeap::edgeComparator">
<polygon fill="white" stroke="black" points="576,-417.5 576,-436.5 716,-436.5 716,-417.5 576,-417.5"/>
<text text-anchor="middle" x="646" y="-424.5" font-family="Helvetica,sans-Serif" font-size="10.00">EdgeHeap::edgeComparator</text>
</a>
</g>
</g>
<!-- Node13&#45;&gt;Node14 -->
<g id="edge13" class="edge"><title>Node13&#45;&gt;Node14</title>
<path fill="none" stroke="midnightblue" d="M378.295,-402.05C390.359,-400.78 403.098,-399.652 415,-399 470.472,-395.961 484.915,-391.782 540,-399 562.884,-401.999 587.874,-408.525 607.732,-414.523"/>
<polygon fill="midnightblue" stroke="midnightblue" points="606.734,-417.878 617.322,-417.499 608.808,-411.193 606.734,-417.878"/>
</g>
<!-- Node19 -->
<g id="node19" class="node"><title>Node19</title>
<g id="a_node19"><a xlink:href="class_edge_heap.html#af02715f2265926338a4b33135c821a4c" target="_top" xlink:title="EdgeHeap::heapifyDown">
<polygon fill="white" stroke="black" points="415,-408.5 415,-427.5 540,-427.5 540,-408.5 415,-408.5"/>
<text text-anchor="middle" x="477.5" y="-415.5" font-family="Helvetica,sans-Serif" font-size="10.00">EdgeHeap::heapifyDown</text>
</a>
</g>
</g>
<!-- Node13&#45;&gt;Node19 -->
<g id="edge20" class="edge"><title>Node13&#45;&gt;Node19</title>
<path fill="none" stroke="midnightblue" d="M378.195,-412.198C386.841,-412.709 395.901,-413.243 404.875,-413.773"/>
<polygon fill="midnightblue" stroke="midnightblue" points="404.756,-417.272 414.945,-414.367 405.168,-410.284 404.756,-417.272"/>
</g>
<!-- Node20 -->
<g id="node20" class="node"><title>Node20</title>
<g id="a_node20"><a xlink:href="class_edge_heap.html#afc03f4943c606b1d2617654cfaeeabb6" target="_top" xlink:title="EdgeHeap::heapifyUp">
<polygon fill="white" stroke="black" points="421,-446.5 421,-465.5 534,-465.5 534,-446.5 421,-446.5"/>
<text text-anchor="middle" x="477.5" y="-453.5" font-family="Helvetica,sans-Serif" font-size="10.00">EdgeHeap::heapifyUp</text>
</a>
</g>
</g>
<!-- Node13&#45;&gt;Node20 -->
<g id="edge22" class="edge"><title>Node13&#45;&gt;Node20</title>
<path fill="none" stroke="midnightblue" d="M354.861,-418.511C378.141,-425.686 410.298,-435.597 435.701,-443.426"/>
<polygon fill="midnightblue" stroke="midnightblue" points="434.837,-446.822 445.424,-446.422 436.898,-440.132 434.837,-446.822"/>
</g>
<!-- Node14&#45;&gt;Node8 -->
<g id="edge16" class="edge"><title>Node14&#45;&gt;Node8</title>
<path fill="none" stroke="midnightblue" d="M662.36,-436.632C688.789,-453.204 743.047,-487.228 774.5,-506.951"/>
<polygon fill="midnightblue" stroke="midnightblue" points="772.767,-509.995 783.099,-512.343 776.486,-504.065 772.767,-509.995"/>
</g>
<!-- Node14&#45;&gt;Node9 -->
<g id="edge17" class="edge"><title>Node14&#45;&gt;Node9</title>
<path fill="none" stroke="midnightblue" d="M664.084,-417.415C690.453,-402.62 741.26,-374.115 772.297,-356.701"/>
<polygon fill="midnightblue" stroke="midnightblue" points="774.237,-359.626 781.246,-351.681 770.812,-353.521 774.237,-359.626"/>
</g>
<!-- Node15 -->
<g id="node15" class="node"><title>Node15</title>
<g id="a_node15"><a xlink:href="class_node.html#a13467fc326459c1d607547b3e9470710" target="_top" xlink:title="Node::getArea">
<polygon fill="white" stroke="black" points="759.5,-455.5 759.5,-474.5 839.5,-474.5 839.5,-455.5 759.5,-455.5"/>
<text text-anchor="middle" x="799.5" y="-462.5" font-family="Helvetica,sans-Serif" font-size="10.00">Node::getArea</text>
</a>
</g>
</g>
<!-- Node14&#45;&gt;Node15 -->
<g id="edge14" class="edge"><title>Node14&#45;&gt;Node15</title>
<path fill="none" stroke="midnightblue" d="M685.23,-436.589C705.132,-441.581 729.657,-447.732 750.791,-453.033"/>
<polygon fill="midnightblue" stroke="midnightblue" points="749.994,-456.442 760.545,-455.48 751.697,-449.652 749.994,-456.442"/>
</g>
<!-- Node17 -->
<g id="node17" class="node"><title>Node17</title>
<g id="a_node17"><a xlink:href="class_node.html#aa3512938403662345b64049920d1cdaf" target="_top" xlink:title="Node::getPosition">
<polygon fill="white" stroke="black" points="752,-417.5 752,-436.5 847,-436.5 847,-417.5 752,-417.5"/>
<text text-anchor="middle" x="799.5" y="-424.5" font-family="Helvetica,sans-Serif" font-size="10.00">Node::getPosition</text>
</a>
</g>
</g>
<!-- Node14&#45;&gt;Node17 -->
<g id="edge18" class="edge"><title>Node14&#45;&gt;Node17</title>
<path fill="none" stroke="midnightblue" d="M716.1,-427C724.55,-427 733.112,-427 741.359,-427"/>
<polygon fill="midnightblue" stroke="midnightblue" points="741.607,-430.5 751.607,-427 741.607,-423.5 741.607,-430.5"/>
</g>
<!-- Node18 -->
<g id="node18" class="node"><title>Node18</title>
<g id="a_node18"><a xlink:href="class_edge.html#a3a776c1ccafacdbdb10fdedd9cb329af" target="_top" xlink:title="Edge::getWeight">
<polygon fill="white" stroke="black" points="755,-379.5 755,-398.5 844,-398.5 844,-379.5 755,-379.5"/>
<text text-anchor="middle" x="799.5" y="-386.5" font-family="Helvetica,sans-Serif" font-size="10.00">Edge::getWeight</text>
</a>
</g>
</g>
<!-- Node14&#45;&gt;Node18 -->
<g id="edge19" class="edge"><title>Node14&#45;&gt;Node18</title>
<path fill="none" stroke="midnightblue" d="M685.23,-417.411C705.132,-412.419 729.657,-406.268 750.791,-400.967"/>
<polygon fill="midnightblue" stroke="midnightblue" points="751.697,-404.348 760.545,-398.52 749.994,-397.558 751.697,-404.348"/>
</g>
<!-- Node16 -->
<g id="node16" class="node"><title>Node16</title>
<g id="a_node16"><a xlink:href="classregion_model.html#a56b1a22f355e85211760055c7559cd1e" target="_top" xlink:title="regionModel::getArea">
<polygon fill="white" stroke="black" points="883,-455.5 883,-474.5 992,-474.5 992,-455.5 883,-455.5"/>
<text text-anchor="middle" x="937.5" y="-462.5" font-family="Helvetica,sans-Serif" font-size="10.00">regionModel::getArea</text>
</a>
</g>
</g>
<!-- Node15&#45;&gt;Node16 -->
<g id="edge15" class="edge"><title>Node15&#45;&gt;Node16</title>
<path fill="none" stroke="midnightblue" d="M839.837,-465C850.108,-465 861.446,-465 872.635,-465"/>
<polygon fill="midnightblue" stroke="midnightblue" points="872.833,-468.5 882.833,-465 872.833,-461.5 872.833,-468.5"/>
</g>
<!-- Node19&#45;&gt;Node14 -->
<g id="edge21" class="edge"><title>Node19&#45;&gt;Node14</title>
<path fill="none" stroke="midnightblue" d="M540.025,-421.326C548.415,-421.779 557.121,-422.25 565.768,-422.717"/>
<polygon fill="midnightblue" stroke="midnightblue" points="565.697,-426.218 575.871,-423.263 566.075,-419.229 565.697,-426.218"/>
</g>
<!-- Node20&#45;&gt;Node14 -->
<g id="edge23" class="edge"><title>Node20&#45;&gt;Node14</title>
<path fill="none" stroke="midnightblue" d="M533.48,-446.424C548.476,-443.812 564.861,-440.958 580.343,-438.262"/>
<polygon fill="midnightblue" stroke="midnightblue" points="581.111,-441.681 590.362,-436.517 579.91,-434.784 581.111,-441.681"/>
</g>
<!-- Node28 -->
<g id="node28" class="node"><title>Node28</title>
<g id="a_node28"><a xlink:href="classregion_model.html#aebdb837024f0eb627bb15742a19b9974" target="_top" xlink:title="regionModel::setNode">
<polygon fill="white" stroke="black" points="267,-76.5 267,-95.5 379,-95.5 379,-76.5 267,-76.5"/>
<text text-anchor="middle" x="323" y="-83.5" font-family="Helvetica,sans-Serif" font-size="10.00">regionModel::setNode</text>
</a>
</g>
</g>
<!-- Node27&#45;&gt;Node28 -->
<g id="edge31" class="edge"><title>Node27&#45;&gt;Node28</title>
<path fill="none" stroke="midnightblue" d="M212.34,-86C226.044,-86 241.577,-86 256.553,-86"/>
<polygon fill="midnightblue" stroke="midnightblue" points="256.802,-89.5001 266.802,-86 256.802,-82.5001 256.802,-89.5001"/>
</g>
<!-- Node31&#45;&gt;Node12 -->
<g id="edge35" class="edge"><title>Node31&#45;&gt;Node12</title>
<path fill="none" stroke="midnightblue" d="M218.094,-459.988C231.321,-458.335 245.859,-456.518 259.761,-454.78"/>
<polygon fill="midnightblue" stroke="midnightblue" points="260.255,-458.245 269.743,-453.532 259.386,-451.3 260.255,-458.245"/>
</g>
<!-- Node32 -->
<g id="node32" class="node"><title>Node32</title>
<g id="a_node32"><a xlink:href="class_edge_heap.html#aed5f5e75856c0e3bcb8ccc29184a88c0" target="_top" xlink:title="EdgeHeap::updateAt">
<polygon fill="white" stroke="black" points="269.5,-475.5 269.5,-494.5 376.5,-494.5 376.5,-475.5 269.5,-475.5"/>
<text text-anchor="middle" x="323" y="-482.5" font-family="Helvetica,sans-Serif" font-size="10.00">EdgeHeap::updateAt</text>
</a>
</g>
</g>
<!-- Node31&#45;&gt;Node32 -->
<g id="edge36" class="edge"><title>Node31&#45;&gt;Node32</title>
<path fill="none" stroke="midnightblue" d="M218.094,-472.012C231.251,-473.656 245.705,-475.463 259.54,-477.193"/>
<polygon fill="midnightblue" stroke="midnightblue" points="259.12,-480.667 269.477,-478.435 259.989,-473.721 259.12,-480.667"/>
</g>
<!-- Node32&#45;&gt;Node14 -->
<g id="edge37" class="edge"><title>Node32&#45;&gt;Node14</title>
<path fill="none" stroke="midnightblue" d="M376.724,-488.104C420.951,-489.398 485.453,-488.205 540,-475 568.888,-468.006 599.54,-453.009 620.22,-441.627"/>
<polygon fill="midnightblue" stroke="midnightblue" points="621.983,-444.652 628.977,-436.694 618.547,-438.553 621.983,-444.652"/>
</g>
<!-- Node32&#45;&gt;Node19 -->
<g id="edge38" class="edge"><title>Node32&#45;&gt;Node19</title>
<path fill="none" stroke="midnightblue" d="M357.662,-475.438C364.905,-472.818 372.37,-469.668 379,-466 396.977,-456.053 396.861,-446.649 415,-437 419.05,-434.846 423.382,-432.894 427.802,-431.135"/>
<polygon fill="midnightblue" stroke="midnightblue" points="429.343,-434.298 437.542,-427.588 426.948,-427.721 429.343,-434.298"/>
</g>
<!-- Node32&#45;&gt;Node20 -->
<g id="edge39" class="edge"><title>Node32&#45;&gt;Node20</title>
<path fill="none" stroke="midnightblue" d="M374.357,-475.424C387.831,-472.862 402.529,-470.067 416.468,-467.416"/>
<polygon fill="midnightblue" stroke="midnightblue" points="417.286,-470.823 426.456,-465.517 415.978,-463.946 417.286,-470.823"/>
</g>
</g>
</svg>
