<?xml version="1.0" encoding="UTF-8" standalone="no"?>
<!DOCTYPE svg PUBLIC "-//W3C//DTD SVG 1.1//EN"
 "http://www.w3.org/Graphics/SVG/1.1/DTD/svg11.dtd">
<!-- Generated by graphviz version 2.38.0 (20140413.2041)
 -->
<!-- Title: Node::setBoarderIndexY Pages: 1 -->
<svg width="1299pt" height="142pt"
 viewBox="0.00 0.00 1299.00 142.00" xmlns="http://www.w3.org/2000/svg" xmlns:xlink="http://www.w3.org/1999/xlink">
<g id="graph0" class="graph" transform="scale(1 1) rotate(0) translate(4 138)">
<title>Node::setBoarderIndexY</title>
<polygon fill="white" stroke="none" points="-4,4 -4,-138 1295,-138 1295,4 -4,4"/>
<!-- Node334 -->
<g id="node1" class="node"><title>Node334</title>
<polygon fill="#bfbfbf" stroke="black" points="0,-76.5 0,-95.5 124,-95.5 124,-76.5 0,-76.5"/>
<text text-anchor="middle" x="62" y="-83.5" font-family="Helvetica,sans-Serif" font-size="10.00">Node::setBoarderIndexY</text>
</g>
<!-- Node335 -->
<g id="node2" class="node"><title>Node335</title>
<g id="a_node2"><a xlink:href="classinitializer.html#ac5edfb9421710ba998db242a96e38393" target="_top" xlink:title="initializer::createNodeMatrix">
<polygon fill="white" stroke="black" points="160,-114.5 160,-133.5 298,-133.5 298,-114.5 160,-114.5"/>
<text text-anchor="middle" x="229" y="-121.5" font-family="Helvetica,sans-Serif" font-size="10.00">initializer::createNodeMatrix</text>
</a>
</g>
</g>
<!-- Node334&#45;&gt;Node335 -->
<g id="edge1" class="edge"><title>Node334&#45;&gt;Node335</title>
<path fill="none" stroke="midnightblue" d="M114.654,-97.8961C137.846,-103.237 164.838,-109.454 186.663,-114.48"/>
<polygon fill="midnightblue" stroke="midnightblue" points="115.167,-94.4226 104.636,-95.589 113.596,-101.244 115.167,-94.4226"/>
</g>
<!-- Node336 -->
<g id="node3" class="node"><title>Node336</title>
<g id="a_node3"><a xlink:href="class_r_a_g.html#aa2de492a3df037db29b0e3ccab5251ee" target="_top" xlink:title="RAG::merge">
<polygon fill="white" stroke="black" points="193.5,-38.5 193.5,-57.5 264.5,-57.5 264.5,-38.5 193.5,-38.5"/>
<text text-anchor="middle" x="229" y="-45.5" font-family="Helvetica,sans-Serif" font-size="10.00">RAG::merge</text>
</a>
</g>
</g>
<!-- Node334&#45;&gt;Node336 -->
<g id="edge2" class="edge"><title>Node334&#45;&gt;Node336</title>
<path fill="none" stroke="midnightblue" d="M114.572,-74.1228C140.212,-68.2179 170.511,-61.2399 193.341,-55.982"/>
<polygon fill="midnightblue" stroke="midnightblue" points="113.596,-70.7559 104.636,-76.411 115.167,-77.5774 113.596,-70.7559"/>
</g>
<!-- Node347 -->
<g id="node14" class="node"><title>Node347</title>
<g id="a_node14"><a xlink:href="classimage.html#a96cc6f2b2f3b5c2e283623872ada5fc7" target="_top" xlink:title="image::selectBoarderSegments">
<polygon fill="white" stroke="black" points="334,-76.5 334,-95.5 487,-95.5 487,-76.5 334,-76.5"/>
<text text-anchor="middle" x="410.5" y="-83.5" font-family="Helvetica,sans-Serif" font-size="10.00">image::selectBoarderSegments</text>
</a>
</g>
</g>
<!-- Node334&#45;&gt;Node347 -->
<g id="edge15" class="edge"><title>Node334&#45;&gt;Node347</title>
<path fill="none" stroke="midnightblue" d="M134.364,-86C192.555,-86 274.533,-86 333.852,-86"/>
<polygon fill="midnightblue" stroke="midnightblue" points="134.15,-82.5001 124.15,-86 134.15,-89.5001 134.15,-82.5001"/>
</g>
<!-- Node337 -->
<g id="node4" class="node"><title>Node337</title>
<g id="a_node4"><a xlink:href="class_r_a_g.html#ab09eebb1b704d18b583d528e77f7604a" target="_top" xlink:title="RAG::regionMerging">
<polygon fill="white" stroke="black" points="358,-38.5 358,-57.5 463,-57.5 463,-38.5 358,-38.5"/>
<text text-anchor="middle" x="410.5" y="-45.5" font-family="Helvetica,sans-Serif" font-size="10.00">RAG::regionMerging</text>
</a>
</g>
</g>
<!-- Node336&#45;&gt;Node337 -->
<g id="edge3" class="edge"><title>Node336&#45;&gt;Node337</title>
<path fill="none" stroke="midnightblue" d="M274.621,-48C299.799,-48 331.383,-48 357.656,-48"/>
<polygon fill="midnightblue" stroke="midnightblue" points="274.609,-44.5001 264.609,-48 274.609,-51.5001 274.609,-44.5001"/>
</g>
<!-- Node338 -->
<g id="node5" class="node"><title>Node338</title>
<g id="a_node5"><a xlink:href="classimage.html#a12343719e8d96a4bda9c5bd6c035d52a" target="_top" xlink:title="image::mergeBlockX">
<polygon fill="white" stroke="black" points="529,-38.5 529,-57.5 636,-57.5 636,-38.5 529,-38.5"/>
<text text-anchor="middle" x="582.5" y="-45.5" font-family="Helvetica,sans-Serif" font-size="10.00">image::mergeBlockX</text>
</a>
</g>
</g>
<!-- Node337&#45;&gt;Node338 -->
<g id="edge4" class="edge"><title>Node337&#45;&gt;Node338</title>
<path fill="none" stroke="midnightblue" d="M473.589,-48C491.676,-48 511.26,-48 528.715,-48"/>
<polygon fill="midnightblue" stroke="midnightblue" points="473.429,-44.5001 463.429,-48 473.429,-51.5001 473.429,-44.5001"/>
</g>
<!-- Node342 -->
<g id="node9" class="node"><title>Node342</title>
<g id="a_node9"><a xlink:href="classimage.html#aa21fc5a07af7528869425e750090b3b8" target="_top" xlink:title="image::mergeBlockY">
<polygon fill="white" stroke="black" points="529,-76.5 529,-95.5 636,-95.5 636,-76.5 529,-76.5"/>
<text text-anchor="middle" x="582.5" y="-83.5" font-family="Helvetica,sans-Serif" font-size="10.00">image::mergeBlockY</text>
</a>
</g>
</g>
<!-- Node337&#45;&gt;Node342 -->
<g id="edge8" class="edge"><title>Node337&#45;&gt;Node342</title>
<path fill="none" stroke="midnightblue" d="M464.398,-59.8243C488.365,-65.1816 516.324,-71.4311 538.91,-76.4799"/>
<polygon fill="midnightblue" stroke="midnightblue" points="464.921,-56.3548 454.398,-57.589 463.394,-63.1862 464.921,-56.3548"/>
</g>
<!-- Node344 -->
<g id="node11" class="node"><title>Node344</title>
<g id="a_node11"><a xlink:href="classimageblock.html#abcc69a8c00ad79067185c700463f8126" target="_top" xlink:title="imageblock::createBPT">
<polygon fill="white" stroke="black" points="523,-0.5 523,-19.5 642,-19.5 642,-0.5 523,-0.5"/>
<text text-anchor="middle" x="582.5" y="-7.5" font-family="Helvetica,sans-Serif" font-size="10.00">imageblock::createBPT</text>
</a>
</g>
</g>
<!-- Node337&#45;&gt;Node344 -->
<g id="edge11" class="edge"><title>Node337&#45;&gt;Node344</title>
<path fill="none" stroke="midnightblue" d="M464.398,-36.1757C488.365,-30.8184 516.324,-24.5689 538.91,-19.5201"/>
<polygon fill="midnightblue" stroke="midnightblue" points="463.394,-32.8138 454.398,-38.411 464.921,-39.6452 463.394,-32.8138"/>
</g>
<!-- Node339 -->
<g id="node6" class="node"><title>Node339</title>
<g id="a_node6"><a xlink:href="classimage.html#a83026280ad6cc713ec9489ff3bd9776e" target="_top" xlink:title="image::ProcessBoundaryX">
<polygon fill="white" stroke="black" points="847,-38.5 847,-57.5 980,-57.5 980,-38.5 847,-38.5"/>
<text text-anchor="middle" x="913.5" y="-45.5" font-family="Helvetica,sans-Serif" font-size="10.00">image::ProcessBoundaryX</text>
</a>
</g>
</g>
<!-- Node338&#45;&gt;Node339 -->
<g id="edge5" class="edge"><title>Node338&#45;&gt;Node339</title>
<path fill="none" stroke="midnightblue" d="M646.399,-48C703.829,-48 788.414,-48 846.728,-48"/>
<polygon fill="midnightblue" stroke="midnightblue" points="646.36,-44.5001 636.36,-48 646.36,-51.5001 646.36,-44.5001"/>
</g>
<!-- Node340 -->
<g id="node7" class="node"><title>Node340</title>
<g id="a_node7"><a xlink:href="classimage.html#a4689c56b85c46d48ea52f0c9fa13891e" target="_top" xlink:title="image::processing">
<polygon fill="white" stroke="black" points="1016,-38.5 1016,-57.5 1112,-57.5 1112,-38.5 1016,-38.5"/>
<text text-anchor="middle" x="1064" y="-45.5" font-family="Helvetica,sans-Serif" font-size="10.00">image::processing</text>
</a>
</g>
</g>
<!-- Node339&#45;&gt;Node340 -->
<g id="edge6" class="edge"><title>Node339&#45;&gt;Node340</title>
<path fill="none" stroke="midnightblue" d="M990.207,-48C998.858,-48 1007.48,-48 1015.61,-48"/>
<polygon fill="midnightblue" stroke="midnightblue" points="990.067,-44.5001 980.067,-48 990.066,-51.5001 990.067,-44.5001"/>
</g>
<!-- Node341 -->
<g id="node8" class="node"><title>Node341</title>
<g id="a_node8"><a xlink:href="class_main_window.html#a9a45eb9ebe6d27bcd23677d9fbb74dd8" target="_top" xlink:title="MainWindow::on_Go_clicked">
<polygon fill="white" stroke="black" points="1148,-38.5 1148,-57.5 1291,-57.5 1291,-38.5 1148,-38.5"/>
<text text-anchor="middle" x="1219.5" y="-45.5" font-family="Helvetica,sans-Serif" font-size="10.00">MainWindow::on_Go_clicked</text>
</a>
</g>
</g>
<!-- Node340&#45;&gt;Node341 -->
<g id="edge7" class="edge"><title>Node340&#45;&gt;Node341</title>
<path fill="none" stroke="midnightblue" d="M1122.58,-48C1130.85,-48 1139.44,-48 1147.93,-48"/>
<polygon fill="midnightblue" stroke="midnightblue" points="1122.31,-44.5001 1112.31,-48 1122.31,-51.5001 1122.31,-44.5001"/>
</g>
<!-- Node343 -->
<g id="node10" class="node"><title>Node343</title>
<g id="a_node10"><a xlink:href="classimage.html#adf6b8c126649c9a40387f12b5f5f07d5" target="_top" xlink:title="image::ProcessBoundaryY">
<polygon fill="white" stroke="black" points="678,-76.5 678,-95.5 811,-95.5 811,-76.5 678,-76.5"/>
<text text-anchor="middle" x="744.5" y="-83.5" font-family="Helvetica,sans-Serif" font-size="10.00">image::ProcessBoundaryY</text>
</a>
</g>
</g>
<!-- Node342&#45;&gt;Node343 -->
<g id="edge9" class="edge"><title>Node342&#45;&gt;Node343</title>
<path fill="none" stroke="midnightblue" d="M646.486,-86C656.798,-86 667.505,-86 677.879,-86"/>
<polygon fill="midnightblue" stroke="midnightblue" points="646.333,-82.5001 636.333,-86 646.333,-89.5001 646.333,-82.5001"/>
</g>
<!-- Node343&#45;&gt;Node340 -->
<g id="edge10" class="edge"><title>Node343&#45;&gt;Node340</title>
<path fill="none" stroke="midnightblue" d="M821.451,-82.6261C867.513,-79.8912 927.364,-75.1136 980,-67 995.34,-64.6353 1012.06,-61.0141 1026.45,-57.5649"/>
<polygon fill="midnightblue" stroke="midnightblue" points="821.029,-79.1445 811.246,-83.2122 821.43,-86.133 821.029,-79.1445"/>
</g>
<!-- Node345 -->
<g id="node12" class="node"><title>Node345</title>
<g id="a_node12"><a xlink:href="classimageblock.html#af3b91e3daaa8014af1239f60da6b0bf5" target="_top" xlink:title="imageblock::processing">
<polygon fill="white" stroke="black" points="685,-0.5 685,-19.5 804,-19.5 804,-0.5 685,-0.5"/>
<text text-anchor="middle" x="744.5" y="-7.5" font-family="Helvetica,sans-Serif" font-size="10.00">imageblock::processing</text>
</a>
</g>
</g>
<!-- Node344&#45;&gt;Node345 -->
<g id="edge12" class="edge"><title>Node344&#45;&gt;Node345</title>
<path fill="none" stroke="midnightblue" d="M652.415,-10C663.217,-10 674.294,-10 684.838,-10"/>
<polygon fill="midnightblue" stroke="midnightblue" points="652.17,-6.5001 642.17,-10 652.17,-13.5001 652.17,-6.5001"/>
</g>
<!-- Node346 -->
<g id="node13" class="node"><title>Node346</title>
<g id="a_node13"><a xlink:href="classimage.html#ad5a9d767eca6f9bbb8dcb556527edf4d" target="_top" xlink:title="image::ProcessTiles">
<polygon fill="white" stroke="black" points="860.5,-0.5 860.5,-19.5 966.5,-19.5 966.5,-0.5 860.5,-0.5"/>
<text text-anchor="middle" x="913.5" y="-7.5" font-family="Helvetica,sans-Serif" font-size="10.00">image::ProcessTiles</text>
</a>
</g>
</g>
<!-- Node345&#45;&gt;Node346 -->
<g id="edge13" class="edge"><title>Node345&#45;&gt;Node346</title>
<path fill="none" stroke="midnightblue" d="M814.781,-10C829.994,-10 845.857,-10 860.267,-10"/>
<polygon fill="midnightblue" stroke="midnightblue" points="814.378,-6.5001 804.378,-10 814.378,-13.5001 814.378,-6.5001"/>
</g>
<!-- Node346&#45;&gt;Node340 -->
<g id="edge14" class="edge"><title>Node346&#45;&gt;Node340</title>
<path fill="none" stroke="midnightblue" d="M961.833,-22.1121C982.515,-27.4044 1006.42,-33.5213 1025.8,-38.4799"/>
<polygon fill="midnightblue" stroke="midnightblue" points="962.528,-18.6774 951.973,-19.589 960.793,-25.4589 962.528,-18.6774"/>
</g>
<!-- Node347&#45;&gt;Node338 -->
<g id="edge16" class="edge"><title>Node347&#45;&gt;Node338</title>
<path fill="none" stroke="midnightblue" d="M464.398,-74.1757C488.365,-68.8184 516.324,-62.5689 538.91,-57.5201"/>
<polygon fill="midnightblue" stroke="midnightblue" points="463.394,-70.8138 454.398,-76.411 464.921,-77.6452 463.394,-70.8138"/>
</g>
<!-- Node347&#45;&gt;Node342 -->
<g id="edge17" class="edge"><title>Node347&#45;&gt;Node342</title>
<path fill="none" stroke="midnightblue" d="M497.338,-86C508.082,-86 518.808,-86 528.829,-86"/>
<polygon fill="midnightblue" stroke="midnightblue" points="497.055,-82.5001 487.054,-86 497.054,-89.5001 497.055,-82.5001"/>
</g>
</g>
</svg>
