<?xml version="1.0" encoding="UTF-8" standalone="no"?>
<!DOCTYPE svg PUBLIC "-//W3C//DTD SVG 1.1//EN"
 "http://www.w3.org/Graphics/SVG/1.1/DTD/svg11.dtd">
<!-- Generated by graphviz version 2.38.0 (20140413.2041)
 -->
<!-- Title: image::setGlobalSettings Pages: 1 -->
<svg width="488pt" height="241pt"
 viewBox="0.00 0.00 488.00 240.50" xmlns="http://www.w3.org/2000/svg" xmlns:xlink="http://www.w3.org/1999/xlink">
<g id="graph0" class="graph" transform="scale(1 1) rotate(0) translate(4 236.5)">
<title>image::setGlobalSettings</title>
<polygon fill="white" stroke="none" points="-4,4 -4,-236.5 484,-236.5 484,4 -4,4"/>
<!-- Node516 -->
<g id="node1" class="node"><title>Node516</title>
<polygon fill="#bfbfbf" stroke="black" points="0,-95.5 0,-114.5 126,-114.5 126,-95.5 0,-95.5"/>
<text text-anchor="middle" x="63" y="-102.5" font-family="Helvetica,sans-Serif" font-size="10.00">image::setGlobalSettings</text>
</g>
<!-- Node517 -->
<g id="node2" class="node"><title>Node517</title>
<g id="a_node2"><a xlink:href="classimage.html#a6d7fac910481c15802515c36463cfffa" target="_top" xlink:title="image::blockSizeCalculator\l_evenSplite">
<polygon fill="white" stroke="black" points="174,-202 174,-232 310,-232 310,-202 174,-202"/>
<text text-anchor="start" x="182" y="-220" font-family="Helvetica,sans-Serif" font-size="10.00">image::blockSizeCalculator</text>
<text text-anchor="middle" x="242" y="-209" font-family="Helvetica,sans-Serif" font-size="10.00">_evenSplite</text>
</a>
</g>
</g>
<!-- Node516&#45;&gt;Node517 -->
<g id="edge1" class="edge"><title>Node516&#45;&gt;Node517</title>
<path fill="none" stroke="midnightblue" d="M72.1414,-114.708C87.7521,-132.72 123.754,-171.44 162,-193 165.184,-194.795 168.518,-196.47 171.94,-198.032"/>
<polygon fill="midnightblue" stroke="midnightblue" points="170.586,-201.26 181.161,-201.906 173.297,-194.806 170.586,-201.26"/>
</g>
<!-- Node518 -->
<g id="node3" class="node"><title>Node518</title>
<g id="a_node3"><a xlink:href="classimage.html#a8a1a7543a50f78a8c07d4a35560ad7ab" target="_top" xlink:title="image::blockStartPointCalculator\l_evenSplite">
<polygon fill="white" stroke="black" points="162,-153 162,-183 322,-183 322,-153 162,-153"/>
<text text-anchor="start" x="170" y="-171" font-family="Helvetica,sans-Serif" font-size="10.00">image::blockStartPointCalculator</text>
<text text-anchor="middle" x="242" y="-160" font-family="Helvetica,sans-Serif" font-size="10.00">_evenSplite</text>
</a>
</g>
</g>
<!-- Node516&#45;&gt;Node518 -->
<g id="edge2" class="edge"><title>Node516&#45;&gt;Node518</title>
<path fill="none" stroke="midnightblue" d="M87.6068,-114.638C107.36,-122.586 136.35,-133.979 162,-143 168.383,-145.245 175.086,-147.509 181.778,-149.709"/>
<polygon fill="midnightblue" stroke="midnightblue" points="180.942,-153.117 191.534,-152.877 183.104,-146.459 180.942,-153.117"/>
</g>
<!-- Node519 -->
<g id="node4" class="node"><title>Node519</title>
<g id="a_node4"><a xlink:href="classimage.html#aa50311604615c5027bee9b24cfab49a8" target="_top" xlink:title="image::createEmptyCSV">
<polygon fill="white" stroke="black" points="179.5,-114.5 179.5,-133.5 304.5,-133.5 304.5,-114.5 179.5,-114.5"/>
<text text-anchor="middle" x="242" y="-121.5" font-family="Helvetica,sans-Serif" font-size="10.00">image::createEmptyCSV</text>
</a>
</g>
</g>
<!-- Node516&#45;&gt;Node519 -->
<g id="edge3" class="edge"><title>Node516&#45;&gt;Node519</title>
<path fill="none" stroke="midnightblue" d="M126.404,-111.699C140.259,-113.186 155.052,-114.774 169.248,-116.298"/>
<polygon fill="midnightblue" stroke="midnightblue" points="169.141,-119.806 179.458,-117.394 169.889,-112.846 169.141,-119.806"/>
</g>
<!-- Node520 -->
<g id="node5" class="node"><title>Node520</title>
<g id="a_node5"><a xlink:href="classimage.html#aa3cb332287f2c67f7ab68cfcc386bcd2" target="_top" xlink:title="image::createEmptyImage">
<polygon fill="white" stroke="black" points="176.5,-76.5 176.5,-95.5 307.5,-95.5 307.5,-76.5 176.5,-76.5"/>
<text text-anchor="middle" x="242" y="-83.5" font-family="Helvetica,sans-Serif" font-size="10.00">image::createEmptyImage</text>
</a>
</g>
</g>
<!-- Node516&#45;&gt;Node520 -->
<g id="edge4" class="edge"><title>Node516&#45;&gt;Node520</title>
<path fill="none" stroke="midnightblue" d="M126.404,-98.3013C139.332,-96.9136 153.076,-95.4382 166.389,-94.009"/>
<polygon fill="midnightblue" stroke="midnightblue" points="166.897,-97.4748 176.466,-92.9274 166.15,-90.5148 166.897,-97.4748"/>
</g>
<!-- Node521 -->
<g id="node6" class="node"><title>Node521</title>
<g id="a_node6"><a xlink:href="classimage.html#ad86284aa4e8e75cfc904084479146f2f" target="_top" xlink:title="image::linkFile">
<polygon fill="white" stroke="black" points="202,-38.5 202,-57.5 282,-57.5 282,-38.5 202,-38.5"/>
<text text-anchor="middle" x="242" y="-45.5" font-family="Helvetica,sans-Serif" font-size="10.00">image::linkFile</text>
</a>
</g>
</g>
<!-- Node516&#45;&gt;Node521 -->
<g id="edge5" class="edge"><title>Node516&#45;&gt;Node521</title>
<path fill="none" stroke="midnightblue" d="M86.2725,-95.3784C105.941,-87.1203 135.526,-75.2754 162,-67 171.593,-64.0013 181.966,-61.2001 191.941,-58.7186"/>
<polygon fill="midnightblue" stroke="midnightblue" points="192.843,-62.1013 201.74,-56.3483 191.198,-55.2976 192.843,-62.1013"/>
</g>
<!-- Node523 -->
<g id="node8" class="node"><title>Node523</title>
<g id="a_node8"><a xlink:href="classimage.html#a95002c780c2c4c6764d01fa4f850f775" target="_top" xlink:title="image::SetStatistics">
<polygon fill="white" stroke="black" points="189.5,-0.5 189.5,-19.5 294.5,-19.5 294.5,-0.5 189.5,-0.5"/>
<text text-anchor="middle" x="242" y="-7.5" font-family="Helvetica,sans-Serif" font-size="10.00">image::SetStatistics</text>
</a>
</g>
</g>
<!-- Node516&#45;&gt;Node523 -->
<g id="edge7" class="edge"><title>Node516&#45;&gt;Node523</title>
<path fill="none" stroke="midnightblue" d="M73.3473,-95.4718C89.7648,-79.2985 125.514,-46.527 162,-29 167.591,-26.3143 173.592,-23.9907 179.696,-21.984"/>
<polygon fill="midnightblue" stroke="midnightblue" points="180.764,-25.3178 189.332,-19.085 178.747,-18.6146 180.764,-25.3178"/>
</g>
<!-- Node522 -->
<g id="node7" class="node"><title>Node522</title>
<g id="a_node7"><a xlink:href="classimage.html#a8a46cfc72e8bbc9b85c431e9a4f6d755" target="_top" xlink:title="image::findImageFormat">
<polygon fill="white" stroke="black" points="358,-38.5 358,-57.5 480,-57.5 480,-38.5 358,-38.5"/>
<text text-anchor="middle" x="419" y="-45.5" font-family="Helvetica,sans-Serif" font-size="10.00">image::findImageFormat</text>
</a>
</g>
</g>
<!-- Node521&#45;&gt;Node522 -->
<g id="edge6" class="edge"><title>Node521&#45;&gt;Node522</title>
<path fill="none" stroke="midnightblue" d="M282.273,-48C301.586,-48 325.458,-48 347.769,-48"/>
<polygon fill="midnightblue" stroke="midnightblue" points="347.889,-51.5001 357.889,-48 347.889,-44.5001 347.889,-51.5001"/>
</g>
</g>
</svg>
