<?xml version="1.0" encoding="UTF-8" standalone="no"?>
<!DOCTYPE svg PUBLIC "-//W3C//DTD SVG 1.1//EN"
 "http://www.w3.org/Graphics/SVG/1.1/DTD/svg11.dtd">
<!-- Generated by graphviz version 2.38.0 (20140413.2041)
 -->
<!-- Title: EdgeHeap::update Pages: 1 -->
<svg width="862pt" height="180pt"
 viewBox="0.00 0.00 862.00 180.00" xmlns="http://www.w3.org/2000/svg" xmlns:xlink="http://www.w3.org/1999/xlink">
<g id="graph0" class="graph" transform="scale(1 1) rotate(0) translate(4 176)">
<title>EdgeHeap::update</title>
<polygon fill="white" stroke="none" points="-4,4 -4,-176 858,-176 858,4 -4,4"/>
<!-- Node1 -->
<g id="node1" class="node"><title>Node1</title>
<polygon fill="#bfbfbf" stroke="black" points="0,-95.5 0,-114.5 98,-114.5 98,-95.5 0,-95.5"/>
<text text-anchor="middle" x="49" y="-102.5" font-family="Helvetica,sans-Serif" font-size="10.00">EdgeHeap::update</text>
</g>
<!-- Node2 -->
<g id="node2" class="node"><title>Node2</title>
<g id="a_node2"><a xlink:href="class_edge.html#a54017590a12f8b5e68641e678f01655f" target="_top" xlink:title="Edge::getHeapIndex">
<polygon fill="white" stroke="black" points="134.5,-114.5 134.5,-133.5 240.5,-133.5 240.5,-114.5 134.5,-114.5"/>
<text text-anchor="middle" x="187.5" y="-121.5" font-family="Helvetica,sans-Serif" font-size="10.00">Edge::getHeapIndex</text>
</a>
</g>
</g>
<!-- Node1&#45;&gt;Node2 -->
<g id="edge1" class="edge"><title>Node1&#45;&gt;Node2</title>
<path fill="none" stroke="midnightblue" d="M98.1248,-111.699C106.51,-112.866 115.341,-114.095 124.045,-115.307"/>
<polygon fill="midnightblue" stroke="midnightblue" points="123.784,-118.804 134.171,-116.716 124.749,-111.871 123.784,-118.804"/>
</g>
<!-- Node3 -->
<g id="node3" class="node"><title>Node3</title>
<g id="a_node3"><a xlink:href="class_edge_heap.html#aed5f5e75856c0e3bcb8ccc29184a88c0" target="_top" xlink:title="EdgeHeap::updateAt">
<polygon fill="white" stroke="black" points="134,-76.5 134,-95.5 241,-95.5 241,-76.5 134,-76.5"/>
<text text-anchor="middle" x="187.5" y="-83.5" font-family="Helvetica,sans-Serif" font-size="10.00">EdgeHeap::updateAt</text>
</a>
</g>
</g>
<!-- Node1&#45;&gt;Node3 -->
<g id="edge2" class="edge"><title>Node1&#45;&gt;Node3</title>
<path fill="none" stroke="midnightblue" d="M98.1248,-98.3013C106.4,-97.1494 115.109,-95.9372 123.702,-94.7412"/>
<polygon fill="midnightblue" stroke="midnightblue" points="124.281,-98.1944 133.703,-93.3491 123.316,-91.2612 124.281,-98.1944"/>
</g>
<!-- Node4 -->
<g id="node4" class="node"><title>Node4</title>
<g id="a_node4"><a xlink:href="class_edge_heap.html#add248e35c4c2443246ff6c7cd654ae9f" target="_top" xlink:title="EdgeHeap::edgeComparator">
<polygon fill="white" stroke="black" points="438,-76.5 438,-95.5 578,-95.5 578,-76.5 438,-76.5"/>
<text text-anchor="middle" x="508" y="-83.5" font-family="Helvetica,sans-Serif" font-size="10.00">EdgeHeap::edgeComparator</text>
</a>
</g>
</g>
<!-- Node3&#45;&gt;Node4 -->
<g id="edge3" class="edge"><title>Node3&#45;&gt;Node4</title>
<path fill="none" stroke="midnightblue" d="M224.39,-95.5087C240.371,-99.2735 259.498,-103.142 277,-105 332.245,-110.863 346.667,-109.966 402,-105 419.113,-103.464 437.609,-100.547 454.239,-97.4514"/>
<polygon fill="midnightblue" stroke="midnightblue" points="455.165,-100.838 464.323,-95.5115 453.842,-93.9636 455.165,-100.838"/>
</g>
<!-- Node11 -->
<g id="node11" class="node"><title>Node11</title>
<g id="a_node11"><a xlink:href="class_edge_heap.html#afc03f4943c606b1d2617654cfaeeabb6" target="_top" xlink:title="EdgeHeap::heapifyUp">
<polygon fill="white" stroke="black" points="283,-76.5 283,-95.5 396,-95.5 396,-76.5 283,-76.5"/>
<text text-anchor="middle" x="339.5" y="-83.5" font-family="Helvetica,sans-Serif" font-size="10.00">EdgeHeap::heapifyUp</text>
</a>
</g>
</g>
<!-- Node3&#45;&gt;Node11 -->
<g id="edge10" class="edge"><title>Node3&#45;&gt;Node11</title>
<path fill="none" stroke="midnightblue" d="M241.384,-86C251.443,-86 262.084,-86 272.491,-86"/>
<polygon fill="midnightblue" stroke="midnightblue" points="272.79,-89.5001 282.79,-86 272.79,-82.5001 272.79,-89.5001"/>
</g>
<!-- Node12 -->
<g id="node12" class="node"><title>Node12</title>
<g id="a_node12"><a xlink:href="class_edge_heap.html#af02715f2265926338a4b33135c821a4c" target="_top" xlink:title="EdgeHeap::heapifyDown">
<polygon fill="white" stroke="black" points="277,-38.5 277,-57.5 402,-57.5 402,-38.5 277,-38.5"/>
<text text-anchor="middle" x="339.5" y="-45.5" font-family="Helvetica,sans-Serif" font-size="10.00">EdgeHeap::heapifyDown</text>
</a>
</g>
</g>
<!-- Node3&#45;&gt;Node12 -->
<g id="edge12" class="edge"><title>Node3&#45;&gt;Node12</title>
<path fill="none" stroke="midnightblue" d="M226.351,-76.411C245.967,-71.4417 270.119,-65.3233 290.979,-60.0387"/>
<polygon fill="midnightblue" stroke="midnightblue" points="292.087,-63.3687 300.921,-57.5201 290.368,-56.5831 292.087,-63.3687"/>
</g>
<!-- Node5 -->
<g id="node5" class="node"><title>Node5</title>
<g id="a_node5"><a xlink:href="class_node.html#a13467fc326459c1d607547b3e9470710" target="_top" xlink:title="Node::getArea">
<polygon fill="white" stroke="black" points="621.5,-152.5 621.5,-171.5 701.5,-171.5 701.5,-152.5 621.5,-152.5"/>
<text text-anchor="middle" x="661.5" y="-159.5" font-family="Helvetica,sans-Serif" font-size="10.00">Node::getArea</text>
</a>
</g>
</g>
<!-- Node4&#45;&gt;Node5 -->
<g id="edge4" class="edge"><title>Node4&#45;&gt;Node5</title>
<path fill="none" stroke="midnightblue" d="M525.44,-95.6545C545.867,-107.479 581.949,-127.808 614,-143 617.901,-144.849 622.032,-146.693 626.158,-148.466"/>
<polygon fill="midnightblue" stroke="midnightblue" points="625.09,-151.812 635.666,-152.439 627.789,-145.354 625.09,-151.812"/>
</g>
<!-- Node7 -->
<g id="node7" class="node"><title>Node7</title>
<g id="a_node7"><a xlink:href="class_edge.html#aaaa9cb49c141b310873cd75fd493e22d" target="_top" xlink:title="Edge::getNode1">
<polygon fill="white" stroke="black" points="618,-114.5 618,-133.5 705,-133.5 705,-114.5 618,-114.5"/>
<text text-anchor="middle" x="661.5" y="-121.5" font-family="Helvetica,sans-Serif" font-size="10.00">Edge::getNode1</text>
</a>
</g>
</g>
<!-- Node4&#45;&gt;Node7 -->
<g id="edge6" class="edge"><title>Node4&#45;&gt;Node7</title>
<path fill="none" stroke="midnightblue" d="M547.23,-95.589C567.132,-100.581 591.657,-106.732 612.791,-112.033"/>
<polygon fill="midnightblue" stroke="midnightblue" points="611.994,-115.442 622.545,-114.48 613.697,-108.652 611.994,-115.442"/>
</g>
<!-- Node8 -->
<g id="node8" class="node"><title>Node8</title>
<g id="a_node8"><a xlink:href="class_edge.html#a50017668f77ed019a5caceafbb1eb16f" target="_top" xlink:title="Edge::getNode2">
<polygon fill="white" stroke="black" points="618,-76.5 618,-95.5 705,-95.5 705,-76.5 618,-76.5"/>
<text text-anchor="middle" x="661.5" y="-83.5" font-family="Helvetica,sans-Serif" font-size="10.00">Edge::getNode2</text>
</a>
</g>
</g>
<!-- Node4&#45;&gt;Node8 -->
<g id="edge7" class="edge"><title>Node4&#45;&gt;Node8</title>
<path fill="none" stroke="midnightblue" d="M578.1,-86C588.072,-86 598.199,-86 607.782,-86"/>
<polygon fill="midnightblue" stroke="midnightblue" points="607.935,-89.5001 617.935,-86 607.935,-82.5001 607.935,-89.5001"/>
</g>
<!-- Node9 -->
<g id="node9" class="node"><title>Node9</title>
<g id="a_node9"><a xlink:href="class_node.html#aa3512938403662345b64049920d1cdaf" target="_top" xlink:title="Node::getPosition">
<polygon fill="white" stroke="black" points="614,-38.5 614,-57.5 709,-57.5 709,-38.5 614,-38.5"/>
<text text-anchor="middle" x="661.5" y="-45.5" font-family="Helvetica,sans-Serif" font-size="10.00">Node::getPosition</text>
</a>
</g>
</g>
<!-- Node4&#45;&gt;Node9 -->
<g id="edge8" class="edge"><title>Node4&#45;&gt;Node9</title>
<path fill="none" stroke="midnightblue" d="M547.23,-76.411C567.132,-71.4191 591.657,-65.2676 612.791,-59.9666"/>
<polygon fill="midnightblue" stroke="midnightblue" points="613.697,-63.3479 622.545,-57.5201 611.994,-56.5582 613.697,-63.3479"/>
</g>
<!-- Node10 -->
<g id="node10" class="node"><title>Node10</title>
<g id="a_node10"><a xlink:href="class_edge.html#a3a776c1ccafacdbdb10fdedd9cb329af" target="_top" xlink:title="Edge::getWeight">
<polygon fill="white" stroke="black" points="617,-0.5 617,-19.5 706,-19.5 706,-0.5 617,-0.5"/>
<text text-anchor="middle" x="661.5" y="-7.5" font-family="Helvetica,sans-Serif" font-size="10.00">Edge::getWeight</text>
</a>
</g>
</g>
<!-- Node4&#45;&gt;Node10 -->
<g id="edge9" class="edge"><title>Node4&#45;&gt;Node10</title>
<path fill="none" stroke="midnightblue" d="M525.44,-76.3455C545.867,-64.5206 581.949,-44.1916 614,-29 617.901,-27.1511 622.032,-25.3068 626.158,-23.5345"/>
<polygon fill="midnightblue" stroke="midnightblue" points="627.789,-26.6464 635.666,-19.5614 625.09,-20.1875 627.789,-26.6464"/>
</g>
<!-- Node6 -->
<g id="node6" class="node"><title>Node6</title>
<g id="a_node6"><a xlink:href="classregion_model.html#a56b1a22f355e85211760055c7559cd1e" target="_top" xlink:title="regionModel::getArea">
<polygon fill="white" stroke="black" points="745,-152.5 745,-171.5 854,-171.5 854,-152.5 745,-152.5"/>
<text text-anchor="middle" x="799.5" y="-159.5" font-family="Helvetica,sans-Serif" font-size="10.00">regionModel::getArea</text>
</a>
</g>
</g>
<!-- Node5&#45;&gt;Node6 -->
<g id="edge5" class="edge"><title>Node5&#45;&gt;Node6</title>
<path fill="none" stroke="midnightblue" d="M701.837,-162C712.108,-162 723.446,-162 734.635,-162"/>
<polygon fill="midnightblue" stroke="midnightblue" points="734.833,-165.5 744.833,-162 734.833,-158.5 734.833,-165.5"/>
</g>
<!-- Node11&#45;&gt;Node4 -->
<g id="edge11" class="edge"><title>Node11&#45;&gt;Node4</title>
<path fill="none" stroke="midnightblue" d="M396.405,-86C406.5,-86 417.198,-86 427.808,-86"/>
<polygon fill="midnightblue" stroke="midnightblue" points="427.931,-89.5001 437.93,-86 427.93,-82.5001 427.931,-89.5001"/>
</g>
<!-- Node12&#45;&gt;Node4 -->
<g id="edge13" class="edge"><title>Node12&#45;&gt;Node4</title>
<path fill="none" stroke="midnightblue" d="M382.515,-57.589C404.684,-62.6487 432.073,-68.8996 455.511,-74.2488"/>
<polygon fill="midnightblue" stroke="midnightblue" points="454.759,-77.6671 465.287,-76.4799 456.317,-70.8425 454.759,-77.6671"/>
</g>
</g>
</svg>
