<?xml version="1.0" encoding="UTF-8" standalone="no"?>
<!DOCTYPE svg PUBLIC "-//W3C//DTD SVG 1.1//EN"
 "http://www.w3.org/Graphics/SVG/1.1/DTD/svg11.dtd">
<!-- Generated by graphviz version 2.38.0 (20140413.2041)
 -->
<!-- Title: EdgeHeap::removeFront Pages: 1 -->
<svg width="890pt" height="180pt"
 viewBox="0.00 0.00 890.00 180.00" xmlns="http://www.w3.org/2000/svg" xmlns:xlink="http://www.w3.org/1999/xlink">
<g id="graph0" class="graph" transform="scale(1 1) rotate(0) translate(4 176)">
<title>EdgeHeap::removeFront</title>
<polygon fill="white" stroke="none" points="-4,4 -4,-176 886,-176 886,4 -4,4"/>
<!-- Node1 -->
<g id="node1" class="node"><title>Node1</title>
<polygon fill="#bfbfbf" stroke="black" points="0,-76.5 0,-95.5 123,-95.5 123,-76.5 0,-76.5"/>
<text text-anchor="middle" x="61.5" y="-83.5" font-family="Helvetica,sans-Serif" font-size="10.00">EdgeHeap::removeFront</text>
</g>
<!-- Node2 -->
<g id="node2" class="node"><title>Node2</title>
<g id="a_node2"><a xlink:href="class_edge_heap.html#a71040389a82aaff7be40c94a95afc357" target="_top" xlink:title="EdgeHeap::removeAt">
<polygon fill="white" stroke="black" points="159,-76.5 159,-95.5 269,-95.5 269,-76.5 159,-76.5"/>
<text text-anchor="middle" x="214" y="-83.5" font-family="Helvetica,sans-Serif" font-size="10.00">EdgeHeap::removeAt</text>
</a>
</g>
</g>
<!-- Node1&#45;&gt;Node2 -->
<g id="edge1" class="edge"><title>Node1&#45;&gt;Node2</title>
<path fill="none" stroke="midnightblue" d="M123.28,-86C131.632,-86 140.231,-86 148.644,-86"/>
<polygon fill="midnightblue" stroke="midnightblue" points="148.786,-89.5001 158.786,-86 148.786,-82.5001 148.786,-89.5001"/>
</g>
<!-- Node3 -->
<g id="node3" class="node"><title>Node3</title>
<g id="a_node3"><a xlink:href="class_edge_heap.html#add248e35c4c2443246ff6c7cd654ae9f" target="_top" xlink:title="EdgeHeap::edgeComparator">
<polygon fill="white" stroke="black" points="466,-76.5 466,-95.5 606,-95.5 606,-76.5 466,-76.5"/>
<text text-anchor="middle" x="536" y="-83.5" font-family="Helvetica,sans-Serif" font-size="10.00">EdgeHeap::edgeComparator</text>
</a>
</g>
</g>
<!-- Node2&#45;&gt;Node3 -->
<g id="edge2" class="edge"><title>Node2&#45;&gt;Node3</title>
<path fill="none" stroke="midnightblue" d="M251.508,-95.509C267.761,-99.2739 287.211,-103.143 305,-105 360.255,-110.769 374.667,-109.966 430,-105 447.113,-103.464 465.609,-100.547 482.239,-97.4514"/>
<polygon fill="midnightblue" stroke="midnightblue" points="483.165,-100.838 492.323,-95.5115 481.842,-93.9636 483.165,-100.838"/>
</g>
<!-- Node10 -->
<g id="node10" class="node"><title>Node10</title>
<g id="a_node10"><a xlink:href="class_edge_heap.html#af02715f2265926338a4b33135c821a4c" target="_top" xlink:title="EdgeHeap::heapifyDown">
<polygon fill="white" stroke="black" points="305,-76.5 305,-95.5 430,-95.5 430,-76.5 305,-76.5"/>
<text text-anchor="middle" x="367.5" y="-83.5" font-family="Helvetica,sans-Serif" font-size="10.00">EdgeHeap::heapifyDown</text>
</a>
</g>
</g>
<!-- Node2&#45;&gt;Node10 -->
<g id="edge9" class="edge"><title>Node2&#45;&gt;Node10</title>
<path fill="none" stroke="midnightblue" d="M269.267,-86C277.567,-86 286.241,-86 294.845,-86"/>
<polygon fill="midnightblue" stroke="midnightblue" points="294.886,-89.5001 304.886,-86 294.886,-82.5001 294.886,-89.5001"/>
</g>
<!-- Node11 -->
<g id="node11" class="node"><title>Node11</title>
<g id="a_node11"><a xlink:href="class_edge_heap.html#afc03f4943c606b1d2617654cfaeeabb6" target="_top" xlink:title="EdgeHeap::heapifyUp">
<polygon fill="white" stroke="black" points="311,-38.5 311,-57.5 424,-57.5 424,-38.5 311,-38.5"/>
<text text-anchor="middle" x="367.5" y="-45.5" font-family="Helvetica,sans-Serif" font-size="10.00">EdgeHeap::heapifyUp</text>
</a>
</g>
</g>
<!-- Node2&#45;&gt;Node11 -->
<g id="edge11" class="edge"><title>Node2&#45;&gt;Node11</title>
<path fill="none" stroke="midnightblue" d="M253.23,-76.411C273.132,-71.4191 297.657,-65.2676 318.791,-59.9666"/>
<polygon fill="midnightblue" stroke="midnightblue" points="319.697,-63.3479 328.545,-57.5201 317.994,-56.5582 319.697,-63.3479"/>
</g>
<!-- Node4 -->
<g id="node4" class="node"><title>Node4</title>
<g id="a_node4"><a xlink:href="class_node.html#a13467fc326459c1d607547b3e9470710" target="_top" xlink:title="Node::getArea">
<polygon fill="white" stroke="black" points="649.5,-152.5 649.5,-171.5 729.5,-171.5 729.5,-152.5 649.5,-152.5"/>
<text text-anchor="middle" x="689.5" y="-159.5" font-family="Helvetica,sans-Serif" font-size="10.00">Node::getArea</text>
</a>
</g>
</g>
<!-- Node3&#45;&gt;Node4 -->
<g id="edge3" class="edge"><title>Node3&#45;&gt;Node4</title>
<path fill="none" stroke="midnightblue" d="M553.44,-95.6545C573.867,-107.479 609.949,-127.808 642,-143 645.901,-144.849 650.032,-146.693 654.158,-148.466"/>
<polygon fill="midnightblue" stroke="midnightblue" points="653.09,-151.812 663.666,-152.439 655.789,-145.354 653.09,-151.812"/>
</g>
<!-- Node6 -->
<g id="node6" class="node"><title>Node6</title>
<g id="a_node6"><a xlink:href="class_edge.html#aaaa9cb49c141b310873cd75fd493e22d" target="_top" xlink:title="Edge::getNode1">
<polygon fill="white" stroke="black" points="646,-114.5 646,-133.5 733,-133.5 733,-114.5 646,-114.5"/>
<text text-anchor="middle" x="689.5" y="-121.5" font-family="Helvetica,sans-Serif" font-size="10.00">Edge::getNode1</text>
</a>
</g>
</g>
<!-- Node3&#45;&gt;Node6 -->
<g id="edge5" class="edge"><title>Node3&#45;&gt;Node6</title>
<path fill="none" stroke="midnightblue" d="M575.23,-95.589C595.132,-100.581 619.657,-106.732 640.791,-112.033"/>
<polygon fill="midnightblue" stroke="midnightblue" points="639.994,-115.442 650.545,-114.48 641.697,-108.652 639.994,-115.442"/>
</g>
<!-- Node7 -->
<g id="node7" class="node"><title>Node7</title>
<g id="a_node7"><a xlink:href="class_edge.html#a50017668f77ed019a5caceafbb1eb16f" target="_top" xlink:title="Edge::getNode2">
<polygon fill="white" stroke="black" points="646,-76.5 646,-95.5 733,-95.5 733,-76.5 646,-76.5"/>
<text text-anchor="middle" x="689.5" y="-83.5" font-family="Helvetica,sans-Serif" font-size="10.00">Edge::getNode2</text>
</a>
</g>
</g>
<!-- Node3&#45;&gt;Node7 -->
<g id="edge6" class="edge"><title>Node3&#45;&gt;Node7</title>
<path fill="none" stroke="midnightblue" d="M606.1,-86C616.072,-86 626.199,-86 635.782,-86"/>
<polygon fill="midnightblue" stroke="midnightblue" points="635.935,-89.5001 645.935,-86 635.935,-82.5001 635.935,-89.5001"/>
</g>
<!-- Node8 -->
<g id="node8" class="node"><title>Node8</title>
<g id="a_node8"><a xlink:href="class_node.html#aa3512938403662345b64049920d1cdaf" target="_top" xlink:title="Node::getPosition">
<polygon fill="white" stroke="black" points="642,-38.5 642,-57.5 737,-57.5 737,-38.5 642,-38.5"/>
<text text-anchor="middle" x="689.5" y="-45.5" font-family="Helvetica,sans-Serif" font-size="10.00">Node::getPosition</text>
</a>
</g>
</g>
<!-- Node3&#45;&gt;Node8 -->
<g id="edge7" class="edge"><title>Node3&#45;&gt;Node8</title>
<path fill="none" stroke="midnightblue" d="M575.23,-76.411C595.132,-71.4191 619.657,-65.2676 640.791,-59.9666"/>
<polygon fill="midnightblue" stroke="midnightblue" points="641.697,-63.3479 650.545,-57.5201 639.994,-56.5582 641.697,-63.3479"/>
</g>
<!-- Node9 -->
<g id="node9" class="node"><title>Node9</title>
<g id="a_node9"><a xlink:href="class_edge.html#a3a776c1ccafacdbdb10fdedd9cb329af" target="_top" xlink:title="Edge::getWeight">
<polygon fill="white" stroke="black" points="645,-0.5 645,-19.5 734,-19.5 734,-0.5 645,-0.5"/>
<text text-anchor="middle" x="689.5" y="-7.5" font-family="Helvetica,sans-Serif" font-size="10.00">Edge::getWeight</text>
</a>
</g>
</g>
<!-- Node3&#45;&gt;Node9 -->
<g id="edge8" class="edge"><title>Node3&#45;&gt;Node9</title>
<path fill="none" stroke="midnightblue" d="M553.44,-76.3455C573.867,-64.5206 609.949,-44.1916 642,-29 645.901,-27.1511 650.032,-25.3068 654.158,-23.5345"/>
<polygon fill="midnightblue" stroke="midnightblue" points="655.789,-26.6464 663.666,-19.5614 653.09,-20.1875 655.789,-26.6464"/>
</g>
<!-- Node5 -->
<g id="node5" class="node"><title>Node5</title>
<g id="a_node5"><a xlink:href="classregion_model.html#a56b1a22f355e85211760055c7559cd1e" target="_top" xlink:title="regionModel::getArea">
<polygon fill="white" stroke="black" points="773,-152.5 773,-171.5 882,-171.5 882,-152.5 773,-152.5"/>
<text text-anchor="middle" x="827.5" y="-159.5" font-family="Helvetica,sans-Serif" font-size="10.00">regionModel::getArea</text>
</a>
</g>
</g>
<!-- Node4&#45;&gt;Node5 -->
<g id="edge4" class="edge"><title>Node4&#45;&gt;Node5</title>
<path fill="none" stroke="midnightblue" d="M729.837,-162C740.108,-162 751.446,-162 762.635,-162"/>
<polygon fill="midnightblue" stroke="midnightblue" points="762.833,-165.5 772.833,-162 762.833,-158.5 762.833,-165.5"/>
</g>
<!-- Node10&#45;&gt;Node3 -->
<g id="edge10" class="edge"><title>Node10&#45;&gt;Node3</title>
<path fill="none" stroke="midnightblue" d="M430.025,-86C438.415,-86 447.121,-86 455.768,-86"/>
<polygon fill="midnightblue" stroke="midnightblue" points="455.871,-89.5001 465.871,-86 455.871,-82.5001 455.871,-89.5001"/>
</g>
<!-- Node11&#45;&gt;Node3 -->
<g id="edge12" class="edge"><title>Node11&#45;&gt;Node3</title>
<path fill="none" stroke="midnightblue" d="M410.515,-57.589C432.684,-62.6487 460.073,-68.8996 483.511,-74.2488"/>
<polygon fill="midnightblue" stroke="midnightblue" points="482.759,-77.6671 493.287,-76.4799 484.317,-70.8425 482.759,-77.6671"/>
</g>
</g>
</svg>
