<?xml version="1.0" encoding="UTF-8" standalone="no"?>
<!DOCTYPE svg PUBLIC "-//W3C//DTD SVG 1.1//EN"
 "http://www.w3.org/Graphics/SVG/1.1/DTD/svg11.dtd">
<!-- Generated by graphviz version 2.38.0 (20140413.2041)
 -->
<!-- Title: regionModel::cutCost Pages: 1 -->
<svg width="898pt" height="104pt"
 viewBox="0.00 0.00 898.00 104.00" xmlns="http://www.w3.org/2000/svg" xmlns:xlink="http://www.w3.org/1999/xlink">
<g id="graph0" class="graph" transform="scale(1 1) rotate(0) translate(4 100)">
<title>regionModel::cutCost</title>
<polygon fill="white" stroke="none" points="-4,4 -4,-100 894,-100 894,4 -4,4"/>
<!-- Node5 -->
<g id="node1" class="node"><title>Node5</title>
<polygon fill="#bfbfbf" stroke="black" points="0,-38.5 0,-57.5 110,-57.5 110,-38.5 0,-38.5"/>
<text text-anchor="middle" x="55" y="-45.5" font-family="Helvetica,sans-Serif" font-size="10.00">regionModel::cutCost</text>
</g>
<!-- Node6 -->
<g id="node2" class="node"><title>Node6</title>
<g id="a_node2"><a xlink:href="classio.html#a51779ac390d81e68077752ddf9ee2042" target="_top" xlink:title="io::bestSegmentation">
<polygon fill="white" stroke="black" points="146,-38.5 146,-57.5 255,-57.5 255,-38.5 146,-38.5"/>
<text text-anchor="middle" x="200.5" y="-45.5" font-family="Helvetica,sans-Serif" font-size="10.00">io::bestSegmentation</text>
</a>
</g>
</g>
<!-- Node5&#45;&gt;Node6 -->
<g id="edge1" class="edge"><title>Node5&#45;&gt;Node6</title>
<path fill="none" stroke="midnightblue" d="M120.431,-48C128.858,-48 137.421,-48 145.648,-48"/>
<polygon fill="midnightblue" stroke="midnightblue" points="120.251,-44.5001 110.251,-48 120.251,-51.5001 120.251,-44.5001"/>
</g>
<!-- Node7 -->
<g id="node3" class="node"><title>Node7</title>
<g id="a_node3"><a xlink:href="classimage.html#a12343719e8d96a4bda9c5bd6c035d52a" target="_top" xlink:title="image::mergeBlockX">
<polygon fill="white" stroke="black" points="297,-76.5 297,-95.5 404,-95.5 404,-76.5 297,-76.5"/>
<text text-anchor="middle" x="350.5" y="-83.5" font-family="Helvetica,sans-Serif" font-size="10.00">image::mergeBlockX</text>
</a>
</g>
</g>
<!-- Node6&#45;&gt;Node7 -->
<g id="edge2" class="edge"><title>Node6&#45;&gt;Node7</title>
<path fill="none" stroke="midnightblue" d="M248.673,-60.1121C269.286,-65.4044 293.109,-71.5213 312.422,-76.4799"/>
<polygon fill="midnightblue" stroke="midnightblue" points="249.403,-56.6859 238.847,-57.589 247.662,-63.466 249.403,-56.6859"/>
</g>
<!-- Node11 -->
<g id="node7" class="node"><title>Node11</title>
<g id="a_node7"><a xlink:href="classimage.html#aa21fc5a07af7528869425e750090b3b8" target="_top" xlink:title="image::mergeBlockY">
<polygon fill="white" stroke="black" points="297,-38.5 297,-57.5 404,-57.5 404,-38.5 297,-38.5"/>
<text text-anchor="middle" x="350.5" y="-45.5" font-family="Helvetica,sans-Serif" font-size="10.00">image::mergeBlockY</text>
</a>
</g>
</g>
<!-- Node6&#45;&gt;Node11 -->
<g id="edge6" class="edge"><title>Node6&#45;&gt;Node11</title>
<path fill="none" stroke="midnightblue" d="M265.668,-48C276.105,-48 286.808,-48 296.927,-48"/>
<polygon fill="midnightblue" stroke="midnightblue" points="265.35,-44.5001 255.35,-48 265.35,-51.5001 265.35,-44.5001"/>
</g>
<!-- Node13 -->
<g id="node9" class="node"><title>Node13</title>
<g id="a_node9"><a xlink:href="classimageblock.html#af3b91e3daaa8014af1239f60da6b0bf5" target="_top" xlink:title="imageblock::processing">
<polygon fill="white" stroke="black" points="291,-0.5 291,-19.5 410,-19.5 410,-0.5 291,-0.5"/>
<text text-anchor="middle" x="350.5" y="-7.5" font-family="Helvetica,sans-Serif" font-size="10.00">imageblock::processing</text>
</a>
</g>
</g>
<!-- Node6&#45;&gt;Node13 -->
<g id="edge9" class="edge"><title>Node6&#45;&gt;Node13</title>
<path fill="none" stroke="midnightblue" d="M248.673,-35.8879C269.286,-30.5956 293.109,-24.4787 312.422,-19.5201"/>
<polygon fill="midnightblue" stroke="midnightblue" points="247.662,-32.534 238.847,-38.411 249.403,-39.3141 247.662,-32.534"/>
</g>
<!-- Node8 -->
<g id="node4" class="node"><title>Node8</title>
<g id="a_node4"><a xlink:href="classimage.html#a83026280ad6cc713ec9489ff3bd9776e" target="_top" xlink:title="image::ProcessBoundaryX">
<polygon fill="white" stroke="black" points="446,-76.5 446,-95.5 579,-95.5 579,-76.5 446,-76.5"/>
<text text-anchor="middle" x="512.5" y="-83.5" font-family="Helvetica,sans-Serif" font-size="10.00">image::ProcessBoundaryX</text>
</a>
</g>
</g>
<!-- Node7&#45;&gt;Node8 -->
<g id="edge3" class="edge"><title>Node7&#45;&gt;Node8</title>
<path fill="none" stroke="midnightblue" d="M414.486,-86C424.798,-86 435.505,-86 445.879,-86"/>
<polygon fill="midnightblue" stroke="midnightblue" points="414.333,-82.5001 404.333,-86 414.333,-89.5001 414.333,-82.5001"/>
</g>
<!-- Node9 -->
<g id="node5" class="node"><title>Node9</title>
<g id="a_node5"><a xlink:href="classimage.html#a4689c56b85c46d48ea52f0c9fa13891e" target="_top" xlink:title="image::processing">
<polygon fill="white" stroke="black" points="615,-38.5 615,-57.5 711,-57.5 711,-38.5 615,-38.5"/>
<text text-anchor="middle" x="663" y="-45.5" font-family="Helvetica,sans-Serif" font-size="10.00">image::processing</text>
</a>
</g>
</g>
<!-- Node8&#45;&gt;Node9 -->
<g id="edge4" class="edge"><title>Node8&#45;&gt;Node9</title>
<path fill="none" stroke="midnightblue" d="M560.833,-73.8879C581.515,-68.5956 605.419,-62.4787 624.797,-57.5201"/>
<polygon fill="midnightblue" stroke="midnightblue" points="559.793,-70.5411 550.973,-76.411 561.528,-77.3226 559.793,-70.5411"/>
</g>
<!-- Node10 -->
<g id="node6" class="node"><title>Node10</title>
<g id="a_node6"><a xlink:href="class_main_window.html#a9a45eb9ebe6d27bcd23677d9fbb74dd8" target="_top" xlink:title="MainWindow::on_Go_clicked">
<polygon fill="white" stroke="black" points="747,-38.5 747,-57.5 890,-57.5 890,-38.5 747,-38.5"/>
<text text-anchor="middle" x="818.5" y="-45.5" font-family="Helvetica,sans-Serif" font-size="10.00">MainWindow::on_Go_clicked</text>
</a>
</g>
</g>
<!-- Node9&#45;&gt;Node10 -->
<g id="edge5" class="edge"><title>Node9&#45;&gt;Node10</title>
<path fill="none" stroke="midnightblue" d="M721.583,-48C729.853,-48 738.441,-48 746.928,-48"/>
<polygon fill="midnightblue" stroke="midnightblue" points="721.308,-44.5001 711.308,-48 721.308,-51.5001 721.308,-44.5001"/>
</g>
<!-- Node12 -->
<g id="node8" class="node"><title>Node12</title>
<g id="a_node8"><a xlink:href="classimage.html#adf6b8c126649c9a40387f12b5f5f07d5" target="_top" xlink:title="image::ProcessBoundaryY">
<polygon fill="white" stroke="black" points="446,-38.5 446,-57.5 579,-57.5 579,-38.5 446,-38.5"/>
<text text-anchor="middle" x="512.5" y="-45.5" font-family="Helvetica,sans-Serif" font-size="10.00">image::ProcessBoundaryY</text>
</a>
</g>
</g>
<!-- Node11&#45;&gt;Node12 -->
<g id="edge7" class="edge"><title>Node11&#45;&gt;Node12</title>
<path fill="none" stroke="midnightblue" d="M414.486,-48C424.798,-48 435.505,-48 445.879,-48"/>
<polygon fill="midnightblue" stroke="midnightblue" points="414.333,-44.5001 404.333,-48 414.333,-51.5001 414.333,-44.5001"/>
</g>
<!-- Node12&#45;&gt;Node9 -->
<g id="edge8" class="edge"><title>Node12&#45;&gt;Node9</title>
<path fill="none" stroke="midnightblue" d="M589.207,-48C597.858,-48 606.483,-48 614.612,-48"/>
<polygon fill="midnightblue" stroke="midnightblue" points="589.067,-44.5001 579.067,-48 589.066,-51.5001 589.067,-44.5001"/>
</g>
<!-- Node14 -->
<g id="node10" class="node"><title>Node14</title>
<g id="a_node10"><a xlink:href="classimage.html#ad5a9d767eca6f9bbb8dcb556527edf4d" target="_top" xlink:title="image::ProcessTiles">
<polygon fill="white" stroke="black" points="459.5,-0.5 459.5,-19.5 565.5,-19.5 565.5,-0.5 459.5,-0.5"/>
<text text-anchor="middle" x="512.5" y="-7.5" font-family="Helvetica,sans-Serif" font-size="10.00">image::ProcessTiles</text>
</a>
</g>
</g>
<!-- Node13&#45;&gt;Node14 -->
<g id="edge10" class="edge"><title>Node13&#45;&gt;Node14</title>
<path fill="none" stroke="midnightblue" d="M420.525,-10C433.577,-10 447.026,-10 459.447,-10"/>
<polygon fill="midnightblue" stroke="midnightblue" points="420.17,-6.5001 410.17,-10 420.17,-13.5001 420.17,-6.5001"/>
</g>
<!-- Node14&#45;&gt;Node9 -->
<g id="edge11" class="edge"><title>Node14&#45;&gt;Node9</title>
<path fill="none" stroke="midnightblue" d="M560.833,-22.1121C581.515,-27.4044 605.419,-33.5213 624.797,-38.4799"/>
<polygon fill="midnightblue" stroke="midnightblue" points="561.528,-18.6774 550.973,-19.589 559.793,-25.4589 561.528,-18.6774"/>
</g>
</g>
</svg>
