<?xml version="1.0" encoding="UTF-8" standalone="no"?>
<!DOCTYPE svg PUBLIC "-//W3C//DTD SVG 1.1//EN"
 "http://www.w3.org/Graphics/SVG/1.1/DTD/svg11.dtd">
<!-- Generated by graphviz version 2.38.0 (20140413.2041)
 -->
<!-- Title: probabilityModel::getNClasses Pages: 1 -->
<svg width="471pt" height="28pt"
 viewBox="0.00 0.00 471.00 28.00" xmlns="http://www.w3.org/2000/svg" xmlns:xlink="http://www.w3.org/1999/xlink">
<g id="graph0" class="graph" transform="scale(1 1) rotate(0) translate(4 24)">
<title>probabilityModel::getNClasses</title>
<polygon fill="white" stroke="none" points="-4,4 -4,-24 467,-24 467,4 -4,4"/>
<!-- Node53 -->
<g id="node1" class="node"><title>Node53</title>
<polygon fill="#bfbfbf" stroke="black" points="0,-0.5 0,-19.5 150,-19.5 150,-0.5 0,-0.5"/>
<text text-anchor="middle" x="75" y="-7.5" font-family="Helvetica,sans-Serif" font-size="10.00">probabilityModel::getNClasses</text>
</g>
<!-- Node54 -->
<g id="node2" class="node"><title>Node54</title>
<g id="a_node2"><a xlink:href="classprobability_model.html#a1d238fa939658901dc69099d4c350637" target="_top" xlink:title="probabilityModel::merge">
<polygon fill="white" stroke="black" points="186,-0.5 186,-19.5 306,-19.5 306,-0.5 186,-0.5"/>
<text text-anchor="middle" x="246" y="-7.5" font-family="Helvetica,sans-Serif" font-size="10.00">probabilityModel::merge</text>
</a>
</g>
</g>
<!-- Node53&#45;&gt;Node54 -->
<g id="edge1" class="edge"><title>Node53&#45;&gt;Node54</title>
<path fill="none" stroke="midnightblue" d="M160.273,-10C168.937,-10 177.604,-10 185.91,-10"/>
<polygon fill="midnightblue" stroke="midnightblue" points="160.126,-6.5001 150.126,-10 160.126,-13.5001 160.126,-6.5001"/>
</g>
<!-- Node55 -->
<g id="node3" class="node"><title>Node55</title>
<g id="a_node3"><a xlink:href="classcompound_model.html#a3a4f1be5ccd6230918036dcc56328033" target="_top" xlink:title="compoundModel::merge">
<polygon fill="white" stroke="black" points="342,-0.5 342,-19.5 463,-19.5 463,-0.5 342,-0.5"/>
<text text-anchor="middle" x="402.5" y="-7.5" font-family="Helvetica,sans-Serif" font-size="10.00">compoundModel::merge</text>
</a>
</g>
</g>
<!-- Node54&#45;&gt;Node55 -->
<g id="edge2" class="edge"><title>Node54&#45;&gt;Node55</title>
<path fill="none" stroke="midnightblue" d="M316.519,-10C324.977,-10 333.56,-10 341.856,-10"/>
<polygon fill="midnightblue" stroke="midnightblue" points="316.292,-6.5001 306.292,-10 316.292,-13.5001 316.292,-6.5001"/>
</g>
</g>
</svg>
