<?xml version="1.0" encoding="UTF-8" standalone="no"?>
<!DOCTYPE svg PUBLIC "-//W3C//DTD SVG 1.1//EN"
 "http://www.w3.org/Graphics/SVG/1.1/DTD/svg11.dtd">
<!-- Generated by graphviz version 2.38.0 (20140413.2041)
 -->
<!-- Title: histogramModel::clone Pages: 1 -->
<svg width="438pt" height="56pt"
 viewBox="0.00 0.00 438.00 55.50" xmlns="http://www.w3.org/2000/svg" xmlns:xlink="http://www.w3.org/1999/xlink">
<g id="graph0" class="graph" transform="scale(1 1) rotate(0) translate(4 51.5)">
<title>histogramModel::clone</title>
<polygon fill="white" stroke="none" points="-4,4 -4,-51.5 434,-51.5 434,4 -4,4"/>
<!-- Node13 -->
<g id="node1" class="node"><title>Node13</title>
<polygon fill="#bfbfbf" stroke="black" points="0,-0.5 0,-19.5 115,-19.5 115,-0.5 0,-0.5"/>
<text text-anchor="middle" x="57.5" y="-7.5" font-family="Helvetica,sans-Serif" font-size="10.00">histogramModel::clone</text>
</g>
<!-- Node14 -->
<g id="node2" class="node"><title>Node14</title>
<g id="a_node2"><a xlink:href="classhistogram_model.html#a165ed6726e5911b4332e687618f10a05" target="_top" xlink:title="histogramModel::histogram\lModel">
<polygon fill="white" stroke="black" points="151,-17 151,-47 285,-47 285,-17 151,-17"/>
<text text-anchor="start" x="159" y="-35" font-family="Helvetica,sans-Serif" font-size="10.00">histogramModel::histogram</text>
<text text-anchor="middle" x="218" y="-24" font-family="Helvetica,sans-Serif" font-size="10.00">Model</text>
</a>
</g>
</g>
<!-- Node13&#45;&gt;Node14 -->
<g id="edge1" class="edge"><title>Node13&#45;&gt;Node14</title>
<path fill="none" stroke="midnightblue" d="M115.274,-17.8804C123.574,-19.0324 132.233,-20.2342 140.842,-21.4292"/>
<polygon fill="midnightblue" stroke="midnightblue" points="140.516,-24.9174 150.903,-22.8256 141.479,-17.9839 140.516,-24.9174"/>
</g>
<!-- Node15 -->
<g id="node3" class="node"><title>Node15</title>
<g id="a_node3"><a xlink:href="classregion_model.html#a7f6a5d1ab86d69e213ebb81973481330" target="_top" xlink:title="regionModel::setArea">
<polygon fill="white" stroke="black" points="321,-0.5 321,-19.5 430,-19.5 430,-0.5 321,-0.5"/>
<text text-anchor="middle" x="375.5" y="-7.5" font-family="Helvetica,sans-Serif" font-size="10.00">regionModel::setArea</text>
</a>
</g>
</g>
<!-- Node13&#45;&gt;Node15 -->
<g id="edge3" class="edge"><title>Node13&#45;&gt;Node15</title>
<path fill="none" stroke="midnightblue" d="M115.242,-8.57936C127.059,-8.3379 139.435,-8.12501 151,-8 210.552,-7.35627 225.448,-7.3347 285,-8 293.266,-8.09235 301.96,-8.23265 310.549,-8.397"/>
<polygon fill="midnightblue" stroke="midnightblue" points="310.481,-11.8962 320.55,-8.59954 310.623,-4.89768 310.481,-11.8962"/>
</g>
<!-- Node14&#45;&gt;Node15 -->
<g id="edge2" class="edge"><title>Node14&#45;&gt;Node15</title>
<path fill="none" stroke="midnightblue" d="M285.397,-22.6062C293.848,-21.4106 302.482,-20.1891 310.887,-18.9999"/>
<polygon fill="midnightblue" stroke="midnightblue" points="311.588,-22.4356 320.999,-17.5692 310.608,-15.5047 311.588,-22.4356"/>
</g>
</g>
</svg>
