<?xml version="1.0" encoding="UTF-8" standalone="no"?>
<!DOCTYPE svg PUBLIC "-//W3C//DTD SVG 1.1//EN"
 "http://www.w3.org/Graphics/SVG/1.1/DTD/svg11.dtd">
<!-- Generated by graphviz version 2.38.0 (20140413.2041)
 -->
<!-- Title: initializer::addProbModel Pages: 1 -->
<svg width="320pt" height="78pt"
 viewBox="0.00 0.00 320.00 77.50" xmlns="http://www.w3.org/2000/svg" xmlns:xlink="http://www.w3.org/1999/xlink">
<g id="graph0" class="graph" transform="scale(1 1) rotate(0) translate(4 73.5)">
<title>initializer::addProbModel</title>
<polygon fill="white" stroke="none" points="-4,4 -4,-73.5 316,-73.5 316,4 -4,4"/>
<!-- Node33 -->
<g id="node1" class="node"><title>Node33</title>
<polygon fill="#bfbfbf" stroke="black" points="0,-28 0,-47 123,-47 123,-28 0,-28"/>
<text text-anchor="middle" x="61.5" y="-35" font-family="Helvetica,sans-Serif" font-size="10.00">initializer::addProbModel</text>
</g>
<!-- Node34 -->
<g id="node2" class="node"><title>Node34</title>
<g id="a_node2"><a xlink:href="classprobability_model.html#ab6946deb86171e935e9f085d103ec3be" target="_top" xlink:title="probabilityModel::setClassCost">
<polygon fill="white" stroke="black" points="159,-50 159,-69 312,-69 312,-50 159,-50"/>
<text text-anchor="middle" x="235.5" y="-57" font-family="Helvetica,sans-Serif" font-size="10.00">probabilityModel::setClassCost</text>
</a>
</g>
</g>
<!-- Node33&#45;&gt;Node34 -->
<g id="edge1" class="edge"><title>Node33&#45;&gt;Node34</title>
<path fill="none" stroke="midnightblue" d="M123.141,-45.2564C131.784,-46.3619 140.803,-47.5155 149.803,-48.6666"/>
<polygon fill="midnightblue" stroke="midnightblue" points="149.571,-52.1655 159.935,-49.9626 150.46,-45.222 149.571,-52.1655"/>
</g>
<!-- Node35 -->
<g id="node3" class="node"><title>Node35</title>
<g id="a_node3"><a xlink:href="classprobability_model.html#ab5b9f2804370816e02829af11124b3b5" target="_top" xlink:title="probabilityModel::setClass\lProbability">
<polygon fill="white" stroke="black" points="169.5,-0.5 169.5,-30.5 301.5,-30.5 301.5,-0.5 169.5,-0.5"/>
<text text-anchor="start" x="177.5" y="-18.5" font-family="Helvetica,sans-Serif" font-size="10.00">probabilityModel::setClass</text>
<text text-anchor="middle" x="235.5" y="-7.5" font-family="Helvetica,sans-Serif" font-size="10.00">Probability</text>
</a>
</g>
</g>
<!-- Node33&#45;&gt;Node35 -->
<g id="edge2" class="edge"><title>Node33&#45;&gt;Node35</title>
<path fill="none" stroke="midnightblue" d="M123.141,-29.7436C134.853,-28.2456 147.254,-26.6594 159.363,-25.1105"/>
<polygon fill="midnightblue" stroke="midnightblue" points="159.969,-28.5616 169.444,-23.8211 159.081,-21.6182 159.969,-28.5616"/>
</g>
</g>
</svg>
