<?xml version="1.0" encoding="UTF-8" standalone="no"?>
<!DOCTYPE svg PUBLIC "-//W3C//DTD SVG 1.1//EN"
 "http://www.w3.org/Graphics/SVG/1.1/DTD/svg11.dtd">
<!-- Generated by graphviz version 2.38.0 (20140413.2041)
 -->
<!-- Title: initializer::addEdges Pages: 1 -->
<svg width="430pt" height="332pt"
 viewBox="0.00 0.00 430.00 332.00" xmlns="http://www.w3.org/2000/svg" xmlns:xlink="http://www.w3.org/1999/xlink">
<g id="graph0" class="graph" transform="scale(1 1) rotate(0) translate(4 328)">
<title>initializer::addEdges</title>
<polygon fill="white" stroke="none" points="-4,4 -4,-328 426,-328 426,4 -4,4"/>
<!-- Node1 -->
<g id="node1" class="node"><title>Node1</title>
<polygon fill="#bfbfbf" stroke="black" points="0,-152.5 0,-171.5 104,-171.5 104,-152.5 0,-152.5"/>
<text text-anchor="middle" x="52" y="-159.5" font-family="Helvetica,sans-Serif" font-size="10.00">initializer::addEdges</text>
</g>
<!-- Node2 -->
<g id="node2" class="node"><title>Node2</title>
<g id="a_node2"><a xlink:href="class_r_a_g.html#a7e9e7021580e97ce5cac0ca30ccd8119" target="_top" xlink:title="RAG::addEdge">
<polygon fill="white" stroke="black" points="163.5,-304.5 163.5,-323.5 246.5,-323.5 246.5,-304.5 163.5,-304.5"/>
<text text-anchor="middle" x="205" y="-311.5" font-family="Helvetica,sans-Serif" font-size="10.00">RAG::addEdge</text>
</a>
</g>
</g>
<!-- Node1&#45;&gt;Node2 -->
<g id="edge1" class="edge"><title>Node1&#45;&gt;Node2</title>
<path fill="none" stroke="midnightblue" d="M56.5813,-171.71C66.1353,-196.254 94.633,-261.219 140,-295 144.192,-298.121 148.893,-300.733 153.794,-302.917"/>
<polygon fill="midnightblue" stroke="midnightblue" points="152.793,-306.282 163.382,-306.612 155.31,-299.75 152.793,-306.282"/>
</g>
<!-- Node4 -->
<g id="node4" class="node"><title>Node4</title>
<g id="a_node4"><a xlink:href="class_node.html#a86573dcde1125e02936ee7c256fb270a" target="_top" xlink:title="Node::addEdge">
<polygon fill="white" stroke="black" points="163,-266.5 163,-285.5 247,-285.5 247,-266.5 163,-266.5"/>
<text text-anchor="middle" x="205" y="-273.5" font-family="Helvetica,sans-Serif" font-size="10.00">Node::addEdge</text>
</a>
</g>
</g>
<!-- Node1&#45;&gt;Node4 -->
<g id="edge3" class="edge"><title>Node1&#45;&gt;Node4</title>
<path fill="none" stroke="midnightblue" d="M59.1672,-171.672C71.9013,-190.858 103.027,-233.873 140,-257 144.142,-259.591 148.656,-261.844 153.306,-263.8"/>
<polygon fill="midnightblue" stroke="midnightblue" points="152.376,-267.189 162.968,-267.411 154.826,-260.632 152.376,-267.189"/>
</g>
<!-- Node5 -->
<g id="node5" class="node"><title>Node5</title>
<g id="a_node5"><a xlink:href="class_node.html#adcc7f26a2ccf3a8fcc387ed820624d99" target="_top" xlink:title="Node::getModel">
<polygon fill="white" stroke="black" points="162,-228.5 162,-247.5 248,-247.5 248,-228.5 162,-228.5"/>
<text text-anchor="middle" x="205" y="-235.5" font-family="Helvetica,sans-Serif" font-size="10.00">Node::getModel</text>
</a>
</g>
</g>
<!-- Node1&#45;&gt;Node5 -->
<g id="edge4" class="edge"><title>Node1&#45;&gt;Node5</title>
<path fill="none" stroke="midnightblue" d="M65.0081,-171.515C81.2043,-183.95 111.333,-205.704 140,-219 144.929,-221.286 150.198,-223.372 155.518,-225.254"/>
<polygon fill="midnightblue" stroke="midnightblue" points="154.494,-228.602 165.087,-228.422 156.694,-221.957 154.494,-228.602"/>
</g>
<!-- Node6 -->
<g id="node6" class="node"><title>Node6</title>
<g id="a_node6"><a xlink:href="classregion_model.html#a822975b706699cc553f92035581246bc" target="_top" xlink:title="regionModel::getOrder">
<polygon fill="white" stroke="black" points="148.5,-190.5 148.5,-209.5 261.5,-209.5 261.5,-190.5 148.5,-190.5"/>
<text text-anchor="middle" x="205" y="-197.5" font-family="Helvetica,sans-Serif" font-size="10.00">regionModel::getOrder</text>
</a>
</g>
</g>
<!-- Node1&#45;&gt;Node6 -->
<g id="edge5" class="edge"><title>Node1&#45;&gt;Node6</title>
<path fill="none" stroke="midnightblue" d="M91.1037,-171.589C110.94,-176.581 135.384,-182.732 156.448,-188.033"/>
<polygon fill="midnightblue" stroke="midnightblue" points="155.618,-191.434 166.17,-190.48 157.327,-184.645 155.618,-191.434"/>
</g>
<!-- Node7 -->
<g id="node7" class="node"><title>Node7</title>
<g id="a_node7"><a xlink:href="class_node.html#aa3512938403662345b64049920d1cdaf" target="_top" xlink:title="Node::getPosition">
<polygon fill="white" stroke="black" points="316.5,-114.5 316.5,-133.5 411.5,-133.5 411.5,-114.5 316.5,-114.5"/>
<text text-anchor="middle" x="364" y="-121.5" font-family="Helvetica,sans-Serif" font-size="10.00">Node::getPosition</text>
</a>
</g>
</g>
<!-- Node1&#45;&gt;Node7 -->
<g id="edge6" class="edge"><title>Node1&#45;&gt;Node7</title>
<path fill="none" stroke="midnightblue" d="M104.051,-159.181C148.146,-156.353 213.49,-151.219 270,-143 283.515,-141.034 298.026,-138.35 311.472,-135.619"/>
<polygon fill="midnightblue" stroke="midnightblue" points="312.434,-138.994 321.512,-133.532 311.009,-132.14 312.434,-138.994"/>
</g>
<!-- Node8 -->
<g id="node8" class="node"><title>Node8</title>
<g id="a_node8"><a xlink:href="class_node.html#ac514917c2beff2faebf1e48760cc6b40" target="_top" xlink:title="Node::nodeComparator_X">
<polygon fill="white" stroke="black" points="140,-114.5 140,-133.5 270,-133.5 270,-114.5 140,-114.5"/>
<text text-anchor="middle" x="205" y="-121.5" font-family="Helvetica,sans-Serif" font-size="10.00">Node::nodeComparator_X</text>
</a>
</g>
</g>
<!-- Node1&#45;&gt;Node8 -->
<g id="edge7" class="edge"><title>Node1&#45;&gt;Node8</title>
<path fill="none" stroke="midnightblue" d="M91.1037,-152.411C110.94,-147.419 135.384,-141.268 156.448,-135.967"/>
<polygon fill="midnightblue" stroke="midnightblue" points="157.327,-139.355 166.17,-133.52 155.618,-132.566 157.327,-139.355"/>
</g>
<!-- Node9 -->
<g id="node9" class="node"><title>Node9</title>
<g id="a_node9"><a xlink:href="class_node.html#a566bec893ce0b318bad8600f3b1e3e4a" target="_top" xlink:title="Node::nodeComparator_Y">
<polygon fill="white" stroke="black" points="140,-76.5 140,-95.5 270,-95.5 270,-76.5 140,-76.5"/>
<text text-anchor="middle" x="205" y="-83.5" font-family="Helvetica,sans-Serif" font-size="10.00">Node::nodeComparator_Y</text>
</a>
</g>
</g>
<!-- Node1&#45;&gt;Node9 -->
<g id="edge9" class="edge"><title>Node1&#45;&gt;Node9</title>
<path fill="none" stroke="midnightblue" d="M65.0081,-152.485C81.2043,-140.05 111.333,-118.296 140,-105 144.929,-102.714 150.198,-100.628 155.518,-98.7457"/>
<polygon fill="midnightblue" stroke="midnightblue" points="156.694,-102.043 165.087,-95.5778 154.494,-95.3981 156.694,-102.043"/>
</g>
<!-- Node10 -->
<g id="node10" class="node"><title>Node10</title>
<g id="a_node10"><a xlink:href="class_edge.html#a9825f846eb203bc2ebe0e5ee4dcf9c3b" target="_top" xlink:title="Edge::setLength">
<polygon fill="white" stroke="black" points="161,-38.5 161,-57.5 249,-57.5 249,-38.5 161,-38.5"/>
<text text-anchor="middle" x="205" y="-45.5" font-family="Helvetica,sans-Serif" font-size="10.00">Edge::setLength</text>
</a>
</g>
</g>
<!-- Node1&#45;&gt;Node10 -->
<g id="edge11" class="edge"><title>Node1&#45;&gt;Node10</title>
<path fill="none" stroke="midnightblue" d="M59.1672,-152.328C71.9013,-133.142 103.027,-90.1266 140,-67 143.593,-64.7527 147.465,-62.7598 151.463,-60.9944"/>
<polygon fill="midnightblue" stroke="midnightblue" points="152.916,-64.184 160.949,-57.2755 150.362,-57.6669 152.916,-64.184"/>
</g>
<!-- Node11 -->
<g id="node11" class="node"><title>Node11</title>
<g id="a_node11"><a xlink:href="class_edge.html#a7ba1bfa5c9c7972d2c31b2c3ba3d7c69" target="_top" xlink:title="Edge::setWeight">
<polygon fill="white" stroke="black" points="160.5,-0.5 160.5,-19.5 249.5,-19.5 249.5,-0.5 160.5,-0.5"/>
<text text-anchor="middle" x="205" y="-7.5" font-family="Helvetica,sans-Serif" font-size="10.00">Edge::setWeight</text>
</a>
</g>
</g>
<!-- Node1&#45;&gt;Node11 -->
<g id="edge12" class="edge"><title>Node1&#45;&gt;Node11</title>
<path fill="none" stroke="midnightblue" d="M56.5813,-152.29C66.1353,-127.746 94.633,-62.7815 140,-29 143.399,-26.4691 147.132,-24.2735 151.036,-22.3691"/>
<polygon fill="midnightblue" stroke="midnightblue" points="152.518,-25.5426 160.374,-18.4334 149.799,-19.0922 152.518,-25.5426"/>
</g>
<!-- Node3 -->
<g id="node3" class="node"><title>Node3</title>
<g id="a_node3"><a xlink:href="class_edge_heap.html#a00862191edc866b129f0a735a81861bf" target="_top" xlink:title="EdgeHeap::push_back">
<polygon fill="white" stroke="black" points="306,-304.5 306,-323.5 422,-323.5 422,-304.5 306,-304.5"/>
<text text-anchor="middle" x="364" y="-311.5" font-family="Helvetica,sans-Serif" font-size="10.00">EdgeHeap::push_back</text>
</a>
</g>
</g>
<!-- Node2&#45;&gt;Node3 -->
<g id="edge2" class="edge"><title>Node2&#45;&gt;Node3</title>
<path fill="none" stroke="midnightblue" d="M246.84,-314C261.738,-314 279.007,-314 295.601,-314"/>
<polygon fill="midnightblue" stroke="midnightblue" points="295.818,-317.5 305.818,-314 295.818,-310.5 295.818,-317.5"/>
</g>
<!-- Node8&#45;&gt;Node7 -->
<g id="edge8" class="edge"><title>Node8&#45;&gt;Node7</title>
<path fill="none" stroke="midnightblue" d="M270.311,-124C282.231,-124 294.603,-124 306.278,-124"/>
<polygon fill="midnightblue" stroke="midnightblue" points="306.328,-127.5 316.328,-124 306.328,-120.5 306.328,-127.5"/>
</g>
<!-- Node9&#45;&gt;Node7 -->
<g id="edge10" class="edge"><title>Node9&#45;&gt;Node7</title>
<path fill="none" stroke="midnightblue" d="M245.618,-95.589C266.336,-100.604 291.888,-106.788 313.856,-112.105"/>
<polygon fill="midnightblue" stroke="midnightblue" points="313.124,-115.529 323.667,-114.48 314.771,-108.726 313.124,-115.529"/>
</g>
</g>
</svg>
