<?xml version="1.0" encoding="UTF-8" standalone="no"?>
<!DOCTYPE svg PUBLIC "-//W3C//DTD SVG 1.1//EN"
 "http://www.w3.org/Graphics/SVG/1.1/DTD/svg11.dtd">
<!-- Generated by graphviz version 2.38.0 (20140413.2041)
 -->
<!-- Title: EdgeHeap::removeFront Pages: 1 -->
<!--zoomable 104 -->
<svg id="main" version="1.1" xmlns="http://www.w3.org/2000/svg" xmlns:xlink="http://www.w3.org/1999/xlink" xml:space="preserve" onload="init(evt)">
<style type="text/css"><![CDATA[
.edge:hover path { stroke: red; }
.edge:hover polygon { stroke: red; fill: red; }
]]></style>
<script type="text/javascript"><![CDATA[
var edges = document.getElementsByTagName('g');
if (edges && edges.length) {
  for (var i=0;i<edges.length;i++) {
    if (edges[i].id.substr(0,4)=='edge') {
      edges[i].setAttribute('class','edge');
    }
  }
}
]]></script>
        <defs>
                <circle id="rim" cx="0" cy="0" r="7"/>
                <circle id="rim2" cx="0" cy="0" r="3.5"/>
                <g id="zoomPlus">
                        <use xlink:href="#rim" fill="#404040">
                                <set attributeName="fill" to="#808080" begin="zoomplus.mouseover" end="zoomplus.mouseout"/>
                        </use>
                        <path d="M-4,0h8M0,-4v8" fill="none" stroke="white" stroke-width="1.5" pointer-events="none"/>
                </g>
                <g id="zoomMin">
                        <use xlink:href="#rim" fill="#404040">
                                <set attributeName="fill" to="#808080" begin="zoomminus.mouseover" end="zoomminus.mouseout"/>
                        </use>
                        <path d="M-4,0h8" fill="none" stroke="white" stroke-width="1.5" pointer-events="none"/>
                </g>
                <g id="dirArrow">
                        <path fill="none" stroke="white" stroke-width="1.5" d="M0,-3.0v7 M-2.5,-0.5L0,-3.0L2.5,-0.5"/>
                </g>
               <g id="resetDef">
                       <use xlink:href="#rim2" fill="#404040">
                               <set attributeName="fill" to="#808080" begin="reset.mouseover" end="reset.mouseout"/>
                       </use>
               </g>
        </defs>

<script type="text/javascript">
var viewWidth = 1076;
var viewHeight = 104;
var sectionId = 'dynsection-17';
</script>
<script xlink:href="svgpan.js"/>
<svg id="graph" class="graph">
<g id="viewport">
<title>EdgeHeap::removeFront</title>
<polygon fill="white" stroke="none" points="-4,4 -4,-100 1072,-100 1072,4 -4,4"/>
<!-- Node213 -->
<g id="node1" class="node"><title>Node213</title>
<polygon fill="#bfbfbf" stroke="black" points="0,-38.5 0,-57.5 123,-57.5 123,-38.5 0,-38.5"/>
<text text-anchor="middle" x="61.5" y="-45.5" font-family="Helvetica,sans-Serif" font-size="10.00">EdgeHeap::removeFront</text>
</g>
<!-- Node214 -->
<g id="node2" class="node"><title>Node214</title>
<g id="a_node2"><a xlink:href="class_r_a_g.html#ab09eebb1b704d18b583d528e77f7604a" target="_top" xlink:title="RAG::regionMerging">
<polygon fill="white" stroke="black" points="159,-38.5 159,-57.5 264,-57.5 264,-38.5 159,-38.5"/>
<text text-anchor="middle" x="211.5" y="-45.5" font-family="Helvetica,sans-Serif" font-size="10.00">RAG::regionMerging</text>
</a>
</g>
</g>
<!-- Node213&#45;&gt;Node214 -->
<g id="edge1" class="edge"><title>Node213&#45;&gt;Node214</title>
<path fill="none" stroke="midnightblue" d="M133.177,-48C141.787,-48 150.457,-48 158.721,-48"/>
<polygon fill="midnightblue" stroke="midnightblue" points="133.124,-44.5001 123.124,-48 133.124,-51.5001 133.124,-44.5001"/>
</g>
<!-- Node215 -->
<g id="node3" class="node"><title>Node215</title>
<g id="a_node3"><a xlink:href="classimage.html#a12343719e8d96a4bda9c5bd6c035d52a" target="_top" xlink:title="image::mergeBlockX">
<polygon fill="white" stroke="black" points="306,-76.5 306,-95.5 413,-95.5 413,-76.5 306,-76.5"/>
<text text-anchor="middle" x="359.5" y="-83.5" font-family="Helvetica,sans-Serif" font-size="10.00">image::mergeBlockX</text>
</a>
</g>
</g>
<!-- Node214&#45;&gt;Node215 -->
<g id="edge2" class="edge"><title>Node214&#45;&gt;Node215</title>
<path fill="none" stroke="midnightblue" d="M259.036,-60.1121C279.37,-65.4044 302.871,-71.5213 321.923,-76.4799"/>
<polygon fill="midnightblue" stroke="midnightblue" points="259.901,-56.7207 249.342,-57.589 258.138,-63.4951 259.901,-56.7207"/>
</g>
<!-- Node219 -->
<g id="node7" class="node"><title>Node219</title>
<g id="a_node7"><a xlink:href="classimage.html#aa21fc5a07af7528869425e750090b3b8" target="_top" xlink:title="image::mergeBlockY">
<polygon fill="white" stroke="black" points="306,-38.5 306,-57.5 413,-57.5 413,-38.5 306,-38.5"/>
<text text-anchor="middle" x="359.5" y="-45.5" font-family="Helvetica,sans-Serif" font-size="10.00">image::mergeBlockY</text>
</a>
</g>
</g>
<!-- Node214&#45;&gt;Node219 -->
<g id="edge6" class="edge"><title>Node214&#45;&gt;Node219</title>
<path fill="none" stroke="midnightblue" d="M274.631,-48C285.008,-48 295.685,-48 305.797,-48"/>
<polygon fill="midnightblue" stroke="midnightblue" points="274.385,-44.5001 264.385,-48 274.385,-51.5001 274.385,-44.5001"/>
</g>
<!-- Node221 -->
<g id="node9" class="node"><title>Node221</title>
<g id="a_node9"><a xlink:href="classimageblock.html#abcc69a8c00ad79067185c700463f8126" target="_top" xlink:title="imageblock::createBPT">
<polygon fill="white" stroke="black" points="300,-0.5 300,-19.5 419,-19.5 419,-0.5 300,-0.5"/>
<text text-anchor="middle" x="359.5" y="-7.5" font-family="Helvetica,sans-Serif" font-size="10.00">imageblock::createBPT</text>
</a>
</g>
</g>
<!-- Node214&#45;&gt;Node221 -->
<g id="edge9" class="edge"><title>Node214&#45;&gt;Node221</title>
<path fill="none" stroke="midnightblue" d="M259.036,-35.8879C279.37,-30.5956 302.871,-24.4787 321.923,-19.5201"/>
<polygon fill="midnightblue" stroke="midnightblue" points="258.138,-32.5049 249.342,-38.411 259.901,-39.2793 258.138,-32.5049"/>
</g>
<!-- Node216 -->
<g id="node4" class="node"><title>Node216</title>
<g id="a_node4"><a xlink:href="classimage.html#a83026280ad6cc713ec9489ff3bd9776e" target="_top" xlink:title="image::ProcessBoundaryX">
<polygon fill="white" stroke="black" points="624,-76.5 624,-95.5 757,-95.5 757,-76.5 624,-76.5"/>
<text text-anchor="middle" x="690.5" y="-83.5" font-family="Helvetica,sans-Serif" font-size="10.00">image::ProcessBoundaryX</text>
</a>
</g>
</g>
<!-- Node215&#45;&gt;Node216 -->
<g id="edge3" class="edge"><title>Node215&#45;&gt;Node216</title>
<path fill="none" stroke="midnightblue" d="M423.399,-86C480.829,-86 565.414,-86 623.728,-86"/>
<polygon fill="midnightblue" stroke="midnightblue" points="423.36,-82.5001 413.36,-86 423.36,-89.5001 423.36,-82.5001"/>
</g>
<!-- Node217 -->
<g id="node5" class="node"><title>Node217</title>
<g id="a_node5"><a xlink:href="classimage.html#a4689c56b85c46d48ea52f0c9fa13891e" target="_top" xlink:title="image::processing">
<polygon fill="white" stroke="black" points="793,-38.5 793,-57.5 889,-57.5 889,-38.5 793,-38.5"/>
<text text-anchor="middle" x="841" y="-45.5" font-family="Helvetica,sans-Serif" font-size="10.00">image::processing</text>
</a>
</g>
</g>
<!-- Node216&#45;&gt;Node217 -->
<g id="edge4" class="edge"><title>Node216&#45;&gt;Node217</title>
<path fill="none" stroke="midnightblue" d="M738.833,-73.8879C759.515,-68.5956 783.419,-62.4787 802.797,-57.5201"/>
<polygon fill="midnightblue" stroke="midnightblue" points="737.793,-70.5411 728.973,-76.411 739.528,-77.3226 737.793,-70.5411"/>
</g>
<!-- Node218 -->
<g id="node6" class="node"><title>Node218</title>
<g id="a_node6"><a xlink:href="class_main_window.html#a9a45eb9ebe6d27bcd23677d9fbb74dd8" target="_top" xlink:title="MainWindow::on_Go_clicked">
<polygon fill="white" stroke="black" points="925,-38.5 925,-57.5 1068,-57.5 1068,-38.5 925,-38.5"/>
<text text-anchor="middle" x="996.5" y="-45.5" font-family="Helvetica,sans-Serif" font-size="10.00">MainWindow::on_Go_clicked</text>
</a>
</g>
</g>
<!-- Node217&#45;&gt;Node218 -->
<g id="edge5" class="edge"><title>Node217&#45;&gt;Node218</title>
<path fill="none" stroke="midnightblue" d="M899.583,-48C907.853,-48 916.441,-48 924.928,-48"/>
<polygon fill="midnightblue" stroke="midnightblue" points="899.308,-44.5001 889.308,-48 899.308,-51.5001 899.308,-44.5001"/>
</g>
<!-- Node220 -->
<g id="node8" class="node"><title>Node220</title>
<g id="a_node8"><a xlink:href="classimage.html#adf6b8c126649c9a40387f12b5f5f07d5" target="_top" xlink:title="image::ProcessBoundaryY">
<polygon fill="white" stroke="black" points="455,-38.5 455,-57.5 588,-57.5 588,-38.5 455,-38.5"/>
<text text-anchor="middle" x="521.5" y="-45.5" font-family="Helvetica,sans-Serif" font-size="10.00">image::ProcessBoundaryY</text>
</a>
</g>
</g>
<!-- Node219&#45;&gt;Node220 -->
<g id="edge7" class="edge"><title>Node219&#45;&gt;Node220</title>
<path fill="none" stroke="midnightblue" d="M423.486,-48C433.798,-48 444.505,-48 454.879,-48"/>
<polygon fill="midnightblue" stroke="midnightblue" points="423.333,-44.5001 413.333,-48 423.333,-51.5001 423.333,-44.5001"/>
</g>
<!-- Node220&#45;&gt;Node217 -->
<g id="edge8" class="edge"><title>Node220&#45;&gt;Node217</title>
<path fill="none" stroke="midnightblue" d="M598.542,-48C658.982,-48 741.613,-48 792.853,-48"/>
<polygon fill="midnightblue" stroke="midnightblue" points="598.286,-44.5001 588.286,-48 598.286,-51.5001 598.286,-44.5001"/>
</g>
<!-- Node222 -->
<g id="node10" class="node"><title>Node222</title>
<g id="a_node10"><a xlink:href="classimageblock.html#af3b91e3daaa8014af1239f60da6b0bf5" target="_top" xlink:title="imageblock::processing">
<polygon fill="white" stroke="black" points="462,-0.5 462,-19.5 581,-19.5 581,-0.5 462,-0.5"/>
<text text-anchor="middle" x="521.5" y="-7.5" font-family="Helvetica,sans-Serif" font-size="10.00">imageblock::processing</text>
</a>
</g>
</g>
<!-- Node221&#45;&gt;Node222 -->
<g id="edge10" class="edge"><title>Node221&#45;&gt;Node222</title>
<path fill="none" stroke="midnightblue" d="M429.415,-10C440.217,-10 451.294,-10 461.838,-10"/>
<polygon fill="midnightblue" stroke="midnightblue" points="429.17,-6.5001 419.17,-10 429.17,-13.5001 429.17,-6.5001"/>
</g>
<!-- Node223 -->
<g id="node11" class="node"><title>Node223</title>
<g id="a_node11"><a xlink:href="classimage.html#ad5a9d767eca6f9bbb8dcb556527edf4d" target="_top" xlink:title="image::ProcessTiles">
<polygon fill="white" stroke="black" points="637.5,-0.5 637.5,-19.5 743.5,-19.5 743.5,-0.5 637.5,-0.5"/>
<text text-anchor="middle" x="690.5" y="-7.5" font-family="Helvetica,sans-Serif" font-size="10.00">image::ProcessTiles</text>
</a>
</g>
</g>
<!-- Node222&#45;&gt;Node223 -->
<g id="edge11" class="edge"><title>Node222&#45;&gt;Node223</title>
<path fill="none" stroke="midnightblue" d="M591.781,-10C606.994,-10 622.857,-10 637.267,-10"/>
<polygon fill="midnightblue" stroke="midnightblue" points="591.378,-6.5001 581.378,-10 591.378,-13.5001 591.378,-6.5001"/>
</g>
<!-- Node223&#45;&gt;Node217 -->
<g id="edge12" class="edge"><title>Node223&#45;&gt;Node217</title>
<path fill="none" stroke="midnightblue" d="M738.833,-22.1121C759.515,-27.4044 783.419,-33.5213 802.797,-38.4799"/>
<polygon fill="midnightblue" stroke="midnightblue" points="739.528,-18.6774 728.973,-19.589 737.793,-25.4589 739.528,-18.6774"/>
</g>
</g>
</svg>
        <g id="navigator" transform="translate(0 0)" fill="#404254">
                <rect fill="#f2f5e9" fill-opacity="0.5" stroke="#606060" stroke-width=".5" x="0" y="0" width="60" height="60"/>
                <use id="zoomplus" xlink:href="#zoomPlus" x="17" y="9" onmousedown="handleZoom(evt,'in')"/>
                <use id="zoomminus" xlink:href="#zoomMin" x="42" y="9" onmousedown="handleZoom(evt,'out')"/>
                <use id="reset" xlink:href="#resetDef" x="30" y="36" onmousedown="handleReset()"/>
                <g id="arrowUp" xlink:href="#dirArrow" transform="translate(30 24)" onmousedown="handlePan(0,-1)">
                  <use xlink:href="#rim" fill="#404040">
                        <set attributeName="fill" to="#808080" begin="arrowUp.mouseover" end="arrowUp.mouseout"/>
                  </use>
                  <path fill="none" stroke="white" stroke-width="1.5" d="M0,-3.0v7 M-2.5,-0.5L0,-3.0L2.5,-0.5"/>
                </g>
                <g id="arrowRight" xlink:href="#dirArrow" transform="rotate(90) translate(36 -43)" onmousedown="handlePan(1,0)">
                  <use xlink:href="#rim" fill="#404040">
                        <set attributeName="fill" to="#808080" begin="arrowRight.mouseover" end="arrowRight.mouseout"/>
                  </use>
                  <path fill="none" stroke="white" stroke-width="1.5" d="M0,-3.0v7 M-2.5,-0.5L0,-3.0L2.5,-0.5"/>
                </g>
                <g id="arrowDown" xlink:href="#dirArrow" transform="rotate(180) translate(-30 -48)" onmousedown="handlePan(0,1)">
                  <use xlink:href="#rim" fill="#404040">
                        <set attributeName="fill" to="#808080" begin="arrowDown.mouseover" end="arrowDown.mouseout"/>
                  </use>
                  <path fill="none" stroke="white" stroke-width="1.5" d="M0,-3.0v7 M-2.5,-0.5L0,-3.0L2.5,-0.5"/>
                </g>
                <g id="arrowLeft" xlink:href="#dirArrow" transform="rotate(270) translate(-36 17)" onmousedown="handlePan(-1,0)">
                  <use xlink:href="#rim" fill="#404040">
                        <set attributeName="fill" to="#808080" begin="arrowLeft.mouseover" end="arrowLeft.mouseout"/>
                  </use>
                  <path fill="none" stroke="white" stroke-width="1.5" d="M0,-3.0v7 M-2.5,-0.5L0,-3.0L2.5,-0.5"/>
                </g>
        </g>
        <svg viewBox="0 0 15 15" width="100%" height="30px" preserveAspectRatio="xMaxYMin meet">
         <g id="arrow_out" transform="scale(0.3 0.3)">
          <a xlink:href="class_edge_heap_a001dc48506130f599bddb241006d2920_icgraph_org.svg" target="_base">
           <rect id="button" ry="5" rx="5" y="6" x="6" height="38" width="38"
                fill="#f2f5e9" fill-opacity="0.5" stroke="#606060" stroke-width="1.0"/>
           <path id="arrow"
             d="M 11.500037,31.436501 C 11.940474,20.09759 22.043105,11.32322 32.158766,21.979434 L 37.068811,17.246167 C 37.068811,17.246167 37.088388,32 37.088388,32 L 22.160133,31.978069 C 22.160133,31.978069 26.997745,27.140456 26.997745,27.140456 C 18.528582,18.264221 13.291696,25.230495 11.500037,31.436501 z"
             style="fill:#404040;"/>
          </a>
         </g>
        </svg>
</svg>
