<?xml version="1.0" encoding="UTF-8" standalone="no"?>
<!DOCTYPE svg PUBLIC "-//W3C//DTD SVG 1.1//EN"
 "http://www.w3.org/Graphics/SVG/1.1/DTD/svg11.dtd">
<!-- Generated by graphviz version 2.38.0 (20140413.2041)
 -->
<!-- Title: RAG::merge Pages: 1 -->
<svg width="1024pt" height="104pt"
 viewBox="0.00 0.00 1024.00 104.00" xmlns="http://www.w3.org/2000/svg" xmlns:xlink="http://www.w3.org/1999/xlink">
<g id="graph0" class="graph" transform="scale(1 1) rotate(0) translate(4 100)">
<title>RAG::merge</title>
<polygon fill="white" stroke="none" points="-4,4 -4,-100 1020,-100 1020,4 -4,4"/>
<!-- Node1 -->
<g id="node1" class="node"><title>Node1</title>
<polygon fill="#bfbfbf" stroke="black" points="0,-38.5 0,-57.5 71,-57.5 71,-38.5 0,-38.5"/>
<text text-anchor="middle" x="35.5" y="-45.5" font-family="Helvetica,sans-Serif" font-size="10.00">RAG::merge</text>
</g>
<!-- Node2 -->
<g id="node2" class="node"><title>Node2</title>
<g id="a_node2"><a xlink:href="class_r_a_g.html#ab09eebb1b704d18b583d528e77f7604a" target="_top" xlink:title="RAG::regionMerging">
<polygon fill="white" stroke="black" points="107,-38.5 107,-57.5 212,-57.5 212,-38.5 107,-38.5"/>
<text text-anchor="middle" x="159.5" y="-45.5" font-family="Helvetica,sans-Serif" font-size="10.00">RAG::regionMerging</text>
</a>
</g>
</g>
<!-- Node1&#45;&gt;Node2 -->
<g id="edge1" class="edge"><title>Node1&#45;&gt;Node2</title>
<path fill="none" stroke="midnightblue" d="M81.3794,-48C89.6898,-48 98.4303,-48 106.921,-48"/>
<polygon fill="midnightblue" stroke="midnightblue" points="81.134,-44.5001 71.134,-48 81.1339,-51.5001 81.134,-44.5001"/>
</g>
<!-- Node3 -->
<g id="node3" class="node"><title>Node3</title>
<g id="a_node3"><a xlink:href="classimage.html#a12343719e8d96a4bda9c5bd6c035d52a" target="_top" xlink:title="image::mergeBlockX">
<polygon fill="white" stroke="black" points="254,-76.5 254,-95.5 361,-95.5 361,-76.5 254,-76.5"/>
<text text-anchor="middle" x="307.5" y="-83.5" font-family="Helvetica,sans-Serif" font-size="10.00">image::mergeBlockX</text>
</a>
</g>
</g>
<!-- Node2&#45;&gt;Node3 -->
<g id="edge2" class="edge"><title>Node2&#45;&gt;Node3</title>
<path fill="none" stroke="midnightblue" d="M207.036,-60.1121C227.37,-65.4044 250.871,-71.5213 269.923,-76.4799"/>
<polygon fill="midnightblue" stroke="midnightblue" points="207.901,-56.7207 197.342,-57.589 206.138,-63.4951 207.901,-56.7207"/>
</g>
<!-- Node7 -->
<g id="node7" class="node"><title>Node7</title>
<g id="a_node7"><a xlink:href="classimage.html#aa21fc5a07af7528869425e750090b3b8" target="_top" xlink:title="image::mergeBlockY">
<polygon fill="white" stroke="black" points="254,-38.5 254,-57.5 361,-57.5 361,-38.5 254,-38.5"/>
<text text-anchor="middle" x="307.5" y="-45.5" font-family="Helvetica,sans-Serif" font-size="10.00">image::mergeBlockY</text>
</a>
</g>
</g>
<!-- Node2&#45;&gt;Node7 -->
<g id="edge6" class="edge"><title>Node2&#45;&gt;Node7</title>
<path fill="none" stroke="midnightblue" d="M222.631,-48C233.008,-48 243.685,-48 253.797,-48"/>
<polygon fill="midnightblue" stroke="midnightblue" points="222.385,-44.5001 212.385,-48 222.385,-51.5001 222.385,-44.5001"/>
</g>
<!-- Node9 -->
<g id="node9" class="node"><title>Node9</title>
<g id="a_node9"><a xlink:href="classimageblock.html#abcc69a8c00ad79067185c700463f8126" target="_top" xlink:title="imageblock::createBPT">
<polygon fill="white" stroke="black" points="248,-0.5 248,-19.5 367,-19.5 367,-0.5 248,-0.5"/>
<text text-anchor="middle" x="307.5" y="-7.5" font-family="Helvetica,sans-Serif" font-size="10.00">imageblock::createBPT</text>
</a>
</g>
</g>
<!-- Node2&#45;&gt;Node9 -->
<g id="edge9" class="edge"><title>Node2&#45;&gt;Node9</title>
<path fill="none" stroke="midnightblue" d="M207.036,-35.8879C227.37,-30.5956 250.871,-24.4787 269.923,-19.5201"/>
<polygon fill="midnightblue" stroke="midnightblue" points="206.138,-32.5049 197.342,-38.411 207.901,-39.2793 206.138,-32.5049"/>
</g>
<!-- Node4 -->
<g id="node4" class="node"><title>Node4</title>
<g id="a_node4"><a xlink:href="classimage.html#a83026280ad6cc713ec9489ff3bd9776e" target="_top" xlink:title="image::ProcessBoundaryX">
<polygon fill="white" stroke="black" points="572,-76.5 572,-95.5 705,-95.5 705,-76.5 572,-76.5"/>
<text text-anchor="middle" x="638.5" y="-83.5" font-family="Helvetica,sans-Serif" font-size="10.00">image::ProcessBoundaryX</text>
</a>
</g>
</g>
<!-- Node3&#45;&gt;Node4 -->
<g id="edge3" class="edge"><title>Node3&#45;&gt;Node4</title>
<path fill="none" stroke="midnightblue" d="M371.399,-86C428.829,-86 513.414,-86 571.728,-86"/>
<polygon fill="midnightblue" stroke="midnightblue" points="371.36,-82.5001 361.36,-86 371.36,-89.5001 371.36,-82.5001"/>
</g>
<!-- Node5 -->
<g id="node5" class="node"><title>Node5</title>
<g id="a_node5"><a xlink:href="classimage.html#a4689c56b85c46d48ea52f0c9fa13891e" target="_top" xlink:title="image::processing">
<polygon fill="white" stroke="black" points="741,-38.5 741,-57.5 837,-57.5 837,-38.5 741,-38.5"/>
<text text-anchor="middle" x="789" y="-45.5" font-family="Helvetica,sans-Serif" font-size="10.00">image::processing</text>
</a>
</g>
</g>
<!-- Node4&#45;&gt;Node5 -->
<g id="edge4" class="edge"><title>Node4&#45;&gt;Node5</title>
<path fill="none" stroke="midnightblue" d="M686.833,-73.8879C707.515,-68.5956 731.419,-62.4787 750.797,-57.5201"/>
<polygon fill="midnightblue" stroke="midnightblue" points="685.793,-70.5411 676.973,-76.411 687.528,-77.3226 685.793,-70.5411"/>
</g>
<!-- Node6 -->
<g id="node6" class="node"><title>Node6</title>
<g id="a_node6"><a xlink:href="class_main_window.html#a9a45eb9ebe6d27bcd23677d9fbb74dd8" target="_top" xlink:title="MainWindow::on_Go_clicked">
<polygon fill="white" stroke="black" points="873,-38.5 873,-57.5 1016,-57.5 1016,-38.5 873,-38.5"/>
<text text-anchor="middle" x="944.5" y="-45.5" font-family="Helvetica,sans-Serif" font-size="10.00">MainWindow::on_Go_clicked</text>
</a>
</g>
</g>
<!-- Node5&#45;&gt;Node6 -->
<g id="edge5" class="edge"><title>Node5&#45;&gt;Node6</title>
<path fill="none" stroke="midnightblue" d="M847.583,-48C855.853,-48 864.441,-48 872.928,-48"/>
<polygon fill="midnightblue" stroke="midnightblue" points="847.308,-44.5001 837.308,-48 847.308,-51.5001 847.308,-44.5001"/>
</g>
<!-- Node8 -->
<g id="node8" class="node"><title>Node8</title>
<g id="a_node8"><a xlink:href="classimage.html#adf6b8c126649c9a40387f12b5f5f07d5" target="_top" xlink:title="image::ProcessBoundaryY">
<polygon fill="white" stroke="black" points="403,-38.5 403,-57.5 536,-57.5 536,-38.5 403,-38.5"/>
<text text-anchor="middle" x="469.5" y="-45.5" font-family="Helvetica,sans-Serif" font-size="10.00">image::ProcessBoundaryY</text>
</a>
</g>
</g>
<!-- Node7&#45;&gt;Node8 -->
<g id="edge7" class="edge"><title>Node7&#45;&gt;Node8</title>
<path fill="none" stroke="midnightblue" d="M371.486,-48C381.798,-48 392.505,-48 402.879,-48"/>
<polygon fill="midnightblue" stroke="midnightblue" points="371.333,-44.5001 361.333,-48 371.333,-51.5001 371.333,-44.5001"/>
</g>
<!-- Node8&#45;&gt;Node5 -->
<g id="edge8" class="edge"><title>Node8&#45;&gt;Node5</title>
<path fill="none" stroke="midnightblue" d="M546.542,-48C606.982,-48 689.613,-48 740.853,-48"/>
<polygon fill="midnightblue" stroke="midnightblue" points="546.286,-44.5001 536.286,-48 546.286,-51.5001 546.286,-44.5001"/>
</g>
<!-- Node10 -->
<g id="node10" class="node"><title>Node10</title>
<g id="a_node10"><a xlink:href="classimageblock.html#af3b91e3daaa8014af1239f60da6b0bf5" target="_top" xlink:title="imageblock::processing">
<polygon fill="white" stroke="black" points="410,-0.5 410,-19.5 529,-19.5 529,-0.5 410,-0.5"/>
<text text-anchor="middle" x="469.5" y="-7.5" font-family="Helvetica,sans-Serif" font-size="10.00">imageblock::processing</text>
</a>
</g>
</g>
<!-- Node9&#45;&gt;Node10 -->
<g id="edge10" class="edge"><title>Node9&#45;&gt;Node10</title>
<path fill="none" stroke="midnightblue" d="M377.415,-10C388.217,-10 399.294,-10 409.838,-10"/>
<polygon fill="midnightblue" stroke="midnightblue" points="377.17,-6.5001 367.17,-10 377.17,-13.5001 377.17,-6.5001"/>
</g>
<!-- Node11 -->
<g id="node11" class="node"><title>Node11</title>
<g id="a_node11"><a xlink:href="classimage.html#ad5a9d767eca6f9bbb8dcb556527edf4d" target="_top" xlink:title="image::ProcessTiles">
<polygon fill="white" stroke="black" points="585.5,-0.5 585.5,-19.5 691.5,-19.5 691.5,-0.5 585.5,-0.5"/>
<text text-anchor="middle" x="638.5" y="-7.5" font-family="Helvetica,sans-Serif" font-size="10.00">image::ProcessTiles</text>
</a>
</g>
</g>
<!-- Node10&#45;&gt;Node11 -->
<g id="edge11" class="edge"><title>Node10&#45;&gt;Node11</title>
<path fill="none" stroke="midnightblue" d="M539.781,-10C554.994,-10 570.857,-10 585.267,-10"/>
<polygon fill="midnightblue" stroke="midnightblue" points="539.378,-6.5001 529.378,-10 539.378,-13.5001 539.378,-6.5001"/>
</g>
<!-- Node11&#45;&gt;Node5 -->
<g id="edge12" class="edge"><title>Node11&#45;&gt;Node5</title>
<path fill="none" stroke="midnightblue" d="M686.833,-22.1121C707.515,-27.4044 731.419,-33.5213 750.797,-38.4799"/>
<polygon fill="midnightblue" stroke="midnightblue" points="687.528,-18.6774 676.973,-19.589 685.793,-25.4589 687.528,-18.6774"/>
</g>
</g>
</svg>
