<?xml version="1.0" encoding="UTF-8" standalone="no"?>
<!DOCTYPE svg PUBLIC "-//W3C//DTD SVG 1.1//EN"
 "http://www.w3.org/Graphics/SVG/1.1/DTD/svg11.dtd">
<!-- Generated by graphviz version 2.38.0 (20140413.2041)
 -->
<!-- Title: statistics::abs Pages: 1 -->
<svg width="539pt" height="28pt"
 viewBox="0.00 0.00 539.00 28.00" xmlns="http://www.w3.org/2000/svg" xmlns:xlink="http://www.w3.org/1999/xlink">
<g id="graph0" class="graph" transform="scale(1 1) rotate(0) translate(4 24)">
<title>statistics::abs</title>
<polygon fill="white" stroke="none" points="-4,4 -4,-24 535,-24 535,4 -4,4"/>
<!-- Node1 -->
<g id="node1" class="node"><title>Node1</title>
<polygon fill="#bfbfbf" stroke="black" points="0,-0.5 0,-19.5 78,-19.5 78,-0.5 0,-0.5"/>
<text text-anchor="middle" x="39" y="-7.5" font-family="Helvetica,sans-Serif" font-size="10.00">statistics::abs</text>
</g>
<!-- Node2 -->
<g id="node2" class="node"><title>Node2</title>
<g id="a_node2"><a xlink:href="classstatistics.html#a0c00f6c158c6f4f96751eef58ec71215" target="_top" xlink:title="statistics::EMD">
<polygon fill="white" stroke="black" points="114,-0.5 114,-19.5 199,-19.5 199,-0.5 114,-0.5"/>
<text text-anchor="middle" x="156.5" y="-7.5" font-family="Helvetica,sans-Serif" font-size="10.00">statistics::EMD</text>
</a>
</g>
</g>
<!-- Node1&#45;&gt;Node2 -->
<g id="edge1" class="edge"><title>Node1&#45;&gt;Node2</title>
<path fill="none" stroke="midnightblue" d="M88.2946,-10C96.7757,-10 105.537,-10 113.818,-10"/>
<polygon fill="midnightblue" stroke="midnightblue" points="88.1392,-6.5001 78.1391,-10 88.1391,-13.5001 88.1392,-6.5001"/>
</g>
<!-- Node3 -->
<g id="node3" class="node"><title>Node3</title>
<g id="a_node3"><a xlink:href="classhistogram_model.html#acbfc41aa0afb26c7b68bf644ebb18ef2" target="_top" xlink:title="histogramModel::getOrder">
<polygon fill="white" stroke="black" points="235,-0.5 235,-19.5 364,-19.5 364,-0.5 235,-0.5"/>
<text text-anchor="middle" x="299.5" y="-7.5" font-family="Helvetica,sans-Serif" font-size="10.00">histogramModel::getOrder</text>
</a>
</g>
</g>
<!-- Node2&#45;&gt;Node3 -->
<g id="edge2" class="edge"><title>Node2&#45;&gt;Node3</title>
<path fill="none" stroke="midnightblue" d="M209.301,-10C217.587,-10 226.244,-10 234.768,-10"/>
<polygon fill="midnightblue" stroke="midnightblue" points="209.042,-6.5001 199.042,-10 209.042,-13.5001 209.042,-6.5001"/>
</g>
<!-- Node4 -->
<g id="node4" class="node"><title>Node4</title>
<g id="a_node4"><a xlink:href="classcompound_model.html#a0d8dbce587b645bb11db48683d20df58" target="_top" xlink:title="compoundModel::getOrder">
<polygon fill="white" stroke="black" points="400,-0.5 400,-19.5 531,-19.5 531,-0.5 400,-0.5"/>
<text text-anchor="middle" x="465.5" y="-7.5" font-family="Helvetica,sans-Serif" font-size="10.00">compoundModel::getOrder</text>
</a>
</g>
</g>
<!-- Node3&#45;&gt;Node4 -->
<g id="edge3" class="edge"><title>Node3&#45;&gt;Node4</title>
<path fill="none" stroke="midnightblue" d="M374.621,-10C383.085,-10 391.663,-10 399.988,-10"/>
<polygon fill="midnightblue" stroke="midnightblue" points="374.376,-6.5001 364.376,-10 374.376,-13.5001 374.376,-6.5001"/>
</g>
</g>
</svg>
