<?xml version="1.0" encoding="UTF-8" standalone="no"?>
<!DOCTYPE svg PUBLIC "-//W3C//DTD SVG 1.1//EN"
 "http://www.w3.org/Graphics/SVG/1.1/DTD/svg11.dtd">
<!-- Generated by graphviz version 2.38.0 (20140413.2041)
 -->
<!-- Title: probabilityModel::getProbability Pages: 1 -->
<svg width="543pt" height="28pt"
 viewBox="0.00 0.00 543.00 28.00" xmlns="http://www.w3.org/2000/svg" xmlns:xlink="http://www.w3.org/1999/xlink">
<g id="graph0" class="graph" transform="scale(1 1) rotate(0) translate(4 24)">
<title>probabilityModel::getProbability</title>
<polygon fill="white" stroke="none" points="-4,4 -4,-24 539,-24 539,4 -4,4"/>
<!-- Node61 -->
<g id="node1" class="node"><title>Node61</title>
<polygon fill="#bfbfbf" stroke="black" points="0,-0.5 0,-19.5 152,-19.5 152,-0.5 0,-0.5"/>
<text text-anchor="middle" x="76" y="-7.5" font-family="Helvetica,sans-Serif" font-size="10.00">probabilityModel::getProbability</text>
</g>
<!-- Node62 -->
<g id="node2" class="node"><title>Node62</title>
<g id="a_node2"><a xlink:href="classcompound_model.html#ac7f2c9358e0ac7945d02d160f5999a5f" target="_top" xlink:title="compoundModel::getProbability">
<polygon fill="white" stroke="black" points="188,-0.5 188,-19.5 341,-19.5 341,-0.5 188,-0.5"/>
<text text-anchor="middle" x="264.5" y="-7.5" font-family="Helvetica,sans-Serif" font-size="10.00">compoundModel::getProbability</text>
</a>
</g>
</g>
<!-- Node61&#45;&gt;Node62 -->
<g id="edge1" class="edge"><title>Node61&#45;&gt;Node62</title>
<path fill="none" stroke="midnightblue" d="M162.121,-10C170.752,-10 179.476,-10 187.996,-10"/>
<polygon fill="midnightblue" stroke="midnightblue" points="162.051,-6.5001 152.051,-10 162.05,-13.5001 162.051,-6.5001"/>
</g>
<!-- Node63 -->
<g id="node3" class="node"><title>Node63</title>
<g id="a_node3"><a xlink:href="classcompound_model.html#a0e02676235e30f43e3c574304593706b" target="_top" xlink:title="compoundModel::printHistogram">
<polygon fill="white" stroke="black" points="377,-0.5 377,-19.5 535,-19.5 535,-0.5 377,-0.5"/>
<text text-anchor="middle" x="456" y="-7.5" font-family="Helvetica,sans-Serif" font-size="10.00">compoundModel::printHistogram</text>
</a>
</g>
</g>
<!-- Node62&#45;&gt;Node63 -->
<g id="edge2" class="edge"><title>Node62&#45;&gt;Node63</title>
<path fill="none" stroke="midnightblue" d="M351.488,-10C359.965,-10 368.537,-10 376.928,-10"/>
<polygon fill="midnightblue" stroke="midnightblue" points="351.212,-6.5001 341.212,-10 351.212,-13.5001 351.212,-6.5001"/>
</g>
</g>
</svg>
