<?xml version="1.0" encoding="UTF-8" standalone="no"?>
<!DOCTYPE svg PUBLIC "-//W3C//DTD SVG 1.1//EN"
 "http://www.w3.org/Graphics/SVG/1.1/DTD/svg11.dtd">
<!-- Generated by graphviz version 2.38.0 (20140413.2041)
 -->
<!-- Title: regionModel::getOrder Pages: 1 -->
<svg width="1034pt" height="85pt"
 viewBox="0.00 0.00 1034.00 85.00" xmlns="http://www.w3.org/2000/svg" xmlns:xlink="http://www.w3.org/1999/xlink">
<g id="graph0" class="graph" transform="scale(1 1) rotate(0) translate(4 81)">
<title>regionModel::getOrder</title>
<polygon fill="white" stroke="none" points="-4,4 -4,-81 1030,-81 1030,4 -4,4"/>
<!-- Node1 -->
<g id="node1" class="node"><title>Node1</title>
<polygon fill="#bfbfbf" stroke="black" points="0,-19.5 0,-38.5 113,-38.5 113,-19.5 0,-19.5"/>
<text text-anchor="middle" x="56.5" y="-26.5" font-family="Helvetica,sans-Serif" font-size="10.00">regionModel::getOrder</text>
</g>
<!-- Node2 -->
<g id="node2" class="node"><title>Node2</title>
<g id="a_node2"><a xlink:href="classinitializer.html#af25116f6ca0979e447a4a266bceba2b8" target="_top" xlink:title="initializer::addEdges">
<polygon fill="white" stroke="black" points="149,-38.5 149,-57.5 253,-57.5 253,-38.5 149,-38.5"/>
<text text-anchor="middle" x="201" y="-45.5" font-family="Helvetica,sans-Serif" font-size="10.00">initializer::addEdges</text>
</a>
</g>
</g>
<!-- Node1&#45;&gt;Node2 -->
<g id="edge1" class="edge"><title>Node1&#45;&gt;Node2</title>
<path fill="none" stroke="midnightblue" d="M123.005,-37.734C131.595,-38.8793 140.297,-40.0396 148.608,-41.1477"/>
<polygon fill="midnightblue" stroke="midnightblue" points="123.377,-34.2527 113.002,-36.4003 122.452,-41.1913 123.377,-34.2527"/>
</g>
<!-- Node10 -->
<g id="node10" class="node"><title>Node10</title>
<g id="a_node10"><a xlink:href="classinitializer.html#af23e5a2f80a74bce9caccbf86a028c96" target="_top" xlink:title="initializer::connect">
<polygon fill="white" stroke="black" points="153.5,-0.5 153.5,-19.5 248.5,-19.5 248.5,-0.5 153.5,-0.5"/>
<text text-anchor="middle" x="201" y="-7.5" font-family="Helvetica,sans-Serif" font-size="10.00">initializer::connect</text>
</a>
</g>
</g>
<!-- Node1&#45;&gt;Node10 -->
<g id="edge10" class="edge"><title>Node1&#45;&gt;Node10</title>
<path fill="none" stroke="midnightblue" d="M123.079,-20.2561C133.239,-18.9015 143.553,-17.5262 153.189,-16.2415"/>
<polygon fill="midnightblue" stroke="midnightblue" points="122.452,-16.8087 113.002,-21.5997 123.377,-23.7473 122.452,-16.8087"/>
</g>
<!-- Node3 -->
<g id="node3" class="node"><title>Node3</title>
<g id="a_node3"><a xlink:href="classinitializer.html#ae6d34d311f884ceb489b3043a011864c" target="_top" xlink:title="initializer::initializeRag">
<polygon fill="white" stroke="black" points="289,-38.5 289,-57.5 403,-57.5 403,-38.5 289,-38.5"/>
<text text-anchor="middle" x="346" y="-45.5" font-family="Helvetica,sans-Serif" font-size="10.00">initializer::initializeRag</text>
</a>
</g>
</g>
<!-- Node2&#45;&gt;Node3 -->
<g id="edge2" class="edge"><title>Node2&#45;&gt;Node3</title>
<path fill="none" stroke="midnightblue" d="M263.39,-48C271.83,-48 280.463,-48 288.803,-48"/>
<polygon fill="midnightblue" stroke="midnightblue" points="263.222,-44.5001 253.222,-48 263.222,-51.5001 263.222,-44.5001"/>
</g>
<!-- Node4 -->
<g id="node4" class="node"><title>Node4</title>
<g id="a_node4"><a xlink:href="classimage.html#a12343719e8d96a4bda9c5bd6c035d52a" target="_top" xlink:title="image::mergeBlockX">
<polygon fill="white" stroke="black" points="439,-57.5 439,-76.5 546,-76.5 546,-57.5 439,-57.5"/>
<text text-anchor="middle" x="492.5" y="-64.5" font-family="Helvetica,sans-Serif" font-size="10.00">image::mergeBlockX</text>
</a>
</g>
</g>
<!-- Node3&#45;&gt;Node4 -->
<g id="edge3" class="edge"><title>Node3&#45;&gt;Node4</title>
<path fill="none" stroke="midnightblue" d="M413.288,-56.716C421.881,-57.846 430.588,-58.9908 438.917,-60.086"/>
<polygon fill="midnightblue" stroke="midnightblue" points="413.652,-53.2339 403.281,-55.4003 412.74,-60.1742 413.652,-53.2339"/>
</g>
<!-- Node8 -->
<g id="node8" class="node"><title>Node8</title>
<g id="a_node8"><a xlink:href="classimage.html#aa21fc5a07af7528869425e750090b3b8" target="_top" xlink:title="image::mergeBlockY">
<polygon fill="white" stroke="black" points="439,-19.5 439,-38.5 546,-38.5 546,-19.5 439,-19.5"/>
<text text-anchor="middle" x="492.5" y="-26.5" font-family="Helvetica,sans-Serif" font-size="10.00">image::mergeBlockY</text>
</a>
</g>
</g>
<!-- Node3&#45;&gt;Node8 -->
<g id="edge7" class="edge"><title>Node3&#45;&gt;Node8</title>
<path fill="none" stroke="midnightblue" d="M413.288,-39.284C421.881,-38.154 430.588,-37.0092 438.917,-35.914"/>
<polygon fill="midnightblue" stroke="midnightblue" points="412.74,-35.8258 403.281,-40.5997 413.652,-42.7661 412.74,-35.8258"/>
</g>
<!-- Node5 -->
<g id="node5" class="node"><title>Node5</title>
<g id="a_node5"><a xlink:href="classimage.html#a83026280ad6cc713ec9489ff3bd9776e" target="_top" xlink:title="image::ProcessBoundaryX">
<polygon fill="white" stroke="black" points="582,-57.5 582,-76.5 715,-76.5 715,-57.5 582,-57.5"/>
<text text-anchor="middle" x="648.5" y="-64.5" font-family="Helvetica,sans-Serif" font-size="10.00">image::ProcessBoundaryX</text>
</a>
</g>
</g>
<!-- Node4&#45;&gt;Node5 -->
<g id="edge4" class="edge"><title>Node4&#45;&gt;Node5</title>
<path fill="none" stroke="midnightblue" d="M556.216,-67C564.656,-67 573.334,-67 581.824,-67"/>
<polygon fill="midnightblue" stroke="midnightblue" points="556.067,-63.5001 546.067,-67 556.067,-70.5001 556.067,-63.5001"/>
</g>
<!-- Node6 -->
<g id="node6" class="node"><title>Node6</title>
<g id="a_node6"><a xlink:href="classimage.html#a4689c56b85c46d48ea52f0c9fa13891e" target="_top" xlink:title="image::processing">
<polygon fill="white" stroke="black" points="751,-38.5 751,-57.5 847,-57.5 847,-38.5 751,-38.5"/>
<text text-anchor="middle" x="799" y="-45.5" font-family="Helvetica,sans-Serif" font-size="10.00">image::processing</text>
</a>
</g>
</g>
<!-- Node5&#45;&gt;Node6 -->
<g id="edge5" class="edge"><title>Node5&#45;&gt;Node6</title>
<path fill="none" stroke="midnightblue" d="M725.207,-57.3136C733.858,-56.2067 742.483,-55.1032 750.612,-54.0631"/>
<polygon fill="midnightblue" stroke="midnightblue" points="724.541,-53.8701 715.067,-58.611 725.43,-60.8135 724.541,-53.8701"/>
</g>
<!-- Node7 -->
<g id="node7" class="node"><title>Node7</title>
<g id="a_node7"><a xlink:href="class_main_window.html#a9a45eb9ebe6d27bcd23677d9fbb74dd8" target="_top" xlink:title="MainWindow::on_Go_clicked">
<polygon fill="white" stroke="black" points="883,-38.5 883,-57.5 1026,-57.5 1026,-38.5 883,-38.5"/>
<text text-anchor="middle" x="954.5" y="-45.5" font-family="Helvetica,sans-Serif" font-size="10.00">MainWindow::on_Go_clicked</text>
</a>
</g>
</g>
<!-- Node6&#45;&gt;Node7 -->
<g id="edge6" class="edge"><title>Node6&#45;&gt;Node7</title>
<path fill="none" stroke="midnightblue" d="M857.583,-48C865.853,-48 874.441,-48 882.928,-48"/>
<polygon fill="midnightblue" stroke="midnightblue" points="857.308,-44.5001 847.308,-48 857.308,-51.5001 857.308,-44.5001"/>
</g>
<!-- Node9 -->
<g id="node9" class="node"><title>Node9</title>
<g id="a_node9"><a xlink:href="classimage.html#adf6b8c126649c9a40387f12b5f5f07d5" target="_top" xlink:title="image::ProcessBoundaryY">
<polygon fill="white" stroke="black" points="582,-19.5 582,-38.5 715,-38.5 715,-19.5 582,-19.5"/>
<text text-anchor="middle" x="648.5" y="-26.5" font-family="Helvetica,sans-Serif" font-size="10.00">image::ProcessBoundaryY</text>
</a>
</g>
</g>
<!-- Node8&#45;&gt;Node9 -->
<g id="edge8" class="edge"><title>Node8&#45;&gt;Node9</title>
<path fill="none" stroke="midnightblue" d="M556.216,-29C564.656,-29 573.334,-29 581.824,-29"/>
<polygon fill="midnightblue" stroke="midnightblue" points="556.067,-25.5001 546.067,-29 556.067,-32.5001 556.067,-25.5001"/>
</g>
<!-- Node9&#45;&gt;Node6 -->
<g id="edge9" class="edge"><title>Node9&#45;&gt;Node6</title>
<path fill="none" stroke="midnightblue" d="M725.207,-38.6864C733.858,-39.7933 742.483,-40.8968 750.612,-41.9369"/>
<polygon fill="midnightblue" stroke="midnightblue" points="725.43,-35.1865 715.067,-37.389 724.541,-42.1299 725.43,-35.1865"/>
</g>
</g>
</svg>
