<?xml version="1.0" encoding="UTF-8" standalone="no"?>
<!DOCTYPE svg PUBLIC "-//W3C//DTD SVG 1.1//EN"
 "http://www.w3.org/Graphics/SVG/1.1/DTD/svg11.dtd">
<!-- Generated by graphviz version 2.38.0 (20140413.2041)
 -->
<!-- Title: probabilityModel::getClassCost Pages: 1 -->
<svg width="485pt" height="78pt"
 viewBox="0.00 0.00 485.00 77.50" xmlns="http://www.w3.org/2000/svg" xmlns:xlink="http://www.w3.org/1999/xlink">
<g id="graph0" class="graph" transform="scale(1 1) rotate(0) translate(4 73.5)">
<title>probabilityModel::getClassCost</title>
<polygon fill="white" stroke="none" points="-4,4 -4,-73.5 481,-73.5 481,4 -4,4"/>
<!-- Node27 -->
<g id="node1" class="node"><title>Node27</title>
<polygon fill="#bfbfbf" stroke="black" points="0,-22.5 0,-41.5 153,-41.5 153,-22.5 0,-22.5"/>
<text text-anchor="middle" x="76.5" y="-29.5" font-family="Helvetica,sans-Serif" font-size="10.00">probabilityModel::getClassCost</text>
</g>
<!-- Node28 -->
<g id="node2" class="node"><title>Node28</title>
<g id="a_node2"><a xlink:href="classprobability_model.html#a3a7b1483e4d481044c16b971e985cf0f" target="_top" xlink:title="probabilityModel::compute\lRegionClassCost">
<polygon fill="white" stroke="black" points="189,-39 189,-69 320,-69 320,-39 189,-39"/>
<text text-anchor="start" x="197" y="-57" font-family="Helvetica,sans-Serif" font-size="10.00">probabilityModel::compute</text>
<text text-anchor="middle" x="254.5" y="-46" font-family="Helvetica,sans-Serif" font-size="10.00">RegionClassCost</text>
</a>
</g>
</g>
<!-- Node27&#45;&gt;Node28 -->
<g id="edge1" class="edge"><title>Node27&#45;&gt;Node28</title>
<path fill="none" stroke="midnightblue" d="M163.277,-42.7221C171.922,-43.8027 180.595,-44.8869 188.963,-45.9329"/>
<polygon fill="midnightblue" stroke="midnightblue" points="163.518,-39.2251 153.161,-41.4577 162.65,-46.1711 163.518,-39.2251"/>
</g>
<!-- Node29 -->
<g id="node3" class="node"><title>Node29</title>
<g id="a_node3"><a xlink:href="classprobability_model.html#a1d238fa939658901dc69099d4c350637" target="_top" xlink:title="probabilityModel::merge">
<polygon fill="white" stroke="black" points="194.5,-0.5 194.5,-19.5 314.5,-19.5 314.5,-0.5 194.5,-0.5"/>
<text text-anchor="middle" x="254.5" y="-7.5" font-family="Helvetica,sans-Serif" font-size="10.00">probabilityModel::merge</text>
</a>
</g>
</g>
<!-- Node27&#45;&gt;Node29 -->
<g id="edge2" class="edge"><title>Node27&#45;&gt;Node29</title>
<path fill="none" stroke="midnightblue" d="M163.233,-21.2834C173.771,-19.9661 184.354,-18.6433 194.374,-17.3907"/>
<polygon fill="midnightblue" stroke="midnightblue" points="162.65,-17.8289 153.161,-22.5423 163.518,-24.7749 162.65,-17.8289"/>
</g>
<!-- Node30 -->
<g id="node4" class="node"><title>Node30</title>
<g id="a_node4"><a xlink:href="classcompound_model.html#a3a4f1be5ccd6230918036dcc56328033" target="_top" xlink:title="compoundModel::merge">
<polygon fill="white" stroke="black" points="356,-0.5 356,-19.5 477,-19.5 477,-0.5 356,-0.5"/>
<text text-anchor="middle" x="416.5" y="-7.5" font-family="Helvetica,sans-Serif" font-size="10.00">compoundModel::merge</text>
</a>
</g>
</g>
<!-- Node29&#45;&gt;Node30 -->
<g id="edge3" class="edge"><title>Node29&#45;&gt;Node30</title>
<path fill="none" stroke="midnightblue" d="M324.837,-10C335.158,-10 345.719,-10 355.818,-10"/>
<polygon fill="midnightblue" stroke="midnightblue" points="324.624,-6.5001 314.624,-10 324.623,-13.5001 324.624,-6.5001"/>
</g>
</g>
</svg>
