<?xml version="1.0" encoding="UTF-8" standalone="no"?>
<!DOCTYPE svg PUBLIC "-//W3C//DTD SVG 1.1//EN"
 "http://www.w3.org/Graphics/SVG/1.1/DTD/svg11.dtd">
<!-- Generated by graphviz version 2.38.0 (20140413.2041)
 -->
<!-- Title: EdgeHeap::removeAt Pages: 1 -->
<!--zoomable 180 -->
<svg id="main" version="1.1" xmlns="http://www.w3.org/2000/svg" xmlns:xlink="http://www.w3.org/1999/xlink" xml:space="preserve" onload="init(evt)">
<style type="text/css"><![CDATA[
.edge:hover path { stroke: red; }
.edge:hover polygon { stroke: red; fill: red; }
]]></style>
<script type="text/javascript"><![CDATA[
var edges = document.getElementsByTagName('g');
if (edges && edges.length) {
  for (var i=0;i<edges.length;i++) {
    if (edges[i].id.substr(0,4)=='edge') {
      edges[i].setAttribute('class','edge');
    }
  }
}
]]></script>
        <defs>
                <circle id="rim" cx="0" cy="0" r="7"/>
                <circle id="rim2" cx="0" cy="0" r="3.5"/>
                <g id="zoomPlus">
                        <use xlink:href="#rim" fill="#404040">
                                <set attributeName="fill" to="#808080" begin="zoomplus.mouseover" end="zoomplus.mouseout"/>
                        </use>
                        <path d="M-4,0h8M0,-4v8" fill="none" stroke="white" stroke-width="1.5" pointer-events="none"/>
                </g>
                <g id="zoomMin">
                        <use xlink:href="#rim" fill="#404040">
                                <set attributeName="fill" to="#808080" begin="zoomminus.mouseover" end="zoomminus.mouseout"/>
                        </use>
                        <path d="M-4,0h8" fill="none" stroke="white" stroke-width="1.5" pointer-events="none"/>
                </g>
                <g id="dirArrow">
                        <path fill="none" stroke="white" stroke-width="1.5" d="M0,-3.0v7 M-2.5,-0.5L0,-3.0L2.5,-0.5"/>
                </g>
               <g id="resetDef">
                       <use xlink:href="#rim2" fill="#404040">
                               <set attributeName="fill" to="#808080" begin="reset.mouseover" end="reset.mouseout"/>
                       </use>
               </g>
        </defs>

<script type="text/javascript">
var viewWidth = 731;
var viewHeight = 180;
var sectionId = 'dynsection-14';
</script>
<script xlink:href="svgpan.js"/>
<svg id="graph" class="graph">
<g id="viewport">
<title>EdgeHeap::removeAt</title>
<polygon fill="white" stroke="none" points="-4,4 -4,-176 727,-176 727,4 -4,4"/>
<!-- Node178 -->
<g id="node1" class="node"><title>Node178</title>
<polygon fill="#bfbfbf" stroke="black" points="0,-76.5 0,-95.5 110,-95.5 110,-76.5 0,-76.5"/>
<text text-anchor="middle" x="55" y="-83.5" font-family="Helvetica,sans-Serif" font-size="10.00">EdgeHeap::removeAt</text>
</g>
<!-- Node179 -->
<g id="node2" class="node"><title>Node179</title>
<g id="a_node2"><a xlink:href="class_edge_heap.html#add248e35c4c2443246ff6c7cd654ae9f" target="_top" xlink:title="EdgeHeap::edgeComparator">
<polygon fill="white" stroke="black" points="307,-76.5 307,-95.5 447,-95.5 447,-76.5 307,-76.5"/>
<text text-anchor="middle" x="377" y="-83.5" font-family="Helvetica,sans-Serif" font-size="10.00">EdgeHeap::edgeComparator</text>
</a>
</g>
</g>
<!-- Node178&#45;&gt;Node179 -->
<g id="edge1" class="edge"><title>Node178&#45;&gt;Node179</title>
<path fill="none" stroke="midnightblue" d="M92.5079,-95.509C108.761,-99.2739 128.211,-103.143 146,-105 201.255,-110.769 215.667,-109.966 271,-105 288.113,-103.464 306.609,-100.547 323.239,-97.4514"/>
<polygon fill="midnightblue" stroke="midnightblue" points="324.165,-100.838 333.323,-95.5115 322.842,-93.9636 324.165,-100.838"/>
</g>
<!-- Node186 -->
<g id="node9" class="node"><title>Node186</title>
<g id="a_node9"><a xlink:href="class_edge_heap.html#af02715f2265926338a4b33135c821a4c" target="_top" xlink:title="EdgeHeap::heapifyDown">
<polygon fill="white" stroke="black" points="146,-76.5 146,-95.5 271,-95.5 271,-76.5 146,-76.5"/>
<text text-anchor="middle" x="208.5" y="-83.5" font-family="Helvetica,sans-Serif" font-size="10.00">EdgeHeap::heapifyDown</text>
</a>
</g>
</g>
<!-- Node178&#45;&gt;Node186 -->
<g id="edge8" class="edge"><title>Node178&#45;&gt;Node186</title>
<path fill="none" stroke="midnightblue" d="M110.267,-86C118.567,-86 127.241,-86 135.845,-86"/>
<polygon fill="midnightblue" stroke="midnightblue" points="135.886,-89.5001 145.886,-86 135.886,-82.5001 135.886,-89.5001"/>
</g>
<!-- Node187 -->
<g id="node10" class="node"><title>Node187</title>
<g id="a_node10"><a xlink:href="class_edge_heap.html#afc03f4943c606b1d2617654cfaeeabb6" target="_top" xlink:title="EdgeHeap::heapifyUp">
<polygon fill="white" stroke="black" points="152,-38.5 152,-57.5 265,-57.5 265,-38.5 152,-38.5"/>
<text text-anchor="middle" x="208.5" y="-45.5" font-family="Helvetica,sans-Serif" font-size="10.00">EdgeHeap::heapifyUp</text>
</a>
</g>
</g>
<!-- Node178&#45;&gt;Node187 -->
<g id="edge10" class="edge"><title>Node178&#45;&gt;Node187</title>
<path fill="none" stroke="midnightblue" d="M94.2298,-76.411C114.132,-71.4191 138.657,-65.2676 159.791,-59.9666"/>
<polygon fill="midnightblue" stroke="midnightblue" points="160.697,-63.3479 169.545,-57.5201 158.994,-56.5582 160.697,-63.3479"/>
</g>
<!-- Node180 -->
<g id="node3" class="node"><title>Node180</title>
<g id="a_node3"><a xlink:href="class_node.html#a13467fc326459c1d607547b3e9470710" target="_top" xlink:title="Node::getArea">
<polygon fill="white" stroke="black" points="490.5,-152.5 490.5,-171.5 570.5,-171.5 570.5,-152.5 490.5,-152.5"/>
<text text-anchor="middle" x="530.5" y="-159.5" font-family="Helvetica,sans-Serif" font-size="10.00">Node::getArea</text>
</a>
</g>
</g>
<!-- Node179&#45;&gt;Node180 -->
<g id="edge2" class="edge"><title>Node179&#45;&gt;Node180</title>
<path fill="none" stroke="midnightblue" d="M394.44,-95.6545C414.867,-107.479 450.949,-127.808 483,-143 486.901,-144.849 491.032,-146.693 495.158,-148.466"/>
<polygon fill="midnightblue" stroke="midnightblue" points="494.09,-151.812 504.666,-152.439 496.789,-145.354 494.09,-151.812"/>
</g>
<!-- Node182 -->
<g id="node5" class="node"><title>Node182</title>
<g id="a_node5"><a xlink:href="class_edge.html#aaaa9cb49c141b310873cd75fd493e22d" target="_top" xlink:title="Edge::getNode1">
<polygon fill="white" stroke="black" points="487,-114.5 487,-133.5 574,-133.5 574,-114.5 487,-114.5"/>
<text text-anchor="middle" x="530.5" y="-121.5" font-family="Helvetica,sans-Serif" font-size="10.00">Edge::getNode1</text>
</a>
</g>
</g>
<!-- Node179&#45;&gt;Node182 -->
<g id="edge4" class="edge"><title>Node179&#45;&gt;Node182</title>
<path fill="none" stroke="midnightblue" d="M416.23,-95.589C436.132,-100.581 460.657,-106.732 481.791,-112.033"/>
<polygon fill="midnightblue" stroke="midnightblue" points="480.994,-115.442 491.545,-114.48 482.697,-108.652 480.994,-115.442"/>
</g>
<!-- Node183 -->
<g id="node6" class="node"><title>Node183</title>
<g id="a_node6"><a xlink:href="class_edge.html#a50017668f77ed019a5caceafbb1eb16f" target="_top" xlink:title="Edge::getNode2">
<polygon fill="white" stroke="black" points="487,-76.5 487,-95.5 574,-95.5 574,-76.5 487,-76.5"/>
<text text-anchor="middle" x="530.5" y="-83.5" font-family="Helvetica,sans-Serif" font-size="10.00">Edge::getNode2</text>
</a>
</g>
</g>
<!-- Node179&#45;&gt;Node183 -->
<g id="edge5" class="edge"><title>Node179&#45;&gt;Node183</title>
<path fill="none" stroke="midnightblue" d="M447.1,-86C457.072,-86 467.199,-86 476.782,-86"/>
<polygon fill="midnightblue" stroke="midnightblue" points="476.935,-89.5001 486.935,-86 476.935,-82.5001 476.935,-89.5001"/>
</g>
<!-- Node184 -->
<g id="node7" class="node"><title>Node184</title>
<g id="a_node7"><a xlink:href="class_node.html#aa3512938403662345b64049920d1cdaf" target="_top" xlink:title="Node::getPosition">
<polygon fill="white" stroke="black" points="483,-38.5 483,-57.5 578,-57.5 578,-38.5 483,-38.5"/>
<text text-anchor="middle" x="530.5" y="-45.5" font-family="Helvetica,sans-Serif" font-size="10.00">Node::getPosition</text>
</a>
</g>
</g>
<!-- Node179&#45;&gt;Node184 -->
<g id="edge6" class="edge"><title>Node179&#45;&gt;Node184</title>
<path fill="none" stroke="midnightblue" d="M416.23,-76.411C436.132,-71.4191 460.657,-65.2676 481.791,-59.9666"/>
<polygon fill="midnightblue" stroke="midnightblue" points="482.697,-63.3479 491.545,-57.5201 480.994,-56.5582 482.697,-63.3479"/>
</g>
<!-- Node185 -->
<g id="node8" class="node"><title>Node185</title>
<g id="a_node8"><a xlink:href="class_edge.html#a3a776c1ccafacdbdb10fdedd9cb329af" target="_top" xlink:title="Edge::getWeight">
<polygon fill="white" stroke="black" points="486,-0.5 486,-19.5 575,-19.5 575,-0.5 486,-0.5"/>
<text text-anchor="middle" x="530.5" y="-7.5" font-family="Helvetica,sans-Serif" font-size="10.00">Edge::getWeight</text>
</a>
</g>
</g>
<!-- Node179&#45;&gt;Node185 -->
<g id="edge7" class="edge"><title>Node179&#45;&gt;Node185</title>
<path fill="none" stroke="midnightblue" d="M394.44,-76.3455C414.867,-64.5206 450.949,-44.1916 483,-29 486.901,-27.1511 491.032,-25.3068 495.158,-23.5345"/>
<polygon fill="midnightblue" stroke="midnightblue" points="496.789,-26.6464 504.666,-19.5614 494.09,-20.1875 496.789,-26.6464"/>
</g>
<!-- Node181 -->
<g id="node4" class="node"><title>Node181</title>
<g id="a_node4"><a xlink:href="classregion_model.html#a56b1a22f355e85211760055c7559cd1e" target="_top" xlink:title="regionModel::getArea">
<polygon fill="white" stroke="black" points="614,-152.5 614,-171.5 723,-171.5 723,-152.5 614,-152.5"/>
<text text-anchor="middle" x="668.5" y="-159.5" font-family="Helvetica,sans-Serif" font-size="10.00">regionModel::getArea</text>
</a>
</g>
</g>
<!-- Node180&#45;&gt;Node181 -->
<g id="edge3" class="edge"><title>Node180&#45;&gt;Node181</title>
<path fill="none" stroke="midnightblue" d="M570.837,-162C581.108,-162 592.446,-162 603.635,-162"/>
<polygon fill="midnightblue" stroke="midnightblue" points="603.833,-165.5 613.833,-162 603.833,-158.5 603.833,-165.5"/>
</g>
<!-- Node186&#45;&gt;Node179 -->
<g id="edge9" class="edge"><title>Node186&#45;&gt;Node179</title>
<path fill="none" stroke="midnightblue" d="M271.025,-86C279.415,-86 288.121,-86 296.768,-86"/>
<polygon fill="midnightblue" stroke="midnightblue" points="296.871,-89.5001 306.871,-86 296.871,-82.5001 296.871,-89.5001"/>
</g>
<!-- Node187&#45;&gt;Node179 -->
<g id="edge11" class="edge"><title>Node187&#45;&gt;Node179</title>
<path fill="none" stroke="midnightblue" d="M251.515,-57.589C273.684,-62.6487 301.073,-68.8996 324.511,-74.2488"/>
<polygon fill="midnightblue" stroke="midnightblue" points="323.759,-77.6671 334.287,-76.4799 325.317,-70.8425 323.759,-77.6671"/>
</g>
</g>
</svg>
        <g id="navigator" transform="translate(0 0)" fill="#404254">
                <rect fill="#f2f5e9" fill-opacity="0.5" stroke="#606060" stroke-width=".5" x="0" y="0" width="60" height="60"/>
                <use id="zoomplus" xlink:href="#zoomPlus" x="17" y="9" onmousedown="handleZoom(evt,'in')"/>
                <use id="zoomminus" xlink:href="#zoomMin" x="42" y="9" onmousedown="handleZoom(evt,'out')"/>
                <use id="reset" xlink:href="#resetDef" x="30" y="36" onmousedown="handleReset()"/>
                <g id="arrowUp" xlink:href="#dirArrow" transform="translate(30 24)" onmousedown="handlePan(0,-1)">
                  <use xlink:href="#rim" fill="#404040">
                        <set attributeName="fill" to="#808080" begin="arrowUp.mouseover" end="arrowUp.mouseout"/>
                  </use>
                  <path fill="none" stroke="white" stroke-width="1.5" d="M0,-3.0v7 M-2.5,-0.5L0,-3.0L2.5,-0.5"/>
                </g>
                <g id="arrowRight" xlink:href="#dirArrow" transform="rotate(90) translate(36 -43)" onmousedown="handlePan(1,0)">
                  <use xlink:href="#rim" fill="#404040">
                        <set attributeName="fill" to="#808080" begin="arrowRight.mouseover" end="arrowRight.mouseout"/>
                  </use>
                  <path fill="none" stroke="white" stroke-width="1.5" d="M0,-3.0v7 M-2.5,-0.5L0,-3.0L2.5,-0.5"/>
                </g>
                <g id="arrowDown" xlink:href="#dirArrow" transform="rotate(180) translate(-30 -48)" onmousedown="handlePan(0,1)">
                  <use xlink:href="#rim" fill="#404040">
                        <set attributeName="fill" to="#808080" begin="arrowDown.mouseover" end="arrowDown.mouseout"/>
                  </use>
                  <path fill="none" stroke="white" stroke-width="1.5" d="M0,-3.0v7 M-2.5,-0.5L0,-3.0L2.5,-0.5"/>
                </g>
                <g id="arrowLeft" xlink:href="#dirArrow" transform="rotate(270) translate(-36 17)" onmousedown="handlePan(-1,0)">
                  <use xlink:href="#rim" fill="#404040">
                        <set attributeName="fill" to="#808080" begin="arrowLeft.mouseover" end="arrowLeft.mouseout"/>
                  </use>
                  <path fill="none" stroke="white" stroke-width="1.5" d="M0,-3.0v7 M-2.5,-0.5L0,-3.0L2.5,-0.5"/>
                </g>
        </g>
        <svg viewBox="0 0 15 15" width="100%" height="30px" preserveAspectRatio="xMaxYMin meet">
         <g id="arrow_out" transform="scale(0.3 0.3)">
          <a xlink:href="class_edge_heap_a71040389a82aaff7be40c94a95afc357_cgraph_org.svg" target="_base">
           <rect id="button" ry="5" rx="5" y="6" x="6" height="38" width="38"
                fill="#f2f5e9" fill-opacity="0.5" stroke="#606060" stroke-width="1.0"/>
           <path id="arrow"
             d="M 11.500037,31.436501 C 11.940474,20.09759 22.043105,11.32322 32.158766,21.979434 L 37.068811,17.246167 C 37.068811,17.246167 37.088388,32 37.088388,32 L 22.160133,31.978069 C 22.160133,31.978069 26.997745,27.140456 26.997745,27.140456 C 18.528582,18.264221 13.291696,25.230495 11.500037,31.436501 z"
             style="fill:#404040;"/>
          </a>
         </g>
        </svg>
</svg>
