<?xml version="1.0" encoding="UTF-8" standalone="no"?>
<!DOCTYPE svg PUBLIC "-//W3C//DTD SVG 1.1//EN"
 "http://www.w3.org/Graphics/SVG/1.1/DTD/svg11.dtd">
<!-- Generated by graphviz version 2.38.0 (20140413.2041)
 -->
<!-- Title: Node::isLeaf Pages: 1 -->
<svg width="1082pt" height="236pt"
 viewBox="0.00 0.00 1082.00 236.00" xmlns="http://www.w3.org/2000/svg" xmlns:xlink="http://www.w3.org/1999/xlink">
<g id="graph0" class="graph" transform="scale(1 1) rotate(0) translate(4 232)">
<title>Node::isLeaf</title>
<polygon fill="white" stroke="none" points="-4,4 -4,-232 1078,-232 1078,4 -4,4"/>
<!-- Node227 -->
<g id="node1" class="node"><title>Node227</title>
<polygon fill="#bfbfbf" stroke="black" points="0,-95.5 0,-114.5 72,-114.5 72,-95.5 0,-95.5"/>
<text text-anchor="middle" x="36" y="-102.5" font-family="Helvetica,sans-Serif" font-size="10.00">Node::isLeaf</text>
</g>
<!-- Node228 -->
<g id="node2" class="node"><title>Node228</title>
<g id="a_node2"><a xlink:href="classio.html#a51779ac390d81e68077752ddf9ee2042" target="_top" xlink:title="io::bestSegmentation">
<polygon fill="white" stroke="black" points="307,-152.5 307,-171.5 416,-171.5 416,-152.5 307,-152.5"/>
<text text-anchor="middle" x="361.5" y="-159.5" font-family="Helvetica,sans-Serif" font-size="10.00">io::bestSegmentation</text>
</a>
</g>
</g>
<!-- Node227&#45;&gt;Node228 -->
<g id="edge1" class="edge"><title>Node227&#45;&gt;Node228</title>
<path fill="none" stroke="midnightblue" d="M59.2399,-120.02C72.7383,-128.322 90.6583,-137.952 108,-143 174.479,-162.351 254.732,-165.083 306.648,-164.321"/>
<polygon fill="midnightblue" stroke="midnightblue" points="60.9775,-116.977 50.6628,-114.557 57.2171,-122.881 60.9775,-116.977"/>
</g>
<!-- Node237 -->
<g id="node11" class="node"><title>Node237</title>
<g id="a_node11"><a xlink:href="class_node.html#adaaa531eae8cc809934f80b09ad8224e" target="_top" xlink:title="Node::releaseTree">
<polygon fill="white" stroke="black" points="313,-190.5 313,-209.5 410,-209.5 410,-190.5 313,-190.5"/>
<text text-anchor="middle" x="361.5" y="-197.5" font-family="Helvetica,sans-Serif" font-size="10.00">Node::releaseTree</text>
</a>
</g>
</g>
<!-- Node227&#45;&gt;Node237 -->
<g id="edge12" class="edge"><title>Node227&#45;&gt;Node237</title>
<path fill="none" stroke="midnightblue" d="M51.8064,-122.758C64.967,-137.231 85.5557,-156.872 108,-167 174.49,-197.004 260.164,-202.04 312.671,-201.829"/>
<polygon fill="midnightblue" stroke="midnightblue" points="54.1818,-120.158 44.9582,-114.945 48.9178,-124.772 54.1818,-120.158"/>
</g>
<!-- Node238 -->
<g id="node12" class="node"><title>Node238</title>
<g id="a_node12"><a xlink:href="classio.html#a4cca3fdf98e917cac1b3e776c7634aec" target="_top" xlink:title="io::writeBoarderNodeToCSV">
<polygon fill="white" stroke="black" points="108,-114.5 108,-133.5 248,-133.5 248,-114.5 108,-114.5"/>
<text text-anchor="middle" x="178" y="-121.5" font-family="Helvetica,sans-Serif" font-size="10.00">io::writeBoarderNodeToCSV</text>
</a>
</g>
</g>
<!-- Node227&#45;&gt;Node238 -->
<g id="edge17" class="edge"><title>Node227&#45;&gt;Node238</title>
<path fill="none" stroke="midnightblue" d="M82.3488,-111.154C90.5077,-112.262 99.1789,-113.439 107.833,-114.613"/>
<polygon fill="midnightblue" stroke="midnightblue" points="82.7078,-107.671 72.3279,-109.795 81.7664,-114.608 82.7078,-107.671"/>
</g>
<!-- Node242 -->
<g id="node16" class="node"><title>Node242</title>
<g id="a_node16"><a xlink:href="classio.html#a72962f4d8ddc9b57256730b089be4288" target="_top" xlink:title="io::writeClassMap">
<polygon fill="white" stroke="black" points="130.5,-76.5 130.5,-95.5 225.5,-95.5 225.5,-76.5 130.5,-76.5"/>
<text text-anchor="middle" x="178" y="-83.5" font-family="Helvetica,sans-Serif" font-size="10.00">io::writeClassMap</text>
</a>
</g>
</g>
<!-- Node227&#45;&gt;Node242 -->
<g id="edge22" class="edge"><title>Node227&#45;&gt;Node242</title>
<path fill="none" stroke="midnightblue" d="M82.5844,-98.8135C97.8706,-96.739 114.933,-94.4234 130.303,-92.3375"/>
<polygon fill="midnightblue" stroke="midnightblue" points="81.7664,-95.3924 72.3279,-100.205 82.7078,-102.329 81.7664,-95.3924"/>
</g>
<!-- Node243 -->
<g id="node17" class="node"><title>Node243</title>
<g id="a_node17"><a xlink:href="classio.html#a8aa97cb094b71a1583ef796b8200fbdb" target="_top" xlink:title="io::writeNodeToCSV">
<polygon fill="white" stroke="black" points="124.5,-38.5 124.5,-57.5 231.5,-57.5 231.5,-38.5 124.5,-38.5"/>
<text text-anchor="middle" x="178" y="-45.5" font-family="Helvetica,sans-Serif" font-size="10.00">io::writeNodeToCSV</text>
</a>
</g>
</g>
<!-- Node227&#45;&gt;Node243 -->
<g id="edge25" class="edge"><title>Node227&#45;&gt;Node243</title>
<path fill="none" stroke="midnightblue" d="M61.2214,-90.2975C74.6533,-82.5938 91.8603,-73.4475 108,-67 117,-63.4047 126.921,-60.2364 136.367,-57.5687"/>
<polygon fill="midnightblue" stroke="midnightblue" points="59.4494,-87.2791 52.585,-95.3494 62.9839,-93.3213 59.4494,-87.2791"/>
</g>
<!-- Node244 -->
<g id="node18" class="node"><title>Node244</title>
<g id="a_node18"><a xlink:href="classio.html#aaa642111086b3ec2afee826a767d03ad" target="_top" xlink:title="io::writeNodeToDisk">
<polygon fill="white" stroke="black" points="125,-0.5 125,-19.5 231,-19.5 231,-0.5 125,-0.5"/>
<text text-anchor="middle" x="178" y="-7.5" font-family="Helvetica,sans-Serif" font-size="10.00">io::writeNodeToDisk</text>
</a>
</g>
</g>
<!-- Node227&#45;&gt;Node244 -->
<g id="edge28" class="edge"><title>Node227&#45;&gt;Node244</title>
<path fill="none" stroke="midnightblue" d="M49.0142,-87.2922C61.7011,-69.9332 83.2665,-43.9625 108,-29 114.379,-25.1412 121.558,-22.0476 128.811,-19.5723"/>
<polygon fill="midnightblue" stroke="midnightblue" points="46.1389,-85.2963 43.2193,-95.481 51.8529,-89.34 46.1389,-85.2963"/>
</g>
<!-- Node229 -->
<g id="node3" class="node"><title>Node229</title>
<g id="a_node3"><a xlink:href="classimage.html#a12343719e8d96a4bda9c5bd6c035d52a" target="_top" xlink:title="image::mergeBlockX">
<polygon fill="white" stroke="black" points="481,-152.5 481,-171.5 588,-171.5 588,-152.5 481,-152.5"/>
<text text-anchor="middle" x="534.5" y="-159.5" font-family="Helvetica,sans-Serif" font-size="10.00">image::mergeBlockX</text>
</a>
</g>
</g>
<!-- Node228&#45;&gt;Node229 -->
<g id="edge2" class="edge"><title>Node228&#45;&gt;Node229</title>
<path fill="none" stroke="midnightblue" d="M426.265,-162C444.274,-162 463.662,-162 480.933,-162"/>
<polygon fill="midnightblue" stroke="midnightblue" points="426.136,-158.5 416.136,-162 426.136,-165.5 426.136,-158.5"/>
</g>
<!-- Node233 -->
<g id="node7" class="node"><title>Node233</title>
<g id="a_node7"><a xlink:href="classimage.html#aa21fc5a07af7528869425e750090b3b8" target="_top" xlink:title="image::mergeBlockY">
<polygon fill="white" stroke="black" points="481,-190.5 481,-209.5 588,-209.5 588,-190.5 481,-190.5"/>
<text text-anchor="middle" x="534.5" y="-197.5" font-family="Helvetica,sans-Serif" font-size="10.00">image::mergeBlockY</text>
</a>
</g>
</g>
<!-- Node228&#45;&gt;Node233 -->
<g id="edge6" class="edge"><title>Node228&#45;&gt;Node233</title>
<path fill="none" stroke="midnightblue" d="M415.709,-173.824C439.817,-179.182 467.94,-185.431 490.66,-190.48"/>
<polygon fill="midnightblue" stroke="midnightblue" points="416.172,-170.342 405.651,-171.589 414.653,-177.175 416.172,-170.342"/>
</g>
<!-- Node235 -->
<g id="node9" class="node"><title>Node235</title>
<g id="a_node9"><a xlink:href="classimageblock.html#af3b91e3daaa8014af1239f60da6b0bf5" target="_top" xlink:title="imageblock::processing">
<polygon fill="white" stroke="black" points="475,-114.5 475,-133.5 594,-133.5 594,-114.5 475,-114.5"/>
<text text-anchor="middle" x="534.5" y="-121.5" font-family="Helvetica,sans-Serif" font-size="10.00">imageblock::processing</text>
</a>
</g>
</g>
<!-- Node228&#45;&gt;Node235 -->
<g id="edge9" class="edge"><title>Node228&#45;&gt;Node235</title>
<path fill="none" stroke="midnightblue" d="M415.709,-150.176C439.817,-144.818 467.94,-138.569 490.66,-133.52"/>
<polygon fill="midnightblue" stroke="midnightblue" points="414.653,-146.825 405.651,-152.411 416.172,-153.658 414.653,-146.825"/>
</g>
<!-- Node230 -->
<g id="node4" class="node"><title>Node230</title>
<g id="a_node4"><a xlink:href="classimage.html#a83026280ad6cc713ec9489ff3bd9776e" target="_top" xlink:title="image::ProcessBoundaryX">
<polygon fill="white" stroke="black" points="630,-152.5 630,-171.5 763,-171.5 763,-152.5 630,-152.5"/>
<text text-anchor="middle" x="696.5" y="-159.5" font-family="Helvetica,sans-Serif" font-size="10.00">image::ProcessBoundaryX</text>
</a>
</g>
</g>
<!-- Node229&#45;&gt;Node230 -->
<g id="edge3" class="edge"><title>Node229&#45;&gt;Node230</title>
<path fill="none" stroke="midnightblue" d="M598.486,-162C608.798,-162 619.505,-162 629.879,-162"/>
<polygon fill="midnightblue" stroke="midnightblue" points="598.333,-158.5 588.333,-162 598.333,-165.5 598.333,-158.5"/>
</g>
<!-- Node231 -->
<g id="node5" class="node"><title>Node231</title>
<g id="a_node5"><a xlink:href="classimage.html#a4689c56b85c46d48ea52f0c9fa13891e" target="_top" xlink:title="image::processing">
<polygon fill="white" stroke="black" points="799,-152.5 799,-171.5 895,-171.5 895,-152.5 799,-152.5"/>
<text text-anchor="middle" x="847" y="-159.5" font-family="Helvetica,sans-Serif" font-size="10.00">image::processing</text>
</a>
</g>
</g>
<!-- Node230&#45;&gt;Node231 -->
<g id="edge4" class="edge"><title>Node230&#45;&gt;Node231</title>
<path fill="none" stroke="midnightblue" d="M773.207,-162C781.858,-162 790.483,-162 798.612,-162"/>
<polygon fill="midnightblue" stroke="midnightblue" points="773.067,-158.5 763.067,-162 773.066,-165.5 773.067,-158.5"/>
</g>
<!-- Node232 -->
<g id="node6" class="node"><title>Node232</title>
<g id="a_node6"><a xlink:href="class_main_window.html#a9a45eb9ebe6d27bcd23677d9fbb74dd8" target="_top" xlink:title="MainWindow::on_Go_clicked">
<polygon fill="white" stroke="black" points="931,-152.5 931,-171.5 1074,-171.5 1074,-152.5 931,-152.5"/>
<text text-anchor="middle" x="1002.5" y="-159.5" font-family="Helvetica,sans-Serif" font-size="10.00">MainWindow::on_Go_clicked</text>
</a>
</g>
</g>
<!-- Node231&#45;&gt;Node232 -->
<g id="edge5" class="edge"><title>Node231&#45;&gt;Node232</title>
<path fill="none" stroke="midnightblue" d="M905.583,-162C913.853,-162 922.441,-162 930.928,-162"/>
<polygon fill="midnightblue" stroke="midnightblue" points="905.308,-158.5 895.308,-162 905.308,-165.5 905.308,-158.5"/>
</g>
<!-- Node234 -->
<g id="node8" class="node"><title>Node234</title>
<g id="a_node8"><a xlink:href="classimage.html#adf6b8c126649c9a40387f12b5f5f07d5" target="_top" xlink:title="image::ProcessBoundaryY">
<polygon fill="white" stroke="black" points="630,-190.5 630,-209.5 763,-209.5 763,-190.5 630,-190.5"/>
<text text-anchor="middle" x="696.5" y="-197.5" font-family="Helvetica,sans-Serif" font-size="10.00">image::ProcessBoundaryY</text>
</a>
</g>
</g>
<!-- Node233&#45;&gt;Node234 -->
<g id="edge7" class="edge"><title>Node233&#45;&gt;Node234</title>
<path fill="none" stroke="midnightblue" d="M598.486,-200C608.798,-200 619.505,-200 629.879,-200"/>
<polygon fill="midnightblue" stroke="midnightblue" points="598.333,-196.5 588.333,-200 598.333,-203.5 598.333,-196.5"/>
</g>
<!-- Node234&#45;&gt;Node231 -->
<g id="edge8" class="edge"><title>Node234&#45;&gt;Node231</title>
<path fill="none" stroke="midnightblue" d="M744.833,-187.888C765.515,-182.596 789.419,-176.479 808.797,-171.52"/>
<polygon fill="midnightblue" stroke="midnightblue" points="743.793,-184.541 734.973,-190.411 745.528,-191.323 743.793,-184.541"/>
</g>
<!-- Node236 -->
<g id="node10" class="node"><title>Node236</title>
<g id="a_node10"><a xlink:href="classimage.html#ad5a9d767eca6f9bbb8dcb556527edf4d" target="_top" xlink:title="image::ProcessTiles">
<polygon fill="white" stroke="black" points="643.5,-114.5 643.5,-133.5 749.5,-133.5 749.5,-114.5 643.5,-114.5"/>
<text text-anchor="middle" x="696.5" y="-121.5" font-family="Helvetica,sans-Serif" font-size="10.00">image::ProcessTiles</text>
</a>
</g>
</g>
<!-- Node235&#45;&gt;Node236 -->
<g id="edge10" class="edge"><title>Node235&#45;&gt;Node236</title>
<path fill="none" stroke="midnightblue" d="M604.525,-124C617.577,-124 631.026,-124 643.447,-124"/>
<polygon fill="midnightblue" stroke="midnightblue" points="604.17,-120.5 594.17,-124 604.17,-127.5 604.17,-120.5"/>
</g>
<!-- Node236&#45;&gt;Node231 -->
<g id="edge11" class="edge"><title>Node236&#45;&gt;Node231</title>
<path fill="none" stroke="midnightblue" d="M744.833,-136.112C765.515,-141.404 789.419,-147.521 808.797,-152.48"/>
<polygon fill="midnightblue" stroke="midnightblue" points="745.528,-132.677 734.973,-133.589 743.793,-139.459 745.528,-132.677"/>
</g>
<!-- Node237&#45;&gt;Node229 -->
<g id="edge13" class="edge"><title>Node237&#45;&gt;Node229</title>
<path fill="none" stroke="midnightblue" d="M415.709,-188.176C439.817,-182.818 467.94,-176.569 490.66,-171.52"/>
<polygon fill="midnightblue" stroke="midnightblue" points="414.653,-184.825 405.651,-190.411 416.172,-191.658 414.653,-184.825"/>
</g>
<!-- Node237&#45;&gt;Node233 -->
<g id="edge14" class="edge"><title>Node237&#45;&gt;Node233</title>
<path fill="none" stroke="midnightblue" d="M420.153,-200C439.744,-200 461.524,-200 480.715,-200"/>
<polygon fill="midnightblue" stroke="midnightblue" points="420.133,-196.5 410.133,-200 420.133,-203.5 420.133,-196.5"/>
</g>
<!-- Node237&#45;&gt;Node235 -->
<g id="edge15" class="edge"><title>Node237&#45;&gt;Node235</title>
<path fill="none" stroke="midnightblue" d="M420.016,-189.548C426.642,-187.24 433.122,-184.427 439,-181 459.097,-169.281 455.329,-155.421 475,-143 481.049,-139.18 487.939,-136.058 494.816,-133.531"/>
<polygon fill="midnightblue" stroke="midnightblue" points="418.766,-186.271 410.255,-192.58 420.843,-192.956 418.766,-186.271"/>
</g>
<!-- Node237&#45;&gt;Node237 -->
<g id="edge16" class="edge"><title>Node237&#45;&gt;Node237</title>
<path fill="none" stroke="midnightblue" d="M329.314,-218.275C330.232,-223.741 340.961,-228 361.5,-228 392.07,-228 400.907,-218.565 388.01,-209.757"/>
<polygon fill="midnightblue" stroke="midnightblue" points="332.357,-220.02 334.99,-209.757 326.532,-216.138 332.357,-220.02"/>
</g>
<!-- Node239 -->
<g id="node13" class="node"><title>Node239</title>
<g id="a_node13"><a xlink:href="classimageblock.html#adbafde60f699582250656ddc2ebe82e2" target="_top" xlink:title="imageblock::saveToDisk">
<polygon fill="white" stroke="black" points="299,-38.5 299,-57.5 424,-57.5 424,-38.5 299,-38.5"/>
<text text-anchor="middle" x="361.5" y="-45.5" font-family="Helvetica,sans-Serif" font-size="10.00">imageblock::saveToDisk</text>
</a>
</g>
</g>
<!-- Node238&#45;&gt;Node239 -->
<g id="edge18" class="edge"><title>Node238&#45;&gt;Node239</title>
<path fill="none" stroke="midnightblue" d="M236.588,-110.783C240.558,-109.077 244.404,-107.158 248,-105 267.947,-93.0277 263.903,-78.7194 284,-67 290.62,-63.1396 298.005,-60.0589 305.502,-57.6016"/>
<polygon fill="midnightblue" stroke="midnightblue" points="235.254,-107.546 227.165,-114.388 237.756,-114.084 235.254,-107.546"/>
</g>
<!-- Node240 -->
<g id="node14" class="node"><title>Node240</title>
<g id="a_node14"><a xlink:href="classimage.html#aa04b765a3c2cc6860a22ebfbedbcd7fc" target="_top" xlink:title="image::saveToDisk">
<polygon fill="white" stroke="black" points="311,-76.5 311,-95.5 412,-95.5 412,-76.5 311,-76.5"/>
<text text-anchor="middle" x="361.5" y="-83.5" font-family="Helvetica,sans-Serif" font-size="10.00">image::saveToDisk</text>
</a>
</g>
</g>
<!-- Node238&#45;&gt;Node240 -->
<g id="edge20" class="edge"><title>Node238&#45;&gt;Node240</title>
<path fill="none" stroke="midnightblue" d="M234.792,-112.319C260.531,-106.93 290.699,-100.614 315.029,-95.5201"/>
<polygon fill="midnightblue" stroke="midnightblue" points="233.871,-108.936 224.8,-114.411 235.305,-115.787 233.871,-108.936"/>
</g>
<!-- Node241 -->
<g id="node15" class="node"><title>Node241</title>
<g id="a_node15"><a xlink:href="classio.html#af3def6eac9bbdd2a12de24104be3acd6" target="_top" xlink:title="io::writeBoarderNodeSetToCSV">
<polygon fill="white" stroke="black" points="284,-114.5 284,-133.5 439,-133.5 439,-114.5 284,-114.5"/>
<text text-anchor="middle" x="361.5" y="-121.5" font-family="Helvetica,sans-Serif" font-size="10.00">io::writeBoarderNodeSetToCSV</text>
</a>
</g>
</g>
<!-- Node238&#45;&gt;Node241 -->
<g id="edge21" class="edge"><title>Node238&#45;&gt;Node241</title>
<path fill="none" stroke="midnightblue" d="M258.407,-124C266.9,-124 275.527,-124 283.985,-124"/>
<polygon fill="midnightblue" stroke="midnightblue" points="258.135,-120.5 248.135,-124 258.135,-127.5 258.135,-120.5"/>
</g>
<!-- Node239&#45;&gt;Node235 -->
<g id="edge19" class="edge"><title>Node239&#45;&gt;Node235</title>
<path fill="none" stroke="midnightblue" d="M420.497,-60.4381C426.83,-62.3748 433.11,-64.5576 439,-67 469.972,-79.8434 502.759,-101.764 520.407,-114.349"/>
<polygon fill="midnightblue" stroke="midnightblue" points="421.127,-56.978 410.55,-57.5954 419.203,-63.7086 421.127,-56.978"/>
</g>
<!-- Node242&#45;&gt;Node239 -->
<g id="edge23" class="edge"><title>Node242&#45;&gt;Node239</title>
<path fill="none" stroke="midnightblue" d="M234.792,-74.319C260.531,-68.9301 290.699,-62.6139 315.029,-57.5201"/>
<polygon fill="midnightblue" stroke="midnightblue" points="233.871,-70.936 224.8,-76.411 235.305,-77.7874 233.871,-70.936"/>
</g>
<!-- Node242&#45;&gt;Node240 -->
<g id="edge24" class="edge"><title>Node242&#45;&gt;Node240</title>
<path fill="none" stroke="midnightblue" d="M235.784,-86C259.804,-86 287.535,-86 310.739,-86"/>
<polygon fill="midnightblue" stroke="midnightblue" points="235.741,-82.5001 225.741,-86 235.741,-89.5001 235.741,-82.5001"/>
</g>
<!-- Node243&#45;&gt;Node239 -->
<g id="edge26" class="edge"><title>Node243&#45;&gt;Node239</title>
<path fill="none" stroke="midnightblue" d="M242.012,-48C260.41,-48 280.491,-48 298.807,-48"/>
<polygon fill="midnightblue" stroke="midnightblue" points="241.985,-44.5001 231.985,-48 241.985,-51.5001 241.985,-44.5001"/>
</g>
<!-- Node243&#45;&gt;Node240 -->
<g id="edge27" class="edge"><title>Node243&#45;&gt;Node240</title>
<path fill="none" stroke="midnightblue" d="M234.792,-59.681C260.531,-65.0699 290.699,-71.3861 315.029,-76.4799"/>
<polygon fill="midnightblue" stroke="midnightblue" points="235.305,-56.2126 224.8,-57.589 233.871,-63.064 235.305,-56.2126"/>
</g>
<!-- Node244&#45;&gt;Node239 -->
<g id="edge29" class="edge"><title>Node244&#45;&gt;Node239</title>
<path fill="none" stroke="midnightblue" d="M234.792,-21.681C260.531,-27.0699 290.699,-33.3861 315.029,-38.4799"/>
<polygon fill="midnightblue" stroke="midnightblue" points="235.305,-18.2126 224.8,-19.589 233.871,-25.064 235.305,-18.2126"/>
</g>
<!-- Node244&#45;&gt;Node240 -->
<g id="edge30" class="edge"><title>Node244&#45;&gt;Node240</title>
<path fill="none" stroke="midnightblue" d="M236.588,-23.2168C240.558,-24.9227 244.404,-26.842 248,-29 267.947,-40.9723 263.903,-55.2806 284,-67 292.157,-71.7566 301.474,-75.3294 310.734,-78.011"/>
<polygon fill="midnightblue" stroke="midnightblue" points="237.756,-19.916 227.165,-19.6115 235.254,-26.4538 237.756,-19.916"/>
</g>
</g>
</svg>
