<?xml version="1.0" encoding="UTF-8" standalone="no"?>
<!DOCTYPE svg PUBLIC "-//W3C//DTD SVG 1.1//EN"
 "http://www.w3.org/Graphics/SVG/1.1/DTD/svg11.dtd">
<!-- Generated by graphviz version 2.38.0 (20140413.2041)
 -->
<!-- Title: compoundmodel.h Pages: 1 -->
<svg width="523pt" height="308pt"
 viewBox="0.00 0.00 523.27 308.00" xmlns="http://www.w3.org/2000/svg" xmlns:xlink="http://www.w3.org/1999/xlink">
<g id="graph0" class="graph" transform="scale(1 1) rotate(0) translate(4 304)">
<title>compoundmodel.h</title>
<polygon fill="white" stroke="none" points="-4,4 -4,-304 519.271,-304 519.271,4 -4,4"/>
<!-- Node1 -->
<g id="node1" class="node"><title>Node1</title>
<polygon fill="#bfbfbf" stroke="black" points="257.5,-280.5 257.5,-299.5 353.5,-299.5 353.5,-280.5 257.5,-280.5"/>
<text text-anchor="middle" x="305.5" y="-287.5" font-family="Helvetica,sans-Serif" font-size="10.00">compoundmodel.h</text>
</g>
<!-- Node2 -->
<g id="node2" class="node"><title>Node2</title>
<g id="a_node2"><a xlink:href="compoundmodel_8cpp.html" target="_top" xlink:title="compoundmodel.cpp">
<polygon fill="white" stroke="black" points="120,-224.5 120,-243.5 227,-243.5 227,-224.5 120,-224.5"/>
<text text-anchor="middle" x="173.5" y="-231.5" font-family="Helvetica,sans-Serif" font-size="10.00">compoundmodel.cpp</text>
</a>
</g>
</g>
<!-- Node1&#45;&gt;Node2 -->
<g id="edge1" class="edge"><title>Node1&#45;&gt;Node2</title>
<path fill="none" stroke="midnightblue" d="M275.281,-276.638C250.51,-266.504 216.1,-252.427 194.318,-243.516"/>
<polygon fill="midnightblue" stroke="midnightblue" points="274.003,-279.897 284.584,-280.444 276.654,-273.418 274.003,-279.897"/>
</g>
<!-- Node3 -->
<g id="node3" class="node"><title>Node3</title>
<g id="a_node3"><a xlink:href="io_8h.html" target="_top" xlink:title="io.h">
<polygon fill="white" stroke="black" points="245.5,-224.5 245.5,-243.5 277.5,-243.5 277.5,-224.5 245.5,-224.5"/>
<text text-anchor="middle" x="261.5" y="-231.5" font-family="Helvetica,sans-Serif" font-size="10.00">io.h</text>
</a>
</g>
</g>
<!-- Node1&#45;&gt;Node3 -->
<g id="edge2" class="edge"><title>Node1&#45;&gt;Node3</title>
<path fill="none" stroke="midnightblue" d="M291.765,-272.144C284.099,-262.736 274.867,-251.405 268.631,-243.751"/>
<polygon fill="midnightblue" stroke="midnightblue" points="289.204,-274.541 298.234,-280.083 294.631,-270.12 289.204,-274.541"/>
</g>
<!-- Node10 -->
<g id="node10" class="node"><title>Node10</title>
<g id="a_node10"><a xlink:href="image_8h.html" target="_top" xlink:title="image.h">
<polygon fill="white" stroke="black" points="281,-112.5 281,-131.5 332,-131.5 332,-112.5 281,-112.5"/>
<text text-anchor="middle" x="306.5" y="-119.5" font-family="Helvetica,sans-Serif" font-size="10.00">image.h</text>
</a>
</g>
</g>
<!-- Node1&#45;&gt;Node10 -->
<g id="edge21" class="edge"><title>Node1&#45;&gt;Node10</title>
<path fill="none" stroke="midnightblue" d="M305.615,-269.93C305.832,-233.92 306.294,-157.231 306.448,-131.568"/>
<polygon fill="midnightblue" stroke="midnightblue" points="302.114,-270.054 305.554,-280.075 309.114,-270.096 302.114,-270.054"/>
</g>
<!-- Node11 -->
<g id="node11" class="node"><title>Node11</title>
<g id="a_node11"><a xlink:href="image_8cpp.html" target="_top" xlink:title="image.cpp">
<polygon fill="white" stroke="black" points="430.5,-56.5 430.5,-75.5 492.5,-75.5 492.5,-56.5 430.5,-56.5"/>
<text text-anchor="middle" x="461.5" y="-63.5" font-family="Helvetica,sans-Serif" font-size="10.00">image.cpp</text>
</a>
</g>
</g>
<!-- Node1&#45;&gt;Node11 -->
<g id="edge22" class="edge"><title>Node1&#45;&gt;Node11</title>
<path fill="none" stroke="midnightblue" d="M363.501,-278.314C412.197,-265.876 478.485,-239.985 508.5,-188 531.262,-148.576 488.84,-96.0312 469.93,-75.6178"/>
<polygon fill="midnightblue" stroke="midnightblue" points="362.594,-274.932 353.705,-280.697 364.249,-281.734 362.594,-274.932"/>
</g>
<!-- Node16 -->
<g id="node16" class="node"><title>Node16</title>
<g id="a_node16"><a xlink:href="initializer_8h.html" target="_top" xlink:title="initializer.h">
<polygon fill="white" stroke="black" points="339,-224.5 339,-243.5 402,-243.5 402,-224.5 339,-224.5"/>
<text text-anchor="middle" x="370.5" y="-231.5" font-family="Helvetica,sans-Serif" font-size="10.00">initializer.h</text>
</a>
</g>
</g>
<!-- Node1&#45;&gt;Node16 -->
<g id="edge18" class="edge"><title>Node1&#45;&gt;Node16</title>
<path fill="none" stroke="midnightblue" d="M323.773,-273.82C335.418,-264.145 350.099,-251.948 359.867,-243.834"/>
<polygon fill="midnightblue" stroke="midnightblue" points="321.399,-271.242 315.943,-280.324 325.872,-276.626 321.399,-271.242"/>
</g>
<!-- Node4 -->
<g id="node4" class="node"><title>Node4</title>
<g id="a_node4"><a xlink:href="hoovermetrics_8h.html" target="_top" xlink:title="hoovermetrics.h">
<polygon fill="white" stroke="black" points="120.5,-112.5 120.5,-131.5 206.5,-131.5 206.5,-112.5 120.5,-112.5"/>
<text text-anchor="middle" x="163.5" y="-119.5" font-family="Helvetica,sans-Serif" font-size="10.00">hoovermetrics.h</text>
</a>
</g>
</g>
<!-- Node3&#45;&gt;Node4 -->
<g id="edge3" class="edge"><title>Node3&#45;&gt;Node4</title>
<path fill="none" stroke="midnightblue" d="M235.762,-222.979C219.616,-215.515 199.472,-203.87 186.5,-188 172.713,-171.132 166.904,-145.395 164.698,-131.925"/>
<polygon fill="midnightblue" stroke="midnightblue" points="234.633,-226.305 245.199,-227.086 237.427,-219.886 234.633,-226.305"/>
</g>
<!-- Node9 -->
<g id="node9" class="node"><title>Node9</title>
<g id="a_node9"><a xlink:href="imageblock_8h.html" target="_top" xlink:title="imageblock.h">
<polygon fill="white" stroke="black" points="333.5,-168.5 333.5,-187.5 407.5,-187.5 407.5,-168.5 333.5,-168.5"/>
<text text-anchor="middle" x="370.5" y="-175.5" font-family="Helvetica,sans-Serif" font-size="10.00">imageblock.h</text>
</a>
</g>
</g>
<!-- Node3&#45;&gt;Node9 -->
<g id="edge9" class="edge"><title>Node3&#45;&gt;Node9</title>
<path fill="none" stroke="midnightblue" d="M286.625,-220.553C307.053,-210.433 335.331,-196.423 353.27,-187.536"/>
<polygon fill="midnightblue" stroke="midnightblue" points="284.99,-217.457 277.583,-225.032 288.098,-223.729 284.99,-217.457"/>
</g>
<!-- Node3&#45;&gt;Node10 -->
<g id="edge16" class="edge"><title>Node3&#45;&gt;Node10</title>
<path fill="none" stroke="midnightblue" d="M268.864,-214.998C278.683,-190.997 295.672,-149.468 302.985,-131.591"/>
<polygon fill="midnightblue" stroke="midnightblue" points="265.578,-213.788 265.031,-224.368 272.057,-216.438 265.578,-213.788"/>
</g>
<!-- Node15 -->
<g id="node15" class="node"><title>Node15</title>
<g id="a_node15"><a xlink:href="io_8cpp.html" target="_top" xlink:title="io.cpp">
<polygon fill="white" stroke="black" points="196,-168.5 196,-187.5 239,-187.5 239,-168.5 196,-168.5"/>
<text text-anchor="middle" x="217.5" y="-175.5" font-family="Helvetica,sans-Serif" font-size="10.00">io.cpp</text>
</a>
</g>
</g>
<!-- Node3&#45;&gt;Node15 -->
<g id="edge17" class="edge"><title>Node3&#45;&gt;Node15</title>
<path fill="none" stroke="midnightblue" d="M247.765,-216.144C240.099,-206.736 230.867,-195.405 224.631,-187.751"/>
<polygon fill="midnightblue" stroke="midnightblue" points="245.204,-218.541 254.234,-224.083 250.631,-214.12 245.204,-218.541"/>
</g>
<!-- Node5 -->
<g id="node5" class="node"><title>Node5</title>
<g id="a_node5"><a xlink:href="hoovercalculator_8h.html" target="_top" xlink:title="hoovercalculator.h">
<polygon fill="white" stroke="black" points="115.5,-56.5 115.5,-75.5 211.5,-75.5 211.5,-56.5 115.5,-56.5"/>
<text text-anchor="middle" x="163.5" y="-63.5" font-family="Helvetica,sans-Serif" font-size="10.00">hoovercalculator.h</text>
</a>
</g>
</g>
<!-- Node4&#45;&gt;Node5 -->
<g id="edge4" class="edge"><title>Node4&#45;&gt;Node5</title>
<path fill="none" stroke="midnightblue" d="M163.5,-101.805C163.5,-92.9102 163.5,-82.7798 163.5,-75.7511"/>
<polygon fill="midnightblue" stroke="midnightblue" points="160,-102.083 163.5,-112.083 167,-102.083 160,-102.083"/>
</g>
<!-- Node7 -->
<g id="node7" class="node"><title>Node7</title>
<g id="a_node7"><a xlink:href="mainwindow_8cpp.html" target="_top" xlink:title="mainwindow.cpp">
<polygon fill="white" stroke="black" points="195,-0.5 195,-19.5 284,-19.5 284,-0.5 195,-0.5"/>
<text text-anchor="middle" x="239.5" y="-7.5" font-family="Helvetica,sans-Serif" font-size="10.00">mainwindow.cpp</text>
</a>
</g>
</g>
<!-- Node4&#45;&gt;Node7 -->
<g id="edge8" class="edge"><title>Node4&#45;&gt;Node7</title>
<path fill="none" stroke="midnightblue" d="M187.749,-106.847C199.171,-99.0628 212.099,-88.4538 220.5,-76 232.466,-58.261 237.021,-32.8915 238.655,-19.707"/>
<polygon fill="midnightblue" stroke="midnightblue" points="185.539,-104.107 179.028,-112.465 189.33,-109.992 185.539,-104.107"/>
</g>
<!-- Node8 -->
<g id="node8" class="node"><title>Node8</title>
<g id="a_node8"><a xlink:href="hoovermetrics_8cpp.html" target="_top" xlink:title="hoovermetrics.cpp">
<polygon fill="white" stroke="black" points="0,-56.5 0,-75.5 97,-75.5 97,-56.5 0,-56.5"/>
<text text-anchor="middle" x="48.5" y="-63.5" font-family="Helvetica,sans-Serif" font-size="10.00">hoovermetrics.cpp</text>
</a>
</g>
</g>
<!-- Node4&#45;&gt;Node8 -->
<g id="edge7" class="edge"><title>Node4&#45;&gt;Node8</title>
<path fill="none" stroke="midnightblue" d="M136.019,-108.096C114.534,-98.0073 85.2781,-84.2697 66.6368,-75.5164"/>
<polygon fill="midnightblue" stroke="midnightblue" points="134.738,-111.361 145.278,-112.444 137.714,-105.025 134.738,-111.361"/>
</g>
<!-- Node6 -->
<g id="node6" class="node"><title>Node6</title>
<g id="a_node6"><a xlink:href="hoovercalculator_8cpp.html" target="_top" xlink:title="hoovercalculator.cpp">
<polygon fill="white" stroke="black" points="70,-0.5 70,-19.5 177,-19.5 177,-0.5 70,-0.5"/>
<text text-anchor="middle" x="123.5" y="-7.5" font-family="Helvetica,sans-Serif" font-size="10.00">hoovercalculator.cpp</text>
</a>
</g>
</g>
<!-- Node5&#45;&gt;Node6 -->
<g id="edge5" class="edge"><title>Node5&#45;&gt;Node6</title>
<path fill="none" stroke="midnightblue" d="M150.8,-47.8554C143.874,-38.5048 135.594,-27.3265 129.982,-19.7511"/>
<polygon fill="midnightblue" stroke="midnightblue" points="148.13,-50.1307 156.895,-56.083 153.755,-45.9641 148.13,-50.1307"/>
</g>
<!-- Node5&#45;&gt;Node7 -->
<g id="edge6" class="edge"><title>Node5&#45;&gt;Node7</title>
<path fill="none" stroke="midnightblue" d="M184.076,-50.3804C197.812,-40.6204 215.425,-28.1057 227.067,-19.8339"/>
<polygon fill="midnightblue" stroke="midnightblue" points="181.835,-47.6787 175.711,-56.324 185.89,-53.385 181.835,-47.6787"/>
</g>
<!-- Node9&#45;&gt;Node10 -->
<g id="edge10" class="edge"><title>Node9&#45;&gt;Node10</title>
<path fill="none" stroke="midnightblue" d="M352.509,-161.82C341.042,-152.145 326.587,-139.948 316.97,-131.834"/>
<polygon fill="midnightblue" stroke="midnightblue" points="350.317,-164.55 360.217,-168.324 354.831,-159.2 350.317,-164.55"/>
</g>
<!-- Node14 -->
<g id="node14" class="node"><title>Node14</title>
<g id="a_node14"><a xlink:href="imageblock_8cpp.html" target="_top" xlink:title="imageblock.cpp">
<polygon fill="white" stroke="black" points="350,-112.5 350,-131.5 435,-131.5 435,-112.5 350,-112.5"/>
<text text-anchor="middle" x="392.5" y="-119.5" font-family="Helvetica,sans-Serif" font-size="10.00">imageblock.cpp</text>
</a>
</g>
</g>
<!-- Node9&#45;&gt;Node14 -->
<g id="edge15" class="edge"><title>Node9&#45;&gt;Node14</title>
<path fill="none" stroke="midnightblue" d="M377.96,-158.69C381.667,-149.589 385.976,-139.014 388.935,-131.751"/>
<polygon fill="midnightblue" stroke="midnightblue" points="374.665,-157.502 374.133,-168.083 381.147,-160.143 374.665,-157.502"/>
</g>
<!-- Node10&#45;&gt;Node11 -->
<g id="edge11" class="edge"><title>Node10&#45;&gt;Node11</title>
<path fill="none" stroke="midnightblue" d="M340.832,-109.039C369.997,-98.8786 411.137,-84.5457 437.055,-75.5164"/>
<polygon fill="midnightblue" stroke="midnightblue" points="339.352,-105.848 331.06,-112.444 341.655,-112.459 339.352,-105.848"/>
</g>
<!-- Node12 -->
<g id="node12" class="node"><title>Node12</title>
<g id="a_node12"><a xlink:href="mainwindow_8h.html" target="_top" xlink:title="mainwindow.h">
<polygon fill="white" stroke="black" points="268,-56.5 268,-75.5 347,-75.5 347,-56.5 268,-56.5"/>
<text text-anchor="middle" x="307.5" y="-63.5" font-family="Helvetica,sans-Serif" font-size="10.00">mainwindow.h</text>
</a>
</g>
</g>
<!-- Node10&#45;&gt;Node12 -->
<g id="edge12" class="edge"><title>Node10&#45;&gt;Node12</title>
<path fill="none" stroke="midnightblue" d="M306.855,-101.805C307.02,-92.9102 307.208,-82.7798 307.338,-75.7511"/>
<polygon fill="midnightblue" stroke="midnightblue" points="303.351,-102.02 306.665,-112.083 310.35,-102.15 303.351,-102.02"/>
</g>
<!-- Node12&#45;&gt;Node7 -->
<g id="edge14" class="edge"><title>Node12&#45;&gt;Node7</title>
<path fill="none" stroke="midnightblue" d="M288.738,-50.1008C276.5,-40.3824 260.941,-28.0269 250.624,-19.8339"/>
<polygon fill="midnightblue" stroke="midnightblue" points="286.567,-52.846 296.575,-56.324 290.92,-47.3642 286.567,-52.846"/>
</g>
<!-- Node13 -->
<g id="node13" class="node"><title>Node13</title>
<g id="a_node13"><a xlink:href="main_8cpp.html" target="_top" xlink:title="main.cpp">
<polygon fill="white" stroke="black" points="302.5,-0.5 302.5,-19.5 358.5,-19.5 358.5,-0.5 302.5,-0.5"/>
<text text-anchor="middle" x="330.5" y="-7.5" font-family="Helvetica,sans-Serif" font-size="10.00">main.cpp</text>
</a>
</g>
</g>
<!-- Node12&#45;&gt;Node13 -->
<g id="edge13" class="edge"><title>Node12&#45;&gt;Node13</title>
<path fill="none" stroke="midnightblue" d="M315.299,-46.6897C319.175,-37.589 323.679,-27.0141 326.773,-19.7511"/>
<polygon fill="midnightblue" stroke="midnightblue" points="311.997,-45.5112 311.298,-56.083 318.437,-48.2543 311.997,-45.5112"/>
</g>
<!-- Node16&#45;&gt;Node9 -->
<g id="edge19" class="edge"><title>Node16&#45;&gt;Node9</title>
<path fill="none" stroke="midnightblue" d="M370.5,-213.805C370.5,-204.91 370.5,-194.78 370.5,-187.751"/>
<polygon fill="midnightblue" stroke="midnightblue" points="367,-214.083 370.5,-224.083 374,-214.083 367,-214.083"/>
</g>
<!-- Node17 -->
<g id="node17" class="node"><title>Node17</title>
<g id="a_node17"><a xlink:href="initializer_8cpp.html" target="_top" xlink:title="initializer.cpp">
<polygon fill="white" stroke="black" points="425.5,-168.5 425.5,-187.5 499.5,-187.5 499.5,-168.5 425.5,-168.5"/>
<text text-anchor="middle" x="462.5" y="-175.5" font-family="Helvetica,sans-Serif" font-size="10.00">initializer.cpp</text>
</a>
</g>
</g>
<!-- Node16&#45;&gt;Node17 -->
<g id="edge20" class="edge"><title>Node16&#45;&gt;Node17</title>
<path fill="none" stroke="midnightblue" d="M394.05,-219.177C410.979,-209.241 433.283,-196.149 447.755,-187.655"/>
<polygon fill="midnightblue" stroke="midnightblue" points="392.134,-216.243 385.281,-224.324 395.677,-222.28 392.134,-216.243"/>
</g>
</g>
</svg>
