<?xml version="1.0" encoding="UTF-8" standalone="no"?>
<!DOCTYPE svg PUBLIC "-//W3C//DTD SVG 1.1//EN"
 "http://www.w3.org/Graphics/SVG/1.1/DTD/svg11.dtd">
<!-- Generated by graphviz version 2.38.0 (20140413.2041)
 -->
<!-- Title: edgeheap.cpp Pages: 1 -->
<svg width="631pt" height="196pt"
 viewBox="0.00 0.00 631.33 196.00" xmlns="http://www.w3.org/2000/svg" xmlns:xlink="http://www.w3.org/1999/xlink">
<g id="graph0" class="graph" transform="scale(1 1) rotate(0) translate(4 192)">
<title>edgeheap.cpp</title>
<polygon fill="white" stroke="none" points="-4,4 -4,-192 627.331,-192 627.331,4 -4,4"/>
<!-- Node1 -->
<g id="node1" class="node"><title>Node1</title>
<polygon fill="#bfbfbf" stroke="black" points="70.3306,-168.5 70.3306,-187.5 147.331,-187.5 147.331,-168.5 70.3306,-168.5"/>
<text text-anchor="middle" x="108.831" y="-175.5" font-family="Helvetica,sans-Serif" font-size="10.00">edgeheap.cpp</text>
</g>
<!-- Node2 -->
<g id="node2" class="node"><title>Node2</title>
<polygon fill="white" stroke="#bfbfbf" points="2.83056,-112.5 2.83056,-131.5 56.8306,-131.5 56.8306,-112.5 2.83056,-112.5"/>
<text text-anchor="middle" x="29.8306" y="-119.5" font-family="Helvetica,sans-Serif" font-size="10.00">iostream</text>
</g>
<!-- Node1&#45;&gt;Node2 -->
<g id="edge1" class="edge"><title>Node1&#45;&gt;Node2</title>
<path fill="none" stroke="midnightblue" d="M96.1378,-168.324C83.9294,-159.979 65.2521,-147.212 50.8276,-137.352"/>
<polygon fill="midnightblue" stroke="midnightblue" points="52.7225,-134.408 42.4918,-131.655 48.7723,-140.187 52.7225,-134.408"/>
</g>
<!-- Node3 -->
<g id="node3" class="node"><title>Node3</title>
<g id="a_node3"><a xlink:href="edgeheap_8h.html" target="_top" xlink:title="edgeheap.h">
<polygon fill="white" stroke="black" points="75.3306,-112.5 75.3306,-131.5 142.331,-131.5 142.331,-112.5 75.3306,-112.5"/>
<text text-anchor="middle" x="108.831" y="-119.5" font-family="Helvetica,sans-Serif" font-size="10.00">edgeheap.h</text>
</a>
</g>
</g>
<!-- Node1&#45;&gt;Node3 -->
<g id="edge2" class="edge"><title>Node1&#45;&gt;Node3</title>
<path fill="none" stroke="midnightblue" d="M108.831,-168.083C108.831,-161.006 108.831,-150.861 108.831,-141.986"/>
<polygon fill="midnightblue" stroke="midnightblue" points="112.331,-141.751 108.831,-131.751 105.331,-141.751 112.331,-141.751"/>
</g>
<!-- Node8 -->
<g id="node8" class="node"><title>Node8</title>
<g id="a_node8"><a xlink:href="node_8h.html" target="_top" xlink:title="node.h">
<polygon fill="white" stroke="black" points="283.831,-112.5 283.831,-131.5 329.831,-131.5 329.831,-112.5 283.831,-112.5"/>
<text text-anchor="middle" x="306.831" y="-119.5" font-family="Helvetica,sans-Serif" font-size="10.00">node.h</text>
</a>
</g>
</g>
<!-- Node1&#45;&gt;Node8 -->
<g id="edge7" class="edge"><title>Node1&#45;&gt;Node8</title>
<path fill="none" stroke="midnightblue" d="M140.204,-168.444C176.685,-158.494 236.632,-142.145 273.804,-132.007"/>
<polygon fill="midnightblue" stroke="midnightblue" points="274.92,-135.331 283.646,-129.323 273.078,-128.578 274.92,-135.331"/>
</g>
<!-- Node4 -->
<g id="node4" class="node"><title>Node4</title>
<polygon fill="white" stroke="#bfbfbf" points="206.831,-0.5 206.831,-19.5 250.831,-19.5 250.831,-0.5 206.831,-0.5"/>
<text text-anchor="middle" x="228.831" y="-7.5" font-family="Helvetica,sans-Serif" font-size="10.00">vector</text>
</g>
<!-- Node3&#45;&gt;Node4 -->
<g id="edge3" class="edge"><title>Node3&#45;&gt;Node4</title>
<path fill="none" stroke="midnightblue" d="M75.0661,-113.602C36.895,-103.698 -17.136,-84.064 5.83056,-56 29.5645,-26.9982 140.651,-16.2659 196.542,-12.6539"/>
<polygon fill="midnightblue" stroke="midnightblue" points="196.853,-16.1416 206.622,-12.0413 196.428,-9.15448 196.853,-16.1416"/>
</g>
<!-- Node5 -->
<g id="node5" class="node"><title>Node5</title>
<g id="a_node5"><a xlink:href="edge_8h.html" target="_top" xlink:title="edge.h">
<polygon fill="white" stroke="black" points="154.831,-56.5 154.831,-75.5 200.831,-75.5 200.831,-56.5 154.831,-56.5"/>
<text text-anchor="middle" x="177.831" y="-63.5" font-family="Helvetica,sans-Serif" font-size="10.00">edge.h</text>
</a>
</g>
</g>
<!-- Node3&#45;&gt;Node5 -->
<g id="edge4" class="edge"><title>Node3&#45;&gt;Node5</title>
<path fill="none" stroke="midnightblue" d="M119.917,-112.324C130.317,-104.185 146.091,-91.8395 158.552,-82.0874"/>
<polygon fill="midnightblue" stroke="midnightblue" points="160.825,-84.7533 166.543,-75.8339 156.511,-79.2407 160.825,-84.7533"/>
</g>
<!-- Node6 -->
<g id="node6" class="node"><title>Node6</title>
<polygon fill="white" stroke="#bfbfbf" points="15.3306,-56.5 15.3306,-75.5 62.3306,-75.5 62.3306,-56.5 15.3306,-56.5"/>
<text text-anchor="middle" x="38.8306" y="-63.5" font-family="Helvetica,sans-Serif" font-size="10.00">math.h</text>
</g>
<!-- Node3&#45;&gt;Node6 -->
<g id="edge5" class="edge"><title>Node3&#45;&gt;Node6</title>
<path fill="none" stroke="midnightblue" d="M97.5838,-112.324C87.0332,-104.185 71.0299,-91.8395 58.3884,-82.0874"/>
<polygon fill="midnightblue" stroke="midnightblue" points="60.3376,-79.1707 50.2819,-75.8339 56.0619,-84.7132 60.3376,-79.1707"/>
</g>
<!-- Node7 -->
<g id="node7" class="node"><title>Node7</title>
<polygon fill="white" stroke="#bfbfbf" points="80.8306,-56.5 80.8306,-75.5 136.831,-75.5 136.831,-56.5 80.8306,-56.5"/>
<text text-anchor="middle" x="108.831" y="-63.5" font-family="Helvetica,sans-Serif" font-size="10.00">algorithm</text>
</g>
<!-- Node3&#45;&gt;Node7 -->
<g id="edge6" class="edge"><title>Node3&#45;&gt;Node7</title>
<path fill="none" stroke="midnightblue" d="M108.831,-112.083C108.831,-105.006 108.831,-94.8611 108.831,-85.9865"/>
<polygon fill="midnightblue" stroke="midnightblue" points="112.331,-85.751 108.831,-75.7511 105.331,-85.7511 112.331,-85.751"/>
</g>
<!-- Node8&#45;&gt;Node4 -->
<g id="edge8" class="edge"><title>Node8&#45;&gt;Node4</title>
<path fill="none" stroke="midnightblue" d="M290.488,-112.437C277.146,-104.641 258.77,-91.9288 247.831,-76 238.367,-62.2199 233.554,-43.6954 231.146,-29.9477"/>
<polygon fill="midnightblue" stroke="midnightblue" points="234.561,-29.1144 229.639,-19.7323 227.636,-30.136 234.561,-29.1144"/>
</g>
<!-- Node8&#45;&gt;Node5 -->
<g id="edge15" class="edge"><title>Node8&#45;&gt;Node5</title>
<path fill="none" stroke="midnightblue" d="M286.39,-112.444C265.16,-103.557 231.732,-89.5632 207.576,-79.4514"/>
<polygon fill="midnightblue" stroke="midnightblue" points="208.751,-76.1493 198.175,-75.5164 206.048,-82.6064 208.751,-76.1493"/>
</g>
<!-- Node9 -->
<g id="node9" class="node"><title>Node9</title>
<polygon fill="white" stroke="#bfbfbf" points="257.331,-56.5 257.331,-75.5 296.331,-75.5 296.331,-56.5 257.331,-56.5"/>
<text text-anchor="middle" x="276.831" y="-63.5" font-family="Helvetica,sans-Serif" font-size="10.00">QSet</text>
</g>
<!-- Node8&#45;&gt;Node9 -->
<g id="edge9" class="edge"><title>Node8&#45;&gt;Node9</title>
<path fill="none" stroke="midnightblue" d="M301.877,-112.083C297.727,-104.613 291.677,-93.7244 286.564,-84.5199"/>
<polygon fill="midnightblue" stroke="midnightblue" points="289.608,-82.7929 281.692,-75.7511 283.489,-86.1924 289.608,-82.7929"/>
</g>
<!-- Node10 -->
<g id="node10" class="node"><title>Node10</title>
<polygon fill="white" stroke="#bfbfbf" points="314.331,-56.5 314.331,-75.5 357.331,-75.5 357.331,-56.5 314.331,-56.5"/>
<text text-anchor="middle" x="335.831" y="-63.5" font-family="Helvetica,sans-Serif" font-size="10.00">gdal.h</text>
</g>
<!-- Node8&#45;&gt;Node10 -->
<g id="edge10" class="edge"><title>Node8&#45;&gt;Node10</title>
<path fill="none" stroke="midnightblue" d="M311.619,-112.083C315.589,-104.691 321.356,-93.9533 326.265,-84.8111"/>
<polygon fill="midnightblue" stroke="midnightblue" points="329.483,-86.217 331.131,-75.7511 323.316,-82.9051 329.483,-86.217"/>
</g>
<!-- Node11 -->
<g id="node11" class="node"><title>Node11</title>
<polygon fill="white" stroke="#bfbfbf" points="375.831,-56.5 375.831,-75.5 439.831,-75.5 439.831,-56.5 375.831,-56.5"/>
<text text-anchor="middle" x="407.831" y="-63.5" font-family="Helvetica,sans-Serif" font-size="10.00">gdal_priv.h</text>
</g>
<!-- Node8&#45;&gt;Node11 -->
<g id="edge11" class="edge"><title>Node8&#45;&gt;Node11</title>
<path fill="none" stroke="midnightblue" d="M323.058,-112.324C339.182,-103.703 364.131,-90.3643 382.795,-80.3855"/>
<polygon fill="midnightblue" stroke="midnightblue" points="384.475,-83.456 391.643,-75.6545 381.174,-77.283 384.475,-83.456"/>
</g>
<!-- Node12 -->
<g id="node12" class="node"><title>Node12</title>
<polygon fill="white" stroke="#bfbfbf" points="457.831,-56.5 457.831,-75.5 527.831,-75.5 527.831,-56.5 457.831,-56.5"/>
<text text-anchor="middle" x="492.831" y="-63.5" font-family="Helvetica,sans-Serif" font-size="10.00">opencv/cv.h</text>
</g>
<!-- Node8&#45;&gt;Node12 -->
<g id="edge12" class="edge"><title>Node8&#45;&gt;Node12</title>
<path fill="none" stroke="midnightblue" d="M330.012,-114.27C360.9,-105.303 416.003,-89.3048 453.465,-78.4286"/>
<polygon fill="midnightblue" stroke="midnightblue" points="454.901,-81.6563 463.529,-75.5069 452.95,-74.9339 454.901,-81.6563"/>
</g>
<!-- Node13 -->
<g id="node13" class="node"><title>Node13</title>
<g id="a_node13"><a xlink:href="region_model_8h.html" target="_top" xlink:title="regionModel.h">
<polygon fill="white" stroke="black" points="546.331,-56.5 546.331,-75.5 623.331,-75.5 623.331,-56.5 546.331,-56.5"/>
<text text-anchor="middle" x="584.831" y="-63.5" font-family="Helvetica,sans-Serif" font-size="10.00">regionModel.h</text>
</a>
</g>
</g>
<!-- Node8&#45;&gt;Node13 -->
<g id="edge13" class="edge"><title>Node8&#45;&gt;Node13</title>
<path fill="none" stroke="midnightblue" d="M330.055,-116.489C375.204,-107.719 475.675,-88.2029 536.083,-76.469"/>
<polygon fill="midnightblue" stroke="midnightblue" points="536.997,-79.8569 546.146,-74.5142 535.662,-72.9853 536.997,-79.8569"/>
</g>
<!-- Node13&#45;&gt;Node4 -->
<g id="edge14" class="edge"><title>Node13&#45;&gt;Node4</title>
<path fill="none" stroke="midnightblue" d="M546.082,-57.5961C542.954,-57.0408 539.841,-56.502 536.831,-56 436.427,-39.2594 317.03,-22.7918 260.946,-15.2584"/>
<polygon fill="midnightblue" stroke="midnightblue" points="261.289,-11.7732 250.913,-13.9155 260.36,-18.7113 261.289,-11.7732"/>
</g>
</g>
</svg>
