<?xml version="1.0" encoding="UTF-8" standalone="no"?>
<!DOCTYPE svg PUBLIC "-//W3C//DTD SVG 1.1//EN"
 "http://www.w3.org/Graphics/SVG/1.1/DTD/svg11.dtd">
<!-- Generated by graphviz version 2.38.0 (20140413.2041)
 -->
<!-- Title: edge.cpp Pages: 1 -->
<svg width="477pt" height="196pt"
 viewBox="0.00 0.00 476.50 196.00" xmlns="http://www.w3.org/2000/svg" xmlns:xlink="http://www.w3.org/1999/xlink">
<g id="graph0" class="graph" transform="scale(1 1) rotate(0) translate(4 192)">
<title>edge.cpp</title>
<polygon fill="white" stroke="none" points="-4,4 -4,-192 472.5,-192 472.5,4 -4,4"/>
<!-- Node0 -->
<g id="node1" class="node"><title>Node0</title>
<polygon fill="#bfbfbf" stroke="black" points="85,-168.5 85,-187.5 141,-187.5 141,-168.5 85,-168.5"/>
<text text-anchor="middle" x="113" y="-175.5" font-family="Helvetica,sans-Serif" font-size="10.00">edge.cpp</text>
</g>
<!-- Node1 -->
<g id="node2" class="node"><title>Node1</title>
<g id="a_node2"><a xlink:href="edge_8h.html" target="_top" xlink:title="edge.h">
<polygon fill="white" stroke="black" points="0,-56.5 0,-75.5 46,-75.5 46,-56.5 0,-56.5"/>
<text text-anchor="middle" x="23" y="-63.5" font-family="Helvetica,sans-Serif" font-size="10.00">edge.h</text>
</a>
</g>
</g>
<!-- Node0&#45;&gt;Node1 -->
<g id="edge1" class="edge"><title>Node0&#45;&gt;Node1</title>
<path fill="none" stroke="midnightblue" d="M105.938,-168.368C90.9538,-150.055 55.7673,-107.049 36.3874,-83.3624"/>
<polygon fill="midnightblue" stroke="midnightblue" points="39.0706,-81.1147 30.0293,-75.5914 33.6529,-85.5474 39.0706,-81.1147"/>
</g>
<!-- Node2 -->
<g id="node3" class="node"><title>Node2</title>
<g id="a_node3"><a xlink:href="node_8h.html" target="_top" xlink:title="node.h">
<polygon fill="white" stroke="black" points="128,-112.5 128,-131.5 174,-131.5 174,-112.5 128,-112.5"/>
<text text-anchor="middle" x="151" y="-119.5" font-family="Helvetica,sans-Serif" font-size="10.00">node.h</text>
</a>
</g>
</g>
<!-- Node0&#45;&gt;Node2 -->
<g id="edge2" class="edge"><title>Node0&#45;&gt;Node2</title>
<path fill="none" stroke="midnightblue" d="M119.275,-168.083C124.642,-160.455 132.518,-149.264 139.079,-139.941"/>
<polygon fill="midnightblue" stroke="midnightblue" points="141.949,-141.943 144.842,-131.751 136.225,-137.915 141.949,-141.943"/>
</g>
<!-- Node2&#45;&gt;Node1 -->
<g id="edge10" class="edge"><title>Node2&#45;&gt;Node1</title>
<path fill="none" stroke="midnightblue" d="M130.718,-112.444C109.653,-103.557 76.4832,-89.5632 52.5145,-79.4514"/>
<polygon fill="midnightblue" stroke="midnightblue" points="53.7612,-76.1787 43.1871,-75.5164 51.0403,-82.6283 53.7612,-76.1787"/>
</g>
<!-- Node3 -->
<g id="node4" class="node"><title>Node3</title>
<polygon fill="white" stroke="#bfbfbf" points="230,-0.5 230,-19.5 274,-19.5 274,-0.5 230,-0.5"/>
<text text-anchor="middle" x="252" y="-7.5" font-family="Helvetica,sans-Serif" font-size="10.00">vector</text>
</g>
<!-- Node2&#45;&gt;Node3 -->
<g id="edge3" class="edge"><title>Node2&#45;&gt;Node3</title>
<path fill="none" stroke="midnightblue" d="M133.226,-112.35C110.761,-100.251 76.8528,-77.3514 93,-56 108.275,-35.8023 178.096,-22.0615 219.968,-15.4773"/>
<polygon fill="midnightblue" stroke="midnightblue" points="220.601,-18.9214 229.961,-13.9579 219.549,-12.0009 220.601,-18.9214"/>
</g>
<!-- Node4 -->
<g id="node5" class="node"><title>Node4</title>
<polygon fill="white" stroke="#bfbfbf" points="102.5,-56.5 102.5,-75.5 141.5,-75.5 141.5,-56.5 102.5,-56.5"/>
<text text-anchor="middle" x="122" y="-63.5" font-family="Helvetica,sans-Serif" font-size="10.00">QSet</text>
</g>
<!-- Node2&#45;&gt;Node4 -->
<g id="edge4" class="edge"><title>Node2&#45;&gt;Node4</title>
<path fill="none" stroke="midnightblue" d="M146.211,-112.083C142.242,-104.691 136.475,-93.9533 131.565,-84.8111"/>
<polygon fill="midnightblue" stroke="midnightblue" points="134.514,-82.9051 126.7,-75.7511 128.347,-86.217 134.514,-82.9051"/>
</g>
<!-- Node5 -->
<g id="node6" class="node"><title>Node5</title>
<polygon fill="white" stroke="#bfbfbf" points="159.5,-56.5 159.5,-75.5 202.5,-75.5 202.5,-56.5 159.5,-56.5"/>
<text text-anchor="middle" x="181" y="-63.5" font-family="Helvetica,sans-Serif" font-size="10.00">gdal.h</text>
</g>
<!-- Node2&#45;&gt;Node5 -->
<g id="edge5" class="edge"><title>Node2&#45;&gt;Node5</title>
<path fill="none" stroke="midnightblue" d="M155.954,-112.083C160.104,-104.613 166.153,-93.7244 171.267,-84.5199"/>
<polygon fill="midnightblue" stroke="midnightblue" points="174.341,-86.1924 176.138,-75.7511 168.222,-82.7929 174.341,-86.1924"/>
</g>
<!-- Node6 -->
<g id="node7" class="node"><title>Node6</title>
<polygon fill="white" stroke="#bfbfbf" points="221,-56.5 221,-75.5 285,-75.5 285,-56.5 221,-56.5"/>
<text text-anchor="middle" x="253" y="-63.5" font-family="Helvetica,sans-Serif" font-size="10.00">gdal_priv.h</text>
</g>
<!-- Node2&#45;&gt;Node6 -->
<g id="edge6" class="edge"><title>Node2&#45;&gt;Node6</title>
<path fill="none" stroke="midnightblue" d="M167.388,-112.324C183.671,-103.703 208.867,-90.3643 227.716,-80.3855"/>
<polygon fill="midnightblue" stroke="midnightblue" points="229.452,-83.4267 236.653,-75.6545 226.177,-77.2402 229.452,-83.4267"/>
</g>
<!-- Node7 -->
<g id="node8" class="node"><title>Node7</title>
<polygon fill="white" stroke="#bfbfbf" points="303,-56.5 303,-75.5 373,-75.5 373,-56.5 303,-56.5"/>
<text text-anchor="middle" x="338" y="-63.5" font-family="Helvetica,sans-Serif" font-size="10.00">opencv/cv.h</text>
</g>
<!-- Node2&#45;&gt;Node7 -->
<g id="edge7" class="edge"><title>Node2&#45;&gt;Node7</title>
<path fill="none" stroke="midnightblue" d="M174.306,-114.27C205.493,-105.264 261.233,-89.1679 298.905,-78.2895"/>
<polygon fill="midnightblue" stroke="midnightblue" points="299.905,-81.6439 308.541,-75.5069 297.962,-74.9187 299.905,-81.6439"/>
</g>
<!-- Node8 -->
<g id="node9" class="node"><title>Node8</title>
<g id="a_node9"><a xlink:href="region_model_8h.html" target="_top" xlink:title="regionModel.h">
<polygon fill="white" stroke="black" points="391.5,-56.5 391.5,-75.5 468.5,-75.5 468.5,-56.5 391.5,-56.5"/>
<text text-anchor="middle" x="430" y="-63.5" font-family="Helvetica,sans-Serif" font-size="10.00">regionModel.h</text>
</a>
</g>
</g>
<!-- Node2&#45;&gt;Node8 -->
<g id="edge8" class="edge"><title>Node2&#45;&gt;Node8</title>
<path fill="none" stroke="midnightblue" d="M174.308,-116.489C219.62,-107.719 320.452,-88.2029 381.077,-76.469"/>
<polygon fill="midnightblue" stroke="midnightblue" points="382.024,-79.8508 391.176,-74.5142 380.694,-72.9783 382.024,-79.8508"/>
</g>
<!-- Node8&#45;&gt;Node3 -->
<g id="edge9" class="edge"><title>Node8&#45;&gt;Node3</title>
<path fill="none" stroke="midnightblue" d="M401.795,-56.4435C369.724,-46.7141 317.478,-30.8642 283.935,-20.688"/>
<polygon fill="midnightblue" stroke="midnightblue" points="284.753,-17.2789 274.168,-17.7251 282.721,-23.9775 284.753,-17.2789"/>
</g>
</g>
</svg>
