<?xml version="1.0" encoding="UTF-8" standalone="no"?>
<!DOCTYPE svg PUBLIC "-//W3C//DTD SVG 1.1//EN"
 "http://www.w3.org/Graphics/SVG/1.1/DTD/svg11.dtd">
<!-- Generated by graphviz version 2.38.0 (20140413.2041)
 -->
<!-- Title: hooverCompare Pages: 1 -->
<svg width="400pt" height="256pt"
 viewBox="0.00 0.00 400.00 256.00" xmlns="http://www.w3.org/2000/svg" xmlns:xlink="http://www.w3.org/1999/xlink">
<g id="graph0" class="graph" transform="scale(1 1) rotate(0) translate(4 252)">
<title>hooverCompare</title>
<polygon fill="white" stroke="none" points="-4,4 -4,-252 396,-252 396,4 -4,4"/>
<!-- Node1 -->
<g id="node1" class="node"><title>Node1</title>
<polygon fill="#bfbfbf" stroke="black" points="0,-114.5 0,-133.5 86,-133.5 86,-114.5 0,-114.5"/>
<text text-anchor="middle" x="43" y="-121.5" font-family="Helvetica,sans-Serif" font-size="10.00">hooverCompare</text>
</g>
<!-- Node2 -->
<g id="node2" class="node"><title>Node2</title>
<g id="a_node2"><a xlink:href="hoovermetrics_8cpp.html#a980ac1cda29aeb356b73c655e29800df" target="_top" xlink:title="computerHooverMetrics">
<polygon fill="white" stroke="black" points="122,-228.5 122,-247.5 243,-247.5 243,-228.5 122,-228.5"/>
<text text-anchor="middle" x="182.5" y="-235.5" font-family="Helvetica,sans-Serif" font-size="10.00">computerHooverMetrics</text>
</a>
</g>
</g>
<!-- Node1&#45;&gt;Node2 -->
<g id="edge1" class="edge"><title>Node1&#45;&gt;Node2</title>
<path fill="none" stroke="midnightblue" d="M49.3103,-133.631C60.3336,-152.744 87.5667,-195.633 122,-219 124.915,-220.978 128.048,-222.76 131.297,-224.364"/>
<polygon fill="midnightblue" stroke="midnightblue" points="130.108,-227.663 140.676,-228.427 132.891,-221.24 130.108,-227.663"/>
</g>
<!-- Node3 -->
<g id="node3" class="node"><title>Node3</title>
<g id="a_node3"><a xlink:href="hoovermetrics_8cpp.html#a857391ba4daaa9af3bacfbdc957611fa" target="_top" xlink:title="computeTable">
<polygon fill="white" stroke="black" points="143.5,-190.5 143.5,-209.5 221.5,-209.5 221.5,-190.5 143.5,-190.5"/>
<text text-anchor="middle" x="182.5" y="-197.5" font-family="Helvetica,sans-Serif" font-size="10.00">computeTable</text>
</a>
</g>
</g>
<!-- Node1&#45;&gt;Node3 -->
<g id="edge2" class="edge"><title>Node1&#45;&gt;Node3</title>
<path fill="none" stroke="midnightblue" d="M54.6258,-133.515C68.9915,-145.951 95.8325,-167.705 122,-181 126.305,-183.187 130.913,-185.189 135.588,-187.002"/>
<polygon fill="midnightblue" stroke="midnightblue" points="134.608,-190.369 145.202,-190.461 136.977,-183.783 134.608,-190.369"/>
</g>
<!-- Node4 -->
<g id="node4" class="node"><title>Node4</title>
<g id="a_node4"><a xlink:href="hoovermetrics_8cpp.html#a078de0e3a5a60fd22985db580ed1444c" target="_top" xlink:title="LoadImage">
<polygon fill="white" stroke="black" points="150,-152.5 150,-171.5 215,-171.5 215,-152.5 150,-152.5"/>
<text text-anchor="middle" x="182.5" y="-159.5" font-family="Helvetica,sans-Serif" font-size="10.00">LoadImage</text>
</a>
</g>
</g>
<!-- Node1&#45;&gt;Node4 -->
<g id="edge3" class="edge"><title>Node1&#45;&gt;Node4</title>
<path fill="none" stroke="midnightblue" d="M78.6971,-133.589C97.26,-138.719 120.254,-145.074 139.785,-150.472"/>
<polygon fill="midnightblue" stroke="midnightblue" points="139.071,-153.905 149.642,-153.195 140.935,-147.158 139.071,-153.905"/>
</g>
<!-- Node5 -->
<g id="node5" class="node"><title>Node5</title>
<g id="a_node5"><a xlink:href="hoovermetrics_8cpp.html#a7f145140df94d625254d8cdd1f06fab2" target="_top" xlink:title="paintHoover">
<polygon fill="white" stroke="black" points="148,-114.5 148,-133.5 217,-133.5 217,-114.5 148,-114.5"/>
<text text-anchor="middle" x="182.5" y="-121.5" font-family="Helvetica,sans-Serif" font-size="10.00">paintHoover</text>
</a>
</g>
</g>
<!-- Node1&#45;&gt;Node5 -->
<g id="edge4" class="edge"><title>Node1&#45;&gt;Node5</title>
<path fill="none" stroke="midnightblue" d="M86.0017,-124C102.198,-124 120.741,-124 137.152,-124"/>
<polygon fill="midnightblue" stroke="midnightblue" points="137.583,-127.5 147.583,-124 137.583,-120.5 137.583,-127.5"/>
</g>
<!-- Node7 -->
<g id="node7" class="node"><title>Node7</title>
<g id="a_node7"><a xlink:href="hoovermetrics_8cpp.html#ad6241cf6cc4352d378a107a43d5f5d84" target="_top" xlink:title="pixelComparator">
<polygon fill="white" stroke="black" points="138.5,-76.5 138.5,-95.5 226.5,-95.5 226.5,-76.5 138.5,-76.5"/>
<text text-anchor="middle" x="182.5" y="-83.5" font-family="Helvetica,sans-Serif" font-size="10.00">pixelComparator</text>
</a>
</g>
</g>
<!-- Node1&#45;&gt;Node7 -->
<g id="edge6" class="edge"><title>Node1&#45;&gt;Node7</title>
<path fill="none" stroke="midnightblue" d="M78.6971,-114.411C96.3656,-109.528 118.049,-103.536 136.939,-98.315"/>
<polygon fill="midnightblue" stroke="midnightblue" points="138.108,-101.623 146.814,-95.5859 136.243,-94.8762 138.108,-101.623"/>
</g>
<!-- Node8 -->
<g id="node8" class="node"><title>Node8</title>
<g id="a_node8"><a xlink:href="hoovermetrics_8cpp.html#af90d4745151264d1f75469ac189fcf2d" target="_top" xlink:title="readLabelImage">
<polygon fill="white" stroke="black" points="139.5,-38.5 139.5,-57.5 225.5,-57.5 225.5,-38.5 139.5,-38.5"/>
<text text-anchor="middle" x="182.5" y="-45.5" font-family="Helvetica,sans-Serif" font-size="10.00">readLabelImage</text>
</a>
</g>
</g>
<!-- Node1&#45;&gt;Node8 -->
<g id="edge7" class="edge"><title>Node1&#45;&gt;Node8</title>
<path fill="none" stroke="midnightblue" d="M54.6258,-114.485C68.9915,-102.049 95.8325,-80.295 122,-67 126.305,-64.8127 130.913,-62.8115 135.588,-60.9977"/>
<polygon fill="midnightblue" stroke="midnightblue" points="136.977,-64.2174 145.202,-57.5386 134.608,-57.6307 136.977,-64.2174"/>
</g>
<!-- Node10 -->
<g id="node10" class="node"><title>Node10</title>
<g id="a_node10"><a xlink:href="hoovermetrics_8cpp.html#ae19e2f2b31293dfc906e287ea3eba3f9" target="_top" xlink:title="regionsClassification">
<polygon fill="white" stroke="black" points="129,-0.5 129,-19.5 236,-19.5 236,-0.5 129,-0.5"/>
<text text-anchor="middle" x="182.5" y="-7.5" font-family="Helvetica,sans-Serif" font-size="10.00">regionsClassification</text>
</a>
</g>
</g>
<!-- Node1&#45;&gt;Node10 -->
<g id="edge9" class="edge"><title>Node1&#45;&gt;Node10</title>
<path fill="none" stroke="midnightblue" d="M49.3103,-114.369C60.3336,-95.2561 87.5667,-52.3666 122,-29 124.915,-27.022 128.048,-25.2401 131.297,-23.6363"/>
<polygon fill="midnightblue" stroke="midnightblue" points="132.891,-26.7602 140.676,-19.5734 130.108,-20.337 132.891,-26.7602"/>
</g>
<!-- Node6 -->
<g id="node6" class="node"><title>Node6</title>
<g id="a_node6"><a xlink:href="classio.html#a193384d41fa525bc99dd3349088aab3c" target="_top" xlink:title="io::createEmptyImage">
<polygon fill="white" stroke="black" points="279,-114.5 279,-133.5 392,-133.5 392,-114.5 279,-114.5"/>
<text text-anchor="middle" x="335.5" y="-121.5" font-family="Helvetica,sans-Serif" font-size="10.00">io::createEmptyImage</text>
</a>
</g>
</g>
<!-- Node5&#45;&gt;Node6 -->
<g id="edge5" class="edge"><title>Node5&#45;&gt;Node6</title>
<path fill="none" stroke="midnightblue" d="M217.012,-124C232.192,-124 250.692,-124 268.48,-124"/>
<polygon fill="midnightblue" stroke="midnightblue" points="268.84,-127.5 278.839,-124 268.839,-120.5 268.84,-127.5"/>
</g>
<!-- Node9 -->
<g id="node9" class="node"><title>Node9</title>
<g id="a_node9"><a xlink:href="hoovermetrics_8cpp.html#aecdc0de06cc8e89da6c2743ec0c4b74a" target="_top" xlink:title="vectorComparator">
<polygon fill="white" stroke="black" points="288,-38.5 288,-57.5 383,-57.5 383,-38.5 288,-38.5"/>
<text text-anchor="middle" x="335.5" y="-45.5" font-family="Helvetica,sans-Serif" font-size="10.00">vectorComparator</text>
</a>
</g>
</g>
<!-- Node8&#45;&gt;Node9 -->
<g id="edge8" class="edge"><title>Node8&#45;&gt;Node9</title>
<path fill="none" stroke="midnightblue" d="M225.562,-48C241.756,-48 260.523,-48 277.87,-48"/>
<polygon fill="midnightblue" stroke="midnightblue" points="277.889,-51.5001 287.889,-48 277.889,-44.5001 277.889,-51.5001"/>
</g>
</g>
</svg>
