<?xml version="1.0" encoding="UTF-8" standalone="no"?>
<!DOCTYPE svg PUBLIC "-//W3C//DTD SVG 1.1//EN"
 "http://www.w3.org/Graphics/SVG/1.1/DTD/svg11.dtd">
<!-- Generated by graphviz version 2.38.0 (20140413.2041)
 -->
<!-- Title: hoovercalculator.h Pages: 1 -->
<svg width="877pt" height="420pt"
 viewBox="0.00 0.00 877.05 420.00" xmlns="http://www.w3.org/2000/svg" xmlns:xlink="http://www.w3.org/1999/xlink">
<g id="graph0" class="graph" transform="scale(1 1) rotate(0) translate(4 416)">
<title>hoovercalculator.h</title>
<polygon fill="white" stroke="none" points="-4,4 -4,-416 873.05,-416 873.05,4 -4,4"/>
<!-- Node0 -->
<g id="node1" class="node"><title>Node0</title>
<polygon fill="#bfbfbf" stroke="black" points="56,-392.5 56,-411.5 152,-411.5 152,-392.5 56,-392.5"/>
<text text-anchor="middle" x="104" y="-399.5" font-family="Helvetica,sans-Serif" font-size="10.00">hoovercalculator.h</text>
</g>
<!-- Node1 -->
<g id="node2" class="node"><title>Node1</title>
<polygon fill="white" stroke="#bfbfbf" points="0,-336.5 0,-355.5 52,-355.5 52,-336.5 0,-336.5"/>
<text text-anchor="middle" x="26" y="-343.5" font-family="Helvetica,sans-Serif" font-size="10.00">QDialog</text>
</g>
<!-- Node0&#45;&gt;Node1 -->
<g id="edge1" class="edge"><title>Node0&#45;&gt;Node1</title>
<path fill="none" stroke="midnightblue" d="M91.468,-392.324C79.4141,-383.979 60.9732,-371.212 46.7313,-361.352"/>
<polygon fill="midnightblue" stroke="midnightblue" points="48.7151,-358.469 38.5009,-355.655 44.7306,-364.224 48.7151,-358.469"/>
</g>
<!-- Node2 -->
<g id="node3" class="node"><title>Node2</title>
<polygon fill="white" stroke="#bfbfbf" points="70,-336.5 70,-355.5 138,-355.5 138,-336.5 70,-336.5"/>
<text text-anchor="middle" x="104" y="-343.5" font-family="Helvetica,sans-Serif" font-size="10.00">QFileDialog</text>
</g>
<!-- Node0&#45;&gt;Node2 -->
<g id="edge2" class="edge"><title>Node0&#45;&gt;Node2</title>
<path fill="none" stroke="midnightblue" d="M104,-392.083C104,-385.006 104,-374.861 104,-365.986"/>
<polygon fill="midnightblue" stroke="midnightblue" points="107.5,-365.751 104,-355.751 100.5,-365.751 107.5,-365.751"/>
</g>
<!-- Node3 -->
<g id="node4" class="node"><title>Node3</title>
<g id="a_node4"><a xlink:href="hoovermetrics_8h.html" target="_top" xlink:title="hoovermetrics.h">
<polygon fill="white" stroke="black" points="156,-336.5 156,-355.5 242,-355.5 242,-336.5 156,-336.5"/>
<text text-anchor="middle" x="199" y="-343.5" font-family="Helvetica,sans-Serif" font-size="10.00">hoovermetrics.h</text>
</a>
</g>
</g>
<!-- Node0&#45;&gt;Node3 -->
<g id="edge3" class="edge"><title>Node0&#45;&gt;Node3</title>
<path fill="none" stroke="midnightblue" d="M119.263,-392.324C134.221,-383.822 157.255,-370.729 174.727,-360.797"/>
<polygon fill="midnightblue" stroke="midnightblue" points="176.81,-363.639 183.774,-355.655 173.351,-357.553 176.81,-363.639"/>
</g>
<!-- Node4 -->
<g id="node5" class="node"><title>Node4</title>
<polygon fill="white" stroke="#bfbfbf" points="354,-0.5 354,-19.5 398,-19.5 398,-0.5 354,-0.5"/>
<text text-anchor="middle" x="376" y="-7.5" font-family="Helvetica,sans-Serif" font-size="10.00">vector</text>
</g>
<!-- Node3&#45;&gt;Node4 -->
<g id="edge4" class="edge"><title>Node3&#45;&gt;Node4</title>
<path fill="none" stroke="midnightblue" d="M242.123,-342.486C390.074,-333.293 868,-298.671 868,-235 868,-235 868,-235 868,-121 868,-90.9022 872.201,-75.173 849,-56 815.104,-27.9882 509.518,-15.4204 408.357,-12.0028"/>
<polygon fill="midnightblue" stroke="midnightblue" points="408.246,-8.49736 398.136,-11.6654 408.015,-15.4936 408.246,-8.49736"/>
</g>
<!-- Node5 -->
<g id="node6" class="node"><title>Node5</title>
<polygon fill="white" stroke="#bfbfbf" points="75.5,-280.5 75.5,-299.5 116.5,-299.5 116.5,-280.5 75.5,-280.5"/>
<text text-anchor="middle" x="96" y="-287.5" font-family="Helvetica,sans-Serif" font-size="10.00">string</text>
</g>
<!-- Node3&#45;&gt;Node5 -->
<g id="edge5" class="edge"><title>Node3&#45;&gt;Node5</title>
<path fill="none" stroke="midnightblue" d="M182.451,-336.324C166.008,-327.703 140.565,-314.364 121.532,-304.386"/>
<polygon fill="midnightblue" stroke="midnightblue" points="122.989,-301.198 112.508,-299.655 119.739,-307.398 122.989,-301.198"/>
</g>
<!-- Node6 -->
<g id="node7" class="node"><title>Node6</title>
<polygon fill="white" stroke="#bfbfbf" points="120,-224.5 120,-243.5 170,-243.5 170,-224.5 120,-224.5"/>
<text text-anchor="middle" x="145" y="-231.5" font-family="Helvetica,sans-Serif" font-size="10.00">fstream</text>
</g>
<!-- Node3&#45;&gt;Node6 -->
<g id="edge6" class="edge"><title>Node3&#45;&gt;Node6</title>
<path fill="none" stroke="midnightblue" d="M190.67,-336.386C182.783,-327.801 171.12,-313.923 164,-300 156.472,-285.28 151.482,-267.118 148.512,-253.738"/>
<polygon fill="midnightblue" stroke="midnightblue" points="151.913,-252.9 146.482,-243.803 145.055,-254.301 151.913,-252.9"/>
</g>
<!-- Node7 -->
<g id="node8" class="node"><title>Node7</title>
<polygon fill="white" stroke="#bfbfbf" points="173,-280.5 173,-299.5 225,-299.5 225,-280.5 173,-280.5"/>
<text text-anchor="middle" x="199" y="-287.5" font-family="Helvetica,sans-Serif" font-size="10.00">sstream</text>
</g>
<!-- Node3&#45;&gt;Node7 -->
<g id="edge7" class="edge"><title>Node3&#45;&gt;Node7</title>
<path fill="none" stroke="midnightblue" d="M199,-336.083C199,-329.006 199,-318.861 199,-309.986"/>
<polygon fill="midnightblue" stroke="midnightblue" points="202.5,-309.751 199,-299.751 195.5,-309.751 202.5,-309.751"/>
</g>
<!-- Node8 -->
<g id="node9" class="node"><title>Node8</title>
<polygon fill="white" stroke="#bfbfbf" points="61,-56.5 61,-75.5 115,-75.5 115,-56.5 61,-56.5"/>
<text text-anchor="middle" x="88" y="-63.5" font-family="Helvetica,sans-Serif" font-size="10.00">iostream</text>
</g>
<!-- Node3&#45;&gt;Node8 -->
<g id="edge8" class="edge"><title>Node3&#45;&gt;Node8</title>
<path fill="none" stroke="midnightblue" d="M164.442,-336.445C130.279,-327.445 81.005,-312.834 66,-300 41.2238,-278.809 32,-267.602 32,-235 32,-235 32,-235 32,-177 32,-140.436 56.8767,-103.747 73.4693,-83.3424"/>
<polygon fill="midnightblue" stroke="midnightblue" points="76.195,-85.5395 79.9766,-75.6425 70.8486,-81.0212 76.195,-85.5395"/>
</g>
<!-- Node9 -->
<g id="node10" class="node"><title>Node9</title>
<polygon fill="white" stroke="#bfbfbf" points="188.5,-224.5 188.5,-243.5 233.5,-243.5 233.5,-224.5 188.5,-224.5"/>
<text text-anchor="middle" x="211" y="-231.5" font-family="Helvetica,sans-Serif" font-size="10.00">cstdlib</text>
</g>
<!-- Node3&#45;&gt;Node9 -->
<g id="edge9" class="edge"><title>Node3&#45;&gt;Node9</title>
<path fill="none" stroke="midnightblue" d="M208.556,-336.45C217.088,-328.12 228.989,-314.604 234,-300 239.564,-283.782 231.702,-265.364 223.696,-252.285"/>
<polygon fill="midnightblue" stroke="midnightblue" points="226.498,-250.18 218.03,-243.813 220.679,-254.071 226.498,-250.18"/>
</g>
<!-- Node10 -->
<g id="node11" class="node"><title>Node10</title>
<g id="a_node11"><a xlink:href="io_8h.html" target="_top" xlink:title="io.h">
<polygon fill="white" stroke="black" points="351,-280.5 351,-299.5 383,-299.5 383,-280.5 351,-280.5"/>
<text text-anchor="middle" x="367" y="-287.5" font-family="Helvetica,sans-Serif" font-size="10.00">io.h</text>
</a>
</g>
</g>
<!-- Node3&#45;&gt;Node10 -->
<g id="edge10" class="edge"><title>Node3&#45;&gt;Node10</title>
<path fill="none" stroke="midnightblue" d="M225.62,-336.444C257.208,-326.29 309.532,-309.472 340.893,-299.392"/>
<polygon fill="midnightblue" stroke="midnightblue" points="342.215,-302.643 350.665,-296.251 340.073,-295.979 342.215,-302.643"/>
</g>
<!-- Node10&#45;&gt;Node6 -->
<g id="edge41" class="edge"><title>Node10&#45;&gt;Node6</title>
<path fill="none" stroke="midnightblue" d="M350.874,-285.277C319.785,-278.07 249.188,-261.565 179.985,-244.205"/>
<polygon fill="midnightblue" stroke="midnightblue" points="180.786,-240.798 170.234,-241.751 179.077,-247.586 180.786,-240.798"/>
</g>
<!-- Node10&#45;&gt;Node8 -->
<g id="edge13" class="edge"><title>Node10&#45;&gt;Node8</title>
<path fill="none" stroke="midnightblue" d="M351.068,-280.377C296.89,-250.93 122.178,-154.91 105,-132 95.0506,-118.731 90.909,-100.149 89.193,-86.2505"/>
<polygon fill="midnightblue" stroke="midnightblue" points="92.6425,-85.5365 88.2478,-75.8961 85.6715,-86.1729 92.6425,-85.5365"/>
</g>
<!-- Node10&#45;&gt;Node9 -->
<g id="edge42" class="edge"><title>Node10&#45;&gt;Node9</title>
<path fill="none" stroke="midnightblue" d="M350.893,-283.424C325.566,-274.657 275.94,-257.479 243.123,-246.12"/>
<polygon fill="midnightblue" stroke="midnightblue" points="244.118,-242.76 233.524,-242.797 241.829,-249.375 244.118,-242.76"/>
</g>
<!-- Node11 -->
<g id="node12" class="node"><title>Node11</title>
<polygon fill="white" stroke="#bfbfbf" points="466.5,-56.5 466.5,-75.5 509.5,-75.5 509.5,-56.5 466.5,-56.5"/>
<text text-anchor="middle" x="488" y="-63.5" font-family="Helvetica,sans-Serif" font-size="10.00">gdal.h</text>
</g>
<!-- Node10&#45;&gt;Node11 -->
<g id="edge11" class="edge"><title>Node10&#45;&gt;Node11</title>
<path fill="none" stroke="midnightblue" d="M381.177,-280.496C393.738,-272.39 411.909,-259.192 424,-244 458.295,-200.912 460.473,-184.531 477,-132 481.782,-116.801 484.616,-98.9095 486.207,-85.7494"/>
<polygon fill="midnightblue" stroke="midnightblue" points="489.71,-85.9064 487.302,-75.5889 482.75,-85.1561 489.71,-85.9064"/>
</g>
<!-- Node12 -->
<g id="node13" class="node"><title>Node12</title>
<polygon fill="white" stroke="#bfbfbf" points="528,-56.5 528,-75.5 592,-75.5 592,-56.5 528,-56.5"/>
<text text-anchor="middle" x="560" y="-63.5" font-family="Helvetica,sans-Serif" font-size="10.00">gdal_priv.h</text>
</g>
<!-- Node10&#45;&gt;Node12 -->
<g id="edge12" class="edge"><title>Node10&#45;&gt;Node12</title>
<path fill="none" stroke="midnightblue" d="M383.082,-282.441C399.944,-274.985 426.511,-261.536 445,-244 496.324,-195.321 535.633,-119.418 551.865,-85.023"/>
<polygon fill="midnightblue" stroke="midnightblue" points="555.129,-86.303 556.15,-75.7574 548.776,-83.3649 555.129,-86.303"/>
</g>
<!-- Node13 -->
<g id="node14" class="node"><title>Node13</title>
<g id="a_node14"><a xlink:href="node_8h.html" target="_top" xlink:title="node.h">
<polygon fill="white" stroke="black" points="597,-112.5 597,-131.5 643,-131.5 643,-112.5 597,-112.5"/>
<text text-anchor="middle" x="620" y="-119.5" font-family="Helvetica,sans-Serif" font-size="10.00">node.h</text>
</a>
</g>
</g>
<!-- Node10&#45;&gt;Node13 -->
<g id="edge14" class="edge"><title>Node10&#45;&gt;Node13</title>
<path fill="none" stroke="midnightblue" d="M383.329,-288.891C436.507,-288.159 603.187,-282.759 636,-244 660.779,-214.732 642.527,-166.374 629.701,-140.544"/>
<polygon fill="midnightblue" stroke="midnightblue" points="632.731,-138.784 624.994,-131.546 626.528,-142.029 632.731,-138.784"/>
</g>
<!-- Node18 -->
<g id="node19" class="node"><title>Node18</title>
<g id="a_node19"><a xlink:href="compoundmodel_8h.html" target="_top" xlink:title="compoundmodel.h">
<polygon fill="white" stroke="black" points="319,-224.5 319,-243.5 415,-243.5 415,-224.5 319,-224.5"/>
<text text-anchor="middle" x="367" y="-231.5" font-family="Helvetica,sans-Serif" font-size="10.00">compoundmodel.h</text>
</a>
</g>
</g>
<!-- Node10&#45;&gt;Node18 -->
<g id="edge23" class="edge"><title>Node10&#45;&gt;Node18</title>
<path fill="none" stroke="midnightblue" d="M367,-280.083C367,-273.006 367,-262.861 367,-253.986"/>
<polygon fill="midnightblue" stroke="midnightblue" points="370.5,-253.751 367,-243.751 363.5,-253.751 370.5,-253.751"/>
</g>
<!-- Node25 -->
<g id="node26" class="node"><title>Node25</title>
<polygon fill="white" stroke="#bfbfbf" points="585.5,-224.5 585.5,-243.5 626.5,-243.5 626.5,-224.5 585.5,-224.5"/>
<text text-anchor="middle" x="606" y="-231.5" font-family="Helvetica,sans-Serif" font-size="10.00">ctime</text>
</g>
<!-- Node10&#45;&gt;Node25 -->
<g id="edge43" class="edge"><title>Node10&#45;&gt;Node25</title>
<path fill="none" stroke="midnightblue" d="M383.175,-285.631C417.74,-278.387 501.329,-260.637 571,-244 572.449,-243.654 573.931,-243.295 575.427,-242.927"/>
<polygon fill="midnightblue" stroke="midnightblue" points="576.454,-246.278 585.301,-240.449 574.75,-239.489 576.454,-246.278"/>
</g>
<!-- Node13&#45;&gt;Node4 -->
<g id="edge15" class="edge"><title>Node13&#45;&gt;Node4</title>
<path fill="none" stroke="midnightblue" d="M620.131,-112.392C619.846,-98.3937 617.121,-70.776 601,-56 573.205,-30.5231 463.488,-18.1186 408.202,-13.3841"/>
<polygon fill="midnightblue" stroke="midnightblue" points="408.481,-9.89534 398.228,-12.5629 407.907,-16.8717 408.481,-9.89534"/>
</g>
<!-- Node13&#45;&gt;Node11 -->
<g id="edge17" class="edge"><title>Node13&#45;&gt;Node11</title>
<path fill="none" stroke="midnightblue" d="M599.084,-112.444C577.264,-103.517 542.85,-89.4387 518.108,-79.3168"/>
<polygon fill="midnightblue" stroke="midnightblue" points="519.399,-76.0634 508.818,-75.5164 516.748,-82.5422 519.399,-76.0634"/>
</g>
<!-- Node13&#45;&gt;Node12 -->
<g id="edge18" class="edge"><title>Node13&#45;&gt;Node12</title>
<path fill="none" stroke="midnightblue" d="M610.36,-112.324C601.49,-104.341 588.125,-92.3128 577.392,-82.6529"/>
<polygon fill="midnightblue" stroke="midnightblue" points="579.59,-79.922 569.815,-75.8339 574.907,-85.1251 579.59,-79.922"/>
</g>
<!-- Node14 -->
<g id="node15" class="node"><title>Node14</title>
<polygon fill="white" stroke="#bfbfbf" points="800.5,-56.5 800.5,-75.5 839.5,-75.5 839.5,-56.5 800.5,-56.5"/>
<text text-anchor="middle" x="820" y="-63.5" font-family="Helvetica,sans-Serif" font-size="10.00">QSet</text>
</g>
<!-- Node13&#45;&gt;Node14 -->
<g id="edge16" class="edge"><title>Node13&#45;&gt;Node14</title>
<path fill="none" stroke="midnightblue" d="M643.044,-115.275C674.234,-107.454 731.83,-92.755 790.564,-76.0278"/>
<polygon fill="midnightblue" stroke="midnightblue" points="791.73,-79.3346 800.379,-73.2161 789.802,-72.6053 791.73,-79.3346"/>
</g>
<!-- Node15 -->
<g id="node16" class="node"><title>Node15</title>
<polygon fill="white" stroke="#bfbfbf" points="648,-56.5 648,-75.5 718,-75.5 718,-56.5 648,-56.5"/>
<text text-anchor="middle" x="683" y="-63.5" font-family="Helvetica,sans-Serif" font-size="10.00">opencv/cv.h</text>
</g>
<!-- Node13&#45;&gt;Node15 -->
<g id="edge19" class="edge"><title>Node13&#45;&gt;Node15</title>
<path fill="none" stroke="midnightblue" d="M630.122,-112.324C639.526,-104.263 653.744,-92.0765 665.069,-82.3695"/>
<polygon fill="midnightblue" stroke="midnightblue" points="667.379,-84.9993 672.694,-75.8339 662.823,-79.6844 667.379,-84.9993"/>
</g>
<!-- Node16 -->
<g id="node17" class="node"><title>Node16</title>
<g id="a_node17"><a xlink:href="region_model_8h.html" target="_top" xlink:title="regionModel.h">
<polygon fill="white" stroke="black" points="371.5,-56.5 371.5,-75.5 448.5,-75.5 448.5,-56.5 371.5,-56.5"/>
<text text-anchor="middle" x="410" y="-63.5" font-family="Helvetica,sans-Serif" font-size="10.00">regionModel.h</text>
</a>
</g>
</g>
<!-- Node13&#45;&gt;Node16 -->
<g id="edge20" class="edge"><title>Node13&#45;&gt;Node16</title>
<path fill="none" stroke="midnightblue" d="M596.724,-115.015C562.148,-106.124 496.63,-89.2763 453.132,-78.0911"/>
<polygon fill="midnightblue" stroke="midnightblue" points="453.95,-74.6875 443.393,-75.5868 452.206,-81.467 453.95,-74.6875"/>
</g>
<!-- Node17 -->
<g id="node18" class="node"><title>Node17</title>
<g id="a_node18"><a xlink:href="edge_8h.html" target="_top" xlink:title="edge.h">
<polygon fill="white" stroke="black" points="736,-56.5 736,-75.5 782,-75.5 782,-56.5 736,-56.5"/>
<text text-anchor="middle" x="759" y="-63.5" font-family="Helvetica,sans-Serif" font-size="10.00">edge.h</text>
</a>
</g>
</g>
<!-- Node13&#45;&gt;Node17 -->
<g id="edge22" class="edge"><title>Node13&#45;&gt;Node17</title>
<path fill="none" stroke="midnightblue" d="M642.025,-112.444C665.104,-103.478 701.562,-89.314 727.641,-79.1827"/>
<polygon fill="midnightblue" stroke="midnightblue" points="729.024,-82.4002 737.078,-75.5164 726.489,-75.8753 729.024,-82.4002"/>
</g>
<!-- Node16&#45;&gt;Node4 -->
<g id="edge21" class="edge"><title>Node16&#45;&gt;Node4</title>
<path fill="none" stroke="midnightblue" d="M404.386,-56.083C399.633,-48.5341 392.682,-37.4948 386.848,-28.2298"/>
<polygon fill="midnightblue" stroke="midnightblue" points="389.8,-26.3486 381.51,-19.7511 383.876,-30.0783 389.8,-26.3486"/>
</g>
<!-- Node18&#45;&gt;Node16 -->
<g id="edge24" class="edge"><title>Node18&#45;&gt;Node16</title>
<path fill="none" stroke="midnightblue" d="M381.046,-224.304C404.042,-209.044 448.518,-174.949 462,-132 464.662,-123.519 465.695,-120.084 462,-112 456.223,-99.3602 444.948,-88.911 434.369,-81.2737"/>
<polygon fill="midnightblue" stroke="midnightblue" points="436.042,-78.1817 425.783,-75.5333 432.151,-84.0009 436.042,-78.1817"/>
</g>
<!-- Node19 -->
<g id="node20" class="node"><title>Node19</title>
<g id="a_node20"><a xlink:href="histogrammodel_8h.html" target="_top" xlink:title="histogrammodel.h">
<polygon fill="white" stroke="black" points="320,-168.5 320,-187.5 414,-187.5 414,-168.5 320,-168.5"/>
<text text-anchor="middle" x="367" y="-175.5" font-family="Helvetica,sans-Serif" font-size="10.00">histogrammodel.h</text>
</a>
</g>
</g>
<!-- Node18&#45;&gt;Node19 -->
<g id="edge25" class="edge"><title>Node18&#45;&gt;Node19</title>
<path fill="none" stroke="midnightblue" d="M367,-224.083C367,-217.006 367,-206.861 367,-197.986"/>
<polygon fill="midnightblue" stroke="midnightblue" points="370.5,-197.751 367,-187.751 363.5,-197.751 370.5,-197.751"/>
</g>
<!-- Node24 -->
<g id="node25" class="node"><title>Node24</title>
<g id="a_node25"><a xlink:href="probabilitymodel_8h.html" target="_top" xlink:title="probabilitymodel.h">
<polygon fill="white" stroke="black" points="136.5,-112.5 136.5,-131.5 231.5,-131.5 231.5,-112.5 136.5,-112.5"/>
<text text-anchor="middle" x="184" y="-119.5" font-family="Helvetica,sans-Serif" font-size="10.00">probabilitymodel.h</text>
</a>
</g>
</g>
<!-- Node18&#45;&gt;Node24 -->
<g id="edge36" class="edge"><title>Node18&#45;&gt;Node24</title>
<path fill="none" stroke="midnightblue" d="M352.64,-224.368C321.104,-205.412 245.556,-160.001 207.195,-136.942"/>
<polygon fill="midnightblue" stroke="midnightblue" points="208.667,-133.744 198.293,-131.591 205.061,-139.743 208.667,-133.744"/>
</g>
<!-- Node19&#45;&gt;Node4 -->
<g id="edge34" class="edge"><title>Node19&#45;&gt;Node4</title>
<path fill="none" stroke="midnightblue" d="M365.528,-168.43C362.354,-148.545 355.651,-97.7803 362,-56 363.368,-47.001 366.19,-37.3251 368.945,-29.2601"/>
<polygon fill="midnightblue" stroke="midnightblue" points="372.265,-30.3722 372.4,-19.7782 365.688,-27.9759 372.265,-30.3722"/>
</g>
<!-- Node19&#45;&gt;Node8 -->
<g id="edge33" class="edge"><title>Node19&#45;&gt;Node8</title>
<path fill="none" stroke="midnightblue" d="M319.789,-172.752C258.998,-166.51 157.536,-153.245 127,-132 110.831,-120.751 100.238,-100.437 94.2271,-85.5031"/>
<polygon fill="midnightblue" stroke="midnightblue" points="97.3883,-83.9591 90.6462,-75.7863 90.8201,-86.3797 97.3883,-83.9591"/>
</g>
<!-- Node19&#45;&gt;Node13 -->
<g id="edge27" class="edge"><title>Node19&#45;&gt;Node13</title>
<path fill="none" stroke="midnightblue" d="M407.089,-168.444C456.831,-157.827 540.719,-139.922 586.952,-130.054"/>
<polygon fill="midnightblue" stroke="midnightblue" points="587.716,-133.47 596.765,-127.959 586.254,-126.624 587.716,-133.47"/>
</g>
<!-- Node19&#45;&gt;Node16 -->
<g id="edge26" class="edge"><title>Node19&#45;&gt;Node16</title>
<path fill="none" stroke="midnightblue" d="M370.374,-168.368C377.376,-150.456 393.612,-108.923 402.984,-84.9482"/>
<polygon fill="midnightblue" stroke="midnightblue" points="406.26,-86.1794 406.642,-75.5914 399.741,-83.6308 406.26,-86.1794"/>
</g>
<!-- Node20 -->
<g id="node21" class="node"><title>Node20</title>
<g id="a_node21"><a xlink:href="statistics_8h.html" target="_top" xlink:title="statistics.h">
<polygon fill="white" stroke="black" points="249.5,-112.5 249.5,-131.5 314.5,-131.5 314.5,-112.5 249.5,-112.5"/>
<text text-anchor="middle" x="282" y="-119.5" font-family="Helvetica,sans-Serif" font-size="10.00">statistics.h</text>
</a>
</g>
</g>
<!-- Node19&#45;&gt;Node20 -->
<g id="edge28" class="edge"><title>Node19&#45;&gt;Node20</title>
<path fill="none" stroke="midnightblue" d="M353.343,-168.324C340.084,-159.9 319.732,-146.971 304.154,-137.074"/>
<polygon fill="midnightblue" stroke="midnightblue" points="305.94,-134.063 295.623,-131.655 302.187,-139.971 305.94,-134.063"/>
</g>
<!-- Node23 -->
<g id="node24" class="node"><title>Node23</title>
<polygon fill="white" stroke="#bfbfbf" points="409,-112.5 409,-131.5 453,-131.5 453,-112.5 409,-112.5"/>
<text text-anchor="middle" x="431" y="-119.5" font-family="Helvetica,sans-Serif" font-size="10.00">omp.h</text>
</g>
<!-- Node19&#45;&gt;Node23 -->
<g id="edge35" class="edge"><title>Node19&#45;&gt;Node23</title>
<path fill="none" stroke="midnightblue" d="M377.283,-168.324C386.836,-160.263 401.28,-148.077 412.784,-138.369"/>
<polygon fill="midnightblue" stroke="midnightblue" points="415.144,-140.958 420.53,-131.834 410.63,-135.608 415.144,-140.958"/>
</g>
<!-- Node20&#45;&gt;Node4 -->
<g id="edge29" class="edge"><title>Node20&#45;&gt;Node4</title>
<path fill="none" stroke="midnightblue" d="M275.807,-112.248C267.271,-99.0055 254.21,-73.5609 266,-56 283.184,-30.404 317.78,-19.3571 343.61,-14.5953"/>
<polygon fill="midnightblue" stroke="midnightblue" points="344.404,-18.0125 353.718,-12.9634 343.288,-11.102 344.404,-18.0125"/>
</g>
<!-- Node20&#45;&gt;Node8 -->
<g id="edge31" class="edge"><title>Node20&#45;&gt;Node8</title>
<path fill="none" stroke="midnightblue" d="M251.26,-112.444C216.982,-102.902 161.556,-87.4744 124.946,-77.2841"/>
<polygon fill="midnightblue" stroke="midnightblue" points="125.725,-73.8678 115.153,-74.558 123.848,-80.6114 125.725,-73.8678"/>
</g>
<!-- Node21 -->
<g id="node22" class="node"><title>Node21</title>
<polygon fill="white" stroke="#bfbfbf" points="171.5,-56.5 171.5,-75.5 218.5,-75.5 218.5,-56.5 171.5,-56.5"/>
<text text-anchor="middle" x="195" y="-63.5" font-family="Helvetica,sans-Serif" font-size="10.00">math.h</text>
</g>
<!-- Node20&#45;&gt;Node21 -->
<g id="edge30" class="edge"><title>Node20&#45;&gt;Node21</title>
<path fill="none" stroke="midnightblue" d="M268.022,-112.324C254.45,-103.9 233.62,-90.9709 217.675,-81.0741"/>
<polygon fill="midnightblue" stroke="midnightblue" points="219.286,-77.9544 208.943,-75.6545 215.594,-83.9019 219.286,-77.9544"/>
</g>
<!-- Node22 -->
<g id="node23" class="node"><title>Node22</title>
<polygon fill="white" stroke="#bfbfbf" points="275,-56.5 275,-75.5 315,-75.5 315,-56.5 275,-56.5"/>
<text text-anchor="middle" x="295" y="-63.5" font-family="Helvetica,sans-Serif" font-size="10.00">limits</text>
</g>
<!-- Node20&#45;&gt;Node22 -->
<g id="edge32" class="edge"><title>Node20&#45;&gt;Node22</title>
<path fill="none" stroke="midnightblue" d="M284.147,-112.083C285.869,-104.927 288.347,-94.6353 290.5,-85.6911"/>
<polygon fill="midnightblue" stroke="midnightblue" points="293.955,-86.2925 292.893,-75.7511 287.15,-84.6541 293.955,-86.2925"/>
</g>
<!-- Node24&#45;&gt;Node4 -->
<g id="edge38" class="edge"><title>Node24&#45;&gt;Node4</title>
<path fill="none" stroke="midnightblue" d="M176.123,-112.067C165.22,-98.5863 148.336,-72.8357 162,-56 184.541,-28.2257 289.847,-16.9579 343.861,-12.945"/>
<polygon fill="midnightblue" stroke="midnightblue" points="344.211,-16.4292 353.94,-12.2364 343.72,-9.44641 344.211,-16.4292"/>
</g>
<!-- Node24&#45;&gt;Node8 -->
<g id="edge40" class="edge"><title>Node24&#45;&gt;Node8</title>
<path fill="none" stroke="midnightblue" d="M168.576,-112.324C153.46,-103.822 130.185,-90.7288 112.529,-80.7975"/>
<polygon fill="midnightblue" stroke="midnightblue" points="113.817,-77.5066 103.386,-75.6545 110.386,-83.6077 113.817,-77.5066"/>
</g>
<!-- Node24&#45;&gt;Node16 -->
<g id="edge37" class="edge"><title>Node24&#45;&gt;Node16</title>
<path fill="none" stroke="midnightblue" d="M219.81,-112.444C258.988,-103.083 321.877,-88.0561 364.515,-77.868"/>
<polygon fill="midnightblue" stroke="midnightblue" points="365.444,-81.2446 374.357,-75.5164 363.818,-74.4363 365.444,-81.2446"/>
</g>
<!-- Node24&#45;&gt;Node21 -->
<g id="edge39" class="edge"><title>Node24&#45;&gt;Node21</title>
<path fill="none" stroke="midnightblue" d="M185.816,-112.083C187.274,-104.927 189.371,-94.6353 191.193,-85.6911"/>
<polygon fill="midnightblue" stroke="midnightblue" points="194.651,-86.2485 193.217,-75.7511 187.792,-84.8512 194.651,-86.2485"/>
</g>
</g>
</svg>
