<?xml version="1.0" encoding="UTF-8" standalone="no"?>
<!DOCTYPE svg PUBLIC "-//W3C//DTD SVG 1.1//EN"
 "http://www.w3.org/Graphics/SVG/1.1/DTD/svg11.dtd">
<!-- Generated by graphviz version 2.38.0 (20140413.2041)
 -->
<!-- Title: computerHooverMetrics Pages: 1 -->
<svg width="416pt" height="39pt"
 viewBox="0.00 0.00 416.00 39.00" xmlns="http://www.w3.org/2000/svg" xmlns:xlink="http://www.w3.org/1999/xlink">
<g id="graph0" class="graph" transform="scale(1 1) rotate(0) translate(4 35)">
<title>computerHooverMetrics</title>
<polygon fill="white" stroke="none" points="-4,4 -4,-35 412,-35 412,4 -4,4"/>
<!-- Node1 -->
<g id="node1" class="node"><title>Node1</title>
<polygon fill="#bfbfbf" stroke="black" points="0,-6 0,-25 121,-25 121,-6 0,-6"/>
<text text-anchor="middle" x="60.5" y="-13" font-family="Helvetica,sans-Serif" font-size="10.00">computerHooverMetrics</text>
</g>
<!-- Node2 -->
<g id="node2" class="node"><title>Node2</title>
<g id="a_node2"><a xlink:href="hoovermetrics_8h.html#a455a7ff79d9891a057cc18d8b07a60f4" target="_top" xlink:title="hooverCompare">
<polygon fill="white" stroke="black" points="157,-6 157,-25 243,-25 243,-6 157,-6"/>
<text text-anchor="middle" x="200" y="-13" font-family="Helvetica,sans-Serif" font-size="10.00">hooverCompare</text>
</a>
</g>
</g>
<!-- Node1&#45;&gt;Node2 -->
<g id="edge1" class="edge"><title>Node1&#45;&gt;Node2</title>
<path fill="none" stroke="midnightblue" d="M131.233,-15.5C139.963,-15.5 148.671,-15.5 156.795,-15.5"/>
<polygon fill="midnightblue" stroke="midnightblue" points="131.01,-12.0001 121.01,-15.5 131.01,-19.0001 131.01,-12.0001"/>
</g>
<!-- Node3 -->
<g id="node3" class="node"><title>Node3</title>
<g id="a_node3"><a xlink:href="class_hoover_calculator.html#a8b5831262a37a7db5934869a73edec52" target="_top" xlink:title="HooverCalculator::on\l_ComputeHoover_clicked">
<polygon fill="white" stroke="black" points="279,-0.5 279,-30.5 408,-30.5 408,-0.5 279,-0.5"/>
<text text-anchor="start" x="287" y="-18.5" font-family="Helvetica,sans-Serif" font-size="10.00">HooverCalculator::on</text>
<text text-anchor="middle" x="343.5" y="-7.5" font-family="Helvetica,sans-Serif" font-size="10.00">_ComputeHoover_clicked</text>
</a>
</g>
</g>
<!-- Node2&#45;&gt;Node3 -->
<g id="edge2" class="edge"><title>Node2&#45;&gt;Node3</title>
<path fill="none" stroke="midnightblue" d="M253.077,-15.5C261.462,-15.5 270.224,-15.5 278.843,-15.5"/>
<polygon fill="midnightblue" stroke="midnightblue" points="253.072,-12.0001 243.072,-15.5 253.072,-19.0001 253.072,-12.0001"/>
</g>
</g>
</svg>
