<?xml version="1.0" encoding="UTF-8" standalone="no"?>
<!DOCTYPE svg PUBLIC "-//W3C//DTD SVG 1.1//EN"
 "http://www.w3.org/Graphics/SVG/1.1/DTD/svg11.dtd">
<!-- Generated by graphviz version 2.38.0 (20140413.2041)
 -->
<!-- Title: hoovercalculator.h Pages: 1 -->
<svg width="222pt" height="84pt"
 viewBox="0.00 0.00 222.00 84.00" xmlns="http://www.w3.org/2000/svg" xmlns:xlink="http://www.w3.org/1999/xlink">
<g id="graph0" class="graph" transform="scale(1 1) rotate(0) translate(4 80)">
<title>hoovercalculator.h</title>
<polygon fill="white" stroke="none" points="-4,4 -4,-80 218,-80 218,4 -4,4"/>
<!-- Node26 -->
<g id="node1" class="node"><title>Node26</title>
<polygon fill="#bfbfbf" stroke="black" points="63.5,-56.5 63.5,-75.5 159.5,-75.5 159.5,-56.5 63.5,-56.5"/>
<text text-anchor="middle" x="111.5" y="-63.5" font-family="Helvetica,sans-Serif" font-size="10.00">hoovercalculator.h</text>
</g>
<!-- Node27 -->
<g id="node2" class="node"><title>Node27</title>
<g id="a_node2"><a xlink:href="hoovercalculator_8cpp.html" target="_top" xlink:title="hoovercalculator.cpp">
<polygon fill="white" stroke="black" points="0,-0.5 0,-19.5 107,-19.5 107,-0.5 0,-0.5"/>
<text text-anchor="middle" x="53.5" y="-7.5" font-family="Helvetica,sans-Serif" font-size="10.00">hoovercalculator.cpp</text>
</a>
</g>
</g>
<!-- Node26&#45;&gt;Node27 -->
<g id="edge1" class="edge"><title>Node26&#45;&gt;Node27</title>
<path fill="none" stroke="midnightblue" d="M94.5869,-49.2533C84.297,-39.6731 71.5343,-27.7906 62.9883,-19.8339"/>
<polygon fill="midnightblue" stroke="midnightblue" points="92.4774,-52.0714 102.181,-56.324 97.2473,-46.9481 92.4774,-52.0714"/>
</g>
<!-- Node28 -->
<g id="node3" class="node"><title>Node28</title>
<g id="a_node3"><a xlink:href="mainwindow_8cpp.html" target="_top" xlink:title="mainwindow.cpp">
<polygon fill="white" stroke="black" points="125,-0.5 125,-19.5 214,-19.5 214,-0.5 125,-0.5"/>
<text text-anchor="middle" x="169.5" y="-7.5" font-family="Helvetica,sans-Serif" font-size="10.00">mainwindow.cpp</text>
</a>
</g>
</g>
<!-- Node26&#45;&gt;Node28 -->
<g id="edge2" class="edge"><title>Node26&#45;&gt;Node28</title>
<path fill="none" stroke="midnightblue" d="M128.413,-49.2533C138.703,-39.6731 151.466,-27.7906 160.012,-19.8339"/>
<polygon fill="midnightblue" stroke="midnightblue" points="125.753,-46.9481 120.819,-56.324 130.523,-52.0714 125.753,-46.9481"/>
</g>
</g>
</svg>
