<?xml version="1.0" encoding="UTF-8" standalone="no"?>
<!DOCTYPE svg PUBLIC "-//W3C//DTD SVG 1.1//EN"
 "http://www.w3.org/Graphics/SVG/1.1/DTD/svg11.dtd">
<!-- Generated by graphviz version 2.38.0 (20140413.2041)
 -->
<!-- Title: imagecropper.cpp Pages: 1 -->
<svg width="561pt" height="140pt"
 viewBox="0.00 0.00 561.00 140.00" xmlns="http://www.w3.org/2000/svg" xmlns:xlink="http://www.w3.org/1999/xlink">
<g id="graph0" class="graph" transform="scale(1 1) rotate(0) translate(4 136)">
<title>imagecropper.cpp</title>
<polygon fill="white" stroke="none" points="-4,4 -4,-136 557,-136 557,4 -4,4"/>
<!-- Node1 -->
<g id="node1" class="node"><title>Node1</title>
<polygon fill="#bfbfbf" stroke="black" points="372,-112.5 372,-131.5 466,-131.5 466,-112.5 372,-112.5"/>
<text text-anchor="middle" x="419" y="-119.5" font-family="Helvetica,sans-Serif" font-size="10.00">imagecropper.cpp</text>
</g>
<!-- Node2 -->
<g id="node2" class="node"><title>Node2</title>
<g id="a_node2"><a xlink:href="imagecropper_8h.html" target="_top" xlink:title="imagecropper.h">
<polygon fill="white" stroke="black" points="269.5,-56.5 269.5,-75.5 352.5,-75.5 352.5,-56.5 269.5,-56.5"/>
<text text-anchor="middle" x="311" y="-63.5" font-family="Helvetica,sans-Serif" font-size="10.00">imagecropper.h</text>
</a>
</g>
</g>
<!-- Node1&#45;&gt;Node2 -->
<g id="edge1" class="edge"><title>Node1&#45;&gt;Node2</title>
<path fill="none" stroke="midnightblue" d="M401.648,-112.324C384.328,-103.664 357.485,-90.2424 337.498,-80.249"/>
<polygon fill="midnightblue" stroke="midnightblue" points="338.819,-76.9962 328.309,-75.6545 335.688,-83.2572 338.819,-76.9962"/>
</g>
<!-- Node10 -->
<g id="node10" class="node"><title>Node10</title>
<polygon fill="white" stroke="#bfbfbf" points="371,-56.5 371,-75.5 467,-75.5 467,-56.5 371,-56.5"/>
<text text-anchor="middle" x="419" y="-63.5" font-family="Helvetica,sans-Serif" font-size="10.00">ui_imagecropper.h</text>
</g>
<!-- Node1&#45;&gt;Node10 -->
<g id="edge9" class="edge"><title>Node1&#45;&gt;Node10</title>
<path fill="none" stroke="midnightblue" d="M419,-112.083C419,-105.006 419,-94.8611 419,-85.9865"/>
<polygon fill="midnightblue" stroke="midnightblue" points="422.5,-85.751 419,-75.7511 415.5,-85.7511 422.5,-85.751"/>
</g>
<!-- Node11 -->
<g id="node11" class="node"><title>Node11</title>
<polygon fill="white" stroke="#bfbfbf" points="485,-56.5 485,-75.5 537,-75.5 537,-56.5 485,-56.5"/>
<text text-anchor="middle" x="511" y="-63.5" font-family="Helvetica,sans-Serif" font-size="10.00">sstream</text>
</g>
<!-- Node1&#45;&gt;Node11 -->
<g id="edge10" class="edge"><title>Node1&#45;&gt;Node11</title>
<path fill="none" stroke="midnightblue" d="M433.781,-112.324C448.267,-103.822 470.573,-90.7288 487.493,-80.7975"/>
<polygon fill="midnightblue" stroke="midnightblue" points="489.403,-83.735 496.255,-75.6545 485.859,-77.6981 489.403,-83.735"/>
</g>
<!-- Node3 -->
<g id="node3" class="node"><title>Node3</title>
<polygon fill="white" stroke="#bfbfbf" points="0,-0.5 0,-19.5 80,-19.5 80,-0.5 0,-0.5"/>
<text text-anchor="middle" x="40" y="-7.5" font-family="Helvetica,sans-Serif" font-size="10.00">QMainWindow</text>
</g>
<!-- Node2&#45;&gt;Node3 -->
<g id="edge2" class="edge"><title>Node2&#45;&gt;Node3</title>
<path fill="none" stroke="midnightblue" d="M269.25,-56.6808C220.95,-47.0565 141.479,-31.2209 89.9457,-20.9523"/>
<polygon fill="midnightblue" stroke="midnightblue" points="90.5203,-17.498 80.0291,-18.9763 89.1523,-24.3631 90.5203,-17.498"/>
</g>
<!-- Node4 -->
<g id="node4" class="node"><title>Node4</title>
<polygon fill="white" stroke="#bfbfbf" points="98.5,-0.5 98.5,-19.5 179.5,-19.5 179.5,-0.5 98.5,-0.5"/>
<text text-anchor="middle" x="139" y="-7.5" font-family="Helvetica,sans-Serif" font-size="10.00">QMessageBox</text>
</g>
<!-- Node2&#45;&gt;Node4 -->
<g id="edge3" class="edge"><title>Node2&#45;&gt;Node4</title>
<path fill="none" stroke="midnightblue" d="M283.746,-56.4435C254.559,-47.2801 208.079,-32.6876 175.691,-22.5192"/>
<polygon fill="midnightblue" stroke="midnightblue" points="176.716,-19.1726 166.126,-19.5164 174.619,-25.8512 176.716,-19.1726"/>
</g>
<!-- Node5 -->
<g id="node5" class="node"><title>Node5</title>
<polygon fill="white" stroke="#bfbfbf" points="198,-0.5 198,-19.5 266,-19.5 266,-0.5 198,-0.5"/>
<text text-anchor="middle" x="232" y="-7.5" font-family="Helvetica,sans-Serif" font-size="10.00">QFileDialog</text>
</g>
<!-- Node2&#45;&gt;Node5 -->
<g id="edge4" class="edge"><title>Node2&#45;&gt;Node5</title>
<path fill="none" stroke="midnightblue" d="M298.307,-56.324C286.099,-47.979 267.422,-35.2122 252.997,-25.3524"/>
<polygon fill="midnightblue" stroke="midnightblue" points="254.892,-22.4082 244.661,-19.6545 250.942,-28.1871 254.892,-22.4082"/>
</g>
<!-- Node6 -->
<g id="node6" class="node"><title>Node6</title>
<polygon fill="white" stroke="#bfbfbf" points="284.5,-0.5 284.5,-19.5 337.5,-19.5 337.5,-0.5 284.5,-0.5"/>
<text text-anchor="middle" x="311" y="-7.5" font-family="Helvetica,sans-Serif" font-size="10.00">QDebug</text>
</g>
<!-- Node2&#45;&gt;Node6 -->
<g id="edge5" class="edge"><title>Node2&#45;&gt;Node6</title>
<path fill="none" stroke="midnightblue" d="M311,-56.083C311,-49.0059 311,-38.8611 311,-29.9865"/>
<polygon fill="midnightblue" stroke="midnightblue" points="314.5,-29.751 311,-19.7511 307.5,-29.7511 314.5,-29.751"/>
</g>
<!-- Node7 -->
<g id="node7" class="node"><title>Node7</title>
<polygon fill="white" stroke="#bfbfbf" points="355.5,-0.5 355.5,-19.5 398.5,-19.5 398.5,-0.5 355.5,-0.5"/>
<text text-anchor="middle" x="377" y="-7.5" font-family="Helvetica,sans-Serif" font-size="10.00">gdal.h</text>
</g>
<!-- Node2&#45;&gt;Node7 -->
<g id="edge6" class="edge"><title>Node2&#45;&gt;Node7</title>
<path fill="none" stroke="midnightblue" d="M321.604,-56.324C331.456,-48.2631 346.351,-36.0765 358.215,-26.3695"/>
<polygon fill="midnightblue" stroke="midnightblue" points="360.68,-28.8752 366.203,-19.8339 356.247,-23.4575 360.68,-28.8752"/>
</g>
<!-- Node8 -->
<g id="node8" class="node"><title>Node8</title>
<polygon fill="white" stroke="#bfbfbf" points="417,-0.5 417,-19.5 481,-19.5 481,-0.5 417,-0.5"/>
<text text-anchor="middle" x="449" y="-7.5" font-family="Helvetica,sans-Serif" font-size="10.00">gdal_priv.h</text>
</g>
<!-- Node2&#45;&gt;Node8 -->
<g id="edge7" class="edge"><title>Node2&#45;&gt;Node8</title>
<path fill="none" stroke="midnightblue" d="M332.867,-56.4435C355.779,-47.4776 391.975,-33.314 417.866,-23.1827"/>
<polygon fill="midnightblue" stroke="midnightblue" points="419.199,-26.4198 427.236,-19.5164 416.648,-19.9011 419.199,-26.4198"/>
</g>
<!-- Node9 -->
<g id="node9" class="node"><title>Node9</title>
<polygon fill="white" stroke="#bfbfbf" points="499,-0.5 499,-19.5 553,-19.5 553,-0.5 499,-0.5"/>
<text text-anchor="middle" x="526" y="-7.5" font-family="Helvetica,sans-Serif" font-size="10.00">iostream</text>
</g>
<!-- Node2&#45;&gt;Node9 -->
<g id="edge8" class="edge"><title>Node2&#45;&gt;Node9</title>
<path fill="none" stroke="midnightblue" d="M345.067,-56.4435C384.364,-46.5738 448.736,-30.4057 489.166,-20.2512"/>
<polygon fill="midnightblue" stroke="midnightblue" points="490.053,-23.6373 498.899,-17.8067 488.348,-16.8481 490.053,-23.6373"/>
</g>
</g>
</svg>
