<?xml version="1.0" encoding="UTF-8" standalone="no"?>
<!DOCTYPE svg PUBLIC "-//W3C//DTD SVG 1.1//EN"
 "http://www.w3.org/Graphics/SVG/1.1/DTD/svg11.dtd">
<!-- Generated by graphviz version 2.38.0 (20140413.2041)
 -->
<!-- Title: image.h Pages: 1 -->
<svg width="1320pt" height="420pt"
 viewBox="0.00 0.00 1320.00 420.00" xmlns="http://www.w3.org/2000/svg" xmlns:xlink="http://www.w3.org/1999/xlink">
<g id="graph0" class="graph" transform="scale(1 1) rotate(0) translate(4 416)">
<title>image.h</title>
<polygon fill="white" stroke="none" points="-4,4 -4,-416 1316,-416 1316,4 -4,4"/>
<!-- Node0 -->
<g id="node1" class="node"><title>Node0</title>
<polygon fill="#bfbfbf" stroke="black" points="894.5,-392.5 894.5,-411.5 945.5,-411.5 945.5,-392.5 894.5,-392.5"/>
<text text-anchor="middle" x="920" y="-399.5" font-family="Helvetica,sans-Serif" font-size="10.00">image.h</text>
</g>
<!-- Node1 -->
<g id="node2" class="node"><title>Node1</title>
<polygon fill="white" stroke="#bfbfbf" points="16.5,-56.5 16.5,-75.5 59.5,-75.5 59.5,-56.5 16.5,-56.5"/>
<text text-anchor="middle" x="38" y="-63.5" font-family="Helvetica,sans-Serif" font-size="10.00">gdal.h</text>
</g>
<!-- Node0&#45;&gt;Node1 -->
<g id="edge1" class="edge"><title>Node0&#45;&gt;Node1</title>
<path fill="none" stroke="midnightblue" d="M894.499,-400.604C779.029,-398.643 304.548,-388.705 160,-356 85.1371,-339.062 0,-367.755 0,-291 0,-291 0,-291 0,-177 0,-142.813 16.6005,-105.764 27.8573,-84.5707"/>
<polygon fill="midnightblue" stroke="midnightblue" points="30.9473,-86.2151 32.7163,-75.769 24.8191,-82.832 30.9473,-86.2151"/>
</g>
<!-- Node2 -->
<g id="node3" class="node"><title>Node2</title>
<polygon fill="white" stroke="#bfbfbf" points="94,-56.5 94,-75.5 158,-75.5 158,-56.5 94,-56.5"/>
<text text-anchor="middle" x="126" y="-63.5" font-family="Helvetica,sans-Serif" font-size="10.00">gdal_priv.h</text>
</g>
<!-- Node0&#45;&gt;Node2 -->
<g id="edge2" class="edge"><title>Node0&#45;&gt;Node2</title>
<path fill="none" stroke="midnightblue" d="M894.28,-400.422C752.833,-396.911 76,-375.689 76,-291 76,-291 76,-291 76,-177 76,-141.184 98.2399,-104.214 113.055,-83.5601"/>
<polygon fill="midnightblue" stroke="midnightblue" points="115.878,-85.6289 119.048,-75.5193 110.265,-81.4456 115.878,-85.6289"/>
</g>
<!-- Node3 -->
<g id="node4" class="node"><title>Node3</title>
<g id="a_node4"><a xlink:href="imageblock_8h.html" target="_top" xlink:title="imageblock.h">
<polygon fill="white" stroke="black" points="841,-336.5 841,-355.5 915,-355.5 915,-336.5 841,-336.5"/>
<text text-anchor="middle" x="878" y="-343.5" font-family="Helvetica,sans-Serif" font-size="10.00">imageblock.h</text>
</a>
</g>
</g>
<!-- Node0&#45;&gt;Node3 -->
<g id="edge3" class="edge"><title>Node0&#45;&gt;Node3</title>
<path fill="none" stroke="midnightblue" d="M913.065,-392.083C907.071,-384.377 898.248,-373.033 890.952,-363.653"/>
<polygon fill="midnightblue" stroke="midnightblue" points="893.709,-361.496 884.806,-355.751 888.183,-365.793 893.709,-361.496"/>
</g>
<!-- Node5 -->
<g id="node6" class="node"><title>Node5</title>
<g id="a_node6"><a xlink:href="rag_8h.html" target="_top" xlink:title="rag.h">
<polygon fill="white" stroke="black" points="883,-168.5 883,-187.5 921,-187.5 921,-168.5 883,-168.5"/>
<text text-anchor="middle" x="902" y="-175.5" font-family="Helvetica,sans-Serif" font-size="10.00">rag.h</text>
</a>
</g>
</g>
<!-- Node0&#45;&gt;Node5 -->
<g id="edge63" class="edge"><title>Node0&#45;&gt;Node5</title>
<path fill="none" stroke="midnightblue" d="M939.637,-392.48C977.908,-374.55 1056.66,-330.393 1032,-280 1010.94,-236.961 961.705,-206.976 930.234,-191.406"/>
<polygon fill="midnightblue" stroke="midnightblue" points="931.621,-188.19 921.089,-187.038 928.604,-194.506 931.621,-188.19"/>
</g>
<!-- Node14 -->
<g id="node15" class="node"><title>Node14</title>
<polygon fill="white" stroke="#bfbfbf" points="1004,-56.5 1004,-75.5 1060,-75.5 1060,-56.5 1004,-56.5"/>
<text text-anchor="middle" x="1032" y="-63.5" font-family="Helvetica,sans-Serif" font-size="10.00">algorithm</text>
</g>
<!-- Node0&#45;&gt;Node14 -->
<g id="edge62" class="edge"><title>Node0&#45;&gt;Node14</title>
<path fill="none" stroke="midnightblue" d="M945.674,-399.11C1000.9,-393.506 1126,-371.884 1126,-291 1126,-291 1126,-291 1126,-177 1126,-133.932 1083.84,-99.2143 1055.99,-80.9784"/>
<polygon fill="midnightblue" stroke="midnightblue" points="1057.85,-78.0132 1047.52,-75.6471 1054.12,-83.9369 1057.85,-78.0132"/>
</g>
<!-- Node17 -->
<g id="node18" class="node"><title>Node17</title>
<g id="a_node18"><a xlink:href="io_8h.html" target="_top" xlink:title="io.h">
<polygon fill="white" stroke="black" points="221,-280.5 221,-299.5 253,-299.5 253,-280.5 221,-280.5"/>
<text text-anchor="middle" x="237" y="-287.5" font-family="Helvetica,sans-Serif" font-size="10.00">io.h</text>
</a>
</g>
</g>
<!-- Node0&#45;&gt;Node17 -->
<g id="edge59" class="edge"><title>Node0&#45;&gt;Node17</title>
<path fill="none" stroke="midnightblue" d="M894.128,-398.575C833.346,-392.725 676.779,-376.775 547,-356 421.686,-335.94 390.137,-330.712 267,-300 265.724,-299.682 264.421,-299.343 263.108,-298.991"/>
<polygon fill="midnightblue" stroke="midnightblue" points="263.692,-295.518 253.115,-296.138 261.77,-302.249 263.692,-295.518"/>
</g>
<!-- Node18 -->
<g id="node19" class="node"><title>Node18</title>
<g id="a_node19"><a xlink:href="compoundmodel_8h.html" target="_top" xlink:title="compoundmodel.h">
<polygon fill="white" stroke="black" points="425,-224.5 425,-243.5 521,-243.5 521,-224.5 425,-224.5"/>
<text text-anchor="middle" x="473" y="-231.5" font-family="Helvetica,sans-Serif" font-size="10.00">compoundmodel.h</text>
</a>
</g>
</g>
<!-- Node0&#45;&gt;Node18 -->
<g id="edge61" class="edge"><title>Node0&#45;&gt;Node18</title>
<path fill="none" stroke="midnightblue" d="M896.909,-392.425C822.877,-364.932 591.298,-278.932 505.447,-247.05"/>
<polygon fill="midnightblue" stroke="midnightblue" points="506.546,-243.724 495.953,-243.524 504.109,-250.287 506.546,-243.724"/>
</g>
<!-- Node29 -->
<g id="node30" class="node"><title>Node29</title>
<g id="a_node30"><a xlink:href="enumerators_8h.html" target="_top" xlink:title="enumerators.h">
<polygon fill="white" stroke="black" points="944.5,-280.5 944.5,-299.5 1023.5,-299.5 1023.5,-280.5 944.5,-280.5"/>
<text text-anchor="middle" x="984" y="-287.5" font-family="Helvetica,sans-Serif" font-size="10.00">enumerators.h</text>
</a>
</g>
</g>
<!-- Node0&#45;&gt;Node29 -->
<g id="edge65" class="edge"><title>Node0&#45;&gt;Node29</title>
<path fill="none" stroke="midnightblue" d="M925.022,-392.368C935.537,-374.296 960.043,-332.176 973.93,-308.307"/>
<polygon fill="midnightblue" stroke="midnightblue" points="976.998,-309.995 979.001,-299.591 970.947,-306.475 976.998,-309.995"/>
</g>
<!-- Node30 -->
<g id="node31" class="node"><title>Node30</title>
<polygon fill="white" stroke="#bfbfbf" points="1154.5,-336.5 1154.5,-355.5 1195.5,-355.5 1195.5,-336.5 1154.5,-336.5"/>
<text text-anchor="middle" x="1175" y="-343.5" font-family="Helvetica,sans-Serif" font-size="10.00">string</text>
</g>
<!-- Node0&#45;&gt;Node30 -->
<g id="edge60" class="edge"><title>Node0&#45;&gt;Node30</title>
<path fill="none" stroke="midnightblue" d="M945.831,-396.15C987.031,-388.317 1070.1,-372.125 1140,-356 1141.45,-355.665 1142.94,-355.315 1144.43,-354.955"/>
<polygon fill="midnightblue" stroke="midnightblue" points="1145.45,-358.308 1154.31,-352.502 1143.76,-351.515 1145.45,-358.308"/>
</g>
<!-- Node31 -->
<g id="node32" class="node"><title>Node31</title>
<g id="a_node32"><a xlink:href="workingboundary_8h.html" target="_top" xlink:title="workingboundary.h">
<polygon fill="white" stroke="black" points="1214,-336.5 1214,-355.5 1312,-355.5 1312,-336.5 1214,-336.5"/>
<text text-anchor="middle" x="1263" y="-343.5" font-family="Helvetica,sans-Serif" font-size="10.00">workingboundary.h</text>
</a>
</g>
</g>
<!-- Node0&#45;&gt;Node31 -->
<g id="edge64" class="edge"><title>Node0&#45;&gt;Node31</title>
<path fill="none" stroke="midnightblue" d="M945.501,-396.985C999.808,-388.435 1128.1,-368.237 1203.94,-356.297"/>
<polygon fill="midnightblue" stroke="midnightblue" points="1204.5,-359.754 1213.83,-354.741 1203.41,-352.839 1204.5,-359.754"/>
</g>
<!-- Node3&#45;&gt;Node2 -->
<g id="edge57" class="edge"><title>Node3&#45;&gt;Node2</title>
<path fill="none" stroke="midnightblue" d="M840.834,-341.119C760.734,-331.851 566.869,-304.541 416,-244 305.892,-199.816 189.781,-115.794 145.074,-81.813"/>
<polygon fill="midnightblue" stroke="midnightblue" points="146.943,-78.8355 136.876,-75.5317 142.686,-84.392 146.943,-78.8355"/>
</g>
<!-- Node4 -->
<g id="node5" class="node"><title>Node4</title>
<polygon fill="white" stroke="#bfbfbf" points="482,-0.5 482,-19.5 526,-19.5 526,-0.5 482,-0.5"/>
<text text-anchor="middle" x="504" y="-7.5" font-family="Helvetica,sans-Serif" font-size="10.00">vector</text>
</g>
<!-- Node3&#45;&gt;Node4 -->
<g id="edge4" class="edge"><title>Node3&#45;&gt;Node4</title>
<path fill="none" stroke="midnightblue" d="M885.684,-336.249C915.553,-302.112 1023.55,-177.532 1049,-132 1066.04,-101.513 1092.7,-81.6594 1069,-56 1032.74,-16.7393 651.15,-11.7064 536.437,-11.0823"/>
<polygon fill="midnightblue" stroke="midnightblue" points="536.206,-7.58132 526.189,-11.0347 536.173,-14.5812 536.206,-7.58132"/>
</g>
<!-- Node3&#45;&gt;Node5 -->
<g id="edge5" class="edge"><title>Node3&#45;&gt;Node5</title>
<path fill="none" stroke="midnightblue" d="M879.29,-336.075C883.068,-309.945 894.162,-233.211 899.314,-197.577"/>
<polygon fill="midnightblue" stroke="midnightblue" points="902.794,-197.966 900.761,-187.568 895.866,-196.964 902.794,-197.966"/>
</g>
<!-- Node3&#45;&gt;Node17 -->
<g id="edge24" class="edge"><title>Node3&#45;&gt;Node17</title>
<path fill="none" stroke="midnightblue" d="M840.795,-345.067C744.88,-344.635 481.687,-339.618 267,-300 265.707,-299.761 264.39,-299.487 263.066,-299.187"/>
<polygon fill="midnightblue" stroke="midnightblue" points="263.598,-295.707 253.034,-296.513 261.795,-302.471 263.598,-295.707"/>
</g>
<!-- Node27 -->
<g id="node28" class="node"><title>Node27</title>
<g id="a_node28"><a xlink:href="initializer_8h.html" target="_top" xlink:title="initializer.h">
<polygon fill="white" stroke="black" points="691.5,-280.5 691.5,-299.5 754.5,-299.5 754.5,-280.5 691.5,-280.5"/>
<text text-anchor="middle" x="723" y="-287.5" font-family="Helvetica,sans-Serif" font-size="10.00">initializer.h</text>
</a>
</g>
</g>
<!-- Node3&#45;&gt;Node27 -->
<g id="edge50" class="edge"><title>Node3&#45;&gt;Node27</title>
<path fill="none" stroke="midnightblue" d="M853.44,-336.444C827.477,-327.399 786.332,-313.064 757.203,-302.916"/>
<polygon fill="midnightblue" stroke="midnightblue" points="758.04,-299.501 747.445,-299.516 755.737,-306.112 758.04,-299.501"/>
</g>
<!-- Node3&#45;&gt;Node29 -->
<g id="edge58" class="edge"><title>Node3&#45;&gt;Node29</title>
<path fill="none" stroke="midnightblue" d="M895.031,-336.324C912.03,-327.664 938.376,-314.242 957.993,-304.249"/>
<polygon fill="midnightblue" stroke="midnightblue" points="959.69,-307.312 967.012,-299.655 956.512,-301.075 959.69,-307.312"/>
</g>
<!-- Node6 -->
<g id="node7" class="node"><title>Node6</title>
<g id="a_node7"><a xlink:href="node_8h.html" target="_top" xlink:title="node.h">
<polygon fill="white" stroke="black" points="331,-112.5 331,-131.5 377,-131.5 377,-112.5 331,-112.5"/>
<text text-anchor="middle" x="354" y="-119.5" font-family="Helvetica,sans-Serif" font-size="10.00">node.h</text>
</a>
</g>
</g>
<!-- Node5&#45;&gt;Node6 -->
<g id="edge6" class="edge"><title>Node5&#45;&gt;Node6</title>
<path fill="none" stroke="midnightblue" d="M882.851,-175.433C818.202,-170.091 602.109,-151.828 424,-132 412.066,-130.671 399.011,-129.041 387.442,-127.535"/>
<polygon fill="midnightblue" stroke="midnightblue" points="387.681,-124.036 377.31,-126.199 386.766,-130.976 387.681,-124.036"/>
</g>
<!-- Node11 -->
<g id="node12" class="node"><title>Node11</title>
<polygon fill="white" stroke="#bfbfbf" points="758,-56.5 758,-75.5 812,-75.5 812,-56.5 758,-56.5"/>
<text text-anchor="middle" x="785" y="-63.5" font-family="Helvetica,sans-Serif" font-size="10.00">iostream</text>
</g>
<!-- Node5&#45;&gt;Node11 -->
<g id="edge15" class="edge"><title>Node5&#45;&gt;Node11</title>
<path fill="none" stroke="midnightblue" d="M901.533,-168.352C900.366,-154.787 896.283,-128.369 882,-112 866.371,-94.0892 842.109,-82.8375 821.76,-76.0644"/>
<polygon fill="midnightblue" stroke="midnightblue" points="822.728,-72.7001 812.14,-73.0896 820.66,-79.3877 822.728,-72.7001"/>
</g>
<!-- Node12 -->
<g id="node13" class="node"><title>Node12</title>
<g id="a_node13"><a xlink:href="edgeheap_8h.html" target="_top" xlink:title="edgeheap.h">
<polygon fill="white" stroke="black" points="806.5,-112.5 806.5,-131.5 873.5,-131.5 873.5,-112.5 806.5,-112.5"/>
<text text-anchor="middle" x="840" y="-119.5" font-family="Helvetica,sans-Serif" font-size="10.00">edgeheap.h</text>
</a>
</g>
</g>
<!-- Node5&#45;&gt;Node12 -->
<g id="edge16" class="edge"><title>Node5&#45;&gt;Node12</title>
<path fill="none" stroke="midnightblue" d="M892.039,-168.324C882.873,-160.341 869.063,-148.313 857.972,-138.653"/>
<polygon fill="midnightblue" stroke="midnightblue" points="859.982,-135.762 850.143,-131.834 855.385,-141.041 859.982,-135.762"/>
</g>
<!-- Node5&#45;&gt;Node14 -->
<g id="edge21" class="edge"><title>Node5&#45;&gt;Node14</title>
<path fill="none" stroke="midnightblue" d="M921.289,-176.695C950.591,-175.067 1005.59,-167.194 1031,-132 1040.59,-118.714 1039.62,-99.5912 1036.99,-85.5253"/>
<polygon fill="midnightblue" stroke="midnightblue" points="1040.35,-84.4968 1034.69,-75.537 1033.52,-86.0674 1040.35,-84.4968"/>
</g>
<!-- Node15 -->
<g id="node16" class="node"><title>Node15</title>
<polygon fill="white" stroke="#bfbfbf" points="930.5,-112.5 930.5,-131.5 973.5,-131.5 973.5,-112.5 930.5,-112.5"/>
<text text-anchor="middle" x="952" y="-119.5" font-family="Helvetica,sans-Serif" font-size="10.00">QMap</text>
</g>
<!-- Node5&#45;&gt;Node15 -->
<g id="edge22" class="edge"><title>Node5&#45;&gt;Node15</title>
<path fill="none" stroke="midnightblue" d="M910.256,-168.083C917.465,-160.298 928.11,-148.801 936.846,-139.367"/>
<polygon fill="midnightblue" stroke="midnightblue" points="939.671,-141.467 943.897,-131.751 934.535,-136.711 939.671,-141.467"/>
</g>
<!-- Node16 -->
<g id="node17" class="node"><title>Node16</title>
<polygon fill="white" stroke="#bfbfbf" points="992,-112.5 992,-131.5 1022,-131.5 1022,-112.5 992,-112.5"/>
<text text-anchor="middle" x="1007" y="-119.5" font-family="Helvetica,sans-Serif" font-size="10.00">set</text>
</g>
<!-- Node5&#45;&gt;Node16 -->
<g id="edge23" class="edge"><title>Node5&#45;&gt;Node16</title>
<path fill="none" stroke="midnightblue" d="M918.87,-168.324C936.207,-159.408 963.359,-145.444 982.945,-135.371"/>
<polygon fill="midnightblue" stroke="midnightblue" points="984.584,-138.464 991.876,-130.778 981.382,-132.239 984.584,-138.464"/>
</g>
<!-- Node6&#45;&gt;Node1 -->
<g id="edge9" class="edge"><title>Node6&#45;&gt;Node1</title>
<path fill="none" stroke="midnightblue" d="M330.939,-117.329C284.389,-109.878 175.883,-92.301 85,-76 80.0475,-75.1117 74.8078,-74.14 69.6941,-73.1741"/>
<polygon fill="midnightblue" stroke="midnightblue" points="69.9855,-69.6665 59.5064,-71.2281 68.6721,-76.5422 69.9855,-69.6665"/>
</g>
<!-- Node6&#45;&gt;Node2 -->
<g id="edge10" class="edge"><title>Node6&#45;&gt;Node2</title>
<path fill="none" stroke="midnightblue" d="M330.883,-115.525C292.728,-106.488 216.028,-88.3225 168.061,-76.9619"/>
<polygon fill="midnightblue" stroke="midnightblue" points="168.823,-73.5456 158.286,-74.6467 167.21,-80.3572 168.823,-73.5456"/>
</g>
<!-- Node6&#45;&gt;Node4 -->
<g id="edge7" class="edge"><title>Node6&#45;&gt;Node4</title>
<path fill="none" stroke="midnightblue" d="M338.072,-112.413C317.098,-100.006 284.686,-76.3263 301,-56 322.086,-29.7278 420.329,-17.8447 472.015,-13.3342"/>
<polygon fill="midnightblue" stroke="midnightblue" points="472.318,-16.8212 481.994,-12.5047 471.738,-9.84522 472.318,-16.8212"/>
</g>
<!-- Node7 -->
<g id="node8" class="node"><title>Node7</title>
<polygon fill="white" stroke="#bfbfbf" points="310.5,-56.5 310.5,-75.5 349.5,-75.5 349.5,-56.5 310.5,-56.5"/>
<text text-anchor="middle" x="330" y="-63.5" font-family="Helvetica,sans-Serif" font-size="10.00">QSet</text>
</g>
<!-- Node6&#45;&gt;Node7 -->
<g id="edge8" class="edge"><title>Node6&#45;&gt;Node7</title>
<path fill="none" stroke="midnightblue" d="M350.037,-112.083C346.787,-104.77 342.081,-94.1814 338.046,-85.1034"/>
<polygon fill="midnightblue" stroke="midnightblue" points="341.149,-83.4677 333.889,-75.7511 334.752,-86.3107 341.149,-83.4677"/>
</g>
<!-- Node8 -->
<g id="node9" class="node"><title>Node8</title>
<polygon fill="white" stroke="#bfbfbf" points="368,-56.5 368,-75.5 438,-75.5 438,-56.5 368,-56.5"/>
<text text-anchor="middle" x="403" y="-63.5" font-family="Helvetica,sans-Serif" font-size="10.00">opencv/cv.h</text>
</g>
<!-- Node6&#45;&gt;Node8 -->
<g id="edge11" class="edge"><title>Node6&#45;&gt;Node8</title>
<path fill="none" stroke="midnightblue" d="M362.091,-112.083C369.155,-104.298 379.588,-92.8015 388.149,-83.3665"/>
<polygon fill="midnightblue" stroke="midnightblue" points="390.931,-85.5087 395.059,-75.7511 385.747,-80.8047 390.931,-85.5087"/>
</g>
<!-- Node9 -->
<g id="node10" class="node"><title>Node9</title>
<g id="a_node10"><a xlink:href="region_model_8h.html" target="_top" xlink:title="regionModel.h">
<polygon fill="white" stroke="black" points="176.5,-56.5 176.5,-75.5 253.5,-75.5 253.5,-56.5 176.5,-56.5"/>
<text text-anchor="middle" x="215" y="-63.5" font-family="Helvetica,sans-Serif" font-size="10.00">regionModel.h</text>
</a>
</g>
</g>
<!-- Node6&#45;&gt;Node9 -->
<g id="edge12" class="edge"><title>Node6&#45;&gt;Node9</title>
<path fill="none" stroke="midnightblue" d="M331.975,-112.444C308.896,-103.478 272.438,-89.314 246.359,-79.1827"/>
<polygon fill="midnightblue" stroke="midnightblue" points="247.511,-75.8753 236.922,-75.5164 244.976,-82.4002 247.511,-75.8753"/>
</g>
<!-- Node10 -->
<g id="node11" class="node"><title>Node10</title>
<g id="a_node11"><a xlink:href="edge_8h.html" target="_top" xlink:title="edge.h">
<polygon fill="white" stroke="black" points="532,-56.5 532,-75.5 578,-75.5 578,-56.5 532,-56.5"/>
<text text-anchor="middle" x="555" y="-63.5" font-family="Helvetica,sans-Serif" font-size="10.00">edge.h</text>
</a>
</g>
</g>
<!-- Node6&#45;&gt;Node10 -->
<g id="edge14" class="edge"><title>Node6&#45;&gt;Node10</title>
<path fill="none" stroke="midnightblue" d="M377.057,-114.806C412.705,-105.228 481.338,-86.7899 522.16,-75.8226"/>
<polygon fill="midnightblue" stroke="midnightblue" points="523.153,-79.18 531.903,-73.2052 521.337,-72.4197 523.153,-79.18"/>
</g>
<!-- Node9&#45;&gt;Node4 -->
<g id="edge13" class="edge"><title>Node9&#45;&gt;Node4</title>
<path fill="none" stroke="midnightblue" d="M253.676,-57.7734C311.21,-47.0231 418.29,-27.015 471.811,-17.0146"/>
<polygon fill="midnightblue" stroke="midnightblue" points="472.583,-20.4309 481.77,-15.1536 471.298,-13.55 472.583,-20.4309"/>
</g>
<!-- Node12&#45;&gt;Node4 -->
<g id="edge17" class="edge"><title>Node12&#45;&gt;Node4</title>
<path fill="none" stroke="midnightblue" d="M840.223,-112.289C840.07,-98.142 837.531,-70.3157 821,-56 778.934,-19.5703 608.758,-12.5983 536.598,-11.2896"/>
<polygon fill="midnightblue" stroke="midnightblue" points="536.344,-7.78537 526.291,-11.1297 536.235,-14.7845 536.344,-7.78537"/>
</g>
<!-- Node12&#45;&gt;Node10 -->
<g id="edge18" class="edge"><title>Node12&#45;&gt;Node10</title>
<path fill="none" stroke="midnightblue" d="M806.23,-116.073C759.376,-109.003 671.838,-94.9481 587.948,-76.0306"/>
<polygon fill="midnightblue" stroke="midnightblue" points="588.531,-72.5738 578.003,-73.7608 586.973,-79.3983 588.531,-72.5738"/>
</g>
<!-- Node13 -->
<g id="node14" class="node"><title>Node13</title>
<polygon fill="white" stroke="#bfbfbf" points="596.5,-56.5 596.5,-75.5 643.5,-75.5 643.5,-56.5 596.5,-56.5"/>
<text text-anchor="middle" x="620" y="-63.5" font-family="Helvetica,sans-Serif" font-size="10.00">math.h</text>
</g>
<!-- Node12&#45;&gt;Node13 -->
<g id="edge19" class="edge"><title>Node12&#45;&gt;Node13</title>
<path fill="none" stroke="midnightblue" d="M806.107,-112.681C764.661,-102.508 694.943,-85.395 653.621,-75.2524"/>
<polygon fill="midnightblue" stroke="midnightblue" points="654.308,-71.8172 643.762,-72.8325 652.639,-78.6154 654.308,-71.8172"/>
</g>
<!-- Node12&#45;&gt;Node14 -->
<g id="edge20" class="edge"><title>Node12&#45;&gt;Node14</title>
<path fill="none" stroke="midnightblue" d="M870.423,-112.444C903.961,-103.011 957.955,-87.8252 994.189,-77.6345"/>
<polygon fill="midnightblue" stroke="midnightblue" points="995.227,-80.9783 1003.91,-74.9015 993.332,-74.2398 995.227,-80.9783"/>
</g>
<!-- Node17&#45;&gt;Node1 -->
<g id="edge25" class="edge"><title>Node17&#45;&gt;Node1</title>
<path fill="none" stroke="midnightblue" d="M220.956,-288.509C191.823,-286.745 130.009,-278.846 95,-244 50.8168,-200.022 40.8572,-121.681 38.6303,-85.8399"/>
<polygon fill="midnightblue" stroke="midnightblue" points="42.1235,-85.6135 38.1454,-75.7939 35.1317,-85.951 42.1235,-85.6135"/>
</g>
<!-- Node17&#45;&gt;Node2 -->
<g id="edge26" class="edge"><title>Node17&#45;&gt;Node2</title>
<path fill="none" stroke="midnightblue" d="M235.008,-280.364C231.94,-267.698 225.508,-243.475 217,-224 193.656,-170.569 156.503,-112.335 137.708,-84.1703"/>
<polygon fill="midnightblue" stroke="midnightblue" points="140.574,-82.1603 132.085,-75.8218 134.769,-86.0711 140.574,-82.1603"/>
</g>
<!-- Node17&#45;&gt;Node6 -->
<g id="edge28" class="edge"><title>Node17&#45;&gt;Node6</title>
<path fill="none" stroke="midnightblue" d="M243.29,-280.075C262.026,-253.493 317.675,-174.538 342.185,-139.763"/>
<polygon fill="midnightblue" stroke="midnightblue" points="345.061,-141.758 347.961,-131.568 339.339,-137.726 345.061,-141.758"/>
</g>
<!-- Node17&#45;&gt;Node11 -->
<g id="edge27" class="edge"><title>Node17&#45;&gt;Node11</title>
<path fill="none" stroke="midnightblue" d="M253.097,-288.698C298.2,-287.399 429.099,-280.511 530,-244 620.739,-211.166 639.109,-190.305 716,-132 735.951,-116.871 756.559,-96.7673 769.996,-82.9447"/>
<polygon fill="midnightblue" stroke="midnightblue" points="772.626,-85.2582 777.02,-75.6172 767.573,-80.4143 772.626,-85.2582"/>
</g>
<!-- Node17&#45;&gt;Node18 -->
<g id="edge29" class="edge"><title>Node17&#45;&gt;Node18</title>
<path fill="none" stroke="midnightblue" d="M253.221,-285.288C288.246,-277.274 372.09,-258.09 425.503,-245.868"/>
<polygon fill="midnightblue" stroke="midnightblue" points="426.462,-249.239 435.43,-243.597 424.901,-242.415 426.462,-249.239"/>
</g>
<!-- Node24 -->
<g id="node25" class="node"><title>Node24</title>
<polygon fill="white" stroke="#bfbfbf" points="590,-224.5 590,-243.5 640,-243.5 640,-224.5 590,-224.5"/>
<text text-anchor="middle" x="615" y="-231.5" font-family="Helvetica,sans-Serif" font-size="10.00">fstream</text>
</g>
<!-- Node17&#45;&gt;Node24 -->
<g id="edge47" class="edge"><title>Node17&#45;&gt;Node24</title>
<path fill="none" stroke="midnightblue" d="M253.316,-287.389C302.371,-282.428 452.739,-266.352 576,-244 577.269,-243.77 578.559,-243.526 579.861,-243.271"/>
<polygon fill="midnightblue" stroke="midnightblue" points="580.831,-246.644 589.897,-241.162 579.391,-239.793 580.831,-246.644"/>
</g>
<!-- Node25 -->
<g id="node26" class="node"><title>Node25</title>
<polygon fill="white" stroke="#bfbfbf" points="104.5,-224.5 104.5,-243.5 149.5,-243.5 149.5,-224.5 104.5,-224.5"/>
<text text-anchor="middle" x="127" y="-231.5" font-family="Helvetica,sans-Serif" font-size="10.00">cstdlib</text>
</g>
<!-- Node17&#45;&gt;Node25 -->
<g id="edge48" class="edge"><title>Node17&#45;&gt;Node25</title>
<path fill="none" stroke="midnightblue" d="M220.769,-281.032C203.045,-272.331 174.391,-258.265 153.418,-247.969"/>
<polygon fill="midnightblue" stroke="midnightblue" points="154.907,-244.801 144.388,-243.536 151.822,-251.085 154.907,-244.801"/>
</g>
<!-- Node26 -->
<g id="node27" class="node"><title>Node26</title>
<polygon fill="white" stroke="#bfbfbf" points="167.5,-224.5 167.5,-243.5 208.5,-243.5 208.5,-224.5 167.5,-224.5"/>
<text text-anchor="middle" x="188" y="-231.5" font-family="Helvetica,sans-Serif" font-size="10.00">ctime</text>
</g>
<!-- Node17&#45;&gt;Node26 -->
<g id="edge49" class="edge"><title>Node17&#45;&gt;Node26</title>
<path fill="none" stroke="midnightblue" d="M228.909,-280.083C221.845,-272.298 211.412,-260.801 202.851,-251.367"/>
<polygon fill="midnightblue" stroke="midnightblue" points="205.253,-248.805 195.941,-243.751 200.069,-253.509 205.253,-248.805"/>
</g>
<!-- Node18&#45;&gt;Node9 -->
<g id="edge30" class="edge"><title>Node18&#45;&gt;Node9</title>
<path fill="none" stroke="midnightblue" d="M452.385,-224.43C416.128,-208.864 339.354,-173.672 282,-132 262.053,-117.507 242.151,-97.2829 229.286,-83.2585"/>
<polygon fill="midnightblue" stroke="midnightblue" points="231.869,-80.8971 222.577,-75.8077 226.667,-85.5811 231.869,-80.8971"/>
</g>
<!-- Node19 -->
<g id="node20" class="node"><title>Node19</title>
<g id="a_node20"><a xlink:href="histogrammodel_8h.html" target="_top" xlink:title="histogrammodel.h">
<polygon fill="white" stroke="black" points="412,-168.5 412,-187.5 506,-187.5 506,-168.5 412,-168.5"/>
<text text-anchor="middle" x="459" y="-175.5" font-family="Helvetica,sans-Serif" font-size="10.00">histogrammodel.h</text>
</a>
</g>
</g>
<!-- Node18&#45;&gt;Node19 -->
<g id="edge31" class="edge"><title>Node18&#45;&gt;Node19</title>
<path fill="none" stroke="midnightblue" d="M470.688,-224.083C468.833,-216.927 466.165,-206.635 463.846,-197.691"/>
<polygon fill="midnightblue" stroke="midnightblue" points="467.166,-196.553 461.269,-187.751 460.391,-198.309 467.166,-196.553"/>
</g>
<!-- Node23 -->
<g id="node24" class="node"><title>Node23</title>
<g id="a_node24"><a xlink:href="probabilitymodel_8h.html" target="_top" xlink:title="probabilitymodel.h">
<polygon fill="white" stroke="black" points="495.5,-112.5 495.5,-131.5 590.5,-131.5 590.5,-112.5 495.5,-112.5"/>
<text text-anchor="middle" x="543" y="-119.5" font-family="Helvetica,sans-Serif" font-size="10.00">probabilitymodel.h</text>
</a>
</g>
</g>
<!-- Node18&#45;&gt;Node23 -->
<g id="edge42" class="edge"><title>Node18&#45;&gt;Node23</title>
<path fill="none" stroke="midnightblue" d="M482.692,-224.479C491.929,-215.963 505.763,-202.134 515,-188 524.547,-173.391 532.119,-154.985 536.969,-141.491"/>
<polygon fill="midnightblue" stroke="midnightblue" points="540.329,-142.484 540.261,-131.89 533.707,-140.214 540.329,-142.484"/>
</g>
<!-- Node19&#45;&gt;Node4 -->
<g id="edge40" class="edge"><title>Node19&#45;&gt;Node4</title>
<path fill="none" stroke="midnightblue" d="M448.71,-168.166C435.909,-156.038 416.585,-133.304 424,-112 430.643,-92.9133 467.765,-50.4516 489.03,-27.1222"/>
<polygon fill="midnightblue" stroke="midnightblue" points="491.626,-29.4697 495.814,-19.7378 486.471,-24.7338 491.626,-29.4697"/>
</g>
<!-- Node19&#45;&gt;Node6 -->
<g id="edge33" class="edge"><title>Node19&#45;&gt;Node6</title>
<path fill="none" stroke="midnightblue" d="M442.13,-168.324C425.291,-159.664 399.193,-146.242 379.762,-136.249"/>
<polygon fill="midnightblue" stroke="midnightblue" points="381.322,-133.116 370.828,-131.655 378.12,-139.341 381.322,-133.116"/>
</g>
<!-- Node19&#45;&gt;Node9 -->
<g id="edge32" class="edge"><title>Node19&#45;&gt;Node9</title>
<path fill="none" stroke="midnightblue" d="M426.093,-168.481C397.83,-160.629 356.336,-147.815 322,-132 290.357,-117.426 256.394,-95.6212 235.419,-81.3534"/>
<polygon fill="midnightblue" stroke="midnightblue" points="237.232,-78.3519 227.011,-75.5622 233.261,-84.1169 237.232,-78.3519"/>
</g>
<!-- Node19&#45;&gt;Node11 -->
<g id="edge39" class="edge"><title>Node19&#45;&gt;Node11</title>
<path fill="none" stroke="midnightblue" d="M506.114,-172.52C552.252,-166.983 623.889,-155.28 682,-132 713.66,-119.317 746.314,-96.812 766.14,-81.8974"/>
<polygon fill="midnightblue" stroke="midnightblue" points="768.492,-84.5043 774.297,-75.6413 764.232,-78.9497 768.492,-84.5043"/>
</g>
<!-- Node20 -->
<g id="node21" class="node"><title>Node20</title>
<g id="a_node21"><a xlink:href="statistics_8h.html" target="_top" xlink:title="statistics.h">
<polygon fill="white" stroke="black" points="608.5,-112.5 608.5,-131.5 673.5,-131.5 673.5,-112.5 608.5,-112.5"/>
<text text-anchor="middle" x="641" y="-119.5" font-family="Helvetica,sans-Serif" font-size="10.00">statistics.h</text>
</a>
</g>
</g>
<!-- Node19&#45;&gt;Node20 -->
<g id="edge34" class="edge"><title>Node19&#45;&gt;Node20</title>
<path fill="none" stroke="midnightblue" d="M487.838,-168.444C518.856,-159.241 568.329,-144.562 602.618,-134.388"/>
<polygon fill="midnightblue" stroke="midnightblue" points="603.705,-137.716 612.296,-131.516 601.714,-131.006 603.705,-137.716"/>
</g>
<!-- Node22 -->
<g id="node23" class="node"><title>Node22</title>
<polygon fill="white" stroke="#bfbfbf" points="433,-112.5 433,-131.5 477,-131.5 477,-112.5 433,-112.5"/>
<text text-anchor="middle" x="455" y="-119.5" font-family="Helvetica,sans-Serif" font-size="10.00">omp.h</text>
</g>
<!-- Node19&#45;&gt;Node22 -->
<g id="edge41" class="edge"><title>Node19&#45;&gt;Node22</title>
<path fill="none" stroke="midnightblue" d="M458.339,-168.083C457.815,-161.006 457.064,-150.861 456.406,-141.986"/>
<polygon fill="midnightblue" stroke="midnightblue" points="459.877,-141.465 455.648,-131.751 452.897,-141.982 459.877,-141.465"/>
</g>
<!-- Node20&#45;&gt;Node4 -->
<g id="edge35" class="edge"><title>Node20&#45;&gt;Node4</title>
<path fill="none" stroke="midnightblue" d="M646.097,-112.482C653.371,-99.096 664.539,-72.9189 652,-56 625.48,-20.2175 571.208,-11.9111 536.271,-10.4985"/>
<polygon fill="midnightblue" stroke="midnightblue" points="536.181,-6.99555 526.101,-10.2587 536.016,-13.9936 536.181,-6.99555"/>
</g>
<!-- Node20&#45;&gt;Node11 -->
<g id="edge37" class="edge"><title>Node20&#45;&gt;Node11</title>
<path fill="none" stroke="midnightblue" d="M663.817,-112.444C687.832,-103.438 725.829,-89.1891 752.869,-79.049"/>
<polygon fill="midnightblue" stroke="midnightblue" points="754.155,-82.3049 762.29,-75.5164 751.697,-75.7506 754.155,-82.3049"/>
</g>
<!-- Node20&#45;&gt;Node13 -->
<g id="edge36" class="edge"><title>Node20&#45;&gt;Node13</title>
<path fill="none" stroke="midnightblue" d="M637.532,-112.083C634.688,-104.77 630.571,-94.1814 627.04,-85.1034"/>
<polygon fill="midnightblue" stroke="midnightblue" points="630.29,-83.8025 623.403,-75.7511 623.766,-86.3397 630.29,-83.8025"/>
</g>
<!-- Node21 -->
<g id="node22" class="node"><title>Node21</title>
<polygon fill="white" stroke="#bfbfbf" points="700,-56.5 700,-75.5 740,-75.5 740,-56.5 700,-56.5"/>
<text text-anchor="middle" x="720" y="-63.5" font-family="Helvetica,sans-Serif" font-size="10.00">limits</text>
</g>
<!-- Node20&#45;&gt;Node21 -->
<g id="edge38" class="edge"><title>Node20&#45;&gt;Node21</title>
<path fill="none" stroke="midnightblue" d="M653.693,-112.324C665.901,-103.979 684.578,-91.2122 699.003,-81.3524"/>
<polygon fill="midnightblue" stroke="midnightblue" points="701.058,-84.1871 707.339,-75.6545 697.108,-78.4082 701.058,-84.1871"/>
</g>
<!-- Node23&#45;&gt;Node4 -->
<g id="edge44" class="edge"><title>Node23&#45;&gt;Node4</title>
<path fill="none" stroke="midnightblue" d="M538.658,-112.18C534.343,-103.211 527.707,-88.8435 523,-76 517.311,-60.4766 512.138,-42.394 508.632,-29.2481"/>
<polygon fill="midnightblue" stroke="midnightblue" points="512.009,-28.3275 506.104,-19.5311 505.235,-30.0902 512.009,-28.3275"/>
</g>
<!-- Node23&#45;&gt;Node9 -->
<g id="edge43" class="edge"><title>Node23&#45;&gt;Node9</title>
<path fill="none" stroke="midnightblue" d="M495.306,-113.148C433.369,-102.951 325.835,-85.2472 263.504,-74.9854"/>
<polygon fill="midnightblue" stroke="midnightblue" points="263.965,-71.5144 253.53,-73.3433 262.828,-78.4214 263.965,-71.5144"/>
</g>
<!-- Node23&#45;&gt;Node11 -->
<g id="edge46" class="edge"><title>Node23&#45;&gt;Node11</title>
<path fill="none" stroke="midnightblue" d="M583.731,-112.478C623.232,-104.13 685.108,-90.8329 747.825,-76.224"/>
<polygon fill="midnightblue" stroke="midnightblue" points="748.954,-79.5544 757.894,-73.8687 747.36,-72.7383 748.954,-79.5544"/>
</g>
<!-- Node23&#45;&gt;Node13 -->
<g id="edge45" class="edge"><title>Node23&#45;&gt;Node13</title>
<path fill="none" stroke="midnightblue" d="M555.371,-112.324C567.158,-104.058 585.132,-91.4527 599.136,-81.6322"/>
<polygon fill="midnightblue" stroke="midnightblue" points="601.482,-84.2619 607.659,-75.6545 597.462,-78.5307 601.482,-84.2619"/>
</g>
<!-- Node27&#45;&gt;Node5 -->
<g id="edge51" class="edge"><title>Node27&#45;&gt;Node5</title>
<path fill="none" stroke="midnightblue" d="M737.046,-280.368C767.893,-261.412 841.79,-216.001 879.312,-192.942"/>
<polygon fill="midnightblue" stroke="midnightblue" points="881.332,-195.809 888.019,-187.591 877.667,-189.845 881.332,-195.809"/>
</g>
<!-- Node27&#45;&gt;Node11 -->
<g id="edge55" class="edge"><title>Node27&#45;&gt;Node11</title>
<path fill="none" stroke="midnightblue" d="M732.057,-280.258C740.237,-271.791 751.899,-258.183 758,-244 781.293,-189.848 784.892,-118.795 785.193,-85.5978"/>
<polygon fill="midnightblue" stroke="midnightblue" points="788.693,-85.5224 785.189,-75.5239 781.693,-85.5254 788.693,-85.5224"/>
</g>
<!-- Node27&#45;&gt;Node18 -->
<g id="edge54" class="edge"><title>Node27&#45;&gt;Node18</title>
<path fill="none" stroke="midnightblue" d="M691.337,-282.161C648.807,-272.974 572.783,-256.553 522.616,-245.717"/>
<polygon fill="midnightblue" stroke="midnightblue" points="523.148,-242.251 512.635,-243.561 521.67,-249.094 523.148,-242.251"/>
</g>
<!-- Node27&#45;&gt;Node19 -->
<g id="edge52" class="edge"><title>Node27&#45;&gt;Node19</title>
<path fill="none" stroke="midnightblue" d="M715.766,-280.351C703.519,-266.293 677.26,-238.592 649,-224 607.388,-202.513 555.353,-191.112 516.265,-185.168"/>
<polygon fill="midnightblue" stroke="midnightblue" points="516.511,-181.668 506.113,-183.703 515.51,-188.596 516.511,-181.668"/>
</g>
<!-- Node27&#45;&gt;Node24 -->
<g id="edge56" class="edge"><title>Node27&#45;&gt;Node24</title>
<path fill="none" stroke="midnightblue" d="M705.648,-280.324C688.328,-271.664 661.485,-258.242 641.498,-248.249"/>
<polygon fill="midnightblue" stroke="midnightblue" points="642.819,-244.996 632.309,-243.655 639.688,-251.257 642.819,-244.996"/>
</g>
<!-- Node28 -->
<g id="node29" class="node"><title>Node28</title>
<polygon fill="white" stroke="#bfbfbf" points="696.5,-224.5 696.5,-243.5 749.5,-243.5 749.5,-224.5 696.5,-224.5"/>
<text text-anchor="middle" x="723" y="-231.5" font-family="Helvetica,sans-Serif" font-size="10.00">QDebug</text>
</g>
<!-- Node27&#45;&gt;Node28 -->
<g id="edge53" class="edge"><title>Node27&#45;&gt;Node28</title>
<path fill="none" stroke="midnightblue" d="M723,-280.083C723,-273.006 723,-262.861 723,-253.986"/>
<polygon fill="midnightblue" stroke="midnightblue" points="726.5,-253.751 723,-243.751 719.5,-253.751 726.5,-253.751"/>
</g>
</g>
</svg>
