<?xml version="1.0" encoding="UTF-8" standalone="no"?>
<!DOCTYPE svg PUBLIC "-//W3C//DTD SVG 1.1//EN"
 "http://www.w3.org/Graphics/SVG/1.1/DTD/svg11.dtd">
<!-- Generated by graphviz version 2.38.0 (20140413.2041)
 -->
<!-- Title: image.cpp Pages: 1 -->
<!--zoomable 476 -->
<svg id="main" version="1.1" xmlns="http://www.w3.org/2000/svg" xmlns:xlink="http://www.w3.org/1999/xlink" xml:space="preserve" onload="init(evt)">
<style type="text/css"><![CDATA[
.edge:hover path { stroke: red; }
.edge:hover polygon { stroke: red; fill: red; }
]]></style>
<script type="text/javascript"><![CDATA[
var edges = document.getElementsByTagName('g');
if (edges && edges.length) {
  for (var i=0;i<edges.length;i++) {
    if (edges[i].id.substr(0,4)=='edge') {
      edges[i].setAttribute('class','edge');
    }
  }
}
]]></script>
        <defs>
                <circle id="rim" cx="0" cy="0" r="7"/>
                <circle id="rim2" cx="0" cy="0" r="3.5"/>
                <g id="zoomPlus">
                        <use xlink:href="#rim" fill="#404040">
                                <set attributeName="fill" to="#808080" begin="zoomplus.mouseover" end="zoomplus.mouseout"/>
                        </use>
                        <path d="M-4,0h8M0,-4v8" fill="none" stroke="white" stroke-width="1.5" pointer-events="none"/>
                </g>
                <g id="zoomMin">
                        <use xlink:href="#rim" fill="#404040">
                                <set attributeName="fill" to="#808080" begin="zoomminus.mouseover" end="zoomminus.mouseout"/>
                        </use>
                        <path d="M-4,0h8" fill="none" stroke="white" stroke-width="1.5" pointer-events="none"/>
                </g>
                <g id="dirArrow">
                        <path fill="none" stroke="white" stroke-width="1.5" d="M0,-3.0v7 M-2.5,-0.5L0,-3.0L2.5,-0.5"/>
                </g>
               <g id="resetDef">
                       <use xlink:href="#rim2" fill="#404040">
                               <set attributeName="fill" to="#808080" begin="reset.mouseover" end="reset.mouseout"/>
                       </use>
               </g>
        </defs>

<script type="text/javascript">
var viewWidth = 1060;
var viewHeight = 476;
var sectionId = 'dynsection-0';
</script>
<script xlink:href="svgpan.js"/>
<svg id="graph" class="graph">
<g id="viewport">
<title>image.cpp</title>
<polygon fill="white" stroke="none" points="-4,4 -4,-472 1055.5,-472 1055.5,4 -4,4"/>
<!-- Node1 -->
<g id="node1" class="node"><title>Node1</title>
<polygon fill="#bfbfbf" stroke="black" points="801,-448.5 801,-467.5 863,-467.5 863,-448.5 801,-448.5"/>
<text text-anchor="middle" x="832" y="-455.5" font-family="Helvetica,sans-Serif" font-size="10.00">image.cpp</text>
</g>
<!-- Node2 -->
<g id="node2" class="node"><title>Node2</title>
<g id="a_node2"><a xlink:href="image_8h.html" target="_top" xlink:title="image.h">
<polygon fill="white" stroke="black" points="414.5,-392.5 414.5,-411.5 465.5,-411.5 465.5,-392.5 414.5,-392.5"/>
<text text-anchor="middle" x="440" y="-399.5" font-family="Helvetica,sans-Serif" font-size="10.00">image.h</text>
</a>
</g>
</g>
<!-- Node1&#45;&gt;Node2 -->
<g id="edge1" class="edge"><title>Node1&#45;&gt;Node2</title>
<path fill="none" stroke="midnightblue" d="M800.913,-452.718C729.051,-442.818 551.773,-418.397 475.658,-407.912"/>
<polygon fill="midnightblue" stroke="midnightblue" points="475.995,-404.426 465.611,-406.528 475.04,-411.36 475.995,-404.426"/>
</g>
<!-- Node20 -->
<g id="node20" class="node"><title>Node20</title>
<g id="a_node20"><a xlink:href="compoundmodel_8h.html" target="_top" xlink:title="compoundmodel.h">
<polygon fill="white" stroke="black" points="785,-224.5 785,-243.5 881,-243.5 881,-224.5 785,-224.5"/>
<text text-anchor="middle" x="833" y="-231.5" font-family="Helvetica,sans-Serif" font-size="10.00">compoundmodel.h</text>
</a>
</g>
</g>
<!-- Node1&#45;&gt;Node20 -->
<g id="edge68" class="edge"><title>Node1&#45;&gt;Node20</title>
<path fill="none" stroke="midnightblue" d="M832.039,-448.297C832.186,-415.633 832.708,-299.866 832.915,-253.957"/>
<polygon fill="midnightblue" stroke="midnightblue" points="836.415,-253.899 832.96,-243.884 829.415,-253.868 836.415,-253.899"/>
</g>
<!-- Node34 -->
<g id="node34" class="node"><title>Node34</title>
<polygon fill="white" stroke="#bfbfbf" points="860.5,-392.5 860.5,-411.5 941.5,-411.5 941.5,-392.5 860.5,-392.5"/>
<text text-anchor="middle" x="901" y="-399.5" font-family="Helvetica,sans-Serif" font-size="10.00">QMessageBox</text>
</g>
<!-- Node1&#45;&gt;Node34 -->
<g id="edge67" class="edge"><title>Node1&#45;&gt;Node34</title>
<path fill="none" stroke="midnightblue" d="M843.086,-448.324C853.486,-440.185 869.261,-427.839 881.722,-418.087"/>
<polygon fill="midnightblue" stroke="midnightblue" points="883.994,-420.753 889.712,-411.834 879.68,-415.241 883.994,-420.753"/>
</g>
<!-- Node3 -->
<g id="node3" class="node"><title>Node3</title>
<polygon fill="white" stroke="#bfbfbf" points="90.5,-56.5 90.5,-75.5 133.5,-75.5 133.5,-56.5 90.5,-56.5"/>
<text text-anchor="middle" x="112" y="-63.5" font-family="Helvetica,sans-Serif" font-size="10.00">gdal.h</text>
</g>
<!-- Node2&#45;&gt;Node3 -->
<g id="edge2" class="edge"><title>Node2&#45;&gt;Node3</title>
<path fill="none" stroke="midnightblue" d="M414.434,-395.446C356.114,-381.352 212.977,-338.408 144,-244 108.746,-195.748 108.317,-120.728 110.348,-85.9231"/>
<polygon fill="midnightblue" stroke="midnightblue" points="113.852,-85.9848 111.084,-75.758 106.871,-85.479 113.852,-85.9848"/>
</g>
<!-- Node4 -->
<g id="node4" class="node"><title>Node4</title>
<polygon fill="white" stroke="#bfbfbf" points="7,-56.5 7,-75.5 71,-75.5 71,-56.5 7,-56.5"/>
<text text-anchor="middle" x="39" y="-63.5" font-family="Helvetica,sans-Serif" font-size="10.00">gdal_priv.h</text>
</g>
<!-- Node2&#45;&gt;Node4 -->
<g id="edge3" class="edge"><title>Node2&#45;&gt;Node4</title>
<path fill="none" stroke="midnightblue" d="M414.412,-399.546C343.073,-395.215 143.257,-381.113 83,-356 39.7512,-337.975 0,-337.855 0,-291 0,-291 0,-291 0,-177 0,-142.716 17.0373,-105.698 28.5903,-84.5372"/>
<polygon fill="midnightblue" stroke="midnightblue" points="31.6852,-86.175 33.5772,-75.7504 25.5973,-82.7198 31.6852,-86.175"/>
</g>
<!-- Node5 -->
<g id="node5" class="node"><title>Node5</title>
<g id="a_node5"><a xlink:href="imageblock_8h.html" target="_top" xlink:title="imageblock.h">
<polygon fill="white" stroke="black" points="595,-336.5 595,-355.5 669,-355.5 669,-336.5 595,-336.5"/>
<text text-anchor="middle" x="632" y="-343.5" font-family="Helvetica,sans-Serif" font-size="10.00">imageblock.h</text>
</a>
</g>
</g>
<!-- Node2&#45;&gt;Node5 -->
<g id="edge4" class="edge"><title>Node2&#45;&gt;Node5</title>
<path fill="none" stroke="midnightblue" d="M465.894,-393.717C498.217,-384.626 553.855,-368.978 591.752,-358.32"/>
<polygon fill="midnightblue" stroke="midnightblue" points="592.779,-361.667 601.458,-355.59 590.884,-354.928 592.779,-361.667"/>
</g>
<!-- Node7 -->
<g id="node7" class="node"><title>Node7</title>
<g id="a_node7"><a xlink:href="rag_8h.html" target="_top" xlink:title="rag.h">
<polygon fill="white" stroke="black" points="408,-168.5 408,-187.5 446,-187.5 446,-168.5 408,-168.5"/>
<text text-anchor="middle" x="427" y="-175.5" font-family="Helvetica,sans-Serif" font-size="10.00">rag.h</text>
</a>
</g>
</g>
<!-- Node2&#45;&gt;Node7 -->
<g id="edge64" class="edge"><title>Node2&#45;&gt;Node7</title>
<path fill="none" stroke="midnightblue" d="M431.786,-392.182C424.456,-383.663 414.245,-370.019 410,-356 393.041,-299.99 410.521,-229.873 420.734,-197.255"/>
<polygon fill="midnightblue" stroke="midnightblue" points="424.075,-198.298 423.859,-187.706 417.423,-196.121 424.075,-198.298"/>
</g>
<!-- Node16 -->
<g id="node16" class="node"><title>Node16</title>
<polygon fill="white" stroke="#bfbfbf" points="152,-56.5 152,-75.5 208,-75.5 208,-56.5 152,-56.5"/>
<text text-anchor="middle" x="180" y="-63.5" font-family="Helvetica,sans-Serif" font-size="10.00">algorithm</text>
</g>
<!-- Node2&#45;&gt;Node16 -->
<g id="edge63" class="edge"><title>Node2&#45;&gt;Node16</title>
<path fill="none" stroke="midnightblue" d="M414.364,-399.524C338.768,-394.911 120.726,-379.649 100,-356 27.8053,-273.621 128.324,-131.434 166.42,-83.3979"/>
<polygon fill="midnightblue" stroke="midnightblue" points="169.19,-85.5383 172.751,-75.5598 163.745,-81.1396 169.19,-85.5383"/>
</g>
<!-- Node19 -->
<g id="node19" class="node"><title>Node19</title>
<g id="a_node19"><a xlink:href="io_8h.html" target="_top" xlink:title="io.h">
<polygon fill="white" stroke="black" points="335,-280.5 335,-299.5 367,-299.5 367,-280.5 335,-280.5"/>
<text text-anchor="middle" x="351" y="-287.5" font-family="Helvetica,sans-Serif" font-size="10.00">io.h</text>
</a>
</g>
</g>
<!-- Node2&#45;&gt;Node19 -->
<g id="edge60" class="edge"><title>Node2&#45;&gt;Node19</title>
<path fill="none" stroke="midnightblue" d="M422.944,-392.401C408.939,-384.583 389.449,-371.859 377,-356 366.222,-342.271 359.355,-323.49 355.402,-309.646"/>
<polygon fill="midnightblue" stroke="midnightblue" points="358.743,-308.588 352.838,-299.792 351.969,-310.351 358.743,-308.588"/>
</g>
<!-- Node2&#45;&gt;Node20 -->
<g id="edge62" class="edge"><title>Node2&#45;&gt;Node20</title>
<path fill="none" stroke="midnightblue" d="M465.857,-400.943C514.411,-399.909 621.571,-393.193 702,-356 754.261,-331.832 799.727,-278.92 820.689,-251.782"/>
<polygon fill="midnightblue" stroke="midnightblue" points="823.6,-253.735 826.832,-243.645 818.013,-249.517 823.6,-253.735"/>
</g>
<!-- Node31 -->
<g id="node31" class="node"><title>Node31</title>
<g id="a_node31"><a xlink:href="enumerators_8h.html" target="_top" xlink:title="enumerators.h">
<polygon fill="white" stroke="black" points="681.5,-280.5 681.5,-299.5 760.5,-299.5 760.5,-280.5 681.5,-280.5"/>
<text text-anchor="middle" x="721" y="-287.5" font-family="Helvetica,sans-Serif" font-size="10.00">enumerators.h</text>
</a>
</g>
</g>
<!-- Node2&#45;&gt;Node31 -->
<g id="edge66" class="edge"><title>Node2&#45;&gt;Node31</title>
<path fill="none" stroke="midnightblue" d="M465.775,-398.666C519.917,-393.361 643.329,-379.045 678,-356 695.03,-344.681 706.938,-324.074 713.837,-309.09"/>
<polygon fill="midnightblue" stroke="midnightblue" points="717.097,-310.368 717.814,-299.797 710.662,-307.613 717.097,-310.368"/>
</g>
<!-- Node32 -->
<g id="node32" class="node"><title>Node32</title>
<polygon fill="white" stroke="#bfbfbf" points="419.5,-336.5 419.5,-355.5 460.5,-355.5 460.5,-336.5 419.5,-336.5"/>
<text text-anchor="middle" x="440" y="-343.5" font-family="Helvetica,sans-Serif" font-size="10.00">string</text>
</g>
<!-- Node2&#45;&gt;Node32 -->
<g id="edge61" class="edge"><title>Node2&#45;&gt;Node32</title>
<path fill="none" stroke="midnightblue" d="M440,-392.083C440,-385.006 440,-374.861 440,-365.986"/>
<polygon fill="midnightblue" stroke="midnightblue" points="443.5,-365.751 440,-355.751 436.5,-365.751 443.5,-365.751"/>
</g>
<!-- Node33 -->
<g id="node33" class="node"><title>Node33</title>
<g id="a_node33"><a xlink:href="workingboundary_8h.html" target="_top" xlink:title="workingboundary.h">
<polygon fill="white" stroke="black" points="479,-336.5 479,-355.5 577,-355.5 577,-336.5 479,-336.5"/>
<text text-anchor="middle" x="528" y="-343.5" font-family="Helvetica,sans-Serif" font-size="10.00">workingboundary.h</text>
</a>
</g>
</g>
<!-- Node2&#45;&gt;Node33 -->
<g id="edge65" class="edge"><title>Node2&#45;&gt;Node33</title>
<path fill="none" stroke="midnightblue" d="M454.139,-392.324C467.866,-383.9 488.936,-370.971 505.064,-361.074"/>
<polygon fill="midnightblue" stroke="midnightblue" points="507.204,-363.868 513.896,-355.655 503.543,-357.902 507.204,-363.868"/>
</g>
<!-- Node5&#45;&gt;Node4 -->
<g id="edge58" class="edge"><title>Node5&#45;&gt;Node4</title>
<path fill="none" stroke="midnightblue" d="M594.875,-337.553C591.876,-337.007 588.89,-336.482 586,-336 463.861,-315.612 38,-358.829 38,-235 38,-235 38,-235 38,-177 38,-144.947 38.4298,-107.642 38.7259,-85.7484"/>
<polygon fill="midnightblue" stroke="midnightblue" points="42.2281,-85.6058 38.8693,-75.5575 35.2288,-85.5073 42.2281,-85.6058"/>
</g>
<!-- Node6 -->
<g id="node6" class="node"><title>Node6</title>
<polygon fill="white" stroke="#bfbfbf" points="724,-0.5 724,-19.5 768,-19.5 768,-0.5 724,-0.5"/>
<text text-anchor="middle" x="746" y="-7.5" font-family="Helvetica,sans-Serif" font-size="10.00">vector</text>
</g>
<!-- Node5&#45;&gt;Node6 -->
<g id="edge5" class="edge"><title>Node5&#45;&gt;Node6</title>
<path fill="none" stroke="midnightblue" d="M613.178,-336.485C578.038,-319.195 507.275,-277.072 522,-224 545.292,-140.05 555.814,-111.464 623,-56 649.317,-34.2749 687.05,-22.5565 713.77,-16.5787"/>
<polygon fill="midnightblue" stroke="midnightblue" points="714.701,-19.9598 723.776,-14.4916 713.272,-13.1073 714.701,-19.9598"/>
</g>
<!-- Node5&#45;&gt;Node7 -->
<g id="edge6" class="edge"><title>Node5&#45;&gt;Node7</title>
<path fill="none" stroke="midnightblue" d="M594.834,-336.754C558.095,-328.007 505.109,-313.598 489,-300 472.059,-285.699 446.596,-227.233 434.24,-197.118"/>
<polygon fill="midnightblue" stroke="midnightblue" points="437.451,-195.722 430.452,-187.768 430.963,-198.35 437.451,-195.722"/>
</g>
<!-- Node5&#45;&gt;Node19 -->
<g id="edge25" class="edge"><title>Node5&#45;&gt;Node19</title>
<path fill="none" stroke="midnightblue" d="M594.845,-337.717C591.853,-337.135 588.876,-336.557 586,-336 510.243,-321.336 420.695,-304.259 377.257,-295.992"/>
<polygon fill="midnightblue" stroke="midnightblue" points="377.722,-292.518 367.244,-294.087 376.414,-299.395 377.722,-292.518"/>
</g>
<!-- Node29 -->
<g id="node29" class="node"><title>Node29</title>
<g id="a_node29"><a xlink:href="initializer_8h.html" target="_top" xlink:title="initializer.h">
<polygon fill="white" stroke="black" points="600.5,-280.5 600.5,-299.5 663.5,-299.5 663.5,-280.5 600.5,-280.5"/>
<text text-anchor="middle" x="632" y="-287.5" font-family="Helvetica,sans-Serif" font-size="10.00">initializer.h</text>
</a>
</g>
</g>
<!-- Node5&#45;&gt;Node29 -->
<g id="edge51" class="edge"><title>Node5&#45;&gt;Node29</title>
<path fill="none" stroke="midnightblue" d="M632,-336.083C632,-329.006 632,-318.861 632,-309.986"/>
<polygon fill="midnightblue" stroke="midnightblue" points="635.5,-309.751 632,-299.751 628.5,-309.751 635.5,-309.751"/>
</g>
<!-- Node5&#45;&gt;Node31 -->
<g id="edge59" class="edge"><title>Node5&#45;&gt;Node31</title>
<path fill="none" stroke="midnightblue" d="M646.299,-336.324C660.183,-327.9 681.492,-314.971 697.804,-305.074"/>
<polygon fill="midnightblue" stroke="midnightblue" points="700.002,-307.834 706.736,-299.655 696.371,-301.85 700.002,-307.834"/>
</g>
<!-- Node8 -->
<g id="node8" class="node"><title>Node8</title>
<g id="a_node8"><a xlink:href="node_8h.html" target="_top" xlink:title="node.h">
<polygon fill="white" stroke="black" points="256,-112.5 256,-131.5 302,-131.5 302,-112.5 256,-112.5"/>
<text text-anchor="middle" x="279" y="-119.5" font-family="Helvetica,sans-Serif" font-size="10.00">node.h</text>
</a>
</g>
</g>
<!-- Node7&#45;&gt;Node8 -->
<g id="edge7" class="edge"><title>Node7&#45;&gt;Node8</title>
<path fill="none" stroke="midnightblue" d="M407.955,-170.051C383.615,-161.17 341.105,-145.66 311.577,-134.886"/>
<polygon fill="midnightblue" stroke="midnightblue" points="312.699,-131.57 302.105,-131.43 310.3,-138.146 312.699,-131.57"/>
</g>
<!-- Node13 -->
<g id="node13" class="node"><title>Node13</title>
<polygon fill="white" stroke="#bfbfbf" points="632,-56.5 632,-75.5 686,-75.5 686,-56.5 632,-56.5"/>
<text text-anchor="middle" x="659" y="-63.5" font-family="Helvetica,sans-Serif" font-size="10.00">iostream</text>
</g>
<!-- Node7&#45;&gt;Node13 -->
<g id="edge16" class="edge"><title>Node7&#45;&gt;Node13</title>
<path fill="none" stroke="midnightblue" d="M445.205,-168.368C485.778,-149.131 583.815,-102.648 631.727,-79.9314"/>
<polygon fill="midnightblue" stroke="midnightblue" points="633.344,-83.0382 640.88,-75.5914 630.345,-76.7132 633.344,-83.0382"/>
</g>
<!-- Node14 -->
<g id="node14" class="node"><title>Node14</title>
<g id="a_node14"><a xlink:href="edgeheap_8h.html" target="_top" xlink:title="edgeheap.h">
<polygon fill="white" stroke="black" points="320.5,-112.5 320.5,-131.5 387.5,-131.5 387.5,-112.5 320.5,-112.5"/>
<text text-anchor="middle" x="354" y="-119.5" font-family="Helvetica,sans-Serif" font-size="10.00">edgeheap.h</text>
</a>
</g>
</g>
<!-- Node7&#45;&gt;Node14 -->
<g id="edge17" class="edge"><title>Node7&#45;&gt;Node14</title>
<path fill="none" stroke="midnightblue" d="M415.271,-168.324C404.163,-160.107 387.258,-147.602 374.017,-137.807"/>
<polygon fill="midnightblue" stroke="midnightblue" points="376.063,-134.967 365.942,-131.834 371.9,-140.595 376.063,-134.967"/>
</g>
<!-- Node7&#45;&gt;Node16 -->
<g id="edge22" class="edge"><title>Node7&#45;&gt;Node16</title>
<path fill="none" stroke="midnightblue" d="M407.942,-175.501C373.73,-172.128 300.485,-161.75 247,-132 224.979,-119.751 204.992,-98.4036 192.691,-83.5282"/>
<polygon fill="midnightblue" stroke="midnightblue" points="195.359,-81.2596 186.38,-75.6353 189.892,-85.6313 195.359,-81.2596"/>
</g>
<!-- Node17 -->
<g id="node17" class="node"><title>Node17</title>
<polygon fill="white" stroke="#bfbfbf" points="454.5,-112.5 454.5,-131.5 497.5,-131.5 497.5,-112.5 454.5,-112.5"/>
<text text-anchor="middle" x="476" y="-119.5" font-family="Helvetica,sans-Serif" font-size="10.00">QMap</text>
</g>
<!-- Node7&#45;&gt;Node17 -->
<g id="edge23" class="edge"><title>Node7&#45;&gt;Node17</title>
<path fill="none" stroke="midnightblue" d="M435.091,-168.083C442.155,-160.298 452.588,-148.801 461.149,-139.367"/>
<polygon fill="midnightblue" stroke="midnightblue" points="463.931,-141.509 468.059,-131.751 458.747,-136.805 463.931,-141.509"/>
</g>
<!-- Node18 -->
<g id="node18" class="node"><title>Node18</title>
<polygon fill="white" stroke="#bfbfbf" points="406,-112.5 406,-131.5 436,-131.5 436,-112.5 406,-112.5"/>
<text text-anchor="middle" x="421" y="-119.5" font-family="Helvetica,sans-Serif" font-size="10.00">set</text>
</g>
<!-- Node7&#45;&gt;Node18 -->
<g id="edge24" class="edge"><title>Node7&#45;&gt;Node18</title>
<path fill="none" stroke="midnightblue" d="M426.009,-168.083C425.214,-160.927 424.071,-150.635 423.077,-141.691"/>
<polygon fill="midnightblue" stroke="midnightblue" points="426.555,-141.303 421.972,-131.751 419.598,-142.076 426.555,-141.303"/>
</g>
<!-- Node8&#45;&gt;Node3 -->
<g id="edge10" class="edge"><title>Node8&#45;&gt;Node3</title>
<path fill="none" stroke="midnightblue" d="M255.779,-113.492C226.459,-104.011 175.905,-87.6637 143.224,-77.0963"/>
<polygon fill="midnightblue" stroke="midnightblue" points="144.29,-73.7628 133.699,-74.0163 142.137,-80.4233 144.29,-73.7628"/>
</g>
<!-- Node8&#45;&gt;Node4 -->
<g id="edge11" class="edge"><title>Node8&#45;&gt;Node4</title>
<path fill="none" stroke="midnightblue" d="M255.988,-115.822C215.815,-106.783 132.326,-87.9984 81.426,-76.5459"/>
<polygon fill="midnightblue" stroke="midnightblue" points="81.9192,-73.0694 71.3948,-74.2888 80.3825,-79.8987 81.9192,-73.0694"/>
</g>
<!-- Node8&#45;&gt;Node6 -->
<g id="edge8" class="edge"><title>Node8&#45;&gt;Node6</title>
<path fill="none" stroke="midnightblue" d="M270.832,-112.347C259.006,-98.7758 240.08,-72.3498 255,-56 285.894,-22.1448 608.75,-13.4406 713.432,-11.5"/>
<polygon fill="midnightblue" stroke="midnightblue" points="713.767,-14.9947 723.703,-11.3186 713.643,-7.99584 713.767,-14.9947"/>
</g>
<!-- Node9 -->
<g id="node9" class="node"><title>Node9</title>
<polygon fill="white" stroke="#bfbfbf" points="264.5,-56.5 264.5,-75.5 303.5,-75.5 303.5,-56.5 264.5,-56.5"/>
<text text-anchor="middle" x="284" y="-63.5" font-family="Helvetica,sans-Serif" font-size="10.00">QSet</text>
</g>
<!-- Node8&#45;&gt;Node9 -->
<g id="edge9" class="edge"><title>Node8&#45;&gt;Node9</title>
<path fill="none" stroke="midnightblue" d="M279.826,-112.083C280.481,-105.006 281.42,-94.8611 282.242,-85.9865"/>
<polygon fill="midnightblue" stroke="midnightblue" points="285.753,-86.0312 283.19,-75.7511 278.783,-85.3858 285.753,-86.0312"/>
</g>
<!-- Node10 -->
<g id="node10" class="node"><title>Node10</title>
<polygon fill="white" stroke="#bfbfbf" points="322,-56.5 322,-75.5 392,-75.5 392,-56.5 322,-56.5"/>
<text text-anchor="middle" x="357" y="-63.5" font-family="Helvetica,sans-Serif" font-size="10.00">opencv/cv.h</text>
</g>
<!-- Node8&#45;&gt;Node10 -->
<g id="edge12" class="edge"><title>Node8&#45;&gt;Node10</title>
<path fill="none" stroke="midnightblue" d="M291.532,-112.324C303.586,-103.979 322.027,-91.2122 336.269,-81.3524"/>
<polygon fill="midnightblue" stroke="midnightblue" points="338.269,-84.2243 344.499,-75.6545 334.285,-78.469 338.269,-84.2243"/>
</g>
<!-- Node11 -->
<g id="node11" class="node"><title>Node11</title>
<g id="a_node11"><a xlink:href="region_model_8h.html" target="_top" xlink:title="regionModel.h">
<polygon fill="white" stroke="black" points="974.5,-56.5 974.5,-75.5 1051.5,-75.5 1051.5,-56.5 974.5,-56.5"/>
<text text-anchor="middle" x="1013" y="-63.5" font-family="Helvetica,sans-Serif" font-size="10.00">regionModel.h</text>
</a>
</g>
</g>
<!-- Node8&#45;&gt;Node11 -->
<g id="edge13" class="edge"><title>Node8&#45;&gt;Node11</title>
<path fill="none" stroke="midnightblue" d="M302.287,-113.824C305.199,-113.112 308.154,-112.478 311,-112 581.463,-66.6108 653.661,-98.278 927,-76 939.04,-75.0187 952.008,-73.7651 964.131,-72.5073"/>
<polygon fill="midnightblue" stroke="midnightblue" points="964.501,-75.9878 974.077,-71.4556 963.764,-69.0266 964.501,-75.9878"/>
</g>
<!-- Node12 -->
<g id="node12" class="node"><title>Node12</title>
<g id="a_node12"><a xlink:href="edge_8h.html" target="_top" xlink:title="edge.h">
<polygon fill="white" stroke="black" points="410,-56.5 410,-75.5 456,-75.5 456,-56.5 410,-56.5"/>
<text text-anchor="middle" x="433" y="-63.5" font-family="Helvetica,sans-Serif" font-size="10.00">edge.h</text>
</a>
</g>
</g>
<!-- Node8&#45;&gt;Node12 -->
<g id="edge15" class="edge"><title>Node8&#45;&gt;Node12</title>
<path fill="none" stroke="midnightblue" d="M302.055,-112.916C328.139,-103.769 370.819,-88.8037 400.328,-78.4565"/>
<polygon fill="midnightblue" stroke="midnightblue" points="401.509,-81.7515 409.787,-75.1396 399.192,-75.1458 401.509,-81.7515"/>
</g>
<!-- Node11&#45;&gt;Node6 -->
<g id="edge14" class="edge"><title>Node11&#45;&gt;Node6</title>
<path fill="none" stroke="midnightblue" d="M974.461,-57.2056C921.586,-46.5117 827.503,-27.4838 778.188,-17.51"/>
<polygon fill="midnightblue" stroke="midnightblue" points="778.585,-14.0195 768.09,-15.4676 777.197,-20.8806 778.585,-14.0195"/>
</g>
<!-- Node14&#45;&gt;Node6 -->
<g id="edge18" class="edge"><title>Node14&#45;&gt;Node6</title>
<path fill="none" stroke="midnightblue" d="M375.324,-112.481C397.704,-103.511 433.891,-88.9237 465,-76 485.964,-67.2907 490.287,-62.6253 512,-56 582.333,-34.5395 667.808,-21.186 713.491,-15.0277"/>
<polygon fill="midnightblue" stroke="midnightblue" points="714.225,-18.4613 723.682,-13.6848 713.311,-11.5212 714.225,-18.4613"/>
</g>
<!-- Node14&#45;&gt;Node12 -->
<g id="edge19" class="edge"><title>Node14&#45;&gt;Node12</title>
<path fill="none" stroke="midnightblue" d="M366.693,-112.324C378.901,-103.979 397.578,-91.2122 412.003,-81.3524"/>
<polygon fill="midnightblue" stroke="midnightblue" points="414.058,-84.1871 420.339,-75.6545 410.108,-78.4082 414.058,-84.1871"/>
</g>
<!-- Node15 -->
<g id="node15" class="node"><title>Node15</title>
<polygon fill="white" stroke="#bfbfbf" points="812.5,-56.5 812.5,-75.5 859.5,-75.5 859.5,-56.5 812.5,-56.5"/>
<text text-anchor="middle" x="836" y="-63.5" font-family="Helvetica,sans-Serif" font-size="10.00">math.h</text>
</g>
<!-- Node14&#45;&gt;Node15 -->
<g id="edge20" class="edge"><title>Node14&#45;&gt;Node15</title>
<path fill="none" stroke="midnightblue" d="M387.74,-113.592C390.863,-113.011 393.985,-112.469 397,-112 547.085,-88.666 727.99,-74.4851 801.972,-69.2745"/>
<polygon fill="midnightblue" stroke="midnightblue" points="802.361,-72.7559 812.095,-68.5708 801.876,-65.7728 802.361,-72.7559"/>
</g>
<!-- Node14&#45;&gt;Node16 -->
<g id="edge21" class="edge"><title>Node14&#45;&gt;Node16</title>
<path fill="none" stroke="midnightblue" d="M326.429,-112.444C296.903,-103.28 249.882,-88.6876 217.117,-78.5192"/>
<polygon fill="midnightblue" stroke="midnightblue" points="218.03,-75.1378 207.442,-75.5164 215.955,-81.8232 218.03,-75.1378"/>
</g>
<!-- Node19&#45;&gt;Node3 -->
<g id="edge26" class="edge"><title>Node19&#45;&gt;Node3</title>
<path fill="none" stroke="midnightblue" d="M343.804,-280.29C333.137,-267.531 312.306,-243.194 293,-224 239.629,-170.94 223.135,-160.983 166,-112 154.157,-101.847 140.677,-90.6133 130.148,-81.9099"/>
<polygon fill="midnightblue" stroke="midnightblue" points="132.367,-79.2026 122.424,-75.5414 127.913,-84.6035 132.367,-79.2026"/>
</g>
<!-- Node19&#45;&gt;Node4 -->
<g id="edge27" class="edge"><title>Node19&#45;&gt;Node4</title>
<path fill="none" stroke="midnightblue" d="M334.887,-288.523C301.541,-286.821 223.683,-279.084 171,-244 108.565,-202.422 64.4528,-120.988 47.1322,-84.9228"/>
<polygon fill="midnightblue" stroke="midnightblue" points="50.2022,-83.2252 42.7943,-75.6507 43.8618,-86.1916 50.2022,-83.2252"/>
</g>
<!-- Node19&#45;&gt;Node8 -->
<g id="edge29" class="edge"><title>Node19&#45;&gt;Node8</title>
<path fill="none" stroke="midnightblue" d="M348.133,-280.491C343.856,-267.983 335.406,-243.955 327,-224 314.485,-194.29 298.01,-160.627 287.978,-140.64"/>
<polygon fill="midnightblue" stroke="midnightblue" points="291.007,-138.875 283.374,-131.528 284.76,-142.032 291.007,-138.875"/>
</g>
<!-- Node19&#45;&gt;Node13 -->
<g id="edge28" class="edge"><title>Node19&#45;&gt;Node13</title>
<path fill="none" stroke="midnightblue" d="M363.074,-280.297C409.939,-246.518 580.098,-123.871 638.871,-81.5088"/>
<polygon fill="midnightblue" stroke="midnightblue" points="640.944,-84.3291 647.01,-75.6425 636.851,-78.6504 640.944,-84.3291"/>
</g>
<!-- Node19&#45;&gt;Node20 -->
<g id="edge30" class="edge"><title>Node19&#45;&gt;Node20</title>
<path fill="none" stroke="midnightblue" d="M367.037,-287.203C430.319,-280.114 664.61,-253.865 774.891,-241.51"/>
<polygon fill="midnightblue" stroke="midnightblue" points="775.3,-244.986 784.848,-240.395 774.521,-238.03 775.3,-244.986"/>
</g>
<!-- Node26 -->
<g id="node26" class="node"><title>Node26</title>
<polygon fill="white" stroke="#bfbfbf" points="531,-224.5 531,-243.5 581,-243.5 581,-224.5 531,-224.5"/>
<text text-anchor="middle" x="556" y="-231.5" font-family="Helvetica,sans-Serif" font-size="10.00">fstream</text>
</g>
<!-- Node19&#45;&gt;Node26 -->
<g id="edge48" class="edge"><title>Node19&#45;&gt;Node26</title>
<path fill="none" stroke="midnightblue" d="M367.086,-284.763C400.099,-276.067 476.165,-256.03 521.058,-244.204"/>
<polygon fill="midnightblue" stroke="midnightblue" points="522.168,-247.531 530.946,-241.6 520.385,-240.762 522.168,-247.531"/>
</g>
<!-- Node27 -->
<g id="node27" class="node"><title>Node27</title>
<polygon fill="white" stroke="#bfbfbf" points="239.5,-224.5 239.5,-243.5 284.5,-243.5 284.5,-224.5 239.5,-224.5"/>
<text text-anchor="middle" x="262" y="-231.5" font-family="Helvetica,sans-Serif" font-size="10.00">cstdlib</text>
</g>
<!-- Node19&#45;&gt;Node27 -->
<g id="edge49" class="edge"><title>Node19&#45;&gt;Node27</title>
<path fill="none" stroke="midnightblue" d="M336.701,-280.324C322.817,-271.9 301.508,-258.971 285.196,-249.074"/>
<polygon fill="midnightblue" stroke="midnightblue" points="286.629,-245.85 276.264,-243.655 282.998,-251.834 286.629,-245.85"/>
</g>
<!-- Node28 -->
<g id="node28" class="node"><title>Node28</title>
<polygon fill="white" stroke="#bfbfbf" points="180.5,-224.5 180.5,-243.5 221.5,-243.5 221.5,-224.5 180.5,-224.5"/>
<text text-anchor="middle" x="201" y="-231.5" font-family="Helvetica,sans-Serif" font-size="10.00">ctime</text>
</g>
<!-- Node19&#45;&gt;Node28 -->
<g id="edge50" class="edge"><title>Node19&#45;&gt;Node28</title>
<path fill="none" stroke="midnightblue" d="M334.947,-283.221C310.26,-274.334 262.553,-257.159 231.247,-245.889"/>
<polygon fill="midnightblue" stroke="midnightblue" points="232.304,-242.549 221.709,-242.455 229.933,-249.136 232.304,-242.549"/>
</g>
<!-- Node20&#45;&gt;Node11 -->
<g id="edge31" class="edge"><title>Node20&#45;&gt;Node11</title>
<path fill="none" stroke="midnightblue" d="M869.688,-224.432C912.962,-212.142 982.935,-184.909 1014,-132 1022.21,-118.023 1020.89,-99.2727 1018.15,-85.5027"/>
<polygon fill="midnightblue" stroke="midnightblue" points="1021.54,-84.6231 1015.81,-75.7135 1014.74,-86.2538 1021.54,-84.6231"/>
</g>
<!-- Node21 -->
<g id="node21" class="node"><title>Node21</title>
<g id="a_node21"><a xlink:href="histogrammodel_8h.html" target="_top" xlink:title="histogrammodel.h">
<polygon fill="white" stroke="black" points="720,-168.5 720,-187.5 814,-187.5 814,-168.5 720,-168.5"/>
<text text-anchor="middle" x="767" y="-175.5" font-family="Helvetica,sans-Serif" font-size="10.00">histogrammodel.h</text>
</a>
</g>
</g>
<!-- Node20&#45;&gt;Node21 -->
<g id="edge32" class="edge"><title>Node20&#45;&gt;Node21</title>
<path fill="none" stroke="midnightblue" d="M822.396,-224.324C812.544,-216.263 797.649,-204.077 785.785,-194.369"/>
<polygon fill="midnightblue" stroke="midnightblue" points="787.753,-191.457 777.797,-187.834 783.32,-196.875 787.753,-191.457"/>
</g>
<!-- Node25 -->
<g id="node25" class="node"><title>Node25</title>
<g id="a_node25"><a xlink:href="probabilitymodel_8h.html" target="_top" xlink:title="probabilitymodel.h">
<polygon fill="white" stroke="black" points="889.5,-112.5 889.5,-131.5 984.5,-131.5 984.5,-112.5 889.5,-112.5"/>
<text text-anchor="middle" x="937" y="-119.5" font-family="Helvetica,sans-Serif" font-size="10.00">probabilitymodel.h</text>
</a>
</g>
</g>
<!-- Node20&#45;&gt;Node25 -->
<g id="edge43" class="edge"><title>Node20&#45;&gt;Node25</title>
<path fill="none" stroke="midnightblue" d="M841.161,-224.368C858.552,-205.974 899.493,-162.671 921.824,-139.052"/>
<polygon fill="midnightblue" stroke="midnightblue" points="924.55,-141.262 928.877,-131.591 919.464,-136.453 924.55,-141.262"/>
</g>
<!-- Node21&#45;&gt;Node6 -->
<g id="edge41" class="edge"><title>Node21&#45;&gt;Node6</title>
<path fill="none" stroke="midnightblue" d="M765.929,-168.167C764.408,-155.661 761.528,-132.08 759,-112 755.383,-83.2733 751.074,-49.967 748.438,-29.6967"/>
<polygon fill="midnightblue" stroke="midnightblue" points="751.891,-29.1089 747.129,-19.6446 744.95,-30.0129 751.891,-29.1089"/>
</g>
<!-- Node21&#45;&gt;Node8 -->
<g id="edge34" class="edge"><title>Node21&#45;&gt;Node8</title>
<path fill="none" stroke="midnightblue" d="M719.677,-175.072C638.203,-171.158 466.154,-160.288 312.406,-131.958"/>
<polygon fill="midnightblue" stroke="midnightblue" points="312.78,-128.467 302.306,-130.066 311.491,-135.347 312.78,-128.467"/>
</g>
<!-- Node21&#45;&gt;Node11 -->
<g id="edge33" class="edge"><title>Node21&#45;&gt;Node11</title>
<path fill="none" stroke="midnightblue" d="M814.008,-173.262C872.317,-167.696 967.204,-155.292 993,-132 1005.99,-120.272 1010.64,-100.336 1012.26,-85.627"/>
<polygon fill="midnightblue" stroke="midnightblue" points="1015.75,-85.8493 1012.99,-75.6209 1008.77,-85.3393 1015.75,-85.8493"/>
</g>
<!-- Node21&#45;&gt;Node13 -->
<g id="edge40" class="edge"><title>Node21&#45;&gt;Node13</title>
<path fill="none" stroke="midnightblue" d="M748.951,-168.447C733.738,-160.575 712.096,-147.749 697,-132 683.881,-118.314 673.43,-99.2731 666.835,-85.3371"/>
<polygon fill="midnightblue" stroke="midnightblue" points="669.86,-83.53 662.563,-75.8486 663.477,-86.4039 669.86,-83.53"/>
</g>
<!-- Node22 -->
<g id="node22" class="node"><title>Node22</title>
<g id="a_node22"><a xlink:href="statistics_8h.html" target="_top" xlink:title="statistics.h">
<polygon fill="white" stroke="black" points="806.5,-112.5 806.5,-131.5 871.5,-131.5 871.5,-112.5 806.5,-112.5"/>
<text text-anchor="middle" x="839" y="-119.5" font-family="Helvetica,sans-Serif" font-size="10.00">statistics.h</text>
</a>
</g>
</g>
<!-- Node21&#45;&gt;Node22 -->
<g id="edge35" class="edge"><title>Node21&#45;&gt;Node22</title>
<path fill="none" stroke="midnightblue" d="M778.568,-168.324C789.42,-160.185 805.881,-147.839 818.883,-138.087"/>
<polygon fill="midnightblue" stroke="midnightblue" points="821.321,-140.634 827.221,-131.834 817.121,-135.034 821.321,-140.634"/>
</g>
<!-- Node24 -->
<g id="node24" class="node"><title>Node24</title>
<polygon fill="white" stroke="#bfbfbf" points="706,-112.5 706,-131.5 750,-131.5 750,-112.5 706,-112.5"/>
<text text-anchor="middle" x="728" y="-119.5" font-family="Helvetica,sans-Serif" font-size="10.00">omp.h</text>
</g>
<!-- Node21&#45;&gt;Node24 -->
<g id="edge42" class="edge"><title>Node21&#45;&gt;Node24</title>
<path fill="none" stroke="midnightblue" d="M760.56,-168.083C755.051,-160.455 746.969,-149.264 740.235,-139.941"/>
<polygon fill="midnightblue" stroke="midnightblue" points="743.013,-137.809 734.32,-131.751 737.338,-141.907 743.013,-137.809"/>
</g>
<!-- Node22&#45;&gt;Node6 -->
<g id="edge36" class="edge"><title>Node22&#45;&gt;Node6</title>
<path fill="none" stroke="midnightblue" d="M831.702,-112.368C816.219,-94.0547 779.86,-51.0489 759.834,-27.3624"/>
<polygon fill="midnightblue" stroke="midnightblue" points="762.393,-24.9682 753.264,-19.5914 757.047,-29.4877 762.393,-24.9682"/>
</g>
<!-- Node22&#45;&gt;Node13 -->
<g id="edge38" class="edge"><title>Node22&#45;&gt;Node13</title>
<path fill="none" stroke="midnightblue" d="M810.478,-112.444C779.574,-103.172 730.145,-88.3435 696.207,-78.1622"/>
<polygon fill="midnightblue" stroke="midnightblue" points="696.794,-74.6841 686.21,-75.1629 694.782,-81.3889 696.794,-74.6841"/>
</g>
<!-- Node22&#45;&gt;Node15 -->
<g id="edge37" class="edge"><title>Node22&#45;&gt;Node15</title>
<path fill="none" stroke="midnightblue" d="M838.505,-112.083C838.111,-105.006 837.548,-94.8611 837.055,-85.9865"/>
<polygon fill="midnightblue" stroke="midnightblue" points="840.536,-85.5415 836.486,-75.7511 833.546,-85.9299 840.536,-85.5415"/>
</g>
<!-- Node23 -->
<g id="node23" class="node"><title>Node23</title>
<polygon fill="white" stroke="#bfbfbf" points="878,-56.5 878,-75.5 918,-75.5 918,-56.5 878,-56.5"/>
<text text-anchor="middle" x="898" y="-63.5" font-family="Helvetica,sans-Serif" font-size="10.00">limits</text>
</g>
<!-- Node22&#45;&gt;Node23 -->
<g id="edge39" class="edge"><title>Node22&#45;&gt;Node23</title>
<path fill="none" stroke="midnightblue" d="M848.479,-112.324C857.201,-104.341 870.343,-92.3128 880.898,-82.6529"/>
<polygon fill="midnightblue" stroke="midnightblue" points="883.334,-85.1674 888.348,-75.8339 878.608,-80.0036 883.334,-85.1674"/>
</g>
<!-- Node25&#45;&gt;Node6 -->
<g id="edge45" class="edge"><title>Node25&#45;&gt;Node6</title>
<path fill="none" stroke="midnightblue" d="M938.433,-112.149C940.133,-98.3066 941.164,-71.5155 927,-56 907.253,-34.3685 825.026,-20.8374 778.487,-14.7605"/>
<polygon fill="midnightblue" stroke="midnightblue" points="778.667,-11.2555 768.307,-13.4758 777.79,-18.2005 778.667,-11.2555"/>
</g>
<!-- Node25&#45;&gt;Node11 -->
<g id="edge44" class="edge"><title>Node25&#45;&gt;Node11</title>
<path fill="none" stroke="midnightblue" d="M949.211,-112.324C960.776,-104.107 978.375,-91.6017 992.161,-81.8069"/>
<polygon fill="midnightblue" stroke="midnightblue" points="994.443,-84.4791 1000.57,-75.8339 990.388,-78.7729 994.443,-84.4791"/>
</g>
<!-- Node25&#45;&gt;Node13 -->
<g id="edge47" class="edge"><title>Node25&#45;&gt;Node13</title>
<path fill="none" stroke="midnightblue" d="M892.95,-112.444C838.521,-101.871 746.885,-84.0712 695.953,-74.1779"/>
<polygon fill="midnightblue" stroke="midnightblue" points="696.515,-70.7218 686.031,-72.2506 695.18,-77.5933 696.515,-70.7218"/>
</g>
<!-- Node25&#45;&gt;Node15 -->
<g id="edge46" class="edge"><title>Node25&#45;&gt;Node15</title>
<path fill="none" stroke="midnightblue" d="M920.773,-112.324C904.649,-103.703 879.7,-90.3643 861.036,-80.3855"/>
<polygon fill="midnightblue" stroke="midnightblue" points="862.656,-77.283 852.187,-75.6545 859.356,-83.456 862.656,-77.283"/>
</g>
<!-- Node29&#45;&gt;Node7 -->
<g id="edge52" class="edge"><title>Node29&#45;&gt;Node7</title>
<path fill="none" stroke="midnightblue" d="M628.815,-280.395C623.188,-266.4 610.145,-238.788 590,-224 549.788,-194.48 491.144,-184.323 456.254,-180.829"/>
<polygon fill="midnightblue" stroke="midnightblue" points="456.504,-177.338 446.235,-179.945 455.889,-184.311 456.504,-177.338"/>
</g>
<!-- Node29&#45;&gt;Node13 -->
<g id="edge56" class="edge"><title>Node29&#45;&gt;Node13</title>
<path fill="none" stroke="midnightblue" d="M654.788,-280.471C670.326,-273.316 689.707,-261.435 699,-244 706.497,-229.933 677.141,-127.486 664.516,-85.1894"/>
<polygon fill="midnightblue" stroke="midnightblue" points="667.866,-84.1772 661.634,-75.6091 661.163,-86.1935 667.866,-84.1772"/>
</g>
<!-- Node29&#45;&gt;Node20 -->
<g id="edge55" class="edge"><title>Node29&#45;&gt;Node20</title>
<path fill="none" stroke="midnightblue" d="M663.849,-280.444C698.398,-271.162 753.682,-256.309 791.583,-246.127"/>
<polygon fill="midnightblue" stroke="midnightblue" points="792.551,-249.491 801.3,-243.516 790.734,-242.731 792.551,-249.491"/>
</g>
<!-- Node29&#45;&gt;Node21 -->
<g id="edge53" class="edge"><title>Node29&#45;&gt;Node21</title>
<path fill="none" stroke="midnightblue" d="M663.818,-280.839C685.444,-273.963 713.549,-262.266 733,-244 746.612,-231.217 755.785,-211.754 761.138,-197.456"/>
<polygon fill="midnightblue" stroke="midnightblue" points="764.543,-198.321 764.498,-187.726 757.926,-196.036 764.543,-198.321"/>
</g>
<!-- Node29&#45;&gt;Node26 -->
<g id="edge57" class="edge"><title>Node29&#45;&gt;Node26</title>
<path fill="none" stroke="midnightblue" d="M619.789,-280.324C608.224,-272.107 590.625,-259.602 576.839,-249.807"/>
<polygon fill="midnightblue" stroke="midnightblue" points="578.612,-246.773 568.433,-243.834 574.557,-252.479 578.612,-246.773"/>
</g>
<!-- Node30 -->
<g id="node30" class="node"><title>Node30</title>
<polygon fill="white" stroke="#bfbfbf" points="637.5,-224.5 637.5,-243.5 690.5,-243.5 690.5,-224.5 637.5,-224.5"/>
<text text-anchor="middle" x="664" y="-231.5" font-family="Helvetica,sans-Serif" font-size="10.00">QDebug</text>
</g>
<!-- Node29&#45;&gt;Node30 -->
<g id="edge54" class="edge"><title>Node29&#45;&gt;Node30</title>
<path fill="none" stroke="midnightblue" d="M637.284,-280.083C641.711,-272.613 648.163,-261.724 653.618,-252.52"/>
<polygon fill="midnightblue" stroke="midnightblue" points="656.727,-254.138 658.814,-243.751 650.705,-250.57 656.727,-254.138"/>
</g>
</g>
</svg>
        <g id="navigator" transform="translate(0 0)" fill="#404254">
                <rect fill="#f2f5e9" fill-opacity="0.5" stroke="#606060" stroke-width=".5" x="0" y="0" width="60" height="60"/>
                <use id="zoomplus" xlink:href="#zoomPlus" x="17" y="9" onmousedown="handleZoom(evt,'in')"/>
                <use id="zoomminus" xlink:href="#zoomMin" x="42" y="9" onmousedown="handleZoom(evt,'out')"/>
                <use id="reset" xlink:href="#resetDef" x="30" y="36" onmousedown="handleReset()"/>
                <g id="arrowUp" xlink:href="#dirArrow" transform="translate(30 24)" onmousedown="handlePan(0,-1)">
                  <use xlink:href="#rim" fill="#404040">
                        <set attributeName="fill" to="#808080" begin="arrowUp.mouseover" end="arrowUp.mouseout"/>
                  </use>
                  <path fill="none" stroke="white" stroke-width="1.5" d="M0,-3.0v7 M-2.5,-0.5L0,-3.0L2.5,-0.5"/>
                </g>
                <g id="arrowRight" xlink:href="#dirArrow" transform="rotate(90) translate(36 -43)" onmousedown="handlePan(1,0)">
                  <use xlink:href="#rim" fill="#404040">
                        <set attributeName="fill" to="#808080" begin="arrowRight.mouseover" end="arrowRight.mouseout"/>
                  </use>
                  <path fill="none" stroke="white" stroke-width="1.5" d="M0,-3.0v7 M-2.5,-0.5L0,-3.0L2.5,-0.5"/>
                </g>
                <g id="arrowDown" xlink:href="#dirArrow" transform="rotate(180) translate(-30 -48)" onmousedown="handlePan(0,1)">
                  <use xlink:href="#rim" fill="#404040">
                        <set attributeName="fill" to="#808080" begin="arrowDown.mouseover" end="arrowDown.mouseout"/>
                  </use>
                  <path fill="none" stroke="white" stroke-width="1.5" d="M0,-3.0v7 M-2.5,-0.5L0,-3.0L2.5,-0.5"/>
                </g>
                <g id="arrowLeft" xlink:href="#dirArrow" transform="rotate(270) translate(-36 17)" onmousedown="handlePan(-1,0)">
                  <use xlink:href="#rim" fill="#404040">
                        <set attributeName="fill" to="#808080" begin="arrowLeft.mouseover" end="arrowLeft.mouseout"/>
                  </use>
                  <path fill="none" stroke="white" stroke-width="1.5" d="M0,-3.0v7 M-2.5,-0.5L0,-3.0L2.5,-0.5"/>
                </g>
        </g>
        <svg viewBox="0 0 15 15" width="100%" height="30px" preserveAspectRatio="xMaxYMin meet">
         <g id="arrow_out" transform="scale(0.3 0.3)">
          <a xlink:href="image_8cpp__incl_org.svg" target="_base">
           <rect id="button" ry="5" rx="5" y="6" x="6" height="38" width="38"
                fill="#f2f5e9" fill-opacity="0.5" stroke="#606060" stroke-width="1.0"/>
           <path id="arrow"
             d="M 11.500037,31.436501 C 11.940474,20.09759 22.043105,11.32322 32.158766,21.979434 L 37.068811,17.246167 C 37.068811,17.246167 37.088388,32 37.088388,32 L 22.160133,31.978069 C 22.160133,31.978069 26.997745,27.140456 26.997745,27.140456 C 18.528582,18.264221 13.291696,25.230495 11.500037,31.436501 z"
             style="fill:#404040;"/>
          </a>
         </g>
        </svg>
</svg>
