<?xml version="1.0" encoding="UTF-8" standalone="no"?>
<!DOCTYPE svg PUBLIC "-//W3C//DTD SVG 1.1//EN"
 "http://www.w3.org/Graphics/SVG/1.1/DTD/svg11.dtd">
<!-- Generated by graphviz version 2.38.0 (20140413.2041)
 -->
<!-- Title: Graphical Class Hierarchy Pages: 1 -->
<svg width="201pt" height="104pt"
 viewBox="0.00 0.00 201.00 104.00" xmlns="http://www.w3.org/2000/svg" xmlns:xlink="http://www.w3.org/1999/xlink">
<g id="graph0" class="graph" transform="scale(1 1) rotate(0) translate(4 100)">
<title>Graphical Class Hierarchy</title>
<polygon fill="white" stroke="none" points="-4,4 -4,-100 197,-100 197,4 -4,4"/>
<!-- Node0 -->
<g id="node1" class="node"><title>Node0</title>
<g id="a_node1"><a xlink:href="classregion_model.html" target="_top" xlink:title="regionModel">
<polygon fill="white" stroke="black" points="0,-38.5 0,-57.5 69,-57.5 69,-38.5 0,-38.5"/>
<text text-anchor="middle" x="34.5" y="-45.5" font-family="Helvetica,sans-Serif" font-size="10.00">regionModel</text>
</a>
</g>
</g>
<!-- Node1 -->
<g id="node2" class="node"><title>Node1</title>
<g id="a_node2"><a xlink:href="classcompound_model.html" target="_top" xlink:title="compoundModel">
<polygon fill="white" stroke="black" points="105,-76.5 105,-95.5 193,-95.5 193,-76.5 105,-76.5"/>
<text text-anchor="middle" x="149" y="-83.5" font-family="Helvetica,sans-Serif" font-size="10.00">compoundModel</text>
</a>
</g>
</g>
<!-- Node0&#45;&gt;Node1 -->
<g id="edge1" class="edge"><title>Node0&#45;&gt;Node1</title>
<path fill="none" stroke="midnightblue" d="M73.4715,-60.8259C88.5666,-65.9247 105.632,-71.6891 119.621,-76.4141"/>
<polygon fill="midnightblue" stroke="midnightblue" points="74.4827,-57.4733 63.8885,-57.589 72.2426,-64.1052 74.4827,-57.4733"/>
</g>
<!-- Node2 -->
<g id="node3" class="node"><title>Node2</title>
<g id="a_node3"><a xlink:href="classhistogram_model.html" target="_top" xlink:title="histogramModel">
<polygon fill="white" stroke="black" points="106,-38.5 106,-57.5 192,-57.5 192,-38.5 106,-38.5"/>
<text text-anchor="middle" x="149" y="-45.5" font-family="Helvetica,sans-Serif" font-size="10.00">histogramModel</text>
</a>
</g>
</g>
<!-- Node0&#45;&gt;Node2 -->
<g id="edge2" class="edge"><title>Node0&#45;&gt;Node2</title>
<path fill="none" stroke="midnightblue" d="M79.2775,-48C88.0285,-48 97.2036,-48 105.897,-48"/>
<polygon fill="midnightblue" stroke="midnightblue" points="79.2537,-44.5001 69.2537,-48 79.2537,-51.5001 79.2537,-44.5001"/>
</g>
<!-- Node3 -->
<g id="node4" class="node"><title>Node3</title>
<g id="a_node4"><a xlink:href="classprobability_model.html" target="_top" xlink:title="probabilityModel">
<polygon fill="white" stroke="black" points="105.5,-0.5 105.5,-19.5 192.5,-19.5 192.5,-0.5 105.5,-0.5"/>
<text text-anchor="middle" x="149" y="-7.5" font-family="Helvetica,sans-Serif" font-size="10.00">probabilityModel</text>
</a>
</g>
</g>
<!-- Node0&#45;&gt;Node3 -->
<g id="edge3" class="edge"><title>Node0&#45;&gt;Node3</title>
<path fill="none" stroke="midnightblue" d="M73.4715,-35.1741C88.5666,-30.0753 105.632,-24.3109 119.621,-19.5859"/>
<polygon fill="midnightblue" stroke="midnightblue" points="72.2426,-31.8948 63.8885,-38.411 74.4827,-38.5267 72.2426,-31.8948"/>
</g>
</g>
</svg>
