<?xml version="1.0" encoding="UTF-8" standalone="no"?>
<!DOCTYPE svg PUBLIC "-//W3C//DTD SVG 1.1//EN"
 "http://www.w3.org/Graphics/SVG/1.1/DTD/svg11.dtd">
<!-- Generated by graphviz version 2.38.0 (20140413.2041)
 -->
<!-- Title: initializer.cpp Pages: 1 -->
<svg width="1005pt" height="364pt"
 viewBox="0.00 0.00 1005.00 364.00" xmlns="http://www.w3.org/2000/svg" xmlns:xlink="http://www.w3.org/1999/xlink">
<g id="graph0" class="graph" transform="scale(1 1) rotate(0) translate(4 360)">
<title>initializer.cpp</title>
<polygon fill="white" stroke="none" points="-4,4 -4,-360 1001,-360 1001,4 -4,4"/>
<!-- Node0 -->
<g id="node1" class="node"><title>Node0</title>
<polygon fill="#bfbfbf" stroke="black" points="699,-336.5 699,-355.5 773,-355.5 773,-336.5 699,-336.5"/>
<text text-anchor="middle" x="736" y="-343.5" font-family="Helvetica,sans-Serif" font-size="10.00">initializer.cpp</text>
</g>
<!-- Node1 -->
<g id="node2" class="node"><title>Node1</title>
<g id="a_node2"><a xlink:href="initializer_8h.html" target="_top" xlink:title="initializer.h">
<polygon fill="white" stroke="black" points="704.5,-280.5 704.5,-299.5 767.5,-299.5 767.5,-280.5 704.5,-280.5"/>
<text text-anchor="middle" x="736" y="-287.5" font-family="Helvetica,sans-Serif" font-size="10.00">initializer.h</text>
</a>
</g>
</g>
<!-- Node0&#45;&gt;Node1 -->
<g id="edge1" class="edge"><title>Node0&#45;&gt;Node1</title>
<path fill="none" stroke="midnightblue" d="M736,-336.083C736,-329.006 736,-318.861 736,-309.986"/>
<polygon fill="midnightblue" stroke="midnightblue" points="739.5,-309.751 736,-299.751 732.5,-309.751 739.5,-309.751"/>
</g>
<!-- Node2 -->
<g id="node3" class="node"><title>Node2</title>
<g id="a_node3"><a xlink:href="rag_8h.html" target="_top" xlink:title="rag.h">
<polygon fill="white" stroke="black" points="176,-168.5 176,-187.5 214,-187.5 214,-168.5 176,-168.5"/>
<text text-anchor="middle" x="195" y="-175.5" font-family="Helvetica,sans-Serif" font-size="10.00">rag.h</text>
</a>
</g>
</g>
<!-- Node1&#45;&gt;Node2 -->
<g id="edge2" class="edge"><title>Node1&#45;&gt;Node2</title>
<path fill="none" stroke="midnightblue" d="M704.178,-282.53C607.345,-262.841 317.207,-203.848 224.102,-184.917"/>
<polygon fill="midnightblue" stroke="midnightblue" points="224.734,-181.474 214.237,-182.911 223.339,-188.334 224.734,-181.474"/>
</g>
<!-- Node11 -->
<g id="node12" class="node"><title>Node11</title>
<polygon fill="white" stroke="#bfbfbf" points="703,-56.5 703,-75.5 757,-75.5 757,-56.5 703,-56.5"/>
<text text-anchor="middle" x="730" y="-63.5" font-family="Helvetica,sans-Serif" font-size="10.00">iostream</text>
</g>
<!-- Node1&#45;&gt;Node11 -->
<g id="edge41" class="edge"><title>Node1&#45;&gt;Node11</title>
<path fill="none" stroke="midnightblue" d="M750.803,-280.322C792.84,-254.584 907.009,-176.452 861,-112 849.841,-96.3683 801.607,-82.7242 766.908,-74.673"/>
<polygon fill="midnightblue" stroke="midnightblue" points="767.602,-71.2417 757.077,-72.4558 766.062,-78.0702 767.602,-71.2417"/>
</g>
<!-- Node17 -->
<g id="node18" class="node"><title>Node17</title>
<g id="a_node18"><a xlink:href="histogrammodel_8h.html" target="_top" xlink:title="histogrammodel.h">
<polygon fill="white" stroke="black" points="662,-168.5 662,-187.5 756,-187.5 756,-168.5 662,-168.5"/>
<text text-anchor="middle" x="709" y="-175.5" font-family="Helvetica,sans-Serif" font-size="10.00">histogrammodel.h</text>
</a>
</g>
</g>
<!-- Node1&#45;&gt;Node17 -->
<g id="edge21" class="edge"><title>Node1&#45;&gt;Node17</title>
<path fill="none" stroke="midnightblue" d="M733.881,-280.368C729.524,-262.617 719.473,-221.666 713.565,-197.597"/>
<polygon fill="midnightblue" stroke="midnightblue" points="716.892,-196.469 711.109,-187.591 710.094,-198.137 716.892,-196.469"/>
</g>
<!-- Node21 -->
<g id="node22" class="node"><title>Node21</title>
<polygon fill="white" stroke="#bfbfbf" points="737.5,-224.5 737.5,-243.5 790.5,-243.5 790.5,-224.5 737.5,-224.5"/>
<text text-anchor="middle" x="764" y="-231.5" font-family="Helvetica,sans-Serif" font-size="10.00">QDebug</text>
</g>
<!-- Node1&#45;&gt;Node21 -->
<g id="edge32" class="edge"><title>Node1&#45;&gt;Node21</title>
<path fill="none" stroke="midnightblue" d="M740.624,-280.083C744.456,-272.691 750.024,-261.953 754.765,-252.811"/>
<polygon fill="midnightblue" stroke="midnightblue" points="757.966,-254.24 759.462,-243.751 751.752,-251.018 757.966,-254.24"/>
</g>
<!-- Node22 -->
<g id="node23" class="node"><title>Node22</title>
<g id="a_node23"><a xlink:href="compoundmodel_8h.html" target="_top" xlink:title="compoundmodel.h">
<polygon fill="white" stroke="black" points="560,-224.5 560,-243.5 656,-243.5 656,-224.5 560,-224.5"/>
<text text-anchor="middle" x="608" y="-231.5" font-family="Helvetica,sans-Serif" font-size="10.00">compoundmodel.h</text>
</a>
</g>
</g>
<!-- Node1&#45;&gt;Node22 -->
<g id="edge33" class="edge"><title>Node1&#45;&gt;Node22</title>
<path fill="none" stroke="midnightblue" d="M715.718,-280.444C694.653,-271.557 661.483,-257.563 637.514,-247.451"/>
<polygon fill="midnightblue" stroke="midnightblue" points="638.761,-244.179 628.187,-243.516 636.04,-250.628 638.761,-244.179"/>
</g>
<!-- Node24 -->
<g id="node25" class="node"><title>Node24</title>
<polygon fill="white" stroke="#bfbfbf" points="947,-224.5 947,-243.5 997,-243.5 997,-224.5 947,-224.5"/>
<text text-anchor="middle" x="972" y="-231.5" font-family="Helvetica,sans-Serif" font-size="10.00">fstream</text>
</g>
<!-- Node1&#45;&gt;Node24 -->
<g id="edge42" class="edge"><title>Node1&#45;&gt;Node24</title>
<path fill="none" stroke="midnightblue" d="M767.736,-281.773C806.674,-272.902 874.701,-257.385 933,-244 934.257,-243.711 935.537,-243.417 936.83,-243.12"/>
<polygon fill="midnightblue" stroke="midnightblue" points="937.867,-246.473 946.827,-240.818 936.296,-239.651 937.867,-246.473"/>
</g>
<!-- Node3 -->
<g id="node4" class="node"><title>Node3</title>
<g id="a_node4"><a xlink:href="node_8h.html" target="_top" xlink:title="node.h">
<polygon fill="white" stroke="black" points="304,-112.5 304,-131.5 350,-131.5 350,-112.5 304,-112.5"/>
<text text-anchor="middle" x="327" y="-119.5" font-family="Helvetica,sans-Serif" font-size="10.00">node.h</text>
</a>
</g>
</g>
<!-- Node2&#45;&gt;Node3 -->
<g id="edge3" class="edge"><title>Node2&#45;&gt;Node3</title>
<path fill="none" stroke="midnightblue" d="M214.194,-169.148C235.782,-160.316 271.137,-145.853 296.514,-135.471"/>
<polygon fill="midnightblue" stroke="midnightblue" points="298.107,-138.601 306.037,-131.576 295.457,-132.123 298.107,-138.601"/>
</g>
<!-- Node2&#45;&gt;Node11 -->
<g id="edge12" class="edge"><title>Node2&#45;&gt;Node11</title>
<path fill="none" stroke="midnightblue" d="M214.14,-176.365C288.667,-173.692 559.256,-162.073 639,-132 668.35,-120.932 696.898,-97.9449 713.968,-82.4917"/>
<polygon fill="midnightblue" stroke="midnightblue" points="716.442,-84.9705 721.378,-75.5959 711.673,-79.846 716.442,-84.9705"/>
</g>
<!-- Node12 -->
<g id="node13" class="node"><title>Node12</title>
<g id="a_node13"><a xlink:href="edgeheap_8h.html" target="_top" xlink:title="edgeheap.h">
<polygon fill="white" stroke="black" points="161.5,-112.5 161.5,-131.5 228.5,-131.5 228.5,-112.5 161.5,-112.5"/>
<text text-anchor="middle" x="195" y="-119.5" font-family="Helvetica,sans-Serif" font-size="10.00">edgeheap.h</text>
</a>
</g>
</g>
<!-- Node2&#45;&gt;Node12 -->
<g id="edge13" class="edge"><title>Node2&#45;&gt;Node12</title>
<path fill="none" stroke="midnightblue" d="M195,-168.083C195,-161.006 195,-150.861 195,-141.986"/>
<polygon fill="midnightblue" stroke="midnightblue" points="198.5,-141.751 195,-131.751 191.5,-141.751 198.5,-141.751"/>
</g>
<!-- Node14 -->
<g id="node15" class="node"><title>Node14</title>
<polygon fill="white" stroke="#bfbfbf" points="0,-56.5 0,-75.5 56,-75.5 56,-56.5 0,-56.5"/>
<text text-anchor="middle" x="28" y="-63.5" font-family="Helvetica,sans-Serif" font-size="10.00">algorithm</text>
</g>
<!-- Node2&#45;&gt;Node14 -->
<g id="edge18" class="edge"><title>Node2&#45;&gt;Node14</title>
<path fill="none" stroke="midnightblue" d="M175.78,-169.163C156.828,-161.057 127.388,-147.437 104,-132 81.7483,-117.313 58.8455,-96.8578 44.0794,-82.8389"/>
<polygon fill="midnightblue" stroke="midnightblue" points="46.3972,-80.2117 36.7689,-75.7904 41.5385,-85.251 46.3972,-80.2117"/>
</g>
<!-- Node15 -->
<g id="node16" class="node"><title>Node15</title>
<polygon fill="white" stroke="#bfbfbf" points="13.5,-112.5 13.5,-131.5 56.5,-131.5 56.5,-112.5 13.5,-112.5"/>
<text text-anchor="middle" x="35" y="-119.5" font-family="Helvetica,sans-Serif" font-size="10.00">QMap</text>
</g>
<!-- Node2&#45;&gt;Node15 -->
<g id="edge19" class="edge"><title>Node2&#45;&gt;Node15</title>
<path fill="none" stroke="midnightblue" d="M175.7,-170.486C148.509,-161.309 98.6198,-144.472 66.142,-133.51"/>
<polygon fill="midnightblue" stroke="midnightblue" points="67.2602,-130.194 56.6661,-130.312 65.0217,-136.826 67.2602,-130.194"/>
</g>
<!-- Node16 -->
<g id="node17" class="node"><title>Node16</title>
<polygon fill="white" stroke="#bfbfbf" points="113,-112.5 113,-131.5 143,-131.5 143,-112.5 113,-112.5"/>
<text text-anchor="middle" x="128" y="-119.5" font-family="Helvetica,sans-Serif" font-size="10.00">set</text>
</g>
<!-- Node2&#45;&gt;Node16 -->
<g id="edge20" class="edge"><title>Node2&#45;&gt;Node16</title>
<path fill="none" stroke="midnightblue" d="M184.235,-168.324C174.234,-160.263 159.113,-148.077 147.07,-138.369"/>
<polygon fill="midnightblue" stroke="midnightblue" points="148.943,-135.384 138.961,-131.834 144.55,-140.834 148.943,-135.384"/>
</g>
<!-- Node4 -->
<g id="node5" class="node"><title>Node4</title>
<polygon fill="white" stroke="#bfbfbf" points="553,-0.5 553,-19.5 597,-19.5 597,-0.5 553,-0.5"/>
<text text-anchor="middle" x="575" y="-7.5" font-family="Helvetica,sans-Serif" font-size="10.00">vector</text>
</g>
<!-- Node3&#45;&gt;Node4 -->
<g id="edge4" class="edge"><title>Node3&#45;&gt;Node4</title>
<path fill="none" stroke="midnightblue" d="M350.277,-114.149C376.455,-106.154 420.012,-91.9756 456,-76 465.547,-71.762 519.053,-42.1586 550.977,-24.3975"/>
<polygon fill="midnightblue" stroke="midnightblue" points="552.703,-27.4426 559.737,-19.5198 549.297,-21.3268 552.703,-27.4426"/>
</g>
<!-- Node5 -->
<g id="node6" class="node"><title>Node5</title>
<polygon fill="white" stroke="#bfbfbf" points="176.5,-56.5 176.5,-75.5 215.5,-75.5 215.5,-56.5 176.5,-56.5"/>
<text text-anchor="middle" x="196" y="-63.5" font-family="Helvetica,sans-Serif" font-size="10.00">QSet</text>
</g>
<!-- Node3&#45;&gt;Node5 -->
<g id="edge5" class="edge"><title>Node3&#45;&gt;Node5</title>
<path fill="none" stroke="midnightblue" d="M306.243,-112.444C284.43,-103.452 249.936,-89.2332 225.344,-79.0962"/>
<polygon fill="midnightblue" stroke="midnightblue" points="226.382,-75.7382 215.803,-75.1629 223.714,-82.2099 226.382,-75.7382"/>
</g>
<!-- Node6 -->
<g id="node7" class="node"><title>Node6</title>
<polygon fill="white" stroke="#bfbfbf" points="233.5,-56.5 233.5,-75.5 276.5,-75.5 276.5,-56.5 233.5,-56.5"/>
<text text-anchor="middle" x="255" y="-63.5" font-family="Helvetica,sans-Serif" font-size="10.00">gdal.h</text>
</g>
<!-- Node3&#45;&gt;Node6 -->
<g id="edge6" class="edge"><title>Node3&#45;&gt;Node6</title>
<path fill="none" stroke="midnightblue" d="M315.432,-112.324C304.58,-104.185 288.119,-91.8395 275.117,-82.0874"/>
<polygon fill="midnightblue" stroke="midnightblue" points="276.879,-79.0339 266.779,-75.8339 272.679,-84.6339 276.879,-79.0339"/>
</g>
<!-- Node7 -->
<g id="node8" class="node"><title>Node7</title>
<polygon fill="white" stroke="#bfbfbf" points="295,-56.5 295,-75.5 359,-75.5 359,-56.5 295,-56.5"/>
<text text-anchor="middle" x="327" y="-63.5" font-family="Helvetica,sans-Serif" font-size="10.00">gdal_priv.h</text>
</g>
<!-- Node3&#45;&gt;Node7 -->
<g id="edge7" class="edge"><title>Node3&#45;&gt;Node7</title>
<path fill="none" stroke="midnightblue" d="M327,-112.083C327,-105.006 327,-94.8611 327,-85.9865"/>
<polygon fill="midnightblue" stroke="midnightblue" points="330.5,-85.751 327,-75.7511 323.5,-85.7511 330.5,-85.751"/>
</g>
<!-- Node8 -->
<g id="node9" class="node"><title>Node8</title>
<polygon fill="white" stroke="#bfbfbf" points="377,-56.5 377,-75.5 447,-75.5 447,-56.5 377,-56.5"/>
<text text-anchor="middle" x="412" y="-63.5" font-family="Helvetica,sans-Serif" font-size="10.00">opencv/cv.h</text>
</g>
<!-- Node3&#45;&gt;Node8 -->
<g id="edge8" class="edge"><title>Node3&#45;&gt;Node8</title>
<path fill="none" stroke="midnightblue" d="M340.657,-112.324C353.916,-103.9 374.268,-90.9709 389.846,-81.0741"/>
<polygon fill="midnightblue" stroke="midnightblue" points="391.813,-83.9711 398.377,-75.6545 388.06,-78.0626 391.813,-83.9711"/>
</g>
<!-- Node9 -->
<g id="node10" class="node"><title>Node9</title>
<g id="a_node10"><a xlink:href="region_model_8h.html" target="_top" xlink:title="regionModel.h">
<polygon fill="white" stroke="black" points="503.5,-56.5 503.5,-75.5 580.5,-75.5 580.5,-56.5 503.5,-56.5"/>
<text text-anchor="middle" x="542" y="-63.5" font-family="Helvetica,sans-Serif" font-size="10.00">regionModel.h</text>
</a>
</g>
</g>
<!-- Node3&#45;&gt;Node9 -->
<g id="edge9" class="edge"><title>Node3&#45;&gt;Node9</title>
<path fill="none" stroke="midnightblue" d="M350.009,-115.221C385.258,-106.368 453.248,-89.2912 498.126,-78.0194"/>
<polygon fill="midnightblue" stroke="midnightblue" points="499.042,-81.3983 507.888,-75.5676 497.337,-74.6091 499.042,-81.3983"/>
</g>
<!-- Node10 -->
<g id="node11" class="node"><title>Node10</title>
<g id="a_node11"><a xlink:href="edge_8h.html" target="_top" xlink:title="edge.h">
<polygon fill="white" stroke="black" points="112,-56.5 112,-75.5 158,-75.5 158,-56.5 112,-56.5"/>
<text text-anchor="middle" x="135" y="-63.5" font-family="Helvetica,sans-Serif" font-size="10.00">edge.h</text>
</a>
</g>
</g>
<!-- Node3&#45;&gt;Node10 -->
<g id="edge11" class="edge"><title>Node3&#45;&gt;Node10</title>
<path fill="none" stroke="midnightblue" d="M303.84,-114.486C269.964,-104.959 206.732,-87.1747 168,-76.2812"/>
<polygon fill="midnightblue" stroke="midnightblue" points="168.816,-72.875 158.242,-73.5368 166.921,-79.6136 168.816,-72.875"/>
</g>
<!-- Node9&#45;&gt;Node4 -->
<g id="edge10" class="edge"><title>Node9&#45;&gt;Node4</title>
<path fill="none" stroke="midnightblue" d="M547.449,-56.083C552.014,-48.6127 558.668,-37.7244 564.293,-28.5199"/>
<polygon fill="midnightblue" stroke="midnightblue" points="567.424,-30.109 569.652,-19.7511 561.451,-26.4588 567.424,-30.109"/>
</g>
<!-- Node12&#45;&gt;Node4 -->
<g id="edge14" class="edge"><title>Node12&#45;&gt;Node4</title>
<path fill="none" stroke="midnightblue" d="M163.867,-112.444C129.11,-101.433 80.5033,-80.7435 103,-56 132.553,-23.4959 441.022,-13.9099 542.696,-11.622"/>
<polygon fill="midnightblue" stroke="midnightblue" points="543.041,-15.1154 552.963,-11.4002 542.89,-8.11705 543.041,-15.1154"/>
</g>
<!-- Node12&#45;&gt;Node10 -->
<g id="edge15" class="edge"><title>Node12&#45;&gt;Node10</title>
<path fill="none" stroke="midnightblue" d="M185.36,-112.324C176.49,-104.341 163.125,-92.3128 152.392,-82.6529"/>
<polygon fill="midnightblue" stroke="midnightblue" points="154.59,-79.922 144.815,-75.8339 149.907,-85.1251 154.59,-79.922"/>
</g>
<!-- Node13 -->
<g id="node14" class="node"><title>Node13</title>
<polygon fill="white" stroke="#bfbfbf" points="637.5,-56.5 637.5,-75.5 684.5,-75.5 684.5,-56.5 637.5,-56.5"/>
<text text-anchor="middle" x="661" y="-63.5" font-family="Helvetica,sans-Serif" font-size="10.00">math.h</text>
</g>
<!-- Node12&#45;&gt;Node13 -->
<g id="edge16" class="edge"><title>Node12&#45;&gt;Node13</title>
<path fill="none" stroke="midnightblue" d="M228.745,-117.268C296.868,-109.708 455.697,-91.9434 589,-76 601.48,-74.5074 615.168,-72.8111 627.228,-71.2967"/>
<polygon fill="midnightblue" stroke="midnightblue" points="627.852,-74.7459 637.335,-70.0224 626.976,-67.8009 627.852,-74.7459"/>
</g>
<!-- Node12&#45;&gt;Node14 -->
<g id="edge17" class="edge"><title>Node12&#45;&gt;Node14</title>
<path fill="none" stroke="midnightblue" d="M168.538,-112.444C140.322,-103.32 95.4595,-88.8133 64.0315,-78.6509"/>
<polygon fill="midnightblue" stroke="midnightblue" points="64.9296,-75.263 54.3378,-75.5164 62.7759,-81.9234 64.9296,-75.263"/>
</g>
<!-- Node17&#45;&gt;Node3 -->
<g id="edge23" class="edge"><title>Node17&#45;&gt;Node3</title>
<path fill="none" stroke="midnightblue" d="M661.776,-170.324C583.331,-159.235 428.086,-137.29 360.146,-127.686"/>
<polygon fill="midnightblue" stroke="midnightblue" points="360.408,-124.188 350.017,-126.254 359.428,-131.119 360.408,-124.188"/>
</g>
<!-- Node17&#45;&gt;Node4 -->
<g id="edge30" class="edge"><title>Node17&#45;&gt;Node4</title>
<path fill="none" stroke="midnightblue" d="M756.32,-176.868C791.282,-173.977 836.837,-163.758 861,-132 881.455,-105.116 883.959,-81.67 862,-56 829.48,-17.9834 675.006,-11.8641 607.124,-11.0352"/>
<polygon fill="midnightblue" stroke="midnightblue" points="607.036,-7.53438 597.005,-10.9436 606.973,-14.5341 607.036,-7.53438"/>
</g>
<!-- Node17&#45;&gt;Node9 -->
<g id="edge22" class="edge"><title>Node17&#45;&gt;Node9</title>
<path fill="none" stroke="midnightblue" d="M661.939,-171.98C613.429,-165.72 542.602,-153.179 526,-132 515.281,-118.326 522.538,-98.4555 530.431,-84.289"/>
<polygon fill="midnightblue" stroke="midnightblue" points="533.551,-85.8958 535.784,-75.539 527.58,-82.2428 533.551,-85.8958"/>
</g>
<!-- Node17&#45;&gt;Node11 -->
<g id="edge29" class="edge"><title>Node17&#45;&gt;Node11</title>
<path fill="none" stroke="midnightblue" d="M717.483,-168.234C725.054,-159.75 735.604,-146.131 740,-132 744.77,-116.669 741.282,-98.5674 737.169,-85.3653"/>
<polygon fill="midnightblue" stroke="midnightblue" points="740.353,-83.8696 733.735,-75.5962 733.749,-86.1911 740.353,-83.8696"/>
</g>
<!-- Node18 -->
<g id="node19" class="node"><title>Node18</title>
<g id="a_node19"><a xlink:href="statistics_8h.html" target="_top" xlink:title="statistics.h">
<polygon fill="white" stroke="black" points="787.5,-112.5 787.5,-131.5 852.5,-131.5 852.5,-112.5 787.5,-112.5"/>
<text text-anchor="middle" x="820" y="-119.5" font-family="Helvetica,sans-Serif" font-size="10.00">statistics.h</text>
</a>
</g>
</g>
<!-- Node17&#45;&gt;Node18 -->
<g id="edge24" class="edge"><title>Node17&#45;&gt;Node18</title>
<path fill="none" stroke="midnightblue" d="M726.834,-168.324C744.716,-159.625 772.475,-146.12 793.046,-136.113"/>
<polygon fill="midnightblue" stroke="midnightblue" points="794.749,-139.177 802.21,-131.655 791.687,-132.882 794.749,-139.177"/>
</g>
<!-- Node20 -->
<g id="node21" class="node"><title>Node20</title>
<polygon fill="white" stroke="#bfbfbf" points="687,-112.5 687,-131.5 731,-131.5 731,-112.5 687,-112.5"/>
<text text-anchor="middle" x="709" y="-119.5" font-family="Helvetica,sans-Serif" font-size="10.00">omp.h</text>
</g>
<!-- Node17&#45;&gt;Node20 -->
<g id="edge31" class="edge"><title>Node17&#45;&gt;Node20</title>
<path fill="none" stroke="midnightblue" d="M709,-168.083C709,-161.006 709,-150.861 709,-141.986"/>
<polygon fill="midnightblue" stroke="midnightblue" points="712.5,-141.751 709,-131.751 705.5,-141.751 712.5,-141.751"/>
</g>
<!-- Node18&#45;&gt;Node4 -->
<g id="edge25" class="edge"><title>Node18&#45;&gt;Node4</title>
<path fill="none" stroke="midnightblue" d="M815.299,-112.301C807.193,-98.17 789.199,-70.3671 766,-56 716.148,-25.1277 646.991,-15.4269 607.023,-12.3843"/>
<polygon fill="midnightblue" stroke="midnightblue" points="607.254,-8.89195 597.043,-11.7177 606.787,-15.8764 607.254,-8.89195"/>
</g>
<!-- Node18&#45;&gt;Node11 -->
<g id="edge27" class="edge"><title>Node18&#45;&gt;Node11</title>
<path fill="none" stroke="midnightblue" d="M805.54,-112.324C791.5,-103.9 769.952,-90.9709 753.457,-81.0741"/>
<polygon fill="midnightblue" stroke="midnightblue" points="754.8,-77.7983 744.424,-75.6545 751.198,-83.8007 754.8,-77.7983"/>
</g>
<!-- Node18&#45;&gt;Node13 -->
<g id="edge26" class="edge"><title>Node18&#45;&gt;Node13</title>
<path fill="none" stroke="midnightblue" d="M794.806,-112.444C767.585,-103.199 724.094,-88.4281 694.124,-78.2495"/>
<polygon fill="midnightblue" stroke="midnightblue" points="695.116,-74.8901 684.521,-74.9883 692.864,-81.5183 695.116,-74.8901"/>
</g>
<!-- Node19 -->
<g id="node20" class="node"><title>Node19</title>
<polygon fill="white" stroke="#bfbfbf" points="813,-56.5 813,-75.5 853,-75.5 853,-56.5 813,-56.5"/>
<text text-anchor="middle" x="833" y="-63.5" font-family="Helvetica,sans-Serif" font-size="10.00">limits</text>
</g>
<!-- Node18&#45;&gt;Node19 -->
<g id="edge28" class="edge"><title>Node18&#45;&gt;Node19</title>
<path fill="none" stroke="midnightblue" d="M822.147,-112.083C823.869,-104.927 826.347,-94.6353 828.5,-85.6911"/>
<polygon fill="midnightblue" stroke="midnightblue" points="831.955,-86.2925 830.893,-75.7511 825.15,-84.6541 831.955,-86.2925"/>
</g>
<!-- Node22&#45;&gt;Node9 -->
<g id="edge34" class="edge"><title>Node22&#45;&gt;Node9</title>
<path fill="none" stroke="midnightblue" d="M595.849,-224.424C574.972,-208.848 532.993,-173.643 517,-132 510.731,-115.676 519.524,-97.0512 528.362,-83.9348"/>
<polygon fill="midnightblue" stroke="midnightblue" points="531.213,-85.9647 534.303,-75.8303 525.568,-81.8262 531.213,-85.9647"/>
</g>
<!-- Node22&#45;&gt;Node17 -->
<g id="edge35" class="edge"><title>Node22&#45;&gt;Node17</title>
<path fill="none" stroke="midnightblue" d="M624.227,-224.324C640.351,-215.703 665.3,-202.364 683.964,-192.386"/>
<polygon fill="midnightblue" stroke="midnightblue" points="685.644,-195.456 692.813,-187.655 682.344,-189.283 685.644,-195.456"/>
</g>
<!-- Node23 -->
<g id="node24" class="node"><title>Node23</title>
<g id="a_node24"><a xlink:href="probabilitymodel_8h.html" target="_top" xlink:title="probabilitymodel.h">
<polygon fill="white" stroke="black" points="535.5,-112.5 535.5,-131.5 630.5,-131.5 630.5,-112.5 535.5,-112.5"/>
<text text-anchor="middle" x="583" y="-119.5" font-family="Helvetica,sans-Serif" font-size="10.00">probabilitymodel.h</text>
</a>
</g>
</g>
<!-- Node22&#45;&gt;Node23 -->
<g id="edge36" class="edge"><title>Node22&#45;&gt;Node23</title>
<path fill="none" stroke="midnightblue" d="M606.038,-224.368C602.004,-206.617 592.697,-165.666 587.227,-141.597"/>
<polygon fill="midnightblue" stroke="midnightblue" points="590.582,-140.567 584.953,-131.591 583.756,-142.118 590.582,-140.567"/>
</g>
<!-- Node23&#45;&gt;Node4 -->
<g id="edge38" class="edge"><title>Node23&#45;&gt;Node4</title>
<path fill="none" stroke="midnightblue" d="M585.176,-112.129C587.946,-99.5778 592.031,-75.9432 589,-56 587.632,-47.001 584.81,-37.3251 582.055,-29.2601"/>
<polygon fill="midnightblue" stroke="midnightblue" points="585.312,-27.9759 578.6,-19.7782 578.735,-30.3722 585.312,-27.9759"/>
</g>
<!-- Node23&#45;&gt;Node9 -->
<g id="edge37" class="edge"><title>Node23&#45;&gt;Node9</title>
<path fill="none" stroke="midnightblue" d="M576.23,-112.083C570.438,-104.455 561.942,-93.2645 554.862,-83.9408"/>
<polygon fill="midnightblue" stroke="midnightblue" points="557.479,-81.5991 548.644,-75.7511 551.904,-85.8321 557.479,-81.5991"/>
</g>
<!-- Node23&#45;&gt;Node11 -->
<g id="edge40" class="edge"><title>Node23&#45;&gt;Node11</title>
<path fill="none" stroke="midnightblue" d="M606.293,-112.444C630.807,-103.438 669.596,-89.1891 697.2,-79.049"/>
<polygon fill="midnightblue" stroke="midnightblue" points="698.637,-82.25 706.816,-75.5164 696.223,-75.6793 698.637,-82.25"/>
</g>
<!-- Node23&#45;&gt;Node13 -->
<g id="edge39" class="edge"><title>Node23&#45;&gt;Node13</title>
<path fill="none" stroke="midnightblue" d="M595.532,-112.324C607.586,-103.979 626.027,-91.2122 640.269,-81.3524"/>
<polygon fill="midnightblue" stroke="midnightblue" points="642.269,-84.2243 648.499,-75.6545 638.285,-78.469 642.269,-84.2243"/>
</g>
</g>
</svg>
