<?xml version="1.0" encoding="UTF-8" standalone="no"?>
<!DOCTYPE svg PUBLIC "-//W3C//DTD SVG 1.1//EN"
 "http://www.w3.org/Graphics/SVG/1.1/DTD/svg11.dtd">
<!-- Generated by graphviz version 2.38.0 (20140413.2041)
 -->
<!-- Title: io.cpp Pages: 1 -->
<svg width="898pt" height="364pt"
 viewBox="0.00 0.00 898.00 364.00" xmlns="http://www.w3.org/2000/svg" xmlns:xlink="http://www.w3.org/1999/xlink">
<g id="graph0" class="graph" transform="scale(1 1) rotate(0) translate(4 360)">
<title>io.cpp</title>
<polygon fill="white" stroke="none" points="-4,4 -4,-360 894,-360 894,4 -4,4"/>
<!-- Node1 -->
<g id="node1" class="node"><title>Node1</title>
<polygon fill="#bfbfbf" stroke="black" points="611,-336.5 611,-355.5 654,-355.5 654,-336.5 611,-336.5"/>
<text text-anchor="middle" x="632.5" y="-343.5" font-family="Helvetica,sans-Serif" font-size="10.00">io.cpp</text>
</g>
<!-- Node2 -->
<g id="node2" class="node"><title>Node2</title>
<g id="a_node2"><a xlink:href="io_8h.html" target="_top" xlink:title="io.h">
<polygon fill="white" stroke="black" points="616.5,-280.5 616.5,-299.5 648.5,-299.5 648.5,-280.5 616.5,-280.5"/>
<text text-anchor="middle" x="632.5" y="-287.5" font-family="Helvetica,sans-Serif" font-size="10.00">io.h</text>
</a>
</g>
</g>
<!-- Node1&#45;&gt;Node2 -->
<g id="edge1" class="edge"><title>Node1&#45;&gt;Node2</title>
<path fill="none" stroke="midnightblue" d="M632.5,-336.083C632.5,-329.006 632.5,-318.861 632.5,-309.986"/>
<polygon fill="midnightblue" stroke="midnightblue" points="636,-309.751 632.5,-299.751 629,-309.751 636,-309.751"/>
</g>
<!-- Node3 -->
<g id="node3" class="node"><title>Node3</title>
<polygon fill="white" stroke="#bfbfbf" points="0,-56.5 0,-75.5 43,-75.5 43,-56.5 0,-56.5"/>
<text text-anchor="middle" x="21.5" y="-63.5" font-family="Helvetica,sans-Serif" font-size="10.00">gdal.h</text>
</g>
<!-- Node2&#45;&gt;Node3 -->
<g id="edge2" class="edge"><title>Node2&#45;&gt;Node3</title>
<path fill="none" stroke="midnightblue" d="M616.442,-285.05C587.433,-277.79 524.471,-261.458 472.5,-244 310.676,-189.64 121.976,-110.225 50.7234,-79.6476"/>
<polygon fill="midnightblue" stroke="midnightblue" points="52.0331,-76.4009 41.4638,-75.6648 49.2672,-82.8313 52.0331,-76.4009"/>
</g>
<!-- Node4 -->
<g id="node4" class="node"><title>Node4</title>
<polygon fill="white" stroke="#bfbfbf" points="61.5,-56.5 61.5,-75.5 125.5,-75.5 125.5,-56.5 61.5,-56.5"/>
<text text-anchor="middle" x="93.5" y="-63.5" font-family="Helvetica,sans-Serif" font-size="10.00">gdal_priv.h</text>
</g>
<!-- Node2&#45;&gt;Node4 -->
<g id="edge3" class="edge"><title>Node2&#45;&gt;Node4</title>
<path fill="none" stroke="midnightblue" d="M616.396,-282.618C594.467,-273.92 553.992,-257.841 519.5,-244 396.259,-194.546 364.925,-183.442 242.5,-132 200.423,-114.319 152.047,-93.0379 122.122,-79.7606"/>
<polygon fill="midnightblue" stroke="midnightblue" points="123.276,-76.4436 112.716,-75.5815 120.433,-82.8406 123.276,-76.4436"/>
</g>
<!-- Node5 -->
<g id="node5" class="node"><title>Node5</title>
<polygon fill="white" stroke="#bfbfbf" points="725.5,-56.5 725.5,-75.5 779.5,-75.5 779.5,-56.5 725.5,-56.5"/>
<text text-anchor="middle" x="752.5" y="-63.5" font-family="Helvetica,sans-Serif" font-size="10.00">iostream</text>
</g>
<!-- Node2&#45;&gt;Node5 -->
<g id="edge4" class="edge"><title>Node2&#45;&gt;Node5</title>
<path fill="none" stroke="midnightblue" d="M642.771,-280.14C677.675,-249.919 790.028,-151.674 798.5,-132 806.62,-113.144 789.841,-94.2923 774.317,-81.7844"/>
<polygon fill="midnightblue" stroke="midnightblue" points="776.086,-78.7357 765.988,-75.5286 771.882,-84.3327 776.086,-78.7357"/>
</g>
<!-- Node6 -->
<g id="node6" class="node"><title>Node6</title>
<g id="a_node6"><a xlink:href="node_8h.html" target="_top" xlink:title="node.h">
<polygon fill="white" stroke="black" points="251.5,-112.5 251.5,-131.5 297.5,-131.5 297.5,-112.5 251.5,-112.5"/>
<text text-anchor="middle" x="274.5" y="-119.5" font-family="Helvetica,sans-Serif" font-size="10.00">node.h</text>
</a>
</g>
</g>
<!-- Node2&#45;&gt;Node6 -->
<g id="edge5" class="edge"><title>Node2&#45;&gt;Node6</title>
<path fill="none" stroke="midnightblue" d="M616.238,-282.991C594.13,-274.717 553.452,-259.116 519.5,-244 437.91,-207.676 343.824,-159.339 299.746,-136.302"/>
<polygon fill="midnightblue" stroke="midnightblue" points="301.112,-133.067 290.63,-131.526 297.863,-139.267 301.112,-133.067"/>
</g>
<!-- Node12 -->
<g id="node12" class="node"><title>Node12</title>
<g id="a_node12"><a xlink:href="compoundmodel_8h.html" target="_top" xlink:title="compoundmodel.h">
<polygon fill="white" stroke="black" points="528.5,-224.5 528.5,-243.5 624.5,-243.5 624.5,-224.5 528.5,-224.5"/>
<text text-anchor="middle" x="576.5" y="-231.5" font-family="Helvetica,sans-Serif" font-size="10.00">compoundmodel.h</text>
</a>
</g>
</g>
<!-- Node2&#45;&gt;Node12 -->
<g id="edge14" class="edge"><title>Node2&#45;&gt;Node12</title>
<path fill="none" stroke="midnightblue" d="M623.503,-280.324C615.306,-272.42 602.994,-260.548 593.028,-250.938"/>
<polygon fill="midnightblue" stroke="midnightblue" points="595.289,-248.256 585.661,-243.834 590.43,-253.295 595.289,-248.256"/>
</g>
<!-- Node19 -->
<g id="node19" class="node"><title>Node19</title>
<polygon fill="white" stroke="#bfbfbf" points="717.5,-224.5 717.5,-243.5 767.5,-243.5 767.5,-224.5 717.5,-224.5"/>
<text text-anchor="middle" x="742.5" y="-231.5" font-family="Helvetica,sans-Serif" font-size="10.00">fstream</text>
</g>
<!-- Node2&#45;&gt;Node19 -->
<g id="edge32" class="edge"><title>Node2&#45;&gt;Node19</title>
<path fill="none" stroke="midnightblue" d="M648.731,-281.032C666.455,-272.331 695.109,-258.265 716.082,-247.969"/>
<polygon fill="midnightblue" stroke="midnightblue" points="717.678,-251.085 725.112,-243.536 714.593,-244.801 717.678,-251.085"/>
</g>
<!-- Node20 -->
<g id="node20" class="node"><title>Node20</title>
<polygon fill="white" stroke="#bfbfbf" points="786,-224.5 786,-243.5 831,-243.5 831,-224.5 786,-224.5"/>
<text text-anchor="middle" x="808.5" y="-231.5" font-family="Helvetica,sans-Serif" font-size="10.00">cstdlib</text>
</g>
<!-- Node2&#45;&gt;Node20 -->
<g id="edge33" class="edge"><title>Node2&#45;&gt;Node20</title>
<path fill="none" stroke="midnightblue" d="M648.742,-284.017C677.523,-275.186 737.988,-256.634 775.722,-245.057"/>
<polygon fill="midnightblue" stroke="midnightblue" points="777.183,-248.27 785.717,-241.99 775.13,-241.578 777.183,-248.27"/>
</g>
<!-- Node21 -->
<g id="node21" class="node"><title>Node21</title>
<polygon fill="white" stroke="#bfbfbf" points="849,-224.5 849,-243.5 890,-243.5 890,-224.5 849,-224.5"/>
<text text-anchor="middle" x="869.5" y="-231.5" font-family="Helvetica,sans-Serif" font-size="10.00">ctime</text>
</g>
<!-- Node2&#45;&gt;Node21 -->
<g id="edge34" class="edge"><title>Node2&#45;&gt;Node21</title>
<path fill="none" stroke="midnightblue" d="M648.531,-286.03C682.143,-279.7 762.602,-264.001 839.17,-244.181"/>
<polygon fill="midnightblue" stroke="midnightblue" points="840.182,-247.535 848.969,-241.616 838.409,-240.763 840.182,-247.535"/>
</g>
<!-- Node6&#45;&gt;Node3 -->
<g id="edge8" class="edge"><title>Node6&#45;&gt;Node3</title>
<path fill="none" stroke="midnightblue" d="M251.35,-116.958C212.485,-110.035 131.487,-95.0121 53.1518,-75.9862"/>
<polygon fill="midnightblue" stroke="midnightblue" points="53.6649,-72.5083 43.1188,-73.5234 51.996,-79.3065 53.6649,-72.5083"/>
</g>
<!-- Node6&#45;&gt;Node4 -->
<g id="edge9" class="edge"><title>Node6&#45;&gt;Node4</title>
<path fill="none" stroke="midnightblue" d="M251.208,-114.051C221.011,-105.042 167.945,-89.21 131.784,-78.4217"/>
<polygon fill="midnightblue" stroke="midnightblue" points="132.649,-75.0275 122.066,-75.5225 130.648,-81.7354 132.649,-75.0275"/>
</g>
<!-- Node7 -->
<g id="node7" class="node"><title>Node7</title>
<polygon fill="white" stroke="#bfbfbf" points="475.5,-0.5 475.5,-19.5 519.5,-19.5 519.5,-0.5 475.5,-0.5"/>
<text text-anchor="middle" x="497.5" y="-7.5" font-family="Helvetica,sans-Serif" font-size="10.00">vector</text>
</g>
<!-- Node6&#45;&gt;Node7 -->
<g id="edge6" class="edge"><title>Node6&#45;&gt;Node7</title>
<path fill="none" stroke="midnightblue" d="M251.221,-113.997C224.011,-105.284 181.537,-89.8636 172.5,-76 167.646,-68.5534 166.662,-62.7026 172.5,-56 210.211,-12.7078 390.054,-9.69294 464.803,-10.3672"/>
<polygon fill="midnightblue" stroke="midnightblue" points="464.999,-13.8697 475.04,-10.4891 465.082,-6.87017 464.999,-13.8697"/>
</g>
<!-- Node8 -->
<g id="node8" class="node"><title>Node8</title>
<polygon fill="white" stroke="#bfbfbf" points="182,-56.5 182,-75.5 221,-75.5 221,-56.5 182,-56.5"/>
<text text-anchor="middle" x="201.5" y="-63.5" font-family="Helvetica,sans-Serif" font-size="10.00">QSet</text>
</g>
<!-- Node6&#45;&gt;Node8 -->
<g id="edge7" class="edge"><title>Node6&#45;&gt;Node8</title>
<path fill="none" stroke="midnightblue" d="M262.771,-112.324C251.663,-104.107 234.758,-91.6017 221.517,-81.8069"/>
<polygon fill="midnightblue" stroke="midnightblue" points="223.563,-78.9671 213.442,-75.8339 219.4,-84.5948 223.563,-78.9671"/>
</g>
<!-- Node9 -->
<g id="node9" class="node"><title>Node9</title>
<polygon fill="white" stroke="#bfbfbf" points="239.5,-56.5 239.5,-75.5 309.5,-75.5 309.5,-56.5 239.5,-56.5"/>
<text text-anchor="middle" x="274.5" y="-63.5" font-family="Helvetica,sans-Serif" font-size="10.00">opencv/cv.h</text>
</g>
<!-- Node6&#45;&gt;Node9 -->
<g id="edge10" class="edge"><title>Node6&#45;&gt;Node9</title>
<path fill="none" stroke="midnightblue" d="M274.5,-112.083C274.5,-105.006 274.5,-94.8611 274.5,-85.9865"/>
<polygon fill="midnightblue" stroke="midnightblue" points="278,-85.751 274.5,-75.7511 271,-85.7511 278,-85.751"/>
</g>
<!-- Node10 -->
<g id="node10" class="node"><title>Node10</title>
<g id="a_node10"><a xlink:href="region_model_8h.html" target="_top" xlink:title="regionModel.h">
<polygon fill="white" stroke="black" points="392,-56.5 392,-75.5 469,-75.5 469,-56.5 392,-56.5"/>
<text text-anchor="middle" x="430.5" y="-63.5" font-family="Helvetica,sans-Serif" font-size="10.00">regionModel.h</text>
</a>
</g>
</g>
<!-- Node6&#45;&gt;Node10 -->
<g id="edge11" class="edge"><title>Node6&#45;&gt;Node10</title>
<path fill="none" stroke="midnightblue" d="M297.518,-113.032C323.56,-104.018 366.239,-89.2442 396.207,-78.8706"/>
<polygon fill="midnightblue" stroke="midnightblue" points="397.536,-82.1146 405.841,-75.536 395.246,-75.4997 397.536,-82.1146"/>
</g>
<!-- Node11 -->
<g id="node11" class="node"><title>Node11</title>
<g id="a_node11"><a xlink:href="edge_8h.html" target="_top" xlink:title="edge.h">
<polygon fill="white" stroke="black" points="327.5,-56.5 327.5,-75.5 373.5,-75.5 373.5,-56.5 327.5,-56.5"/>
<text text-anchor="middle" x="350.5" y="-63.5" font-family="Helvetica,sans-Serif" font-size="10.00">edge.h</text>
</a>
</g>
</g>
<!-- Node6&#45;&gt;Node11 -->
<g id="edge13" class="edge"><title>Node6&#45;&gt;Node11</title>
<path fill="none" stroke="midnightblue" d="M286.711,-112.324C298.276,-104.107 315.875,-91.6017 329.661,-81.8069"/>
<polygon fill="midnightblue" stroke="midnightblue" points="331.943,-84.4791 338.067,-75.8339 327.888,-78.7729 331.943,-84.4791"/>
</g>
<!-- Node10&#45;&gt;Node7 -->
<g id="edge12" class="edge"><title>Node10&#45;&gt;Node7</title>
<path fill="none" stroke="midnightblue" d="M441.265,-56.324C451.266,-48.2631 466.387,-36.0765 478.43,-26.3695"/>
<polygon fill="midnightblue" stroke="midnightblue" points="480.95,-28.8343 486.539,-19.8339 476.557,-23.3841 480.95,-28.8343"/>
</g>
<!-- Node12&#45;&gt;Node10 -->
<g id="edge15" class="edge"><title>Node12&#45;&gt;Node10</title>
<path fill="none" stroke="midnightblue" d="M559.354,-224.394C531.482,-209.5 476.545,-176.219 447.5,-132 438.395,-118.138 434.16,-99.6224 432.194,-85.899"/>
<polygon fill="midnightblue" stroke="midnightblue" points="435.641,-85.2394 431.019,-75.7059 428.687,-86.0409 435.641,-85.2394"/>
</g>
<!-- Node13 -->
<g id="node13" class="node"><title>Node13</title>
<g id="a_node13"><a xlink:href="histogrammodel_8h.html" target="_top" xlink:title="histogrammodel.h">
<polygon fill="white" stroke="black" points="586.5,-168.5 586.5,-187.5 680.5,-187.5 680.5,-168.5 586.5,-168.5"/>
<text text-anchor="middle" x="633.5" y="-175.5" font-family="Helvetica,sans-Serif" font-size="10.00">histogrammodel.h</text>
</a>
</g>
</g>
<!-- Node12&#45;&gt;Node13 -->
<g id="edge16" class="edge"><title>Node12&#45;&gt;Node13</title>
<path fill="none" stroke="midnightblue" d="M585.658,-224.324C594.001,-216.42 606.532,-204.548 616.677,-194.938"/>
<polygon fill="midnightblue" stroke="midnightblue" points="619.323,-197.252 624.175,-187.834 614.509,-192.171 619.323,-197.252"/>
</g>
<!-- Node18 -->
<g id="node18" class="node"><title>Node18</title>
<g id="a_node18"><a xlink:href="probabilitymodel_8h.html" target="_top" xlink:title="probabilitymodel.h">
<polygon fill="white" stroke="black" points="511,-112.5 511,-131.5 606,-131.5 606,-112.5 511,-112.5"/>
<text text-anchor="middle" x="558.5" y="-119.5" font-family="Helvetica,sans-Serif" font-size="10.00">probabilitymodel.h</text>
</a>
</g>
</g>
<!-- Node12&#45;&gt;Node18 -->
<g id="edge27" class="edge"><title>Node12&#45;&gt;Node18</title>
<path fill="none" stroke="midnightblue" d="M575.088,-224.368C572.183,-206.617 565.482,-165.666 561.543,-141.597"/>
<polygon fill="midnightblue" stroke="midnightblue" points="564.975,-140.895 559.906,-131.591 558.067,-142.025 564.975,-140.895"/>
</g>
<!-- Node13&#45;&gt;Node5 -->
<g id="edge24" class="edge"><title>Node13&#45;&gt;Node5</title>
<path fill="none" stroke="midnightblue" d="M648.278,-168.385C662.028,-160.009 682.711,-146.462 698.5,-132 714.652,-117.206 730.33,-97.56 740.594,-83.7531"/>
<polygon fill="midnightblue" stroke="midnightblue" points="743.45,-85.7769 746.508,-75.6329 737.792,-81.6561 743.45,-85.7769"/>
</g>
<!-- Node13&#45;&gt;Node6 -->
<g id="edge18" class="edge"><title>Node13&#45;&gt;Node6</title>
<path fill="none" stroke="midnightblue" d="M586.198,-169.885C512.431,-158.789 371.826,-137.64 307.774,-128.005"/>
<polygon fill="midnightblue" stroke="midnightblue" points="308.223,-124.533 297.813,-126.507 307.182,-131.455 308.223,-124.533"/>
</g>
<!-- Node13&#45;&gt;Node7 -->
<g id="edge25" class="edge"><title>Node13&#45;&gt;Node7</title>
<path fill="none" stroke="midnightblue" d="M586.275,-173.997C556.866,-169.423 521.03,-158.36 501.5,-132 479.265,-101.989 485.972,-55.3388 492.154,-29.6105"/>
<polygon fill="midnightblue" stroke="midnightblue" points="495.606,-30.2464 494.769,-19.6847 488.837,-28.4632 495.606,-30.2464"/>
</g>
<!-- Node13&#45;&gt;Node10 -->
<g id="edge17" class="edge"><title>Node13&#45;&gt;Node10</title>
<path fill="none" stroke="midnightblue" d="M586.243,-173.681C550.732,-169.075 502.552,-158.102 468.5,-132 452.973,-120.097 442.612,-99.8942 436.685,-85.165"/>
<polygon fill="midnightblue" stroke="midnightblue" points="439.899,-83.7647 433.142,-75.6042 433.335,-86.1973 439.899,-83.7647"/>
</g>
<!-- Node14 -->
<g id="node14" class="node"><title>Node14</title>
<g id="a_node14"><a xlink:href="statistics_8h.html" target="_top" xlink:title="statistics.h">
<polygon fill="white" stroke="black" points="624,-112.5 624,-131.5 689,-131.5 689,-112.5 624,-112.5"/>
<text text-anchor="middle" x="656.5" y="-119.5" font-family="Helvetica,sans-Serif" font-size="10.00">statistics.h</text>
</a>
</g>
</g>
<!-- Node13&#45;&gt;Node14 -->
<g id="edge19" class="edge"><title>Node13&#45;&gt;Node14</title>
<path fill="none" stroke="midnightblue" d="M637.298,-168.083C640.413,-160.77 644.923,-150.181 648.789,-141.103"/>
<polygon fill="midnightblue" stroke="midnightblue" points="652.074,-142.323 652.773,-131.751 645.634,-139.58 652.074,-142.323"/>
</g>
<!-- Node17 -->
<g id="node17" class="node"><title>Node17</title>
<polygon fill="white" stroke="#bfbfbf" points="745.5,-112.5 745.5,-131.5 789.5,-131.5 789.5,-112.5 745.5,-112.5"/>
<text text-anchor="middle" x="767.5" y="-119.5" font-family="Helvetica,sans-Serif" font-size="10.00">omp.h</text>
</g>
<!-- Node13&#45;&gt;Node17 -->
<g id="edge26" class="edge"><title>Node13&#45;&gt;Node17</title>
<path fill="none" stroke="midnightblue" d="M654.733,-168.444C676.884,-159.517 711.819,-145.439 736.936,-135.317"/>
<polygon fill="midnightblue" stroke="midnightblue" points="738.4,-138.501 746.367,-131.516 735.783,-132.008 738.4,-138.501"/>
</g>
<!-- Node14&#45;&gt;Node5 -->
<g id="edge22" class="edge"><title>Node14&#45;&gt;Node5</title>
<path fill="none" stroke="midnightblue" d="M671.924,-112.324C687.04,-103.822 710.315,-90.7288 727.971,-80.7975"/>
<polygon fill="midnightblue" stroke="midnightblue" points="730.114,-83.6077 737.114,-75.6545 726.683,-77.5066 730.114,-83.6077"/>
</g>
<!-- Node14&#45;&gt;Node7 -->
<g id="edge20" class="edge"><title>Node14&#45;&gt;Node7</title>
<path fill="none" stroke="midnightblue" d="M653.69,-112.134C648.864,-98.2713 637.722,-71.4527 619.5,-56 593.66,-34.087 556.188,-22.401 529.603,-16.4821"/>
<polygon fill="midnightblue" stroke="midnightblue" points="530.146,-13.0205 519.644,-14.4195 528.726,-19.875 530.146,-13.0205"/>
</g>
<!-- Node15 -->
<g id="node15" class="node"><title>Node15</title>
<polygon fill="white" stroke="#bfbfbf" points="564,-56.5 564,-75.5 611,-75.5 611,-56.5 564,-56.5"/>
<text text-anchor="middle" x="587.5" y="-63.5" font-family="Helvetica,sans-Serif" font-size="10.00">math.h</text>
</g>
<!-- Node14&#45;&gt;Node15 -->
<g id="edge21" class="edge"><title>Node14&#45;&gt;Node15</title>
<path fill="none" stroke="midnightblue" d="M645.414,-112.324C635.014,-104.185 619.239,-91.8395 606.778,-82.0874"/>
<polygon fill="midnightblue" stroke="midnightblue" points="608.82,-79.2407 598.788,-75.8339 604.506,-84.7533 608.82,-79.2407"/>
</g>
<!-- Node16 -->
<g id="node16" class="node"><title>Node16</title>
<polygon fill="white" stroke="#bfbfbf" points="667.5,-56.5 667.5,-75.5 707.5,-75.5 707.5,-56.5 667.5,-56.5"/>
<text text-anchor="middle" x="687.5" y="-63.5" font-family="Helvetica,sans-Serif" font-size="10.00">limits</text>
</g>
<!-- Node14&#45;&gt;Node16 -->
<g id="edge23" class="edge"><title>Node14&#45;&gt;Node16</title>
<path fill="none" stroke="midnightblue" d="M661.619,-112.083C665.908,-104.613 672.158,-93.7244 677.442,-84.5199"/>
<polygon fill="midnightblue" stroke="midnightblue" points="680.533,-86.1662 682.476,-75.7511 674.462,-82.6811 680.533,-86.1662"/>
</g>
<!-- Node18&#45;&gt;Node5 -->
<g id="edge31" class="edge"><title>Node18&#45;&gt;Node5</title>
<path fill="none" stroke="midnightblue" d="M589.24,-112.444C623.518,-102.902 678.944,-87.4744 715.554,-77.2841"/>
<polygon fill="midnightblue" stroke="midnightblue" points="716.652,-80.6114 725.347,-74.558 714.775,-73.8678 716.652,-80.6114"/>
</g>
<!-- Node18&#45;&gt;Node7 -->
<g id="edge29" class="edge"><title>Node18&#45;&gt;Node7</title>
<path fill="none" stroke="midnightblue" d="M553.713,-112.368C543.736,-94.376 520.542,-52.5503 507.275,-28.6267"/>
<polygon fill="midnightblue" stroke="midnightblue" points="510.175,-26.6393 502.264,-19.5914 504.053,-30.0342 510.175,-26.6393"/>
</g>
<!-- Node18&#45;&gt;Node10 -->
<g id="edge28" class="edge"><title>Node18&#45;&gt;Node10</title>
<path fill="none" stroke="midnightblue" d="M538.218,-112.444C517.153,-103.557 483.983,-89.5632 460.014,-79.4514"/>
<polygon fill="midnightblue" stroke="midnightblue" points="461.261,-76.1787 450.687,-75.5164 458.54,-82.6283 461.261,-76.1787"/>
</g>
<!-- Node18&#45;&gt;Node15 -->
<g id="edge30" class="edge"><title>Node18&#45;&gt;Node15</title>
<path fill="none" stroke="midnightblue" d="M563.289,-112.083C567.258,-104.691 573.025,-93.9533 577.935,-84.8111"/>
<polygon fill="midnightblue" stroke="midnightblue" points="581.153,-86.217 582.8,-75.7511 574.986,-82.9051 581.153,-86.217"/>
</g>
</g>
</svg>
