<?xml version="1.0" encoding="UTF-8" standalone="no"?>
<!DOCTYPE svg PUBLIC "-//W3C//DTD SVG 1.1//EN"
 "http://www.w3.org/Graphics/SVG/1.1/DTD/svg11.dtd">
<!-- Generated by graphviz version 2.38.0 (20140413.2041)
 -->
<!-- Title: mainwindow.h Pages: 1 -->
<svg width="172pt" height="84pt"
 viewBox="0.00 0.00 171.50 84.00" xmlns="http://www.w3.org/2000/svg" xmlns:xlink="http://www.w3.org/1999/xlink">
<g id="graph0" class="graph" transform="scale(1 1) rotate(0) translate(4 80)">
<title>mainwindow.h</title>
<polygon fill="white" stroke="none" points="-4,4 -4,-80 167.5,-80 167.5,4 -4,4"/>
<!-- Node36 -->
<g id="node1" class="node"><title>Node36</title>
<polygon fill="#bfbfbf" stroke="black" points="33.5,-56.5 33.5,-75.5 112.5,-75.5 112.5,-56.5 33.5,-56.5"/>
<text text-anchor="middle" x="73" y="-63.5" font-family="Helvetica,sans-Serif" font-size="10.00">mainwindow.h</text>
</g>
<!-- Node37 -->
<g id="node2" class="node"><title>Node37</title>
<g id="a_node2"><a xlink:href="main_8cpp.html" target="_top" xlink:title="main.cpp">
<polygon fill="white" stroke="black" points="0,-0.5 0,-19.5 56,-19.5 56,-0.5 0,-0.5"/>
<text text-anchor="middle" x="28" y="-7.5" font-family="Helvetica,sans-Serif" font-size="10.00">main.cpp</text>
</a>
</g>
</g>
<!-- Node36&#45;&gt;Node37 -->
<g id="edge1" class="edge"><title>Node36&#45;&gt;Node37</title>
<path fill="none" stroke="midnightblue" d="M58.9533,-48.144C51.1131,-38.7357 41.6705,-27.4046 35.2926,-19.7511"/>
<polygon fill="midnightblue" stroke="midnightblue" points="56.4785,-50.6414 65.5692,-56.083 61.8561,-46.1601 56.4785,-50.6414"/>
</g>
<!-- Node38 -->
<g id="node3" class="node"><title>Node38</title>
<g id="a_node3"><a xlink:href="mainwindow_8cpp.html" target="_top" xlink:title="mainwindow.cpp">
<polygon fill="white" stroke="black" points="74.5,-0.5 74.5,-19.5 163.5,-19.5 163.5,-0.5 74.5,-0.5"/>
<text text-anchor="middle" x="119" y="-7.5" font-family="Helvetica,sans-Serif" font-size="10.00">mainwindow.cpp</text>
</a>
</g>
</g>
<!-- Node36&#45;&gt;Node38 -->
<g id="edge2" class="edge"><title>Node36&#45;&gt;Node38</title>
<path fill="none" stroke="midnightblue" d="M87.114,-48.4314C95.176,-38.9673 104.959,-27.4827 111.545,-19.7511"/>
<polygon fill="midnightblue" stroke="midnightblue" points="84.4163,-46.2009 80.596,-56.083 89.745,-50.7402 84.4163,-46.2009"/>
</g>
</g>
</svg>
