<?xml version="1.0" encoding="UTF-8" standalone="no"?>
<!DOCTYPE svg PUBLIC "-//W3C//DTD SVG 1.1//EN"
 "http://www.w3.org/Graphics/SVG/1.1/DTD/svg11.dtd">
<!-- Generated by graphviz version 2.38.0 (20140413.2041)
 -->
<!-- Title: node.cpp Pages: 1 -->
<svg width="455pt" height="196pt"
 viewBox="0.00 0.00 455.02 196.00" xmlns="http://www.w3.org/2000/svg" xmlns:xlink="http://www.w3.org/1999/xlink">
<g id="graph0" class="graph" transform="scale(1 1) rotate(0) translate(4 192)">
<title>node.cpp</title>
<polygon fill="white" stroke="none" points="-4,4 -4,-192 451.017,-192 451.017,4 -4,4"/>
<!-- Node1 -->
<g id="node1" class="node"><title>Node1</title>
<polygon fill="#bfbfbf" stroke="black" points="139.017,-168.5 139.017,-187.5 195.017,-187.5 195.017,-168.5 139.017,-168.5"/>
<text text-anchor="middle" x="167.017" y="-175.5" font-family="Helvetica,sans-Serif" font-size="10.00">node.cpp</text>
</g>
<!-- Node2 -->
<g id="node2" class="node"><title>Node2</title>
<g id="a_node2"><a xlink:href="node_8h.html" target="_top" xlink:title="node.h">
<polygon fill="white" stroke="black" points="144.017,-112.5 144.017,-131.5 190.017,-131.5 190.017,-112.5 144.017,-112.5"/>
<text text-anchor="middle" x="167.017" y="-119.5" font-family="Helvetica,sans-Serif" font-size="10.00">node.h</text>
</a>
</g>
</g>
<!-- Node1&#45;&gt;Node2 -->
<g id="edge1" class="edge"><title>Node1&#45;&gt;Node2</title>
<path fill="none" stroke="midnightblue" d="M167.017,-168.083C167.017,-161.006 167.017,-150.861 167.017,-141.986"/>
<polygon fill="midnightblue" stroke="midnightblue" points="170.517,-141.751 167.017,-131.751 163.517,-141.751 170.517,-141.751"/>
</g>
<!-- Node3 -->
<g id="node3" class="node"><title>Node3</title>
<polygon fill="white" stroke="#bfbfbf" points="144.017,-0.5 144.017,-19.5 188.017,-19.5 188.017,-0.5 144.017,-0.5"/>
<text text-anchor="middle" x="166.017" y="-7.5" font-family="Helvetica,sans-Serif" font-size="10.00">vector</text>
</g>
<!-- Node2&#45;&gt;Node3 -->
<g id="edge2" class="edge"><title>Node2&#45;&gt;Node3</title>
<path fill="none" stroke="midnightblue" d="M143.897,-117.926C103.687,-112.055 23.5699,-97.8508 7.01693,-76 -27.3253,-30.6666 77.7382,-16.8036 133.564,-12.6811"/>
<polygon fill="midnightblue" stroke="midnightblue" points="133.951,-16.163 143.693,-11.9996 133.481,-9.17884 133.951,-16.163"/>
</g>
<!-- Node4 -->
<g id="node4" class="node"><title>Node4</title>
<polygon fill="white" stroke="#bfbfbf" points="16.5169,-56.5 16.5169,-75.5 55.5169,-75.5 55.5169,-56.5 16.5169,-56.5"/>
<text text-anchor="middle" x="36.0169" y="-63.5" font-family="Helvetica,sans-Serif" font-size="10.00">QSet</text>
</g>
<!-- Node2&#45;&gt;Node4 -->
<g id="edge3" class="edge"><title>Node2&#45;&gt;Node4</title>
<path fill="none" stroke="midnightblue" d="M146.26,-112.444C124.447,-103.452 89.9531,-89.2332 65.3613,-79.0962"/>
<polygon fill="midnightblue" stroke="midnightblue" points="66.3988,-75.7382 55.8196,-75.1629 63.7311,-82.2099 66.3988,-75.7382"/>
</g>
<!-- Node5 -->
<g id="node5" class="node"><title>Node5</title>
<polygon fill="white" stroke="#bfbfbf" points="73.5169,-56.5 73.5169,-75.5 116.517,-75.5 116.517,-56.5 73.5169,-56.5"/>
<text text-anchor="middle" x="95.0169" y="-63.5" font-family="Helvetica,sans-Serif" font-size="10.00">gdal.h</text>
</g>
<!-- Node2&#45;&gt;Node5 -->
<g id="edge4" class="edge"><title>Node2&#45;&gt;Node5</title>
<path fill="none" stroke="midnightblue" d="M155.449,-112.324C144.597,-104.185 128.136,-91.8395 115.134,-82.0874"/>
<polygon fill="midnightblue" stroke="midnightblue" points="116.895,-79.0339 106.795,-75.8339 112.695,-84.6339 116.895,-79.0339"/>
</g>
<!-- Node6 -->
<g id="node6" class="node"><title>Node6</title>
<polygon fill="white" stroke="#bfbfbf" points="135.017,-56.5 135.017,-75.5 199.017,-75.5 199.017,-56.5 135.017,-56.5"/>
<text text-anchor="middle" x="167.017" y="-63.5" font-family="Helvetica,sans-Serif" font-size="10.00">gdal_priv.h</text>
</g>
<!-- Node2&#45;&gt;Node6 -->
<g id="edge5" class="edge"><title>Node2&#45;&gt;Node6</title>
<path fill="none" stroke="midnightblue" d="M167.017,-112.083C167.017,-105.006 167.017,-94.8611 167.017,-85.9865"/>
<polygon fill="midnightblue" stroke="midnightblue" points="170.517,-85.751 167.017,-75.7511 163.517,-85.7511 170.517,-85.751"/>
</g>
<!-- Node7 -->
<g id="node7" class="node"><title>Node7</title>
<polygon fill="white" stroke="#bfbfbf" points="217.017,-56.5 217.017,-75.5 287.017,-75.5 287.017,-56.5 217.017,-56.5"/>
<text text-anchor="middle" x="252.017" y="-63.5" font-family="Helvetica,sans-Serif" font-size="10.00">opencv/cv.h</text>
</g>
<!-- Node2&#45;&gt;Node7 -->
<g id="edge6" class="edge"><title>Node2&#45;&gt;Node7</title>
<path fill="none" stroke="midnightblue" d="M180.674,-112.324C193.933,-103.9 214.285,-90.9709 229.863,-81.0741"/>
<polygon fill="midnightblue" stroke="midnightblue" points="231.83,-83.9711 238.394,-75.6545 228.077,-78.0626 231.83,-83.9711"/>
</g>
<!-- Node8 -->
<g id="node8" class="node"><title>Node8</title>
<g id="a_node8"><a xlink:href="region_model_8h.html" target="_top" xlink:title="regionModel.h">
<polygon fill="white" stroke="black" points="305.517,-56.5 305.517,-75.5 382.517,-75.5 382.517,-56.5 305.517,-56.5"/>
<text text-anchor="middle" x="344.017" y="-63.5" font-family="Helvetica,sans-Serif" font-size="10.00">regionModel.h</text>
</a>
</g>
</g>
<!-- Node2&#45;&gt;Node8 -->
<g id="edge7" class="edge"><title>Node2&#45;&gt;Node8</title>
<path fill="none" stroke="midnightblue" d="M190.157,-113.94C219.581,-104.964 270.784,-89.3421 305.986,-78.6026"/>
<polygon fill="midnightblue" stroke="midnightblue" points="307.363,-81.8418 315.907,-75.576 305.32,-75.1465 307.363,-81.8418"/>
</g>
<!-- Node9 -->
<g id="node9" class="node"><title>Node9</title>
<g id="a_node9"><a xlink:href="edge_8h.html" target="_top" xlink:title="edge.h">
<polygon fill="white" stroke="black" points="401.017,-56.5 401.017,-75.5 447.017,-75.5 447.017,-56.5 401.017,-56.5"/>
<text text-anchor="middle" x="424.017" y="-63.5" font-family="Helvetica,sans-Serif" font-size="10.00">edge.h</text>
</a>
</g>
</g>
<!-- Node2&#45;&gt;Node9 -->
<g id="edge9" class="edge"><title>Node2&#45;&gt;Node9</title>
<path fill="none" stroke="midnightblue" d="M190.142,-116.981C229.381,-110.031 311.69,-94.8975 390.863,-76.1291"/>
<polygon fill="midnightblue" stroke="midnightblue" points="392.09,-79.4341 401,-73.7013 390.46,-72.6266 392.09,-79.4341"/>
</g>
<!-- Node8&#45;&gt;Node3 -->
<g id="edge8" class="edge"><title>Node8&#45;&gt;Node3</title>
<path fill="none" stroke="midnightblue" d="M315.812,-56.4435C283.741,-46.7141 231.495,-30.8642 197.951,-20.688"/>
<polygon fill="midnightblue" stroke="midnightblue" points="198.77,-17.2789 188.185,-17.7251 196.738,-23.9775 198.77,-17.2789"/>
</g>
</g>
</svg>
