<?xml version="1.0" encoding="UTF-8" standalone="no"?>
<!DOCTYPE svg PUBLIC "-//W3C//DTD SVG 1.1//EN"
 "http://www.w3.org/Graphics/SVG/1.1/DTD/svg11.dtd">
<!-- Generated by graphviz version 2.38.0 (20140413.2041)
 -->
<!-- Title: probabilityfilecropper.cpp Pages: 1 -->
<svg width="589pt" height="140pt"
 viewBox="0.00 0.00 589.00 140.00" xmlns="http://www.w3.org/2000/svg" xmlns:xlink="http://www.w3.org/1999/xlink">
<g id="graph0" class="graph" transform="scale(1 1) rotate(0) translate(4 136)">
<title>probabilityfilecropper.cpp</title>
<polygon fill="white" stroke="none" points="-4,4 -4,-136 585,-136 585,4 -4,4"/>
<!-- Node1 -->
<g id="node1" class="node"><title>Node1</title>
<polygon fill="#bfbfbf" stroke="black" points="305.5,-112.5 305.5,-131.5 430.5,-131.5 430.5,-112.5 305.5,-112.5"/>
<text text-anchor="middle" x="368" y="-119.5" font-family="Helvetica,sans-Serif" font-size="10.00">probabilityfilecropper.cpp</text>
</g>
<!-- Node2 -->
<g id="node2" class="node"><title>Node2</title>
<g id="a_node2"><a xlink:href="probabilityfilecropper_8h.html" target="_top" xlink:title="probabilityfilecropper.h">
<polygon fill="white" stroke="black" points="25,-56.5 25,-75.5 139,-75.5 139,-56.5 25,-56.5"/>
<text text-anchor="middle" x="82" y="-63.5" font-family="Helvetica,sans-Serif" font-size="10.00">probabilityfilecropper.h</text>
</a>
</g>
</g>
<!-- Node1&#45;&gt;Node2 -->
<g id="edge1" class="edge"><title>Node1&#45;&gt;Node2</title>
<path fill="none" stroke="midnightblue" d="M322.682,-112.444C272.372,-102.944 191.162,-87.611 137.187,-77.4198"/>
<polygon fill="midnightblue" stroke="midnightblue" points="137.581,-73.9326 127.106,-75.5164 136.283,-80.8111 137.581,-73.9326"/>
</g>
<!-- Node5 -->
<g id="node5" class="node"><title>Node5</title>
<polygon fill="white" stroke="#bfbfbf" points="157.5,-56.5 157.5,-75.5 284.5,-75.5 284.5,-56.5 157.5,-56.5"/>
<text text-anchor="middle" x="221" y="-63.5" font-family="Helvetica,sans-Serif" font-size="10.00">ui_probabilityfilecropper.h</text>
</g>
<!-- Node1&#45;&gt;Node5 -->
<g id="edge4" class="edge"><title>Node1&#45;&gt;Node5</title>
<path fill="none" stroke="midnightblue" d="M344.707,-112.444C320.193,-103.438 281.404,-89.1891 253.8,-79.049"/>
<polygon fill="midnightblue" stroke="midnightblue" points="254.777,-75.6793 244.184,-75.5164 252.363,-82.25 254.777,-75.6793"/>
</g>
<!-- Node6 -->
<g id="node6" class="node"><title>Node6</title>
<polygon fill="white" stroke="#bfbfbf" points="303,-56.5 303,-75.5 355,-75.5 355,-56.5 303,-56.5"/>
<text text-anchor="middle" x="329" y="-63.5" font-family="Helvetica,sans-Serif" font-size="10.00">QDialog</text>
</g>
<!-- Node1&#45;&gt;Node6 -->
<g id="edge5" class="edge"><title>Node1&#45;&gt;Node6</title>
<path fill="none" stroke="midnightblue" d="M361.56,-112.083C356.051,-104.455 347.969,-93.2645 341.235,-83.9408"/>
<polygon fill="midnightblue" stroke="midnightblue" points="344.013,-81.8087 335.32,-75.7511 338.338,-85.9071 344.013,-81.8087"/>
</g>
<!-- Node7 -->
<g id="node7" class="node"><title>Node7</title>
<polygon fill="white" stroke="#bfbfbf" points="373,-56.5 373,-75.5 441,-75.5 441,-56.5 373,-56.5"/>
<text text-anchor="middle" x="407" y="-63.5" font-family="Helvetica,sans-Serif" font-size="10.00">QFileDialog</text>
</g>
<!-- Node1&#45;&gt;Node7 -->
<g id="edge6" class="edge"><title>Node1&#45;&gt;Node7</title>
<path fill="none" stroke="midnightblue" d="M374.44,-112.083C379.949,-104.455 388.031,-93.2645 394.765,-83.9408"/>
<polygon fill="midnightblue" stroke="midnightblue" points="397.662,-85.9071 400.68,-75.7511 391.987,-81.8087 397.662,-85.9071"/>
</g>
<!-- Node8 -->
<g id="node8" class="node"><title>Node8</title>
<polygon fill="white" stroke="#bfbfbf" points="459.5,-56.5 459.5,-75.5 512.5,-75.5 512.5,-56.5 459.5,-56.5"/>
<text text-anchor="middle" x="486" y="-63.5" font-family="Helvetica,sans-Serif" font-size="10.00">QDebug</text>
</g>
<!-- Node1&#45;&gt;Node8 -->
<g id="edge7" class="edge"><title>Node1&#45;&gt;Node8</title>
<path fill="none" stroke="midnightblue" d="M386.697,-112.444C405.944,-103.636 436.152,-89.8116 458.2,-79.722"/>
<polygon fill="midnightblue" stroke="midnightblue" points="459.753,-82.8603 467.39,-75.5164 456.84,-76.4951 459.753,-82.8603"/>
</g>
<!-- Node9 -->
<g id="node9" class="node"><title>Node9</title>
<polygon fill="white" stroke="#bfbfbf" points="531,-56.5 531,-75.5 581,-75.5 581,-56.5 531,-56.5"/>
<text text-anchor="middle" x="556" y="-63.5" font-family="Helvetica,sans-Serif" font-size="10.00">fstream</text>
</g>
<!-- Node1&#45;&gt;Node9 -->
<g id="edge8" class="edge"><title>Node1&#45;&gt;Node9</title>
<path fill="none" stroke="midnightblue" d="M397.789,-112.444C431.243,-102.835 485.48,-87.2558 520.946,-77.0686"/>
<polygon fill="midnightblue" stroke="midnightblue" points="522.218,-80.3451 530.863,-74.2203 520.285,-73.6171 522.218,-80.3451"/>
</g>
<!-- Node3 -->
<g id="node3" class="node"><title>Node3</title>
<polygon fill="white" stroke="#bfbfbf" points="0,-0.5 0,-19.5 80,-19.5 80,-0.5 0,-0.5"/>
<text text-anchor="middle" x="40" y="-7.5" font-family="Helvetica,sans-Serif" font-size="10.00">QMainWindow</text>
</g>
<!-- Node2&#45;&gt;Node3 -->
<g id="edge2" class="edge"><title>Node2&#45;&gt;Node3</title>
<path fill="none" stroke="midnightblue" d="M75.0646,-56.083C69.0708,-48.3768 60.2482,-37.0333 52.9524,-27.6531"/>
<polygon fill="midnightblue" stroke="midnightblue" points="55.7086,-25.4958 46.8064,-19.7511 50.1831,-29.7934 55.7086,-25.4958"/>
</g>
<!-- Node4 -->
<g id="node4" class="node"><title>Node4</title>
<polygon fill="white" stroke="#bfbfbf" points="98,-0.5 98,-19.5 152,-19.5 152,-0.5 98,-0.5"/>
<text text-anchor="middle" x="125" y="-7.5" font-family="Helvetica,sans-Serif" font-size="10.00">iostream</text>
</g>
<!-- Node2&#45;&gt;Node4 -->
<g id="edge3" class="edge"><title>Node2&#45;&gt;Node4</title>
<path fill="none" stroke="midnightblue" d="M89.1006,-56.083C95.237,-48.3768 104.27,-37.0333 111.739,-27.6531"/>
<polygon fill="midnightblue" stroke="midnightblue" points="114.54,-29.7542 118.032,-19.7511 109.064,-25.3936 114.54,-29.7542"/>
</g>
</g>
</svg>
