<?xml version="1.0" encoding="UTF-8" standalone="no"?>
<!DOCTYPE svg PUBLIC "-//W3C//DTD SVG 1.1//EN"
 "http://www.w3.org/Graphics/SVG/1.1/DTD/svg11.dtd">
<!-- Generated by graphviz version 2.38.0 (20140413.2041)
 -->
<!-- Title: probabilitymodel.h Pages: 1 -->
<svg width="262pt" height="140pt"
 viewBox="0.00 0.00 261.50 140.00" xmlns="http://www.w3.org/2000/svg" xmlns:xlink="http://www.w3.org/1999/xlink">
<g id="graph0" class="graph" transform="scale(1 1) rotate(0) translate(4 136)">
<title>probabilitymodel.h</title>
<polygon fill="white" stroke="none" points="-4,4 -4,-136 257.5,-136 257.5,4 -4,4"/>
<!-- Node0 -->
<g id="node1" class="node"><title>Node0</title>
<polygon fill="#bfbfbf" stroke="black" points="84,-112.5 84,-131.5 179,-131.5 179,-112.5 84,-112.5"/>
<text text-anchor="middle" x="131.5" y="-119.5" font-family="Helvetica,sans-Serif" font-size="10.00">probabilitymodel.h</text>
</g>
<!-- Node1 -->
<g id="node2" class="node"><title>Node1</title>
<g id="a_node2"><a xlink:href="region_model_8h.html" target="_top" xlink:title="regionModel.h">
<polygon fill="white" stroke="black" points="0,-56.5 0,-75.5 77,-75.5 77,-56.5 0,-56.5"/>
<text text-anchor="middle" x="38.5" y="-63.5" font-family="Helvetica,sans-Serif" font-size="10.00">regionModel.h</text>
</a>
</g>
</g>
<!-- Node0&#45;&gt;Node1 -->
<g id="edge1" class="edge"><title>Node0&#45;&gt;Node1</title>
<path fill="none" stroke="midnightblue" d="M116.558,-112.324C101.915,-103.822 79.3663,-90.7288 62.2623,-80.7975"/>
<polygon fill="midnightblue" stroke="midnightblue" points="63.8104,-77.6491 53.405,-75.6545 60.2954,-83.7027 63.8104,-77.6491"/>
</g>
<!-- Node2 -->
<g id="node3" class="node"><title>Node2</title>
<polygon fill="white" stroke="#bfbfbf" points="49.5,-0.5 49.5,-19.5 93.5,-19.5 93.5,-0.5 49.5,-0.5"/>
<text text-anchor="middle" x="71.5" y="-7.5" font-family="Helvetica,sans-Serif" font-size="10.00">vector</text>
</g>
<!-- Node0&#45;&gt;Node2 -->
<g id="edge3" class="edge"><title>Node0&#45;&gt;Node2</title>
<path fill="none" stroke="midnightblue" d="M126.792,-112.368C116.978,-94.376 94.1638,-52.5503 81.1146,-28.6267"/>
<polygon fill="midnightblue" stroke="midnightblue" points="84.0474,-26.6944 76.1862,-19.5914 77.9022,-30.0464 84.0474,-26.6944"/>
</g>
<!-- Node3 -->
<g id="node4" class="node"><title>Node3</title>
<polygon fill="white" stroke="#bfbfbf" points="134,-56.5 134,-75.5 181,-75.5 181,-56.5 134,-56.5"/>
<text text-anchor="middle" x="157.5" y="-63.5" font-family="Helvetica,sans-Serif" font-size="10.00">math.h</text>
</g>
<!-- Node0&#45;&gt;Node3 -->
<g id="edge4" class="edge"><title>Node0&#45;&gt;Node3</title>
<path fill="none" stroke="midnightblue" d="M135.793,-112.083C139.352,-104.691 144.522,-93.9533 148.924,-84.8111"/>
<polygon fill="midnightblue" stroke="midnightblue" points="152.102,-86.2795 153.287,-75.7511 145.795,-83.2427 152.102,-86.2795"/>
</g>
<!-- Node4 -->
<g id="node5" class="node"><title>Node4</title>
<polygon fill="white" stroke="#bfbfbf" points="199.5,-56.5 199.5,-75.5 253.5,-75.5 253.5,-56.5 199.5,-56.5"/>
<text text-anchor="middle" x="226.5" y="-63.5" font-family="Helvetica,sans-Serif" font-size="10.00">iostream</text>
</g>
<!-- Node0&#45;&gt;Node4 -->
<g id="edge5" class="edge"><title>Node0&#45;&gt;Node4</title>
<path fill="none" stroke="midnightblue" d="M146.763,-112.324C161.721,-103.822 184.755,-90.7288 202.227,-80.7975"/>
<polygon fill="midnightblue" stroke="midnightblue" points="204.31,-83.639 211.274,-75.6545 200.851,-77.5534 204.31,-83.639"/>
</g>
<!-- Node1&#45;&gt;Node2 -->
<g id="edge2" class="edge"><title>Node1&#45;&gt;Node2</title>
<path fill="none" stroke="midnightblue" d="M43.9493,-56.083C48.5145,-48.6127 55.1684,-37.7244 60.7934,-28.5199"/>
<polygon fill="midnightblue" stroke="midnightblue" points="63.9241,-30.109 66.1521,-19.7511 57.9511,-26.4588 63.9241,-30.109"/>
</g>
</g>
</svg>
