<?xml version="1.0" encoding="UTF-8" standalone="no"?>
<!DOCTYPE svg PUBLIC "-//W3C//DTD SVG 1.1//EN"
 "http://www.w3.org/Graphics/SVG/1.1/DTD/svg11.dtd">
<!-- Generated by graphviz version 2.38.0 (20140413.2041)
 -->
<!-- Title: probabilityfilecropper.h Pages: 1 -->
<svg width="160pt" height="84pt"
 viewBox="0.00 0.00 160.00 84.00" xmlns="http://www.w3.org/2000/svg" xmlns:xlink="http://www.w3.org/1999/xlink">
<g id="graph0" class="graph" transform="scale(1 1) rotate(0) translate(4 80)">
<title>probabilityfilecropper.h</title>
<polygon fill="white" stroke="none" points="-4,4 -4,-80 156,-80 156,4 -4,4"/>
<!-- Node0 -->
<g id="node1" class="node"><title>Node0</title>
<polygon fill="#bfbfbf" stroke="black" points="25,-56.5 25,-75.5 139,-75.5 139,-56.5 25,-56.5"/>
<text text-anchor="middle" x="82" y="-63.5" font-family="Helvetica,sans-Serif" font-size="10.00">probabilityfilecropper.h</text>
</g>
<!-- Node1 -->
<g id="node2" class="node"><title>Node1</title>
<polygon fill="white" stroke="#bfbfbf" points="0,-0.5 0,-19.5 80,-19.5 80,-0.5 0,-0.5"/>
<text text-anchor="middle" x="40" y="-7.5" font-family="Helvetica,sans-Serif" font-size="10.00">QMainWindow</text>
</g>
<!-- Node0&#45;&gt;Node1 -->
<g id="edge1" class="edge"><title>Node0&#45;&gt;Node1</title>
<path fill="none" stroke="midnightblue" d="M75.0646,-56.083C69.0708,-48.3768 60.2482,-37.0333 52.9524,-27.6531"/>
<polygon fill="midnightblue" stroke="midnightblue" points="55.7086,-25.4958 46.8064,-19.7511 50.1831,-29.7934 55.7086,-25.4958"/>
</g>
<!-- Node2 -->
<g id="node3" class="node"><title>Node2</title>
<polygon fill="white" stroke="#bfbfbf" points="98,-0.5 98,-19.5 152,-19.5 152,-0.5 98,-0.5"/>
<text text-anchor="middle" x="125" y="-7.5" font-family="Helvetica,sans-Serif" font-size="10.00">iostream</text>
</g>
<!-- Node0&#45;&gt;Node2 -->
<g id="edge2" class="edge"><title>Node0&#45;&gt;Node2</title>
<path fill="none" stroke="midnightblue" d="M89.1006,-56.083C95.237,-48.3768 104.27,-37.0333 111.739,-27.6531"/>
<polygon fill="midnightblue" stroke="midnightblue" points="114.54,-29.7542 118.032,-19.7511 109.064,-25.3936 114.54,-29.7542"/>
</g>
</g>
</svg>
