<?xml version="1.0" encoding="UTF-8" standalone="no"?>
<!DOCTYPE svg PUBLIC "-//W3C//DTD SVG 1.1//EN"
 "http://www.w3.org/Graphics/SVG/1.1/DTD/svg11.dtd">
<!-- Generated by graphviz version 2.38.0 (20140413.2041)
 -->
<!-- Title: rag.h Pages: 1 -->
<svg width="293pt" height="308pt"
 viewBox="0.00 0.00 292.50 308.00" xmlns="http://www.w3.org/2000/svg" xmlns:xlink="http://www.w3.org/1999/xlink">
<g id="graph0" class="graph" transform="scale(1 1) rotate(0) translate(4 304)">
<title>rag.h</title>
<polygon fill="white" stroke="none" points="-4,4 -4,-304 288.5,-304 288.5,4 -4,4"/>
<!-- Node1 -->
<g id="node1" class="node"><title>Node1</title>
<polygon fill="#bfbfbf" stroke="black" points="137,-280.5 137,-299.5 175,-299.5 175,-280.5 137,-280.5"/>
<text text-anchor="middle" x="156" y="-287.5" font-family="Helvetica,sans-Serif" font-size="10.00">rag.h</text>
</g>
<!-- Node2 -->
<g id="node2" class="node"><title>Node2</title>
<g id="a_node2"><a xlink:href="imageblock_8h.html" target="_top" xlink:title="imageblock.h">
<polygon fill="white" stroke="black" points="103,-168.5 103,-187.5 177,-187.5 177,-168.5 103,-168.5"/>
<text text-anchor="middle" x="140" y="-175.5" font-family="Helvetica,sans-Serif" font-size="10.00">imageblock.h</text>
</a>
</g>
</g>
<!-- Node1&#45;&gt;Node2 -->
<g id="edge1" class="edge"><title>Node1&#45;&gt;Node2</title>
<path fill="none" stroke="midnightblue" d="M150.786,-270.61C148.677,-262.512 146.412,-252.845 145,-244 141.825,-224.106 140.648,-200.452 140.225,-187.885"/>
<polygon fill="midnightblue" stroke="midnightblue" points="147.464,-271.731 153.47,-280.458 154.217,-269.89 147.464,-271.731"/>
</g>
<!-- Node3 -->
<g id="node3" class="node"><title>Node3</title>
<g id="a_node3"><a xlink:href="image_8h.html" target="_top" xlink:title="image.h">
<polygon fill="white" stroke="black" points="49.5,-112.5 49.5,-131.5 100.5,-131.5 100.5,-112.5 49.5,-112.5"/>
<text text-anchor="middle" x="75" y="-119.5" font-family="Helvetica,sans-Serif" font-size="10.00">image.h</text>
</a>
</g>
</g>
<!-- Node1&#45;&gt;Node3 -->
<g id="edge11" class="edge"><title>Node1&#45;&gt;Node3</title>
<path fill="none" stroke="midnightblue" d="M143.686,-272.119C129.968,-252.665 107.899,-219.337 94,-188 85.4197,-168.655 79.5122,-144.379 76.7608,-131.67"/>
<polygon fill="midnightblue" stroke="midnightblue" points="140.842,-274.161 149.509,-280.255 146.535,-270.087 140.842,-274.161"/>
</g>
<!-- Node9 -->
<g id="node9" class="node"><title>Node9</title>
<g id="a_node9"><a xlink:href="initializer_8h.html" target="_top" xlink:title="initializer.h">
<polygon fill="white" stroke="black" points="154.5,-224.5 154.5,-243.5 217.5,-243.5 217.5,-224.5 154.5,-224.5"/>
<text text-anchor="middle" x="186" y="-231.5" font-family="Helvetica,sans-Serif" font-size="10.00">initializer.h</text>
</a>
</g>
</g>
<!-- Node1&#45;&gt;Node9 -->
<g id="edge8" class="edge"><title>Node1&#45;&gt;Node9</title>
<path fill="none" stroke="midnightblue" d="M165.847,-271.275C170.975,-262.045 177.016,-251.17 181.138,-243.751"/>
<polygon fill="midnightblue" stroke="midnightblue" points="162.751,-269.642 160.954,-280.083 168.87,-273.041 162.751,-269.642"/>
</g>
<!-- Node11 -->
<g id="node11" class="node"><title>Node11</title>
<g id="a_node11"><a xlink:href="rag_8cpp.html" target="_top" xlink:title="rag.cpp">
<polygon fill="white" stroke="black" points="235.5,-224.5 235.5,-243.5 284.5,-243.5 284.5,-224.5 235.5,-224.5"/>
<text text-anchor="middle" x="260" y="-231.5" font-family="Helvetica,sans-Serif" font-size="10.00">rag.cpp</text>
</a>
</g>
</g>
<!-- Node1&#45;&gt;Node11 -->
<g id="edge12" class="edge"><title>Node1&#45;&gt;Node11</title>
<path fill="none" stroke="midnightblue" d="M181.828,-275.59C201.057,-265.605 226.745,-252.267 243.332,-243.655"/>
<polygon fill="midnightblue" stroke="midnightblue" points="179.971,-272.61 172.709,-280.324 183.197,-278.822 179.971,-272.61"/>
</g>
<!-- Node2&#45;&gt;Node3 -->
<g id="edge2" class="edge"><title>Node2&#45;&gt;Node3</title>
<path fill="none" stroke="midnightblue" d="M121.727,-161.82C110.082,-152.145 95.4005,-139.948 85.6334,-131.834"/>
<polygon fill="midnightblue" stroke="midnightblue" points="119.628,-164.626 129.557,-168.324 124.101,-159.242 119.628,-164.626"/>
</g>
<!-- Node8 -->
<g id="node8" class="node"><title>Node8</title>
<g id="a_node8"><a xlink:href="imageblock_8cpp.html" target="_top" xlink:title="imageblock.cpp">
<polygon fill="white" stroke="black" points="118.5,-112.5 118.5,-131.5 203.5,-131.5 203.5,-112.5 118.5,-112.5"/>
<text text-anchor="middle" x="161" y="-119.5" font-family="Helvetica,sans-Serif" font-size="10.00">imageblock.cpp</text>
</a>
</g>
</g>
<!-- Node2&#45;&gt;Node8 -->
<g id="edge7" class="edge"><title>Node2&#45;&gt;Node8</title>
<path fill="none" stroke="midnightblue" d="M147.121,-158.69C150.66,-149.589 154.772,-139.014 157.597,-131.751"/>
<polygon fill="midnightblue" stroke="midnightblue" points="143.83,-157.494 143.468,-168.083 150.354,-160.032 143.83,-157.494"/>
</g>
<!-- Node4 -->
<g id="node4" class="node"><title>Node4</title>
<g id="a_node4"><a xlink:href="image_8cpp.html" target="_top" xlink:title="image.cpp">
<polygon fill="white" stroke="black" points="0,-56.5 0,-75.5 62,-75.5 62,-56.5 0,-56.5"/>
<text text-anchor="middle" x="31" y="-63.5" font-family="Helvetica,sans-Serif" font-size="10.00">image.cpp</text>
</a>
</g>
</g>
<!-- Node3&#45;&gt;Node4 -->
<g id="edge3" class="edge"><title>Node3&#45;&gt;Node4</title>
<path fill="none" stroke="midnightblue" d="M61.2655,-104.144C53.5995,-94.7357 44.3667,-83.4046 38.1305,-75.7511"/>
<polygon fill="midnightblue" stroke="midnightblue" points="58.7042,-106.541 67.7343,-112.083 64.1309,-102.12 58.7042,-106.541"/>
</g>
<!-- Node5 -->
<g id="node5" class="node"><title>Node5</title>
<g id="a_node5"><a xlink:href="mainwindow_8h.html" target="_top" xlink:title="mainwindow.h">
<polygon fill="white" stroke="black" points="80.5,-56.5 80.5,-75.5 159.5,-75.5 159.5,-56.5 80.5,-56.5"/>
<text text-anchor="middle" x="120" y="-63.5" font-family="Helvetica,sans-Serif" font-size="10.00">mainwindow.h</text>
</a>
</g>
</g>
<!-- Node3&#45;&gt;Node5 -->
<g id="edge4" class="edge"><title>Node3&#45;&gt;Node5</title>
<path fill="none" stroke="midnightblue" d="M89.0467,-104.144C96.8869,-94.7357 106.329,-83.4046 112.707,-75.7511"/>
<polygon fill="midnightblue" stroke="midnightblue" points="86.1439,-102.16 82.4308,-112.083 91.5215,-106.641 86.1439,-102.16"/>
</g>
<!-- Node6 -->
<g id="node6" class="node"><title>Node6</title>
<g id="a_node6"><a xlink:href="main_8cpp.html" target="_top" xlink:title="main.cpp">
<polygon fill="white" stroke="black" points="47,-0.5 47,-19.5 103,-19.5 103,-0.5 47,-0.5"/>
<text text-anchor="middle" x="75" y="-7.5" font-family="Helvetica,sans-Serif" font-size="10.00">main.cpp</text>
</a>
</g>
</g>
<!-- Node5&#45;&gt;Node6 -->
<g id="edge5" class="edge"><title>Node5&#45;&gt;Node6</title>
<path fill="none" stroke="midnightblue" d="M105.953,-48.144C98.1131,-38.7357 88.6705,-27.4046 82.2926,-19.7511"/>
<polygon fill="midnightblue" stroke="midnightblue" points="103.479,-50.6414 112.569,-56.083 108.856,-46.1601 103.479,-50.6414"/>
</g>
<!-- Node7 -->
<g id="node7" class="node"><title>Node7</title>
<g id="a_node7"><a xlink:href="mainwindow_8cpp.html" target="_top" xlink:title="mainwindow.cpp">
<polygon fill="white" stroke="black" points="121.5,-0.5 121.5,-19.5 210.5,-19.5 210.5,-0.5 121.5,-0.5"/>
<text text-anchor="middle" x="166" y="-7.5" font-family="Helvetica,sans-Serif" font-size="10.00">mainwindow.cpp</text>
</a>
</g>
</g>
<!-- Node5&#45;&gt;Node7 -->
<g id="edge6" class="edge"><title>Node5&#45;&gt;Node7</title>
<path fill="none" stroke="midnightblue" d="M134.114,-48.4314C142.176,-38.9673 151.959,-27.4827 158.545,-19.7511"/>
<polygon fill="midnightblue" stroke="midnightblue" points="131.416,-46.2009 127.596,-56.083 136.745,-50.7402 131.416,-46.2009"/>
</g>
<!-- Node9&#45;&gt;Node2 -->
<g id="edge9" class="edge"><title>Node9&#45;&gt;Node2</title>
<path fill="none" stroke="midnightblue" d="M171.886,-216.431C163.824,-206.967 154.041,-195.483 147.455,-187.751"/>
<polygon fill="midnightblue" stroke="midnightblue" points="169.255,-218.74 178.404,-224.083 174.584,-214.201 169.255,-218.74"/>
</g>
<!-- Node10 -->
<g id="node10" class="node"><title>Node10</title>
<g id="a_node10"><a xlink:href="initializer_8cpp.html" target="_top" xlink:title="initializer.cpp">
<polygon fill="white" stroke="black" points="195,-168.5 195,-187.5 269,-187.5 269,-168.5 195,-168.5"/>
<text text-anchor="middle" x="232" y="-175.5" font-family="Helvetica,sans-Serif" font-size="10.00">initializer.cpp</text>
</a>
</g>
</g>
<!-- Node9&#45;&gt;Node10 -->
<g id="edge10" class="edge"><title>Node9&#45;&gt;Node10</title>
<path fill="none" stroke="midnightblue" d="M200.114,-216.431C208.176,-206.967 217.959,-195.483 224.545,-187.751"/>
<polygon fill="midnightblue" stroke="midnightblue" points="197.416,-214.201 193.596,-224.083 202.745,-218.74 197.416,-214.201"/>
</g>
</g>
</svg>
