<?xml version="1.0" encoding="UTF-8" standalone="no"?>
<!DOCTYPE svg PUBLIC "-//W3C//DTD SVG 1.1//EN"
 "http://www.w3.org/Graphics/SVG/1.1/DTD/svg11.dtd">
<!-- Generated by graphviz version 2.38.0 (20140413.2041)
 -->
<!-- Title: statistics.h Pages: 1 -->
<svg width="649pt" height="420pt"
 viewBox="0.00 0.00 648.50 420.00" xmlns="http://www.w3.org/2000/svg" xmlns:xlink="http://www.w3.org/1999/xlink">
<g id="graph0" class="graph" transform="scale(1 1) rotate(0) translate(4 416)">
<title>statistics.h</title>
<polygon fill="white" stroke="none" points="-4,4 -4,-416 644.5,-416 644.5,4 -4,4"/>
<!-- Node1 -->
<g id="node1" class="node"><title>Node1</title>
<polygon fill="#bfbfbf" stroke="black" points="244.5,-392.5 244.5,-411.5 309.5,-411.5 309.5,-392.5 244.5,-392.5"/>
<text text-anchor="middle" x="277" y="-399.5" font-family="Helvetica,sans-Serif" font-size="10.00">statistics.h</text>
</g>
<!-- Node2 -->
<g id="node2" class="node"><title>Node2</title>
<g id="a_node2"><a xlink:href="histogrammodel_8h.html" target="_top" xlink:title="histogrammodel.h">
<polygon fill="white" stroke="black" points="179,-336.5 179,-355.5 273,-355.5 273,-336.5 179,-336.5"/>
<text text-anchor="middle" x="226" y="-343.5" font-family="Helvetica,sans-Serif" font-size="10.00">histogrammodel.h</text>
</a>
</g>
</g>
<!-- Node1&#45;&gt;Node2 -->
<g id="edge1" class="edge"><title>Node1&#45;&gt;Node2</title>
<path fill="none" stroke="midnightblue" d="M261.622,-384.718C252.633,-375.2 241.641,-363.561 234.265,-355.751"/>
<polygon fill="midnightblue" stroke="midnightblue" points="259.168,-387.216 268.578,-392.083 264.257,-382.41 259.168,-387.216"/>
</g>
<!-- Node21 -->
<g id="node21" class="node"><title>Node21</title>
<g id="a_node21"><a xlink:href="statistics_8cpp.html" target="_top" xlink:title="statistics.cpp">
<polygon fill="white" stroke="black" points="291.5,-336.5 291.5,-355.5 366.5,-355.5 366.5,-336.5 291.5,-336.5"/>
<text text-anchor="middle" x="329" y="-343.5" font-family="Helvetica,sans-Serif" font-size="10.00">statistics.cpp</text>
</a>
</g>
</g>
<!-- Node1&#45;&gt;Node21 -->
<g id="edge27" class="edge"><title>Node1&#45;&gt;Node21</title>
<path fill="none" stroke="midnightblue" d="M292.679,-384.718C301.845,-375.2 313.053,-363.561 320.573,-355.751"/>
<polygon fill="midnightblue" stroke="midnightblue" points="290.002,-382.452 285.587,-392.083 295.044,-387.308 290.002,-382.452"/>
</g>
<!-- Node3 -->
<g id="node3" class="node"><title>Node3</title>
<g id="a_node3"><a xlink:href="compoundmodel_8h.html" target="_top" xlink:title="compoundmodel.h">
<polygon fill="white" stroke="black" points="178,-280.5 178,-299.5 274,-299.5 274,-280.5 178,-280.5"/>
<text text-anchor="middle" x="226" y="-287.5" font-family="Helvetica,sans-Serif" font-size="10.00">compoundmodel.h</text>
</a>
</g>
</g>
<!-- Node2&#45;&gt;Node3 -->
<g id="edge2" class="edge"><title>Node2&#45;&gt;Node3</title>
<path fill="none" stroke="midnightblue" d="M226,-325.805C226,-316.91 226,-306.78 226,-299.751"/>
<polygon fill="midnightblue" stroke="midnightblue" points="222.5,-326.083 226,-336.083 229.5,-326.083 222.5,-326.083"/>
</g>
<!-- Node18 -->
<g id="node18" class="node"><title>Node18</title>
<g id="a_node18"><a xlink:href="initializer_8h.html" target="_top" xlink:title="initializer.h">
<polygon fill="white" stroke="black" points="97.5,-224.5 97.5,-243.5 160.5,-243.5 160.5,-224.5 97.5,-224.5"/>
<text text-anchor="middle" x="129" y="-231.5" font-family="Helvetica,sans-Serif" font-size="10.00">initializer.h</text>
</a>
</g>
</g>
<!-- Node2&#45;&gt;Node18 -->
<g id="edge26" class="edge"><title>Node2&#45;&gt;Node18</title>
<path fill="none" stroke="midnightblue" d="M204.204,-330.583C192.89,-322.444 179.316,-311.595 169,-300 152.971,-281.983 139.516,-256.731 133.076,-243.637"/>
<polygon fill="midnightblue" stroke="midnightblue" points="202.481,-333.648 212.687,-336.492 206.482,-327.904 202.481,-333.648"/>
</g>
<!-- Node20 -->
<g id="node20" class="node"><title>Node20</title>
<g id="a_node20"><a xlink:href="histogrammodel_8cpp.html" target="_top" xlink:title="histogrammodel.cpp">
<polygon fill="white" stroke="black" points="292,-280.5 292,-299.5 396,-299.5 396,-280.5 292,-280.5"/>
<text text-anchor="middle" x="344" y="-287.5" font-family="Helvetica,sans-Serif" font-size="10.00">histogrammodel.cpp</text>
</a>
</g>
</g>
<!-- Node2&#45;&gt;Node20 -->
<g id="edge25" class="edge"><title>Node2&#45;&gt;Node20</title>
<path fill="none" stroke="midnightblue" d="M253.9,-332.232C275.973,-322.131 306.176,-308.309 325.39,-299.516"/>
<polygon fill="midnightblue" stroke="midnightblue" points="252.334,-329.1 244.697,-336.444 255.247,-335.465 252.334,-329.1"/>
</g>
<!-- Node4 -->
<g id="node4" class="node"><title>Node4</title>
<g id="a_node4"><a xlink:href="compoundmodel_8cpp.html" target="_top" xlink:title="compoundmodel.cpp">
<polygon fill="white" stroke="black" points="267.5,-224.5 267.5,-243.5 374.5,-243.5 374.5,-224.5 267.5,-224.5"/>
<text text-anchor="middle" x="321" y="-231.5" font-family="Helvetica,sans-Serif" font-size="10.00">compoundmodel.cpp</text>
</a>
</g>
</g>
<!-- Node3&#45;&gt;Node4 -->
<g id="edge3" class="edge"><title>Node3&#45;&gt;Node4</title>
<path fill="none" stroke="midnightblue" d="M250.318,-275.177C267.799,-265.241 290.83,-252.149 305.774,-243.655"/>
<polygon fill="midnightblue" stroke="midnightblue" points="248.227,-272.339 241.263,-280.324 251.687,-278.425 248.227,-272.339"/>
</g>
<!-- Node5 -->
<g id="node5" class="node"><title>Node5</title>
<g id="a_node5"><a xlink:href="io_8h.html" target="_top" xlink:title="io.h">
<polygon fill="white" stroke="black" points="217,-224.5 217,-243.5 249,-243.5 249,-224.5 217,-224.5"/>
<text text-anchor="middle" x="233" y="-231.5" font-family="Helvetica,sans-Serif" font-size="10.00">io.h</text>
</a>
</g>
</g>
<!-- Node3&#45;&gt;Node5 -->
<g id="edge4" class="edge"><title>Node3&#45;&gt;Node5</title>
<path fill="none" stroke="midnightblue" d="M228.45,-270.101C229.612,-261.136 230.944,-250.858 231.866,-243.751"/>
<polygon fill="midnightblue" stroke="midnightblue" points="224.971,-269.716 227.156,-280.083 231.912,-270.616 224.971,-269.716"/>
</g>
<!-- Node12 -->
<g id="node12" class="node"><title>Node12</title>
<g id="a_node12"><a xlink:href="image_8h.html" target="_top" xlink:title="image.h">
<polygon fill="white" stroke="black" points="207.5,-112.5 207.5,-131.5 258.5,-131.5 258.5,-112.5 207.5,-112.5"/>
<text text-anchor="middle" x="233" y="-119.5" font-family="Helvetica,sans-Serif" font-size="10.00">image.h</text>
</a>
</g>
</g>
<!-- Node3&#45;&gt;Node12 -->
<g id="edge23" class="edge"><title>Node3&#45;&gt;Node12</title>
<path fill="none" stroke="midnightblue" d="M217.061,-271.195C213.483,-263.111 209.79,-253.295 208,-244 199.887,-201.873 219.709,-151.717 228.77,-131.789"/>
<polygon fill="midnightblue" stroke="midnightblue" points="213.944,-272.791 221.379,-280.339 220.273,-269.802 213.944,-272.791"/>
</g>
<!-- Node13 -->
<g id="node13" class="node"><title>Node13</title>
<g id="a_node13"><a xlink:href="image_8cpp.html" target="_top" xlink:title="image.cpp">
<polygon fill="white" stroke="black" points="303,-56.5 303,-75.5 365,-75.5 365,-56.5 303,-56.5"/>
<text text-anchor="middle" x="334" y="-63.5" font-family="Helvetica,sans-Serif" font-size="10.00">image.cpp</text>
</a>
</g>
</g>
<!-- Node3&#45;&gt;Node13 -->
<g id="edge24" class="edge"><title>Node3&#45;&gt;Node13</title>
<path fill="none" stroke="midnightblue" d="M274.68,-278.142C318.245,-267.935 376.271,-252.928 383,-244 423.875,-189.763 362.81,-103.247 341.143,-75.7131"/>
<polygon fill="midnightblue" stroke="midnightblue" points="273.745,-274.766 264.794,-280.435 275.327,-281.585 273.745,-274.766"/>
</g>
<!-- Node3&#45;&gt;Node18 -->
<g id="edge20" class="edge"><title>Node3&#45;&gt;Node18</title>
<path fill="none" stroke="midnightblue" d="M201.665,-275.453C183.757,-265.483 159.946,-252.228 144.546,-243.655"/>
<polygon fill="midnightblue" stroke="midnightblue" points="199.975,-278.518 210.415,-280.324 203.38,-272.402 199.975,-278.518"/>
</g>
<!-- Node6 -->
<g id="node6" class="node"><title>Node6</title>
<g id="a_node6"><a xlink:href="hoovermetrics_8h.html" target="_top" xlink:title="hoovermetrics.h">
<polygon fill="white" stroke="black" points="431,-112.5 431,-131.5 517,-131.5 517,-112.5 431,-112.5"/>
<text text-anchor="middle" x="474" y="-119.5" font-family="Helvetica,sans-Serif" font-size="10.00">hoovermetrics.h</text>
</a>
</g>
</g>
<!-- Node5&#45;&gt;Node6 -->
<g id="edge5" class="edge"><title>Node5&#45;&gt;Node6</title>
<path fill="none" stroke="midnightblue" d="M258.398,-221.408C307.057,-199.198 412.392,-151.12 455.271,-131.549"/>
<polygon fill="midnightblue" stroke="midnightblue" points="256.831,-218.275 249.187,-225.612 259.737,-224.644 256.831,-218.275"/>
</g>
<!-- Node11 -->
<g id="node11" class="node"><title>Node11</title>
<g id="a_node11"><a xlink:href="imageblock_8h.html" target="_top" xlink:title="imageblock.h">
<polygon fill="white" stroke="black" points="92,-168.5 92,-187.5 166,-187.5 166,-168.5 92,-168.5"/>
<text text-anchor="middle" x="129" y="-175.5" font-family="Helvetica,sans-Serif" font-size="10.00">imageblock.h</text>
</a>
</g>
</g>
<!-- Node5&#45;&gt;Node11 -->
<g id="edge11" class="edge"><title>Node5&#45;&gt;Node11</title>
<path fill="none" stroke="midnightblue" d="M207.862,-219.947C188.489,-209.888 162.258,-196.269 145.479,-187.556"/>
<polygon fill="midnightblue" stroke="midnightblue" points="206.262,-223.061 216.75,-224.562 209.488,-216.848 206.262,-223.061"/>
</g>
<!-- Node5&#45;&gt;Node12 -->
<g id="edge18" class="edge"><title>Node5&#45;&gt;Node12</title>
<path fill="none" stroke="midnightblue" d="M233,-214.348C233,-190.254 233,-149.308 233,-131.591"/>
<polygon fill="midnightblue" stroke="midnightblue" points="229.5,-214.368 233,-224.368 236.5,-214.369 229.5,-214.368"/>
</g>
<!-- Node17 -->
<g id="node17" class="node"><title>Node17</title>
<g id="a_node17"><a xlink:href="io_8cpp.html" target="_top" xlink:title="io.cpp">
<polygon fill="white" stroke="black" points="261.5,-168.5 261.5,-187.5 304.5,-187.5 304.5,-168.5 261.5,-168.5"/>
<text text-anchor="middle" x="283" y="-175.5" font-family="Helvetica,sans-Serif" font-size="10.00">io.cpp</text>
</a>
</g>
</g>
<!-- Node5&#45;&gt;Node17 -->
<g id="edge19" class="edge"><title>Node5&#45;&gt;Node17</title>
<path fill="none" stroke="midnightblue" d="M248.076,-216.718C256.889,-207.2 267.666,-195.561 274.897,-187.751"/>
<polygon fill="midnightblue" stroke="midnightblue" points="245.482,-214.367 241.256,-224.083 250.619,-219.123 245.482,-214.367"/>
</g>
<!-- Node7 -->
<g id="node7" class="node"><title>Node7</title>
<g id="a_node7"><a xlink:href="hoovercalculator_8h.html" target="_top" xlink:title="hoovercalculator.h">
<polygon fill="white" stroke="black" points="539,-56.5 539,-75.5 635,-75.5 635,-56.5 539,-56.5"/>
<text text-anchor="middle" x="587" y="-63.5" font-family="Helvetica,sans-Serif" font-size="10.00">hoovercalculator.h</text>
</a>
</g>
</g>
<!-- Node6&#45;&gt;Node7 -->
<g id="edge6" class="edge"><title>Node6&#45;&gt;Node7</title>
<path fill="none" stroke="midnightblue" d="M501.003,-108.096C522.114,-98.0073 550.862,-84.2697 569.179,-75.5164"/>
<polygon fill="midnightblue" stroke="midnightblue" points="499.419,-104.974 491.905,-112.444 502.437,-111.29 499.419,-104.974"/>
</g>
<!-- Node9 -->
<g id="node9" class="node"><title>Node9</title>
<g id="a_node9"><a xlink:href="mainwindow_8cpp.html" target="_top" xlink:title="mainwindow.cpp">
<polygon fill="white" stroke="black" points="350.5,-0.5 350.5,-19.5 439.5,-19.5 439.5,-0.5 350.5,-0.5"/>
<text text-anchor="middle" x="395" y="-7.5" font-family="Helvetica,sans-Serif" font-size="10.00">mainwindow.cpp</text>
</a>
</g>
</g>
<!-- Node6&#45;&gt;Node9 -->
<g id="edge10" class="edge"><title>Node6&#45;&gt;Node9</title>
<path fill="none" stroke="midnightblue" d="M448.342,-107.023C436.348,-99.3088 422.804,-88.7087 414,-76 401.815,-58.4106 397.352,-32.9781 395.791,-19.7446"/>
<polygon fill="midnightblue" stroke="midnightblue" points="446.743,-110.146 457.107,-112.346 450.376,-104.163 446.743,-110.146"/>
</g>
<!-- Node10 -->
<g id="node10" class="node"><title>Node10</title>
<g id="a_node10"><a xlink:href="hoovermetrics_8cpp.html" target="_top" xlink:title="hoovermetrics.cpp">
<polygon fill="white" stroke="black" points="423.5,-56.5 423.5,-75.5 520.5,-75.5 520.5,-56.5 423.5,-56.5"/>
<text text-anchor="middle" x="472" y="-63.5" font-family="Helvetica,sans-Serif" font-size="10.00">hoovermetrics.cpp</text>
</a>
</g>
</g>
<!-- Node6&#45;&gt;Node10 -->
<g id="edge9" class="edge"><title>Node6&#45;&gt;Node10</title>
<path fill="none" stroke="midnightblue" d="M473.289,-101.805C472.96,-92.9102 472.584,-82.7798 472.324,-75.7511"/>
<polygon fill="midnightblue" stroke="midnightblue" points="469.802,-102.219 473.67,-112.083 476.797,-101.96 469.802,-102.219"/>
</g>
<!-- Node8 -->
<g id="node8" class="node"><title>Node8</title>
<g id="a_node8"><a xlink:href="hoovercalculator_8cpp.html" target="_top" xlink:title="hoovercalculator.cpp">
<polygon fill="white" stroke="black" points="533.5,-0.5 533.5,-19.5 640.5,-19.5 640.5,-0.5 533.5,-0.5"/>
<text text-anchor="middle" x="587" y="-7.5" font-family="Helvetica,sans-Serif" font-size="10.00">hoovercalculator.cpp</text>
</a>
</g>
</g>
<!-- Node7&#45;&gt;Node8 -->
<g id="edge7" class="edge"><title>Node7&#45;&gt;Node8</title>
<path fill="none" stroke="midnightblue" d="M587,-45.8045C587,-36.9102 587,-26.7798 587,-19.7511"/>
<polygon fill="midnightblue" stroke="midnightblue" points="583.5,-46.083 587,-56.083 590.5,-46.083 583.5,-46.083"/>
</g>
<!-- Node7&#45;&gt;Node9 -->
<g id="edge8" class="edge"><title>Node7&#45;&gt;Node9</title>
<path fill="none" stroke="midnightblue" d="M546.817,-53.6986C510.581,-43.507 458.086,-28.7429 425.281,-19.5164"/>
<polygon fill="midnightblue" stroke="midnightblue" points="546.003,-57.1053 556.577,-56.4435 547.898,-50.3667 546.003,-57.1053"/>
</g>
<!-- Node11&#45;&gt;Node12 -->
<g id="edge12" class="edge"><title>Node11&#45;&gt;Node12</title>
<path fill="none" stroke="midnightblue" d="M154.828,-163.59C174.057,-153.605 199.745,-140.267 216.332,-131.655"/>
<polygon fill="midnightblue" stroke="midnightblue" points="152.971,-160.61 145.709,-168.324 156.197,-166.822 152.971,-160.61"/>
</g>
<!-- Node16 -->
<g id="node16" class="node"><title>Node16</title>
<g id="a_node16"><a xlink:href="imageblock_8cpp.html" target="_top" xlink:title="imageblock.cpp">
<polygon fill="white" stroke="black" points="86.5,-112.5 86.5,-131.5 171.5,-131.5 171.5,-112.5 86.5,-112.5"/>
<text text-anchor="middle" x="129" y="-119.5" font-family="Helvetica,sans-Serif" font-size="10.00">imageblock.cpp</text>
</a>
</g>
</g>
<!-- Node11&#45;&gt;Node16 -->
<g id="edge17" class="edge"><title>Node11&#45;&gt;Node16</title>
<path fill="none" stroke="midnightblue" d="M129,-157.805C129,-148.91 129,-138.78 129,-131.751"/>
<polygon fill="midnightblue" stroke="midnightblue" points="125.5,-158.083 129,-168.083 132.5,-158.083 125.5,-158.083"/>
</g>
<!-- Node12&#45;&gt;Node13 -->
<g id="edge13" class="edge"><title>Node12&#45;&gt;Node13</title>
<path fill="none" stroke="midnightblue" d="M258.083,-107.59C276.757,-97.6052 301.704,-84.2672 317.813,-75.6545"/>
<polygon fill="midnightblue" stroke="midnightblue" points="256.396,-104.522 249.227,-112.324 259.696,-110.696 256.396,-104.522"/>
</g>
<!-- Node14 -->
<g id="node14" class="node"><title>Node14</title>
<g id="a_node14"><a xlink:href="mainwindow_8h.html" target="_top" xlink:title="mainwindow.h">
<polygon fill="white" stroke="black" points="201.5,-56.5 201.5,-75.5 280.5,-75.5 280.5,-56.5 201.5,-56.5"/>
<text text-anchor="middle" x="241" y="-63.5" font-family="Helvetica,sans-Serif" font-size="10.00">mainwindow.h</text>
</a>
</g>
</g>
<!-- Node12&#45;&gt;Node14 -->
<g id="edge14" class="edge"><title>Node12&#45;&gt;Node14</title>
<path fill="none" stroke="midnightblue" d="M235.8,-102.101C237.128,-93.1357 238.651,-82.8579 239.704,-75.7511"/>
<polygon fill="midnightblue" stroke="midnightblue" points="232.324,-101.678 234.321,-112.083 239.249,-102.704 232.324,-101.678"/>
</g>
<!-- Node14&#45;&gt;Node9 -->
<g id="edge16" class="edge"><title>Node14&#45;&gt;Node9</title>
<path fill="none" stroke="midnightblue" d="M275.111,-53.0392C304.087,-42.8786 344.962,-28.5457 370.712,-19.5164"/>
<polygon fill="midnightblue" stroke="midnightblue" points="273.68,-49.8317 265.402,-56.4435 275.997,-56.4373 273.68,-49.8317"/>
</g>
<!-- Node15 -->
<g id="node15" class="node"><title>Node15</title>
<g id="a_node15"><a xlink:href="main_8cpp.html" target="_top" xlink:title="main.cpp">
<polygon fill="white" stroke="black" points="213,-0.5 213,-19.5 269,-19.5 269,-0.5 213,-0.5"/>
<text text-anchor="middle" x="241" y="-7.5" font-family="Helvetica,sans-Serif" font-size="10.00">main.cpp</text>
</a>
</g>
</g>
<!-- Node14&#45;&gt;Node15 -->
<g id="edge15" class="edge"><title>Node14&#45;&gt;Node15</title>
<path fill="none" stroke="midnightblue" d="M241,-45.8045C241,-36.9102 241,-26.7798 241,-19.7511"/>
<polygon fill="midnightblue" stroke="midnightblue" points="237.5,-46.083 241,-56.083 244.5,-46.083 237.5,-46.083"/>
</g>
<!-- Node18&#45;&gt;Node11 -->
<g id="edge21" class="edge"><title>Node18&#45;&gt;Node11</title>
<path fill="none" stroke="midnightblue" d="M129,-213.805C129,-204.91 129,-194.78 129,-187.751"/>
<polygon fill="midnightblue" stroke="midnightblue" points="125.5,-214.083 129,-224.083 132.5,-214.083 125.5,-214.083"/>
</g>
<!-- Node19 -->
<g id="node19" class="node"><title>Node19</title>
<g id="a_node19"><a xlink:href="initializer_8cpp.html" target="_top" xlink:title="initializer.cpp">
<polygon fill="white" stroke="black" points="0,-168.5 0,-187.5 74,-187.5 74,-168.5 0,-168.5"/>
<text text-anchor="middle" x="37" y="-175.5" font-family="Helvetica,sans-Serif" font-size="10.00">initializer.cpp</text>
</a>
</g>
</g>
<!-- Node18&#45;&gt;Node19 -->
<g id="edge22" class="edge"><title>Node18&#45;&gt;Node19</title>
<path fill="none" stroke="midnightblue" d="M105.45,-219.177C88.5211,-209.241 66.2172,-196.149 51.7447,-187.655"/>
<polygon fill="midnightblue" stroke="midnightblue" points="103.823,-222.28 114.219,-224.324 107.366,-216.243 103.823,-222.28"/>
</g>
</g>
</svg>
