<?xml version="1.0" encoding="UTF-8" standalone="no"?>
<!DOCTYPE svg PUBLIC "-//W3C//DTD SVG 1.1//EN"
 "http://www.w3.org/Graphics/SVG/1.1/DTD/svg11.dtd">
<!-- Generated by graphviz version 2.38.0 (20140413.2041)
 -->
<!-- Title: histogramModel::getOrder Pages: 1 -->
<svg width="415pt" height="66pt"
 viewBox="0.00 0.00 415.00 66.00" xmlns="http://www.w3.org/2000/svg" xmlns:xlink="http://www.w3.org/1999/xlink">
<g id="graph0" class="graph" transform="scale(1 1) rotate(0) translate(4 62)">
<title>histogramModel::getOrder</title>
<polygon fill="white" stroke="none" points="-4,4 -4,-62 411,-62 411,4 -4,4"/>
<!-- Node44 -->
<g id="node1" class="node"><title>Node44</title>
<polygon fill="#bfbfbf" stroke="black" points="0,-19.5 0,-38.5 129,-38.5 129,-19.5 0,-19.5"/>
<text text-anchor="middle" x="64.5" y="-26.5" font-family="Helvetica,sans-Serif" font-size="10.00">histogramModel::getOrder</text>
</g>
<!-- Node45 -->
<g id="node2" class="node"><title>Node45</title>
<g id="a_node2"><a xlink:href="../../d0/d9c/classstatistics.html#a0c00f6c158c6f4f96751eef58ec71215" target="_top" xlink:title="statistics::EMD">
<polygon fill="white" stroke="black" points="186.5,-38.5 186.5,-57.5 271.5,-57.5 271.5,-38.5 186.5,-38.5"/>
<text text-anchor="middle" x="229" y="-45.5" font-family="Helvetica,sans-Serif" font-size="10.00">statistics::EMD</text>
</a>
</g>
</g>
<!-- Node44&#45;&gt;Node45 -->
<g id="edge1" class="edge"><title>Node44&#45;&gt;Node45</title>
<path fill="none" stroke="midnightblue" d="M129.258,-36.4548C144.863,-38.2793 161.371,-40.2096 176.331,-41.9587"/>
<polygon fill="midnightblue" stroke="midnightblue" points="176.071,-45.452 186.409,-43.1371 176.884,-38.4994 176.071,-45.452"/>
</g>
<!-- Node47 -->
<g id="node4" class="node"><title>Node47</title>
<g id="a_node4"><a xlink:href="../../dc/d13/classhistogram_model.html#ab171013400b0a10066024167eb2da058" target="_top" xlink:title="histogramModel::getBand">
<polygon fill="white" stroke="black" points="165,-0.5 165,-19.5 293,-19.5 293,-0.5 165,-0.5"/>
<text text-anchor="middle" x="229" y="-7.5" font-family="Helvetica,sans-Serif" font-size="10.00">histogramModel::getBand</text>
</a>
</g>
</g>
<!-- Node44&#45;&gt;Node47 -->
<g id="edge3" class="edge"><title>Node44&#45;&gt;Node47</title>
<path fill="none" stroke="midnightblue" d="M129.258,-21.5452C137.694,-20.5589 146.394,-19.5416 154.971,-18.5388"/>
<polygon fill="midnightblue" stroke="midnightblue" points="155.433,-22.0087 164.959,-17.371 154.62,-15.0561 155.433,-22.0087"/>
</g>
<!-- Node46 -->
<g id="node3" class="node"><title>Node46</title>
<g id="a_node3"><a xlink:href="../../d0/d9c/classstatistics.html#aa63d258cdab5c6a5b6f5c15a791ea828" target="_top" xlink:title="statistics::abs">
<polygon fill="white" stroke="black" points="329,-38.5 329,-57.5 407,-57.5 407,-38.5 329,-38.5"/>
<text text-anchor="middle" x="368" y="-45.5" font-family="Helvetica,sans-Serif" font-size="10.00">statistics::abs</text>
</a>
</g>
</g>
<!-- Node45&#45;&gt;Node46 -->
<g id="edge2" class="edge"><title>Node45&#45;&gt;Node46</title>
<path fill="none" stroke="midnightblue" d="M271.849,-48C286.554,-48 303.201,-48 318.412,-48"/>
<polygon fill="midnightblue" stroke="midnightblue" points="318.673,-51.5001 328.673,-48 318.673,-44.5001 318.673,-51.5001"/>
</g>
</g>
</svg>
