<?xml version="1.0" encoding="UTF-8" standalone="no"?>
<!DOCTYPE svg PUBLIC "-//W3C//DTD SVG 1.1//EN"
 "http://www.w3.org/Graphics/SVG/1.1/DTD/svg11.dtd">
<!-- Generated by graphviz version 2.38.0 (20140413.2041)
 -->
<!-- Title: histogramModel::merge Pages: 1 -->
<svg width="489pt" height="394pt"
 viewBox="0.00 0.00 489.00 394.00" xmlns="http://www.w3.org/2000/svg" xmlns:xlink="http://www.w3.org/1999/xlink">
<g id="graph0" class="graph" transform="scale(1 1) rotate(0) translate(4 390)">
<title>histogramModel::merge</title>
<polygon fill="white" stroke="none" points="-4,4 -4,-390 485,-390 485,4 -4,4"/>
<!-- Node67 -->
<g id="node1" class="node"><title>Node67</title>
<polygon fill="#bfbfbf" stroke="black" points="0,-186.5 0,-205.5 119,-205.5 119,-186.5 0,-186.5"/>
<text text-anchor="middle" x="59.5" y="-193.5" font-family="Helvetica,sans-Serif" font-size="10.00">histogramModel::merge</text>
</g>
<!-- Node68 -->
<g id="node2" class="node"><title>Node68</title>
<g id="a_node2"><a xlink:href="../../dc/dd2/classregion_model.html#a56b1a22f355e85211760055c7559cd1e" target="_top" xlink:title="regionModel::getArea">
<polygon fill="white" stroke="black" points="191,-366.5 191,-385.5 300,-385.5 300,-366.5 191,-366.5"/>
<text text-anchor="middle" x="245.5" y="-373.5" font-family="Helvetica,sans-Serif" font-size="10.00">regionModel::getArea</text>
</a>
</g>
</g>
<!-- Node67&#45;&gt;Node68 -->
<g id="edge1" class="edge"><title>Node67&#45;&gt;Node68</title>
<path fill="none" stroke="midnightblue" d="M63.2091,-205.872C71.5681,-234.358 99.7883,-317.199 155,-357 162.746,-362.584 171.79,-366.593 181.095,-369.46"/>
<polygon fill="midnightblue" stroke="midnightblue" points="180.279,-372.864 190.842,-372.051 182.077,-366.099 180.279,-372.864"/>
</g>
<!-- Node69 -->
<g id="node3" class="node"><title>Node69</title>
<g id="a_node3"><a xlink:href="../../dc/d13/classhistogram_model.html#a3e6e68560c5fd12e0cbc98ae136fedd0" target="_top" xlink:title="histogramModel::getMeanSpectrumAt">
<polygon fill="white" stroke="black" points="155,-328.5 155,-347.5 336,-347.5 336,-328.5 155,-328.5"/>
<text text-anchor="middle" x="245.5" y="-335.5" font-family="Helvetica,sans-Serif" font-size="10.00">histogramModel::getMeanSpectrumAt</text>
</a>
</g>
</g>
<!-- Node67&#45;&gt;Node69 -->
<g id="edge2" class="edge"><title>Node67&#45;&gt;Node69</title>
<path fill="none" stroke="midnightblue" d="M64.8608,-205.537C76.1121,-228.993 108.527,-289.706 155,-319 158.38,-321.131 161.961,-323.026 165.669,-324.712"/>
<polygon fill="midnightblue" stroke="midnightblue" points="164.524,-328.024 175.109,-328.486 167.123,-321.524 164.524,-328.024"/>
</g>
<!-- Node70 -->
<g id="node4" class="node"><title>Node70</title>
<g id="a_node4"><a xlink:href="../../dc/d13/classhistogram_model.html#a9888f3ebd10f39ab8d353e12a2630f65" target="_top" xlink:title="histogramModel::getStd">
<polygon fill="white" stroke="black" points="185.5,-290.5 185.5,-309.5 305.5,-309.5 305.5,-290.5 185.5,-290.5"/>
<text text-anchor="middle" x="245.5" y="-297.5" font-family="Helvetica,sans-Serif" font-size="10.00">histogramModel::getStd</text>
</a>
</g>
</g>
<!-- Node67&#45;&gt;Node70 -->
<g id="edge3" class="edge"><title>Node67&#45;&gt;Node70</title>
<path fill="none" stroke="midnightblue" d="M68.1861,-205.677C82.9651,-223.577 117.243,-261.78 155,-281 161.423,-284.27 168.381,-286.977 175.483,-289.219"/>
<polygon fill="midnightblue" stroke="midnightblue" points="174.642,-292.619 185.219,-291.997 176.562,-285.887 174.642,-292.619"/>
</g>
<!-- Node71 -->
<g id="node5" class="node"><title>Node71</title>
<g id="a_node5"><a xlink:href="../../dc/d13/classhistogram_model.html#a698d779f2ff0695f5624c23af267034d" target="_top" xlink:title="histogramModel::getValue">
<polygon fill="white" stroke="black" points="180.5,-252.5 180.5,-271.5 310.5,-271.5 310.5,-252.5 180.5,-252.5"/>
<text text-anchor="middle" x="245.5" y="-259.5" font-family="Helvetica,sans-Serif" font-size="10.00">histogramModel::getValue</text>
</a>
</g>
</g>
<!-- Node67&#45;&gt;Node71 -->
<g id="edge4" class="edge"><title>Node67&#45;&gt;Node71</title>
<path fill="none" stroke="midnightblue" d="M76.6772,-205.631C95.0701,-216.199 126.278,-232.99 155,-243 162.678,-245.676 170.864,-248.041 179.047,-250.113"/>
<polygon fill="midnightblue" stroke="midnightblue" points="178.454,-253.57 188.994,-252.497 180.085,-246.763 178.454,-253.57"/>
</g>
<!-- Node72 -->
<g id="node6" class="node"><title>Node72</title>
<g id="a_node6"><a xlink:href="../../dc/d13/classhistogram_model.html#a165ed6726e5911b4332e687618f10a05" target="_top" xlink:title="histogramModel::histogram\lModel">
<polygon fill="white" stroke="black" points="178.5,-203 178.5,-233 312.5,-233 312.5,-203 178.5,-203"/>
<text text-anchor="start" x="186.5" y="-221" font-family="Helvetica,sans-Serif" font-size="10.00">histogramModel::histogram</text>
<text text-anchor="middle" x="245.5" y="-210" font-family="Helvetica,sans-Serif" font-size="10.00">Model</text>
</a>
</g>
</g>
<!-- Node67&#45;&gt;Node72 -->
<g id="edge5" class="edge"><title>Node67&#45;&gt;Node72</title>
<path fill="none" stroke="midnightblue" d="M119.225,-203.021C134.815,-204.885 151.879,-206.926 168.256,-208.884"/>
<polygon fill="midnightblue" stroke="midnightblue" points="168,-212.378 178.345,-210.09 168.831,-205.428 168,-212.378"/>
</g>
<!-- Node73 -->
<g id="node7" class="node"><title>Node73</title>
<g id="a_node7"><a xlink:href="../../dc/dd2/classregion_model.html#a7f6a5d1ab86d69e213ebb81973481330" target="_top" xlink:title="regionModel::setArea">
<polygon fill="white" stroke="black" points="372,-186.5 372,-205.5 481,-205.5 481,-186.5 372,-186.5"/>
<text text-anchor="middle" x="426.5" y="-193.5" font-family="Helvetica,sans-Serif" font-size="10.00">regionModel::setArea</text>
</a>
</g>
</g>
<!-- Node67&#45;&gt;Node73 -->
<g id="edge8" class="edge"><title>Node67&#45;&gt;Node73</title>
<path fill="none" stroke="midnightblue" d="M119.225,-194.564C131.068,-194.329 143.432,-194.122 155,-194 235.44,-193.149 255.561,-193.101 336,-194 344.266,-194.092 352.96,-194.233 361.549,-194.397"/>
<polygon fill="midnightblue" stroke="midnightblue" points="361.481,-197.896 371.55,-194.6 361.623,-190.898 361.481,-197.896"/>
</g>
<!-- Node74 -->
<g id="node8" class="node"><title>Node74</title>
<g id="a_node8"><a xlink:href="../../dc/d13/classhistogram_model.html#a4d9af6d2786591a437f8bea4c7ce32df" target="_top" xlink:title="histogramModel::releaseHistogram">
<polygon fill="white" stroke="black" points="161.5,-126.5 161.5,-145.5 329.5,-145.5 329.5,-126.5 161.5,-126.5"/>
<text text-anchor="middle" x="245.5" y="-133.5" font-family="Helvetica,sans-Serif" font-size="10.00">histogramModel::releaseHistogram</text>
</a>
</g>
</g>
<!-- Node67&#45;&gt;Node74 -->
<g id="edge7" class="edge"><title>Node67&#45;&gt;Node74</title>
<path fill="none" stroke="midnightblue" d="M83.5664,-186.456C102.557,-178.783 130.279,-168 155,-160 168.05,-155.777 182.336,-151.704 195.587,-148.151"/>
<polygon fill="midnightblue" stroke="midnightblue" points="196.704,-151.476 205.48,-145.54 194.918,-144.707 196.704,-151.476"/>
</g>
<!-- Node75 -->
<g id="node9" class="node"><title>Node75</title>
<g id="a_node9"><a xlink:href="../../dc/d13/classhistogram_model.html#a80ac69aede60d42816e2cf7e4a8e8dff" target="_top" xlink:title="histogramModel::setHistogram\lValue">
<polygon fill="white" stroke="black" points="170.5,-77 170.5,-107 320.5,-107 320.5,-77 170.5,-77"/>
<text text-anchor="start" x="178.5" y="-95" font-family="Helvetica,sans-Serif" font-size="10.00">histogramModel::setHistogram</text>
<text text-anchor="middle" x="245.5" y="-84" font-family="Helvetica,sans-Serif" font-size="10.00">Value</text>
</a>
</g>
</g>
<!-- Node67&#45;&gt;Node75 -->
<g id="edge9" class="edge"><title>Node67&#45;&gt;Node75</title>
<path fill="none" stroke="midnightblue" d="M69.1808,-186.466C84.77,-169.91 119.233,-135.819 155,-117 159.323,-114.725 163.876,-112.639 168.544,-110.728"/>
<polygon fill="midnightblue" stroke="midnightblue" points="170.139,-113.867 178.249,-107.049 167.657,-107.321 170.139,-113.867"/>
</g>
<!-- Node76 -->
<g id="node10" class="node"><title>Node76</title>
<g id="a_node10"><a xlink:href="../../dc/d13/classhistogram_model.html#ac5e04798a647cc5f0e022cbf71db6421" target="_top" xlink:title="histogramModel::setMeanSpectrumAt">
<polygon fill="white" stroke="black" points="155,-38.5 155,-57.5 336,-57.5 336,-38.5 155,-38.5"/>
<text text-anchor="middle" x="245.5" y="-45.5" font-family="Helvetica,sans-Serif" font-size="10.00">histogramModel::setMeanSpectrumAt</text>
</a>
</g>
</g>
<!-- Node67&#45;&gt;Node76 -->
<g id="edge10" class="edge"><title>Node67&#45;&gt;Node76</title>
<path fill="none" stroke="midnightblue" d="M64.6079,-186.464C75.4969,-162.394 107.552,-98.9064 155,-68 158.856,-65.4881 162.983,-63.2884 167.269,-61.3625"/>
<polygon fill="midnightblue" stroke="midnightblue" points="168.853,-64.5 176.867,-57.5688 166.28,-57.9902 168.853,-64.5"/>
</g>
<!-- Node77 -->
<g id="node11" class="node"><title>Node77</title>
<g id="a_node11"><a xlink:href="../../dc/d13/classhistogram_model.html#a29f1b47d4c87f6a9e46c70758dd7c892" target="_top" xlink:title="histogramModel::setStd">
<polygon fill="white" stroke="black" points="185.5,-0.5 185.5,-19.5 305.5,-19.5 305.5,-0.5 185.5,-0.5"/>
<text text-anchor="middle" x="245.5" y="-7.5" font-family="Helvetica,sans-Serif" font-size="10.00">histogramModel::setStd</text>
</a>
</g>
</g>
<!-- Node67&#45;&gt;Node77 -->
<g id="edge11" class="edge"><title>Node67&#45;&gt;Node77</title>
<path fill="none" stroke="midnightblue" d="M62.9781,-186.186C70.8718,-157.058 98.3077,-70.5543 155,-29 161.077,-24.5454 167.976,-21.0892 175.182,-18.4145"/>
<polygon fill="midnightblue" stroke="midnightblue" points="176.69,-21.6072 185.151,-15.2311 174.561,-14.9389 176.69,-21.6072"/>
</g>
<!-- Node72&#45;&gt;Node73 -->
<g id="edge6" class="edge"><title>Node72&#45;&gt;Node73</title>
<path fill="none" stroke="midnightblue" d="M312.644,-209.871C328.657,-207.903 345.741,-205.803 361.646,-203.848"/>
<polygon fill="midnightblue" stroke="midnightblue" points="362.406,-207.281 371.904,-202.587 361.552,-200.333 362.406,-207.281"/>
</g>
</g>
</svg>
