<?xml version="1.0" encoding="UTF-8" standalone="no"?>
<!DOCTYPE svg PUBLIC "-//W3C//DTD SVG 1.1//EN"
 "http://www.w3.org/Graphics/SVG/1.1/DTD/svg11.dtd">
<!-- Generated by graphviz version 2.38.0 (20140413.2041)
 -->
<!-- Title: histogramModel::getValue Pages: 1 -->
<svg width="450pt" height="28pt"
 viewBox="0.00 0.00 450.00 28.00" xmlns="http://www.w3.org/2000/svg" xmlns:xlink="http://www.w3.org/1999/xlink">
<g id="graph0" class="graph" transform="scale(1 1) rotate(0) translate(4 24)">
<title>histogramModel::getValue</title>
<polygon fill="white" stroke="none" points="-4,4 -4,-24 446,-24 446,4 -4,4"/>
<!-- Node59 -->
<g id="node1" class="node"><title>Node59</title>
<polygon fill="#bfbfbf" stroke="black" points="0,-0.5 0,-19.5 130,-19.5 130,-0.5 0,-0.5"/>
<text text-anchor="middle" x="65" y="-7.5" font-family="Helvetica,sans-Serif" font-size="10.00">histogramModel::getValue</text>
</g>
<!-- Node60 -->
<g id="node2" class="node"><title>Node60</title>
<g id="a_node2"><a xlink:href="../../dc/d13/classhistogram_model.html#a2a84442dd0292f62b6ef0b35ea033790" target="_top" xlink:title="histogramModel::merge">
<polygon fill="white" stroke="black" points="166,-0.5 166,-19.5 285,-19.5 285,-0.5 166,-0.5"/>
<text text-anchor="middle" x="225.5" y="-7.5" font-family="Helvetica,sans-Serif" font-size="10.00">histogramModel::merge</text>
</a>
</g>
</g>
<!-- Node59&#45;&gt;Node60 -->
<g id="edge1" class="edge"><title>Node59&#45;&gt;Node60</title>
<path fill="none" stroke="midnightblue" d="M140.103,-10C148.752,-10 157.484,-10 165.883,-10"/>
<polygon fill="midnightblue" stroke="midnightblue" points="140.011,-6.5001 130.011,-10 140.011,-13.5001 140.011,-6.5001"/>
</g>
<!-- Node61 -->
<g id="node3" class="node"><title>Node61</title>
<g id="a_node3"><a xlink:href="../../d1/dd7/classcompound_model.html#a3a4f1be5ccd6230918036dcc56328033" target="_top" xlink:title="compoundModel::merge">
<polygon fill="white" stroke="black" points="321,-0.5 321,-19.5 442,-19.5 442,-0.5 321,-0.5"/>
<text text-anchor="middle" x="381.5" y="-7.5" font-family="Helvetica,sans-Serif" font-size="10.00">compoundModel::merge</text>
</a>
</g>
</g>
<!-- Node60&#45;&gt;Node61 -->
<g id="edge2" class="edge"><title>Node60&#45;&gt;Node61</title>
<path fill="none" stroke="midnightblue" d="M295.174,-10C303.782,-10 312.53,-10 320.982,-10"/>
<polygon fill="midnightblue" stroke="midnightblue" points="295.16,-6.5001 285.16,-10 295.16,-13.5001 295.16,-6.5001"/>
</g>
</g>
</svg>
