<?xml version="1.0" encoding="UTF-8" standalone="no"?>
<!DOCTYPE svg PUBLIC "-//W3C//DTD SVG 1.1//EN"
 "http://www.w3.org/Graphics/SVG/1.1/DTD/svg11.dtd">
<!-- Generated by graphviz version 2.38.0 (20140413.2041)
 -->
<!-- Title: regionsClassification Pages: 1 -->
<svg width="402pt" height="39pt"
 viewBox="0.00 0.00 402.00 39.00" xmlns="http://www.w3.org/2000/svg" xmlns:xlink="http://www.w3.org/1999/xlink">
<g id="graph0" class="graph" transform="scale(1 1) rotate(0) translate(4 35)">
<title>regionsClassification</title>
<polygon fill="white" stroke="none" points="-4,4 -4,-35 398,-35 398,4 -4,4"/>
<!-- Node26 -->
<g id="node1" class="node"><title>Node26</title>
<polygon fill="#bfbfbf" stroke="black" points="0,-6 0,-25 107,-25 107,-6 0,-6"/>
<text text-anchor="middle" x="53.5" y="-13" font-family="Helvetica,sans-Serif" font-size="10.00">regionsClassification</text>
</g>
<!-- Node27 -->
<g id="node2" class="node"><title>Node27</title>
<g id="a_node2"><a xlink:href="../../d7/da7/hoovermetrics_8h.html#a455a7ff79d9891a057cc18d8b07a60f4" target="_top" xlink:title="hooverCompare">
<polygon fill="white" stroke="black" points="143,-6 143,-25 229,-25 229,-6 143,-6"/>
<text text-anchor="middle" x="186" y="-13" font-family="Helvetica,sans-Serif" font-size="10.00">hooverCompare</text>
</a>
</g>
</g>
<!-- Node26&#45;&gt;Node27 -->
<g id="edge1" class="edge"><title>Node26&#45;&gt;Node27</title>
<path fill="none" stroke="midnightblue" d="M117.331,-15.5C126.011,-15.5 134.749,-15.5 142.929,-15.5"/>
<polygon fill="midnightblue" stroke="midnightblue" points="117.203,-12.0001 107.203,-15.5 117.203,-19.0001 117.203,-12.0001"/>
</g>
<!-- Node28 -->
<g id="node3" class="node"><title>Node28</title>
<g id="a_node3"><a xlink:href="../../d6/d45/class_hoover_calculator.html#a8b5831262a37a7db5934869a73edec52" target="_top" xlink:title="HooverCalculator::on\l_ComputeHoover_clicked">
<polygon fill="white" stroke="black" points="265,-0.5 265,-30.5 394,-30.5 394,-0.5 265,-0.5"/>
<text text-anchor="start" x="273" y="-18.5" font-family="Helvetica,sans-Serif" font-size="10.00">HooverCalculator::on</text>
<text text-anchor="middle" x="329.5" y="-7.5" font-family="Helvetica,sans-Serif" font-size="10.00">_ComputeHoover_clicked</text>
</a>
</g>
</g>
<!-- Node27&#45;&gt;Node28 -->
<g id="edge2" class="edge"><title>Node27&#45;&gt;Node28</title>
<path fill="none" stroke="midnightblue" d="M239.077,-15.5C247.462,-15.5 256.224,-15.5 264.843,-15.5"/>
<polygon fill="midnightblue" stroke="midnightblue" points="239.072,-12.0001 229.072,-15.5 239.072,-19.0001 239.072,-12.0001"/>
</g>
</g>
</svg>
