<?xml version="1.0" encoding="UTF-8" standalone="no"?>
<!DOCTYPE svg PUBLIC "-//W3C//DTD SVG 1.1//EN"
 "http://www.w3.org/Graphics/SVG/1.1/DTD/svg11.dtd">
<!-- Generated by graphviz version 2.38.0 (20140413.2041)
 -->
<!-- Title: probabilityfilecropper.h Pages: 1 -->
<svg width="240pt" height="84pt"
 viewBox="0.00 0.00 240.00 84.00" xmlns="http://www.w3.org/2000/svg" xmlns:xlink="http://www.w3.org/1999/xlink">
<g id="graph0" class="graph" transform="scale(1 1) rotate(0) translate(4 80)">
<title>probabilityfilecropper.h</title>
<polygon fill="white" stroke="none" points="-4,4 -4,-80 236,-80 236,4 -4,4"/>
<!-- Node3 -->
<g id="node1" class="node"><title>Node3</title>
<polygon fill="#bfbfbf" stroke="black" points="49.5,-56.5 49.5,-75.5 163.5,-75.5 163.5,-56.5 49.5,-56.5"/>
<text text-anchor="middle" x="106.5" y="-63.5" font-family="Helvetica,sans-Serif" font-size="10.00">probabilityfilecropper.h</text>
</g>
<!-- Node4 -->
<g id="node2" class="node"><title>Node4</title>
<g id="a_node2"><a xlink:href="../../d8/dd9/mainwindow_8cpp.html" target="_top" xlink:title="mainwindow.cpp">
<polygon fill="white" stroke="black" points="0,-0.5 0,-19.5 89,-19.5 89,-0.5 0,-0.5"/>
<text text-anchor="middle" x="44.5" y="-7.5" font-family="Helvetica,sans-Serif" font-size="10.00">mainwindow.cpp</text>
</a>
</g>
</g>
<!-- Node3&#45;&gt;Node4 -->
<g id="edge1" class="edge"><title>Node3&#45;&gt;Node4</title>
<path fill="none" stroke="midnightblue" d="M88.7464,-49.5372C77.6915,-39.9087 63.8685,-27.8694 54.6426,-19.8339"/>
<polygon fill="midnightblue" stroke="midnightblue" points="86.699,-52.3954 96.5386,-56.324 91.2965,-47.1168 86.699,-52.3954"/>
</g>
<!-- Node5 -->
<g id="node3" class="node"><title>Node5</title>
<g id="a_node3"><a xlink:href="../../d9/d6f/probabilityfilecropper_8cpp.html" target="_top" xlink:title="probabilityfilecropper.cpp">
<polygon fill="white" stroke="black" points="107,-0.5 107,-19.5 232,-19.5 232,-0.5 107,-0.5"/>
<text text-anchor="middle" x="169.5" y="-7.5" font-family="Helvetica,sans-Serif" font-size="10.00">probabilityfilecropper.cpp</text>
</a>
</g>
</g>
<!-- Node3&#45;&gt;Node5 -->
<g id="edge2" class="edge"><title>Node3&#45;&gt;Node5</title>
<path fill="none" stroke="midnightblue" d="M124.54,-49.5372C135.773,-39.9087 149.819,-27.8694 159.194,-19.8339"/>
<polygon fill="midnightblue" stroke="midnightblue" points="121.937,-47.1586 116.622,-56.324 126.492,-52.4734 121.937,-47.1586"/>
</g>
</g>
</svg>
