<?xml version="1.0" encoding="UTF-8" standalone="no"?>
<!DOCTYPE svg PUBLIC "-//W3C//DTD SVG 1.1//EN"
 "http://www.w3.org/Graphics/SVG/1.1/DTD/svg11.dtd">
<!-- Generated by graphviz version 2.38.0 (20140413.2041)
 -->
<!-- Title: imageblock Pages: 1 -->
<svg width="208pt" height="175pt"
 viewBox="0.00 0.00 207.50 175.00" xmlns="http://www.w3.org/2000/svg" xmlns:xlink="http://www.w3.org/1999/xlink">
<g id="graph0" class="graph" transform="scale(1 1) rotate(0) translate(4 171)">
<title>imageblock</title>
<polygon fill="white" stroke="none" points="-4,4 -4,-171 203.5,-171 203.5,4 -4,4"/>
<!-- Node1 -->
<g id="node1" class="node"><title>Node1</title>
<polygon fill="#bfbfbf" stroke="black" points="100.5,-0.5 100.5,-19.5 166.5,-19.5 166.5,-0.5 100.5,-0.5"/>
<text text-anchor="middle" x="133.5" y="-7.5" font-family="Helvetica,sans-Serif" font-size="10.00">imageblock</text>
</g>
<!-- Node2 -->
<g id="node2" class="node"><title>Node2</title>
<g id="a_node2"><a xlink:href="../../dc/d8f/class_node.html" target="_top" xlink:title="Node">
<polygon fill="white" stroke="black" points="28.5,-74 28.5,-93 68.5,-93 68.5,-74 28.5,-74"/>
<text text-anchor="middle" x="48.5" y="-81" font-family="Helvetica,sans-Serif" font-size="10.00">Node</text>
</a>
</g>
</g>
<!-- Node2&#45;&gt;Node1 -->
<g id="edge1" class="edge"><title>Node2&#45;&gt;Node1</title>
<path fill="none" stroke="#9a32cd" stroke-dasharray="5,2" d="M66.6615,-67.223C83.921,-52.7047 109.258,-31.3915 123.258,-19.6157"/>
<polygon fill="#9a32cd" stroke="#9a32cd" points="64.3223,-64.617 58.9227,-73.7327 68.8283,-69.9739 64.3223,-64.617"/>
<text text-anchor="middle" x="111.5" y="-41" font-family="Helvetica,sans-Serif" font-size="10.00"> root</text>
</g>
<!-- Node2&#45;&gt;Node2 -->
<g id="edge2" class="edge"><title>Node2&#45;&gt;Node2</title>
<path fill="none" stroke="#9a32cd" stroke-dasharray="5,2" d="M78.9158,-90.3026C83.4402,-89.2429 86.5,-86.9753 86.5,-83.5 86.5,-77.7969 78.2602,-75.3463 68.8294,-76.1483"/>
<polygon fill="#9a32cd" stroke="#9a32cd" points="78.6244,-86.8132 68.8294,-90.8517 79.0049,-93.8029 78.6244,-86.8132"/>
<text text-anchor="middle" x="109" y="-92" font-family="Helvetica,sans-Serif" font-size="10.00"> rightChild</text>
<text text-anchor="middle" x="109" y="-81" font-family="Helvetica,sans-Serif" font-size="10.00">parent</text>
<text text-anchor="middle" x="109" y="-70" font-family="Helvetica,sans-Serif" font-size="10.00">leftChild</text>
</g>
<!-- Node3 -->
<g id="node3" class="node"><title>Node3</title>
<g id="a_node3"><a xlink:href="../../dc/dd2/classregion_model.html" target="_top" xlink:title="regionModel">
<polygon fill="white" stroke="black" points="0,-0.5 0,-19.5 69,-19.5 69,-0.5 0,-0.5"/>
<text text-anchor="middle" x="34.5" y="-7.5" font-family="Helvetica,sans-Serif" font-size="10.00">regionModel</text>
</a>
</g>
</g>
<!-- Node2&#45;&gt;Node3 -->
<g id="edge4" class="edge"><title>Node2&#45;&gt;Node3</title>
<path fill="none" stroke="#9a32cd" stroke-dasharray="5,2" d="M26.1382,-67.6304C20.2661,-62.49 14.6886,-56.1883 11.5,-49 6.80971,-38.4263 15.5123,-27.1974 23.5232,-19.7113"/>
<polygon fill="#9a32cd" stroke="#9a32cd" points="24.1014,-70.4809 34.1314,-73.8943 28.4192,-64.9712 24.1014,-70.4809"/>
<text text-anchor="middle" x="24" y="-41" font-family="Helvetica,sans-Serif" font-size="10.00"> node</text>
</g>
<!-- Node3&#45;&gt;Node2 -->
<g id="edge3" class="edge"><title>Node3&#45;&gt;Node2</title>
<path fill="none" stroke="#9a32cd" stroke-dasharray="5,2" d="M38.2203,-30.0001C40.9969,-44.1808 44.6631,-62.9046 46.7833,-73.7327"/>
<polygon fill="#9a32cd" stroke="#9a32cd" points="41.5871,-28.9801 36.2307,-19.839 34.7176,-30.3252 41.5871,-28.9801"/>
<text text-anchor="middle" x="57.5" y="-41" font-family="Helvetica,sans-Serif" font-size="10.00"> model</text>
</g>
<!-- Node4 -->
<g id="node4" class="node"><title>Node4</title>
<g id="a_node4"><a xlink:href="../../d3/dd4/class_r_a_g.html" target="_top" xlink:title="RAG">
<polygon fill="white" stroke="black" points="149.5,-74 149.5,-93 187.5,-93 187.5,-74 149.5,-74"/>
<text text-anchor="middle" x="168.5" y="-81" font-family="Helvetica,sans-Serif" font-size="10.00">RAG</text>
</a>
</g>
</g>
<!-- Node4&#45;&gt;Node1 -->
<g id="edge5" class="edge"><title>Node4&#45;&gt;Node1</title>
<path fill="none" stroke="#9a32cd" stroke-dasharray="5,2" d="M159.654,-64.4294C152.678,-50.1779 143.25,-30.917 137.827,-19.839"/>
<polygon fill="#9a32cd" stroke="#9a32cd" points="156.668,-66.2899 164.208,-73.7327 162.955,-63.2122 156.668,-66.2899"/>
<text text-anchor="middle" x="161" y="-41" font-family="Helvetica,sans-Serif" font-size="10.00"> rag</text>
</g>
<!-- Node5 -->
<g id="node5" class="node"><title>Node5</title>
<g id="a_node5"><a xlink:href="../../d8/de9/class_edge_heap.html" target="_top" xlink:title="EdgeHeap">
<polygon fill="white" stroke="black" points="137.5,-147.5 137.5,-166.5 199.5,-166.5 199.5,-147.5 137.5,-147.5"/>
<text text-anchor="middle" x="168.5" y="-154.5" font-family="Helvetica,sans-Serif" font-size="10.00">EdgeHeap</text>
</a>
</g>
</g>
<!-- Node5&#45;&gt;Node4 -->
<g id="edge6" class="edge"><title>Node5&#45;&gt;Node4</title>
<path fill="none" stroke="#9a32cd" stroke-dasharray="5,2" d="M168.5,-137.094C168.5,-122.933 168.5,-104.202 168.5,-93.339"/>
<polygon fill="#9a32cd" stroke="#9a32cd" points="165,-137.233 168.5,-147.233 172,-137.233 165,-137.233"/>
<text text-anchor="middle" x="183.5" y="-121" font-family="Helvetica,sans-Serif" font-size="10.00"> edges</text>
</g>
</g>
</svg>
