<?xml version="1.0" encoding="UTF-8" standalone="no"?>
<!DOCTYPE svg PUBLIC "-//W3C//DTD SVG 1.1//EN"
 "http://www.w3.org/Graphics/SVG/1.1/DTD/svg11.dtd">
<!-- Generated by graphviz version 2.38.0 (20140413.2041)
 -->
<!-- Title: Node::releaseTree Pages: 1 -->
<!--zoomable 104 -->
<svg id="main" version="1.1" xmlns="http://www.w3.org/2000/svg" xmlns:xlink="http://www.w3.org/1999/xlink" xml:space="preserve" onload="init(evt)">
<style type="text/css"><![CDATA[
.edge:hover path { stroke: red; }
.edge:hover polygon { stroke: red; fill: red; }
]]></style>
<script type="text/javascript"><![CDATA[
var edges = document.getElementsByTagName('g');
if (edges && edges.length) {
  for (var i=0;i<edges.length;i++) {
    if (edges[i].id.substr(0,4)=='edge') {
      edges[i].setAttribute('class','edge');
    }
  }
}
]]></script>
        <defs>
                <circle id="rim" cx="0" cy="0" r="7"/>
                <circle id="rim2" cx="0" cy="0" r="3.5"/>
                <g id="zoomPlus">
                        <use xlink:href="#rim" fill="#404040">
                                <set attributeName="fill" to="#808080" begin="zoomplus.mouseover" end="zoomplus.mouseout"/>
                        </use>
                        <path d="M-4,0h8M0,-4v8" fill="none" stroke="white" stroke-width="1.5" pointer-events="none"/>
                </g>
                <g id="zoomMin">
                        <use xlink:href="#rim" fill="#404040">
                                <set attributeName="fill" to="#808080" begin="zoomminus.mouseover" end="zoomminus.mouseout"/>
                        </use>
                        <path d="M-4,0h8" fill="none" stroke="white" stroke-width="1.5" pointer-events="none"/>
                </g>
                <g id="dirArrow">
                        <path fill="none" stroke="white" stroke-width="1.5" d="M0,-3.0v7 M-2.5,-0.5L0,-3.0L2.5,-0.5"/>
                </g>
               <g id="resetDef">
                       <use xlink:href="#rim2" fill="#404040">
                               <set attributeName="fill" to="#808080" begin="reset.mouseover" end="reset.mouseout"/>
                       </use>
               </g>
        </defs>

<script type="text/javascript">
var viewWidth = 740;
var viewHeight = 104;
var sectionId = 'dynsection-27';
</script>
<script xlink:href="../../svgpan.js"/>
<svg id="graph" class="graph">
<g id="viewport">
<title>Node::releaseTree</title>
<polygon fill="white" stroke="none" points="-4,4 -4,-100 736,-100 736,4 -4,4"/>
<!-- Node275 -->
<g id="node1" class="node"><title>Node275</title>
<polygon fill="#bfbfbf" stroke="black" points="0,-38.5 0,-57.5 97,-57.5 97,-38.5 0,-38.5"/>
<text text-anchor="middle" x="48.5" y="-45.5" font-family="Helvetica,sans-Serif" font-size="10.00">Node::releaseTree</text>
</g>
<!-- Node275&#45;&gt;Node275 -->
<g id="edge11" class="edge"><title>Node275&#45;&gt;Node275</title>
<path fill="none" stroke="midnightblue" d="M21.6208,-66.6539C22.7444,-71.9368 31.7041,-76 48.5,-76 74.0938,-76 81.4919,-66.5653 70.6946,-57.7571"/>
<polygon fill="midnightblue" stroke="midnightblue" points="24.7433,-68.2361 26.3054,-57.7571 18.5494,-64.9747 24.7433,-68.2361"/>
</g>
<!-- Node276 -->
<g id="node2" class="node"><title>Node276</title>
<g id="a_node2"><a xlink:href="../../d1/ded/classimage.html#a12343719e8d96a4bda9c5bd6c035d52a" target="_top" xlink:title="image::mergeBlockX">
<polygon fill="white" stroke="black" points="139,-76.5 139,-95.5 246,-95.5 246,-76.5 139,-76.5"/>
<text text-anchor="middle" x="192.5" y="-83.5" font-family="Helvetica,sans-Serif" font-size="10.00">image::mergeBlockX</text>
</a>
</g>
</g>
<!-- Node275&#45;&gt;Node276 -->
<g id="edge1" class="edge"><title>Node275&#45;&gt;Node276</title>
<path fill="none" stroke="midnightblue" d="M94.9929,-60.1742C114.628,-65.4287 137.266,-71.4866 155.679,-76.4141"/>
<polygon fill="midnightblue" stroke="midnightblue" points="95.8975,-56.7931 85.3326,-57.589 94.0879,-63.5552 95.8975,-56.7931"/>
</g>
<!-- Node280 -->
<g id="node6" class="node"><title>Node280</title>
<g id="a_node6"><a xlink:href="../../d1/ded/classimage.html#aa21fc5a07af7528869425e750090b3b8" target="_top" xlink:title="image::mergeBlockY">
<polygon fill="white" stroke="black" points="139,-38.5 139,-57.5 246,-57.5 246,-38.5 139,-38.5"/>
<text text-anchor="middle" x="192.5" y="-45.5" font-family="Helvetica,sans-Serif" font-size="10.00">image::mergeBlockY</text>
</a>
</g>
</g>
<!-- Node275&#45;&gt;Node280 -->
<g id="edge5" class="edge"><title>Node275&#45;&gt;Node280</title>
<path fill="none" stroke="midnightblue" d="M107.408,-48C117.802,-48 128.583,-48 138.818,-48"/>
<polygon fill="midnightblue" stroke="midnightblue" points="107.179,-44.5001 97.179,-48 107.179,-51.5001 107.179,-44.5001"/>
</g>
<!-- Node282 -->
<g id="node8" class="node"><title>Node282</title>
<g id="a_node8"><a xlink:href="../../d8/dd2/classimageblock.html#af3b91e3daaa8014af1239f60da6b0bf5" target="_top" xlink:title="imageblock::processing">
<polygon fill="white" stroke="black" points="133,-0.5 133,-19.5 252,-19.5 252,-0.5 133,-0.5"/>
<text text-anchor="middle" x="192.5" y="-7.5" font-family="Helvetica,sans-Serif" font-size="10.00">imageblock::processing</text>
</a>
</g>
</g>
<!-- Node275&#45;&gt;Node282 -->
<g id="edge8" class="edge"><title>Node275&#45;&gt;Node282</title>
<path fill="none" stroke="midnightblue" d="M94.9929,-35.8258C114.628,-30.5713 137.266,-24.5134 155.679,-19.5859"/>
<polygon fill="midnightblue" stroke="midnightblue" points="94.0879,-32.4448 85.3326,-38.411 95.8975,-39.2069 94.0879,-32.4448"/>
</g>
<!-- Node277 -->
<g id="node3" class="node"><title>Node277</title>
<g id="a_node3"><a xlink:href="../../d1/ded/classimage.html#a83026280ad6cc713ec9489ff3bd9776e" target="_top" xlink:title="image::ProcessBoundaryX">
<polygon fill="white" stroke="black" points="288,-76.5 288,-95.5 421,-95.5 421,-76.5 288,-76.5"/>
<text text-anchor="middle" x="354.5" y="-83.5" font-family="Helvetica,sans-Serif" font-size="10.00">image::ProcessBoundaryX</text>
</a>
</g>
</g>
<!-- Node276&#45;&gt;Node277 -->
<g id="edge2" class="edge"><title>Node276&#45;&gt;Node277</title>
<path fill="none" stroke="midnightblue" d="M256.486,-86C266.798,-86 277.505,-86 287.879,-86"/>
<polygon fill="midnightblue" stroke="midnightblue" points="256.333,-82.5001 246.333,-86 256.333,-89.5001 256.333,-82.5001"/>
</g>
<!-- Node278 -->
<g id="node4" class="node"><title>Node278</title>
<g id="a_node4"><a xlink:href="../../d1/ded/classimage.html#a4689c56b85c46d48ea52f0c9fa13891e" target="_top" xlink:title="image::processing">
<polygon fill="white" stroke="black" points="457,-38.5 457,-57.5 553,-57.5 553,-38.5 457,-38.5"/>
<text text-anchor="middle" x="505" y="-45.5" font-family="Helvetica,sans-Serif" font-size="10.00">image::processing</text>
</a>
</g>
</g>
<!-- Node277&#45;&gt;Node278 -->
<g id="edge3" class="edge"><title>Node277&#45;&gt;Node278</title>
<path fill="none" stroke="midnightblue" d="M402.833,-73.8879C423.515,-68.5956 447.419,-62.4787 466.797,-57.5201"/>
<polygon fill="midnightblue" stroke="midnightblue" points="401.793,-70.5411 392.973,-76.411 403.528,-77.3226 401.793,-70.5411"/>
</g>
<!-- Node279 -->
<g id="node5" class="node"><title>Node279</title>
<g id="a_node5"><a xlink:href="../../d9/dc6/class_main_window.html#a9a45eb9ebe6d27bcd23677d9fbb74dd8" target="_top" xlink:title="MainWindow::on_Go_clicked">
<polygon fill="white" stroke="black" points="589,-38.5 589,-57.5 732,-57.5 732,-38.5 589,-38.5"/>
<text text-anchor="middle" x="660.5" y="-45.5" font-family="Helvetica,sans-Serif" font-size="10.00">MainWindow::on_Go_clicked</text>
</a>
</g>
</g>
<!-- Node278&#45;&gt;Node279 -->
<g id="edge4" class="edge"><title>Node278&#45;&gt;Node279</title>
<path fill="none" stroke="midnightblue" d="M563.583,-48C571.853,-48 580.441,-48 588.928,-48"/>
<polygon fill="midnightblue" stroke="midnightblue" points="563.308,-44.5001 553.308,-48 563.308,-51.5001 563.308,-44.5001"/>
</g>
<!-- Node281 -->
<g id="node7" class="node"><title>Node281</title>
<g id="a_node7"><a xlink:href="../../d1/ded/classimage.html#adf6b8c126649c9a40387f12b5f5f07d5" target="_top" xlink:title="image::ProcessBoundaryY">
<polygon fill="white" stroke="black" points="288,-38.5 288,-57.5 421,-57.5 421,-38.5 288,-38.5"/>
<text text-anchor="middle" x="354.5" y="-45.5" font-family="Helvetica,sans-Serif" font-size="10.00">image::ProcessBoundaryY</text>
</a>
</g>
</g>
<!-- Node280&#45;&gt;Node281 -->
<g id="edge6" class="edge"><title>Node280&#45;&gt;Node281</title>
<path fill="none" stroke="midnightblue" d="M256.486,-48C266.798,-48 277.505,-48 287.879,-48"/>
<polygon fill="midnightblue" stroke="midnightblue" points="256.333,-44.5001 246.333,-48 256.333,-51.5001 256.333,-44.5001"/>
</g>
<!-- Node281&#45;&gt;Node278 -->
<g id="edge7" class="edge"><title>Node281&#45;&gt;Node278</title>
<path fill="none" stroke="midnightblue" d="M431.207,-48C439.858,-48 448.483,-48 456.612,-48"/>
<polygon fill="midnightblue" stroke="midnightblue" points="431.067,-44.5001 421.067,-48 431.066,-51.5001 431.067,-44.5001"/>
</g>
<!-- Node283 -->
<g id="node9" class="node"><title>Node283</title>
<g id="a_node9"><a xlink:href="../../d1/ded/classimage.html#ad5a9d767eca6f9bbb8dcb556527edf4d" target="_top" xlink:title="image::ProcessTiles">
<polygon fill="white" stroke="black" points="301.5,-0.5 301.5,-19.5 407.5,-19.5 407.5,-0.5 301.5,-0.5"/>
<text text-anchor="middle" x="354.5" y="-7.5" font-family="Helvetica,sans-Serif" font-size="10.00">image::ProcessTiles</text>
</a>
</g>
</g>
<!-- Node282&#45;&gt;Node283 -->
<g id="edge9" class="edge"><title>Node282&#45;&gt;Node283</title>
<path fill="none" stroke="midnightblue" d="M262.525,-10C275.577,-10 289.026,-10 301.447,-10"/>
<polygon fill="midnightblue" stroke="midnightblue" points="262.17,-6.5001 252.17,-10 262.17,-13.5001 262.17,-6.5001"/>
</g>
<!-- Node283&#45;&gt;Node278 -->
<g id="edge10" class="edge"><title>Node283&#45;&gt;Node278</title>
<path fill="none" stroke="midnightblue" d="M402.833,-22.1121C423.515,-27.4044 447.419,-33.5213 466.797,-38.4799"/>
<polygon fill="midnightblue" stroke="midnightblue" points="403.528,-18.6774 392.973,-19.589 401.793,-25.4589 403.528,-18.6774"/>
</g>
</g>
</svg>
        <g id="navigator" transform="translate(0 0)" fill="#404254">
                <rect fill="#f2f5e9" fill-opacity="0.5" stroke="#606060" stroke-width=".5" x="0" y="0" width="60" height="60"/>
                <use id="zoomplus" xlink:href="#zoomPlus" x="17" y="9" onmousedown="handleZoom(evt,'in')"/>
                <use id="zoomminus" xlink:href="#zoomMin" x="42" y="9" onmousedown="handleZoom(evt,'out')"/>
                <use id="reset" xlink:href="#resetDef" x="30" y="36" onmousedown="handleReset()"/>
                <g id="arrowUp" xlink:href="#dirArrow" transform="translate(30 24)" onmousedown="handlePan(0,-1)">
                  <use xlink:href="#rim" fill="#404040">
                        <set attributeName="fill" to="#808080" begin="arrowUp.mouseover" end="arrowUp.mouseout"/>
                  </use>
                  <path fill="none" stroke="white" stroke-width="1.5" d="M0,-3.0v7 M-2.5,-0.5L0,-3.0L2.5,-0.5"/>
                </g>
                <g id="arrowRight" xlink:href="#dirArrow" transform="rotate(90) translate(36 -43)" onmousedown="handlePan(1,0)">
                  <use xlink:href="#rim" fill="#404040">
                        <set attributeName="fill" to="#808080" begin="arrowRight.mouseover" end="arrowRight.mouseout"/>
                  </use>
                  <path fill="none" stroke="white" stroke-width="1.5" d="M0,-3.0v7 M-2.5,-0.5L0,-3.0L2.5,-0.5"/>
                </g>
                <g id="arrowDown" xlink:href="#dirArrow" transform="rotate(180) translate(-30 -48)" onmousedown="handlePan(0,1)">
                  <use xlink:href="#rim" fill="#404040">
                        <set attributeName="fill" to="#808080" begin="arrowDown.mouseover" end="arrowDown.mouseout"/>
                  </use>
                  <path fill="none" stroke="white" stroke-width="1.5" d="M0,-3.0v7 M-2.5,-0.5L0,-3.0L2.5,-0.5"/>
                </g>
                <g id="arrowLeft" xlink:href="#dirArrow" transform="rotate(270) translate(-36 17)" onmousedown="handlePan(-1,0)">
                  <use xlink:href="#rim" fill="#404040">
                        <set attributeName="fill" to="#808080" begin="arrowLeft.mouseover" end="arrowLeft.mouseout"/>
                  </use>
                  <path fill="none" stroke="white" stroke-width="1.5" d="M0,-3.0v7 M-2.5,-0.5L0,-3.0L2.5,-0.5"/>
                </g>
        </g>
        <svg viewBox="0 0 15 15" width="100%" height="30px" preserveAspectRatio="xMaxYMin meet">
         <g id="arrow_out" transform="scale(0.3 0.3)">
          <a xlink:href="class_node_adaaa531eae8cc809934f80b09ad8224e_icgraph_org.svg" target="_base">
           <rect id="button" ry="5" rx="5" y="6" x="6" height="38" width="38"
                fill="#f2f5e9" fill-opacity="0.5" stroke="#606060" stroke-width="1.0"/>
           <path id="arrow"
             d="M 11.500037,31.436501 C 11.940474,20.09759 22.043105,11.32322 32.158766,21.979434 L 37.068811,17.246167 C 37.068811,17.246167 37.088388,32 37.088388,32 L 22.160133,31.978069 C 22.160133,31.978069 26.997745,27.140456 26.997745,27.140456 C 18.528582,18.264221 13.291696,25.230495 11.500037,31.436501 z"
             style="fill:#404040;"/>
          </a>
         </g>
        </svg>
</svg>
