<?xml version="1.0" encoding="UTF-8" standalone="no"?>
<!DOCTYPE svg PUBLIC "-//W3C//DTD SVG 1.1//EN"
 "http://www.w3.org/Graphics/SVG/1.1/DTD/svg11.dtd">
<!-- Generated by graphviz version 2.38.0 (20140413.2041)
 -->
<!-- Title: Node::setLeftChild Pages: 1 -->
<!--zoomable 104 -->
<svg id="main" version="1.1" xmlns="http://www.w3.org/2000/svg" xmlns:xlink="http://www.w3.org/1999/xlink" xml:space="preserve" onload="init(evt)">
<style type="text/css"><![CDATA[
.edge:hover path { stroke: red; }
.edge:hover polygon { stroke: red; fill: red; }
]]></style>
<script type="text/javascript"><![CDATA[
var edges = document.getElementsByTagName('g');
if (edges && edges.length) {
  for (var i=0;i<edges.length;i++) {
    if (edges[i].id.substr(0,4)=='edge') {
      edges[i].setAttribute('class','edge');
    }
  }
}
]]></script>
        <defs>
                <circle id="rim" cx="0" cy="0" r="7"/>
                <circle id="rim2" cx="0" cy="0" r="3.5"/>
                <g id="zoomPlus">
                        <use xlink:href="#rim" fill="#404040">
                                <set attributeName="fill" to="#808080" begin="zoomplus.mouseover" end="zoomplus.mouseout"/>
                        </use>
                        <path d="M-4,0h8M0,-4v8" fill="none" stroke="white" stroke-width="1.5" pointer-events="none"/>
                </g>
                <g id="zoomMin">
                        <use xlink:href="#rim" fill="#404040">
                                <set attributeName="fill" to="#808080" begin="zoomminus.mouseover" end="zoomminus.mouseout"/>
                        </use>
                        <path d="M-4,0h8" fill="none" stroke="white" stroke-width="1.5" pointer-events="none"/>
                </g>
                <g id="dirArrow">
                        <path fill="none" stroke="white" stroke-width="1.5" d="M0,-3.0v7 M-2.5,-0.5L0,-3.0L2.5,-0.5"/>
                </g>
               <g id="resetDef">
                       <use xlink:href="#rim2" fill="#404040">
                               <set attributeName="fill" to="#808080" begin="reset.mouseover" end="reset.mouseout"/>
                       </use>
               </g>
        </defs>

<script type="text/javascript">
var viewWidth = 1158;
var viewHeight = 104;
var sectionId = 'dynsection-33';
</script>
<script xlink:href="../../svgpan.js"/>
<svg id="graph" class="graph">
<g id="viewport">
<title>Node::setLeftChild</title>
<polygon fill="white" stroke="none" points="-4,4 -4,-100 1154,-100 1154,4 -4,4"/>
<!-- Node351 -->
<g id="node1" class="node"><title>Node351</title>
<polygon fill="#bfbfbf" stroke="black" points="0,-38.5 0,-57.5 98,-57.5 98,-38.5 0,-38.5"/>
<text text-anchor="middle" x="49" y="-45.5" font-family="Helvetica,sans-Serif" font-size="10.00">Node::setLeftChild</text>
</g>
<!-- Node352 -->
<g id="node2" class="node"><title>Node352</title>
<g id="a_node2"><a xlink:href="../../d3/dd4/class_r_a_g.html#aa2de492a3df037db29b0e3ccab5251ee" target="_top" xlink:title="RAG::merge">
<polygon fill="white" stroke="black" points="134,-38.5 134,-57.5 205,-57.5 205,-38.5 134,-38.5"/>
<text text-anchor="middle" x="169.5" y="-45.5" font-family="Helvetica,sans-Serif" font-size="10.00">RAG::merge</text>
</a>
</g>
</g>
<!-- Node351&#45;&gt;Node352 -->
<g id="edge1" class="edge"><title>Node351&#45;&gt;Node352</title>
<path fill="none" stroke="midnightblue" d="M108.356,-48C117.058,-48 125.785,-48 133.787,-48"/>
<polygon fill="midnightblue" stroke="midnightblue" points="108.199,-44.5001 98.1985,-48 108.198,-51.5001 108.199,-44.5001"/>
</g>
<!-- Node353 -->
<g id="node3" class="node"><title>Node353</title>
<g id="a_node3"><a xlink:href="../../d3/dd4/class_r_a_g.html#ab09eebb1b704d18b583d528e77f7604a" target="_top" xlink:title="RAG::regionMerging">
<polygon fill="white" stroke="black" points="241,-38.5 241,-57.5 346,-57.5 346,-38.5 241,-38.5"/>
<text text-anchor="middle" x="293.5" y="-45.5" font-family="Helvetica,sans-Serif" font-size="10.00">RAG::regionMerging</text>
</a>
</g>
</g>
<!-- Node352&#45;&gt;Node353 -->
<g id="edge2" class="edge"><title>Node352&#45;&gt;Node353</title>
<path fill="none" stroke="midnightblue" d="M215.379,-48C223.69,-48 232.43,-48 240.921,-48"/>
<polygon fill="midnightblue" stroke="midnightblue" points="215.134,-44.5001 205.134,-48 215.134,-51.5001 215.134,-44.5001"/>
</g>
<!-- Node354 -->
<g id="node4" class="node"><title>Node354</title>
<g id="a_node4"><a xlink:href="../../d1/ded/classimage.html#a12343719e8d96a4bda9c5bd6c035d52a" target="_top" xlink:title="image::mergeBlockX">
<polygon fill="white" stroke="black" points="388,-76.5 388,-95.5 495,-95.5 495,-76.5 388,-76.5"/>
<text text-anchor="middle" x="441.5" y="-83.5" font-family="Helvetica,sans-Serif" font-size="10.00">image::mergeBlockX</text>
</a>
</g>
</g>
<!-- Node353&#45;&gt;Node354 -->
<g id="edge3" class="edge"><title>Node353&#45;&gt;Node354</title>
<path fill="none" stroke="midnightblue" d="M341.036,-60.1121C361.37,-65.4044 384.871,-71.5213 403.923,-76.4799"/>
<polygon fill="midnightblue" stroke="midnightblue" points="341.901,-56.7207 331.342,-57.589 340.138,-63.4951 341.901,-56.7207"/>
</g>
<!-- Node358 -->
<g id="node8" class="node"><title>Node358</title>
<g id="a_node8"><a xlink:href="../../d1/ded/classimage.html#aa21fc5a07af7528869425e750090b3b8" target="_top" xlink:title="image::mergeBlockY">
<polygon fill="white" stroke="black" points="388,-38.5 388,-57.5 495,-57.5 495,-38.5 388,-38.5"/>
<text text-anchor="middle" x="441.5" y="-45.5" font-family="Helvetica,sans-Serif" font-size="10.00">image::mergeBlockY</text>
</a>
</g>
</g>
<!-- Node353&#45;&gt;Node358 -->
<g id="edge7" class="edge"><title>Node353&#45;&gt;Node358</title>
<path fill="none" stroke="midnightblue" d="M356.631,-48C367.008,-48 377.685,-48 387.797,-48"/>
<polygon fill="midnightblue" stroke="midnightblue" points="356.385,-44.5001 346.385,-48 356.385,-51.5001 356.385,-44.5001"/>
</g>
<!-- Node360 -->
<g id="node10" class="node"><title>Node360</title>
<g id="a_node10"><a xlink:href="../../d8/dd2/classimageblock.html#abcc69a8c00ad79067185c700463f8126" target="_top" xlink:title="imageblock::createBPT">
<polygon fill="white" stroke="black" points="382,-0.5 382,-19.5 501,-19.5 501,-0.5 382,-0.5"/>
<text text-anchor="middle" x="441.5" y="-7.5" font-family="Helvetica,sans-Serif" font-size="10.00">imageblock::createBPT</text>
</a>
</g>
</g>
<!-- Node353&#45;&gt;Node360 -->
<g id="edge10" class="edge"><title>Node353&#45;&gt;Node360</title>
<path fill="none" stroke="midnightblue" d="M341.036,-35.8879C361.37,-30.5956 384.871,-24.4787 403.923,-19.5201"/>
<polygon fill="midnightblue" stroke="midnightblue" points="340.138,-32.5049 331.342,-38.411 341.901,-39.2793 340.138,-32.5049"/>
</g>
<!-- Node355 -->
<g id="node5" class="node"><title>Node355</title>
<g id="a_node5"><a xlink:href="../../d1/ded/classimage.html#a83026280ad6cc713ec9489ff3bd9776e" target="_top" xlink:title="image::ProcessBoundaryX">
<polygon fill="white" stroke="black" points="706,-76.5 706,-95.5 839,-95.5 839,-76.5 706,-76.5"/>
<text text-anchor="middle" x="772.5" y="-83.5" font-family="Helvetica,sans-Serif" font-size="10.00">image::ProcessBoundaryX</text>
</a>
</g>
</g>
<!-- Node354&#45;&gt;Node355 -->
<g id="edge4" class="edge"><title>Node354&#45;&gt;Node355</title>
<path fill="none" stroke="midnightblue" d="M505.399,-86C562.829,-86 647.414,-86 705.728,-86"/>
<polygon fill="midnightblue" stroke="midnightblue" points="505.36,-82.5001 495.36,-86 505.36,-89.5001 505.36,-82.5001"/>
</g>
<!-- Node356 -->
<g id="node6" class="node"><title>Node356</title>
<g id="a_node6"><a xlink:href="../../d1/ded/classimage.html#a4689c56b85c46d48ea52f0c9fa13891e" target="_top" xlink:title="image::processing">
<polygon fill="white" stroke="black" points="875,-38.5 875,-57.5 971,-57.5 971,-38.5 875,-38.5"/>
<text text-anchor="middle" x="923" y="-45.5" font-family="Helvetica,sans-Serif" font-size="10.00">image::processing</text>
</a>
</g>
</g>
<!-- Node355&#45;&gt;Node356 -->
<g id="edge5" class="edge"><title>Node355&#45;&gt;Node356</title>
<path fill="none" stroke="midnightblue" d="M820.833,-73.8879C841.515,-68.5956 865.419,-62.4787 884.797,-57.5201"/>
<polygon fill="midnightblue" stroke="midnightblue" points="819.793,-70.5411 810.973,-76.411 821.528,-77.3226 819.793,-70.5411"/>
</g>
<!-- Node357 -->
<g id="node7" class="node"><title>Node357</title>
<g id="a_node7"><a xlink:href="../../d9/dc6/class_main_window.html#a9a45eb9ebe6d27bcd23677d9fbb74dd8" target="_top" xlink:title="MainWindow::on_Go_clicked">
<polygon fill="white" stroke="black" points="1007,-38.5 1007,-57.5 1150,-57.5 1150,-38.5 1007,-38.5"/>
<text text-anchor="middle" x="1078.5" y="-45.5" font-family="Helvetica,sans-Serif" font-size="10.00">MainWindow::on_Go_clicked</text>
</a>
</g>
</g>
<!-- Node356&#45;&gt;Node357 -->
<g id="edge6" class="edge"><title>Node356&#45;&gt;Node357</title>
<path fill="none" stroke="midnightblue" d="M981.583,-48C989.853,-48 998.441,-48 1006.93,-48"/>
<polygon fill="midnightblue" stroke="midnightblue" points="981.308,-44.5001 971.308,-48 981.308,-51.5001 981.308,-44.5001"/>
</g>
<!-- Node359 -->
<g id="node9" class="node"><title>Node359</title>
<g id="a_node9"><a xlink:href="../../d1/ded/classimage.html#adf6b8c126649c9a40387f12b5f5f07d5" target="_top" xlink:title="image::ProcessBoundaryY">
<polygon fill="white" stroke="black" points="537,-38.5 537,-57.5 670,-57.5 670,-38.5 537,-38.5"/>
<text text-anchor="middle" x="603.5" y="-45.5" font-family="Helvetica,sans-Serif" font-size="10.00">image::ProcessBoundaryY</text>
</a>
</g>
</g>
<!-- Node358&#45;&gt;Node359 -->
<g id="edge8" class="edge"><title>Node358&#45;&gt;Node359</title>
<path fill="none" stroke="midnightblue" d="M505.486,-48C515.798,-48 526.505,-48 536.879,-48"/>
<polygon fill="midnightblue" stroke="midnightblue" points="505.333,-44.5001 495.333,-48 505.333,-51.5001 505.333,-44.5001"/>
</g>
<!-- Node359&#45;&gt;Node356 -->
<g id="edge9" class="edge"><title>Node359&#45;&gt;Node356</title>
<path fill="none" stroke="midnightblue" d="M680.542,-48C740.982,-48 823.613,-48 874.853,-48"/>
<polygon fill="midnightblue" stroke="midnightblue" points="680.286,-44.5001 670.286,-48 680.286,-51.5001 680.286,-44.5001"/>
</g>
<!-- Node361 -->
<g id="node11" class="node"><title>Node361</title>
<g id="a_node11"><a xlink:href="../../d8/dd2/classimageblock.html#af3b91e3daaa8014af1239f60da6b0bf5" target="_top" xlink:title="imageblock::processing">
<polygon fill="white" stroke="black" points="544,-0.5 544,-19.5 663,-19.5 663,-0.5 544,-0.5"/>
<text text-anchor="middle" x="603.5" y="-7.5" font-family="Helvetica,sans-Serif" font-size="10.00">imageblock::processing</text>
</a>
</g>
</g>
<!-- Node360&#45;&gt;Node361 -->
<g id="edge11" class="edge"><title>Node360&#45;&gt;Node361</title>
<path fill="none" stroke="midnightblue" d="M511.415,-10C522.217,-10 533.294,-10 543.838,-10"/>
<polygon fill="midnightblue" stroke="midnightblue" points="511.17,-6.5001 501.17,-10 511.17,-13.5001 511.17,-6.5001"/>
</g>
<!-- Node362 -->
<g id="node12" class="node"><title>Node362</title>
<g id="a_node12"><a xlink:href="../../d1/ded/classimage.html#ad5a9d767eca6f9bbb8dcb556527edf4d" target="_top" xlink:title="image::ProcessTiles">
<polygon fill="white" stroke="black" points="719.5,-0.5 719.5,-19.5 825.5,-19.5 825.5,-0.5 719.5,-0.5"/>
<text text-anchor="middle" x="772.5" y="-7.5" font-family="Helvetica,sans-Serif" font-size="10.00">image::ProcessTiles</text>
</a>
</g>
</g>
<!-- Node361&#45;&gt;Node362 -->
<g id="edge12" class="edge"><title>Node361&#45;&gt;Node362</title>
<path fill="none" stroke="midnightblue" d="M673.781,-10C688.994,-10 704.857,-10 719.267,-10"/>
<polygon fill="midnightblue" stroke="midnightblue" points="673.378,-6.5001 663.378,-10 673.378,-13.5001 673.378,-6.5001"/>
</g>
<!-- Node362&#45;&gt;Node356 -->
<g id="edge13" class="edge"><title>Node362&#45;&gt;Node356</title>
<path fill="none" stroke="midnightblue" d="M820.833,-22.1121C841.515,-27.4044 865.419,-33.5213 884.797,-38.4799"/>
<polygon fill="midnightblue" stroke="midnightblue" points="821.528,-18.6774 810.973,-19.589 819.793,-25.4589 821.528,-18.6774"/>
</g>
</g>
</svg>
        <g id="navigator" transform="translate(0 0)" fill="#404254">
                <rect fill="#f2f5e9" fill-opacity="0.5" stroke="#606060" stroke-width=".5" x="0" y="0" width="60" height="60"/>
                <use id="zoomplus" xlink:href="#zoomPlus" x="17" y="9" onmousedown="handleZoom(evt,'in')"/>
                <use id="zoomminus" xlink:href="#zoomMin" x="42" y="9" onmousedown="handleZoom(evt,'out')"/>
                <use id="reset" xlink:href="#resetDef" x="30" y="36" onmousedown="handleReset()"/>
                <g id="arrowUp" xlink:href="#dirArrow" transform="translate(30 24)" onmousedown="handlePan(0,-1)">
                  <use xlink:href="#rim" fill="#404040">
                        <set attributeName="fill" to="#808080" begin="arrowUp.mouseover" end="arrowUp.mouseout"/>
                  </use>
                  <path fill="none" stroke="white" stroke-width="1.5" d="M0,-3.0v7 M-2.5,-0.5L0,-3.0L2.5,-0.5"/>
                </g>
                <g id="arrowRight" xlink:href="#dirArrow" transform="rotate(90) translate(36 -43)" onmousedown="handlePan(1,0)">
                  <use xlink:href="#rim" fill="#404040">
                        <set attributeName="fill" to="#808080" begin="arrowRight.mouseover" end="arrowRight.mouseout"/>
                  </use>
                  <path fill="none" stroke="white" stroke-width="1.5" d="M0,-3.0v7 M-2.5,-0.5L0,-3.0L2.5,-0.5"/>
                </g>
                <g id="arrowDown" xlink:href="#dirArrow" transform="rotate(180) translate(-30 -48)" onmousedown="handlePan(0,1)">
                  <use xlink:href="#rim" fill="#404040">
                        <set attributeName="fill" to="#808080" begin="arrowDown.mouseover" end="arrowDown.mouseout"/>
                  </use>
                  <path fill="none" stroke="white" stroke-width="1.5" d="M0,-3.0v7 M-2.5,-0.5L0,-3.0L2.5,-0.5"/>
                </g>
                <g id="arrowLeft" xlink:href="#dirArrow" transform="rotate(270) translate(-36 17)" onmousedown="handlePan(-1,0)">
                  <use xlink:href="#rim" fill="#404040">
                        <set attributeName="fill" to="#808080" begin="arrowLeft.mouseover" end="arrowLeft.mouseout"/>
                  </use>
                  <path fill="none" stroke="white" stroke-width="1.5" d="M0,-3.0v7 M-2.5,-0.5L0,-3.0L2.5,-0.5"/>
                </g>
        </g>
        <svg viewBox="0 0 15 15" width="100%" height="30px" preserveAspectRatio="xMaxYMin meet">
         <g id="arrow_out" transform="scale(0.3 0.3)">
          <a xlink:href="class_node_a6ede207fb67e5aa1fb80f0230074a0c0_icgraph_org.svg" target="_base">
           <rect id="button" ry="5" rx="5" y="6" x="6" height="38" width="38"
                fill="#f2f5e9" fill-opacity="0.5" stroke="#606060" stroke-width="1.0"/>
           <path id="arrow"
             d="M 11.500037,31.436501 C 11.940474,20.09759 22.043105,11.32322 32.158766,21.979434 L 37.068811,17.246167 C 37.068811,17.246167 37.088388,32 37.088388,32 L 22.160133,31.978069 C 22.160133,31.978069 26.997745,27.140456 26.997745,27.140456 C 18.528582,18.264221 13.291696,25.230495 11.500037,31.436501 z"
             style="fill:#404040;"/>
          </a>
         </g>
        </svg>
</svg>
