<?xml version="1.0" encoding="UTF-8" standalone="no"?>
<!DOCTYPE svg PUBLIC "-//W3C//DTD SVG 1.1//EN"
 "http://www.w3.org/Graphics/SVG/1.1/DTD/svg11.dtd">
<!-- Generated by graphviz version 2.38.0 (20140413.2041)
 -->
<!-- Title: Node::getSibling Pages: 1 -->
<svg width="238pt" height="104pt"
 viewBox="0.00 0.00 238.00 104.00" xmlns="http://www.w3.org/2000/svg" xmlns:xlink="http://www.w3.org/1999/xlink">
<g id="graph0" class="graph" transform="scale(1 1) rotate(0) translate(4 100)">
<title>Node::getSibling</title>
<polygon fill="white" stroke="none" points="-4,4 -4,-100 234,-100 234,4 -4,4"/>
<!-- Node218 -->
<g id="node1" class="node"><title>Node218</title>
<polygon fill="#bfbfbf" stroke="black" points="0,-38.5 0,-57.5 89,-57.5 89,-38.5 0,-38.5"/>
<text text-anchor="middle" x="44.5" y="-45.5" font-family="Helvetica,sans-Serif" font-size="10.00">Node::getSibling</text>
</g>
<!-- Node219 -->
<g id="node2" class="node"><title>Node219</title>
<g id="a_node2"><a xlink:href="../../dc/d8f/class_node.html#a498a3ea76df240287b5a91aeaec2be95" target="_top" xlink:title="Node::getLeftChild">
<polygon fill="white" stroke="black" points="128.5,-76.5 128.5,-95.5 226.5,-95.5 226.5,-76.5 128.5,-76.5"/>
<text text-anchor="middle" x="177.5" y="-83.5" font-family="Helvetica,sans-Serif" font-size="10.00">Node::getLeftChild</text>
</a>
</g>
</g>
<!-- Node218&#45;&gt;Node219 -->
<g id="edge1" class="edge"><title>Node218&#45;&gt;Node219</title>
<path fill="none" stroke="midnightblue" d="M78.5568,-57.589C95.3125,-62.4494 115.858,-68.4091 133.797,-73.6127"/>
<polygon fill="midnightblue" stroke="midnightblue" points="132.875,-76.9895 143.454,-76.4141 134.825,-70.2666 132.875,-76.9895"/>
</g>
<!-- Node220 -->
<g id="node3" class="node"><title>Node220</title>
<g id="a_node3"><a xlink:href="../../dc/d8f/class_node.html#a220a8d64cb0df1cce083ed38c1260615" target="_top" xlink:title="Node::getParent">
<polygon fill="white" stroke="black" points="133.5,-38.5 133.5,-57.5 221.5,-57.5 221.5,-38.5 133.5,-38.5"/>
<text text-anchor="middle" x="177.5" y="-45.5" font-family="Helvetica,sans-Serif" font-size="10.00">Node::getParent</text>
</a>
</g>
</g>
<!-- Node218&#45;&gt;Node220 -->
<g id="edge2" class="edge"><title>Node218&#45;&gt;Node220</title>
<path fill="none" stroke="midnightblue" d="M89.1211,-48C99.9483,-48 111.677,-48 122.92,-48"/>
<polygon fill="midnightblue" stroke="midnightblue" points="123.069,-51.5001 133.069,-48 123.069,-44.5001 123.069,-51.5001"/>
</g>
<!-- Node221 -->
<g id="node4" class="node"><title>Node221</title>
<g id="a_node4"><a xlink:href="../../dc/d8f/class_node.html#a531a8178f01a328bec4c4e8a3b93b67f" target="_top" xlink:title="Node::getRightChild">
<polygon fill="white" stroke="black" points="125,-0.5 125,-19.5 230,-19.5 230,-0.5 125,-0.5"/>
<text text-anchor="middle" x="177.5" y="-7.5" font-family="Helvetica,sans-Serif" font-size="10.00">Node::getRightChild</text>
</a>
</g>
</g>
<!-- Node218&#45;&gt;Node221 -->
<g id="edge3" class="edge"><title>Node218&#45;&gt;Node221</title>
<path fill="none" stroke="midnightblue" d="M78.5568,-38.411C95.3125,-33.5506 115.858,-27.5909 133.797,-22.3873"/>
<polygon fill="midnightblue" stroke="midnightblue" points="134.825,-25.7334 143.454,-19.5859 132.875,-19.0105 134.825,-25.7334"/>
</g>
</g>
</svg>
