<?xml version="1.0" encoding="UTF-8" standalone="no"?>
<!DOCTYPE svg PUBLIC "-//W3C//DTD SVG 1.1//EN"
 "http://www.w3.org/Graphics/SVG/1.1/DTD/svg11.dtd">
<!-- Generated by graphviz version 2.38.0 (20140413.2041)
 -->
<!-- Title: Node::getArea Pages: 1 -->
<svg width="1812pt" height="218pt"
 viewBox="0.00 0.00 1812.00 218.00" xmlns="http://www.w3.org/2000/svg" xmlns:xlink="http://www.w3.org/1999/xlink">
<g id="graph0" class="graph" transform="scale(1 1) rotate(0) translate(4 214)">
<title>Node::getArea</title>
<polygon fill="white" stroke="none" points="-4,4 -4,-214 1808,-214 1808,4 -4,4"/>
<!-- Node22 -->
<g id="node1" class="node"><title>Node22</title>
<polygon fill="#bfbfbf" stroke="black" points="0,-95.5 0,-114.5 80,-114.5 80,-95.5 0,-95.5"/>
<text text-anchor="middle" x="40" y="-102.5" font-family="Helvetica,sans-Serif" font-size="10.00">Node::getArea</text>
</g>
<!-- Node23 -->
<g id="node2" class="node"><title>Node23</title>
<g id="a_node2"><a xlink:href="../../d8/de9/class_edge_heap.html#add248e35c4c2443246ff6c7cd654ae9f" target="_top" xlink:title="EdgeHeap::edgeComparator">
<polygon fill="white" stroke="black" points="116,-95.5 116,-114.5 256,-114.5 256,-95.5 116,-95.5"/>
<text text-anchor="middle" x="186" y="-102.5" font-family="Helvetica,sans-Serif" font-size="10.00">EdgeHeap::edgeComparator</text>
</a>
</g>
</g>
<!-- Node22&#45;&gt;Node23 -->
<g id="edge1" class="edge"><title>Node22&#45;&gt;Node23</title>
<path fill="none" stroke="midnightblue" d="M90.4425,-105C98.6226,-105 107.235,-105 115.794,-105"/>
<polygon fill="midnightblue" stroke="midnightblue" points="90.3487,-101.5 80.3486,-105 90.3486,-108.5 90.3487,-101.5"/>
</g>
<!-- Node24 -->
<g id="node3" class="node"><title>Node24</title>
<g id="a_node3"><a xlink:href="../../d8/de9/class_edge_heap.html#a09c54300b957acc0f414fd9ee6c558fa" target="_top" xlink:title="EdgeHeap::heapify">
<polygon fill="white" stroke="black" points="747.5,-190.5 747.5,-209.5 847.5,-209.5 847.5,-190.5 747.5,-190.5"/>
<text text-anchor="middle" x="797.5" y="-197.5" font-family="Helvetica,sans-Serif" font-size="10.00">EdgeHeap::heapify</text>
</a>
</g>
</g>
<!-- Node23&#45;&gt;Node24 -->
<g id="edge2" class="edge"><title>Node23&#45;&gt;Node24</title>
<path fill="none" stroke="midnightblue" d="M209.82,-120.104C230.382,-132.871 261.916,-150.413 292,-159 453.818,-205.19 655.846,-205.218 747.377,-202.3"/>
<polygon fill="midnightblue" stroke="midnightblue" points="211.507,-117.029 201.189,-114.623 207.755,-122.939 211.507,-117.029"/>
</g>
<!-- Node35 -->
<g id="node14" class="node"><title>Node35</title>
<g id="a_node14"><a xlink:href="../../d8/de9/class_edge_heap.html#af02715f2265926338a4b33135c821a4c" target="_top" xlink:title="EdgeHeap::heapifyDown">
<polygon fill="white" stroke="black" points="292,-114.5 292,-133.5 417,-133.5 417,-114.5 292,-114.5"/>
<text text-anchor="middle" x="354.5" y="-121.5" font-family="Helvetica,sans-Serif" font-size="10.00">EdgeHeap::heapifyDown</text>
</a>
</g>
</g>
<!-- Node23&#45;&gt;Node35 -->
<g id="edge15" class="edge"><title>Node23&#45;&gt;Node35</title>
<path fill="none" stroke="midnightblue" d="M266.262,-114.045C274.905,-115.031 283.606,-116.024 291.99,-116.981"/>
<polygon fill="midnightblue" stroke="midnightblue" points="266.497,-110.549 256.165,-112.893 265.703,-117.504 266.497,-110.549"/>
</g>
<!-- Node36 -->
<g id="node15" class="node"><title>Node36</title>
<g id="a_node15"><a xlink:href="../../d8/de9/class_edge_heap.html#a71040389a82aaff7be40c94a95afc357" target="_top" xlink:title="EdgeHeap::removeAt">
<polygon fill="white" stroke="black" points="453,-114.5 453,-133.5 563,-133.5 563,-114.5 453,-114.5"/>
<text text-anchor="middle" x="508" y="-121.5" font-family="Helvetica,sans-Serif" font-size="10.00">EdgeHeap::removeAt</text>
</a>
</g>
</g>
<!-- Node23&#45;&gt;Node36 -->
<g id="edge30" class="edge"><title>Node23&#45;&gt;Node36</title>
<path fill="none" stroke="midnightblue" d="M216.122,-118.642C236.788,-127.544 265.461,-138.345 292,-143 346.72,-152.597 361.745,-148.769 417,-143 434.789,-141.143 454.239,-137.274 470.492,-133.509"/>
<polygon fill="midnightblue" stroke="midnightblue" points="217.508,-115.428 206.946,-114.588 214.679,-121.831 217.508,-115.428"/>
</g>
<!-- Node40 -->
<g id="node19" class="node"><title>Node40</title>
<g id="a_node19"><a xlink:href="../../d8/de9/class_edge_heap.html#aed5f5e75856c0e3bcb8ccc29184a88c0" target="_top" xlink:title="EdgeHeap::updateAt">
<polygon fill="white" stroke="black" points="454.5,-76.5 454.5,-95.5 561.5,-95.5 561.5,-76.5 454.5,-76.5"/>
<text text-anchor="middle" x="508" y="-83.5" font-family="Helvetica,sans-Serif" font-size="10.00">EdgeHeap::updateAt</text>
</a>
</g>
</g>
<!-- Node23&#45;&gt;Node40 -->
<g id="edge31" class="edge"><title>Node23&#45;&gt;Node40</title>
<path fill="none" stroke="midnightblue" d="M216.122,-91.3579C236.788,-82.4562 265.461,-71.6547 292,-67 346.72,-57.4028 361.745,-61.2311 417,-67 434.789,-68.8573 454.239,-72.7261 470.492,-76.491"/>
<polygon fill="midnightblue" stroke="midnightblue" points="214.679,-88.1693 206.946,-95.4124 217.508,-94.5722 214.679,-88.1693"/>
</g>
<!-- Node42 -->
<g id="node21" class="node"><title>Node42</title>
<g id="a_node21"><a xlink:href="../../d8/de9/class_edge_heap.html#afc03f4943c606b1d2617654cfaeeabb6" target="_top" xlink:title="EdgeHeap::heapifyUp">
<polygon fill="white" stroke="black" points="298,-76.5 298,-95.5 411,-95.5 411,-76.5 298,-76.5"/>
<text text-anchor="middle" x="354.5" y="-83.5" font-family="Helvetica,sans-Serif" font-size="10.00">EdgeHeap::heapifyUp</text>
</a>
</g>
</g>
<!-- Node23&#45;&gt;Node42 -->
<g id="edge25" class="edge"><title>Node23&#45;&gt;Node42</title>
<path fill="none" stroke="midnightblue" d="M266.364,-95.9435C277.053,-94.7237 287.828,-93.4941 297.982,-92.3354"/>
<polygon fill="midnightblue" stroke="midnightblue" points="265.703,-92.4961 256.165,-97.1074 266.497,-99.4509 265.703,-92.4961"/>
</g>
<!-- Node44 -->
<g id="node23" class="node"><title>Node44</title>
<g id="a_node23"><a xlink:href="../../d8/de9/class_edge_heap.html#a12a595377687c8c568007e8cc8646665" target="_top" xlink:title="EdgeHeap::isHeap">
<polygon fill="white" stroke="black" points="305,-0.5 305,-19.5 404,-19.5 404,-0.5 305,-0.5"/>
<text text-anchor="middle" x="354.5" y="-7.5" font-family="Helvetica,sans-Serif" font-size="10.00">EdgeHeap::isHeap</text>
</a>
</g>
</g>
<!-- Node23&#45;&gt;Node44 -->
<g id="edge29" class="edge"><title>Node23&#45;&gt;Node44</title>
<path fill="none" stroke="midnightblue" d="M207.36,-89.2204C227.914,-73.7845 260.97,-50.2855 292,-34 302.453,-28.5139 314.45,-23.5573 325.057,-19.5922"/>
<polygon fill="midnightblue" stroke="midnightblue" points="205.205,-86.4618 199.359,-95.2976 209.439,-92.0362 205.205,-86.4618"/>
</g>
<!-- Node25 -->
<g id="node4" class="node"><title>Node25</title>
<g id="a_node4"><a xlink:href="../../d3/dd4/class_r_a_g.html#ab09eebb1b704d18b583d528e77f7604a" target="_top" xlink:title="RAG::regionMerging">
<polygon fill="white" stroke="black" points="895,-152.5 895,-171.5 1000,-171.5 1000,-152.5 895,-152.5"/>
<text text-anchor="middle" x="947.5" y="-159.5" font-family="Helvetica,sans-Serif" font-size="10.00">RAG::regionMerging</text>
</a>
</g>
</g>
<!-- Node24&#45;&gt;Node25 -->
<g id="edge3" class="edge"><title>Node24&#45;&gt;Node25</title>
<path fill="none" stroke="midnightblue" d="M845.673,-187.888C866.286,-182.596 890.109,-176.479 909.422,-171.52"/>
<polygon fill="midnightblue" stroke="midnightblue" points="844.662,-184.534 835.847,-190.411 846.403,-191.314 844.662,-184.534"/>
</g>
<!-- Node26 -->
<g id="node5" class="node"><title>Node26</title>
<g id="a_node5"><a xlink:href="../../d1/ded/classimage.html#a12343719e8d96a4bda9c5bd6c035d52a" target="_top" xlink:title="image::mergeBlockX">
<polygon fill="white" stroke="black" points="1042,-190.5 1042,-209.5 1149,-209.5 1149,-190.5 1042,-190.5"/>
<text text-anchor="middle" x="1095.5" y="-197.5" font-family="Helvetica,sans-Serif" font-size="10.00">image::mergeBlockX</text>
</a>
</g>
</g>
<!-- Node25&#45;&gt;Node26 -->
<g id="edge4" class="edge"><title>Node25&#45;&gt;Node26</title>
<path fill="none" stroke="midnightblue" d="M995.036,-174.112C1015.37,-179.404 1038.87,-185.521 1057.92,-190.48"/>
<polygon fill="midnightblue" stroke="midnightblue" points="995.901,-170.721 985.342,-171.589 994.138,-177.495 995.901,-170.721"/>
</g>
<!-- Node30 -->
<g id="node9" class="node"><title>Node30</title>
<g id="a_node9"><a xlink:href="../../d1/ded/classimage.html#aa21fc5a07af7528869425e750090b3b8" target="_top" xlink:title="image::mergeBlockY">
<polygon fill="white" stroke="black" points="1042,-152.5 1042,-171.5 1149,-171.5 1149,-152.5 1042,-152.5"/>
<text text-anchor="middle" x="1095.5" y="-159.5" font-family="Helvetica,sans-Serif" font-size="10.00">image::mergeBlockY</text>
</a>
</g>
</g>
<!-- Node25&#45;&gt;Node30 -->
<g id="edge8" class="edge"><title>Node25&#45;&gt;Node30</title>
<path fill="none" stroke="midnightblue" d="M1010.63,-162C1021.01,-162 1031.68,-162 1041.8,-162"/>
<polygon fill="midnightblue" stroke="midnightblue" points="1010.39,-158.5 1000.39,-162 1010.39,-165.5 1010.39,-158.5"/>
</g>
<!-- Node32 -->
<g id="node11" class="node"><title>Node32</title>
<g id="a_node11"><a xlink:href="../../d8/dd2/classimageblock.html#abcc69a8c00ad79067185c700463f8126" target="_top" xlink:title="imageblock::createBPT">
<polygon fill="white" stroke="black" points="1036,-114.5 1036,-133.5 1155,-133.5 1155,-114.5 1036,-114.5"/>
<text text-anchor="middle" x="1095.5" y="-121.5" font-family="Helvetica,sans-Serif" font-size="10.00">imageblock::createBPT</text>
</a>
</g>
</g>
<!-- Node25&#45;&gt;Node32 -->
<g id="edge11" class="edge"><title>Node25&#45;&gt;Node32</title>
<path fill="none" stroke="midnightblue" d="M995.036,-149.888C1015.37,-144.596 1038.87,-138.479 1057.92,-133.52"/>
<polygon fill="midnightblue" stroke="midnightblue" points="994.138,-146.505 985.342,-152.411 995.901,-153.279 994.138,-146.505"/>
</g>
<!-- Node27 -->
<g id="node6" class="node"><title>Node27</title>
<g id="a_node6"><a xlink:href="../../d1/ded/classimage.html#a83026280ad6cc713ec9489ff3bd9776e" target="_top" xlink:title="image::ProcessBoundaryX">
<polygon fill="white" stroke="black" points="1360,-190.5 1360,-209.5 1493,-209.5 1493,-190.5 1360,-190.5"/>
<text text-anchor="middle" x="1426.5" y="-197.5" font-family="Helvetica,sans-Serif" font-size="10.00">image::ProcessBoundaryX</text>
</a>
</g>
</g>
<!-- Node26&#45;&gt;Node27 -->
<g id="edge5" class="edge"><title>Node26&#45;&gt;Node27</title>
<path fill="none" stroke="midnightblue" d="M1159.4,-200C1216.83,-200 1301.41,-200 1359.73,-200"/>
<polygon fill="midnightblue" stroke="midnightblue" points="1159.36,-196.5 1149.36,-200 1159.36,-203.5 1159.36,-196.5"/>
</g>
<!-- Node28 -->
<g id="node7" class="node"><title>Node28</title>
<g id="a_node7"><a xlink:href="../../d1/ded/classimage.html#a4689c56b85c46d48ea52f0c9fa13891e" target="_top" xlink:title="image::processing">
<polygon fill="white" stroke="black" points="1529,-152.5 1529,-171.5 1625,-171.5 1625,-152.5 1529,-152.5"/>
<text text-anchor="middle" x="1577" y="-159.5" font-family="Helvetica,sans-Serif" font-size="10.00">image::processing</text>
</a>
</g>
</g>
<!-- Node27&#45;&gt;Node28 -->
<g id="edge6" class="edge"><title>Node27&#45;&gt;Node28</title>
<path fill="none" stroke="midnightblue" d="M1474.83,-187.888C1495.51,-182.596 1519.42,-176.479 1538.8,-171.52"/>
<polygon fill="midnightblue" stroke="midnightblue" points="1473.79,-184.541 1464.97,-190.411 1475.53,-191.323 1473.79,-184.541"/>
</g>
<!-- Node29 -->
<g id="node8" class="node"><title>Node29</title>
<g id="a_node8"><a xlink:href="../../d9/dc6/class_main_window.html#a9a45eb9ebe6d27bcd23677d9fbb74dd8" target="_top" xlink:title="MainWindow::on_Go_clicked">
<polygon fill="white" stroke="black" points="1661,-152.5 1661,-171.5 1804,-171.5 1804,-152.5 1661,-152.5"/>
<text text-anchor="middle" x="1732.5" y="-159.5" font-family="Helvetica,sans-Serif" font-size="10.00">MainWindow::on_Go_clicked</text>
</a>
</g>
</g>
<!-- Node28&#45;&gt;Node29 -->
<g id="edge7" class="edge"><title>Node28&#45;&gt;Node29</title>
<path fill="none" stroke="midnightblue" d="M1635.58,-162C1643.85,-162 1652.44,-162 1660.93,-162"/>
<polygon fill="midnightblue" stroke="midnightblue" points="1635.31,-158.5 1625.31,-162 1635.31,-165.5 1635.31,-158.5"/>
</g>
<!-- Node31 -->
<g id="node10" class="node"><title>Node31</title>
<g id="a_node10"><a xlink:href="../../d1/ded/classimage.html#adf6b8c126649c9a40387f12b5f5f07d5" target="_top" xlink:title="image::ProcessBoundaryY">
<polygon fill="white" stroke="black" points="1191,-152.5 1191,-171.5 1324,-171.5 1324,-152.5 1191,-152.5"/>
<text text-anchor="middle" x="1257.5" y="-159.5" font-family="Helvetica,sans-Serif" font-size="10.00">image::ProcessBoundaryY</text>
</a>
</g>
</g>
<!-- Node30&#45;&gt;Node31 -->
<g id="edge9" class="edge"><title>Node30&#45;&gt;Node31</title>
<path fill="none" stroke="midnightblue" d="M1159.49,-162C1169.8,-162 1180.51,-162 1190.88,-162"/>
<polygon fill="midnightblue" stroke="midnightblue" points="1159.33,-158.5 1149.33,-162 1159.33,-165.5 1159.33,-158.5"/>
</g>
<!-- Node31&#45;&gt;Node28 -->
<g id="edge10" class="edge"><title>Node31&#45;&gt;Node28</title>
<path fill="none" stroke="midnightblue" d="M1334.54,-162C1394.98,-162 1477.61,-162 1528.85,-162"/>
<polygon fill="midnightblue" stroke="midnightblue" points="1334.29,-158.5 1324.29,-162 1334.29,-165.5 1334.29,-158.5"/>
</g>
<!-- Node33 -->
<g id="node12" class="node"><title>Node33</title>
<g id="a_node12"><a xlink:href="../../d8/dd2/classimageblock.html#af3b91e3daaa8014af1239f60da6b0bf5" target="_top" xlink:title="imageblock::processing">
<polygon fill="white" stroke="black" points="1198,-114.5 1198,-133.5 1317,-133.5 1317,-114.5 1198,-114.5"/>
<text text-anchor="middle" x="1257.5" y="-121.5" font-family="Helvetica,sans-Serif" font-size="10.00">imageblock::processing</text>
</a>
</g>
</g>
<!-- Node32&#45;&gt;Node33 -->
<g id="edge12" class="edge"><title>Node32&#45;&gt;Node33</title>
<path fill="none" stroke="midnightblue" d="M1165.42,-124C1176.22,-124 1187.29,-124 1197.84,-124"/>
<polygon fill="midnightblue" stroke="midnightblue" points="1165.17,-120.5 1155.17,-124 1165.17,-127.5 1165.17,-120.5"/>
</g>
<!-- Node34 -->
<g id="node13" class="node"><title>Node34</title>
<g id="a_node13"><a xlink:href="../../d1/ded/classimage.html#ad5a9d767eca6f9bbb8dcb556527edf4d" target="_top" xlink:title="image::ProcessTiles">
<polygon fill="white" stroke="black" points="1373.5,-114.5 1373.5,-133.5 1479.5,-133.5 1479.5,-114.5 1373.5,-114.5"/>
<text text-anchor="middle" x="1426.5" y="-121.5" font-family="Helvetica,sans-Serif" font-size="10.00">image::ProcessTiles</text>
</a>
</g>
</g>
<!-- Node33&#45;&gt;Node34 -->
<g id="edge13" class="edge"><title>Node33&#45;&gt;Node34</title>
<path fill="none" stroke="midnightblue" d="M1327.78,-124C1342.99,-124 1358.86,-124 1373.27,-124"/>
<polygon fill="midnightblue" stroke="midnightblue" points="1327.38,-120.5 1317.38,-124 1327.38,-127.5 1327.38,-120.5"/>
</g>
<!-- Node34&#45;&gt;Node28 -->
<g id="edge14" class="edge"><title>Node34&#45;&gt;Node28</title>
<path fill="none" stroke="midnightblue" d="M1474.83,-136.112C1495.51,-141.404 1519.42,-147.521 1538.8,-152.48"/>
<polygon fill="midnightblue" stroke="midnightblue" points="1475.53,-132.677 1464.97,-133.589 1473.79,-139.459 1475.53,-132.677"/>
</g>
<!-- Node35&#45;&gt;Node36 -->
<g id="edge16" class="edge"><title>Node35&#45;&gt;Node36</title>
<path fill="none" stroke="midnightblue" d="M427.16,-124C435.762,-124 444.435,-124 452.733,-124"/>
<polygon fill="midnightblue" stroke="midnightblue" points="427.121,-120.5 417.121,-124 427.121,-127.5 427.121,-120.5"/>
</g>
<!-- Node35&#45;&gt;Node40 -->
<g id="edge22" class="edge"><title>Node35&#45;&gt;Node40</title>
<path fill="none" stroke="midnightblue" d="M403.502,-111.96C424.667,-106.651 449.186,-100.501 469.045,-95.5201"/>
<polygon fill="midnightblue" stroke="midnightblue" points="402.578,-108.583 393.73,-114.411 404.281,-115.373 402.578,-108.583"/>
</g>
<!-- Node37 -->
<g id="node16" class="node"><title>Node37</title>
<g id="a_node16"><a xlink:href="../../d8/de9/class_edge_heap.html#ac36afe05c095a87767748b41dfa831a5" target="_top" xlink:title="EdgeHeap::remove">
<polygon fill="white" stroke="black" points="599,-114.5 599,-133.5 700,-133.5 700,-114.5 599,-114.5"/>
<text text-anchor="middle" x="649.5" y="-121.5" font-family="Helvetica,sans-Serif" font-size="10.00">EdgeHeap::remove</text>
</a>
</g>
</g>
<!-- Node36&#45;&gt;Node37 -->
<g id="edge17" class="edge"><title>Node36&#45;&gt;Node37</title>
<path fill="none" stroke="midnightblue" d="M573.535,-124C581.968,-124 590.502,-124 598.642,-124"/>
<polygon fill="midnightblue" stroke="midnightblue" points="573.334,-120.5 563.334,-124 573.334,-127.5 573.334,-120.5"/>
</g>
<!-- Node39 -->
<g id="node18" class="node"><title>Node39</title>
<g id="a_node18"><a xlink:href="../../d8/de9/class_edge_heap.html#a001dc48506130f599bddb241006d2920" target="_top" xlink:title="EdgeHeap::removeFront">
<polygon fill="white" stroke="black" points="736,-152.5 736,-171.5 859,-171.5 859,-152.5 736,-152.5"/>
<text text-anchor="middle" x="797.5" y="-159.5" font-family="Helvetica,sans-Serif" font-size="10.00">EdgeHeap::removeFront</text>
</a>
</g>
</g>
<!-- Node36&#45;&gt;Node39 -->
<g id="edge20" class="edge"><title>Node36&#45;&gt;Node39</title>
<path fill="none" stroke="midnightblue" d="M559.617,-135.725C572.416,-138.403 586.171,-141.035 599,-143 644.626,-149.988 696.6,-154.866 735.775,-157.929"/>
<polygon fill="midnightblue" stroke="midnightblue" points="560.104,-132.25 549.593,-133.579 558.639,-139.095 560.104,-132.25"/>
</g>
<!-- Node38 -->
<g id="node17" class="node"><title>Node38</title>
<g id="a_node17"><a xlink:href="../../d3/dd4/class_r_a_g.html#aa2de492a3df037db29b0e3ccab5251ee" target="_top" xlink:title="RAG::merge">
<polygon fill="white" stroke="black" points="762,-114.5 762,-133.5 833,-133.5 833,-114.5 762,-114.5"/>
<text text-anchor="middle" x="797.5" y="-121.5" font-family="Helvetica,sans-Serif" font-size="10.00">RAG::merge</text>
</a>
</g>
</g>
<!-- Node37&#45;&gt;Node38 -->
<g id="edge18" class="edge"><title>Node37&#45;&gt;Node38</title>
<path fill="none" stroke="midnightblue" d="M710.438,-124C727.849,-124 746.285,-124 761.608,-124"/>
<polygon fill="midnightblue" stroke="midnightblue" points="710.337,-120.5 700.337,-124 710.337,-127.5 710.337,-120.5"/>
</g>
<!-- Node38&#45;&gt;Node25 -->
<g id="edge19" class="edge"><title>Node38&#45;&gt;Node25</title>
<path fill="none" stroke="midnightblue" d="M842.953,-135.413C864.168,-140.861 889.261,-147.303 909.431,-152.482"/>
<polygon fill="midnightblue" stroke="midnightblue" points="843.756,-132.006 833.199,-132.909 842.015,-138.786 843.756,-132.006"/>
</g>
<!-- Node39&#45;&gt;Node25 -->
<g id="edge21" class="edge"><title>Node39&#45;&gt;Node25</title>
<path fill="none" stroke="midnightblue" d="M869.177,-162C877.787,-162 886.457,-162 894.721,-162"/>
<polygon fill="midnightblue" stroke="midnightblue" points="869.124,-158.5 859.124,-162 869.124,-165.5 869.124,-158.5"/>
</g>
<!-- Node41 -->
<g id="node20" class="node"><title>Node41</title>
<g id="a_node20"><a xlink:href="../../d8/de9/class_edge_heap.html#a7d8eaf4111da4c024feb5f2fb8d7cafa" target="_top" xlink:title="EdgeHeap::update">
<polygon fill="white" stroke="black" points="600.5,-76.5 600.5,-95.5 698.5,-95.5 698.5,-76.5 600.5,-76.5"/>
<text text-anchor="middle" x="649.5" y="-83.5" font-family="Helvetica,sans-Serif" font-size="10.00">EdgeHeap::update</text>
</a>
</g>
</g>
<!-- Node40&#45;&gt;Node41 -->
<g id="edge23" class="edge"><title>Node40&#45;&gt;Node41</title>
<path fill="none" stroke="midnightblue" d="M571.957,-86C581.466,-86 591.145,-86 600.278,-86"/>
<polygon fill="midnightblue" stroke="midnightblue" points="571.739,-82.5001 561.739,-86 571.739,-89.5001 571.739,-82.5001"/>
</g>
<!-- Node41&#45;&gt;Node38 -->
<g id="edge24" class="edge"><title>Node41&#45;&gt;Node38</title>
<path fill="none" stroke="midnightblue" d="M697.302,-98.1813C718.205,-103.622 742.412,-109.922 761.68,-114.937"/>
<polygon fill="midnightblue" stroke="midnightblue" points="697.901,-94.7207 687.342,-95.589 696.138,-101.495 697.901,-94.7207"/>
</g>
<!-- Node42&#45;&gt;Node36 -->
<g id="edge27" class="edge"><title>Node42&#45;&gt;Node36</title>
<path fill="none" stroke="midnightblue" d="M403.502,-98.04C424.667,-103.349 449.186,-109.499 469.045,-114.48"/>
<polygon fill="midnightblue" stroke="midnightblue" points="404.281,-94.6271 393.73,-95.589 402.578,-101.417 404.281,-94.6271"/>
</g>
<!-- Node42&#45;&gt;Node40 -->
<g id="edge28" class="edge"><title>Node42&#45;&gt;Node40</title>
<path fill="none" stroke="midnightblue" d="M421.168,-86C432.304,-86 443.736,-86 454.478,-86"/>
<polygon fill="midnightblue" stroke="midnightblue" points="421.053,-82.5001 411.053,-86 421.053,-89.5001 421.053,-82.5001"/>
</g>
<!-- Node43 -->
<g id="node22" class="node"><title>Node43</title>
<g id="a_node22"><a xlink:href="../../d8/de9/class_edge_heap.html#ab0a6cd317e3e6c92c0072d3211ecc24b" target="_top" xlink:title="EdgeHeap::insert">
<polygon fill="white" stroke="black" points="462,-38.5 462,-57.5 554,-57.5 554,-38.5 462,-38.5"/>
<text text-anchor="middle" x="508" y="-45.5" font-family="Helvetica,sans-Serif" font-size="10.00">EdgeHeap::insert</text>
</a>
</g>
</g>
<!-- Node42&#45;&gt;Node43 -->
<g id="edge26" class="edge"><title>Node42&#45;&gt;Node43</title>
<path fill="none" stroke="midnightblue" d="M403.502,-73.96C424.667,-68.6512 449.186,-62.5012 469.045,-57.5201"/>
<polygon fill="midnightblue" stroke="midnightblue" points="402.578,-70.5832 393.73,-76.411 404.281,-77.3729 402.578,-70.5832"/>
</g>
</g>
</svg>
