<?xml version="1.0" encoding="UTF-8" standalone="no"?>
<!DOCTYPE svg PUBLIC "-//W3C//DTD SVG 1.1//EN"
 "http://www.w3.org/Graphics/SVG/1.1/DTD/svg11.dtd">
<!-- Generated by graphviz version 2.38.0 (20140413.2041)
 -->
<!-- Title: Node::replaceModel Pages: 1 -->
<svg width="382pt" height="28pt"
 viewBox="0.00 0.00 382.00 28.00" xmlns="http://www.w3.org/2000/svg" xmlns:xlink="http://www.w3.org/1999/xlink">
<g id="graph0" class="graph" transform="scale(1 1) rotate(0) translate(4 24)">
<title>Node::replaceModel</title>
<polygon fill="white" stroke="none" points="-4,4 -4,-24 378,-24 378,4 -4,4"/>
<!-- Node312 -->
<g id="node1" class="node"><title>Node312</title>
<polygon fill="#bfbfbf" stroke="black" points="0,-0.5 0,-19.5 104,-19.5 104,-0.5 0,-0.5"/>
<text text-anchor="middle" x="52" y="-7.5" font-family="Helvetica,sans-Serif" font-size="10.00">Node::replaceModel</text>
</g>
<!-- Node313 -->
<g id="node2" class="node"><title>Node313</title>
<g id="a_node2"><a xlink:href="../../dc/d8f/class_node.html#a8a60e0e373f3acf5a26036a0b40312a1" target="_top" xlink:title="Node::setModel">
<polygon fill="white" stroke="black" points="140,-0.5 140,-19.5 226,-19.5 226,-0.5 140,-0.5"/>
<text text-anchor="middle" x="183" y="-7.5" font-family="Helvetica,sans-Serif" font-size="10.00">Node::setModel</text>
</a>
</g>
</g>
<!-- Node312&#45;&gt;Node313 -->
<g id="edge1" class="edge"><title>Node312&#45;&gt;Node313</title>
<path fill="none" stroke="midnightblue" d="M104.355,-10C112.747,-10 121.449,-10 129.859,-10"/>
<polygon fill="midnightblue" stroke="midnightblue" points="129.934,-13.5001 139.933,-10 129.933,-6.5001 129.934,-13.5001"/>
</g>
<!-- Node314 -->
<g id="node3" class="node"><title>Node314</title>
<g id="a_node3"><a xlink:href="../../dc/dd2/classregion_model.html#aebdb837024f0eb627bb15742a19b9974" target="_top" xlink:title="regionModel::setNode">
<polygon fill="white" stroke="black" points="262,-0.5 262,-19.5 374,-19.5 374,-0.5 262,-0.5"/>
<text text-anchor="middle" x="318" y="-7.5" font-family="Helvetica,sans-Serif" font-size="10.00">regionModel::setNode</text>
</a>
</g>
</g>
<!-- Node313&#45;&gt;Node314 -->
<g id="edge2" class="edge"><title>Node313&#45;&gt;Node314</title>
<path fill="none" stroke="midnightblue" d="M226.082,-10C234.178,-10 242.834,-10 251.468,-10"/>
<polygon fill="midnightblue" stroke="midnightblue" points="251.559,-13.5001 261.559,-10 251.559,-6.5001 251.559,-13.5001"/>
</g>
</g>
</svg>
