<?xml version="1.0" encoding="UTF-8" standalone="no"?>
<!DOCTYPE svg PUBLIC "-//W3C//DTD SVG 1.1//EN"
 "http://www.w3.org/Graphics/SVG/1.1/DTD/svg11.dtd">
<!-- Generated by graphviz version 2.38.0 (20140413.2041)
 -->
<!-- Title: Node::getPosition Pages: 1 -->
<!--zoomable 370 -->
<svg id="main" version="1.1" xmlns="http://www.w3.org/2000/svg" xmlns:xlink="http://www.w3.org/1999/xlink" xml:space="preserve" onload="init(evt)">
<style type="text/css"><![CDATA[
.edge:hover path { stroke: red; }
.edge:hover polygon { stroke: red; fill: red; }
]]></style>
<script type="text/javascript"><![CDATA[
var edges = document.getElementsByTagName('g');
if (edges && edges.length) {
  for (var i=0;i<edges.length;i++) {
    if (edges[i].id.substr(0,4)=='edge') {
      edges[i].setAttribute('class','edge');
    }
  }
}
]]></script>
        <defs>
                <circle id="rim" cx="0" cy="0" r="7"/>
                <circle id="rim2" cx="0" cy="0" r="3.5"/>
                <g id="zoomPlus">
                        <use xlink:href="#rim" fill="#404040">
                                <set attributeName="fill" to="#808080" begin="zoomplus.mouseover" end="zoomplus.mouseout"/>
                        </use>
                        <path d="M-4,0h8M0,-4v8" fill="none" stroke="white" stroke-width="1.5" pointer-events="none"/>
                </g>
                <g id="zoomMin">
                        <use xlink:href="#rim" fill="#404040">
                                <set attributeName="fill" to="#808080" begin="zoomminus.mouseover" end="zoomminus.mouseout"/>
                        </use>
                        <path d="M-4,0h8" fill="none" stroke="white" stroke-width="1.5" pointer-events="none"/>
                </g>
                <g id="dirArrow">
                        <path fill="none" stroke="white" stroke-width="1.5" d="M0,-3.0v7 M-2.5,-0.5L0,-3.0L2.5,-0.5"/>
                </g>
               <g id="resetDef">
                       <use xlink:href="#rim2" fill="#404040">
                               <set attributeName="fill" to="#808080" begin="reset.mouseover" end="reset.mouseout"/>
                       </use>
               </g>
        </defs>

<script type="text/javascript">
var viewWidth = 1866;
var viewHeight = 370;
var sectionId = 'dynsection-14';
</script>
<script xlink:href="../../svgpan.js"/>
<svg id="graph" class="graph">
<g id="viewport">
<title>Node::getPosition</title>
<polygon fill="white" stroke="none" points="-4,4 -4,-366 1862,-366 1862,4 -4,4"/>
<!-- Node153 -->
<g id="node1" class="node"><title>Node153</title>
<polygon fill="#bfbfbf" stroke="black" points="0,-171.5 0,-190.5 95,-190.5 95,-171.5 0,-171.5"/>
<text text-anchor="middle" x="47.5" y="-178.5" font-family="Helvetica,sans-Serif" font-size="10.00">Node::getPosition</text>
</g>
<!-- Node154 -->
<g id="node2" class="node"><title>Node154</title>
<g id="a_node2"><a xlink:href="../../d9/db2/classinitializer.html#a3b9f79140d510e7aea1287bfe891e8b9" target="_top" xlink:title="initializer::addEdges">
<polygon fill="white" stroke="black" points="332.5,-342.5 332.5,-361.5 436.5,-361.5 436.5,-342.5 332.5,-342.5"/>
<text text-anchor="middle" x="384.5" y="-349.5" font-family="Helvetica,sans-Serif" font-size="10.00">initializer::addEdges</text>
</a>
</g>
</g>
<!-- Node153&#45;&gt;Node154 -->
<g id="edge1" class="edge"><title>Node153&#45;&gt;Node154</title>
<path fill="none" stroke="midnightblue" d="M54.0295,-200.333C63.9283,-231.103 87.7937,-290.633 131,-319 191.516,-358.732 277.924,-361.137 332.341,-357.711"/>
<polygon fill="midnightblue" stroke="midnightblue" points="57.3701,-199.288 51.1018,-190.747 50.6753,-201.333 57.3701,-199.288"/>
</g>
<!-- Node162 -->
<g id="node10" class="node"><title>Node162</title>
<g id="a_node10"><a xlink:href="../../d8/de9/class_edge_heap.html#add248e35c4c2443246ff6c7cd654ae9f" target="_top" xlink:title="EdgeHeap::edgeComparator">
<polygon fill="white" stroke="black" points="131,-190.5 131,-209.5 271,-209.5 271,-190.5 131,-190.5"/>
<text text-anchor="middle" x="201" y="-197.5" font-family="Helvetica,sans-Serif" font-size="10.00">EdgeHeap::edgeComparator</text>
</a>
</g>
</g>
<!-- Node153&#45;&gt;Node162 -->
<g id="edge10" class="edge"><title>Node153&#45;&gt;Node162</title>
<path fill="none" stroke="midnightblue" d="M105.217,-188.113C113.597,-189.164 122.309,-190.257 130.905,-191.335"/>
<polygon fill="midnightblue" stroke="midnightblue" points="105.549,-184.627 95.1912,-186.856 104.678,-191.573 105.549,-184.627"/>
</g>
<!-- Node178 -->
<g id="node26" class="node"><title>Node178</title>
<g id="a_node26"><a xlink:href="../../dc/d8f/class_node.html#ac514917c2beff2faebf1e48760cc6b40" target="_top" xlink:title="Node::nodeComparator_X">
<polygon fill="white" stroke="black" points="136,-290.5 136,-309.5 266,-309.5 266,-290.5 136,-290.5"/>
<text text-anchor="middle" x="201" y="-297.5" font-family="Helvetica,sans-Serif" font-size="10.00">Node::nodeComparator_X</text>
</a>
</g>
</g>
<!-- Node153&#45;&gt;Node178 -->
<g id="edge36" class="edge"><title>Node153&#45;&gt;Node178</title>
<path fill="none" stroke="midnightblue" d="M63.5279,-198.31C79.2241,-215.742 105.123,-242.741 131,-262 146.14,-273.268 165.007,-283.43 179.185,-290.404"/>
<polygon fill="midnightblue" stroke="midnightblue" points="65.9408,-195.756 56.6869,-190.597 60.7038,-200.401 65.9408,-195.756"/>
</g>
<!-- Node179 -->
<g id="node27" class="node"><title>Node179</title>
<g id="a_node27"><a xlink:href="../../dc/d8f/class_node.html#a566bec893ce0b318bad8600f3b1e3e4a" target="_top" xlink:title="Node::nodeComparator_Y">
<polygon fill="white" stroke="black" points="136,-233.5 136,-252.5 266,-252.5 266,-233.5 136,-233.5"/>
<text text-anchor="middle" x="201" y="-240.5" font-family="Helvetica,sans-Serif" font-size="10.00">Node::nodeComparator_Y</text>
</a>
</g>
</g>
<!-- Node153&#45;&gt;Node179 -->
<g id="edge38" class="edge"><title>Node153&#45;&gt;Node179</title>
<path fill="none" stroke="midnightblue" d="M77.1346,-195.02C92.8711,-202.513 112.832,-211.676 131,-219 143.822,-224.169 158.234,-229.287 170.558,-233.461"/>
<polygon fill="midnightblue" stroke="midnightblue" points="78.4656,-191.776 67.9361,-190.601 75.4346,-198.086 78.4656,-191.776"/>
</g>
<!-- Node180 -->
<g id="node28" class="node"><title>Node180</title>
<g id="a_node28"><a xlink:href="../../d9/da1/classio.html#a4cca3fdf98e917cac1b3e776c7634aec" target="_top" xlink:title="io::writeBoarderNodeToCSV">
<polygon fill="white" stroke="black" points="131,-38.5 131,-57.5 271,-57.5 271,-38.5 131,-38.5"/>
<text text-anchor="middle" x="201" y="-45.5" font-family="Helvetica,sans-Serif" font-size="10.00">io::writeBoarderNodeToCSV</text>
</a>
</g>
</g>
<!-- Node153&#45;&gt;Node180 -->
<g id="edge40" class="edge"><title>Node153&#45;&gt;Node180</title>
<path fill="none" stroke="midnightblue" d="M57.1427,-162.027C69.7325,-136.537 95.539,-91.6015 131,-67 136.615,-63.1046 143.002,-60.0061 149.57,-57.5417"/>
<polygon fill="midnightblue" stroke="midnightblue" points="53.8418,-160.818 52.7008,-171.351 60.1613,-163.828 53.8418,-160.818"/>
</g>
<!-- Node184 -->
<g id="node32" class="node"><title>Node184</title>
<g id="a_node32"><a xlink:href="../../d9/da1/classio.html#a72962f4d8ddc9b57256730b089be4288" target="_top" xlink:title="io::writeClassMap">
<polygon fill="white" stroke="black" points="153.5,-152.5 153.5,-171.5 248.5,-171.5 248.5,-152.5 153.5,-152.5"/>
<text text-anchor="middle" x="201" y="-159.5" font-family="Helvetica,sans-Serif" font-size="10.00">io::writeClassMap</text>
</a>
</g>
</g>
<!-- Node153&#45;&gt;Node184 -->
<g id="edge45" class="edge"><title>Node153&#45;&gt;Node184</title>
<path fill="none" stroke="midnightblue" d="M105.407,-173.863C121.258,-171.875 138.284,-169.74 153.463,-167.836"/>
<polygon fill="midnightblue" stroke="midnightblue" points="104.678,-170.427 95.1912,-175.144 105.549,-177.373 104.678,-170.427"/>
</g>
<!-- Node185 -->
<g id="node33" class="node"><title>Node185</title>
<g id="a_node33"><a xlink:href="../../d9/da1/classio.html#a8aa97cb094b71a1583ef796b8200fbdb" target="_top" xlink:title="io::writeNodeToCSV">
<polygon fill="white" stroke="black" points="147.5,-114.5 147.5,-133.5 254.5,-133.5 254.5,-114.5 147.5,-114.5"/>
<text text-anchor="middle" x="201" y="-121.5" font-family="Helvetica,sans-Serif" font-size="10.00">io::writeNodeToCSV</text>
</a>
</g>
</g>
<!-- Node153&#45;&gt;Node185 -->
<g id="edge48" class="edge"><title>Node153&#45;&gt;Node185</title>
<path fill="none" stroke="midnightblue" d="M76.3253,-166.805C92.0996,-159.11 112.355,-149.81 131,-143 140.57,-139.505 151.089,-136.299 160.967,-133.556"/>
<polygon fill="midnightblue" stroke="midnightblue" points="74.547,-163.78 67.137,-171.352 77.6519,-170.054 74.547,-163.78"/>
</g>
<!-- Node186 -->
<g id="node34" class="node"><title>Node186</title>
<g id="a_node34"><a xlink:href="../../d9/da1/classio.html#aaa642111086b3ec2afee826a767d03ad" target="_top" xlink:title="io::writeNodeToDisk">
<polygon fill="white" stroke="black" points="148,-76.5 148,-95.5 254,-95.5 254,-76.5 148,-76.5"/>
<text text-anchor="middle" x="201" y="-83.5" font-family="Helvetica,sans-Serif" font-size="10.00">io::writeNodeToDisk</text>
</a>
</g>
</g>
<!-- Node153&#45;&gt;Node186 -->
<g id="edge51" class="edge"><title>Node153&#45;&gt;Node186</title>
<path fill="none" stroke="midnightblue" d="M62.9091,-163.558C78.1159,-146.253 103.635,-120.184 131,-105 137.953,-101.142 145.743,-98.0254 153.515,-95.5207"/>
<polygon fill="midnightblue" stroke="midnightblue" points="60.1565,-161.392 56.3094,-171.263 65.4729,-165.945 60.1565,-161.392"/>
</g>
<!-- Node155 -->
<g id="node3" class="node"><title>Node155</title>
<g id="a_node3"><a xlink:href="../../d9/db2/classinitializer.html#aaa8cb78ad7655020875fa970001d899e" target="_top" xlink:title="initializer::initializeRag">
<polygon fill="white" stroke="black" points="940,-228.5 940,-247.5 1054,-247.5 1054,-228.5 940,-228.5"/>
<text text-anchor="middle" x="997" y="-235.5" font-family="Helvetica,sans-Serif" font-size="10.00">initializer::initializeRag</text>
</a>
</g>
</g>
<!-- Node154&#45;&gt;Node155 -->
<g id="edge2" class="edge"><title>Node154&#45;&gt;Node155</title>
<path fill="none" stroke="midnightblue" d="M446.795,-343.54C518.523,-333.349 640.759,-315.077 745,-295 820.692,-280.421 908.342,-259.609 957.468,-247.583"/>
<polygon fill="midnightblue" stroke="midnightblue" points="445.998,-340.118 436.587,-344.984 446.978,-347.049 445.998,-340.118"/>
</g>
<!-- Node156 -->
<g id="node4" class="node"><title>Node156</title>
<g id="a_node4"><a xlink:href="../../d1/ded/classimage.html#a12343719e8d96a4bda9c5bd6c035d52a" target="_top" xlink:title="image::mergeBlockX">
<polygon fill="white" stroke="black" points="1096,-228.5 1096,-247.5 1203,-247.5 1203,-228.5 1096,-228.5"/>
<text text-anchor="middle" x="1149.5" y="-235.5" font-family="Helvetica,sans-Serif" font-size="10.00">image::mergeBlockX</text>
</a>
</g>
</g>
<!-- Node155&#45;&gt;Node156 -->
<g id="edge3" class="edge"><title>Node155&#45;&gt;Node156</title>
<path fill="none" stroke="midnightblue" d="M1064.13,-238C1074.76,-238 1085.64,-238 1095.9,-238"/>
<polygon fill="midnightblue" stroke="midnightblue" points="1064.04,-234.5 1054.04,-238 1064.04,-241.5 1064.04,-234.5"/>
</g>
<!-- Node160 -->
<g id="node8" class="node"><title>Node160</title>
<g id="a_node8"><a xlink:href="../../d1/ded/classimage.html#aa21fc5a07af7528869425e750090b3b8" target="_top" xlink:title="image::mergeBlockY">
<polygon fill="white" stroke="black" points="1096,-190.5 1096,-209.5 1203,-209.5 1203,-190.5 1096,-190.5"/>
<text text-anchor="middle" x="1149.5" y="-197.5" font-family="Helvetica,sans-Serif" font-size="10.00">image::mergeBlockY</text>
</a>
</g>
</g>
<!-- Node155&#45;&gt;Node160 -->
<g id="edge7" class="edge"><title>Node155&#45;&gt;Node160</title>
<path fill="none" stroke="midnightblue" d="M1045.68,-225.96C1066.71,-220.651 1091.07,-214.501 1110.8,-209.52"/>
<polygon fill="midnightblue" stroke="midnightblue" points="1044.82,-222.569 1035.98,-228.411 1046.53,-229.356 1044.82,-222.569"/>
</g>
<!-- Node157 -->
<g id="node5" class="node"><title>Node157</title>
<g id="a_node5"><a xlink:href="../../d1/ded/classimage.html#a83026280ad6cc713ec9489ff3bd9776e" target="_top" xlink:title="image::ProcessBoundaryX">
<polygon fill="white" stroke="black" points="1414,-228.5 1414,-247.5 1547,-247.5 1547,-228.5 1414,-228.5"/>
<text text-anchor="middle" x="1480.5" y="-235.5" font-family="Helvetica,sans-Serif" font-size="10.00">image::ProcessBoundaryX</text>
</a>
</g>
</g>
<!-- Node156&#45;&gt;Node157 -->
<g id="edge4" class="edge"><title>Node156&#45;&gt;Node157</title>
<path fill="none" stroke="midnightblue" d="M1213.4,-238C1270.83,-238 1355.41,-238 1413.73,-238"/>
<polygon fill="midnightblue" stroke="midnightblue" points="1213.36,-234.5 1203.36,-238 1213.36,-241.5 1213.36,-234.5"/>
</g>
<!-- Node158 -->
<g id="node6" class="node"><title>Node158</title>
<g id="a_node6"><a xlink:href="../../d1/ded/classimage.html#a4689c56b85c46d48ea52f0c9fa13891e" target="_top" xlink:title="image::processing">
<polygon fill="white" stroke="black" points="1583,-190.5 1583,-209.5 1679,-209.5 1679,-190.5 1583,-190.5"/>
<text text-anchor="middle" x="1631" y="-197.5" font-family="Helvetica,sans-Serif" font-size="10.00">image::processing</text>
</a>
</g>
</g>
<!-- Node157&#45;&gt;Node158 -->
<g id="edge5" class="edge"><title>Node157&#45;&gt;Node158</title>
<path fill="none" stroke="midnightblue" d="M1528.83,-225.888C1549.51,-220.596 1573.42,-214.479 1592.8,-209.52"/>
<polygon fill="midnightblue" stroke="midnightblue" points="1527.79,-222.541 1518.97,-228.411 1529.53,-229.323 1527.79,-222.541"/>
</g>
<!-- Node159 -->
<g id="node7" class="node"><title>Node159</title>
<g id="a_node7"><a xlink:href="../../d9/dc6/class_main_window.html#a9a45eb9ebe6d27bcd23677d9fbb74dd8" target="_top" xlink:title="MainWindow::on_Go_clicked">
<polygon fill="white" stroke="black" points="1715,-190.5 1715,-209.5 1858,-209.5 1858,-190.5 1715,-190.5"/>
<text text-anchor="middle" x="1786.5" y="-197.5" font-family="Helvetica,sans-Serif" font-size="10.00">MainWindow::on_Go_clicked</text>
</a>
</g>
</g>
<!-- Node158&#45;&gt;Node159 -->
<g id="edge6" class="edge"><title>Node158&#45;&gt;Node159</title>
<path fill="none" stroke="midnightblue" d="M1689.58,-200C1697.85,-200 1706.44,-200 1714.93,-200"/>
<polygon fill="midnightblue" stroke="midnightblue" points="1689.31,-196.5 1679.31,-200 1689.31,-203.5 1689.31,-196.5"/>
</g>
<!-- Node161 -->
<g id="node9" class="node"><title>Node161</title>
<g id="a_node9"><a xlink:href="../../d1/ded/classimage.html#adf6b8c126649c9a40387f12b5f5f07d5" target="_top" xlink:title="image::ProcessBoundaryY">
<polygon fill="white" stroke="black" points="1245,-190.5 1245,-209.5 1378,-209.5 1378,-190.5 1245,-190.5"/>
<text text-anchor="middle" x="1311.5" y="-197.5" font-family="Helvetica,sans-Serif" font-size="10.00">image::ProcessBoundaryY</text>
</a>
</g>
</g>
<!-- Node160&#45;&gt;Node161 -->
<g id="edge8" class="edge"><title>Node160&#45;&gt;Node161</title>
<path fill="none" stroke="midnightblue" d="M1213.49,-200C1223.8,-200 1234.51,-200 1244.88,-200"/>
<polygon fill="midnightblue" stroke="midnightblue" points="1213.33,-196.5 1203.33,-200 1213.33,-203.5 1213.33,-196.5"/>
</g>
<!-- Node161&#45;&gt;Node158 -->
<g id="edge9" class="edge"><title>Node161&#45;&gt;Node158</title>
<path fill="none" stroke="midnightblue" d="M1388.54,-200C1448.98,-200 1531.61,-200 1582.85,-200"/>
<polygon fill="midnightblue" stroke="midnightblue" points="1388.29,-196.5 1378.29,-200 1388.29,-203.5 1388.29,-196.5"/>
</g>
<!-- Node163 -->
<g id="node11" class="node"><title>Node163</title>
<g id="a_node11"><a xlink:href="../../d8/de9/class_edge_heap.html#a09c54300b957acc0f414fd9ee6c558fa" target="_top" xlink:title="EdgeHeap::heapify">
<polygon fill="white" stroke="black" points="792.5,-152.5 792.5,-171.5 892.5,-171.5 892.5,-152.5 792.5,-152.5"/>
<text text-anchor="middle" x="842.5" y="-159.5" font-family="Helvetica,sans-Serif" font-size="10.00">EdgeHeap::heapify</text>
</a>
</g>
</g>
<!-- Node162&#45;&gt;Node163 -->
<g id="edge11" class="edge"><title>Node162&#45;&gt;Node163</title>
<path fill="none" stroke="midnightblue" d="M281.165,-194.728C340.773,-190.804 424.505,-185.391 498,-181 602.783,-174.739 725.59,-168.12 792.288,-164.585"/>
<polygon fill="midnightblue" stroke="midnightblue" points="280.816,-191.243 271.068,-195.393 281.277,-198.228 280.816,-191.243"/>
</g>
<!-- Node168 -->
<g id="node16" class="node"><title>Node168</title>
<g id="a_node16"><a xlink:href="../../d8/de9/class_edge_heap.html#af02715f2265926338a4b33135c821a4c" target="_top" xlink:title="EdgeHeap::heapifyDown">
<polygon fill="white" stroke="black" points="322,-266.5 322,-285.5 447,-285.5 447,-266.5 322,-266.5"/>
<text text-anchor="middle" x="384.5" y="-273.5" font-family="Helvetica,sans-Serif" font-size="10.00">EdgeHeap::heapifyDown</text>
</a>
</g>
</g>
<!-- Node162&#45;&gt;Node168 -->
<g id="edge19" class="edge"><title>Node162&#45;&gt;Node168</title>
<path fill="none" stroke="midnightblue" d="M247.946,-213.028C255.891,-216.1 263.878,-219.747 271,-224 289.635,-235.128 287.876,-246.733 307,-257 314.234,-260.884 322.28,-263.991 330.359,-266.472"/>
<polygon fill="midnightblue" stroke="midnightblue" points="248.931,-209.663 238.337,-209.563 246.557,-216.248 248.931,-209.663"/>
</g>
<!-- Node169 -->
<g id="node17" class="node"><title>Node169</title>
<g id="a_node17"><a xlink:href="../../d8/de9/class_edge_heap.html#a71040389a82aaff7be40c94a95afc357" target="_top" xlink:title="EdgeHeap::removeAt">
<polygon fill="white" stroke="black" points="498,-228.5 498,-247.5 608,-247.5 608,-228.5 498,-228.5"/>
<text text-anchor="middle" x="553" y="-235.5" font-family="Helvetica,sans-Serif" font-size="10.00">EdgeHeap::removeAt</text>
</a>
</g>
</g>
<!-- Node162&#45;&gt;Node169 -->
<g id="edge34" class="edge"><title>Node162&#45;&gt;Node169</title>
<path fill="none" stroke="midnightblue" d="M281.339,-203.014C332.986,-205.661 401.712,-210.473 462,-219 478.603,-221.348 496.726,-224.966 512.331,-228.418"/>
<polygon fill="midnightblue" stroke="midnightblue" points="281.407,-199.514 271.245,-202.513 281.06,-206.505 281.407,-199.514"/>
</g>
<!-- Node173 -->
<g id="node21" class="node"><title>Node173</title>
<g id="a_node21"><a xlink:href="../../d8/de9/class_edge_heap.html#aed5f5e75856c0e3bcb8ccc29184a88c0" target="_top" xlink:title="EdgeHeap::updateAt">
<polygon fill="white" stroke="black" points="499.5,-266.5 499.5,-285.5 606.5,-285.5 606.5,-266.5 499.5,-266.5"/>
<text text-anchor="middle" x="553" y="-273.5" font-family="Helvetica,sans-Serif" font-size="10.00">EdgeHeap::updateAt</text>
</a>
</g>
</g>
<!-- Node162&#45;&gt;Node173 -->
<g id="edge35" class="edge"><title>Node162&#45;&gt;Node173</title>
<path fill="none" stroke="midnightblue" d="M254.899,-213.527C260.71,-216.386 266.237,-219.838 271,-224 297.642,-247.279 276.852,-276.484 307,-295 378.617,-338.984 485.095,-304.023 530.37,-285.571"/>
<polygon fill="midnightblue" stroke="midnightblue" points="256.169,-210.263 245.601,-209.503 253.389,-216.687 256.169,-210.263"/>
</g>
<!-- Node175 -->
<g id="node23" class="node"><title>Node175</title>
<g id="a_node23"><a xlink:href="../../d8/de9/class_edge_heap.html#afc03f4943c606b1d2617654cfaeeabb6" target="_top" xlink:title="EdgeHeap::heapifyUp">
<polygon fill="white" stroke="black" points="328,-228.5 328,-247.5 441,-247.5 441,-228.5 328,-228.5"/>
<text text-anchor="middle" x="384.5" y="-235.5" font-family="Helvetica,sans-Serif" font-size="10.00">EdgeHeap::heapifyUp</text>
</a>
</g>
</g>
<!-- Node162&#45;&gt;Node175 -->
<g id="edge29" class="edge"><title>Node162&#45;&gt;Node175</title>
<path fill="none" stroke="midnightblue" d="M257.792,-211.681C283.531,-217.07 313.699,-223.386 338.029,-228.48"/>
<polygon fill="midnightblue" stroke="midnightblue" points="258.305,-208.213 247.8,-209.589 256.871,-215.064 258.305,-208.213"/>
</g>
<!-- Node177 -->
<g id="node25" class="node"><title>Node177</title>
<g id="a_node25"><a xlink:href="../../d8/de9/class_edge_heap.html#a12a595377687c8c568007e8cc8646665" target="_top" xlink:title="EdgeHeap::isHeap">
<polygon fill="white" stroke="black" points="335,-114.5 335,-133.5 434,-133.5 434,-114.5 335,-114.5"/>
<text text-anchor="middle" x="384.5" y="-121.5" font-family="Helvetica,sans-Serif" font-size="10.00">EdgeHeap::isHeap</text>
</a>
</g>
</g>
<!-- Node162&#45;&gt;Node177 -->
<g id="edge33" class="edge"><title>Node162&#45;&gt;Node177</title>
<path fill="none" stroke="midnightblue" d="M257.903,-187.104C262.443,-185.311 266.869,-183.286 271,-181 289.992,-170.493 288.196,-158.841 307,-148 317.612,-141.882 329.968,-137.134 341.614,-133.538"/>
<polygon fill="midnightblue" stroke="midnightblue" points="256.721,-183.81 248.477,-190.465 259.072,-190.403 256.721,-183.81"/>
</g>
<!-- Node164 -->
<g id="node12" class="node"><title>Node164</title>
<g id="a_node12"><a xlink:href="../../d3/dd4/class_r_a_g.html#ab09eebb1b704d18b583d528e77f7604a" target="_top" xlink:title="RAG::regionMerging">
<polygon fill="white" stroke="black" points="944.5,-190.5 944.5,-209.5 1049.5,-209.5 1049.5,-190.5 944.5,-190.5"/>
<text text-anchor="middle" x="997" y="-197.5" font-family="Helvetica,sans-Serif" font-size="10.00">RAG::regionMerging</text>
</a>
</g>
</g>
<!-- Node163&#45;&gt;Node164 -->
<g id="edge12" class="edge"><title>Node163&#45;&gt;Node164</title>
<path fill="none" stroke="midnightblue" d="M891.818,-174.04C913.123,-179.349 937.804,-185.499 957.795,-190.48"/>
<polygon fill="midnightblue" stroke="midnightblue" points="892.532,-170.611 881.982,-171.589 890.839,-177.403 892.532,-170.611"/>
</g>
<!-- Node164&#45;&gt;Node156 -->
<g id="edge13" class="edge"><title>Node164&#45;&gt;Node156</title>
<path fill="none" stroke="midnightblue" d="M1045.68,-212.04C1066.71,-217.349 1091.07,-223.499 1110.8,-228.48"/>
<polygon fill="midnightblue" stroke="midnightblue" points="1046.53,-208.644 1035.98,-209.589 1044.82,-215.431 1046.53,-208.644"/>
</g>
<!-- Node164&#45;&gt;Node160 -->
<g id="edge14" class="edge"><title>Node164&#45;&gt;Node160</title>
<path fill="none" stroke="midnightblue" d="M1060.09,-200C1071.96,-200 1084.3,-200 1095.84,-200"/>
<polygon fill="midnightblue" stroke="midnightblue" points="1059.79,-196.5 1049.79,-200 1059.79,-203.5 1059.79,-196.5"/>
</g>
<!-- Node165 -->
<g id="node13" class="node"><title>Node165</title>
<g id="a_node13"><a xlink:href="../../d8/dd2/classimageblock.html#abcc69a8c00ad79067185c700463f8126" target="_top" xlink:title="imageblock::createBPT">
<polygon fill="white" stroke="black" points="1090,-152.5 1090,-171.5 1209,-171.5 1209,-152.5 1090,-152.5"/>
<text text-anchor="middle" x="1149.5" y="-159.5" font-family="Helvetica,sans-Serif" font-size="10.00">imageblock::createBPT</text>
</a>
</g>
</g>
<!-- Node164&#45;&gt;Node165 -->
<g id="edge15" class="edge"><title>Node164&#45;&gt;Node165</title>
<path fill="none" stroke="midnightblue" d="M1045.68,-187.96C1066.71,-182.651 1091.07,-176.501 1110.8,-171.52"/>
<polygon fill="midnightblue" stroke="midnightblue" points="1044.82,-184.569 1035.98,-190.411 1046.53,-191.356 1044.82,-184.569"/>
</g>
<!-- Node166 -->
<g id="node14" class="node"><title>Node166</title>
<g id="a_node14"><a xlink:href="../../d8/dd2/classimageblock.html#af3b91e3daaa8014af1239f60da6b0bf5" target="_top" xlink:title="imageblock::processing">
<polygon fill="white" stroke="black" points="1252,-152.5 1252,-171.5 1371,-171.5 1371,-152.5 1252,-152.5"/>
<text text-anchor="middle" x="1311.5" y="-159.5" font-family="Helvetica,sans-Serif" font-size="10.00">imageblock::processing</text>
</a>
</g>
</g>
<!-- Node165&#45;&gt;Node166 -->
<g id="edge16" class="edge"><title>Node165&#45;&gt;Node166</title>
<path fill="none" stroke="midnightblue" d="M1219.42,-162C1230.22,-162 1241.29,-162 1251.84,-162"/>
<polygon fill="midnightblue" stroke="midnightblue" points="1219.17,-158.5 1209.17,-162 1219.17,-165.5 1219.17,-158.5"/>
</g>
<!-- Node167 -->
<g id="node15" class="node"><title>Node167</title>
<g id="a_node15"><a xlink:href="../../d1/ded/classimage.html#ad5a9d767eca6f9bbb8dcb556527edf4d" target="_top" xlink:title="image::ProcessTiles">
<polygon fill="white" stroke="black" points="1427.5,-152.5 1427.5,-171.5 1533.5,-171.5 1533.5,-152.5 1427.5,-152.5"/>
<text text-anchor="middle" x="1480.5" y="-159.5" font-family="Helvetica,sans-Serif" font-size="10.00">image::ProcessTiles</text>
</a>
</g>
</g>
<!-- Node166&#45;&gt;Node167 -->
<g id="edge17" class="edge"><title>Node166&#45;&gt;Node167</title>
<path fill="none" stroke="midnightblue" d="M1381.78,-162C1396.99,-162 1412.86,-162 1427.27,-162"/>
<polygon fill="midnightblue" stroke="midnightblue" points="1381.38,-158.5 1371.38,-162 1381.38,-165.5 1381.38,-158.5"/>
</g>
<!-- Node167&#45;&gt;Node158 -->
<g id="edge18" class="edge"><title>Node167&#45;&gt;Node158</title>
<path fill="none" stroke="midnightblue" d="M1528.83,-174.112C1549.51,-179.404 1573.42,-185.521 1592.8,-190.48"/>
<polygon fill="midnightblue" stroke="midnightblue" points="1529.53,-170.677 1518.97,-171.589 1527.79,-177.459 1529.53,-170.677"/>
</g>
<!-- Node168&#45;&gt;Node169 -->
<g id="edge20" class="edge"><title>Node168&#45;&gt;Node169</title>
<path fill="none" stroke="midnightblue" d="M437.309,-264.176C460.783,-258.818 488.165,-252.569 510.287,-247.52"/>
<polygon fill="midnightblue" stroke="midnightblue" points="436.485,-260.774 427.515,-266.411 438.043,-267.598 436.485,-260.774"/>
</g>
<!-- Node168&#45;&gt;Node173 -->
<g id="edge26" class="edge"><title>Node168&#45;&gt;Node173</title>
<path fill="none" stroke="midnightblue" d="M457.25,-276C471.435,-276 486.074,-276 499.477,-276"/>
<polygon fill="midnightblue" stroke="midnightblue" points="457.025,-272.5 447.025,-276 457.025,-279.5 457.025,-272.5"/>
</g>
<!-- Node170 -->
<g id="node18" class="node"><title>Node170</title>
<g id="a_node18"><a xlink:href="../../d8/de9/class_edge_heap.html#ac36afe05c095a87767748b41dfa831a5" target="_top" xlink:title="EdgeHeap::remove">
<polygon fill="white" stroke="black" points="644,-228.5 644,-247.5 745,-247.5 745,-228.5 644,-228.5"/>
<text text-anchor="middle" x="694.5" y="-235.5" font-family="Helvetica,sans-Serif" font-size="10.00">EdgeHeap::remove</text>
</a>
</g>
</g>
<!-- Node169&#45;&gt;Node170 -->
<g id="edge21" class="edge"><title>Node169&#45;&gt;Node170</title>
<path fill="none" stroke="midnightblue" d="M618.535,-238C626.968,-238 635.502,-238 643.642,-238"/>
<polygon fill="midnightblue" stroke="midnightblue" points="618.334,-234.5 608.334,-238 618.334,-241.5 618.334,-234.5"/>
</g>
<!-- Node172 -->
<g id="node20" class="node"><title>Node172</title>
<g id="a_node20"><a xlink:href="../../d8/de9/class_edge_heap.html#a001dc48506130f599bddb241006d2920" target="_top" xlink:title="EdgeHeap::removeFront">
<polygon fill="white" stroke="black" points="781,-190.5 781,-209.5 904,-209.5 904,-190.5 781,-190.5"/>
<text text-anchor="middle" x="842.5" y="-197.5" font-family="Helvetica,sans-Serif" font-size="10.00">EdgeHeap::removeFront</text>
</a>
</g>
</g>
<!-- Node169&#45;&gt;Node172 -->
<g id="edge24" class="edge"><title>Node169&#45;&gt;Node172</title>
<path fill="none" stroke="midnightblue" d="M604.617,-226.275C617.416,-223.597 631.171,-220.965 644,-219 689.626,-212.012 741.6,-207.134 780.775,-204.071"/>
<polygon fill="midnightblue" stroke="midnightblue" points="603.639,-222.905 594.593,-228.421 605.104,-229.75 603.639,-222.905"/>
</g>
<!-- Node171 -->
<g id="node19" class="node"><title>Node171</title>
<g id="a_node19"><a xlink:href="../../d3/dd4/class_r_a_g.html#aa2de492a3df037db29b0e3ccab5251ee" target="_top" xlink:title="RAG::merge">
<polygon fill="white" stroke="black" points="807,-228.5 807,-247.5 878,-247.5 878,-228.5 807,-228.5"/>
<text text-anchor="middle" x="842.5" y="-235.5" font-family="Helvetica,sans-Serif" font-size="10.00">RAG::merge</text>
</a>
</g>
</g>
<!-- Node170&#45;&gt;Node171 -->
<g id="edge22" class="edge"><title>Node170&#45;&gt;Node171</title>
<path fill="none" stroke="midnightblue" d="M755.438,-238C772.849,-238 791.285,-238 806.608,-238"/>
<polygon fill="midnightblue" stroke="midnightblue" points="755.337,-234.5 745.337,-238 755.337,-241.5 755.337,-234.5"/>
</g>
<!-- Node171&#45;&gt;Node164 -->
<g id="edge23" class="edge"><title>Node171&#45;&gt;Node164</title>
<path fill="none" stroke="midnightblue" d="M887.934,-226.928C910.072,-221.412 936.569,-214.809 957.785,-209.522"/>
<polygon fill="midnightblue" stroke="midnightblue" points="886.962,-223.563 878.105,-229.377 888.654,-230.355 886.962,-223.563"/>
</g>
<!-- Node172&#45;&gt;Node164 -->
<g id="edge25" class="edge"><title>Node172&#45;&gt;Node164</title>
<path fill="none" stroke="midnightblue" d="M914.274,-200C924.408,-200 934.672,-200 944.344,-200"/>
<polygon fill="midnightblue" stroke="midnightblue" points="914.21,-196.5 904.21,-200 914.21,-203.5 914.21,-196.5"/>
</g>
<!-- Node174 -->
<g id="node22" class="node"><title>Node174</title>
<g id="a_node22"><a xlink:href="../../d8/de9/class_edge_heap.html#a7d8eaf4111da4c024feb5f2fb8d7cafa" target="_top" xlink:title="EdgeHeap::update">
<polygon fill="white" stroke="black" points="645.5,-266.5 645.5,-285.5 743.5,-285.5 743.5,-266.5 645.5,-266.5"/>
<text text-anchor="middle" x="694.5" y="-273.5" font-family="Helvetica,sans-Serif" font-size="10.00">EdgeHeap::update</text>
</a>
</g>
</g>
<!-- Node173&#45;&gt;Node174 -->
<g id="edge27" class="edge"><title>Node173&#45;&gt;Node174</title>
<path fill="none" stroke="midnightblue" d="M616.957,-276C626.466,-276 636.145,-276 645.278,-276"/>
<polygon fill="midnightblue" stroke="midnightblue" points="616.739,-272.5 606.739,-276 616.739,-279.5 616.739,-272.5"/>
</g>
<!-- Node174&#45;&gt;Node171 -->
<g id="edge28" class="edge"><title>Node174&#45;&gt;Node171</title>
<path fill="none" stroke="midnightblue" d="M742.302,-263.819C763.205,-258.378 787.412,-252.078 806.68,-247.063"/>
<polygon fill="midnightblue" stroke="midnightblue" points="741.138,-260.505 732.342,-266.411 742.901,-267.279 741.138,-260.505"/>
</g>
<!-- Node175&#45;&gt;Node169 -->
<g id="edge31" class="edge"><title>Node175&#45;&gt;Node169</title>
<path fill="none" stroke="midnightblue" d="M451.842,-238C467.14,-238 483.233,-238 497.936,-238"/>
<polygon fill="midnightblue" stroke="midnightblue" points="451.405,-234.5 441.405,-238 451.405,-241.5 451.405,-234.5"/>
</g>
<!-- Node175&#45;&gt;Node173 -->
<g id="edge32" class="edge"><title>Node175&#45;&gt;Node173</title>
<path fill="none" stroke="midnightblue" d="M437.309,-249.824C460.783,-255.182 488.165,-261.431 510.287,-266.48"/>
<polygon fill="midnightblue" stroke="midnightblue" points="438.043,-246.402 427.515,-247.589 436.485,-253.226 438.043,-246.402"/>
</g>
<!-- Node176 -->
<g id="node24" class="node"><title>Node176</title>
<g id="a_node24"><a xlink:href="../../d8/de9/class_edge_heap.html#ab0a6cd317e3e6c92c0072d3211ecc24b" target="_top" xlink:title="EdgeHeap::insert">
<polygon fill="white" stroke="black" points="507,-190.5 507,-209.5 599,-209.5 599,-190.5 507,-190.5"/>
<text text-anchor="middle" x="553" y="-197.5" font-family="Helvetica,sans-Serif" font-size="10.00">EdgeHeap::insert</text>
</a>
</g>
</g>
<!-- Node175&#45;&gt;Node176 -->
<g id="edge30" class="edge"><title>Node175&#45;&gt;Node176</title>
<path fill="none" stroke="midnightblue" d="M437.309,-226.176C460.783,-220.818 488.165,-214.569 510.287,-209.52"/>
<polygon fill="midnightblue" stroke="midnightblue" points="436.485,-222.774 427.515,-228.411 438.043,-229.598 436.485,-222.774"/>
</g>
<!-- Node178&#45;&gt;Node154 -->
<g id="edge37" class="edge"><title>Node178&#45;&gt;Node154</title>
<path fill="none" stroke="midnightblue" d="M245.305,-312.407C277.443,-321.615 320.627,-333.987 350.114,-342.435"/>
<polygon fill="midnightblue" stroke="midnightblue" points="245.867,-308.927 235.29,-309.538 243.939,-315.657 245.867,-308.927"/>
</g>
<!-- Node179&#45;&gt;Node154 -->
<g id="edge39" class="edge"><title>Node179&#45;&gt;Node154</title>
<path fill="none" stroke="midnightblue" d="M233.715,-256.976C246.088,-263.288 259.928,-271.478 271,-281 290.95,-298.157 285.442,-312.914 307,-328 316.01,-334.305 326.744,-339.004 337.28,-342.488"/>
<polygon fill="midnightblue" stroke="midnightblue" points="235.131,-253.772 224.61,-252.524 232.056,-260.061 235.131,-253.772"/>
</g>
<!-- Node181 -->
<g id="node29" class="node"><title>Node181</title>
<g id="a_node29"><a xlink:href="../../d8/dd2/classimageblock.html#adbafde60f699582250656ddc2ebe82e2" target="_top" xlink:title="imageblock::saveToDisk">
<polygon fill="white" stroke="black" points="322,-76.5 322,-95.5 447,-95.5 447,-76.5 322,-76.5"/>
<text text-anchor="middle" x="384.5" y="-83.5" font-family="Helvetica,sans-Serif" font-size="10.00">imageblock::saveToDisk</text>
</a>
</g>
</g>
<!-- Node180&#45;&gt;Node181 -->
<g id="edge41" class="edge"><title>Node180&#45;&gt;Node181</title>
<path fill="none" stroke="midnightblue" d="M257.792,-59.681C283.531,-65.0699 313.699,-71.3861 338.029,-76.4799"/>
<polygon fill="midnightblue" stroke="midnightblue" points="258.305,-56.2126 247.8,-57.589 256.871,-63.064 258.305,-56.2126"/>
</g>
<!-- Node182 -->
<g id="node30" class="node"><title>Node182</title>
<g id="a_node30"><a xlink:href="../../d1/ded/classimage.html#aa04b765a3c2cc6860a22ebfbedbcd7fc" target="_top" xlink:title="image::saveToDisk">
<polygon fill="white" stroke="black" points="334,-38.5 334,-57.5 435,-57.5 435,-38.5 334,-38.5"/>
<text text-anchor="middle" x="384.5" y="-45.5" font-family="Helvetica,sans-Serif" font-size="10.00">image::saveToDisk</text>
</a>
</g>
</g>
<!-- Node180&#45;&gt;Node182 -->
<g id="edge43" class="edge"><title>Node180&#45;&gt;Node182</title>
<path fill="none" stroke="midnightblue" d="M281.5,-48C299.255,-48 317.593,-48 333.739,-48"/>
<polygon fill="midnightblue" stroke="midnightblue" points="281.135,-44.5001 271.135,-48 281.135,-51.5001 281.135,-44.5001"/>
</g>
<!-- Node183 -->
<g id="node31" class="node"><title>Node183</title>
<g id="a_node31"><a xlink:href="../../d9/da1/classio.html#af3def6eac9bbdd2a12de24104be3acd6" target="_top" xlink:title="io::writeBoarderNodeSetToCSV">
<polygon fill="white" stroke="black" points="307,-0.5 307,-19.5 462,-19.5 462,-0.5 307,-0.5"/>
<text text-anchor="middle" x="384.5" y="-7.5" font-family="Helvetica,sans-Serif" font-size="10.00">io::writeBoarderNodeSetToCSV</text>
</a>
</g>
</g>
<!-- Node180&#45;&gt;Node183 -->
<g id="edge44" class="edge"><title>Node180&#45;&gt;Node183</title>
<path fill="none" stroke="midnightblue" d="M257.792,-36.319C283.531,-30.9301 313.699,-24.6139 338.029,-19.5201"/>
<polygon fill="midnightblue" stroke="midnightblue" points="256.871,-32.936 247.8,-38.411 258.305,-39.7874 256.871,-32.936"/>
</g>
<!-- Node181&#45;&gt;Node166 -->
<g id="edge42" class="edge"><title>Node181&#45;&gt;Node166</title>
<path fill="none" stroke="midnightblue" d="M457.209,-92.9319C519.582,-98.3611 612.429,-105 693.5,-105 693.5,-105 693.5,-105 998,-105 1102.51,-105 1223.53,-136.233 1279.35,-152.459"/>
<polygon fill="midnightblue" stroke="midnightblue" points="457.351,-89.431 447.082,-92.0378 456.736,-96.4039 457.351,-89.431"/>
</g>
<!-- Node184&#45;&gt;Node181 -->
<g id="edge46" class="edge"><title>Node184&#45;&gt;Node181</title>
<path fill="none" stroke="midnightblue" d="M258.438,-149.27C262.814,-147.445 267.058,-145.366 271,-143 290.947,-131.028 286.903,-116.719 307,-105 313.62,-101.14 321.005,-98.0589 328.502,-95.6016"/>
<polygon fill="midnightblue" stroke="midnightblue" points="256.873,-146.117 248.713,-152.874 259.306,-152.681 256.873,-146.117"/>
</g>
<!-- Node184&#45;&gt;Node182 -->
<g id="edge47" class="edge"><title>Node184&#45;&gt;Node182</title>
<path fill="none" stroke="midnightblue" d="M257.853,-151.31C262.583,-149.048 267.057,-146.311 271,-143 299.621,-118.963 278.078,-90.6735 307,-67 314.73,-60.6725 324.273,-56.4087 333.965,-53.5461"/>
<polygon fill="midnightblue" stroke="midnightblue" points="256.463,-148.097 248.513,-155.101 259.095,-154.583 256.463,-148.097"/>
</g>
<!-- Node185&#45;&gt;Node181 -->
<g id="edge49" class="edge"><title>Node185&#45;&gt;Node181</title>
<path fill="none" stroke="midnightblue" d="M257.792,-112.319C283.531,-106.93 313.699,-100.614 338.029,-95.5201"/>
<polygon fill="midnightblue" stroke="midnightblue" points="256.871,-108.936 247.8,-114.411 258.305,-115.787 256.871,-108.936"/>
</g>
<!-- Node185&#45;&gt;Node182 -->
<g id="edge50" class="edge"><title>Node185&#45;&gt;Node182</title>
<path fill="none" stroke="midnightblue" d="M259.588,-110.783C263.558,-109.077 267.404,-107.158 271,-105 290.947,-93.0277 286.903,-78.7194 307,-67 315.157,-62.2434 324.474,-58.6706 333.734,-55.989"/>
<polygon fill="midnightblue" stroke="midnightblue" points="258.254,-107.546 250.165,-114.388 260.756,-114.084 258.254,-107.546"/>
</g>
<!-- Node186&#45;&gt;Node181 -->
<g id="edge52" class="edge"><title>Node186&#45;&gt;Node181</title>
<path fill="none" stroke="midnightblue" d="M264.16,-86C282.801,-86 303.236,-86 321.845,-86"/>
<polygon fill="midnightblue" stroke="midnightblue" points="264.011,-82.5001 254.011,-86 264.011,-89.5001 264.011,-82.5001"/>
</g>
<!-- Node186&#45;&gt;Node182 -->
<g id="edge53" class="edge"><title>Node186&#45;&gt;Node182</title>
<path fill="none" stroke="midnightblue" d="M257.792,-74.319C283.531,-68.9301 313.699,-62.6139 338.029,-57.5201"/>
<polygon fill="midnightblue" stroke="midnightblue" points="256.871,-70.936 247.8,-76.411 258.305,-77.7874 256.871,-70.936"/>
</g>
</g>
</svg>
        <g id="navigator" transform="translate(0 0)" fill="#404254">
                <rect fill="#f2f5e9" fill-opacity="0.5" stroke="#606060" stroke-width=".5" x="0" y="0" width="60" height="60"/>
                <use id="zoomplus" xlink:href="#zoomPlus" x="17" y="9" onmousedown="handleZoom(evt,'in')"/>
                <use id="zoomminus" xlink:href="#zoomMin" x="42" y="9" onmousedown="handleZoom(evt,'out')"/>
                <use id="reset" xlink:href="#resetDef" x="30" y="36" onmousedown="handleReset()"/>
                <g id="arrowUp" xlink:href="#dirArrow" transform="translate(30 24)" onmousedown="handlePan(0,-1)">
                  <use xlink:href="#rim" fill="#404040">
                        <set attributeName="fill" to="#808080" begin="arrowUp.mouseover" end="arrowUp.mouseout"/>
                  </use>
                  <path fill="none" stroke="white" stroke-width="1.5" d="M0,-3.0v7 M-2.5,-0.5L0,-3.0L2.5,-0.5"/>
                </g>
                <g id="arrowRight" xlink:href="#dirArrow" transform="rotate(90) translate(36 -43)" onmousedown="handlePan(1,0)">
                  <use xlink:href="#rim" fill="#404040">
                        <set attributeName="fill" to="#808080" begin="arrowRight.mouseover" end="arrowRight.mouseout"/>
                  </use>
                  <path fill="none" stroke="white" stroke-width="1.5" d="M0,-3.0v7 M-2.5,-0.5L0,-3.0L2.5,-0.5"/>
                </g>
                <g id="arrowDown" xlink:href="#dirArrow" transform="rotate(180) translate(-30 -48)" onmousedown="handlePan(0,1)">
                  <use xlink:href="#rim" fill="#404040">
                        <set attributeName="fill" to="#808080" begin="arrowDown.mouseover" end="arrowDown.mouseout"/>
                  </use>
                  <path fill="none" stroke="white" stroke-width="1.5" d="M0,-3.0v7 M-2.5,-0.5L0,-3.0L2.5,-0.5"/>
                </g>
                <g id="arrowLeft" xlink:href="#dirArrow" transform="rotate(270) translate(-36 17)" onmousedown="handlePan(-1,0)">
                  <use xlink:href="#rim" fill="#404040">
                        <set attributeName="fill" to="#808080" begin="arrowLeft.mouseover" end="arrowLeft.mouseout"/>
                  </use>
                  <path fill="none" stroke="white" stroke-width="1.5" d="M0,-3.0v7 M-2.5,-0.5L0,-3.0L2.5,-0.5"/>
                </g>
        </g>
        <svg viewBox="0 0 15 15" width="100%" height="30px" preserveAspectRatio="xMaxYMin meet">
         <g id="arrow_out" transform="scale(0.3 0.3)">
          <a xlink:href="class_node_aa3512938403662345b64049920d1cdaf_icgraph_org.svg" target="_base">
           <rect id="button" ry="5" rx="5" y="6" x="6" height="38" width="38"
                fill="#f2f5e9" fill-opacity="0.5" stroke="#606060" stroke-width="1.0"/>
           <path id="arrow"
             d="M 11.500037,31.436501 C 11.940474,20.09759 22.043105,11.32322 32.158766,21.979434 L 37.068811,17.246167 C 37.068811,17.246167 37.088388,32 37.088388,32 L 22.160133,31.978069 C 22.160133,31.978069 26.997745,27.140456 26.997745,27.140456 C 18.528582,18.264221 13.291696,25.230495 11.500037,31.436501 z"
             style="fill:#404040;"/>
          </a>
         </g>
        </svg>
</svg>
