<?xml version="1.0" encoding="UTF-8" standalone="no"?>
<!DOCTYPE svg PUBLIC "-//W3C//DTD SVG 1.1//EN"
 "http://www.w3.org/Graphics/SVG/1.1/DTD/svg11.dtd">
<!-- Generated by graphviz version 2.38.0 (20140413.2041)
 -->
<!-- Title: Node::releaseTree Pages: 1 -->
<svg width="246pt" height="142pt"
 viewBox="0.00 0.00 246.00 142.00" xmlns="http://www.w3.org/2000/svg" xmlns:xlink="http://www.w3.org/1999/xlink">
<g id="graph0" class="graph" transform="scale(1 1) rotate(0) translate(4 138)">
<title>Node::releaseTree</title>
<polygon fill="white" stroke="none" points="-4,4 -4,-138 242,-138 242,4 -4,4"/>
<!-- Node270 -->
<g id="node1" class="node"><title>Node270</title>
<polygon fill="#bfbfbf" stroke="black" points="0,-57.5 0,-76.5 97,-76.5 97,-57.5 0,-57.5"/>
<text text-anchor="middle" x="48.5" y="-64.5" font-family="Helvetica,sans-Serif" font-size="10.00">Node::releaseTree</text>
</g>
<!-- Node270&#45;&gt;Node270 -->
<g id="edge5" class="edge"><title>Node270&#45;&gt;Node270</title>
<path fill="none" stroke="midnightblue" d="M27.5385,-76.7571C17.3409,-85.5653 24.3281,-95 48.5,-95 63.9851,-95 72.4176,-91.128 73.7975,-86.0292"/>
<polygon fill="midnightblue" stroke="midnightblue" points="76.8681,-84.3329 69.4615,-76.7571 70.5272,-87.2982 76.8681,-84.3329"/>
</g>
<!-- Node271 -->
<g id="node2" class="node"><title>Node271</title>
<g id="a_node2"><a xlink:href="../../dc/d8f/class_node.html#a498a3ea76df240287b5a91aeaec2be95" target="_top" xlink:title="Node::getLeftChild">
<polygon fill="white" stroke="black" points="136.5,-114.5 136.5,-133.5 234.5,-133.5 234.5,-114.5 136.5,-114.5"/>
<text text-anchor="middle" x="185.5" y="-121.5" font-family="Helvetica,sans-Serif" font-size="10.00">Node::getLeftChild</text>
</a>
</g>
</g>
<!-- Node270&#45;&gt;Node271 -->
<g id="edge1" class="edge"><title>Node270&#45;&gt;Node271</title>
<path fill="none" stroke="midnightblue" d="M69.5655,-76.6346C86.3672,-84.5802 111.053,-95.9719 133,-105 137.78,-106.966 142.846,-108.952 147.862,-110.861"/>
<polygon fill="midnightblue" stroke="midnightblue" points="146.767,-114.188 157.36,-114.412 149.219,-107.632 146.767,-114.188"/>
</g>
<!-- Node272 -->
<g id="node3" class="node"><title>Node272</title>
<g id="a_node3"><a xlink:href="../../dc/d8f/class_node.html#adcc7f26a2ccf3a8fcc387ed820624d99" target="_top" xlink:title="Node::getModel">
<polygon fill="white" stroke="black" points="142.5,-76.5 142.5,-95.5 228.5,-95.5 228.5,-76.5 142.5,-76.5"/>
<text text-anchor="middle" x="185.5" y="-83.5" font-family="Helvetica,sans-Serif" font-size="10.00">Node::getModel</text>
</a>
</g>
</g>
<!-- Node270&#45;&gt;Node272 -->
<g id="edge2" class="edge"><title>Node270&#45;&gt;Node272</title>
<path fill="none" stroke="midnightblue" d="M97.0959,-73.6987C108.486,-75.3018 120.707,-77.0218 132.294,-78.6524"/>
<polygon fill="midnightblue" stroke="midnightblue" points="131.885,-82.1294 142.275,-80.0573 132.861,-75.1977 131.885,-82.1294"/>
</g>
<!-- Node273 -->
<g id="node4" class="node"><title>Node273</title>
<g id="a_node4"><a xlink:href="../../dc/d8f/class_node.html#a531a8178f01a328bec4c4e8a3b93b67f" target="_top" xlink:title="Node::getRightChild">
<polygon fill="white" stroke="black" points="133,-38.5 133,-57.5 238,-57.5 238,-38.5 133,-38.5"/>
<text text-anchor="middle" x="185.5" y="-45.5" font-family="Helvetica,sans-Serif" font-size="10.00">Node::getRightChild</text>
</a>
</g>
</g>
<!-- Node270&#45;&gt;Node273 -->
<g id="edge3" class="edge"><title>Node270&#45;&gt;Node273</title>
<path fill="none" stroke="midnightblue" d="M97.0959,-60.3013C105.389,-59.1341 114.123,-57.9049 122.732,-56.6933"/>
<polygon fill="midnightblue" stroke="midnightblue" points="123.331,-60.1435 132.746,-55.2839 122.356,-53.2118 123.331,-60.1435"/>
</g>
<!-- Node274 -->
<g id="node5" class="node"><title>Node274</title>
<g id="a_node5"><a xlink:href="../../dc/d8f/class_node.html#a3a61dca67d5ad06cacb8c48eb6374973" target="_top" xlink:title="Node::isLeaf">
<polygon fill="white" stroke="black" points="149.5,-0.5 149.5,-19.5 221.5,-19.5 221.5,-0.5 149.5,-0.5"/>
<text text-anchor="middle" x="185.5" y="-7.5" font-family="Helvetica,sans-Serif" font-size="10.00">Node::isLeaf</text>
</a>
</g>
</g>
<!-- Node270&#45;&gt;Node274 -->
<g id="edge4" class="edge"><title>Node270&#45;&gt;Node274</title>
<path fill="none" stroke="midnightblue" d="M69.5655,-57.3654C86.3672,-49.4198 111.053,-38.0281 133,-29 137.78,-27.0337 142.846,-25.0478 147.862,-23.1389"/>
<polygon fill="midnightblue" stroke="midnightblue" points="149.219,-26.3685 157.36,-19.5881 146.767,-19.8118 149.219,-26.3685"/>
</g>
</g>
</svg>
