<?xml version="1.0" encoding="UTF-8" standalone="no"?>
<!DOCTYPE svg PUBLIC "-//W3C//DTD SVG 1.1//EN"
 "http://www.w3.org/Graphics/SVG/1.1/DTD/svg11.dtd">
<!-- Generated by graphviz version 2.38.0 (20140413.2041)
 -->
<!-- Title: Node::getProbability Pages: 1 -->
<!--zoomable 104 -->
<svg id="main" version="1.1" xmlns="http://www.w3.org/2000/svg" xmlns:xlink="http://www.w3.org/1999/xlink" xml:space="preserve" onload="init(evt)">
<style type="text/css"><![CDATA[
.edge:hover path { stroke: red; }
.edge:hover polygon { stroke: red; fill: red; }
]]></style>
<script type="text/javascript"><![CDATA[
var edges = document.getElementsByTagName('g');
if (edges && edges.length) {
  for (var i=0;i<edges.length;i++) {
    if (edges[i].id.substr(0,4)=='edge') {
      edges[i].setAttribute('class','edge');
    }
  }
}
]]></script>
        <defs>
                <circle id="rim" cx="0" cy="0" r="7"/>
                <circle id="rim2" cx="0" cy="0" r="3.5"/>
                <g id="zoomPlus">
                        <use xlink:href="#rim" fill="#404040">
                                <set attributeName="fill" to="#808080" begin="zoomplus.mouseover" end="zoomplus.mouseout"/>
                        </use>
                        <path d="M-4,0h8M0,-4v8" fill="none" stroke="white" stroke-width="1.5" pointer-events="none"/>
                </g>
                <g id="zoomMin">
                        <use xlink:href="#rim" fill="#404040">
                                <set attributeName="fill" to="#808080" begin="zoomminus.mouseover" end="zoomminus.mouseout"/>
                        </use>
                        <path d="M-4,0h8" fill="none" stroke="white" stroke-width="1.5" pointer-events="none"/>
                </g>
                <g id="dirArrow">
                        <path fill="none" stroke="white" stroke-width="1.5" d="M0,-3.0v7 M-2.5,-0.5L0,-3.0L2.5,-0.5"/>
                </g>
               <g id="resetDef">
                       <use xlink:href="#rim2" fill="#404040">
                               <set attributeName="fill" to="#808080" begin="reset.mouseover" end="reset.mouseout"/>
                       </use>
               </g>
        </defs>

<script type="text/javascript">
var viewWidth = 1088;
var viewHeight = 104;
var sectionId = 'dynsection-16';
</script>
<script xlink:href="../../svgpan.js"/>
<svg id="graph" class="graph">
<g id="viewport">
<title>Node::getProbability</title>
<polygon fill="white" stroke="none" points="-4,4 -4,-100 1084,-100 1084,4 -4,4"/>
<!-- Node189 -->
<g id="node1" class="node"><title>Node189</title>
<polygon fill="#bfbfbf" stroke="black" points="0,-38.5 0,-57.5 105,-57.5 105,-38.5 0,-38.5"/>
<text text-anchor="middle" x="52.5" y="-45.5" font-family="Helvetica,sans-Serif" font-size="10.00">Node::getProbability</text>
</g>
<!-- Node190 -->
<g id="node2" class="node"><title>Node190</title>
<g id="a_node2"><a xlink:href="../../d9/da1/classio.html#a4cca3fdf98e917cac1b3e776c7634aec" target="_top" xlink:title="io::writeBoarderNodeToCSV">
<polygon fill="white" stroke="black" points="141,-38.5 141,-57.5 281,-57.5 281,-38.5 141,-38.5"/>
<text text-anchor="middle" x="211" y="-45.5" font-family="Helvetica,sans-Serif" font-size="10.00">io::writeBoarderNodeToCSV</text>
</a>
</g>
</g>
<!-- Node189&#45;&gt;Node190 -->
<g id="edge1" class="edge"><title>Node189&#45;&gt;Node190</title>
<path fill="none" stroke="midnightblue" d="M115.247,-48C123.632,-48 132.282,-48 140.787,-48"/>
<polygon fill="midnightblue" stroke="midnightblue" points="115.178,-44.5001 105.178,-48 115.178,-51.5001 115.178,-44.5001"/>
</g>
<!-- Node191 -->
<g id="node3" class="node"><title>Node191</title>
<g id="a_node3"><a xlink:href="../../d8/dd2/classimageblock.html#adbafde60f699582250656ddc2ebe82e2" target="_top" xlink:title="imageblock::saveToDisk">
<polygon fill="white" stroke="black" points="332,-76.5 332,-95.5 457,-95.5 457,-76.5 332,-76.5"/>
<text text-anchor="middle" x="394.5" y="-83.5" font-family="Helvetica,sans-Serif" font-size="10.00">imageblock::saveToDisk</text>
</a>
</g>
</g>
<!-- Node190&#45;&gt;Node191 -->
<g id="edge2" class="edge"><title>Node190&#45;&gt;Node191</title>
<path fill="none" stroke="midnightblue" d="M267.792,-59.681C293.531,-65.0699 323.699,-71.3861 348.029,-76.4799"/>
<polygon fill="midnightblue" stroke="midnightblue" points="268.305,-56.2126 257.8,-57.589 266.871,-63.064 268.305,-56.2126"/>
</g>
<!-- Node196 -->
<g id="node8" class="node"><title>Node196</title>
<g id="a_node8"><a xlink:href="../../d1/ded/classimage.html#aa04b765a3c2cc6860a22ebfbedbcd7fc" target="_top" xlink:title="image::saveToDisk">
<polygon fill="white" stroke="black" points="344,-38.5 344,-57.5 445,-57.5 445,-38.5 344,-38.5"/>
<text text-anchor="middle" x="394.5" y="-45.5" font-family="Helvetica,sans-Serif" font-size="10.00">image::saveToDisk</text>
</a>
</g>
</g>
<!-- Node190&#45;&gt;Node196 -->
<g id="edge7" class="edge"><title>Node190&#45;&gt;Node196</title>
<path fill="none" stroke="midnightblue" d="M291.5,-48C309.255,-48 327.593,-48 343.739,-48"/>
<polygon fill="midnightblue" stroke="midnightblue" points="291.135,-44.5001 281.135,-48 291.135,-51.5001 291.135,-44.5001"/>
</g>
<!-- Node197 -->
<g id="node9" class="node"><title>Node197</title>
<g id="a_node9"><a xlink:href="../../d9/da1/classio.html#af3def6eac9bbdd2a12de24104be3acd6" target="_top" xlink:title="io::writeBoarderNodeSetToCSV">
<polygon fill="white" stroke="black" points="317,-0.5 317,-19.5 472,-19.5 472,-0.5 317,-0.5"/>
<text text-anchor="middle" x="394.5" y="-7.5" font-family="Helvetica,sans-Serif" font-size="10.00">io::writeBoarderNodeSetToCSV</text>
</a>
</g>
</g>
<!-- Node190&#45;&gt;Node197 -->
<g id="edge8" class="edge"><title>Node190&#45;&gt;Node197</title>
<path fill="none" stroke="midnightblue" d="M267.792,-36.319C293.531,-30.9301 323.699,-24.6139 348.029,-19.5201"/>
<polygon fill="midnightblue" stroke="midnightblue" points="266.871,-32.936 257.8,-38.411 268.305,-39.7874 266.871,-32.936"/>
</g>
<!-- Node192 -->
<g id="node4" class="node"><title>Node192</title>
<g id="a_node4"><a xlink:href="../../d8/dd2/classimageblock.html#af3b91e3daaa8014af1239f60da6b0bf5" target="_top" xlink:title="imageblock::processing">
<polygon fill="white" stroke="black" points="508,-76.5 508,-95.5 627,-95.5 627,-76.5 508,-76.5"/>
<text text-anchor="middle" x="567.5" y="-83.5" font-family="Helvetica,sans-Serif" font-size="10.00">imageblock::processing</text>
</a>
</g>
</g>
<!-- Node191&#45;&gt;Node192 -->
<g id="edge3" class="edge"><title>Node191&#45;&gt;Node192</title>
<path fill="none" stroke="midnightblue" d="M467.457,-86C480.972,-86 494.951,-86 507.995,-86"/>
<polygon fill="midnightblue" stroke="midnightblue" points="467.235,-82.5001 457.235,-86 467.235,-89.5001 467.235,-82.5001"/>
</g>
<!-- Node193 -->
<g id="node5" class="node"><title>Node193</title>
<g id="a_node5"><a xlink:href="../../d1/ded/classimage.html#ad5a9d767eca6f9bbb8dcb556527edf4d" target="_top" xlink:title="image::ProcessTiles">
<polygon fill="white" stroke="black" points="663,-76.5 663,-95.5 769,-95.5 769,-76.5 663,-76.5"/>
<text text-anchor="middle" x="716" y="-83.5" font-family="Helvetica,sans-Serif" font-size="10.00">image::ProcessTiles</text>
</a>
</g>
</g>
<!-- Node192&#45;&gt;Node193 -->
<g id="edge4" class="edge"><title>Node192&#45;&gt;Node193</title>
<path fill="none" stroke="midnightblue" d="M637.279,-86C645.884,-86 654.573,-86 662.866,-86"/>
<polygon fill="midnightblue" stroke="midnightblue" points="637.243,-82.5001 627.243,-86 637.243,-89.5001 637.243,-82.5001"/>
</g>
<!-- Node194 -->
<g id="node6" class="node"><title>Node194</title>
<g id="a_node6"><a xlink:href="../../d1/ded/classimage.html#a4689c56b85c46d48ea52f0c9fa13891e" target="_top" xlink:title="image::processing">
<polygon fill="white" stroke="black" points="805,-76.5 805,-95.5 901,-95.5 901,-76.5 805,-76.5"/>
<text text-anchor="middle" x="853" y="-83.5" font-family="Helvetica,sans-Serif" font-size="10.00">image::processing</text>
</a>
</g>
</g>
<!-- Node193&#45;&gt;Node194 -->
<g id="edge5" class="edge"><title>Node193&#45;&gt;Node194</title>
<path fill="none" stroke="midnightblue" d="M779.206,-86C787.809,-86 796.527,-86 804.797,-86"/>
<polygon fill="midnightblue" stroke="midnightblue" points="779.195,-82.5001 769.195,-86 779.194,-89.5001 779.195,-82.5001"/>
</g>
<!-- Node195 -->
<g id="node7" class="node"><title>Node195</title>
<g id="a_node7"><a xlink:href="../../d9/dc6/class_main_window.html#a9a45eb9ebe6d27bcd23677d9fbb74dd8" target="_top" xlink:title="MainWindow::on_Go_clicked">
<polygon fill="white" stroke="black" points="937,-76.5 937,-95.5 1080,-95.5 1080,-76.5 937,-76.5"/>
<text text-anchor="middle" x="1008.5" y="-83.5" font-family="Helvetica,sans-Serif" font-size="10.00">MainWindow::on_Go_clicked</text>
</a>
</g>
</g>
<!-- Node194&#45;&gt;Node195 -->
<g id="edge6" class="edge"><title>Node194&#45;&gt;Node195</title>
<path fill="none" stroke="midnightblue" d="M911.583,-86C919.853,-86 928.441,-86 936.928,-86"/>
<polygon fill="midnightblue" stroke="midnightblue" points="911.308,-82.5001 901.308,-86 911.308,-89.5001 911.308,-82.5001"/>
</g>
</g>
</svg>
        <g id="navigator" transform="translate(0 0)" fill="#404254">
                <rect fill="#f2f5e9" fill-opacity="0.5" stroke="#606060" stroke-width=".5" x="0" y="0" width="60" height="60"/>
                <use id="zoomplus" xlink:href="#zoomPlus" x="17" y="9" onmousedown="handleZoom(evt,'in')"/>
                <use id="zoomminus" xlink:href="#zoomMin" x="42" y="9" onmousedown="handleZoom(evt,'out')"/>
                <use id="reset" xlink:href="#resetDef" x="30" y="36" onmousedown="handleReset()"/>
                <g id="arrowUp" xlink:href="#dirArrow" transform="translate(30 24)" onmousedown="handlePan(0,-1)">
                  <use xlink:href="#rim" fill="#404040">
                        <set attributeName="fill" to="#808080" begin="arrowUp.mouseover" end="arrowUp.mouseout"/>
                  </use>
                  <path fill="none" stroke="white" stroke-width="1.5" d="M0,-3.0v7 M-2.5,-0.5L0,-3.0L2.5,-0.5"/>
                </g>
                <g id="arrowRight" xlink:href="#dirArrow" transform="rotate(90) translate(36 -43)" onmousedown="handlePan(1,0)">
                  <use xlink:href="#rim" fill="#404040">
                        <set attributeName="fill" to="#808080" begin="arrowRight.mouseover" end="arrowRight.mouseout"/>
                  </use>
                  <path fill="none" stroke="white" stroke-width="1.5" d="M0,-3.0v7 M-2.5,-0.5L0,-3.0L2.5,-0.5"/>
                </g>
                <g id="arrowDown" xlink:href="#dirArrow" transform="rotate(180) translate(-30 -48)" onmousedown="handlePan(0,1)">
                  <use xlink:href="#rim" fill="#404040">
                        <set attributeName="fill" to="#808080" begin="arrowDown.mouseover" end="arrowDown.mouseout"/>
                  </use>
                  <path fill="none" stroke="white" stroke-width="1.5" d="M0,-3.0v7 M-2.5,-0.5L0,-3.0L2.5,-0.5"/>
                </g>
                <g id="arrowLeft" xlink:href="#dirArrow" transform="rotate(270) translate(-36 17)" onmousedown="handlePan(-1,0)">
                  <use xlink:href="#rim" fill="#404040">
                        <set attributeName="fill" to="#808080" begin="arrowLeft.mouseover" end="arrowLeft.mouseout"/>
                  </use>
                  <path fill="none" stroke="white" stroke-width="1.5" d="M0,-3.0v7 M-2.5,-0.5L0,-3.0L2.5,-0.5"/>
                </g>
        </g>
        <svg viewBox="0 0 15 15" width="100%" height="30px" preserveAspectRatio="xMaxYMin meet">
         <g id="arrow_out" transform="scale(0.3 0.3)">
          <a xlink:href="class_node_a6b9517162b03a8f98df4bc63890ca092_icgraph_org.svg" target="_base">
           <rect id="button" ry="5" rx="5" y="6" x="6" height="38" width="38"
                fill="#f2f5e9" fill-opacity="0.5" stroke="#606060" stroke-width="1.0"/>
           <path id="arrow"
             d="M 11.500037,31.436501 C 11.940474,20.09759 22.043105,11.32322 32.158766,21.979434 L 37.068811,17.246167 C 37.068811,17.246167 37.088388,32 37.088388,32 L 22.160133,31.978069 C 22.160133,31.978069 26.997745,27.140456 26.997745,27.140456 C 18.528582,18.264221 13.291696,25.230495 11.500037,31.436501 z"
             style="fill:#404040;"/>
          </a>
         </g>
        </svg>
</svg>
