<?xml version="1.0" encoding="UTF-8" standalone="no"?>
<!DOCTYPE svg PUBLIC "-//W3C//DTD SVG 1.1//EN"
 "http://www.w3.org/Graphics/SVG/1.1/DTD/svg11.dtd">
<!-- Generated by graphviz version 2.38.0 (20140413.2041)
 -->
<!-- Title: Node::getEdges Pages: 1 -->
<!--zoomable 104 -->
<svg id="main" version="1.1" xmlns="http://www.w3.org/2000/svg" xmlns:xlink="http://www.w3.org/1999/xlink" xml:space="preserve" onload="init(evt)">
<style type="text/css"><![CDATA[
.edge:hover path { stroke: red; }
.edge:hover polygon { stroke: red; fill: red; }
]]></style>
<script type="text/javascript"><![CDATA[
var edges = document.getElementsByTagName('g');
if (edges && edges.length) {
  for (var i=0;i<edges.length;i++) {
    if (edges[i].id.substr(0,4)=='edge') {
      edges[i].setAttribute('class','edge');
    }
  }
}
]]></script>
        <defs>
                <circle id="rim" cx="0" cy="0" r="7"/>
                <circle id="rim2" cx="0" cy="0" r="3.5"/>
                <g id="zoomPlus">
                        <use xlink:href="#rim" fill="#404040">
                                <set attributeName="fill" to="#808080" begin="zoomplus.mouseover" end="zoomplus.mouseout"/>
                        </use>
                        <path d="M-4,0h8M0,-4v8" fill="none" stroke="white" stroke-width="1.5" pointer-events="none"/>
                </g>
                <g id="zoomMin">
                        <use xlink:href="#rim" fill="#404040">
                                <set attributeName="fill" to="#808080" begin="zoomminus.mouseover" end="zoomminus.mouseout"/>
                        </use>
                        <path d="M-4,0h8" fill="none" stroke="white" stroke-width="1.5" pointer-events="none"/>
                </g>
                <g id="dirArrow">
                        <path fill="none" stroke="white" stroke-width="1.5" d="M0,-3.0v7 M-2.5,-0.5L0,-3.0L2.5,-0.5"/>
                </g>
               <g id="resetDef">
                       <use xlink:href="#rim2" fill="#404040">
                               <set attributeName="fill" to="#808080" begin="reset.mouseover" end="reset.mouseout"/>
                       </use>
               </g>
        </defs>

<script type="text/javascript">
var viewWidth = 1147;
var viewHeight = 104;
var sectionId = 'dynsection-7';
</script>
<script xlink:href="../../svgpan.js"/>
<svg id="graph" class="graph">
<g id="viewport">
<title>Node::getEdges</title>
<polygon fill="white" stroke="none" points="-4,4 -4,-100 1143,-100 1143,4 -4,4"/>
<!-- Node83 -->
<g id="node1" class="node"><title>Node83</title>
<polygon fill="#bfbfbf" stroke="black" points="0,-38.5 0,-57.5 87,-57.5 87,-38.5 0,-38.5"/>
<text text-anchor="middle" x="43.5" y="-45.5" font-family="Helvetica,sans-Serif" font-size="10.00">Node::getEdges</text>
</g>
<!-- Node84 -->
<g id="node2" class="node"><title>Node84</title>
<g id="a_node2"><a xlink:href="../../d3/dd4/class_r_a_g.html#aa2de492a3df037db29b0e3ccab5251ee" target="_top" xlink:title="RAG::merge">
<polygon fill="white" stroke="black" points="123,-38.5 123,-57.5 194,-57.5 194,-38.5 123,-38.5"/>
<text text-anchor="middle" x="158.5" y="-45.5" font-family="Helvetica,sans-Serif" font-size="10.00">RAG::merge</text>
</a>
</g>
</g>
<!-- Node83&#45;&gt;Node84 -->
<g id="edge1" class="edge"><title>Node83&#45;&gt;Node84</title>
<path fill="none" stroke="midnightblue" d="M97.2863,-48C105.948,-48 114.727,-48 122.804,-48"/>
<polygon fill="midnightblue" stroke="midnightblue" points="97.2205,-44.5001 87.2205,-48 97.2204,-51.5001 97.2205,-44.5001"/>
</g>
<!-- Node85 -->
<g id="node3" class="node"><title>Node85</title>
<g id="a_node3"><a xlink:href="../../d3/dd4/class_r_a_g.html#ab09eebb1b704d18b583d528e77f7604a" target="_top" xlink:title="RAG::regionMerging">
<polygon fill="white" stroke="black" points="230,-38.5 230,-57.5 335,-57.5 335,-38.5 230,-38.5"/>
<text text-anchor="middle" x="282.5" y="-45.5" font-family="Helvetica,sans-Serif" font-size="10.00">RAG::regionMerging</text>
</a>
</g>
</g>
<!-- Node84&#45;&gt;Node85 -->
<g id="edge2" class="edge"><title>Node84&#45;&gt;Node85</title>
<path fill="none" stroke="midnightblue" d="M204.379,-48C212.69,-48 221.43,-48 229.921,-48"/>
<polygon fill="midnightblue" stroke="midnightblue" points="204.134,-44.5001 194.134,-48 204.134,-51.5001 204.134,-44.5001"/>
</g>
<!-- Node86 -->
<g id="node4" class="node"><title>Node86</title>
<g id="a_node4"><a xlink:href="../../d1/ded/classimage.html#a12343719e8d96a4bda9c5bd6c035d52a" target="_top" xlink:title="image::mergeBlockX">
<polygon fill="white" stroke="black" points="377,-76.5 377,-95.5 484,-95.5 484,-76.5 377,-76.5"/>
<text text-anchor="middle" x="430.5" y="-83.5" font-family="Helvetica,sans-Serif" font-size="10.00">image::mergeBlockX</text>
</a>
</g>
</g>
<!-- Node85&#45;&gt;Node86 -->
<g id="edge3" class="edge"><title>Node85&#45;&gt;Node86</title>
<path fill="none" stroke="midnightblue" d="M330.036,-60.1121C350.37,-65.4044 373.871,-71.5213 392.923,-76.4799"/>
<polygon fill="midnightblue" stroke="midnightblue" points="330.901,-56.7207 320.342,-57.589 329.138,-63.4951 330.901,-56.7207"/>
</g>
<!-- Node90 -->
<g id="node8" class="node"><title>Node90</title>
<g id="a_node8"><a xlink:href="../../d1/ded/classimage.html#aa21fc5a07af7528869425e750090b3b8" target="_top" xlink:title="image::mergeBlockY">
<polygon fill="white" stroke="black" points="377,-38.5 377,-57.5 484,-57.5 484,-38.5 377,-38.5"/>
<text text-anchor="middle" x="430.5" y="-45.5" font-family="Helvetica,sans-Serif" font-size="10.00">image::mergeBlockY</text>
</a>
</g>
</g>
<!-- Node85&#45;&gt;Node90 -->
<g id="edge7" class="edge"><title>Node85&#45;&gt;Node90</title>
<path fill="none" stroke="midnightblue" d="M345.631,-48C356.008,-48 366.685,-48 376.797,-48"/>
<polygon fill="midnightblue" stroke="midnightblue" points="345.385,-44.5001 335.385,-48 345.385,-51.5001 345.385,-44.5001"/>
</g>
<!-- Node92 -->
<g id="node10" class="node"><title>Node92</title>
<g id="a_node10"><a xlink:href="../../d8/dd2/classimageblock.html#abcc69a8c00ad79067185c700463f8126" target="_top" xlink:title="imageblock::createBPT">
<polygon fill="white" stroke="black" points="371,-0.5 371,-19.5 490,-19.5 490,-0.5 371,-0.5"/>
<text text-anchor="middle" x="430.5" y="-7.5" font-family="Helvetica,sans-Serif" font-size="10.00">imageblock::createBPT</text>
</a>
</g>
</g>
<!-- Node85&#45;&gt;Node92 -->
<g id="edge10" class="edge"><title>Node85&#45;&gt;Node92</title>
<path fill="none" stroke="midnightblue" d="M330.036,-35.8879C350.37,-30.5956 373.871,-24.4787 392.923,-19.5201"/>
<polygon fill="midnightblue" stroke="midnightblue" points="329.138,-32.5049 320.342,-38.411 330.901,-39.2793 329.138,-32.5049"/>
</g>
<!-- Node87 -->
<g id="node5" class="node"><title>Node87</title>
<g id="a_node5"><a xlink:href="../../d1/ded/classimage.html#a83026280ad6cc713ec9489ff3bd9776e" target="_top" xlink:title="image::ProcessBoundaryX">
<polygon fill="white" stroke="black" points="695,-76.5 695,-95.5 828,-95.5 828,-76.5 695,-76.5"/>
<text text-anchor="middle" x="761.5" y="-83.5" font-family="Helvetica,sans-Serif" font-size="10.00">image::ProcessBoundaryX</text>
</a>
</g>
</g>
<!-- Node86&#45;&gt;Node87 -->
<g id="edge4" class="edge"><title>Node86&#45;&gt;Node87</title>
<path fill="none" stroke="midnightblue" d="M494.399,-86C551.829,-86 636.414,-86 694.728,-86"/>
<polygon fill="midnightblue" stroke="midnightblue" points="494.36,-82.5001 484.36,-86 494.36,-89.5001 494.36,-82.5001"/>
</g>
<!-- Node88 -->
<g id="node6" class="node"><title>Node88</title>
<g id="a_node6"><a xlink:href="../../d1/ded/classimage.html#a4689c56b85c46d48ea52f0c9fa13891e" target="_top" xlink:title="image::processing">
<polygon fill="white" stroke="black" points="864,-38.5 864,-57.5 960,-57.5 960,-38.5 864,-38.5"/>
<text text-anchor="middle" x="912" y="-45.5" font-family="Helvetica,sans-Serif" font-size="10.00">image::processing</text>
</a>
</g>
</g>
<!-- Node87&#45;&gt;Node88 -->
<g id="edge5" class="edge"><title>Node87&#45;&gt;Node88</title>
<path fill="none" stroke="midnightblue" d="M809.833,-73.8879C830.515,-68.5956 854.419,-62.4787 873.797,-57.5201"/>
<polygon fill="midnightblue" stroke="midnightblue" points="808.793,-70.5411 799.973,-76.411 810.528,-77.3226 808.793,-70.5411"/>
</g>
<!-- Node89 -->
<g id="node7" class="node"><title>Node89</title>
<g id="a_node7"><a xlink:href="../../d9/dc6/class_main_window.html#a9a45eb9ebe6d27bcd23677d9fbb74dd8" target="_top" xlink:title="MainWindow::on_Go_clicked">
<polygon fill="white" stroke="black" points="996,-38.5 996,-57.5 1139,-57.5 1139,-38.5 996,-38.5"/>
<text text-anchor="middle" x="1067.5" y="-45.5" font-family="Helvetica,sans-Serif" font-size="10.00">MainWindow::on_Go_clicked</text>
</a>
</g>
</g>
<!-- Node88&#45;&gt;Node89 -->
<g id="edge6" class="edge"><title>Node88&#45;&gt;Node89</title>
<path fill="none" stroke="midnightblue" d="M970.583,-48C978.853,-48 987.441,-48 995.928,-48"/>
<polygon fill="midnightblue" stroke="midnightblue" points="970.308,-44.5001 960.308,-48 970.308,-51.5001 970.308,-44.5001"/>
</g>
<!-- Node91 -->
<g id="node9" class="node"><title>Node91</title>
<g id="a_node9"><a xlink:href="../../d1/ded/classimage.html#adf6b8c126649c9a40387f12b5f5f07d5" target="_top" xlink:title="image::ProcessBoundaryY">
<polygon fill="white" stroke="black" points="526,-38.5 526,-57.5 659,-57.5 659,-38.5 526,-38.5"/>
<text text-anchor="middle" x="592.5" y="-45.5" font-family="Helvetica,sans-Serif" font-size="10.00">image::ProcessBoundaryY</text>
</a>
</g>
</g>
<!-- Node90&#45;&gt;Node91 -->
<g id="edge8" class="edge"><title>Node90&#45;&gt;Node91</title>
<path fill="none" stroke="midnightblue" d="M494.486,-48C504.798,-48 515.505,-48 525.879,-48"/>
<polygon fill="midnightblue" stroke="midnightblue" points="494.333,-44.5001 484.333,-48 494.333,-51.5001 494.333,-44.5001"/>
</g>
<!-- Node91&#45;&gt;Node88 -->
<g id="edge9" class="edge"><title>Node91&#45;&gt;Node88</title>
<path fill="none" stroke="midnightblue" d="M669.542,-48C729.982,-48 812.613,-48 863.853,-48"/>
<polygon fill="midnightblue" stroke="midnightblue" points="669.286,-44.5001 659.286,-48 669.286,-51.5001 669.286,-44.5001"/>
</g>
<!-- Node93 -->
<g id="node11" class="node"><title>Node93</title>
<g id="a_node11"><a xlink:href="../../d8/dd2/classimageblock.html#af3b91e3daaa8014af1239f60da6b0bf5" target="_top" xlink:title="imageblock::processing">
<polygon fill="white" stroke="black" points="533,-0.5 533,-19.5 652,-19.5 652,-0.5 533,-0.5"/>
<text text-anchor="middle" x="592.5" y="-7.5" font-family="Helvetica,sans-Serif" font-size="10.00">imageblock::processing</text>
</a>
</g>
</g>
<!-- Node92&#45;&gt;Node93 -->
<g id="edge11" class="edge"><title>Node92&#45;&gt;Node93</title>
<path fill="none" stroke="midnightblue" d="M500.415,-10C511.217,-10 522.294,-10 532.838,-10"/>
<polygon fill="midnightblue" stroke="midnightblue" points="500.17,-6.5001 490.17,-10 500.17,-13.5001 500.17,-6.5001"/>
</g>
<!-- Node94 -->
<g id="node12" class="node"><title>Node94</title>
<g id="a_node12"><a xlink:href="../../d1/ded/classimage.html#ad5a9d767eca6f9bbb8dcb556527edf4d" target="_top" xlink:title="image::ProcessTiles">
<polygon fill="white" stroke="black" points="708.5,-0.5 708.5,-19.5 814.5,-19.5 814.5,-0.5 708.5,-0.5"/>
<text text-anchor="middle" x="761.5" y="-7.5" font-family="Helvetica,sans-Serif" font-size="10.00">image::ProcessTiles</text>
</a>
</g>
</g>
<!-- Node93&#45;&gt;Node94 -->
<g id="edge12" class="edge"><title>Node93&#45;&gt;Node94</title>
<path fill="none" stroke="midnightblue" d="M662.781,-10C677.994,-10 693.857,-10 708.267,-10"/>
<polygon fill="midnightblue" stroke="midnightblue" points="662.378,-6.5001 652.378,-10 662.378,-13.5001 662.378,-6.5001"/>
</g>
<!-- Node94&#45;&gt;Node88 -->
<g id="edge13" class="edge"><title>Node94&#45;&gt;Node88</title>
<path fill="none" stroke="midnightblue" d="M809.833,-22.1121C830.515,-27.4044 854.419,-33.5213 873.797,-38.4799"/>
<polygon fill="midnightblue" stroke="midnightblue" points="810.528,-18.6774 799.973,-19.589 808.793,-25.4589 810.528,-18.6774"/>
</g>
</g>
</svg>
        <g id="navigator" transform="translate(0 0)" fill="#404254">
                <rect fill="#f2f5e9" fill-opacity="0.5" stroke="#606060" stroke-width=".5" x="0" y="0" width="60" height="60"/>
                <use id="zoomplus" xlink:href="#zoomPlus" x="17" y="9" onmousedown="handleZoom(evt,'in')"/>
                <use id="zoomminus" xlink:href="#zoomMin" x="42" y="9" onmousedown="handleZoom(evt,'out')"/>
                <use id="reset" xlink:href="#resetDef" x="30" y="36" onmousedown="handleReset()"/>
                <g id="arrowUp" xlink:href="#dirArrow" transform="translate(30 24)" onmousedown="handlePan(0,-1)">
                  <use xlink:href="#rim" fill="#404040">
                        <set attributeName="fill" to="#808080" begin="arrowUp.mouseover" end="arrowUp.mouseout"/>
                  </use>
                  <path fill="none" stroke="white" stroke-width="1.5" d="M0,-3.0v7 M-2.5,-0.5L0,-3.0L2.5,-0.5"/>
                </g>
                <g id="arrowRight" xlink:href="#dirArrow" transform="rotate(90) translate(36 -43)" onmousedown="handlePan(1,0)">
                  <use xlink:href="#rim" fill="#404040">
                        <set attributeName="fill" to="#808080" begin="arrowRight.mouseover" end="arrowRight.mouseout"/>
                  </use>
                  <path fill="none" stroke="white" stroke-width="1.5" d="M0,-3.0v7 M-2.5,-0.5L0,-3.0L2.5,-0.5"/>
                </g>
                <g id="arrowDown" xlink:href="#dirArrow" transform="rotate(180) translate(-30 -48)" onmousedown="handlePan(0,1)">
                  <use xlink:href="#rim" fill="#404040">
                        <set attributeName="fill" to="#808080" begin="arrowDown.mouseover" end="arrowDown.mouseout"/>
                  </use>
                  <path fill="none" stroke="white" stroke-width="1.5" d="M0,-3.0v7 M-2.5,-0.5L0,-3.0L2.5,-0.5"/>
                </g>
                <g id="arrowLeft" xlink:href="#dirArrow" transform="rotate(270) translate(-36 17)" onmousedown="handlePan(-1,0)">
                  <use xlink:href="#rim" fill="#404040">
                        <set attributeName="fill" to="#808080" begin="arrowLeft.mouseover" end="arrowLeft.mouseout"/>
                  </use>
                  <path fill="none" stroke="white" stroke-width="1.5" d="M0,-3.0v7 M-2.5,-0.5L0,-3.0L2.5,-0.5"/>
                </g>
        </g>
        <svg viewBox="0 0 15 15" width="100%" height="30px" preserveAspectRatio="xMaxYMin meet">
         <g id="arrow_out" transform="scale(0.3 0.3)">
          <a xlink:href="class_node_a6e506795cafa9ed120f236b58f32e3c5_icgraph_org.svg" target="_base">
           <rect id="button" ry="5" rx="5" y="6" x="6" height="38" width="38"
                fill="#f2f5e9" fill-opacity="0.5" stroke="#606060" stroke-width="1.0"/>
           <path id="arrow"
             d="M 11.500037,31.436501 C 11.940474,20.09759 22.043105,11.32322 32.158766,21.979434 L 37.068811,17.246167 C 37.068811,17.246167 37.088388,32 37.088388,32 L 22.160133,31.978069 C 22.160133,31.978069 26.997745,27.140456 26.997745,27.140456 C 18.528582,18.264221 13.291696,25.230495 11.500037,31.436501 z"
             style="fill:#404040;"/>
          </a>
         </g>
        </svg>
</svg>
