<?xml version="1.0" encoding="UTF-8" standalone="no"?>
<!DOCTYPE svg PUBLIC "-//W3C//DTD SVG 1.1//EN"
 "http://www.w3.org/Graphics/SVG/1.1/DTD/svg11.dtd">
<!-- Generated by graphviz version 2.38.0 (20140413.2041)
 -->
<!-- Title: Node::getParent Pages: 1 -->
<svg width="221pt" height="66pt"
 viewBox="0.00 0.00 221.00 66.00" xmlns="http://www.w3.org/2000/svg" xmlns:xlink="http://www.w3.org/1999/xlink">
<g id="graph0" class="graph" transform="scale(1 1) rotate(0) translate(4 62)">
<title>Node::getParent</title>
<polygon fill="white" stroke="none" points="-4,4 -4,-62 217,-62 217,4 -4,4"/>
<!-- Node149 -->
<g id="node1" class="node"><title>Node149</title>
<polygon fill="#bfbfbf" stroke="black" points="0,-19.5 0,-38.5 88,-38.5 88,-19.5 0,-19.5"/>
<text text-anchor="middle" x="44" y="-26.5" font-family="Helvetica,sans-Serif" font-size="10.00">Node::getParent</text>
</g>
<!-- Node150 -->
<g id="node2" class="node"><title>Node150</title>
<g id="a_node2"><a xlink:href="../../dc/d8f/class_node.html#a9538c5096b9fae8beb5a716d98c41959" target="_top" xlink:title="Node::getSibling">
<polygon fill="white" stroke="black" points="124,-38.5 124,-57.5 213,-57.5 213,-38.5 124,-38.5"/>
<text text-anchor="middle" x="168.5" y="-45.5" font-family="Helvetica,sans-Serif" font-size="10.00">Node::getSibling</text>
</a>
</g>
</g>
<!-- Node149&#45;&gt;Node150 -->
<g id="edge1" class="edge"><title>Node149&#45;&gt;Node150</title>
<path fill="none" stroke="midnightblue" d="M98.1359,-37.2415C106.729,-38.5744 115.54,-39.9409 123.874,-41.2336"/>
<polygon fill="midnightblue" stroke="midnightblue" points="98.6072,-33.7728 88.1889,-35.6987 97.5343,-40.6901 98.6072,-33.7728"/>
</g>
<!-- Node151 -->
<g id="node3" class="node"><title>Node151</title>
<g id="a_node3"><a xlink:href="../../dc/d8f/class_node.html#a3d70631d307502c74537e060399eef11" target="_top" xlink:title="Node::isChildOf">
<polygon fill="white" stroke="black" points="125.5,-0.5 125.5,-19.5 211.5,-19.5 211.5,-0.5 125.5,-0.5"/>
<text text-anchor="middle" x="168.5" y="-7.5" font-family="Helvetica,sans-Serif" font-size="10.00">Node::isChildOf</text>
</a>
</g>
</g>
<!-- Node149&#45;&gt;Node151 -->
<g id="edge2" class="edge"><title>Node149&#45;&gt;Node151</title>
<path fill="none" stroke="midnightblue" d="M98.2059,-20.7477C107.204,-19.352 116.439,-17.9197 125.113,-16.5743"/>
<polygon fill="midnightblue" stroke="midnightblue" points="97.5343,-17.3099 88.1889,-22.3013 98.6072,-24.2272 97.5343,-17.3099"/>
</g>
</g>
</svg>
