<?xml version="1.0" encoding="UTF-8" standalone="no"?>
<!DOCTYPE svg PUBLIC "-//W3C//DTD SVG 1.1//EN"
 "http://www.w3.org/Graphics/SVG/1.1/DTD/svg11.dtd">
<!-- Generated by graphviz version 2.38.0 (20140413.2041)
 -->
<!-- Title: Node::getModel Pages: 1 -->
<svg width="1188pt" height="232pt"
 viewBox="0.00 0.00 1188.00 232.28" xmlns="http://www.w3.org/2000/svg" xmlns:xlink="http://www.w3.org/1999/xlink">
<g id="graph0" class="graph" transform="scale(1 1) rotate(0) translate(4 228.278)">
<title>Node::getModel</title>
<polygon fill="white" stroke="none" points="-4,4 -4,-228.278 1184,-228.278 1184,4 -4,4"/>
<!-- Node130 -->
<g id="node1" class="node"><title>Node130</title>
<polygon fill="#bfbfbf" stroke="black" points="0,-95.5 0,-114.5 86,-114.5 86,-95.5 0,-95.5"/>
<text text-anchor="middle" x="43" y="-102.5" font-family="Helvetica,sans-Serif" font-size="10.00">Node::getModel</text>
</g>
<!-- Node131 -->
<g id="node2" class="node"><title>Node131</title>
<g id="a_node2"><a xlink:href="../../d9/db2/classinitializer.html#a3b9f79140d510e7aea1287bfe891e8b9" target="_top" xlink:title="initializer::addEdges">
<polygon fill="white" stroke="black" points="122,-161.5 122,-180.5 226,-180.5 226,-161.5 122,-161.5"/>
<text text-anchor="middle" x="174" y="-168.5" font-family="Helvetica,sans-Serif" font-size="10.00">initializer::addEdges</text>
</a>
</g>
</g>
<!-- Node130&#45;&gt;Node131 -->
<g id="edge1" class="edge"><title>Node130&#45;&gt;Node131</title>
<path fill="none" stroke="midnightblue" d="M71.7129,-119.179C96.6204,-131.922 132.523,-150.291 154.22,-161.391"/>
<polygon fill="midnightblue" stroke="midnightblue" points="73.2544,-116.036 62.7577,-114.597 70.066,-122.268 73.2544,-116.036"/>
</g>
<!-- Node139 -->
<g id="node10" class="node"><title>Node139</title>
<g id="a_node10"><a xlink:href="../../d9/da1/classio.html#a51779ac390d81e68077752ddf9ee2042" target="_top" xlink:title="io::bestSegmentation">
<polygon fill="white" stroke="black" points="264.5,-203.5 264.5,-222.5 373.5,-222.5 373.5,-203.5 264.5,-203.5"/>
<text text-anchor="middle" x="319" y="-210.5" font-family="Helvetica,sans-Serif" font-size="10.00">io::bestSegmentation</text>
</a>
</g>
</g>
<!-- Node130&#45;&gt;Node139 -->
<g id="edge10" class="edge"><title>Node130&#45;&gt;Node139</title>
<path fill="none" stroke="midnightblue" d="M55.0202,-123.297C68.2109,-143.388 92.287,-174.811 122,-190 166.234,-212.612 223.239,-216.988 264.357,-216.531"/>
<polygon fill="midnightblue" stroke="midnightblue" points="57.8955,-121.295 49.5931,-114.713 51.9789,-125.036 57.8955,-121.295"/>
</g>
<!-- Node142 -->
<g id="node13" class="node"><title>Node142</title>
<g id="a_node13"><a xlink:href="../../d9/db2/classinitializer.html#a900944d3d61eb5da03b64cd96e8dac8e" target="_top" xlink:title="initializer::connect">
<polygon fill="white" stroke="black" points="126.5,-38.5 126.5,-57.5 221.5,-57.5 221.5,-38.5 126.5,-38.5"/>
<text text-anchor="middle" x="174" y="-45.5" font-family="Helvetica,sans-Serif" font-size="10.00">initializer::connect</text>
</a>
</g>
</g>
<!-- Node130&#45;&gt;Node142 -->
<g id="edge16" class="edge"><title>Node130&#45;&gt;Node142</title>
<path fill="none" stroke="midnightblue" d="M71.478,-90.8068C86.2852,-83.3643 104.964,-74.3027 122,-67 129.642,-63.724 138.057,-60.4551 145.81,-57.5756"/>
<polygon fill="midnightblue" stroke="midnightblue" points="69.6987,-87.7847 62.3629,-95.4291 72.8647,-94.0279 69.6987,-87.7847"/>
</g>
<!-- Node143 -->
<g id="node14" class="node"><title>Node143</title>
<g id="a_node14"><a xlink:href="../../d3/dd4/class_r_a_g.html#aa2de492a3df037db29b0e3ccab5251ee" target="_top" xlink:title="RAG::merge">
<polygon fill="white" stroke="black" points="138.5,-76.5 138.5,-95.5 209.5,-95.5 209.5,-76.5 138.5,-76.5"/>
<text text-anchor="middle" x="174" y="-83.5" font-family="Helvetica,sans-Serif" font-size="10.00">RAG::merge</text>
</a>
</g>
</g>
<!-- Node130&#45;&gt;Node143 -->
<g id="edge17" class="edge"><title>Node130&#45;&gt;Node143</title>
<path fill="none" stroke="midnightblue" d="M96.367,-97.287C110.528,-95.2013 125.499,-92.9962 138.414,-91.094"/>
<polygon fill="midnightblue" stroke="midnightblue" points="95.6227,-93.8588 86.2394,-98.7787 96.6427,-100.784 95.6227,-93.8588"/>
</g>
<!-- Node146 -->
<g id="node17" class="node"><title>Node146</title>
<g id="a_node17"><a xlink:href="../../dc/d8f/class_node.html#af50efee265580e50a1a02087339b46b8" target="_top" xlink:title="Node::releaseNode">
<polygon fill="white" stroke="black" points="123.5,-0.5 123.5,-19.5 224.5,-19.5 224.5,-0.5 123.5,-0.5"/>
<text text-anchor="middle" x="174" y="-7.5" font-family="Helvetica,sans-Serif" font-size="10.00">Node::releaseNode</text>
</a>
</g>
</g>
<!-- Node130&#45;&gt;Node146 -->
<g id="edge23" class="edge"><title>Node130&#45;&gt;Node146</title>
<path fill="none" stroke="midnightblue" d="M58.337,-87.2667C72.8477,-70.311 96.6996,-45.0217 122,-29 127.827,-25.3098 134.478,-22.1792 141.009,-19.5891"/>
<polygon fill="midnightblue" stroke="midnightblue" points="55.3674,-85.3622 51.6422,-95.2806 60.7395,-89.8501 55.3674,-85.3622"/>
</g>
<!-- Node147 -->
<g id="node18" class="node"><title>Node147</title>
<g id="a_node18"><a xlink:href="../../dc/d8f/class_node.html#adaaa531eae8cc809934f80b09ad8224e" target="_top" xlink:title="Node::releaseTree">
<polygon fill="white" stroke="black" points="270.5,-109.5 270.5,-128.5 367.5,-128.5 367.5,-109.5 270.5,-109.5"/>
<text text-anchor="middle" x="319" y="-116.5" font-family="Helvetica,sans-Serif" font-size="10.00">Node::releaseTree</text>
</a>
</g>
</g>
<!-- Node130&#45;&gt;Node147 -->
<g id="edge24" class="edge"><title>Node130&#45;&gt;Node147</title>
<path fill="none" stroke="midnightblue" d="M96.2095,-107.668C146.385,-110.231 221.568,-114.073 270.208,-116.558"/>
<polygon fill="midnightblue" stroke="midnightblue" points="96.3776,-104.172 86.212,-107.157 96.0204,-111.163 96.3776,-104.172"/>
</g>
<!-- Node132 -->
<g id="node3" class="node"><title>Node132</title>
<g id="a_node3"><a xlink:href="../../d9/db2/classinitializer.html#aaa8cb78ad7655020875fa970001d899e" target="_top" xlink:title="initializer::initializeRag">
<polygon fill="white" stroke="black" points="262,-165.5 262,-184.5 376,-184.5 376,-165.5 262,-165.5"/>
<text text-anchor="middle" x="319" y="-172.5" font-family="Helvetica,sans-Serif" font-size="10.00">initializer::initializeRag</text>
</a>
</g>
</g>
<!-- Node131&#45;&gt;Node132 -->
<g id="edge2" class="edge"><title>Node131&#45;&gt;Node132</title>
<path fill="none" stroke="midnightblue" d="M236.39,-172.717C244.83,-172.953 253.463,-173.195 261.803,-173.428"/>
<polygon fill="midnightblue" stroke="midnightblue" points="236.316,-169.214 226.222,-172.433 236.121,-176.211 236.316,-169.214"/>
</g>
<!-- Node133 -->
<g id="node4" class="node"><title>Node133</title>
<g id="a_node4"><a xlink:href="../../d1/ded/classimage.html#a12343719e8d96a4bda9c5bd6c035d52a" target="_top" xlink:title="image::mergeBlockX">
<polygon fill="white" stroke="black" points="418,-165.5 418,-184.5 525,-184.5 525,-165.5 418,-165.5"/>
<text text-anchor="middle" x="471.5" y="-172.5" font-family="Helvetica,sans-Serif" font-size="10.00">image::mergeBlockX</text>
</a>
</g>
</g>
<!-- Node132&#45;&gt;Node133 -->
<g id="edge3" class="edge"><title>Node132&#45;&gt;Node133</title>
<path fill="none" stroke="midnightblue" d="M386.131,-175C396.763,-175 407.643,-175 417.902,-175"/>
<polygon fill="midnightblue" stroke="midnightblue" points="386.041,-171.5 376.041,-175 386.041,-178.5 386.041,-171.5"/>
</g>
<!-- Node137 -->
<g id="node8" class="node"><title>Node137</title>
<g id="a_node8"><a xlink:href="../../d1/ded/classimage.html#aa21fc5a07af7528869425e750090b3b8" target="_top" xlink:title="image::mergeBlockY">
<polygon fill="white" stroke="black" points="418,-127.5 418,-146.5 525,-146.5 525,-127.5 418,-127.5"/>
<text text-anchor="middle" x="471.5" y="-134.5" font-family="Helvetica,sans-Serif" font-size="10.00">image::mergeBlockY</text>
</a>
</g>
</g>
<!-- Node132&#45;&gt;Node137 -->
<g id="edge7" class="edge"><title>Node132&#45;&gt;Node137</title>
<path fill="none" stroke="midnightblue" d="M367.685,-162.96C388.71,-157.651 413.067,-151.501 432.796,-146.52"/>
<polygon fill="midnightblue" stroke="midnightblue" points="366.816,-159.569 357.978,-165.411 368.53,-166.356 366.816,-159.569"/>
</g>
<!-- Node134 -->
<g id="node5" class="node"><title>Node134</title>
<g id="a_node5"><a xlink:href="../../d1/ded/classimage.html#a83026280ad6cc713ec9489ff3bd9776e" target="_top" xlink:title="image::ProcessBoundaryX">
<polygon fill="white" stroke="black" points="736,-165.5 736,-184.5 869,-184.5 869,-165.5 736,-165.5"/>
<text text-anchor="middle" x="802.5" y="-172.5" font-family="Helvetica,sans-Serif" font-size="10.00">image::ProcessBoundaryX</text>
</a>
</g>
</g>
<!-- Node133&#45;&gt;Node134 -->
<g id="edge4" class="edge"><title>Node133&#45;&gt;Node134</title>
<path fill="none" stroke="midnightblue" d="M535.399,-175C592.829,-175 677.414,-175 735.728,-175"/>
<polygon fill="midnightblue" stroke="midnightblue" points="535.36,-171.5 525.36,-175 535.36,-178.5 535.36,-171.5"/>
</g>
<!-- Node135 -->
<g id="node6" class="node"><title>Node135</title>
<g id="a_node6"><a xlink:href="../../d1/ded/classimage.html#a4689c56b85c46d48ea52f0c9fa13891e" target="_top" xlink:title="image::processing">
<polygon fill="white" stroke="black" points="905,-127.5 905,-146.5 1001,-146.5 1001,-127.5 905,-127.5"/>
<text text-anchor="middle" x="953" y="-134.5" font-family="Helvetica,sans-Serif" font-size="10.00">image::processing</text>
</a>
</g>
</g>
<!-- Node134&#45;&gt;Node135 -->
<g id="edge5" class="edge"><title>Node134&#45;&gt;Node135</title>
<path fill="none" stroke="midnightblue" d="M850.833,-162.888C871.515,-157.596 895.419,-151.479 914.797,-146.52"/>
<polygon fill="midnightblue" stroke="midnightblue" points="849.793,-159.541 840.973,-165.411 851.528,-166.323 849.793,-159.541"/>
</g>
<!-- Node136 -->
<g id="node7" class="node"><title>Node136</title>
<g id="a_node7"><a xlink:href="../../d9/dc6/class_main_window.html#a9a45eb9ebe6d27bcd23677d9fbb74dd8" target="_top" xlink:title="MainWindow::on_Go_clicked">
<polygon fill="white" stroke="black" points="1037,-127.5 1037,-146.5 1180,-146.5 1180,-127.5 1037,-127.5"/>
<text text-anchor="middle" x="1108.5" y="-134.5" font-family="Helvetica,sans-Serif" font-size="10.00">MainWindow::on_Go_clicked</text>
</a>
</g>
</g>
<!-- Node135&#45;&gt;Node136 -->
<g id="edge6" class="edge"><title>Node135&#45;&gt;Node136</title>
<path fill="none" stroke="midnightblue" d="M1011.58,-137C1019.85,-137 1028.44,-137 1036.93,-137"/>
<polygon fill="midnightblue" stroke="midnightblue" points="1011.31,-133.5 1001.31,-137 1011.31,-140.5 1011.31,-133.5"/>
</g>
<!-- Node138 -->
<g id="node9" class="node"><title>Node138</title>
<g id="a_node9"><a xlink:href="../../d1/ded/classimage.html#adf6b8c126649c9a40387f12b5f5f07d5" target="_top" xlink:title="image::ProcessBoundaryY">
<polygon fill="white" stroke="black" points="567,-127.5 567,-146.5 700,-146.5 700,-127.5 567,-127.5"/>
<text text-anchor="middle" x="633.5" y="-134.5" font-family="Helvetica,sans-Serif" font-size="10.00">image::ProcessBoundaryY</text>
</a>
</g>
</g>
<!-- Node137&#45;&gt;Node138 -->
<g id="edge8" class="edge"><title>Node137&#45;&gt;Node138</title>
<path fill="none" stroke="midnightblue" d="M535.486,-137C545.798,-137 556.505,-137 566.879,-137"/>
<polygon fill="midnightblue" stroke="midnightblue" points="535.333,-133.5 525.333,-137 535.333,-140.5 535.333,-133.5"/>
</g>
<!-- Node138&#45;&gt;Node135 -->
<g id="edge9" class="edge"><title>Node138&#45;&gt;Node135</title>
<path fill="none" stroke="midnightblue" d="M710.542,-137C770.982,-137 853.613,-137 904.853,-137"/>
<polygon fill="midnightblue" stroke="midnightblue" points="710.286,-133.5 700.286,-137 710.286,-140.5 710.286,-133.5"/>
</g>
<!-- Node139&#45;&gt;Node133 -->
<g id="edge11" class="edge"><title>Node139&#45;&gt;Node133</title>
<path fill="none" stroke="midnightblue" d="M367.685,-200.96C388.71,-195.651 413.067,-189.501 432.796,-184.52"/>
<polygon fill="midnightblue" stroke="midnightblue" points="366.816,-197.569 357.978,-203.411 368.53,-204.356 366.816,-197.569"/>
</g>
<!-- Node139&#45;&gt;Node137 -->
<g id="edge12" class="edge"><title>Node139&#45;&gt;Node137</title>
<path fill="none" stroke="midnightblue" d="M366.058,-199.456C369.52,-197.815 372.877,-196.001 376,-194 395.589,-181.45 392.329,-168.421 412,-156 418.049,-152.18 424.939,-149.058 431.816,-146.531"/>
<polygon fill="midnightblue" stroke="midnightblue" points="364.579,-196.281 356.735,-203.402 367.308,-202.727 364.579,-196.281"/>
</g>
<!-- Node140 -->
<g id="node11" class="node"><title>Node140</title>
<g id="a_node11"><a xlink:href="../../d8/dd2/classimageblock.html#af3b91e3daaa8014af1239f60da6b0bf5" target="_top" xlink:title="imageblock::processing">
<polygon fill="white" stroke="black" points="574,-89.5 574,-108.5 693,-108.5 693,-89.5 574,-89.5"/>
<text text-anchor="middle" x="633.5" y="-96.5" font-family="Helvetica,sans-Serif" font-size="10.00">imageblock::processing</text>
</a>
</g>
</g>
<!-- Node139&#45;&gt;Node140 -->
<g id="edge13" class="edge"><title>Node139&#45;&gt;Node140</title>
<path fill="none" stroke="midnightblue" d="M384.164,-222.938C429.157,-226.404 488.602,-223.577 531,-194 561.654,-172.616 538.543,-142.231 567,-118 571.598,-114.085 576.963,-110.976 582.608,-108.507"/>
<polygon fill="midnightblue" stroke="midnightblue" points="384.199,-219.428 373.927,-222.024 383.576,-226.4 384.199,-219.428"/>
</g>
<!-- Node141 -->
<g id="node12" class="node"><title>Node141</title>
<g id="a_node12"><a xlink:href="../../d1/ded/classimage.html#ad5a9d767eca6f9bbb8dcb556527edf4d" target="_top" xlink:title="image::ProcessTiles">
<polygon fill="white" stroke="black" points="749.5,-89.5 749.5,-108.5 855.5,-108.5 855.5,-89.5 749.5,-89.5"/>
<text text-anchor="middle" x="802.5" y="-96.5" font-family="Helvetica,sans-Serif" font-size="10.00">image::ProcessTiles</text>
</a>
</g>
</g>
<!-- Node140&#45;&gt;Node141 -->
<g id="edge14" class="edge"><title>Node140&#45;&gt;Node141</title>
<path fill="none" stroke="midnightblue" d="M703.781,-99C718.994,-99 734.857,-99 749.267,-99"/>
<polygon fill="midnightblue" stroke="midnightblue" points="703.378,-95.5001 693.378,-99 703.378,-102.5 703.378,-95.5001"/>
</g>
<!-- Node141&#45;&gt;Node135 -->
<g id="edge15" class="edge"><title>Node141&#45;&gt;Node135</title>
<path fill="none" stroke="midnightblue" d="M850.833,-111.112C871.515,-116.404 895.419,-122.521 914.797,-127.48"/>
<polygon fill="midnightblue" stroke="midnightblue" points="851.528,-107.677 840.973,-108.589 849.793,-114.459 851.528,-107.677"/>
</g>
<!-- Node144 -->
<g id="node15" class="node"><title>Node144</title>
<g id="a_node15"><a xlink:href="../../d3/dd4/class_r_a_g.html#ab09eebb1b704d18b583d528e77f7604a" target="_top" xlink:title="RAG::regionMerging">
<polygon fill="white" stroke="black" points="266.5,-71.5 266.5,-90.5 371.5,-90.5 371.5,-71.5 266.5,-71.5"/>
<text text-anchor="middle" x="319" y="-78.5" font-family="Helvetica,sans-Serif" font-size="10.00">RAG::regionMerging</text>
</a>
</g>
</g>
<!-- Node143&#45;&gt;Node144 -->
<g id="edge18" class="edge"><title>Node143&#45;&gt;Node144</title>
<path fill="none" stroke="midnightblue" d="M219.99,-84.4269C234.72,-83.9119 251.2,-83.3357 266.38,-82.8049"/>
<polygon fill="midnightblue" stroke="midnightblue" points="219.488,-80.9422 209.616,-84.7896 219.733,-87.938 219.488,-80.9422"/>
</g>
<!-- Node144&#45;&gt;Node133 -->
<g id="edge19" class="edge"><title>Node144&#45;&gt;Node133</title>
<path fill="none" stroke="midnightblue" d="M368.584,-95.0631C371.192,-96.5518 373.687,-98.1925 376,-100 399.315,-118.218 388.567,-137.935 412,-156 416.99,-159.847 422.787,-162.929 428.754,-165.396"/>
<polygon fill="midnightblue" stroke="midnightblue" points="369.908,-91.8144 359.387,-90.566 366.833,-98.1029 369.908,-91.8144"/>
</g>
<!-- Node144&#45;&gt;Node137 -->
<g id="edge20" class="edge"><title>Node144&#45;&gt;Node137</title>
<path fill="none" stroke="midnightblue" d="M358.552,-93.8194C364.413,-95.8436 370.378,-97.9469 376,-100 400.328,-108.884 427.876,-119.766 446.925,-127.421"/>
<polygon fill="midnightblue" stroke="midnightblue" points="359.46,-90.4313 348.866,-90.5104 357.197,-97.0554 359.46,-90.4313"/>
</g>
<!-- Node145 -->
<g id="node16" class="node"><title>Node145</title>
<g id="a_node16"><a xlink:href="../../d8/dd2/classimageblock.html#abcc69a8c00ad79067185c700463f8126" target="_top" xlink:title="imageblock::createBPT">
<polygon fill="white" stroke="black" points="412,-51.5 412,-70.5 531,-70.5 531,-51.5 412,-51.5"/>
<text text-anchor="middle" x="471.5" y="-58.5" font-family="Helvetica,sans-Serif" font-size="10.00">imageblock::createBPT</text>
</a>
</g>
</g>
<!-- Node144&#45;&gt;Node145 -->
<g id="edge21" class="edge"><title>Node144&#45;&gt;Node145</title>
<path fill="none" stroke="midnightblue" d="M381.964,-72.7656C391.863,-71.4501 402.078,-70.0926 411.895,-68.788"/>
<polygon fill="midnightblue" stroke="midnightblue" points="381.245,-69.3302 371.794,-74.1171 382.168,-76.2692 381.245,-69.3302"/>
</g>
<!-- Node145&#45;&gt;Node140 -->
<g id="edge22" class="edge"><title>Node145&#45;&gt;Node140</title>
<path fill="none" stroke="midnightblue" d="M522.892,-72.968C545.313,-78.2931 571.347,-84.4762 592.416,-89.4799"/>
<polygon fill="midnightblue" stroke="midnightblue" points="523.413,-69.4945 512.875,-70.589 521.795,-76.3051 523.413,-69.4945"/>
</g>
<!-- Node147&#45;&gt;Node133 -->
<g id="edge25" class="edge"><title>Node147&#45;&gt;Node133</title>
<path fill="none" stroke="midnightblue" d="M351.779,-132.404C369.408,-139.682 391.792,-148.665 412,-156 420.933,-159.243 430.726,-162.527 439.701,-165.433"/>
<polygon fill="midnightblue" stroke="midnightblue" points="353.096,-129.161 342.519,-128.557 350.411,-135.626 353.096,-129.161"/>
</g>
<!-- Node147&#45;&gt;Node137 -->
<g id="edge26" class="edge"><title>Node147&#45;&gt;Node137</title>
<path fill="none" stroke="midnightblue" d="M377.591,-125.888C390.867,-127.476 404.92,-129.157 417.968,-130.717"/>
<polygon fill="midnightblue" stroke="midnightblue" points="377.964,-122.408 367.619,-124.695 377.133,-129.358 377.964,-122.408"/>
</g>
<!-- Node147&#45;&gt;Node140 -->
<g id="edge27" class="edge"><title>Node147&#45;&gt;Node140</title>
<path fill="none" stroke="midnightblue" d="M377.88,-115.296C433.68,-111.725 517.692,-106.348 573.775,-102.758"/>
<polygon fill="midnightblue" stroke="midnightblue" points="377.558,-111.809 367.802,-115.941 378.005,-118.795 377.558,-111.809"/>
</g>
<!-- Node147&#45;&gt;Node147 -->
<g id="edge28" class="edge"><title>Node147&#45;&gt;Node147</title>
<path fill="none" stroke="midnightblue" d="M292.121,-137.654C293.244,-142.937 302.204,-147 319,-147 344.594,-147 351.992,-137.565 341.195,-128.757"/>
<polygon fill="midnightblue" stroke="midnightblue" points="295.243,-139.236 296.805,-128.757 289.049,-135.975 295.243,-139.236"/>
</g>
</g>
</svg>
