<?xml version="1.0" encoding="UTF-8" standalone="no"?>
<!DOCTYPE svg PUBLIC "-//W3C//DTD SVG 1.1//EN"
 "http://www.w3.org/Graphics/SVG/1.1/DTD/svg11.dtd">
<!-- Generated by graphviz version 2.38.0 (20140413.2041)
 -->
<!-- Title: io::writeClassMap Pages: 1 -->
<svg width="244pt" height="142pt"
 viewBox="0.00 0.00 244.00 142.00" xmlns="http://www.w3.org/2000/svg" xmlns:xlink="http://www.w3.org/1999/xlink">
<g id="graph0" class="graph" transform="scale(1 1) rotate(0) translate(4 138)">
<title>io::writeClassMap</title>
<polygon fill="white" stroke="none" points="-4,4 -4,-138 240,-138 240,4 -4,4"/>
<!-- Node65 -->
<g id="node1" class="node"><title>Node65</title>
<polygon fill="#bfbfbf" stroke="black" points="0,-57.5 0,-76.5 95,-76.5 95,-57.5 0,-57.5"/>
<text text-anchor="middle" x="47.5" y="-64.5" font-family="Helvetica,sans-Serif" font-size="10.00">io::writeClassMap</text>
</g>
<!-- Node66 -->
<g id="node2" class="node"><title>Node66</title>
<g id="a_node2"><a xlink:href="../../dc/d8f/class_node.html#a498a3ea76df240287b5a91aeaec2be95" target="_top" xlink:title="Node::getLeftChild">
<polygon fill="white" stroke="black" points="134.5,-114.5 134.5,-133.5 232.5,-133.5 232.5,-114.5 134.5,-114.5"/>
<text text-anchor="middle" x="183.5" y="-121.5" font-family="Helvetica,sans-Serif" font-size="10.00">Node::getLeftChild</text>
</a>
</g>
</g>
<!-- Node65&#45;&gt;Node66 -->
<g id="edge1" class="edge"><title>Node65&#45;&gt;Node66</title>
<path fill="none" stroke="midnightblue" d="M68.3121,-76.6555C84.9048,-84.6136 109.291,-96.0119 131,-105 135.775,-106.977 140.839,-108.969 145.854,-110.881"/>
<polygon fill="midnightblue" stroke="midnightblue" points="144.758,-114.208 155.35,-114.435 147.211,-107.652 144.758,-114.208"/>
</g>
<!-- Node67 -->
<g id="node3" class="node"><title>Node67</title>
<g id="a_node3"><a xlink:href="../../dc/d8f/class_node.html#aa3512938403662345b64049920d1cdaf" target="_top" xlink:title="Node::getPosition">
<polygon fill="white" stroke="black" points="136,-76.5 136,-95.5 231,-95.5 231,-76.5 136,-76.5"/>
<text text-anchor="middle" x="183.5" y="-83.5" font-family="Helvetica,sans-Serif" font-size="10.00">Node::getPosition</text>
</a>
</g>
</g>
<!-- Node65&#45;&gt;Node67 -->
<g id="edge2" class="edge"><title>Node65&#45;&gt;Node67</title>
<path fill="none" stroke="midnightblue" d="M95.3667,-73.6453C105.216,-75.0418 115.705,-76.529 125.868,-77.97"/>
<polygon fill="midnightblue" stroke="midnightblue" points="125.494,-81.4519 135.886,-79.3906 126.476,-74.5213 125.494,-81.4519"/>
</g>
<!-- Node68 -->
<g id="node4" class="node"><title>Node68</title>
<g id="a_node4"><a xlink:href="../../dc/d8f/class_node.html#a531a8178f01a328bec4c4e8a3b93b67f" target="_top" xlink:title="Node::getRightChild">
<polygon fill="white" stroke="black" points="131,-38.5 131,-57.5 236,-57.5 236,-38.5 131,-38.5"/>
<text text-anchor="middle" x="183.5" y="-45.5" font-family="Helvetica,sans-Serif" font-size="10.00">Node::getRightChild</text>
</a>
</g>
</g>
<!-- Node65&#45;&gt;Node68 -->
<g id="edge3" class="edge"><title>Node65&#45;&gt;Node68</title>
<path fill="none" stroke="midnightblue" d="M95.3667,-60.3547C103.612,-59.1856 112.306,-57.9529 120.881,-56.737"/>
<polygon fill="midnightblue" stroke="midnightblue" points="121.45,-60.1914 130.86,-55.3221 120.467,-53.2607 121.45,-60.1914"/>
</g>
<!-- Node69 -->
<g id="node5" class="node"><title>Node69</title>
<g id="a_node5"><a xlink:href="../../dc/d8f/class_node.html#a3a61dca67d5ad06cacb8c48eb6374973" target="_top" xlink:title="Node::isLeaf">
<polygon fill="white" stroke="black" points="147.5,-0.5 147.5,-19.5 219.5,-19.5 219.5,-0.5 147.5,-0.5"/>
<text text-anchor="middle" x="183.5" y="-7.5" font-family="Helvetica,sans-Serif" font-size="10.00">Node::isLeaf</text>
</a>
</g>
</g>
<!-- Node65&#45;&gt;Node69 -->
<g id="edge4" class="edge"><title>Node65&#45;&gt;Node69</title>
<path fill="none" stroke="midnightblue" d="M68.3121,-57.3445C84.9048,-49.3864 109.291,-37.9881 131,-29 135.775,-27.0228 140.839,-25.0307 145.854,-23.1186"/>
<polygon fill="midnightblue" stroke="midnightblue" points="147.211,-26.3478 155.35,-19.5652 144.758,-19.7918 147.211,-26.3478"/>
</g>
</g>
</svg>
