<?xml version="1.0" encoding="UTF-8" standalone="no"?>
<!DOCTYPE svg PUBLIC "-//W3C//DTD SVG 1.1//EN"
 "http://www.w3.org/Graphics/SVG/1.1/DTD/svg11.dtd">
<!-- Generated by graphviz version 2.38.0 (20140413.2041)
 -->
<!-- Title: io::writeNodeToDisk Pages: 1 -->
<svg width="255pt" height="142pt"
 viewBox="0.00 0.00 255.00 142.00" xmlns="http://www.w3.org/2000/svg" xmlns:xlink="http://www.w3.org/1999/xlink">
<g id="graph0" class="graph" transform="scale(1 1) rotate(0) translate(4 138)">
<title>io::writeNodeToDisk</title>
<polygon fill="white" stroke="none" points="-4,4 -4,-138 251,-138 251,4 -4,4"/>
<!-- Node89 -->
<g id="node1" class="node"><title>Node89</title>
<polygon fill="#bfbfbf" stroke="black" points="0,-57.5 0,-76.5 106,-76.5 106,-57.5 0,-57.5"/>
<text text-anchor="middle" x="53" y="-64.5" font-family="Helvetica,sans-Serif" font-size="10.00">io::writeNodeToDisk</text>
</g>
<!-- Node90 -->
<g id="node2" class="node"><title>Node90</title>
<g id="a_node2"><a xlink:href="../../dc/d8f/class_node.html#a498a3ea76df240287b5a91aeaec2be95" target="_top" xlink:title="Node::getLeftChild">
<polygon fill="white" stroke="black" points="145.5,-114.5 145.5,-133.5 243.5,-133.5 243.5,-114.5 145.5,-114.5"/>
<text text-anchor="middle" x="194.5" y="-121.5" font-family="Helvetica,sans-Serif" font-size="10.00">Node::getLeftChild</text>
</a>
</g>
</g>
<!-- Node89&#45;&gt;Node90 -->
<g id="edge1" class="edge"><title>Node89&#45;&gt;Node90</title>
<path fill="none" stroke="midnightblue" d="M75.2034,-76.5395C92.9443,-84.4285 118.978,-95.7905 142,-105 146.853,-106.941 151.99,-108.923 157.067,-110.838"/>
<polygon fill="midnightblue" stroke="midnightblue" points="156.073,-114.203 166.665,-114.412 158.515,-107.643 156.073,-114.203"/>
</g>
<!-- Node91 -->
<g id="node3" class="node"><title>Node91</title>
<g id="a_node3"><a xlink:href="../../dc/d8f/class_node.html#aa3512938403662345b64049920d1cdaf" target="_top" xlink:title="Node::getPosition">
<polygon fill="white" stroke="black" points="147,-76.5 147,-95.5 242,-95.5 242,-76.5 147,-76.5"/>
<text text-anchor="middle" x="194.5" y="-83.5" font-family="Helvetica,sans-Serif" font-size="10.00">Node::getPosition</text>
</a>
</g>
</g>
<!-- Node89&#45;&gt;Node91 -->
<g id="edge2" class="edge"><title>Node89&#45;&gt;Node91</title>
<path fill="none" stroke="midnightblue" d="M106.342,-74.129C116.315,-75.4873 126.795,-76.9148 136.894,-78.2903"/>
<polygon fill="midnightblue" stroke="midnightblue" points="136.452,-81.7623 146.833,-79.644 137.397,-74.8264 136.452,-81.7623"/>
</g>
<!-- Node92 -->
<g id="node4" class="node"><title>Node92</title>
<g id="a_node4"><a xlink:href="../../dc/d8f/class_node.html#a531a8178f01a328bec4c4e8a3b93b67f" target="_top" xlink:title="Node::getRightChild">
<polygon fill="white" stroke="black" points="142,-38.5 142,-57.5 247,-57.5 247,-38.5 142,-38.5"/>
<text text-anchor="middle" x="194.5" y="-45.5" font-family="Helvetica,sans-Serif" font-size="10.00">Node::getRightChild</text>
</a>
</g>
</g>
<!-- Node89&#45;&gt;Node92 -->
<g id="edge3" class="edge"><title>Node89&#45;&gt;Node92</title>
<path fill="none" stroke="midnightblue" d="M106.342,-59.871C114.586,-58.7481 123.177,-57.578 131.613,-56.429"/>
<polygon fill="midnightblue" stroke="midnightblue" points="132.356,-59.8602 141.792,-55.0426 131.411,-52.9243 132.356,-59.8602"/>
</g>
<!-- Node93 -->
<g id="node5" class="node"><title>Node93</title>
<g id="a_node5"><a xlink:href="../../dc/d8f/class_node.html#a3a61dca67d5ad06cacb8c48eb6374973" target="_top" xlink:title="Node::isLeaf">
<polygon fill="white" stroke="black" points="158.5,-0.5 158.5,-19.5 230.5,-19.5 230.5,-0.5 158.5,-0.5"/>
<text text-anchor="middle" x="194.5" y="-7.5" font-family="Helvetica,sans-Serif" font-size="10.00">Node::isLeaf</text>
</a>
</g>
</g>
<!-- Node89&#45;&gt;Node93 -->
<g id="edge4" class="edge"><title>Node89&#45;&gt;Node93</title>
<path fill="none" stroke="midnightblue" d="M75.2034,-57.4605C92.9443,-49.5715 118.978,-38.2095 142,-29 146.853,-27.0587 151.99,-25.0772 157.067,-23.1618"/>
<polygon fill="midnightblue" stroke="midnightblue" points="158.515,-26.3573 166.665,-19.5877 156.073,-19.7973 158.515,-26.3573"/>
</g>
</g>
</svg>
