<?xml version="1.0" encoding="UTF-8" standalone="no"?>
<!DOCTYPE svg PUBLIC "-//W3C//DTD SVG 1.1//EN"
 "http://www.w3.org/Graphics/SVG/1.1/DTD/svg11.dtd">
<!-- Generated by graphviz version 2.38.0 (20140413.2041)
 -->
<!-- Title: io::bestSegmentation Pages: 1 -->
<svg width="263pt" height="180pt"
 viewBox="0.00 0.00 263.00 180.00" xmlns="http://www.w3.org/2000/svg" xmlns:xlink="http://www.w3.org/1999/xlink">
<g id="graph0" class="graph" transform="scale(1 1) rotate(0) translate(4 176)">
<title>io::bestSegmentation</title>
<polygon fill="white" stroke="none" points="-4,4 -4,-176 259,-176 259,4 -4,4"/>
<!-- Node2 -->
<g id="node1" class="node"><title>Node2</title>
<polygon fill="#bfbfbf" stroke="black" points="0,-76.5 0,-95.5 109,-95.5 109,-76.5 0,-76.5"/>
<text text-anchor="middle" x="54.5" y="-83.5" font-family="Helvetica,sans-Serif" font-size="10.00">io::bestSegmentation</text>
</g>
<!-- Node3 -->
<g id="node2" class="node"><title>Node3</title>
<g id="a_node2"><a xlink:href="../../dc/dd2/classregion_model.html#ab26eb4d56d4663e98c071266382d5e1c" target="_top" xlink:title="regionModel::cutCost">
<polygon fill="white" stroke="black" points="145,-152.5 145,-171.5 255,-171.5 255,-152.5 145,-152.5"/>
<text text-anchor="middle" x="200" y="-159.5" font-family="Helvetica,sans-Serif" font-size="10.00">regionModel::cutCost</text>
</a>
</g>
</g>
<!-- Node2&#45;&gt;Node3 -->
<g id="edge1" class="edge"><title>Node2&#45;&gt;Node3</title>
<path fill="none" stroke="midnightblue" d="M68.5858,-95.6939C85.5433,-107.93 116.341,-129.06 145,-143 149.298,-145.091 153.887,-147.066 158.506,-148.897"/>
<polygon fill="midnightblue" stroke="midnightblue" points="157.354,-152.202 167.946,-152.439 159.813,-145.649 157.354,-152.202"/>
</g>
<!-- Node4 -->
<g id="node3" class="node"><title>Node4</title>
<g id="a_node3"><a xlink:href="../../dc/d8f/class_node.html#a498a3ea76df240287b5a91aeaec2be95" target="_top" xlink:title="Node::getLeftChild">
<polygon fill="white" stroke="black" points="151,-114.5 151,-133.5 249,-133.5 249,-114.5 151,-114.5"/>
<text text-anchor="middle" x="200" y="-121.5" font-family="Helvetica,sans-Serif" font-size="10.00">Node::getLeftChild</text>
</a>
</g>
</g>
<!-- Node2&#45;&gt;Node4 -->
<g id="edge2" class="edge"><title>Node2&#45;&gt;Node4</title>
<path fill="none" stroke="midnightblue" d="M91.7111,-95.589C110.321,-100.517 133.197,-106.575 153.039,-111.829"/>
<polygon fill="midnightblue" stroke="midnightblue" points="152.238,-115.238 162.8,-114.414 154.03,-108.471 152.238,-115.238"/>
</g>
<!-- Node5 -->
<g id="node4" class="node"><title>Node5</title>
<g id="a_node4"><a xlink:href="../../dc/d8f/class_node.html#adcc7f26a2ccf3a8fcc387ed820624d99" target="_top" xlink:title="Node::getModel">
<polygon fill="white" stroke="black" points="157,-76.5 157,-95.5 243,-95.5 243,-76.5 157,-76.5"/>
<text text-anchor="middle" x="200" y="-83.5" font-family="Helvetica,sans-Serif" font-size="10.00">Node::getModel</text>
</a>
</g>
</g>
<!-- Node2&#45;&gt;Node5 -->
<g id="edge3" class="edge"><title>Node2&#45;&gt;Node5</title>
<path fill="none" stroke="midnightblue" d="M109.342,-86C121.644,-86 134.697,-86 146.923,-86"/>
<polygon fill="midnightblue" stroke="midnightblue" points="146.965,-89.5001 156.965,-86 146.965,-82.5001 146.965,-89.5001"/>
</g>
<!-- Node6 -->
<g id="node5" class="node"><title>Node6</title>
<g id="a_node5"><a xlink:href="../../dc/d8f/class_node.html#a531a8178f01a328bec4c4e8a3b93b67f" target="_top" xlink:title="Node::getRightChild">
<polygon fill="white" stroke="black" points="147.5,-38.5 147.5,-57.5 252.5,-57.5 252.5,-38.5 147.5,-38.5"/>
<text text-anchor="middle" x="200" y="-45.5" font-family="Helvetica,sans-Serif" font-size="10.00">Node::getRightChild</text>
</a>
</g>
</g>
<!-- Node2&#45;&gt;Node6 -->
<g id="edge4" class="edge"><title>Node2&#45;&gt;Node6</title>
<path fill="none" stroke="midnightblue" d="M91.7111,-76.411C110.321,-71.4831 133.197,-65.4251 153.039,-60.1709"/>
<polygon fill="midnightblue" stroke="midnightblue" points="154.03,-63.5292 162.8,-57.5859 152.238,-56.7625 154.03,-63.5292"/>
</g>
<!-- Node7 -->
<g id="node6" class="node"><title>Node7</title>
<g id="a_node6"><a xlink:href="../../dc/d8f/class_node.html#a3a61dca67d5ad06cacb8c48eb6374973" target="_top" xlink:title="Node::isLeaf">
<polygon fill="white" stroke="black" points="164,-0.5 164,-19.5 236,-19.5 236,-0.5 164,-0.5"/>
<text text-anchor="middle" x="200" y="-7.5" font-family="Helvetica,sans-Serif" font-size="10.00">Node::isLeaf</text>
</a>
</g>
</g>
<!-- Node2&#45;&gt;Node7 -->
<g id="edge5" class="edge"><title>Node2&#45;&gt;Node7</title>
<path fill="none" stroke="midnightblue" d="M68.5858,-76.3061C85.5433,-64.0699 116.341,-42.9399 145,-29 149.298,-26.9093 153.887,-24.9336 158.506,-23.1034"/>
<polygon fill="midnightblue" stroke="midnightblue" points="159.813,-26.3515 167.946,-19.561 157.354,-19.7978 159.813,-26.3515"/>
</g>
</g>
</svg>
