<?xml version="1.0" encoding="UTF-8" standalone="no"?>
<!DOCTYPE svg PUBLIC "-//W3C//DTD SVG 1.1//EN"
 "http://www.w3.org/Graphics/SVG/1.1/DTD/svg11.dtd">
<!-- Generated by graphviz version 2.38.0 (20140413.2041)
 -->
<!-- Title: histogrammodel.h Pages: 1 -->
<!--zoomable 196 -->
<svg id="main" version="1.1" xmlns="http://www.w3.org/2000/svg" xmlns:xlink="http://www.w3.org/1999/xlink" xml:space="preserve" onload="init(evt)">
<style type="text/css"><![CDATA[
.edge:hover path { stroke: red; }
.edge:hover polygon { stroke: red; fill: red; }
]]></style>
<script type="text/javascript"><![CDATA[
var edges = document.getElementsByTagName('g');
if (edges && edges.length) {
  for (var i=0;i<edges.length;i++) {
    if (edges[i].id.substr(0,4)=='edge') {
      edges[i].setAttribute('class','edge');
    }
  }
}
]]></script>
        <defs>
                <circle id="rim" cx="0" cy="0" r="7"/>
                <circle id="rim2" cx="0" cy="0" r="3.5"/>
                <g id="zoomPlus">
                        <use xlink:href="#rim" fill="#404040">
                                <set attributeName="fill" to="#808080" begin="zoomplus.mouseover" end="zoomplus.mouseout"/>
                        </use>
                        <path d="M-4,0h8M0,-4v8" fill="none" stroke="white" stroke-width="1.5" pointer-events="none"/>
                </g>
                <g id="zoomMin">
                        <use xlink:href="#rim" fill="#404040">
                                <set attributeName="fill" to="#808080" begin="zoomminus.mouseover" end="zoomminus.mouseout"/>
                        </use>
                        <path d="M-4,0h8" fill="none" stroke="white" stroke-width="1.5" pointer-events="none"/>
                </g>
                <g id="dirArrow">
                        <path fill="none" stroke="white" stroke-width="1.5" d="M0,-3.0v7 M-2.5,-0.5L0,-3.0L2.5,-0.5"/>
                </g>
               <g id="resetDef">
                       <use xlink:href="#rim2" fill="#404040">
                               <set attributeName="fill" to="#808080" begin="reset.mouseover" end="reset.mouseout"/>
                       </use>
               </g>
        </defs>

<script type="text/javascript">
var viewWidth = 725;
var viewHeight = 196;
var sectionId = 'dynsection-0';
</script>
<script xlink:href="../../svgpan.js"/>
<svg id="graph" class="graph">
<g id="viewport">
<title>histogrammodel.h</title>
<polygon fill="white" stroke="none" points="-4,4 -4,-192 720.512,-192 720.512,4 -4,4"/>
<!-- Node0 -->
<g id="node1" class="node"><title>Node0</title>
<polygon fill="#bfbfbf" stroke="black" points="357.512,-168.5 357.512,-187.5 451.512,-187.5 451.512,-168.5 357.512,-168.5"/>
<text text-anchor="middle" x="404.512" y="-175.5" font-family="Helvetica,sans-Serif" font-size="10.00">histogrammodel.h</text>
</g>
<!-- Node1 -->
<g id="node2" class="node"><title>Node1</title>
<g id="a_node2"><a xlink:href="../../d9/dcf/region_model_8h.html" target="_top" xlink:title="regionModel.h">
<polygon fill="white" stroke="black" points="14.0116,-56.5 14.0116,-75.5 91.0116,-75.5 91.0116,-56.5 14.0116,-56.5"/>
<text text-anchor="middle" x="52.5116" y="-63.5" font-family="Helvetica,sans-Serif" font-size="10.00">regionModel.h</text>
</a>
</g>
</g>
<!-- Node0&#45;&gt;Node1 -->
<g id="edge1" class="edge"><title>Node0&#45;&gt;Node1</title>
<path fill="none" stroke="midnightblue" d="M367.22,-168.464C331.785,-160.093 277.139,-146.505 230.512,-132 178.332,-115.768 118.928,-93.2349 83.6417,-79.4116"/>
<polygon fill="midnightblue" stroke="midnightblue" points="84.5144,-75.9937 73.9273,-75.587 81.95,-82.5071 84.5144,-75.9937"/>
</g>
<!-- Node2 -->
<g id="node3" class="node"><title>Node2</title>
<polygon fill="white" stroke="#bfbfbf" points="63.5116,-0.5 63.5116,-19.5 107.512,-19.5 107.512,-0.5 63.5116,-0.5"/>
<text text-anchor="middle" x="85.5116" y="-7.5" font-family="Helvetica,sans-Serif" font-size="10.00">vector</text>
</g>
<!-- Node0&#45;&gt;Node2 -->
<g id="edge17" class="edge"><title>Node0&#45;&gt;Node2</title>
<path fill="none" stroke="midnightblue" d="M357.465,-172.568C260.821,-162.351 45.5518,-133.494 4.51165,-76 -12.4291,-52.2673 24.3577,-32.5801 53.7515,-21.298"/>
<polygon fill="midnightblue" stroke="midnightblue" points="55.1511,-24.5132 63.3481,-17.8004 52.7541,-17.9363 55.1511,-24.5132"/>
</g>
<!-- Node3 -->
<g id="node4" class="node"><title>Node3</title>
<g id="a_node4"><a xlink:href="../../d1/d77/node_8h.html" target="_top" xlink:title="node.h">
<polygon fill="white" stroke="black" points="239.512,-112.5 239.512,-131.5 285.512,-131.5 285.512,-112.5 239.512,-112.5"/>
<text text-anchor="middle" x="262.512" y="-119.5" font-family="Helvetica,sans-Serif" font-size="10.00">node.h</text>
</a>
</g>
</g>
<!-- Node0&#45;&gt;Node3 -->
<g id="edge3" class="edge"><title>Node0&#45;&gt;Node3</title>
<path fill="none" stroke="midnightblue" d="M382.011,-168.444C358.434,-159.478 321.189,-145.314 294.548,-135.183"/>
<polygon fill="midnightblue" stroke="midnightblue" points="295.498,-131.8 284.907,-131.516 293.01,-138.342 295.498,-131.8"/>
</g>
<!-- Node9 -->
<g id="node10" class="node"><title>Node9</title>
<g id="a_node10"><a xlink:href="../../d7/dc5/statistics_8h.html" target="_top" xlink:title="statistics.h">
<polygon fill="white" stroke="black" points="504.012,-112.5 504.012,-131.5 569.012,-131.5 569.012,-112.5 504.012,-112.5"/>
<text text-anchor="middle" x="536.512" y="-119.5" font-family="Helvetica,sans-Serif" font-size="10.00">statistics.h</text>
</a>
</g>
</g>
<!-- Node0&#45;&gt;Node9 -->
<g id="edge11" class="edge"><title>Node0&#45;&gt;Node9</title>
<path fill="none" stroke="midnightblue" d="M425.427,-168.444C447.248,-159.517 481.661,-145.439 506.404,-135.317"/>
<polygon fill="midnightblue" stroke="midnightblue" points="507.763,-138.542 515.694,-131.516 505.113,-132.063 507.763,-138.542"/>
</g>
<!-- Node11 -->
<g id="node12" class="node"><title>Node11</title>
<polygon fill="white" stroke="#bfbfbf" points="662.512,-56.5 662.512,-75.5 716.512,-75.5 716.512,-56.5 662.512,-56.5"/>
<text text-anchor="middle" x="689.512" y="-63.5" font-family="Helvetica,sans-Serif" font-size="10.00">iostream</text>
</g>
<!-- Node0&#45;&gt;Node11 -->
<g id="edge16" class="edge"><title>Node0&#45;&gt;Node11</title>
<path fill="none" stroke="midnightblue" d="M451.145,-168.457C486.609,-161.111 536.181,-148.997 577.512,-132 595.367,-124.657 639.676,-97.9101 666.906,-81.1004"/>
<polygon fill="midnightblue" stroke="midnightblue" points="669.098,-83.8598 675.754,-75.6171 665.41,-77.9097 669.098,-83.8598"/>
</g>
<!-- Node13 -->
<g id="node14" class="node"><title>Node13</title>
<polygon fill="white" stroke="#bfbfbf" points="625.512,-112.5 625.512,-131.5 669.512,-131.5 669.512,-112.5 625.512,-112.5"/>
<text text-anchor="middle" x="647.512" y="-119.5" font-family="Helvetica,sans-Serif" font-size="10.00">omp.h</text>
</g>
<!-- Node0&#45;&gt;Node13 -->
<g id="edge18" class="edge"><title>Node0&#45;&gt;Node13</title>
<path fill="none" stroke="midnightblue" d="M445.443,-168.492C487.261,-159.708 554.033,-145.429 611.512,-132 612.782,-131.703 614.077,-131.397 615.384,-131.085"/>
<polygon fill="midnightblue" stroke="midnightblue" points="616.567,-134.399 625.453,-128.629 614.908,-127.598 616.567,-134.399"/>
</g>
<!-- Node1&#45;&gt;Node2 -->
<g id="edge2" class="edge"><title>Node1&#45;&gt;Node2</title>
<path fill="none" stroke="midnightblue" d="M57.9609,-56.083C62.5261,-48.6127 69.1801,-37.7244 74.8051,-28.5199"/>
<polygon fill="midnightblue" stroke="midnightblue" points="77.9357,-30.109 80.1638,-19.7511 71.9627,-26.4588 77.9357,-30.109"/>
</g>
<!-- Node3&#45;&gt;Node1 -->
<g id="edge9" class="edge"><title>Node3&#45;&gt;Node1</title>
<path fill="none" stroke="midnightblue" d="M239.236,-115.015C204.659,-106.124 139.142,-89.2763 95.6436,-78.0911"/>
<polygon fill="midnightblue" stroke="midnightblue" points="96.4612,-74.6875 85.9046,-75.5868 94.7179,-81.467 96.4612,-74.6875"/>
</g>
<!-- Node3&#45;&gt;Node2 -->
<g id="edge4" class="edge"><title>Node3&#45;&gt;Node2</title>
<path fill="none" stroke="midnightblue" d="M239.278,-116.494C212.963,-110.546 169.696,-98.1421 138.512,-76 120.592,-63.2763 105.379,-42.9606 95.9102,-28.4285"/>
<polygon fill="midnightblue" stroke="midnightblue" points="98.8165,-26.4747 90.5467,-19.8519 92.8815,-30.1863 98.8165,-26.4747"/>
</g>
<!-- Node4 -->
<g id="node5" class="node"><title>Node4</title>
<polygon fill="white" stroke="#bfbfbf" points="148.012,-56.5 148.012,-75.5 187.012,-75.5 187.012,-56.5 148.012,-56.5"/>
<text text-anchor="middle" x="167.512" y="-63.5" font-family="Helvetica,sans-Serif" font-size="10.00">QSet</text>
</g>
<!-- Node3&#45;&gt;Node4 -->
<g id="edge5" class="edge"><title>Node3&#45;&gt;Node4</title>
<path fill="none" stroke="midnightblue" d="M247.248,-112.324C232.29,-103.822 209.257,-90.7288 191.785,-80.7975"/>
<polygon fill="midnightblue" stroke="midnightblue" points="193.16,-77.5534 182.737,-75.6545 189.701,-83.639 193.16,-77.5534"/>
</g>
<!-- Node5 -->
<g id="node6" class="node"><title>Node5</title>
<polygon fill="white" stroke="#bfbfbf" points="205.012,-56.5 205.012,-75.5 248.012,-75.5 248.012,-56.5 205.012,-56.5"/>
<text text-anchor="middle" x="226.512" y="-63.5" font-family="Helvetica,sans-Serif" font-size="10.00">gdal.h</text>
</g>
<!-- Node3&#45;&gt;Node5 -->
<g id="edge6" class="edge"><title>Node3&#45;&gt;Node5</title>
<path fill="none" stroke="midnightblue" d="M256.567,-112.083C251.534,-104.534 244.175,-93.4948 237.998,-84.2298"/>
<polygon fill="midnightblue" stroke="midnightblue" points="240.805,-82.1301 232.346,-75.7511 234.981,-86.0131 240.805,-82.1301"/>
</g>
<!-- Node6 -->
<g id="node7" class="node"><title>Node6</title>
<polygon fill="white" stroke="#bfbfbf" points="266.512,-56.5 266.512,-75.5 330.512,-75.5 330.512,-56.5 266.512,-56.5"/>
<text text-anchor="middle" x="298.512" y="-63.5" font-family="Helvetica,sans-Serif" font-size="10.00">gdal_priv.h</text>
</g>
<!-- Node3&#45;&gt;Node6 -->
<g id="edge7" class="edge"><title>Node3&#45;&gt;Node6</title>
<path fill="none" stroke="midnightblue" d="M268.456,-112.083C273.489,-104.534 280.848,-93.4948 287.025,-84.2298"/>
<polygon fill="midnightblue" stroke="midnightblue" points="290.043,-86.0131 292.678,-75.7511 284.218,-82.1301 290.043,-86.0131"/>
</g>
<!-- Node7 -->
<g id="node8" class="node"><title>Node7</title>
<polygon fill="white" stroke="#bfbfbf" points="348.512,-56.5 348.512,-75.5 418.512,-75.5 418.512,-56.5 348.512,-56.5"/>
<text text-anchor="middle" x="383.512" y="-63.5" font-family="Helvetica,sans-Serif" font-size="10.00">opencv/cv.h</text>
</g>
<!-- Node3&#45;&gt;Node7 -->
<g id="edge8" class="edge"><title>Node3&#45;&gt;Node7</title>
<path fill="none" stroke="midnightblue" d="M281.684,-112.444C301.421,-103.636 332.397,-89.8116 355.005,-79.722"/>
<polygon fill="midnightblue" stroke="midnightblue" points="356.723,-82.788 364.429,-75.5164 353.87,-76.3957 356.723,-82.788"/>
</g>
<!-- Node8 -->
<g id="node9" class="node"><title>Node8</title>
<g id="a_node9"><a xlink:href="../../db/dc3/edge_8h.html" target="_top" xlink:title="edge.h">
<polygon fill="white" stroke="black" points="436.512,-56.5 436.512,-75.5 482.512,-75.5 482.512,-56.5 436.512,-56.5"/>
<text text-anchor="middle" x="459.512" y="-63.5" font-family="Helvetica,sans-Serif" font-size="10.00">edge.h</text>
</a>
</g>
</g>
<!-- Node3&#45;&gt;Node8 -->
<g id="edge10" class="edge"><title>Node3&#45;&gt;Node8</title>
<path fill="none" stroke="midnightblue" d="M285.754,-114.723C315.964,-106.552 370.603,-91.7266 426.7,-76.2096"/>
<polygon fill="midnightblue" stroke="midnightblue" points="427.742,-79.5527 436.446,-73.5108 425.874,-72.8065 427.742,-79.5527"/>
</g>
<!-- Node9&#45;&gt;Node2 -->
<g id="edge12" class="edge"><title>Node9&#45;&gt;Node2</title>
<path fill="none" stroke="midnightblue" d="M533.364,-112.476C527.553,-98.0771 513.672,-69.2181 491.512,-56 428.504,-18.4179 202.144,-12.1901 117.634,-11.1836"/>
<polygon fill="midnightblue" stroke="midnightblue" points="117.628,-7.68349 107.592,-11.0811 117.556,-14.6831 117.628,-7.68349"/>
</g>
<!-- Node10 -->
<g id="node11" class="node"><title>Node10</title>
<polygon fill="white" stroke="#bfbfbf" points="539.012,-56.5 539.012,-75.5 586.012,-75.5 586.012,-56.5 539.012,-56.5"/>
<text text-anchor="middle" x="562.512" y="-63.5" font-family="Helvetica,sans-Serif" font-size="10.00">math.h</text>
</g>
<!-- Node9&#45;&gt;Node10 -->
<g id="edge13" class="edge"><title>Node9&#45;&gt;Node10</title>
<path fill="none" stroke="midnightblue" d="M540.805,-112.083C544.364,-104.691 549.534,-93.9533 553.936,-84.8111"/>
<polygon fill="midnightblue" stroke="midnightblue" points="557.113,-86.2795 558.298,-75.7511 550.806,-83.2427 557.113,-86.2795"/>
</g>
<!-- Node9&#45;&gt;Node11 -->
<g id="edge14" class="edge"><title>Node9&#45;&gt;Node11</title>
<path fill="none" stroke="midnightblue" d="M560.755,-112.444C586.382,-103.399 626.997,-89.064 655.75,-78.9158"/>
<polygon fill="midnightblue" stroke="midnightblue" points="657.117,-82.1452 665.382,-75.5164 654.787,-75.5442 657.117,-82.1452"/>
</g>
<!-- Node12 -->
<g id="node13" class="node"><title>Node12</title>
<polygon fill="white" stroke="#bfbfbf" points="604.512,-56.5 604.512,-75.5 644.512,-75.5 644.512,-56.5 604.512,-56.5"/>
<text text-anchor="middle" x="624.512" y="-63.5" font-family="Helvetica,sans-Serif" font-size="10.00">limits</text>
</g>
<!-- Node9&#45;&gt;Node12 -->
<g id="edge15" class="edge"><title>Node9&#45;&gt;Node12</title>
<path fill="none" stroke="midnightblue" d="M550.65,-112.324C564.378,-103.9 585.448,-90.9709 601.576,-81.0741"/>
<polygon fill="midnightblue" stroke="midnightblue" points="603.715,-83.8678 610.408,-75.6545 600.054,-77.9016 603.715,-83.8678"/>
</g>
</g>
</svg>
        <g id="navigator" transform="translate(0 0)" fill="#404254">
                <rect fill="#f2f5e9" fill-opacity="0.5" stroke="#606060" stroke-width=".5" x="0" y="0" width="60" height="60"/>
                <use id="zoomplus" xlink:href="#zoomPlus" x="17" y="9" onmousedown="handleZoom(evt,'in')"/>
                <use id="zoomminus" xlink:href="#zoomMin" x="42" y="9" onmousedown="handleZoom(evt,'out')"/>
                <use id="reset" xlink:href="#resetDef" x="30" y="36" onmousedown="handleReset()"/>
                <g id="arrowUp" xlink:href="#dirArrow" transform="translate(30 24)" onmousedown="handlePan(0,-1)">
                  <use xlink:href="#rim" fill="#404040">
                        <set attributeName="fill" to="#808080" begin="arrowUp.mouseover" end="arrowUp.mouseout"/>
                  </use>
                  <path fill="none" stroke="white" stroke-width="1.5" d="M0,-3.0v7 M-2.5,-0.5L0,-3.0L2.5,-0.5"/>
                </g>
                <g id="arrowRight" xlink:href="#dirArrow" transform="rotate(90) translate(36 -43)" onmousedown="handlePan(1,0)">
                  <use xlink:href="#rim" fill="#404040">
                        <set attributeName="fill" to="#808080" begin="arrowRight.mouseover" end="arrowRight.mouseout"/>
                  </use>
                  <path fill="none" stroke="white" stroke-width="1.5" d="M0,-3.0v7 M-2.5,-0.5L0,-3.0L2.5,-0.5"/>
                </g>
                <g id="arrowDown" xlink:href="#dirArrow" transform="rotate(180) translate(-30 -48)" onmousedown="handlePan(0,1)">
                  <use xlink:href="#rim" fill="#404040">
                        <set attributeName="fill" to="#808080" begin="arrowDown.mouseover" end="arrowDown.mouseout"/>
                  </use>
                  <path fill="none" stroke="white" stroke-width="1.5" d="M0,-3.0v7 M-2.5,-0.5L0,-3.0L2.5,-0.5"/>
                </g>
                <g id="arrowLeft" xlink:href="#dirArrow" transform="rotate(270) translate(-36 17)" onmousedown="handlePan(-1,0)">
                  <use xlink:href="#rim" fill="#404040">
                        <set attributeName="fill" to="#808080" begin="arrowLeft.mouseover" end="arrowLeft.mouseout"/>
                  </use>
                  <path fill="none" stroke="white" stroke-width="1.5" d="M0,-3.0v7 M-2.5,-0.5L0,-3.0L2.5,-0.5"/>
                </g>
        </g>
        <svg viewBox="0 0 15 15" width="100%" height="30px" preserveAspectRatio="xMaxYMin meet">
         <g id="arrow_out" transform="scale(0.3 0.3)">
          <a xlink:href="histogrammodel_8h__incl_org.svg" target="_base">
           <rect id="button" ry="5" rx="5" y="6" x="6" height="38" width="38"
                fill="#f2f5e9" fill-opacity="0.5" stroke="#606060" stroke-width="1.0"/>
           <path id="arrow"
             d="M 11.500037,31.436501 C 11.940474,20.09759 22.043105,11.32322 32.158766,21.979434 L 37.068811,17.246167 C 37.068811,17.246167 37.088388,32 37.088388,32 L 22.160133,31.978069 C 22.160133,31.978069 26.997745,27.140456 26.997745,27.140456 C 18.528582,18.264221 13.291696,25.230495 11.500037,31.436501 z"
             style="fill:#404040;"/>
          </a>
         </g>
        </svg>
</svg>
