<?xml version="1.0" encoding="UTF-8" standalone="no"?>
<!DOCTYPE svg PUBLIC "-//W3C//DTD SVG 1.1//EN"
 "http://www.w3.org/Graphics/SVG/1.1/DTD/svg11.dtd">
<!-- Generated by graphviz version 2.38.0 (20140413.2041)
 -->
<!-- Title: probabilityModel Pages: 1 -->
<svg width="219pt" height="108pt"
 viewBox="0.00 0.00 218.50 108.00" xmlns="http://www.w3.org/2000/svg" xmlns:xlink="http://www.w3.org/1999/xlink">
<g id="graph0" class="graph" transform="scale(1 1) rotate(0) translate(4 104)">
<title>probabilityModel</title>
<polygon fill="white" stroke="none" points="-4,4 -4,-104 214.5,-104 214.5,4 -4,4"/>
<!-- Node2 -->
<g id="node1" class="node"><title>Node2</title>
<polygon fill="#bfbfbf" stroke="black" points="0,-7 0,-26 87,-26 87,-7 0,-7"/>
<text text-anchor="middle" x="43.5" y="-14" font-family="Helvetica,sans-Serif" font-size="10.00">probabilityModel</text>
</g>
<!-- Node3 -->
<g id="node2" class="node"><title>Node3</title>
<g id="a_node2"><a xlink:href="../../dc/dd2/classregion_model.html" target="_top" xlink:title="regionModel">
<polygon fill="white" stroke="black" points="42,-80.5 42,-99.5 111,-99.5 111,-80.5 42,-80.5"/>
<text text-anchor="middle" x="76.5" y="-87.5" font-family="Helvetica,sans-Serif" font-size="10.00">regionModel</text>
</a>
</g>
</g>
<!-- Node3&#45;&gt;Node2 -->
<g id="edge1" class="edge"><title>Node3&#45;&gt;Node2</title>
<path fill="none" stroke="midnightblue" d="M63.4072,-72.0629C61.2508,-68.8288 59.1761,-65.3914 57.5,-62 51.6869,-50.2376 47.6247,-35.5419 45.4253,-26.3356"/>
<polygon fill="midnightblue" stroke="midnightblue" points="60.7524,-74.3656 69.4379,-80.433 66.4318,-70.2735 60.7524,-74.3656"/>
</g>
<!-- Node4 -->
<g id="node3" class="node"><title>Node4</title>
<g id="a_node3"><a xlink:href="../../dc/d8f/class_node.html" target="_top" xlink:title="Node">
<polygon fill="white" stroke="black" points="107.5,-7 107.5,-26 147.5,-26 147.5,-7 107.5,-7"/>
<text text-anchor="middle" x="127.5" y="-14" font-family="Helvetica,sans-Serif" font-size="10.00">Node</text>
</a>
</g>
</g>
<!-- Node3&#45;&gt;Node4 -->
<g id="edge4" class="edge"><title>Node3&#45;&gt;Node4</title>
<path fill="none" stroke="#9a32cd" stroke-dasharray="5,2" d="M70.9294,-70.2951C70.0365,-63.8373 70.2843,-56.7792 73.5,-51 77.55,-43.7214 95.6097,-33.3741 109.743,-26.1105"/>
<polygon fill="#9a32cd" stroke="#9a32cd" points="67.5647,-71.2842 73.1865,-80.2645 74.3919,-69.7385 67.5647,-71.2842"/>
<text text-anchor="middle" x="88.5" y="-54" font-family="Helvetica,sans-Serif" font-size="10.00"> model</text>
</g>
<!-- Node4&#45;&gt;Node3 -->
<g id="edge2" class="edge"><title>Node4&#45;&gt;Node3</title>
<path fill="none" stroke="#9a32cd" stroke-dasharray="5,2" d="M121.291,-35.9403C117.954,-44.3497 113.32,-54.1561 107.5,-62 102.312,-68.9928 95.0281,-75.4526 88.8246,-80.2993"/>
<polygon fill="#9a32cd" stroke="#9a32cd" points="124.673,-36.8823 124.814,-26.2885 118.097,-34.4819 124.673,-36.8823"/>
<text text-anchor="middle" x="127" y="-54" font-family="Helvetica,sans-Serif" font-size="10.00"> node</text>
</g>
<!-- Node4&#45;&gt;Node4 -->
<g id="edge3" class="edge"><title>Node4&#45;&gt;Node4</title>
<path fill="none" stroke="#9a32cd" stroke-dasharray="5,2" d="M157.916,-23.3026C162.44,-22.2429 165.5,-19.9753 165.5,-16.5 165.5,-10.7969 157.26,-8.34631 147.829,-9.14832"/>
<polygon fill="#9a32cd" stroke="#9a32cd" points="157.624,-19.8132 147.829,-23.8517 158.005,-26.8029 157.624,-19.8132"/>
<text text-anchor="middle" x="188" y="-25" font-family="Helvetica,sans-Serif" font-size="10.00"> rightChild</text>
<text text-anchor="middle" x="188" y="-14" font-family="Helvetica,sans-Serif" font-size="10.00">parent</text>
<text text-anchor="middle" x="188" y="-3" font-family="Helvetica,sans-Serif" font-size="10.00">leftChild</text>
</g>
</g>
</svg>
