<?xml version="1.0" encoding="UTF-8" standalone="no"?>
<!DOCTYPE svg PUBLIC "-//W3C//DTD SVG 1.1//EN"
 "http://www.w3.org/Graphics/SVG/1.1/DTD/svg11.dtd">
<!-- Generated by graphviz version 2.38.0 (20140413.2041)
 -->
<!-- Title: histogrammodel.cpp Pages: 1 -->
<svg width="768pt" height="252pt"
 viewBox="0.00 0.00 767.70 252.00" xmlns="http://www.w3.org/2000/svg" xmlns:xlink="http://www.w3.org/1999/xlink">
<g id="graph0" class="graph" transform="scale(1 1) rotate(0) translate(4 248)">
<title>histogrammodel.cpp</title>
<polygon fill="white" stroke="none" points="-4,4 -4,-248 763.699,-248 763.699,4 -4,4"/>
<!-- Node0 -->
<g id="node1" class="node"><title>Node0</title>
<polygon fill="#bfbfbf" stroke="black" points="626.199,-224.5 626.199,-243.5 730.199,-243.5 730.199,-224.5 626.199,-224.5"/>
<text text-anchor="middle" x="678.199" y="-231.5" font-family="Helvetica,sans-Serif" font-size="10.00">histogrammodel.cpp</text>
</g>
<!-- Node1 -->
<g id="node2" class="node"><title>Node1</title>
<g id="a_node2"><a xlink:href="../../d7/d51/histogrammodel_8h.html" target="_top" xlink:title="histogrammodel.h">
<polygon fill="white" stroke="black" points="434.199,-168.5 434.199,-187.5 528.199,-187.5 528.199,-168.5 434.199,-168.5"/>
<text text-anchor="middle" x="481.199" y="-175.5" font-family="Helvetica,sans-Serif" font-size="10.00">histogrammodel.h</text>
</a>
</g>
</g>
<!-- Node0&#45;&gt;Node1 -->
<g id="edge1" class="edge"><title>Node0&#45;&gt;Node1</title>
<path fill="none" stroke="midnightblue" d="M646.984,-224.444C613.266,-215.201 559.399,-200.436 522.267,-190.257"/>
<polygon fill="midnightblue" stroke="midnightblue" points="522.838,-186.785 512.268,-187.516 520.987,-193.536 522.838,-186.785"/>
</g>
<!-- Node11 -->
<g id="node12" class="node"><title>Node11</title>
<polygon fill="white" stroke="#bfbfbf" points="668.699,-56.5 668.699,-75.5 715.699,-75.5 715.699,-56.5 668.699,-56.5"/>
<text text-anchor="middle" x="692.199" y="-63.5" font-family="Helvetica,sans-Serif" font-size="10.00">math.h</text>
</g>
<!-- Node0&#45;&gt;Node11 -->
<g id="edge20" class="edge"><title>Node0&#45;&gt;Node11</title>
<path fill="none" stroke="midnightblue" d="M678.952,-224.075C681.156,-197.945 687.627,-121.211 690.632,-85.577"/>
<polygon fill="midnightblue" stroke="midnightblue" points="694.124,-85.8269 691.476,-75.5681 687.148,-85.2386 694.124,-85.8269"/>
</g>
<!-- Node15 -->
<g id="node16" class="node"><title>Node15</title>
<polygon fill="white" stroke="#bfbfbf" points="706.699,-168.5 706.699,-187.5 759.699,-187.5 759.699,-168.5 706.699,-168.5"/>
<text text-anchor="middle" x="733.199" y="-175.5" font-family="Helvetica,sans-Serif" font-size="10.00">QDebug</text>
</g>
<!-- Node0&#45;&gt;Node15 -->
<g id="edge21" class="edge"><title>Node0&#45;&gt;Node15</title>
<path fill="none" stroke="midnightblue" d="M687.281,-224.083C695.37,-216.141 707.394,-204.335 717.109,-194.797"/>
<polygon fill="midnightblue" stroke="midnightblue" points="719.602,-197.254 724.286,-187.751 714.698,-192.26 719.602,-197.254"/>
</g>
<!-- Node2 -->
<g id="node3" class="node"><title>Node2</title>
<g id="a_node3"><a xlink:href="../../d9/dcf/region_model_8h.html" target="_top" xlink:title="regionModel.h">
<polygon fill="white" stroke="black" points="404.699,-56.5 404.699,-75.5 481.699,-75.5 481.699,-56.5 404.699,-56.5"/>
<text text-anchor="middle" x="443.199" y="-63.5" font-family="Helvetica,sans-Serif" font-size="10.00">regionModel.h</text>
</a>
</g>
</g>
<!-- Node1&#45;&gt;Node2 -->
<g id="edge2" class="edge"><title>Node1&#45;&gt;Node2</title>
<path fill="none" stroke="midnightblue" d="M478.217,-168.368C472.057,-150.537 457.81,-109.295 449.511,-85.2717"/>
<polygon fill="midnightblue" stroke="midnightblue" points="452.74,-83.9005 446.167,-75.5914 446.124,-86.1862 452.74,-83.9005"/>
</g>
<!-- Node3 -->
<g id="node4" class="node"><title>Node3</title>
<polygon fill="white" stroke="#bfbfbf" points="243.199,-0.5 243.199,-19.5 287.199,-19.5 287.199,-0.5 243.199,-0.5"/>
<text text-anchor="middle" x="265.199" y="-7.5" font-family="Helvetica,sans-Serif" font-size="10.00">vector</text>
</g>
<!-- Node1&#45;&gt;Node3 -->
<g id="edge18" class="edge"><title>Node1&#45;&gt;Node3</title>
<path fill="none" stroke="midnightblue" d="M434.159,-174.585C324.194,-167.825 55.7181,-144.494 4.19909,-76 -1.1441,-68.8963 -1.5275,-62.7984 4.19909,-56 33.1121,-21.6754 169.689,-13.5325 232.925,-11.6008"/>
<polygon fill="midnightblue" stroke="midnightblue" points="233.227,-15.094 243.129,-11.324 233.037,-8.09656 233.227,-15.094"/>
</g>
<!-- Node4 -->
<g id="node5" class="node"><title>Node4</title>
<g id="a_node5"><a xlink:href="../../d1/d77/node_8h.html" target="_top" xlink:title="node.h">
<polygon fill="white" stroke="black" points="207.199,-112.5 207.199,-131.5 253.199,-131.5 253.199,-112.5 207.199,-112.5"/>
<text text-anchor="middle" x="230.199" y="-119.5" font-family="Helvetica,sans-Serif" font-size="10.00">node.h</text>
</a>
</g>
</g>
<!-- Node1&#45;&gt;Node4 -->
<g id="edge4" class="edge"><title>Node1&#45;&gt;Node4</title>
<path fill="none" stroke="midnightblue" d="M441.427,-168.444C392.182,-157.849 309.203,-139.997 263.275,-130.116"/>
<polygon fill="midnightblue" stroke="midnightblue" points="263.763,-126.641 253.251,-127.959 262.291,-133.484 263.763,-126.641"/>
</g>
<!-- Node10 -->
<g id="node11" class="node"><title>Node10</title>
<g id="a_node11"><a xlink:href="../../d7/dc5/statistics_8h.html" target="_top" xlink:title="statistics.h">
<polygon fill="white" stroke="black" points="571.699,-112.5 571.699,-131.5 636.699,-131.5 636.699,-112.5 571.699,-112.5"/>
<text text-anchor="middle" x="604.199" y="-119.5" font-family="Helvetica,sans-Serif" font-size="10.00">statistics.h</text>
</a>
</g>
</g>
<!-- Node1&#45;&gt;Node10 -->
<g id="edge12" class="edge"><title>Node1&#45;&gt;Node10</title>
<path fill="none" stroke="midnightblue" d="M500.689,-168.444C520.841,-159.596 552.522,-145.687 575.53,-135.586"/>
<polygon fill="midnightblue" stroke="midnightblue" points="577.051,-138.741 584.801,-131.516 574.237,-132.332 577.051,-138.741"/>
</g>
<!-- Node12 -->
<g id="node13" class="node"><title>Node12</title>
<polygon fill="white" stroke="#bfbfbf" points="500.199,-56.5 500.199,-75.5 554.199,-75.5 554.199,-56.5 500.199,-56.5"/>
<text text-anchor="middle" x="527.199" y="-63.5" font-family="Helvetica,sans-Serif" font-size="10.00">iostream</text>
</g>
<!-- Node1&#45;&gt;Node12 -->
<g id="edge17" class="edge"><title>Node1&#45;&gt;Node12</title>
<path fill="none" stroke="midnightblue" d="M482.986,-168.342C485.769,-155.647 491.717,-131.388 500.199,-112 504.399,-102.401 510.274,-92.3451 515.471,-84.18"/>
<polygon fill="midnightblue" stroke="midnightblue" points="518.542,-85.8803 521.121,-75.604 512.697,-82.0294 518.542,-85.8803"/>
</g>
<!-- Node14 -->
<g id="node15" class="node"><title>Node14</title>
<polygon fill="white" stroke="#bfbfbf" points="509.199,-112.5 509.199,-131.5 553.199,-131.5 553.199,-112.5 509.199,-112.5"/>
<text text-anchor="middle" x="531.199" y="-119.5" font-family="Helvetica,sans-Serif" font-size="10.00">omp.h</text>
</g>
<!-- Node1&#45;&gt;Node14 -->
<g id="edge19" class="edge"><title>Node1&#45;&gt;Node14</title>
<path fill="none" stroke="midnightblue" d="M489.456,-168.083C496.664,-160.298 507.309,-148.801 516.045,-139.367"/>
<polygon fill="midnightblue" stroke="midnightblue" points="518.87,-141.467 523.096,-131.751 513.734,-136.711 518.87,-141.467"/>
</g>
<!-- Node2&#45;&gt;Node3 -->
<g id="edge3" class="edge"><title>Node2&#45;&gt;Node3</title>
<path fill="none" stroke="midnightblue" d="M414.994,-56.4435C382.923,-46.7141 330.678,-30.8642 297.134,-20.688"/>
<polygon fill="midnightblue" stroke="midnightblue" points="297.952,-17.2789 287.367,-17.7251 295.92,-23.9775 297.952,-17.2789"/>
</g>
<!-- Node4&#45;&gt;Node2 -->
<g id="edge10" class="edge"><title>Node4&#45;&gt;Node2</title>
<path fill="none" stroke="midnightblue" d="M253.399,-115.118C288.41,-106.242 355.351,-89.2713 399.641,-78.0428"/>
<polygon fill="midnightblue" stroke="midnightblue" points="400.72,-81.3801 409.553,-75.5299 399,-74.5948 400.72,-81.3801"/>
</g>
<!-- Node4&#45;&gt;Node3 -->
<g id="edge5" class="edge"><title>Node4&#45;&gt;Node3</title>
<path fill="none" stroke="midnightblue" d="M206.898,-118.027C163.633,-111.545 77.7563,-93.6099 106.199,-56 121.474,-35.8023 191.295,-22.0615 233.167,-15.4773"/>
<polygon fill="midnightblue" stroke="midnightblue" points="233.8,-18.9214 243.161,-13.9579 232.748,-12.0009 233.8,-18.9214"/>
</g>
<!-- Node5 -->
<g id="node6" class="node"><title>Node5</title>
<polygon fill="white" stroke="#bfbfbf" points="115.699,-56.5 115.699,-75.5 154.699,-75.5 154.699,-56.5 115.699,-56.5"/>
<text text-anchor="middle" x="135.199" y="-63.5" font-family="Helvetica,sans-Serif" font-size="10.00">QSet</text>
</g>
<!-- Node4&#45;&gt;Node5 -->
<g id="edge6" class="edge"><title>Node4&#45;&gt;Node5</title>
<path fill="none" stroke="midnightblue" d="M214.936,-112.324C199.978,-103.822 176.944,-90.7288 159.472,-80.7975"/>
<polygon fill="midnightblue" stroke="midnightblue" points="160.848,-77.5534 150.425,-75.6545 157.389,-83.639 160.848,-77.5534"/>
</g>
<!-- Node6 -->
<g id="node7" class="node"><title>Node6</title>
<polygon fill="white" stroke="#bfbfbf" points="172.699,-56.5 172.699,-75.5 215.699,-75.5 215.699,-56.5 172.699,-56.5"/>
<text text-anchor="middle" x="194.199" y="-63.5" font-family="Helvetica,sans-Serif" font-size="10.00">gdal.h</text>
</g>
<!-- Node4&#45;&gt;Node6 -->
<g id="edge7" class="edge"><title>Node4&#45;&gt;Node6</title>
<path fill="none" stroke="midnightblue" d="M224.254,-112.083C219.222,-104.534 211.862,-93.4948 205.686,-84.2298"/>
<polygon fill="midnightblue" stroke="midnightblue" points="208.492,-82.1301 200.033,-75.7511 202.668,-86.0131 208.492,-82.1301"/>
</g>
<!-- Node7 -->
<g id="node8" class="node"><title>Node7</title>
<polygon fill="white" stroke="#bfbfbf" points="234.199,-56.5 234.199,-75.5 298.199,-75.5 298.199,-56.5 234.199,-56.5"/>
<text text-anchor="middle" x="266.199" y="-63.5" font-family="Helvetica,sans-Serif" font-size="10.00">gdal_priv.h</text>
</g>
<!-- Node4&#45;&gt;Node7 -->
<g id="edge8" class="edge"><title>Node4&#45;&gt;Node7</title>
<path fill="none" stroke="midnightblue" d="M236.144,-112.083C241.176,-104.534 248.536,-93.4948 254.713,-84.2298"/>
<polygon fill="midnightblue" stroke="midnightblue" points="257.73,-86.0131 260.365,-75.7511 251.906,-82.1301 257.73,-86.0131"/>
</g>
<!-- Node8 -->
<g id="node9" class="node"><title>Node8</title>
<polygon fill="white" stroke="#bfbfbf" points="316.199,-56.5 316.199,-75.5 386.199,-75.5 386.199,-56.5 316.199,-56.5"/>
<text text-anchor="middle" x="351.199" y="-63.5" font-family="Helvetica,sans-Serif" font-size="10.00">opencv/cv.h</text>
</g>
<!-- Node4&#45;&gt;Node8 -->
<g id="edge9" class="edge"><title>Node4&#45;&gt;Node8</title>
<path fill="none" stroke="midnightblue" d="M249.372,-112.444C269.108,-103.636 300.084,-89.8116 322.692,-79.722"/>
<polygon fill="midnightblue" stroke="midnightblue" points="324.41,-82.788 332.116,-75.5164 321.558,-76.3957 324.41,-82.788"/>
</g>
<!-- Node9 -->
<g id="node10" class="node"><title>Node9</title>
<g id="a_node10"><a xlink:href="../../db/dc3/edge_8h.html" target="_top" xlink:title="edge.h">
<polygon fill="white" stroke="black" points="13.1991,-56.5 13.1991,-75.5 59.1991,-75.5 59.1991,-56.5 13.1991,-56.5"/>
<text text-anchor="middle" x="36.1991" y="-63.5" font-family="Helvetica,sans-Serif" font-size="10.00">edge.h</text>
</a>
</g>
</g>
<!-- Node4&#45;&gt;Node9 -->
<g id="edge11" class="edge"><title>Node4&#45;&gt;Node9</title>
<path fill="none" stroke="midnightblue" d="M207.183,-114.593C172.928,-105.059 108.367,-87.0879 69.1231,-76.1644"/>
<polygon fill="midnightblue" stroke="midnightblue" points="70.0594,-72.792 59.487,-73.4822 68.1822,-79.5357 70.0594,-72.792"/>
</g>
<!-- Node10&#45;&gt;Node3 -->
<g id="edge13" class="edge"><title>Node10&#45;&gt;Node3</title>
<path fill="none" stroke="midnightblue" d="M601.338,-112.124C596.202,-97.7388 583.971,-69.5785 563.199,-56 519.861,-27.67 365.425,-16.2482 297.571,-12.5234"/>
<polygon fill="midnightblue" stroke="midnightblue" points="297.625,-9.02148 287.455,-11.9903 297.257,-16.0118 297.625,-9.02148"/>
</g>
<!-- Node10&#45;&gt;Node11 -->
<g id="edge14" class="edge"><title>Node10&#45;&gt;Node11</title>
<path fill="none" stroke="midnightblue" d="M618.338,-112.324C632.065,-103.9 653.135,-90.9709 669.263,-81.0741"/>
<polygon fill="midnightblue" stroke="midnightblue" points="671.403,-83.8678 678.095,-75.6545 667.742,-77.9016 671.403,-83.8678"/>
</g>
<!-- Node10&#45;&gt;Node12 -->
<g id="edge15" class="edge"><title>Node10&#45;&gt;Node12</title>
<path fill="none" stroke="midnightblue" d="M591.828,-112.324C580.041,-104.058 562.067,-91.4527 548.064,-81.6322"/>
<polygon fill="midnightblue" stroke="midnightblue" points="549.737,-78.5307 539.54,-75.6545 545.717,-84.2619 549.737,-78.5307"/>
</g>
<!-- Node13 -->
<g id="node14" class="node"><title>Node13</title>
<polygon fill="white" stroke="#bfbfbf" points="610.199,-56.5 610.199,-75.5 650.199,-75.5 650.199,-56.5 610.199,-56.5"/>
<text text-anchor="middle" x="630.199" y="-63.5" font-family="Helvetica,sans-Serif" font-size="10.00">limits</text>
</g>
<!-- Node10&#45;&gt;Node13 -->
<g id="edge16" class="edge"><title>Node10&#45;&gt;Node13</title>
<path fill="none" stroke="midnightblue" d="M608.492,-112.083C612.051,-104.691 617.222,-93.9533 621.623,-84.8111"/>
<polygon fill="midnightblue" stroke="midnightblue" points="624.801,-86.2795 625.986,-75.7511 618.494,-83.2427 624.801,-86.2795"/>
</g>
</g>
</svg>
