<?xml version="1.0" encoding="UTF-8" standalone="no"?>
<!DOCTYPE svg PUBLIC "-//W3C//DTD SVG 1.1//EN"
 "http://www.w3.org/Graphics/SVG/1.1/DTD/svg11.dtd">
<!-- Generated by graphviz version 2.38.0 (20140413.2041)
 -->
<!-- Title: statistics::EMD Pages: 1 -->
<svg width="425pt" height="28pt"
 viewBox="0.00 0.00 425.00 28.00" xmlns="http://www.w3.org/2000/svg" xmlns:xlink="http://www.w3.org/1999/xlink">
<g id="graph0" class="graph" transform="scale(1 1) rotate(0) translate(4 24)">
<title>statistics::EMD</title>
<polygon fill="white" stroke="none" points="-4,4 -4,-24 421,-24 421,4 -4,4"/>
<!-- Node15 -->
<g id="node1" class="node"><title>Node15</title>
<polygon fill="#bfbfbf" stroke="black" points="0,-0.5 0,-19.5 85,-19.5 85,-0.5 0,-0.5"/>
<text text-anchor="middle" x="42.5" y="-7.5" font-family="Helvetica,sans-Serif" font-size="10.00">statistics::EMD</text>
</g>
<!-- Node16 -->
<g id="node2" class="node"><title>Node16</title>
<g id="a_node2"><a xlink:href="../../dc/d13/classhistogram_model.html#acbfc41aa0afb26c7b68bf644ebb18ef2" target="_top" xlink:title="histogramModel::getOrder">
<polygon fill="white" stroke="black" points="121,-0.5 121,-19.5 250,-19.5 250,-0.5 121,-0.5"/>
<text text-anchor="middle" x="185.5" y="-7.5" font-family="Helvetica,sans-Serif" font-size="10.00">histogramModel::getOrder</text>
</a>
</g>
</g>
<!-- Node15&#45;&gt;Node16 -->
<g id="edge1" class="edge"><title>Node15&#45;&gt;Node16</title>
<path fill="none" stroke="midnightblue" d="M95.3008,-10C103.587,-10 112.244,-10 120.768,-10"/>
<polygon fill="midnightblue" stroke="midnightblue" points="95.0421,-6.5001 85.042,-10 95.042,-13.5001 95.0421,-6.5001"/>
</g>
<!-- Node17 -->
<g id="node3" class="node"><title>Node17</title>
<g id="a_node3"><a xlink:href="../../d1/dd7/classcompound_model.html#a0d8dbce587b645bb11db48683d20df58" target="_top" xlink:title="compoundModel::getOrder">
<polygon fill="white" stroke="black" points="286,-0.5 286,-19.5 417,-19.5 417,-0.5 286,-0.5"/>
<text text-anchor="middle" x="351.5" y="-7.5" font-family="Helvetica,sans-Serif" font-size="10.00">compoundModel::getOrder</text>
</a>
</g>
</g>
<!-- Node16&#45;&gt;Node17 -->
<g id="edge2" class="edge"><title>Node16&#45;&gt;Node17</title>
<path fill="none" stroke="midnightblue" d="M260.621,-10C269.085,-10 277.663,-10 285.988,-10"/>
<polygon fill="midnightblue" stroke="midnightblue" points="260.376,-6.5001 250.376,-10 260.376,-13.5001 260.376,-6.5001"/>
</g>
</g>
</svg>
