<?xml version="1.0" encoding="UTF-8" standalone="no"?>
<!DOCTYPE svg PUBLIC "-//W3C//DTD SVG 1.1//EN"
 "http://www.w3.org/Graphics/SVG/1.1/DTD/svg11.dtd">
<!-- Generated by graphviz version 2.38.0 (20140413.2041)
 -->
<!-- Title: Node Pages: 1 -->
<svg width="126pt" height="108pt"
 viewBox="0.00 0.00 125.50 108.00" xmlns="http://www.w3.org/2000/svg" xmlns:xlink="http://www.w3.org/1999/xlink">
<g id="graph0" class="graph" transform="scale(1 1) rotate(0) translate(4 104)">
<title>Node</title>
<polygon fill="white" stroke="none" points="-4,4 -4,-104 121.5,-104 121.5,4 -4,4"/>
<!-- Node1 -->
<g id="node1" class="node"><title>Node1</title>
<polygon fill="#bfbfbf" stroke="black" points="14.5,-74 14.5,-93 54.5,-93 54.5,-74 14.5,-74"/>
<text text-anchor="middle" x="34.5" y="-81" font-family="Helvetica,sans-Serif" font-size="10.00">Node</text>
</g>
<!-- Node1&#45;&gt;Node1 -->
<g id="edge1" class="edge"><title>Node1&#45;&gt;Node1</title>
<path fill="none" stroke="#9a32cd" stroke-dasharray="5,2" d="M64.9158,-90.3026C69.4402,-89.2429 72.5,-86.9753 72.5,-83.5 72.5,-77.7969 64.2602,-75.3463 54.8294,-76.1483"/>
<polygon fill="#9a32cd" stroke="#9a32cd" points="64.6244,-86.8132 54.8294,-90.8517 65.0049,-93.8029 64.6244,-86.8132"/>
<text text-anchor="middle" x="95" y="-92" font-family="Helvetica,sans-Serif" font-size="10.00"> rightChild</text>
<text text-anchor="middle" x="95" y="-81" font-family="Helvetica,sans-Serif" font-size="10.00">parent</text>
<text text-anchor="middle" x="95" y="-70" font-family="Helvetica,sans-Serif" font-size="10.00">leftChild</text>
</g>
<!-- Node2 -->
<g id="node2" class="node"><title>Node2</title>
<g id="a_node2"><a xlink:href="../../dc/dd2/classregion_model.html" target="_top" xlink:title="regionModel">
<polygon fill="white" stroke="black" points="0,-0.5 0,-19.5 69,-19.5 69,-0.5 0,-0.5"/>
<text text-anchor="middle" x="34.5" y="-7.5" font-family="Helvetica,sans-Serif" font-size="10.00">regionModel</text>
</a>
</g>
</g>
<!-- Node1&#45;&gt;Node2 -->
<g id="edge3" class="edge"><title>Node1&#45;&gt;Node2</title>
<path fill="none" stroke="#9a32cd" stroke-dasharray="5,2" d="M17.761,-66.2331C13.5968,-61.149 9.6972,-55.2275 7.5,-49 3.51483,-37.7048 13.1617,-26.769 22.0105,-19.5522"/>
<polygon fill="#9a32cd" stroke="#9a32cd" points="15.4378,-68.8795 24.7649,-73.905 20.6075,-64.1599 15.4378,-68.8795"/>
<text text-anchor="middle" x="20" y="-41" font-family="Helvetica,sans-Serif" font-size="10.00"> node</text>
</g>
<!-- Node2&#45;&gt;Node1 -->
<g id="edge2" class="edge"><title>Node2&#45;&gt;Node1</title>
<path fill="none" stroke="#9a32cd" stroke-dasharray="5,2" d="M36.0601,-29.6175C36.2428,-32.4247 36.3997,-35.2874 36.5,-38 36.9631,-50.5197 36.0392,-65.0143 35.2982,-73.9707"/>
<polygon fill="#9a32cd" stroke="#9a32cd" points="39.5393,-29.2094 35.2917,-19.5033 32.5594,-29.7398 39.5393,-29.2094"/>
<text text-anchor="middle" x="51.5" y="-41" font-family="Helvetica,sans-Serif" font-size="10.00"> model</text>
</g>
</g>
</svg>
