<?xml version="1.0" encoding="UTF-8" standalone="no"?>
<!DOCTYPE svg PUBLIC "-//W3C//DTD SVG 1.1//EN"
 "http://www.w3.org/Graphics/SVG/1.1/DTD/svg11.dtd">
<!-- Generated by graphviz version 2.38.0 (20140413.2041)
 -->
<!-- Title: RAG::regionMerging Pages: 1 -->
<svg width="903pt" height="104pt"
 viewBox="0.00 0.00 903.00 104.00" xmlns="http://www.w3.org/2000/svg" xmlns:xlink="http://www.w3.org/1999/xlink">
<g id="graph0" class="graph" transform="scale(1 1) rotate(0) translate(4 100)">
<title>RAG::regionMerging</title>
<polygon fill="white" stroke="none" points="-4,4 -4,-100 899,-100 899,4 -4,4"/>
<!-- Node111 -->
<g id="node1" class="node"><title>Node111</title>
<polygon fill="#bfbfbf" stroke="black" points="0,-38.5 0,-57.5 105,-57.5 105,-38.5 0,-38.5"/>
<text text-anchor="middle" x="52.5" y="-45.5" font-family="Helvetica,sans-Serif" font-size="10.00">RAG::regionMerging</text>
</g>
<!-- Node112 -->
<g id="node2" class="node"><title>Node112</title>
<g id="a_node2"><a xlink:href="../../d8/dd2/classimageblock.html#abcc69a8c00ad79067185c700463f8126" target="_top" xlink:title="imageblock::createBPT">
<polygon fill="white" stroke="black" points="141,-76.5 141,-95.5 260,-95.5 260,-76.5 141,-76.5"/>
<text text-anchor="middle" x="200.5" y="-83.5" font-family="Helvetica,sans-Serif" font-size="10.00">imageblock::createBPT</text>
</a>
</g>
</g>
<!-- Node111&#45;&gt;Node112 -->
<g id="edge1" class="edge"><title>Node111&#45;&gt;Node112</title>
<path fill="none" stroke="midnightblue" d="M100.036,-60.1121C120.37,-65.4044 143.871,-71.5213 162.923,-76.4799"/>
<polygon fill="midnightblue" stroke="midnightblue" points="100.901,-56.7207 90.342,-57.589 99.1379,-63.4951 100.901,-56.7207"/>
</g>
<!-- Node117 -->
<g id="node7" class="node"><title>Node117</title>
<g id="a_node7"><a xlink:href="../../d1/ded/classimage.html#a12343719e8d96a4bda9c5bd6c035d52a" target="_top" xlink:title="image::mergeBlockX">
<polygon fill="white" stroke="black" points="302,-38.5 302,-57.5 409,-57.5 409,-38.5 302,-38.5"/>
<text text-anchor="middle" x="355.5" y="-45.5" font-family="Helvetica,sans-Serif" font-size="10.00">image::mergeBlockX</text>
</a>
</g>
</g>
<!-- Node111&#45;&gt;Node117 -->
<g id="edge6" class="edge"><title>Node111&#45;&gt;Node117</title>
<path fill="none" stroke="midnightblue" d="M115.56,-48C170.56,-48 249.983,-48 301.918,-48"/>
<polygon fill="midnightblue" stroke="midnightblue" points="115.244,-44.5001 105.244,-48 115.244,-51.5001 115.244,-44.5001"/>
</g>
<!-- Node119 -->
<g id="node9" class="node"><title>Node119</title>
<g id="a_node9"><a xlink:href="../../d1/ded/classimage.html#aa21fc5a07af7528869425e750090b3b8" target="_top" xlink:title="image::mergeBlockY">
<polygon fill="white" stroke="black" points="147,-0.5 147,-19.5 254,-19.5 254,-0.5 147,-0.5"/>
<text text-anchor="middle" x="200.5" y="-7.5" font-family="Helvetica,sans-Serif" font-size="10.00">image::mergeBlockY</text>
</a>
</g>
</g>
<!-- Node111&#45;&gt;Node119 -->
<g id="edge9" class="edge"><title>Node111&#45;&gt;Node119</title>
<path fill="none" stroke="midnightblue" d="M100.036,-35.8879C120.37,-30.5956 143.871,-24.4787 162.923,-19.5201"/>
<polygon fill="midnightblue" stroke="midnightblue" points="99.1379,-32.5049 90.342,-38.411 100.901,-39.2793 99.1379,-32.5049"/>
</g>
<!-- Node113 -->
<g id="node3" class="node"><title>Node113</title>
<g id="a_node3"><a xlink:href="../../d8/dd2/classimageblock.html#af3b91e3daaa8014af1239f60da6b0bf5" target="_top" xlink:title="imageblock::processing">
<polygon fill="white" stroke="black" points="296,-76.5 296,-95.5 415,-95.5 415,-76.5 296,-76.5"/>
<text text-anchor="middle" x="355.5" y="-83.5" font-family="Helvetica,sans-Serif" font-size="10.00">imageblock::processing</text>
</a>
</g>
</g>
<!-- Node112&#45;&gt;Node113 -->
<g id="edge2" class="edge"><title>Node112&#45;&gt;Node113</title>
<path fill="none" stroke="midnightblue" d="M270.493,-86C278.993,-86 287.617,-86 295.941,-86"/>
<polygon fill="midnightblue" stroke="midnightblue" points="270.216,-82.5001 260.216,-86 270.216,-89.5001 270.216,-82.5001"/>
</g>
<!-- Node114 -->
<g id="node4" class="node"><title>Node114</title>
<g id="a_node4"><a xlink:href="../../d1/ded/classimage.html#ad5a9d767eca6f9bbb8dcb556527edf4d" target="_top" xlink:title="image::ProcessTiles">
<polygon fill="white" stroke="black" points="464.5,-76.5 464.5,-95.5 570.5,-95.5 570.5,-76.5 464.5,-76.5"/>
<text text-anchor="middle" x="517.5" y="-83.5" font-family="Helvetica,sans-Serif" font-size="10.00">image::ProcessTiles</text>
</a>
</g>
</g>
<!-- Node113&#45;&gt;Node114 -->
<g id="edge3" class="edge"><title>Node113&#45;&gt;Node114</title>
<path fill="none" stroke="midnightblue" d="M425.525,-86C438.577,-86 452.026,-86 464.447,-86"/>
<polygon fill="midnightblue" stroke="midnightblue" points="425.17,-82.5001 415.17,-86 425.17,-89.5001 425.17,-82.5001"/>
</g>
<!-- Node115 -->
<g id="node5" class="node"><title>Node115</title>
<g id="a_node5"><a xlink:href="../../d1/ded/classimage.html#a4689c56b85c46d48ea52f0c9fa13891e" target="_top" xlink:title="image::processing">
<polygon fill="white" stroke="black" points="620,-38.5 620,-57.5 716,-57.5 716,-38.5 620,-38.5"/>
<text text-anchor="middle" x="668" y="-45.5" font-family="Helvetica,sans-Serif" font-size="10.00">image::processing</text>
</a>
</g>
</g>
<!-- Node114&#45;&gt;Node115 -->
<g id="edge4" class="edge"><title>Node114&#45;&gt;Node115</title>
<path fill="none" stroke="midnightblue" d="M565.833,-73.8879C586.515,-68.5956 610.419,-62.4787 629.797,-57.5201"/>
<polygon fill="midnightblue" stroke="midnightblue" points="564.793,-70.5411 555.973,-76.411 566.528,-77.3226 564.793,-70.5411"/>
</g>
<!-- Node116 -->
<g id="node6" class="node"><title>Node116</title>
<g id="a_node6"><a xlink:href="../../d9/dc6/class_main_window.html#a9a45eb9ebe6d27bcd23677d9fbb74dd8" target="_top" xlink:title="MainWindow::on_Go_clicked">
<polygon fill="white" stroke="black" points="752,-38.5 752,-57.5 895,-57.5 895,-38.5 752,-38.5"/>
<text text-anchor="middle" x="823.5" y="-45.5" font-family="Helvetica,sans-Serif" font-size="10.00">MainWindow::on_Go_clicked</text>
</a>
</g>
</g>
<!-- Node115&#45;&gt;Node116 -->
<g id="edge5" class="edge"><title>Node115&#45;&gt;Node116</title>
<path fill="none" stroke="midnightblue" d="M726.583,-48C734.853,-48 743.441,-48 751.928,-48"/>
<polygon fill="midnightblue" stroke="midnightblue" points="726.308,-44.5001 716.308,-48 726.308,-51.5001 726.308,-44.5001"/>
</g>
<!-- Node118 -->
<g id="node8" class="node"><title>Node118</title>
<g id="a_node8"><a xlink:href="../../d1/ded/classimage.html#a83026280ad6cc713ec9489ff3bd9776e" target="_top" xlink:title="image::ProcessBoundaryX">
<polygon fill="white" stroke="black" points="451,-38.5 451,-57.5 584,-57.5 584,-38.5 451,-38.5"/>
<text text-anchor="middle" x="517.5" y="-45.5" font-family="Helvetica,sans-Serif" font-size="10.00">image::ProcessBoundaryX</text>
</a>
</g>
</g>
<!-- Node117&#45;&gt;Node118 -->
<g id="edge7" class="edge"><title>Node117&#45;&gt;Node118</title>
<path fill="none" stroke="midnightblue" d="M419.486,-48C429.798,-48 440.505,-48 450.879,-48"/>
<polygon fill="midnightblue" stroke="midnightblue" points="419.333,-44.5001 409.333,-48 419.333,-51.5001 419.333,-44.5001"/>
</g>
<!-- Node118&#45;&gt;Node115 -->
<g id="edge8" class="edge"><title>Node118&#45;&gt;Node115</title>
<path fill="none" stroke="midnightblue" d="M594.207,-48C602.858,-48 611.483,-48 619.612,-48"/>
<polygon fill="midnightblue" stroke="midnightblue" points="594.067,-44.5001 584.067,-48 594.066,-51.5001 594.067,-44.5001"/>
</g>
<!-- Node120 -->
<g id="node10" class="node"><title>Node120</title>
<g id="a_node10"><a xlink:href="../../d1/ded/classimage.html#adf6b8c126649c9a40387f12b5f5f07d5" target="_top" xlink:title="image::ProcessBoundaryY">
<polygon fill="white" stroke="black" points="451,-0.5 451,-19.5 584,-19.5 584,-0.5 451,-0.5"/>
<text text-anchor="middle" x="517.5" y="-7.5" font-family="Helvetica,sans-Serif" font-size="10.00">image::ProcessBoundaryY</text>
</a>
</g>
</g>
<!-- Node119&#45;&gt;Node120 -->
<g id="edge10" class="edge"><title>Node119&#45;&gt;Node120</title>
<path fill="none" stroke="midnightblue" d="M264.357,-10C318.35,-10 395.928,-10 450.744,-10"/>
<polygon fill="midnightblue" stroke="midnightblue" points="264.224,-6.5001 254.224,-10 264.224,-13.5001 264.224,-6.5001"/>
</g>
<!-- Node120&#45;&gt;Node115 -->
<g id="edge11" class="edge"><title>Node120&#45;&gt;Node115</title>
<path fill="none" stroke="midnightblue" d="M565.833,-22.1121C586.515,-27.4044 610.419,-33.5213 629.797,-38.4799"/>
<polygon fill="midnightblue" stroke="midnightblue" points="566.528,-18.6774 555.973,-19.589 564.793,-25.4589 566.528,-18.6774"/>
</g>
</g>
</svg>
