<?xml version="1.0" encoding="UTF-8" standalone="no"?>
<!DOCTYPE svg PUBLIC "-//W3C//DTD SVG 1.1//EN"
 "http://www.w3.org/Graphics/SVG/1.1/DTD/svg11.dtd">
<!-- Generated by graphviz version 2.38.0 (20140413.2041)
 -->
<!-- Title: RAG::regionMerging Pages: 1 -->
<svg width="1193pt" height="978pt"
 viewBox="0.00 0.00 1193.00 978.00" xmlns="http://www.w3.org/2000/svg" xmlns:xlink="http://www.w3.org/1999/xlink">
<g id="graph0" class="graph" transform="scale(1 1) rotate(0) translate(4 974)">
<title>RAG::regionMerging</title>
<polygon fill="white" stroke="none" points="-4,4 -4,-974 1189,-974 1189,4 -4,4"/>
<!-- Node74 -->
<g id="node1" class="node"><title>Node74</title>
<polygon fill="#bfbfbf" stroke="black" points="0,-399.5 0,-418.5 105,-418.5 105,-399.5 0,-399.5"/>
<text text-anchor="middle" x="52.5" y="-406.5" font-family="Helvetica,sans-Serif" font-size="10.00">RAG::regionMerging</text>
</g>
<!-- Node75 -->
<g id="node2" class="node"><title>Node75</title>
<g id="a_node2"><a xlink:href="../../d8/de9/class_edge_heap.html#ad20ff8504ffd5ca5ac21be9093476741" target="_top" xlink:title="EdgeHeap::getFront">
<polygon fill="white" stroke="black" points="150.5,-950.5 150.5,-969.5 254.5,-969.5 254.5,-950.5 150.5,-950.5"/>
<text text-anchor="middle" x="202.5" y="-957.5" font-family="Helvetica,sans-Serif" font-size="10.00">EdgeHeap::getFront</text>
</a>
</g>
</g>
<!-- Node74&#45;&gt;Node75 -->
<g id="edge1" class="edge"><title>Node74&#45;&gt;Node75</title>
<path fill="none" stroke="midnightblue" d="M53.8334,-418.544C56.2539,-482.752 73.0119,-851.725 141,-936 144.033,-939.76 147.74,-942.933 151.812,-945.611"/>
<polygon fill="midnightblue" stroke="midnightblue" points="150.134,-948.683 160.582,-950.441 153.511,-942.551 150.134,-948.683"/>
</g>
<!-- Node76 -->
<g id="node3" class="node"><title>Node76</title>
<g id="a_node3"><a xlink:href="../../d7/d77/class_edge.html#aaaa9cb49c141b310873cd75fd493e22d" target="_top" xlink:title="Edge::getNode1">
<polygon fill="white" stroke="black" points="949,-836.5 949,-855.5 1036,-855.5 1036,-836.5 949,-836.5"/>
<text text-anchor="middle" x="992.5" y="-843.5" font-family="Helvetica,sans-Serif" font-size="10.00">Edge::getNode1</text>
</a>
</g>
</g>
<!-- Node74&#45;&gt;Node76 -->
<g id="edge2" class="edge"><title>Node74&#45;&gt;Node76</title>
<path fill="none" stroke="midnightblue" d="M53.0431,-418.554C51.3012,-465.132 49.2455,-671.291 141,-798 206.829,-888.908 248.76,-922 361,-922 361,-922 361,-922 671.5,-922 778.695,-922 900.755,-881.131 958.234,-859.333"/>
<polygon fill="midnightblue" stroke="midnightblue" points="959.795,-862.482 967.872,-855.625 957.282,-855.949 959.795,-862.482"/>
</g>
<!-- Node77 -->
<g id="node4" class="node"><title>Node77</title>
<g id="a_node4"><a xlink:href="../../d7/d77/class_edge.html#a50017668f77ed019a5caceafbb1eb16f" target="_top" xlink:title="Edge::getNode2">
<polygon fill="white" stroke="black" points="949,-646.5 949,-665.5 1036,-665.5 1036,-646.5 949,-646.5"/>
<text text-anchor="middle" x="992.5" y="-653.5" font-family="Helvetica,sans-Serif" font-size="10.00">Edge::getNode2</text>
</a>
</g>
</g>
<!-- Node74&#45;&gt;Node77 -->
<g id="edge3" class="edge"><title>Node74&#45;&gt;Node77</title>
<path fill="none" stroke="midnightblue" d="M54.8295,-418.921C64.5709,-487.133 131.125,-884 361,-884 361,-884 361,-884 671.5,-884 816.267,-884 940.926,-727.311 979.328,-673.722"/>
<polygon fill="midnightblue" stroke="midnightblue" points="982.217,-675.698 985.113,-665.507 976.494,-671.667 982.217,-675.698"/>
</g>
<!-- Node78 -->
<g id="node5" class="node"><title>Node78</title>
<g id="a_node5"><a xlink:href="../../d8/de9/class_edge_heap.html#a09c54300b957acc0f414fd9ee6c558fa" target="_top" xlink:title="EdgeHeap::heapify">
<polygon fill="white" stroke="black" points="620.5,-138.5 620.5,-157.5 720.5,-157.5 720.5,-138.5 620.5,-138.5"/>
<text text-anchor="middle" x="670.5" y="-145.5" font-family="Helvetica,sans-Serif" font-size="10.00">EdgeHeap::heapify</text>
</a>
</g>
</g>
<!-- Node74&#45;&gt;Node78 -->
<g id="edge4" class="edge"><title>Node74&#45;&gt;Node78</title>
<path fill="none" stroke="midnightblue" d="M53.79,-399.257C55.4518,-361.055 66.5919,-219.827 141,-143 275.579,-4.0462 546.915,-97.3427 638.5,-134.603"/>
<polygon fill="midnightblue" stroke="midnightblue" points="637.202,-137.853 647.78,-138.439 639.876,-131.384 637.202,-137.853"/>
</g>
<!-- Node84 -->
<g id="node11" class="node"><title>Node84</title>
<g id="a_node11"><a xlink:href="../../d3/dd4/class_r_a_g.html#aa2de492a3df037db29b0e3ccab5251ee" target="_top" xlink:title="RAG::merge">
<polygon fill="white" stroke="black" points="167,-456.5 167,-475.5 238,-475.5 238,-456.5 167,-456.5"/>
<text text-anchor="middle" x="202.5" y="-463.5" font-family="Helvetica,sans-Serif" font-size="10.00">RAG::merge</text>
</a>
</g>
</g>
<!-- Node74&#45;&gt;Node84 -->
<g id="edge12" class="edge"><title>Node74&#45;&gt;Node84</title>
<path fill="none" stroke="midnightblue" d="M78.2719,-418.541C102.604,-427.912 139.931,-442.288 167.128,-452.762"/>
<polygon fill="midnightblue" stroke="midnightblue" points="166.058,-456.1 176.647,-456.428 168.573,-449.568 166.058,-456.1"/>
</g>
<!-- Node98 -->
<g id="node25" class="node"><title>Node98</title>
<g id="a_node25"><a xlink:href="../../dc/d8f/class_node.html#a317d8090ed6ef5766b587a21038888b7" target="_top" xlink:title="Node::removeEdge">
<polygon fill="white" stroke="black" points="311.5,-114.5 311.5,-133.5 412.5,-133.5 412.5,-114.5 311.5,-114.5"/>
<text text-anchor="middle" x="362" y="-121.5" font-family="Helvetica,sans-Serif" font-size="10.00">Node::removeEdge</text>
</a>
</g>
</g>
<!-- Node74&#45;&gt;Node98 -->
<g id="edge46" class="edge"><title>Node74&#45;&gt;Node98</title>
<path fill="none" stroke="midnightblue" d="M62.4152,-399.312C106.169,-351.775 296.231,-145.377 300,-143 303.335,-140.897 306.92,-139.011 310.621,-137.323"/>
<polygon fill="midnightblue" stroke="midnightblue" points="312.034,-140.527 319.985,-133.524 309.402,-134.041 312.034,-140.527"/>
</g>
<!-- Node109 -->
<g id="node36" class="node"><title>Node109</title>
<g id="a_node36"><a xlink:href="../../d8/de9/class_edge_heap.html#a001dc48506130f599bddb241006d2920" target="_top" xlink:title="EdgeHeap::removeFront">
<polygon fill="white" stroke="black" points="141,-152.5 141,-171.5 264,-171.5 264,-152.5 141,-152.5"/>
<text text-anchor="middle" x="202.5" y="-159.5" font-family="Helvetica,sans-Serif" font-size="10.00">EdgeHeap::removeFront</text>
</a>
</g>
</g>
<!-- Node74&#45;&gt;Node109 -->
<g id="edge47" class="edge"><title>Node74&#45;&gt;Node109</title>
<path fill="none" stroke="midnightblue" d="M59.3018,-399.317C81.4975,-362.274 161.248,-229.178 190.577,-180.23"/>
<polygon fill="midnightblue" stroke="midnightblue" points="193.601,-181.993 195.738,-171.616 187.596,-178.395 193.601,-181.993"/>
</g>
<!-- Node110 -->
<g id="node37" class="node"><title>Node110</title>
<g id="a_node37"><a xlink:href="../../d8/de9/class_edge_heap.html#a82705f38a79714bb4f80a8218b6e50b1" target="_top" xlink:title="EdgeHeap::size">
<polygon fill="white" stroke="black" points="159.5,-0.5 159.5,-19.5 245.5,-19.5 245.5,-0.5 159.5,-0.5"/>
<text text-anchor="middle" x="202.5" y="-7.5" font-family="Helvetica,sans-Serif" font-size="10.00">EdgeHeap::size</text>
</a>
</g>
</g>
<!-- Node74&#45;&gt;Node110 -->
<g id="edge49" class="edge"><title>Node74&#45;&gt;Node110</title>
<path fill="none" stroke="midnightblue" d="M54.5473,-399.301C60.4443,-346.302 91.0354,-91.9908 141,-34 144.241,-30.2387 148.151,-27.0616 152.406,-24.3788"/>
<polygon fill="midnightblue" stroke="midnightblue" points="154.33,-27.3201 161.519,-19.5378 151.046,-21.1382 154.33,-27.3201"/>
</g>
<!-- Node79 -->
<g id="node6" class="node"><title>Node79</title>
<g id="a_node6"><a xlink:href="../../d8/de9/class_edge_heap.html#add248e35c4c2443246ff6c7cd654ae9f" target="_top" xlink:title="EdgeHeap::edgeComparator">
<polygon fill="white" stroke="black" points="769,-328.5 769,-347.5 909,-347.5 909,-328.5 769,-328.5"/>
<text text-anchor="middle" x="839" y="-335.5" font-family="Helvetica,sans-Serif" font-size="10.00">EdgeHeap::edgeComparator</text>
</a>
</g>
</g>
<!-- Node78&#45;&gt;Node79 -->
<g id="edge5" class="edge"><title>Node78&#45;&gt;Node79</title>
<path fill="none" stroke="midnightblue" d="M679.986,-157.683C706.478,-187.914 787.931,-280.865 822.369,-320.163"/>
<polygon fill="midnightblue" stroke="midnightblue" points="820.109,-322.894 829.332,-328.108 825.373,-318.281 820.109,-322.894"/>
</g>
<!-- Node79&#45;&gt;Node76 -->
<g id="edge8" class="edge"><title>Node79&#45;&gt;Node76</title>
<path fill="none" stroke="midnightblue" d="M842.891,-347.694C861.154,-408.931 960.552,-742.227 985.711,-826.589"/>
<polygon fill="midnightblue" stroke="midnightblue" points="982.367,-827.621 988.579,-836.204 989.075,-825.621 982.367,-827.621"/>
</g>
<!-- Node79&#45;&gt;Node77 -->
<g id="edge9" class="edge"><title>Node79&#45;&gt;Node77</title>
<path fill="none" stroke="midnightblue" d="M844.534,-347.517C865.571,-391.673 953.85,-576.972 982.488,-637.084"/>
<polygon fill="midnightblue" stroke="midnightblue" points="979.374,-638.686 986.835,-646.208 985.694,-635.675 979.374,-638.686"/>
</g>
<!-- Node80 -->
<g id="node7" class="node"><title>Node80</title>
<g id="a_node7"><a xlink:href="../../dc/d8f/class_node.html#a13467fc326459c1d607547b3e9470710" target="_top" xlink:title="Node::getArea">
<polygon fill="white" stroke="black" points="952.5,-366.5 952.5,-385.5 1032.5,-385.5 1032.5,-366.5 952.5,-366.5"/>
<text text-anchor="middle" x="992.5" y="-373.5" font-family="Helvetica,sans-Serif" font-size="10.00">Node::getArea</text>
</a>
</g>
</g>
<!-- Node79&#45;&gt;Node80 -->
<g id="edge6" class="edge"><title>Node79&#45;&gt;Node80</title>
<path fill="none" stroke="midnightblue" d="M878.23,-347.589C898.132,-352.581 922.657,-358.732 943.791,-364.033"/>
<polygon fill="midnightblue" stroke="midnightblue" points="942.994,-367.442 953.545,-366.48 944.697,-360.652 942.994,-367.442"/>
</g>
<!-- Node82 -->
<g id="node9" class="node"><title>Node82</title>
<g id="a_node9"><a xlink:href="../../dc/d8f/class_node.html#aa3512938403662345b64049920d1cdaf" target="_top" xlink:title="Node::getPosition">
<polygon fill="white" stroke="black" points="945,-328.5 945,-347.5 1040,-347.5 1040,-328.5 945,-328.5"/>
<text text-anchor="middle" x="992.5" y="-335.5" font-family="Helvetica,sans-Serif" font-size="10.00">Node::getPosition</text>
</a>
</g>
</g>
<!-- Node79&#45;&gt;Node82 -->
<g id="edge10" class="edge"><title>Node79&#45;&gt;Node82</title>
<path fill="none" stroke="midnightblue" d="M909.1,-338C917.55,-338 926.112,-338 934.359,-338"/>
<polygon fill="midnightblue" stroke="midnightblue" points="934.607,-341.5 944.607,-338 934.607,-334.5 934.607,-341.5"/>
</g>
<!-- Node83 -->
<g id="node10" class="node"><title>Node83</title>
<g id="a_node10"><a xlink:href="../../d7/d77/class_edge.html#a3a776c1ccafacdbdb10fdedd9cb329af" target="_top" xlink:title="Edge::getWeight">
<polygon fill="white" stroke="black" points="948,-290.5 948,-309.5 1037,-309.5 1037,-290.5 948,-290.5"/>
<text text-anchor="middle" x="992.5" y="-297.5" font-family="Helvetica,sans-Serif" font-size="10.00">Edge::getWeight</text>
</a>
</g>
</g>
<!-- Node79&#45;&gt;Node83 -->
<g id="edge11" class="edge"><title>Node79&#45;&gt;Node83</title>
<path fill="none" stroke="midnightblue" d="M878.23,-328.411C898.132,-323.419 922.657,-317.268 943.791,-311.967"/>
<polygon fill="midnightblue" stroke="midnightblue" points="944.697,-315.348 953.545,-309.52 942.994,-308.558 944.697,-315.348"/>
</g>
<!-- Node81 -->
<g id="node8" class="node"><title>Node81</title>
<g id="a_node8"><a xlink:href="../../dc/dd2/classregion_model.html#a56b1a22f355e85211760055c7559cd1e" target="_top" xlink:title="regionModel::getArea">
<polygon fill="white" stroke="black" points="1076,-366.5 1076,-385.5 1185,-385.5 1185,-366.5 1076,-366.5"/>
<text text-anchor="middle" x="1130.5" y="-373.5" font-family="Helvetica,sans-Serif" font-size="10.00">regionModel::getArea</text>
</a>
</g>
</g>
<!-- Node80&#45;&gt;Node81 -->
<g id="edge7" class="edge"><title>Node80&#45;&gt;Node81</title>
<path fill="none" stroke="midnightblue" d="M1032.84,-376C1043.11,-376 1054.45,-376 1065.63,-376"/>
<polygon fill="midnightblue" stroke="midnightblue" points="1065.83,-379.5 1075.83,-376 1065.83,-372.5 1065.83,-379.5"/>
</g>
<!-- Node84&#45;&gt;Node76 -->
<g id="edge19" class="edge"><title>Node84&#45;&gt;Node76</title>
<path fill="none" stroke="midnightblue" d="M204.596,-475.605C210.787,-528.052 243.133,-779.211 300,-827 373.44,-888.715 419.072,-846 515,-846 515,-846 515,-846 671.5,-846 765.569,-846 875.192,-846 938.641,-846"/>
<polygon fill="midnightblue" stroke="midnightblue" points="938.798,-849.5 948.798,-846 938.798,-842.5 938.798,-849.5"/>
</g>
<!-- Node84&#45;&gt;Node77 -->
<g id="edge20" class="edge"><title>Node84&#45;&gt;Node77</title>
<path fill="none" stroke="midnightblue" d="M205.588,-475.523C212.694,-505.405 238.972,-597.66 300,-637 380.628,-688.974 419.072,-656 515,-656 515,-656 515,-656 671.5,-656 765.569,-656 875.192,-656 938.641,-656"/>
<polygon fill="midnightblue" stroke="midnightblue" points="938.798,-659.5 948.798,-656 938.798,-652.5 938.798,-659.5"/>
</g>
<!-- Node85 -->
<g id="node12" class="node"><title>Node85</title>
<g id="a_node12"><a xlink:href="../../dc/d8f/class_node.html#a86573dcde1125e02936ee7c256fb270a" target="_top" xlink:title="Node::addEdge">
<polygon fill="white" stroke="black" points="320,-190.5 320,-209.5 404,-209.5 404,-190.5 320,-190.5"/>
<text text-anchor="middle" x="362" y="-197.5" font-family="Helvetica,sans-Serif" font-size="10.00">Node::addEdge</text>
</a>
</g>
</g>
<!-- Node84&#45;&gt;Node85 -->
<g id="edge13" class="edge"><title>Node84&#45;&gt;Node85</title>
<path fill="none" stroke="midnightblue" d="M210.751,-456.319C223.353,-439.056 249.344,-401.439 264,-366 289.705,-303.842 253.929,-268.009 300,-219 303.118,-215.683 306.805,-212.941 310.798,-210.675"/>
<polygon fill="midnightblue" stroke="midnightblue" points="312.329,-213.823 319.925,-206.436 309.381,-207.474 312.329,-213.823"/>
</g>
<!-- Node86 -->
<g id="node13" class="node"><title>Node86</title>
<g id="a_node13"><a xlink:href="../../dc/d8f/class_node.html#a2784134529ab6341bf028b0d40660870" target="_top" xlink:title="Node::getBoarderIndexX">
<polygon fill="white" stroke="black" points="300,-152.5 300,-171.5 424,-171.5 424,-152.5 300,-152.5"/>
<text text-anchor="middle" x="362" y="-159.5" font-family="Helvetica,sans-Serif" font-size="10.00">Node::getBoarderIndexX</text>
</a>
</g>
</g>
<!-- Node84&#45;&gt;Node86 -->
<g id="edge14" class="edge"><title>Node84&#45;&gt;Node86</title>
<path fill="none" stroke="midnightblue" d="M210.927,-456.389C223.8,-439.235 250.198,-401.781 264,-366 294.145,-287.848 244.108,-243.39 300,-181 301.196,-179.665 302.484,-178.423 303.847,-177.268"/>
<polygon fill="midnightblue" stroke="midnightblue" points="306.015,-180.028 312.369,-171.55 302.115,-174.215 306.015,-180.028"/>
</g>
<!-- Node87 -->
<g id="node14" class="node"><title>Node87</title>
<g id="a_node14"><a xlink:href="../../dc/d8f/class_node.html#a44362e2817f8eb2fd21b78f39797c48c" target="_top" xlink:title="Node::getBoarderIndexY">
<polygon fill="white" stroke="black" points="300,-798.5 300,-817.5 424,-817.5 424,-798.5 300,-798.5"/>
<text text-anchor="middle" x="362" y="-805.5" font-family="Helvetica,sans-Serif" font-size="10.00">Node::getBoarderIndexY</text>
</a>
</g>
</g>
<!-- Node84&#45;&gt;Node87 -->
<g id="edge15" class="edge"><title>Node84&#45;&gt;Node87</title>
<path fill="none" stroke="midnightblue" d="M203.327,-475.508C203.077,-518.394 207.841,-695.763 300,-789 301.433,-790.45 302.974,-791.789 304.601,-793.026"/>
<polygon fill="midnightblue" stroke="midnightblue" points="302.992,-796.146 313.343,-798.404 306.66,-790.183 302.992,-796.146"/>
</g>
<!-- Node88 -->
<g id="node15" class="node"><title>Node88</title>
<g id="a_node15"><a xlink:href="../../dc/d8f/class_node.html#a6e506795cafa9ed120f236b58f32e3c5" target="_top" xlink:title="Node::getEdges">
<polygon fill="white" stroke="black" points="318.5,-760.5 318.5,-779.5 405.5,-779.5 405.5,-760.5 318.5,-760.5"/>
<text text-anchor="middle" x="362" y="-767.5" font-family="Helvetica,sans-Serif" font-size="10.00">Node::getEdges</text>
</a>
</g>
</g>
<!-- Node84&#45;&gt;Node88 -->
<g id="edge16" class="edge"><title>Node84&#45;&gt;Node88</title>
<path fill="none" stroke="midnightblue" d="M203.773,-475.73C205.436,-515.86 217.185,-670.191 300,-751 302.741,-753.675 305.853,-755.974 309.185,-757.95"/>
<polygon fill="midnightblue" stroke="midnightblue" points="307.897,-761.216 318.418,-762.461 310.97,-754.926 307.897,-761.216"/>
</g>
<!-- Node89 -->
<g id="node16" class="node"><title>Node89</title>
<g id="a_node16"><a xlink:href="../../d7/d77/class_edge.html#ac5e6bca7dbde5cdd88579b1081ebe1db" target="_top" xlink:title="Edge::getLength">
<polygon fill="white" stroke="black" points="318,-722.5 318,-741.5 406,-741.5 406,-722.5 318,-722.5"/>
<text text-anchor="middle" x="362" y="-729.5" font-family="Helvetica,sans-Serif" font-size="10.00">Edge::getLength</text>
</a>
</g>
</g>
<!-- Node84&#45;&gt;Node89 -->
<g id="edge17" class="edge"><title>Node84&#45;&gt;Node89</title>
<path fill="none" stroke="midnightblue" d="M204.342,-475.68C208.057,-512.37 226.238,-644.263 300,-713 302.636,-715.456 305.585,-717.595 308.726,-719.458"/>
<polygon fill="midnightblue" stroke="midnightblue" points="307.464,-722.737 317.982,-724.009 310.552,-716.456 307.464,-722.737"/>
</g>
<!-- Node90 -->
<g id="node17" class="node"><title>Node90</title>
<g id="a_node17"><a xlink:href="../../dc/d8f/class_node.html#adcc7f26a2ccf3a8fcc387ed820624d99" target="_top" xlink:title="Node::getModel">
<polygon fill="white" stroke="black" points="319,-684.5 319,-703.5 405,-703.5 405,-684.5 319,-684.5"/>
<text text-anchor="middle" x="362" y="-691.5" font-family="Helvetica,sans-Serif" font-size="10.00">Node::getModel</text>
</a>
</g>
</g>
<!-- Node84&#45;&gt;Node90 -->
<g id="edge18" class="edge"><title>Node84&#45;&gt;Node90</title>
<path fill="none" stroke="midnightblue" d="M205.398,-475.594C212.228,-507.682 238.475,-612.465 300,-670 304.156,-673.887 309.016,-677.17 314.145,-679.939"/>
<polygon fill="midnightblue" stroke="midnightblue" points="313.039,-683.287 323.577,-684.384 316.024,-676.955 313.039,-683.287"/>
</g>
<!-- Node91 -->
<g id="node18" class="node"><title>Node91</title>
<g id="a_node18"><a xlink:href="../../dc/dd2/classregion_model.html#a109b2dd106c9fbda2a9db402d0021fe9" target="_top" xlink:title="regionModel::merge">
<polygon fill="white" stroke="black" points="311,-608.5 311,-627.5 413,-627.5 413,-608.5 311,-608.5"/>
<text text-anchor="middle" x="362" y="-615.5" font-family="Helvetica,sans-Serif" font-size="10.00">regionModel::merge</text>
</a>
</g>
</g>
<!-- Node84&#45;&gt;Node91 -->
<g id="edge21" class="edge"><title>Node84&#45;&gt;Node91</title>
<path fill="none" stroke="midnightblue" d="M207.807,-475.672C219.189,-500.127 252.489,-564.899 300,-599 302.703,-600.94 305.611,-602.687 308.637,-604.258"/>
<polygon fill="midnightblue" stroke="midnightblue" points="307.434,-607.555 317.99,-608.466 310.306,-601.171 307.434,-607.555"/>
</g>
<!-- Node92 -->
<g id="node19" class="node"><title>Node92</title>
<g id="a_node19"><a xlink:href="../../d8/de9/class_edge_heap.html#ac36afe05c095a87767748b41dfa831a5" target="_top" xlink:title="EdgeHeap::remove">
<polygon fill="white" stroke="black" points="311.5,-228.5 311.5,-247.5 412.5,-247.5 412.5,-228.5 311.5,-228.5"/>
<text text-anchor="middle" x="362" y="-235.5" font-family="Helvetica,sans-Serif" font-size="10.00">EdgeHeap::remove</text>
</a>
</g>
</g>
<!-- Node84&#45;&gt;Node92 -->
<g id="edge22" class="edge"><title>Node84&#45;&gt;Node92</title>
<path fill="none" stroke="midnightblue" d="M210.275,-456.47C222.359,-439.141 247.874,-401.019 264,-366 285.34,-319.659 263.619,-292.767 300,-257 301.483,-255.542 303.076,-254.196 304.755,-252.952"/>
<polygon fill="midnightblue" stroke="midnightblue" points="306.978,-255.7 313.755,-247.556 303.378,-249.697 306.978,-255.7"/>
</g>
<!-- Node97 -->
<g id="node24" class="node"><title>Node97</title>
<g id="a_node24"><a xlink:href="../../dc/d8f/class_node.html#a65e1a7962c09ea80b33c2eb57ce4f362" target="_top" xlink:title="Node::removeAllEdges">
<polygon fill="white" stroke="black" points="303.5,-532.5 303.5,-551.5 420.5,-551.5 420.5,-532.5 303.5,-532.5"/>
<text text-anchor="middle" x="362" y="-539.5" font-family="Helvetica,sans-Serif" font-size="10.00">Node::removeAllEdges</text>
</a>
</g>
</g>
<!-- Node84&#45;&gt;Node97 -->
<g id="edge30" class="edge"><title>Node84&#45;&gt;Node97</title>
<path fill="none" stroke="midnightblue" d="M217.335,-475.57C235.595,-487.868 269.055,-509.264 300,-523 305.006,-525.222 310.35,-527.294 315.715,-529.19"/>
<polygon fill="midnightblue" stroke="midnightblue" points="314.734,-532.553 325.328,-532.41 316.957,-525.915 314.734,-532.553"/>
</g>
<!-- Node84&#45;&gt;Node98 -->
<g id="edge31" class="edge"><title>Node84&#45;&gt;Node98</title>
<path fill="none" stroke="midnightblue" d="M211.045,-456.434C224.102,-439.349 250.775,-401.998 264,-366 298.62,-271.764 234.221,-218.843 300,-143 301.149,-141.675 302.389,-140.441 303.704,-139.292"/>
<polygon fill="midnightblue" stroke="midnightblue" points="305.71,-142.161 311.95,-133.599 301.732,-136.401 305.71,-142.161"/>
</g>
<!-- Node99 -->
<g id="node26" class="node"><title>Node99</title>
<g id="a_node26"><a xlink:href="../../dc/d8f/class_node.html#a9305e6376add78eafd94f198df0ee745" target="_top" xlink:title="Node::setBoarderIndexX">
<polygon fill="white" stroke="black" points="300,-494.5 300,-513.5 424,-513.5 424,-494.5 300,-494.5"/>
<text text-anchor="middle" x="362" y="-501.5" font-family="Helvetica,sans-Serif" font-size="10.00">Node::setBoarderIndexX</text>
</a>
</g>
</g>
<!-- Node84&#45;&gt;Node99 -->
<g id="edge32" class="edge"><title>Node84&#45;&gt;Node99</title>
<path fill="none" stroke="midnightblue" d="M238.064,-474.339C259.615,-479.539 287.695,-486.314 311.576,-492.076"/>
<polygon fill="midnightblue" stroke="midnightblue" points="310.981,-495.532 321.523,-494.475 312.623,-488.728 310.981,-495.532"/>
</g>
<!-- Node100 -->
<g id="node27" class="node"><title>Node100</title>
<g id="a_node27"><a xlink:href="../../dc/d8f/class_node.html#aa969843e599c724456cc743b8b7f0f3b" target="_top" xlink:title="Node::setBoarderIndexY">
<polygon fill="white" stroke="black" points="300,-456.5 300,-475.5 424,-475.5 424,-456.5 300,-456.5"/>
<text text-anchor="middle" x="362" y="-463.5" font-family="Helvetica,sans-Serif" font-size="10.00">Node::setBoarderIndexY</text>
</a>
</g>
</g>
<!-- Node84&#45;&gt;Node100 -->
<g id="edge33" class="edge"><title>Node84&#45;&gt;Node100</title>
<path fill="none" stroke="midnightblue" d="M238.064,-466C253.274,-466 271.735,-466 289.678,-466"/>
<polygon fill="midnightblue" stroke="midnightblue" points="289.86,-469.5 299.86,-466 289.86,-462.5 289.86,-469.5"/>
</g>
<!-- Node101 -->
<g id="node28" class="node"><title>Node101</title>
<g id="a_node28"><a xlink:href="../../dc/d8f/class_node.html#a6ede207fb67e5aa1fb80f0230074a0c0" target="_top" xlink:title="Node::setLeftChild">
<polygon fill="white" stroke="black" points="313,-418.5 313,-437.5 411,-437.5 411,-418.5 313,-418.5"/>
<text text-anchor="middle" x="362" y="-425.5" font-family="Helvetica,sans-Serif" font-size="10.00">Node::setLeftChild</text>
</a>
</g>
</g>
<!-- Node84&#45;&gt;Node101 -->
<g id="edge34" class="edge"><title>Node84&#45;&gt;Node101</title>
<path fill="none" stroke="midnightblue" d="M238.064,-457.661C259.615,-452.461 287.695,-445.686 311.576,-439.924"/>
<polygon fill="midnightblue" stroke="midnightblue" points="312.623,-443.272 321.523,-437.525 310.981,-436.468 312.623,-443.272"/>
</g>
<!-- Node102 -->
<g id="node29" class="node"><title>Node102</title>
<g id="a_node29"><a xlink:href="../../d7/d77/class_edge.html#a9825f846eb203bc2ebe0e5ee4dcf9c3b" target="_top" xlink:title="Edge::setLength">
<polygon fill="white" stroke="black" points="318,-342.5 318,-361.5 406,-361.5 406,-342.5 318,-342.5"/>
<text text-anchor="middle" x="362" y="-349.5" font-family="Helvetica,sans-Serif" font-size="10.00">Edge::setLength</text>
</a>
</g>
</g>
<!-- Node84&#45;&gt;Node102 -->
<g id="edge35" class="edge"><title>Node84&#45;&gt;Node102</title>
<path fill="none" stroke="midnightblue" d="M210.628,-456.402C225.268,-437.348 260.674,-394.56 300,-371 303.586,-368.852 307.438,-366.924 311.401,-365.199"/>
<polygon fill="midnightblue" stroke="midnightblue" points="312.735,-368.435 320.772,-361.532 310.184,-361.916 312.735,-368.435"/>
</g>
<!-- Node103 -->
<g id="node30" class="node"><title>Node103</title>
<g id="a_node30"><a xlink:href="../../dc/d8f/class_node.html#a8a60e0e373f3acf5a26036a0b40312a1" target="_top" xlink:title="Node::setModel">
<polygon fill="white" stroke="black" points="319,-570.5 319,-589.5 405,-589.5 405,-570.5 319,-570.5"/>
<text text-anchor="middle" x="362" y="-577.5" font-family="Helvetica,sans-Serif" font-size="10.00">Node::setModel</text>
</a>
</g>
</g>
<!-- Node84&#45;&gt;Node103 -->
<g id="edge36" class="edge"><title>Node84&#45;&gt;Node103</title>
<path fill="none" stroke="midnightblue" d="M210.628,-475.598C225.268,-494.652 260.674,-537.44 300,-561 303.586,-563.148 307.438,-565.076 311.401,-566.801"/>
<polygon fill="midnightblue" stroke="midnightblue" points="310.184,-570.084 320.772,-570.468 312.735,-563.565 310.184,-570.084"/>
</g>
<!-- Node105 -->
<g id="node32" class="node"><title>Node105</title>
<g id="a_node32"><a xlink:href="../../dc/d8f/class_node.html#ad7c28414b0d242ce7c491e22cf006041" target="_top" xlink:title="Node::setParent">
<polygon fill="white" stroke="black" points="318,-304.5 318,-323.5 406,-323.5 406,-304.5 318,-304.5"/>
<text text-anchor="middle" x="362" y="-311.5" font-family="Helvetica,sans-Serif" font-size="10.00">Node::setParent</text>
</a>
</g>
</g>
<!-- Node84&#45;&gt;Node105 -->
<g id="edge38" class="edge"><title>Node84&#45;&gt;Node105</title>
<path fill="none" stroke="midnightblue" d="M207.807,-456.328C219.189,-431.873 252.489,-367.101 300,-333 302.703,-331.06 305.611,-329.313 308.637,-327.742"/>
<polygon fill="midnightblue" stroke="midnightblue" points="310.306,-330.829 317.99,-323.534 307.434,-324.445 310.306,-330.829"/>
</g>
<!-- Node106 -->
<g id="node33" class="node"><title>Node106</title>
<g id="a_node33"><a xlink:href="../../dc/d8f/class_node.html#a1b945cb9d5755aef273c43d6c7ce58bb" target="_top" xlink:title="Node::setRightChild">
<polygon fill="white" stroke="black" points="309.5,-266.5 309.5,-285.5 414.5,-285.5 414.5,-266.5 309.5,-266.5"/>
<text text-anchor="middle" x="362" y="-273.5" font-family="Helvetica,sans-Serif" font-size="10.00">Node::setRightChild</text>
</a>
</g>
</g>
<!-- Node84&#45;&gt;Node106 -->
<g id="edge39" class="edge"><title>Node84&#45;&gt;Node106</title>
<path fill="none" stroke="midnightblue" d="M209.583,-456.487C220.772,-438.874 245.193,-399.887 264,-366 281.169,-335.065 272.98,-317.84 300,-295 302.001,-293.308 304.153,-291.767 306.41,-290.363"/>
<polygon fill="midnightblue" stroke="midnightblue" points="308.295,-293.327 315.542,-285.598 305.057,-287.121 308.295,-293.327"/>
</g>
<!-- Node107 -->
<g id="node34" class="node"><title>Node107</title>
<g id="a_node34"><a xlink:href="../../d8/de9/class_edge_heap.html#a7d8eaf4111da4c024feb5f2fb8d7cafa" target="_top" xlink:title="EdgeHeap::update">
<polygon fill="white" stroke="black" points="313,-380.5 313,-399.5 411,-399.5 411,-380.5 313,-380.5"/>
<text text-anchor="middle" x="362" y="-387.5" font-family="Helvetica,sans-Serif" font-size="10.00">EdgeHeap::update</text>
</a>
</g>
</g>
<!-- Node84&#45;&gt;Node107 -->
<g id="edge40" class="edge"><title>Node84&#45;&gt;Node107</title>
<path fill="none" stroke="midnightblue" d="M217.335,-456.43C235.595,-444.132 269.055,-422.736 300,-409 305.006,-406.778 310.35,-404.706 315.715,-402.81"/>
<polygon fill="midnightblue" stroke="midnightblue" points="316.957,-406.085 325.328,-399.59 314.734,-399.447 316.957,-406.085"/>
</g>
<!-- Node93 -->
<g id="node20" class="node"><title>Node93</title>
<g id="a_node20"><a xlink:href="../../d7/d77/class_edge.html#a54017590a12f8b5e68641e678f01655f" target="_top" xlink:title="Edge::getHeapIndex">
<polygon fill="white" stroke="black" points="463,-299.5 463,-318.5 569,-318.5 569,-299.5 463,-299.5"/>
<text text-anchor="middle" x="516" y="-306.5" font-family="Helvetica,sans-Serif" font-size="10.00">Edge::getHeapIndex</text>
</a>
</g>
</g>
<!-- Node92&#45;&gt;Node93 -->
<g id="edge23" class="edge"><title>Node92&#45;&gt;Node93</title>
<path fill="none" stroke="midnightblue" d="M399.778,-247.589C407.923,-250.223 416.391,-253.371 424,-257 441.357,-265.277 443.403,-271.288 460,-281 468.197,-285.797 477.312,-290.629 485.726,-294.896"/>
<polygon fill="midnightblue" stroke="midnightblue" points="484.331,-298.112 494.841,-299.443 487.455,-291.848 484.331,-298.112"/>
</g>
<!-- Node94 -->
<g id="node21" class="node"><title>Node94</title>
<g id="a_node21"><a xlink:href="../../d8/de9/class_edge_heap.html#a71040389a82aaff7be40c94a95afc357" target="_top" xlink:title="EdgeHeap::removeAt">
<polygon fill="white" stroke="black" points="461,-252.5 461,-271.5 571,-271.5 571,-252.5 461,-252.5"/>
<text text-anchor="middle" x="516" y="-259.5" font-family="Helvetica,sans-Serif" font-size="10.00">EdgeHeap::removeAt</text>
</a>
</g>
</g>
<!-- Node92&#45;&gt;Node94 -->
<g id="edge24" class="edge"><title>Node92&#45;&gt;Node94</title>
<path fill="none" stroke="midnightblue" d="M412.77,-245.858C424.931,-247.779 438.113,-249.86 450.841,-251.87"/>
<polygon fill="midnightblue" stroke="midnightblue" points="450.499,-255.359 460.922,-253.461 451.591,-248.445 450.499,-255.359"/>
</g>
<!-- Node94&#45;&gt;Node79 -->
<g id="edge25" class="edge"><title>Node94&#45;&gt;Node79</title>
<path fill="none" stroke="midnightblue" d="M571.41,-260.713C615.795,-261.093 679.653,-264.933 733,-281 763.657,-290.233 795.518,-309.055 815.986,-322.546"/>
<polygon fill="midnightblue" stroke="midnightblue" points="814.295,-325.627 824.543,-328.315 818.208,-319.823 814.295,-325.627"/>
</g>
<!-- Node95 -->
<g id="node22" class="node"><title>Node95</title>
<g id="a_node22"><a xlink:href="../../d8/de9/class_edge_heap.html#af02715f2265926338a4b33135c821a4c" target="_top" xlink:title="EdgeHeap::heapifyDown">
<polygon fill="white" stroke="black" points="608,-328.5 608,-347.5 733,-347.5 733,-328.5 608,-328.5"/>
<text text-anchor="middle" x="670.5" y="-335.5" font-family="Helvetica,sans-Serif" font-size="10.00">EdgeHeap::heapifyDown</text>
</a>
</g>
</g>
<!-- Node94&#45;&gt;Node95 -->
<g id="edge26" class="edge"><title>Node94&#45;&gt;Node95</title>
<path fill="none" stroke="midnightblue" d="M538.199,-271.521C548.659,-276.534 561.296,-283.071 572,-290 589.247,-301.165 589.861,-309.351 608,-319 612.05,-321.154 616.382,-323.106 620.802,-324.865"/>
<polygon fill="midnightblue" stroke="midnightblue" points="619.948,-328.279 630.542,-328.412 622.343,-321.702 619.948,-328.279"/>
</g>
<!-- Node96 -->
<g id="node23" class="node"><title>Node96</title>
<g id="a_node23"><a xlink:href="../../d8/de9/class_edge_heap.html#afc03f4943c606b1d2617654cfaeeabb6" target="_top" xlink:title="EdgeHeap::heapifyUp">
<polygon fill="white" stroke="black" points="614,-290.5 614,-309.5 727,-309.5 727,-290.5 614,-290.5"/>
<text text-anchor="middle" x="670.5" y="-297.5" font-family="Helvetica,sans-Serif" font-size="10.00">EdgeHeap::heapifyUp</text>
</a>
</g>
</g>
<!-- Node94&#45;&gt;Node96 -->
<g id="edge28" class="edge"><title>Node94&#45;&gt;Node96</title>
<path fill="none" stroke="midnightblue" d="M555.482,-271.589C575.516,-276.581 600.202,-282.732 621.476,-288.033"/>
<polygon fill="midnightblue" stroke="midnightblue" points="620.745,-291.458 631.295,-290.48 622.438,-284.666 620.745,-291.458"/>
</g>
<!-- Node95&#45;&gt;Node79 -->
<g id="edge27" class="edge"><title>Node95&#45;&gt;Node79</title>
<path fill="none" stroke="midnightblue" d="M733.025,-338C741.415,-338 750.121,-338 758.768,-338"/>
<polygon fill="midnightblue" stroke="midnightblue" points="758.871,-341.5 768.871,-338 758.871,-334.5 758.871,-341.5"/>
</g>
<!-- Node96&#45;&gt;Node79 -->
<g id="edge29" class="edge"><title>Node96&#45;&gt;Node79</title>
<path fill="none" stroke="midnightblue" d="M713.515,-309.589C735.684,-314.649 763.073,-320.9 786.511,-326.249"/>
<polygon fill="midnightblue" stroke="midnightblue" points="785.759,-329.667 796.287,-328.48 787.317,-322.843 785.759,-329.667"/>
</g>
<!-- Node104 -->
<g id="node31" class="node"><title>Node104</title>
<g id="a_node31"><a xlink:href="../../dc/dd2/classregion_model.html#aebdb837024f0eb627bb15742a19b9974" target="_top" xlink:title="regionModel::setNode">
<polygon fill="white" stroke="black" points="460,-570.5 460,-589.5 572,-589.5 572,-570.5 460,-570.5"/>
<text text-anchor="middle" x="516" y="-577.5" font-family="Helvetica,sans-Serif" font-size="10.00">regionModel::setNode</text>
</a>
</g>
</g>
<!-- Node103&#45;&gt;Node104 -->
<g id="edge37" class="edge"><title>Node103&#45;&gt;Node104</title>
<path fill="none" stroke="midnightblue" d="M405.34,-580C419.044,-580 434.577,-580 449.553,-580"/>
<polygon fill="midnightblue" stroke="midnightblue" points="449.802,-583.5 459.802,-580 449.802,-576.5 449.802,-583.5"/>
</g>
<!-- Node107&#45;&gt;Node93 -->
<g id="edge41" class="edge"><title>Node107&#45;&gt;Node93</title>
<path fill="none" stroke="midnightblue" d="M399.805,-380.468C407.949,-377.831 416.409,-374.667 424,-371 427.676,-369.224 466.979,-342.202 492.717,-324.424"/>
<polygon fill="midnightblue" stroke="midnightblue" points="494.939,-327.143 501.174,-318.577 490.958,-321.385 494.939,-327.143"/>
</g>
<!-- Node108 -->
<g id="node35" class="node"><title>Node108</title>
<g id="a_node35"><a xlink:href="../../d8/de9/class_edge_heap.html#aed5f5e75856c0e3bcb8ccc29184a88c0" target="_top" xlink:title="EdgeHeap::updateAt">
<polygon fill="white" stroke="black" points="462.5,-356.5 462.5,-375.5 569.5,-375.5 569.5,-356.5 462.5,-356.5"/>
<text text-anchor="middle" x="516" y="-363.5" font-family="Helvetica,sans-Serif" font-size="10.00">EdgeHeap::updateAt</text>
</a>
</g>
</g>
<!-- Node107&#45;&gt;Node108 -->
<g id="edge42" class="edge"><title>Node107&#45;&gt;Node108</title>
<path fill="none" stroke="midnightblue" d="M411.094,-382.406C424.251,-380.329 438.705,-378.047 452.54,-375.862"/>
<polygon fill="midnightblue" stroke="midnightblue" points="453.146,-379.31 462.477,-374.293 452.054,-372.396 453.146,-379.31"/>
</g>
<!-- Node108&#45;&gt;Node79 -->
<g id="edge43" class="edge"><title>Node108&#45;&gt;Node79</title>
<path fill="none" stroke="midnightblue" d="M569.529,-365.825C613.363,-365.196 677.417,-363.157 733,-357 749.237,-355.201 766.747,-352.387 782.726,-349.471"/>
<polygon fill="midnightblue" stroke="midnightblue" points="783.793,-352.832 792.977,-347.549 782.503,-345.952 783.793,-352.832"/>
</g>
<!-- Node108&#45;&gt;Node95 -->
<g id="edge44" class="edge"><title>Node108&#45;&gt;Node95</title>
<path fill="none" stroke="midnightblue" d="M569.055,-356.442C581.447,-354.167 594.789,-351.717 607.574,-349.37"/>
<polygon fill="midnightblue" stroke="midnightblue" points="608.476,-352.763 617.679,-347.515 607.212,-345.878 608.476,-352.763"/>
</g>
<!-- Node108&#45;&gt;Node96 -->
<g id="edge45" class="edge"><title>Node108&#45;&gt;Node96</title>
<path fill="none" stroke="midnightblue" d="M533.353,-356.429C551.253,-346.222 581.008,-330.038 608,-319 613.434,-316.778 619.227,-314.668 625.003,-312.717"/>
<polygon fill="midnightblue" stroke="midnightblue" points="626.208,-316.006 634.642,-309.593 624.05,-309.347 626.208,-316.006"/>
</g>
<!-- Node109&#45;&gt;Node94 -->
<g id="edge48" class="edge"><title>Node109&#45;&gt;Node94</title>
<path fill="none" stroke="midnightblue" d="M215.032,-152.353C232.232,-138.662 266.215,-114.233 300,-105 353.162,-90.4719 376.249,-77.485 424,-105 475.972,-134.947 500.973,-207.191 510.374,-242.252"/>
<polygon fill="midnightblue" stroke="midnightblue" points="507.051,-243.389 512.892,-252.229 513.838,-241.676 507.051,-243.389"/>
</g>
</g>
</svg>
