<?xml version="1.0" encoding="UTF-8" standalone="no"?>
<!DOCTYPE svg PUBLIC "-//W3C//DTD SVG 1.1//EN"
 "http://www.w3.org/Graphics/SVG/1.1/DTD/svg11.dtd">
<!-- Generated by graphviz version 2.38.0 (20140413.2041)
 -->
<!-- Title: RAG::addNode Pages: 1 -->
<svg width="888pt" height="85pt"
 viewBox="0.00 0.00 888.00 85.00" xmlns="http://www.w3.org/2000/svg" xmlns:xlink="http://www.w3.org/1999/xlink">
<g id="graph0" class="graph" transform="scale(1 1) rotate(0) translate(4 81)">
<title>RAG::addNode</title>
<polygon fill="white" stroke="none" points="-4,4 -4,-81 884,-81 884,4 -4,4"/>
<!-- Node17 -->
<g id="node1" class="node"><title>Node17</title>
<polygon fill="#bfbfbf" stroke="black" points="0,-38.5 0,-57.5 83,-57.5 83,-38.5 0,-38.5"/>
<text text-anchor="middle" x="41.5" y="-45.5" font-family="Helvetica,sans-Serif" font-size="10.00">RAG::addNode</text>
</g>
<!-- Node18 -->
<g id="node2" class="node"><title>Node18</title>
<g id="a_node2"><a xlink:href="../../d9/db2/classinitializer.html#a9b3d57fc96d70a9ed2c0dd185ce7115e" target="_top" xlink:title="initializer::addNodesToRAG">
<polygon fill="white" stroke="black" points="119,-57.5 119,-76.5 257,-76.5 257,-57.5 119,-57.5"/>
<text text-anchor="middle" x="188" y="-64.5" font-family="Helvetica,sans-Serif" font-size="10.00">initializer::addNodesToRAG</text>
</a>
</g>
</g>
<!-- Node17&#45;&gt;Node18 -->
<g id="edge1" class="edge"><title>Node17&#45;&gt;Node18</title>
<path fill="none" stroke="midnightblue" d="M93.3153,-54.6816C101.553,-55.7648 110.2,-56.9017 118.771,-58.0287"/>
<polygon fill="midnightblue" stroke="midnightblue" points="93.5068,-51.1767 83.1358,-53.3431 92.5942,-58.117 93.5068,-51.1767"/>
</g>
<!-- Node19 -->
<g id="node3" class="node"><title>Node19</title>
<g id="a_node3"><a xlink:href="../../d9/db2/classinitializer.html#aaa8cb78ad7655020875fa970001d899e" target="_top" xlink:title="initializer::initializeRag">
<polygon fill="white" stroke="black" points="131,-19.5 131,-38.5 245,-38.5 245,-19.5 131,-19.5"/>
<text text-anchor="middle" x="188" y="-26.5" font-family="Helvetica,sans-Serif" font-size="10.00">initializer::initializeRag</text>
</a>
</g>
</g>
<!-- Node17&#45;&gt;Node19 -->
<g id="edge2" class="edge"><title>Node17&#45;&gt;Node19</title>
<path fill="none" stroke="midnightblue" d="M93.1131,-41.345C105.284,-39.7446 118.358,-38.0256 130.768,-36.3938"/>
<polygon fill="midnightblue" stroke="midnightblue" points="92.5942,-37.883 83.1358,-42.6569 93.5068,-44.8233 92.5942,-37.883"/>
</g>
<!-- Node20 -->
<g id="node4" class="node"><title>Node20</title>
<g id="a_node4"><a xlink:href="../../d1/ded/classimage.html#a12343719e8d96a4bda9c5bd6c035d52a" target="_top" xlink:title="image::mergeBlockX">
<polygon fill="white" stroke="black" points="293,-38.5 293,-57.5 400,-57.5 400,-38.5 293,-38.5"/>
<text text-anchor="middle" x="346.5" y="-45.5" font-family="Helvetica,sans-Serif" font-size="10.00">image::mergeBlockX</text>
</a>
</g>
</g>
<!-- Node19&#45;&gt;Node20 -->
<g id="edge3" class="edge"><title>Node19&#45;&gt;Node20</title>
<path fill="none" stroke="midnightblue" d="M255.083,-37.0228C267.732,-38.5585 280.815,-40.1469 292.968,-41.6223"/>
<polygon fill="midnightblue" stroke="midnightblue" points="255.407,-33.5366 245.058,-35.8058 254.563,-40.4856 255.407,-33.5366"/>
</g>
<!-- Node24 -->
<g id="node8" class="node"><title>Node24</title>
<g id="a_node8"><a xlink:href="../../d1/ded/classimage.html#aa21fc5a07af7528869425e750090b3b8" target="_top" xlink:title="image::mergeBlockY">
<polygon fill="white" stroke="black" points="293,-0.5 293,-19.5 400,-19.5 400,-0.5 293,-0.5"/>
<text text-anchor="middle" x="346.5" y="-7.5" font-family="Helvetica,sans-Serif" font-size="10.00">image::mergeBlockY</text>
</a>
</g>
</g>
<!-- Node19&#45;&gt;Node24 -->
<g id="edge7" class="edge"><title>Node19&#45;&gt;Node24</title>
<path fill="none" stroke="midnightblue" d="M255.083,-20.9772C267.732,-19.4415 280.815,-17.8531 292.968,-16.3777"/>
<polygon fill="midnightblue" stroke="midnightblue" points="254.563,-17.5144 245.058,-22.1942 255.407,-24.4634 254.563,-17.5144"/>
</g>
<!-- Node21 -->
<g id="node5" class="node"><title>Node21</title>
<g id="a_node5"><a xlink:href="../../d1/ded/classimage.html#a83026280ad6cc713ec9489ff3bd9776e" target="_top" xlink:title="image::ProcessBoundaryX">
<polygon fill="white" stroke="black" points="436,-38.5 436,-57.5 569,-57.5 569,-38.5 436,-38.5"/>
<text text-anchor="middle" x="502.5" y="-45.5" font-family="Helvetica,sans-Serif" font-size="10.00">image::ProcessBoundaryX</text>
</a>
</g>
</g>
<!-- Node20&#45;&gt;Node21 -->
<g id="edge4" class="edge"><title>Node20&#45;&gt;Node21</title>
<path fill="none" stroke="midnightblue" d="M410.216,-48C418.656,-48 427.334,-48 435.824,-48"/>
<polygon fill="midnightblue" stroke="midnightblue" points="410.067,-44.5001 400.067,-48 410.067,-51.5001 410.067,-44.5001"/>
</g>
<!-- Node22 -->
<g id="node6" class="node"><title>Node22</title>
<g id="a_node6"><a xlink:href="../../d1/ded/classimage.html#a4689c56b85c46d48ea52f0c9fa13891e" target="_top" xlink:title="image::processing">
<polygon fill="white" stroke="black" points="605,-19.5 605,-38.5 701,-38.5 701,-19.5 605,-19.5"/>
<text text-anchor="middle" x="653" y="-26.5" font-family="Helvetica,sans-Serif" font-size="10.00">image::processing</text>
</a>
</g>
</g>
<!-- Node21&#45;&gt;Node22 -->
<g id="edge5" class="edge"><title>Node21&#45;&gt;Node22</title>
<path fill="none" stroke="midnightblue" d="M579.207,-38.3136C587.858,-37.2067 596.483,-36.1032 604.612,-35.0631"/>
<polygon fill="midnightblue" stroke="midnightblue" points="578.541,-34.8701 569.067,-39.611 579.43,-41.8135 578.541,-34.8701"/>
</g>
<!-- Node23 -->
<g id="node7" class="node"><title>Node23</title>
<g id="a_node7"><a xlink:href="../../d9/dc6/class_main_window.html#a9a45eb9ebe6d27bcd23677d9fbb74dd8" target="_top" xlink:title="MainWindow::on_Go_clicked">
<polygon fill="white" stroke="black" points="737,-19.5 737,-38.5 880,-38.5 880,-19.5 737,-19.5"/>
<text text-anchor="middle" x="808.5" y="-26.5" font-family="Helvetica,sans-Serif" font-size="10.00">MainWindow::on_Go_clicked</text>
</a>
</g>
</g>
<!-- Node22&#45;&gt;Node23 -->
<g id="edge6" class="edge"><title>Node22&#45;&gt;Node23</title>
<path fill="none" stroke="midnightblue" d="M711.583,-29C719.853,-29 728.441,-29 736.928,-29"/>
<polygon fill="midnightblue" stroke="midnightblue" points="711.308,-25.5001 701.308,-29 711.308,-32.5001 711.308,-25.5001"/>
</g>
<!-- Node25 -->
<g id="node9" class="node"><title>Node25</title>
<g id="a_node9"><a xlink:href="../../d1/ded/classimage.html#adf6b8c126649c9a40387f12b5f5f07d5" target="_top" xlink:title="image::ProcessBoundaryY">
<polygon fill="white" stroke="black" points="436,-0.5 436,-19.5 569,-19.5 569,-0.5 436,-0.5"/>
<text text-anchor="middle" x="502.5" y="-7.5" font-family="Helvetica,sans-Serif" font-size="10.00">image::ProcessBoundaryY</text>
</a>
</g>
</g>
<!-- Node24&#45;&gt;Node25 -->
<g id="edge8" class="edge"><title>Node24&#45;&gt;Node25</title>
<path fill="none" stroke="midnightblue" d="M410.216,-10C418.656,-10 427.334,-10 435.824,-10"/>
<polygon fill="midnightblue" stroke="midnightblue" points="410.067,-6.5001 400.067,-10 410.067,-13.5001 410.067,-6.5001"/>
</g>
<!-- Node25&#45;&gt;Node22 -->
<g id="edge9" class="edge"><title>Node25&#45;&gt;Node22</title>
<path fill="none" stroke="midnightblue" d="M579.207,-19.6864C587.858,-20.7933 596.483,-21.8968 604.612,-22.9369"/>
<polygon fill="midnightblue" stroke="midnightblue" points="579.43,-16.1865 569.067,-18.389 578.541,-23.1299 579.43,-16.1865"/>
</g>
</g>
</svg>
