<?xml version="1.0" encoding="UTF-8" standalone="no"?>
<!DOCTYPE svg PUBLIC "-//W3C//DTD SVG 1.1//EN"
 "http://www.w3.org/Graphics/SVG/1.1/DTD/svg11.dtd">
<!-- Generated by graphviz version 2.38.0 (20140413.2041)
 -->
<!-- Title: node.h Pages: 1 -->
<!--zoomable 420 -->
<svg id="main" version="1.1" xmlns="http://www.w3.org/2000/svg" xmlns:xlink="http://www.w3.org/1999/xlink" xml:space="preserve" onload="init(evt)">
<style type="text/css"><![CDATA[
.edge:hover path { stroke: red; }
.edge:hover polygon { stroke: red; fill: red; }
]]></style>
<script type="text/javascript"><![CDATA[
var edges = document.getElementsByTagName('g');
if (edges && edges.length) {
  for (var i=0;i<edges.length;i++) {
    if (edges[i].id.substr(0,4)=='edge') {
      edges[i].setAttribute('class','edge');
    }
  }
}
]]></script>
        <defs>
                <circle id="rim" cx="0" cy="0" r="7"/>
                <circle id="rim2" cx="0" cy="0" r="3.5"/>
                <g id="zoomPlus">
                        <use xlink:href="#rim" fill="#404040">
                                <set attributeName="fill" to="#808080" begin="zoomplus.mouseover" end="zoomplus.mouseout"/>
                        </use>
                        <path d="M-4,0h8M0,-4v8" fill="none" stroke="white" stroke-width="1.5" pointer-events="none"/>
                </g>
                <g id="zoomMin">
                        <use xlink:href="#rim" fill="#404040">
                                <set attributeName="fill" to="#808080" begin="zoomminus.mouseover" end="zoomminus.mouseout"/>
                        </use>
                        <path d="M-4,0h8" fill="none" stroke="white" stroke-width="1.5" pointer-events="none"/>
                </g>
                <g id="dirArrow">
                        <path fill="none" stroke="white" stroke-width="1.5" d="M0,-3.0v7 M-2.5,-0.5L0,-3.0L2.5,-0.5"/>
                </g>
               <g id="resetDef">
                       <use xlink:href="#rim2" fill="#404040">
                               <set attributeName="fill" to="#808080" begin="reset.mouseover" end="reset.mouseout"/>
                       </use>
               </g>
        </defs>

<script type="text/javascript">
var viewWidth = 783;
var viewHeight = 420;
var sectionId = 'dynsection-1';
</script>
<script xlink:href="../../svgpan.js"/>
<svg id="graph" class="graph">
<g id="viewport">
<title>node.h</title>
<polygon fill="white" stroke="none" points="-4,4 -4,-416 778.5,-416 778.5,4 -4,4"/>
<!-- Node8 -->
<g id="node1" class="node"><title>Node8</title>
<polygon fill="#bfbfbf" stroke="black" points="525.5,-392.5 525.5,-411.5 571.5,-411.5 571.5,-392.5 525.5,-392.5"/>
<text text-anchor="middle" x="548.5" y="-399.5" font-family="Helvetica,sans-Serif" font-size="10.00">node.h</text>
</g>
<!-- Node9 -->
<g id="node2" class="node"><title>Node9</title>
<g id="a_node2"><a xlink:href="../../d7/d51/histogrammodel_8h.html" target="_top" xlink:title="histogrammodel.h">
<polygon fill="white" stroke="black" points="398.5,-336.5 398.5,-355.5 492.5,-355.5 492.5,-336.5 398.5,-336.5"/>
<text text-anchor="middle" x="445.5" y="-343.5" font-family="Helvetica,sans-Serif" font-size="10.00">histogrammodel.h</text>
</a>
</g>
</g>
<!-- Node8&#45;&gt;Node9 -->
<g id="edge1" class="edge"><title>Node8&#45;&gt;Node9</title>
<path fill="none" stroke="midnightblue" d="M522.921,-387.59C503.877,-377.605 478.436,-364.267 462.008,-355.655"/>
<polygon fill="midnightblue" stroke="midnightblue" points="521.469,-390.78 531.951,-392.324 524.72,-384.581 521.469,-390.78"/>
</g>
<!-- Node12 -->
<g id="node5" class="node"><title>Node12</title>
<g id="a_node5"><a xlink:href="../../dc/dac/io_8h.html" target="_top" xlink:title="io.h">
<polygon fill="white" stroke="black" points="227.5,-224.5 227.5,-243.5 259.5,-243.5 259.5,-224.5 227.5,-224.5"/>
<text text-anchor="middle" x="243.5" y="-231.5" font-family="Helvetica,sans-Serif" font-size="10.00">io.h</text>
</a>
</g>
</g>
<!-- Node8&#45;&gt;Node12 -->
<g id="edge29" class="edge"><title>Node8&#45;&gt;Node12</title>
<path fill="none" stroke="midnightblue" d="M515.432,-395.189C482.389,-388.579 430.712,-376.025 389.5,-356 351.439,-337.507 345.077,-327.006 312.5,-300 289.694,-281.094 264.847,-256.64 252.103,-243.786"/>
<polygon fill="midnightblue" stroke="midnightblue" points="514.986,-398.668 525.469,-397.129 516.314,-391.795 514.986,-398.668"/>
</g>
<!-- Node28 -->
<g id="node21" class="node"><title>Node28</title>
<g id="a_node21"><a xlink:href="../../d3/df4/edge_8cpp.html" target="_top" xlink:title="edge.cpp">
<polygon fill="white" stroke="black" points="548.5,-336.5 548.5,-355.5 604.5,-355.5 604.5,-336.5 548.5,-336.5"/>
<text text-anchor="middle" x="576.5" y="-343.5" font-family="Helvetica,sans-Serif" font-size="10.00">edge.cpp</text>
</a>
</g>
</g>
<!-- Node8&#45;&gt;Node28 -->
<g id="edge27" class="edge"><title>Node8&#45;&gt;Node28</title>
<path fill="none" stroke="midnightblue" d="M557.842,-382.983C562.595,-373.817 568.156,-363.092 571.962,-355.751"/>
<polygon fill="midnightblue" stroke="midnightblue" points="554.62,-381.594 553.124,-392.083 560.834,-384.817 554.62,-381.594"/>
</g>
<!-- Node29 -->
<g id="node22" class="node"><title>Node29</title>
<g id="a_node22"><a xlink:href="../../d0/dbb/edgeheap_8cpp.html" target="_top" xlink:title="edgeheap.cpp">
<polygon fill="white" stroke="black" points="623,-336.5 623,-355.5 700,-355.5 700,-336.5 623,-336.5"/>
<text text-anchor="middle" x="661.5" y="-343.5" font-family="Helvetica,sans-Serif" font-size="10.00">edgeheap.cpp</text>
</a>
</g>
</g>
<!-- Node8&#45;&gt;Node29 -->
<g id="edge28" class="edge"><title>Node8&#45;&gt;Node29</title>
<path fill="none" stroke="midnightblue" d="M575.503,-388.096C596.614,-378.007 625.362,-364.27 643.679,-355.516"/>
<polygon fill="midnightblue" stroke="midnightblue" points="573.919,-384.974 566.405,-392.444 576.937,-391.29 573.919,-384.974"/>
</g>
<!-- Node30 -->
<g id="node23" class="node"><title>Node30</title>
<g id="a_node23"><a xlink:href="../../d8/dfb/rag_8h.html" target="_top" xlink:title="rag.h">
<polygon fill="white" stroke="black" points="595.5,-280.5 595.5,-299.5 633.5,-299.5 633.5,-280.5 595.5,-280.5"/>
<text text-anchor="middle" x="614.5" y="-287.5" font-family="Helvetica,sans-Serif" font-size="10.00">rag.h</text>
</a>
</g>
</g>
<!-- Node8&#45;&gt;Node30 -->
<g id="edge30" class="edge"><title>Node8&#45;&gt;Node30</title>
<path fill="none" stroke="midnightblue" d="M540.304,-383.053C535.331,-369.327 531.359,-350.378 539.5,-336 545.747,-324.966 575.76,-309.178 595.873,-299.534"/>
<polygon fill="midnightblue" stroke="midnightblue" points="537.09,-384.441 544.118,-392.369 543.568,-381.789 537.09,-384.441"/>
</g>
<!-- Node32 -->
<g id="node25" class="node"><title>Node32</title>
<g id="a_node25"><a xlink:href="../../d7/d70/node_8cpp.html" target="_top" xlink:title="node.cpp">
<polygon fill="white" stroke="black" points="718.5,-336.5 718.5,-355.5 774.5,-355.5 774.5,-336.5 718.5,-336.5"/>
<text text-anchor="middle" x="746.5" y="-343.5" font-family="Helvetica,sans-Serif" font-size="10.00">node.cpp</text>
</a>
</g>
</g>
<!-- Node8&#45;&gt;Node32 -->
<g id="edge35" class="edge"><title>Node8&#45;&gt;Node32</title>
<path fill="none" stroke="midnightblue" d="M581.737,-391.935C620.084,-381.477 682.464,-364.464 718.461,-354.647"/>
<polygon fill="midnightblue" stroke="midnightblue" points="580.327,-388.692 571.601,-394.7 582.169,-395.445 580.327,-388.692"/>
</g>
<!-- Node10 -->
<g id="node3" class="node"><title>Node10</title>
<g id="a_node3"><a xlink:href="../../df/d5e/compoundmodel_8h.html" target="_top" xlink:title="compoundmodel.h">
<polygon fill="white" stroke="black" points="321.5,-280.5 321.5,-299.5 417.5,-299.5 417.5,-280.5 321.5,-280.5"/>
<text text-anchor="middle" x="369.5" y="-287.5" font-family="Helvetica,sans-Serif" font-size="10.00">compoundmodel.h</text>
</a>
</g>
</g>
<!-- Node9&#45;&gt;Node10 -->
<g id="edge2" class="edge"><title>Node9&#45;&gt;Node10</title>
<path fill="none" stroke="midnightblue" d="M424.924,-330.38C411.188,-320.62 393.575,-308.106 381.933,-299.834"/>
<polygon fill="midnightblue" stroke="midnightblue" points="423.11,-333.385 433.289,-336.324 427.165,-327.679 423.11,-333.385"/>
</g>
<!-- Node25 -->
<g id="node18" class="node"><title>Node25</title>
<g id="a_node18"><a xlink:href="../../d8/df5/initializer_8h.html" target="_top" xlink:title="initializer.h">
<polygon fill="white" stroke="black" points="480,-224.5 480,-243.5 543,-243.5 543,-224.5 480,-224.5"/>
<text text-anchor="middle" x="511.5" y="-231.5" font-family="Helvetica,sans-Serif" font-size="10.00">initializer.h</text>
</a>
</g>
</g>
<!-- Node9&#45;&gt;Node25 -->
<g id="edge26" class="edge"><title>Node9&#45;&gt;Node25</title>
<path fill="none" stroke="midnightblue" d="M448.282,-326.354C450.923,-312.757 455.823,-294.288 464.5,-280 473.53,-265.13 488.704,-251.866 499.362,-243.657"/>
<polygon fill="midnightblue" stroke="midnightblue" points="444.794,-325.984 446.561,-336.431 451.694,-327.163 444.794,-325.984"/>
</g>
<!-- Node27 -->
<g id="node20" class="node"><title>Node27</title>
<g id="a_node20"><a xlink:href="../../de/d59/histogrammodel_8cpp.html" target="_top" xlink:title="histogrammodel.cpp">
<polygon fill="white" stroke="black" points="473.5,-280.5 473.5,-299.5 577.5,-299.5 577.5,-280.5 473.5,-280.5"/>
<text text-anchor="middle" x="525.5" y="-287.5" font-family="Helvetica,sans-Serif" font-size="10.00">histogrammodel.cpp</text>
</a>
</g>
</g>
<!-- Node9&#45;&gt;Node27 -->
<g id="edge25" class="edge"><title>Node9&#45;&gt;Node27</title>
<path fill="none" stroke="midnightblue" d="M466.801,-330.622C481.415,-320.757 500.327,-307.992 512.679,-299.655"/>
<polygon fill="midnightblue" stroke="midnightblue" points="464.684,-327.828 458.353,-336.324 468.6,-333.63 464.684,-327.828"/>
</g>
<!-- Node11 -->
<g id="node4" class="node"><title>Node11</title>
<g id="a_node4"><a xlink:href="../../d4/d8e/compoundmodel_8cpp.html" target="_top" xlink:title="compoundmodel.cpp">
<polygon fill="white" stroke="black" points="316,-224.5 316,-243.5 423,-243.5 423,-224.5 316,-224.5"/>
<text text-anchor="middle" x="369.5" y="-231.5" font-family="Helvetica,sans-Serif" font-size="10.00">compoundmodel.cpp</text>
</a>
</g>
</g>
<!-- Node10&#45;&gt;Node11 -->
<g id="edge3" class="edge"><title>Node10&#45;&gt;Node11</title>
<path fill="none" stroke="midnightblue" d="M369.5,-269.805C369.5,-260.91 369.5,-250.78 369.5,-243.751"/>
<polygon fill="midnightblue" stroke="midnightblue" points="366,-270.083 369.5,-280.083 373,-270.083 366,-270.083"/>
</g>
<!-- Node10&#45;&gt;Node12 -->
<g id="edge4" class="edge"><title>Node10&#45;&gt;Node12</title>
<path fill="none" stroke="midnightblue" d="M340.155,-276.423C315.123,-265.695 280.056,-250.667 259.766,-241.971"/>
<polygon fill="midnightblue" stroke="midnightblue" points="338.965,-279.721 349.535,-280.444 341.722,-273.287 338.965,-279.721"/>
</g>
<!-- Node19 -->
<g id="node12" class="node"><title>Node19</title>
<g id="a_node12"><a xlink:href="../../d5/db2/image_8h.html" target="_top" xlink:title="image.h">
<polygon fill="white" stroke="black" points="388,-112.5 388,-131.5 439,-131.5 439,-112.5 388,-112.5"/>
<text text-anchor="middle" x="413.5" y="-119.5" font-family="Helvetica,sans-Serif" font-size="10.00">image.h</text>
</a>
</g>
</g>
<!-- Node10&#45;&gt;Node19 -->
<g id="edge23" class="edge"><title>Node10&#45;&gt;Node19</title>
<path fill="none" stroke="midnightblue" d="M398.6,-275.654C411.134,-268.25 424.5,-257.73 431.5,-244 441.581,-224.228 423.204,-156.091 416.117,-131.739"/>
<polygon fill="midnightblue" stroke="midnightblue" points="396.826,-272.634 389.723,-280.495 400.178,-278.78 396.826,-272.634"/>
</g>
<!-- Node20 -->
<g id="node13" class="node"><title>Node20</title>
<g id="a_node13"><a xlink:href="../../db/d11/image_8cpp.html" target="_top" xlink:title="image.cpp">
<polygon fill="white" stroke="black" points="293.5,-56.5 293.5,-75.5 355.5,-75.5 355.5,-56.5 293.5,-56.5"/>
<text text-anchor="middle" x="324.5" y="-63.5" font-family="Helvetica,sans-Serif" font-size="10.00">image.cpp</text>
</a>
</g>
</g>
<!-- Node10&#45;&gt;Node20 -->
<g id="edge24" class="edge"><title>Node10&#45;&gt;Node20</title>
<path fill="none" stroke="midnightblue" d="M339.678,-275.606C327.021,-268.234 313.577,-257.753 306.5,-244 276.537,-185.776 308.544,-102.6 320.432,-75.7289"/>
<polygon fill="midnightblue" stroke="midnightblue" points="338.187,-278.778 348.653,-280.427 341.499,-272.611 338.187,-278.778"/>
</g>
<!-- Node10&#45;&gt;Node25 -->
<g id="edge20" class="edge"><title>Node10&#45;&gt;Node25</title>
<path fill="none" stroke="midnightblue" d="M401.655,-276.772C428.328,-266.629 465.569,-252.467 489.105,-243.516"/>
<polygon fill="midnightblue" stroke="midnightblue" points="400.103,-273.618 392,-280.444 402.591,-280.16 400.103,-273.618"/>
</g>
<!-- Node13 -->
<g id="node6" class="node"><title>Node13</title>
<g id="a_node6"><a xlink:href="../../d7/da7/hoovermetrics_8h.html" target="_top" xlink:title="hoovermetrics.h">
<polygon fill="white" stroke="black" points="106.5,-112.5 106.5,-131.5 192.5,-131.5 192.5,-112.5 106.5,-112.5"/>
<text text-anchor="middle" x="149.5" y="-119.5" font-family="Helvetica,sans-Serif" font-size="10.00">hoovermetrics.h</text>
</a>
</g>
</g>
<!-- Node12&#45;&gt;Node13 -->
<g id="edge5" class="edge"><title>Node12&#45;&gt;Node13</title>
<path fill="none" stroke="midnightblue" d="M217.762,-223.352C201.441,-215.994 181.101,-204.325 168.5,-188 155.425,-171.062 151.338,-145.354 150.067,-131.908"/>
<polygon fill="midnightblue" stroke="midnightblue" points="216.725,-226.714 227.299,-227.38 219.448,-220.265 216.725,-226.714"/>
</g>
<!-- Node18 -->
<g id="node11" class="node"><title>Node18</title>
<g id="a_node11"><a xlink:href="../../d3/d94/imageblock_8h.html" target="_top" xlink:title="imageblock.h">
<polygon fill="white" stroke="black" points="533.5,-168.5 533.5,-187.5 607.5,-187.5 607.5,-168.5 533.5,-168.5"/>
<text text-anchor="middle" x="570.5" y="-175.5" font-family="Helvetica,sans-Serif" font-size="10.00">imageblock.h</text>
</a>
</g>
</g>
<!-- Node12&#45;&gt;Node18 -->
<g id="edge11" class="edge"><title>Node12&#45;&gt;Node18</title>
<path fill="none" stroke="midnightblue" d="M269.597,-229.128C319.295,-221.685 430.919,-204.643 524.5,-188 527.384,-187.487 530.367,-186.94 533.363,-186.38"/>
<polygon fill="midnightblue" stroke="midnightblue" points="269.062,-225.669 259.688,-230.607 270.096,-232.592 269.062,-225.669"/>
</g>
<!-- Node12&#45;&gt;Node19 -->
<g id="edge18" class="edge"><title>Node12&#45;&gt;Node19</title>
<path fill="none" stroke="midnightblue" d="M265.578,-218.714C301.401,-195.535 371.108,-150.43 400.222,-131.591"/>
<polygon fill="midnightblue" stroke="midnightblue" points="263.334,-215.997 256.84,-224.368 267.137,-221.874 263.334,-215.997"/>
</g>
<!-- Node24 -->
<g id="node17" class="node"><title>Node24</title>
<g id="a_node17"><a xlink:href="../../d5/d5a/io_8cpp.html" target="_top" xlink:title="io.cpp">
<polygon fill="white" stroke="black" points="178,-168.5 178,-187.5 221,-187.5 221,-168.5 178,-168.5"/>
<text text-anchor="middle" x="199.5" y="-175.5" font-family="Helvetica,sans-Serif" font-size="10.00">io.cpp</text>
</a>
</g>
</g>
<!-- Node12&#45;&gt;Node24 -->
<g id="edge19" class="edge"><title>Node12&#45;&gt;Node24</title>
<path fill="none" stroke="midnightblue" d="M229.765,-216.144C222.099,-206.736 212.867,-195.405 206.631,-187.751"/>
<polygon fill="midnightblue" stroke="midnightblue" points="227.204,-218.541 236.234,-224.083 232.631,-214.12 227.204,-218.541"/>
</g>
<!-- Node14 -->
<g id="node7" class="node"><title>Node14</title>
<g id="a_node7"><a xlink:href="../../dc/d17/hoovercalculator_8h.html" target="_top" xlink:title="hoovercalculator.h">
<polygon fill="white" stroke="black" points="25.5,-56.5 25.5,-75.5 121.5,-75.5 121.5,-56.5 25.5,-56.5"/>
<text text-anchor="middle" x="73.5" y="-63.5" font-family="Helvetica,sans-Serif" font-size="10.00">hoovercalculator.h</text>
</a>
</g>
</g>
<!-- Node13&#45;&gt;Node14 -->
<g id="edge6" class="edge"><title>Node13&#45;&gt;Node14</title>
<path fill="none" stroke="midnightblue" d="M128.924,-106.38C115.188,-96.6204 97.5747,-84.1057 85.9329,-75.8339"/>
<polygon fill="midnightblue" stroke="midnightblue" points="127.11,-109.385 137.289,-112.324 131.165,-103.679 127.11,-109.385"/>
</g>
<!-- Node16 -->
<g id="node9" class="node"><title>Node16</title>
<g id="a_node9"><a xlink:href="../../d8/dd9/mainwindow_8cpp.html" target="_top" xlink:title="mainwindow.cpp">
<polygon fill="white" stroke="black" points="125,-0.5 125,-19.5 214,-19.5 214,-0.5 125,-0.5"/>
<text text-anchor="middle" x="169.5" y="-7.5" font-family="Helvetica,sans-Serif" font-size="10.00">mainwindow.cpp</text>
</a>
</g>
</g>
<!-- Node13&#45;&gt;Node16 -->
<g id="edge10" class="edge"><title>Node13&#45;&gt;Node16</title>
<path fill="none" stroke="midnightblue" d="M152.891,-102.348C157.272,-78.2538 164.717,-37.3079 167.938,-19.5914"/>
<polygon fill="midnightblue" stroke="midnightblue" points="149.415,-101.904 151.069,-112.368 156.302,-103.156 149.415,-101.904"/>
</g>
<!-- Node17 -->
<g id="node10" class="node"><title>Node17</title>
<g id="a_node10"><a xlink:href="../../d2/da0/hoovermetrics_8cpp.html" target="_top" xlink:title="hoovermetrics.cpp">
<polygon fill="white" stroke="black" points="178,-56.5 178,-75.5 275,-75.5 275,-56.5 178,-56.5"/>
<text text-anchor="middle" x="226.5" y="-63.5" font-family="Helvetica,sans-Serif" font-size="10.00">hoovermetrics.cpp</text>
</a>
</g>
</g>
<!-- Node13&#45;&gt;Node17 -->
<g id="edge9" class="edge"><title>Node13&#45;&gt;Node17</title>
<path fill="none" stroke="midnightblue" d="M170.401,-106.342C184.411,-96.5169 202.383,-83.9132 214.159,-75.6545"/>
<polygon fill="midnightblue" stroke="midnightblue" points="168.049,-103.717 161.871,-112.324 172.068,-109.448 168.049,-103.717"/>
</g>
<!-- Node15 -->
<g id="node8" class="node"><title>Node15</title>
<g id="a_node8"><a xlink:href="../../d7/d5f/hoovercalculator_8cpp.html" target="_top" xlink:title="hoovercalculator.cpp">
<polygon fill="white" stroke="black" points="0,-0.5 0,-19.5 107,-19.5 107,-0.5 0,-0.5"/>
<text text-anchor="middle" x="53.5" y="-7.5" font-family="Helvetica,sans-Serif" font-size="10.00">hoovercalculator.cpp</text>
</a>
</g>
</g>
<!-- Node14&#45;&gt;Node15 -->
<g id="edge7" class="edge"><title>Node14&#45;&gt;Node15</title>
<path fill="none" stroke="midnightblue" d="M66.7184,-46.6897C63.3478,-37.589 59.4312,-27.0141 56.7411,-19.7511"/>
<polygon fill="midnightblue" stroke="midnightblue" points="63.4421,-47.9211 70.1974,-56.083 70.0063,-45.4899 63.4421,-47.9211"/>
</g>
<!-- Node14&#45;&gt;Node16 -->
<g id="edge8" class="edge"><title>Node14&#45;&gt;Node16</title>
<path fill="none" stroke="midnightblue" d="M98.0736,-51.1774C115.739,-41.2407 139.013,-28.1492 154.114,-19.6545"/>
<polygon fill="midnightblue" stroke="midnightblue" points="95.9239,-48.3708 88.9241,-56.324 99.3558,-54.4718 95.9239,-48.3708"/>
</g>
<!-- Node18&#45;&gt;Node19 -->
<g id="edge12" class="edge"><title>Node18&#45;&gt;Node19</title>
<path fill="none" stroke="midnightblue" d="M536.111,-165.172C506.548,-155.004 464.627,-140.585 438.261,-131.516"/>
<polygon fill="midnightblue" stroke="midnightblue" points="535.028,-168.501 545.623,-168.444 537.305,-161.881 535.028,-168.501"/>
</g>
<!-- Node23 -->
<g id="node16" class="node"><title>Node23</title>
<g id="a_node16"><a xlink:href="../../d6/db7/imageblock_8cpp.html" target="_top" xlink:title="imageblock.cpp">
<polygon fill="white" stroke="black" points="528,-112.5 528,-131.5 613,-131.5 613,-112.5 528,-112.5"/>
<text text-anchor="middle" x="570.5" y="-119.5" font-family="Helvetica,sans-Serif" font-size="10.00">imageblock.cpp</text>
</a>
</g>
</g>
<!-- Node18&#45;&gt;Node23 -->
<g id="edge17" class="edge"><title>Node18&#45;&gt;Node23</title>
<path fill="none" stroke="midnightblue" d="M570.5,-157.805C570.5,-148.91 570.5,-138.78 570.5,-131.751"/>
<polygon fill="midnightblue" stroke="midnightblue" points="567,-158.083 570.5,-168.083 574,-158.083 567,-158.083"/>
</g>
<!-- Node19&#45;&gt;Node20 -->
<g id="edge13" class="edge"><title>Node19&#45;&gt;Node20</title>
<path fill="none" stroke="midnightblue" d="M390.262,-106.901C373.942,-96.9986 352.635,-84.0705 338.764,-75.6545"/>
<polygon fill="midnightblue" stroke="midnightblue" points="388.836,-110.129 399.201,-112.324 392.467,-104.144 388.836,-110.129"/>
</g>
<!-- Node21 -->
<g id="node14" class="node"><title>Node21</title>
<g id="a_node14"><a xlink:href="../../d9/d53/mainwindow_8h.html" target="_top" xlink:title="mainwindow.h">
<polygon fill="white" stroke="black" points="374,-56.5 374,-75.5 453,-75.5 453,-56.5 374,-56.5"/>
<text text-anchor="middle" x="413.5" y="-63.5" font-family="Helvetica,sans-Serif" font-size="10.00">mainwindow.h</text>
</a>
</g>
</g>
<!-- Node19&#45;&gt;Node21 -->
<g id="edge14" class="edge"><title>Node19&#45;&gt;Node21</title>
<path fill="none" stroke="midnightblue" d="M413.5,-101.805C413.5,-92.9102 413.5,-82.7798 413.5,-75.7511"/>
<polygon fill="midnightblue" stroke="midnightblue" points="410,-102.083 413.5,-112.083 417,-102.083 410,-102.083"/>
</g>
<!-- Node21&#45;&gt;Node16 -->
<g id="edge16" class="edge"><title>Node21&#45;&gt;Node16</title>
<path fill="none" stroke="midnightblue" d="M365.068,-54.2815C318.959,-44.0769 250.473,-28.9203 207.982,-19.5164"/>
<polygon fill="midnightblue" stroke="midnightblue" points="364.317,-57.6999 374.837,-56.4435 365.83,-50.8653 364.317,-57.6999"/>
</g>
<!-- Node22 -->
<g id="node15" class="node"><title>Node22</title>
<g id="a_node15"><a xlink:href="../../df/d0a/main_8cpp.html" target="_top" xlink:title="main.cpp">
<polygon fill="white" stroke="black" points="385.5,-0.5 385.5,-19.5 441.5,-19.5 441.5,-0.5 385.5,-0.5"/>
<text text-anchor="middle" x="413.5" y="-7.5" font-family="Helvetica,sans-Serif" font-size="10.00">main.cpp</text>
</a>
</g>
</g>
<!-- Node21&#45;&gt;Node22 -->
<g id="edge15" class="edge"><title>Node21&#45;&gt;Node22</title>
<path fill="none" stroke="midnightblue" d="M413.5,-45.8045C413.5,-36.9102 413.5,-26.7798 413.5,-19.7511"/>
<polygon fill="midnightblue" stroke="midnightblue" points="410,-46.083 413.5,-56.083 417,-46.083 410,-46.083"/>
</g>
<!-- Node25&#45;&gt;Node18 -->
<g id="edge21" class="edge"><title>Node25&#45;&gt;Node18</title>
<path fill="none" stroke="midnightblue" d="M528.395,-217.537C538.915,-207.909 552.069,-195.869 560.848,-187.834"/>
<polygon fill="midnightblue" stroke="midnightblue" points="525.993,-214.99 520.979,-224.324 530.719,-220.154 525.993,-214.99"/>
</g>
<!-- Node26 -->
<g id="node19" class="node"><title>Node26</title>
<g id="a_node19"><a xlink:href="../../d5/de2/initializer_8cpp.html" target="_top" xlink:title="initializer.cpp">
<polygon fill="white" stroke="black" points="441.5,-168.5 441.5,-187.5 515.5,-187.5 515.5,-168.5 441.5,-168.5"/>
<text text-anchor="middle" x="478.5" y="-175.5" font-family="Helvetica,sans-Serif" font-size="10.00">initializer.cpp</text>
</a>
</g>
</g>
<!-- Node25&#45;&gt;Node26 -->
<g id="edge22" class="edge"><title>Node25&#45;&gt;Node26</title>
<path fill="none" stroke="midnightblue" d="M500.668,-215.275C495.028,-206.045 488.382,-195.17 483.848,-187.751"/>
<polygon fill="midnightblue" stroke="midnightblue" points="497.85,-217.375 506.051,-224.083 503.823,-213.725 497.85,-217.375"/>
</g>
<!-- Node30&#45;&gt;Node18 -->
<g id="edge31" class="edge"><title>Node30&#45;&gt;Node18</title>
<path fill="none" stroke="midnightblue" d="M607.299,-270.998C597.699,-246.997 581.087,-205.468 573.937,-187.591"/>
<polygon fill="midnightblue" stroke="midnightblue" points="604.084,-272.384 611.047,-280.368 610.583,-269.784 604.084,-272.384"/>
</g>
<!-- Node30&#45;&gt;Node19 -->
<g id="edge33" class="edge"><title>Node30&#45;&gt;Node19</title>
<path fill="none" stroke="midnightblue" d="M621.393,-270.487C629.74,-244.536 639.974,-197.247 616.5,-168 594.526,-140.622 488.762,-128.87 439.213,-124.803"/>
<polygon fill="midnightblue" stroke="midnightblue" points="617.999,-269.594 618.035,-280.188 624.614,-271.883 617.999,-269.594"/>
</g>
<!-- Node30&#45;&gt;Node25 -->
<g id="edge32" class="edge"><title>Node30&#45;&gt;Node25</title>
<path fill="none" stroke="midnightblue" d="M588.921,-275.59C569.877,-265.605 544.436,-252.267 528.008,-243.655"/>
<polygon fill="midnightblue" stroke="midnightblue" points="587.469,-278.78 597.951,-280.324 590.72,-272.581 587.469,-278.78"/>
</g>
<!-- Node31 -->
<g id="node24" class="node"><title>Node31</title>
<g id="a_node24"><a xlink:href="../../db/da1/rag_8cpp.html" target="_top" xlink:title="rag.cpp">
<polygon fill="white" stroke="black" points="664,-224.5 664,-243.5 713,-243.5 713,-224.5 664,-224.5"/>
<text text-anchor="middle" x="688.5" y="-231.5" font-family="Helvetica,sans-Serif" font-size="10.00">rag.cpp</text>
</a>
</g>
</g>
<!-- Node30&#45;&gt;Node31 -->
<g id="edge34" class="edge"><title>Node30&#45;&gt;Node31</title>
<path fill="none" stroke="midnightblue" d="M634.534,-274.38C647.909,-264.62 665.059,-252.106 676.394,-243.834"/>
<polygon fill="midnightblue" stroke="midnightblue" points="632.404,-271.602 626.389,-280.324 636.53,-277.257 632.404,-271.602"/>
</g>
</g>
</svg>
        <g id="navigator" transform="translate(0 0)" fill="#404254">
                <rect fill="#f2f5e9" fill-opacity="0.5" stroke="#606060" stroke-width=".5" x="0" y="0" width="60" height="60"/>
                <use id="zoomplus" xlink:href="#zoomPlus" x="17" y="9" onmousedown="handleZoom(evt,'in')"/>
                <use id="zoomminus" xlink:href="#zoomMin" x="42" y="9" onmousedown="handleZoom(evt,'out')"/>
                <use id="reset" xlink:href="#resetDef" x="30" y="36" onmousedown="handleReset()"/>
                <g id="arrowUp" xlink:href="#dirArrow" transform="translate(30 24)" onmousedown="handlePan(0,-1)">
                  <use xlink:href="#rim" fill="#404040">
                        <set attributeName="fill" to="#808080" begin="arrowUp.mouseover" end="arrowUp.mouseout"/>
                  </use>
                  <path fill="none" stroke="white" stroke-width="1.5" d="M0,-3.0v7 M-2.5,-0.5L0,-3.0L2.5,-0.5"/>
                </g>
                <g id="arrowRight" xlink:href="#dirArrow" transform="rotate(90) translate(36 -43)" onmousedown="handlePan(1,0)">
                  <use xlink:href="#rim" fill="#404040">
                        <set attributeName="fill" to="#808080" begin="arrowRight.mouseover" end="arrowRight.mouseout"/>
                  </use>
                  <path fill="none" stroke="white" stroke-width="1.5" d="M0,-3.0v7 M-2.5,-0.5L0,-3.0L2.5,-0.5"/>
                </g>
                <g id="arrowDown" xlink:href="#dirArrow" transform="rotate(180) translate(-30 -48)" onmousedown="handlePan(0,1)">
                  <use xlink:href="#rim" fill="#404040">
                        <set attributeName="fill" to="#808080" begin="arrowDown.mouseover" end="arrowDown.mouseout"/>
                  </use>
                  <path fill="none" stroke="white" stroke-width="1.5" d="M0,-3.0v7 M-2.5,-0.5L0,-3.0L2.5,-0.5"/>
                </g>
                <g id="arrowLeft" xlink:href="#dirArrow" transform="rotate(270) translate(-36 17)" onmousedown="handlePan(-1,0)">
                  <use xlink:href="#rim" fill="#404040">
                        <set attributeName="fill" to="#808080" begin="arrowLeft.mouseover" end="arrowLeft.mouseout"/>
                  </use>
                  <path fill="none" stroke="white" stroke-width="1.5" d="M0,-3.0v7 M-2.5,-0.5L0,-3.0L2.5,-0.5"/>
                </g>
        </g>
        <svg viewBox="0 0 15 15" width="100%" height="30px" preserveAspectRatio="xMaxYMin meet">
         <g id="arrow_out" transform="scale(0.3 0.3)">
          <a xlink:href="node_8h__dep__incl_org.svg" target="_base">
           <rect id="button" ry="5" rx="5" y="6" x="6" height="38" width="38"
                fill="#f2f5e9" fill-opacity="0.5" stroke="#606060" stroke-width="1.0"/>
           <path id="arrow"
             d="M 11.500037,31.436501 C 11.940474,20.09759 22.043105,11.32322 32.158766,21.979434 L 37.068811,17.246167 C 37.068811,17.246167 37.088388,32 37.088388,32 L 22.160133,31.978069 C 22.160133,31.978069 26.997745,27.140456 26.997745,27.140456 C 18.528582,18.264221 13.291696,25.230495 11.500037,31.436501 z"
             style="fill:#404040;"/>
          </a>
         </g>
        </svg>
</svg>
