<?xml version="1.0" encoding="UTF-8" standalone="no"?>
<!DOCTYPE svg PUBLIC "-//W3C//DTD SVG 1.1//EN"
 "http://www.w3.org/Graphics/SVG/1.1/DTD/svg11.dtd">
<!-- Generated by graphviz version 2.38.0 (20140413.2041)
 -->
<!-- Title: compoundModel::printHistogram Pages: 1 -->
<svg width="582pt" height="180pt"
 viewBox="0.00 0.00 582.00 180.00" xmlns="http://www.w3.org/2000/svg" xmlns:xlink="http://www.w3.org/1999/xlink">
<g id="graph0" class="graph" transform="scale(1 1) rotate(0) translate(4 176)">
<title>compoundModel::printHistogram</title>
<polygon fill="white" stroke="none" points="-4,4 -4,-176 578,-176 578,4 -4,4"/>
<!-- Node82 -->
<g id="node1" class="node"><title>Node82</title>
<polygon fill="#bfbfbf" stroke="black" points="0,-76.5 0,-95.5 158,-95.5 158,-76.5 0,-76.5"/>
<text text-anchor="middle" x="79" y="-83.5" font-family="Helvetica,sans-Serif" font-size="10.00">compoundModel::printHistogram</text>
</g>
<!-- Node83 -->
<g id="node2" class="node"><title>Node83</title>
<g id="a_node2"><a xlink:href="../../d1/dd7/classcompound_model.html#a3b415a65b71a0db08f189f9c351f9f80" target="_top" xlink:title="compoundModel::getMeanSpectrum">
<polygon fill="white" stroke="black" points="194,-152.5 194,-171.5 367,-171.5 367,-152.5 194,-152.5"/>
<text text-anchor="middle" x="280.5" y="-159.5" font-family="Helvetica,sans-Serif" font-size="10.00">compoundModel::getMeanSpectrum</text>
</a>
</g>
</g>
<!-- Node82&#45;&gt;Node83 -->
<g id="edge1" class="edge"><title>Node82&#45;&gt;Node83</title>
<path fill="none" stroke="midnightblue" d="M96.0565,-95.617C117.635,-108.165 157.508,-130.044 194,-143 201.355,-145.611 209.198,-147.939 217.037,-149.993"/>
<polygon fill="midnightblue" stroke="midnightblue" points="216.379,-153.436 226.928,-152.447 218.066,-146.642 216.379,-153.436"/>
</g>
<!-- Node85 -->
<g id="node4" class="node"><title>Node85</title>
<g id="a_node4"><a xlink:href="../../d1/dd7/classcompound_model.html#ac7f2c9358e0ac7945d02d160f5999a5f" target="_top" xlink:title="compoundModel::getProbability">
<polygon fill="white" stroke="black" points="204,-114.5 204,-133.5 357,-133.5 357,-114.5 204,-114.5"/>
<text text-anchor="middle" x="280.5" y="-121.5" font-family="Helvetica,sans-Serif" font-size="10.00">compoundModel::getProbability</text>
</a>
</g>
</g>
<!-- Node82&#45;&gt;Node85 -->
<g id="edge3" class="edge"><title>Node82&#45;&gt;Node85</title>
<path fill="none" stroke="midnightblue" d="M130.085,-95.54C157.239,-100.712 190.986,-107.14 219.533,-112.578"/>
<polygon fill="midnightblue" stroke="midnightblue" points="218.916,-116.023 229.395,-114.456 220.226,-109.147 218.916,-116.023"/>
</g>
<!-- Node87 -->
<g id="node6" class="node"><title>Node87</title>
<g id="a_node6"><a xlink:href="../../d1/dd7/classcompound_model.html#aa843ad54b59e7a02a3b85a0b8578a750" target="_top" xlink:title="compoundModel::getProbModel">
<polygon fill="white" stroke="black" points="203.5,-76.5 203.5,-95.5 357.5,-95.5 357.5,-76.5 203.5,-76.5"/>
<text text-anchor="middle" x="280.5" y="-83.5" font-family="Helvetica,sans-Serif" font-size="10.00">compoundModel::getProbModel</text>
</a>
</g>
</g>
<!-- Node82&#45;&gt;Node87 -->
<g id="edge5" class="edge"><title>Node82&#45;&gt;Node87</title>
<path fill="none" stroke="midnightblue" d="M158.275,-86C169.758,-86 181.639,-86 193.27,-86"/>
<polygon fill="midnightblue" stroke="midnightblue" points="193.411,-89.5001 203.411,-86 193.411,-82.5001 193.411,-89.5001"/>
</g>
<!-- Node88 -->
<g id="node7" class="node"><title>Node88</title>
<g id="a_node7"><a xlink:href="../../dc/d13/classhistogram_model.html#ada08ac02a2b33896ef234a8ee5756dfb" target="_top" xlink:title="histogramModel::printHistogram">
<polygon fill="white" stroke="black" points="203,-38.5 203,-57.5 358,-57.5 358,-38.5 203,-38.5"/>
<text text-anchor="middle" x="280.5" y="-45.5" font-family="Helvetica,sans-Serif" font-size="10.00">histogramModel::printHistogram</text>
</a>
</g>
</g>
<!-- Node82&#45;&gt;Node88 -->
<g id="edge6" class="edge"><title>Node82&#45;&gt;Node88</title>
<path fill="none" stroke="midnightblue" d="M130.085,-76.46C157.239,-71.2878 190.986,-64.8599 219.533,-59.4222"/>
<polygon fill="midnightblue" stroke="midnightblue" points="220.226,-62.8533 229.395,-57.5439 218.916,-55.9769 220.226,-62.8533"/>
</g>
<!-- Node89 -->
<g id="node8" class="node"><title>Node89</title>
<g id="a_node8"><a xlink:href="../../d1/dd7/classcompound_model.html#a362e93e0481b5a5b9a3801f505fe99d2" target="_top" xlink:title="compoundModel::setProbModel">
<polygon fill="white" stroke="black" points="203.5,-0.5 203.5,-19.5 357.5,-19.5 357.5,-0.5 203.5,-0.5"/>
<text text-anchor="middle" x="280.5" y="-7.5" font-family="Helvetica,sans-Serif" font-size="10.00">compoundModel::setProbModel</text>
</a>
</g>
</g>
<!-- Node82&#45;&gt;Node89 -->
<g id="edge7" class="edge"><title>Node82&#45;&gt;Node89</title>
<path fill="none" stroke="midnightblue" d="M96.0565,-76.383C117.635,-63.8349 157.508,-41.9561 194,-29 201.355,-26.3887 209.198,-24.0607 217.037,-22.0073"/>
<polygon fill="midnightblue" stroke="midnightblue" points="218.066,-25.3584 226.928,-19.5528 216.379,-18.5645 218.066,-25.3584"/>
</g>
<!-- Node84 -->
<g id="node3" class="node"><title>Node84</title>
<g id="a_node3"><a xlink:href="../../dc/d13/classhistogram_model.html#acf84f499612ad9ce391e9c5bd58d224c" target="_top" xlink:title="histogramModel::getMeanSpectrum">
<polygon fill="white" stroke="black" points="403,-152.5 403,-171.5 574,-171.5 574,-152.5 403,-152.5"/>
<text text-anchor="middle" x="488.5" y="-159.5" font-family="Helvetica,sans-Serif" font-size="10.00">histogramModel::getMeanSpectrum</text>
</a>
</g>
</g>
<!-- Node83&#45;&gt;Node84 -->
<g id="edge2" class="edge"><title>Node83&#45;&gt;Node84</title>
<path fill="none" stroke="midnightblue" d="M367.073,-162C375.574,-162 384.239,-162 392.826,-162"/>
<polygon fill="midnightblue" stroke="midnightblue" points="392.856,-165.5 402.856,-162 392.856,-158.5 392.856,-165.5"/>
</g>
<!-- Node86 -->
<g id="node5" class="node"><title>Node86</title>
<g id="a_node5"><a xlink:href="../../da/d99/classprobability_model.html#ad168dd659368dab81336fade44084bb8" target="_top" xlink:title="probabilityModel::getProbability">
<polygon fill="white" stroke="black" points="412.5,-114.5 412.5,-133.5 564.5,-133.5 564.5,-114.5 412.5,-114.5"/>
<text text-anchor="middle" x="488.5" y="-121.5" font-family="Helvetica,sans-Serif" font-size="10.00">probabilityModel::getProbability</text>
</a>
</g>
</g>
<!-- Node85&#45;&gt;Node86 -->
<g id="edge4" class="edge"><title>Node85&#45;&gt;Node86</title>
<path fill="none" stroke="midnightblue" d="M357.037,-124C371.685,-124 387.132,-124 402.071,-124"/>
<polygon fill="midnightblue" stroke="midnightblue" points="402.316,-127.5 412.316,-124 402.316,-120.5 402.316,-127.5"/>
</g>
</g>
</svg>
