<?xml version="1.0" encoding="UTF-8" standalone="no"?>
<!DOCTYPE svg PUBLIC "-//W3C//DTD SVG 1.1//EN"
 "http://www.w3.org/Graphics/SVG/1.1/DTD/svg11.dtd">
<!-- Generated by graphviz version 2.38.0 (20140413.2041)
 -->
<!-- Title: compoundModel::setHistogramModel Pages: 1 -->
<svg width="319pt" height="116pt"
 viewBox="0.00 0.00 319.00 115.50" xmlns="http://www.w3.org/2000/svg" xmlns:xlink="http://www.w3.org/1999/xlink">
<g id="graph0" class="graph" transform="scale(1 1) rotate(0) translate(4 111.5)">
<title>compoundModel::setHistogramModel</title>
<polygon fill="white" stroke="none" points="-4,4 -4,-111.5 315,-111.5 315,4 -4,4"/>
<!-- Node92 -->
<g id="node1" class="node"><title>Node92</title>
<polygon fill="#bfbfbf" stroke="black" points="0,-33 0,-63 152,-63 152,-33 0,-33"/>
<text text-anchor="start" x="8" y="-51" font-family="Helvetica,sans-Serif" font-size="10.00">compoundModel::setHistogram</text>
<text text-anchor="middle" x="76" y="-40" font-family="Helvetica,sans-Serif" font-size="10.00">Model</text>
</g>
<!-- Node93 -->
<g id="node2" class="node"><title>Node93</title>
<g id="a_node2"><a xlink:href="../../d9/db2/classinitializer.html#aae2e2bacda8c250dd464c6a6277c3e7b" target="_top" xlink:title="initializer::addEmpytHist\lModel">
<polygon fill="white" stroke="black" points="188,-77 188,-107 311,-107 311,-77 188,-77"/>
<text text-anchor="start" x="196" y="-95" font-family="Helvetica,sans-Serif" font-size="10.00">initializer::addEmpytHist</text>
<text text-anchor="middle" x="249.5" y="-84" font-family="Helvetica,sans-Serif" font-size="10.00">Model</text>
</a>
</g>
</g>
<!-- Node92&#45;&gt;Node93 -->
<g id="edge1" class="edge"><title>Node92&#45;&gt;Node93</title>
<path fill="none" stroke="midnightblue" d="M145.577,-65.5941C160.268,-69.3632 175.66,-73.3122 189.932,-76.9738"/>
<polygon fill="midnightblue" stroke="midnightblue" points="146.097,-62.1142 135.541,-63.0192 144.357,-68.8946 146.097,-62.1142"/>
</g>
<!-- Node94 -->
<g id="node3" class="node"><title>Node94</title>
<g id="a_node3"><a xlink:href="../../d1/dd7/classcompound_model.html#abcb9db15611b3866feebf88f0d2fdff8" target="_top" xlink:title="compoundModel::clone">
<polygon fill="white" stroke="black" points="191,-38.5 191,-57.5 308,-57.5 308,-38.5 191,-38.5"/>
<text text-anchor="middle" x="249.5" y="-45.5" font-family="Helvetica,sans-Serif" font-size="10.00">compoundModel::clone</text>
</a>
</g>
</g>
<!-- Node92&#45;&gt;Node94 -->
<g id="edge2" class="edge"><title>Node92&#45;&gt;Node94</title>
<path fill="none" stroke="midnightblue" d="M162.29,-48C171.974,-48 181.666,-48 190.871,-48"/>
<polygon fill="midnightblue" stroke="midnightblue" points="162.222,-44.5001 152.222,-48 162.222,-51.5001 162.222,-44.5001"/>
</g>
<!-- Node95 -->
<g id="node4" class="node"><title>Node95</title>
<g id="a_node4"><a xlink:href="../../d1/dd7/classcompound_model.html#a3a4f1be5ccd6230918036dcc56328033" target="_top" xlink:title="compoundModel::merge">
<polygon fill="white" stroke="black" points="189,-0.5 189,-19.5 310,-19.5 310,-0.5 189,-0.5"/>
<text text-anchor="middle" x="249.5" y="-7.5" font-family="Helvetica,sans-Serif" font-size="10.00">compoundModel::merge</text>
</a>
</g>
</g>
<!-- Node92&#45;&gt;Node95 -->
<g id="edge3" class="edge"><title>Node92&#45;&gt;Node95</title>
<path fill="none" stroke="midnightblue" d="M154.967,-30.7245C172.389,-26.8642 190.243,-22.9082 205.621,-19.5009"/>
<polygon fill="midnightblue" stroke="midnightblue" points="153.787,-27.4009 144.781,-32.9814 155.302,-34.2352 153.787,-27.4009"/>
</g>
</g>
</svg>
