<?xml version="1.0" encoding="UTF-8" standalone="no"?>
<!DOCTYPE svg PUBLIC "-//W3C//DTD SVG 1.1//EN"
 "http://www.w3.org/Graphics/SVG/1.1/DTD/svg11.dtd">
<!-- Generated by graphviz version 2.38.0 (20140413.2041)
 -->
<!-- Title: Edge Pages: 1 -->
<svg width="164pt" height="119pt"
 viewBox="0.00 0.00 163.50 119.00" xmlns="http://www.w3.org/2000/svg" xmlns:xlink="http://www.w3.org/1999/xlink">
<g id="graph0" class="graph" transform="scale(1 1) rotate(0) translate(4 115)">
<title>Edge</title>
<polygon fill="white" stroke="none" points="-4,4 -4,-115 159.5,-115 159.5,4 -4,4"/>
<!-- Node1 -->
<g id="node1" class="node"><title>Node1</title>
<polygon fill="#bfbfbf" stroke="black" points="0,-0.5 0,-19.5 39,-19.5 39,-0.5 0,-0.5"/>
<text text-anchor="middle" x="19.5" y="-7.5" font-family="Helvetica,sans-Serif" font-size="10.00">Edge</text>
</g>
<!-- Node2 -->
<g id="node2" class="node"><title>Node2</title>
<g id="a_node2"><a xlink:href="../../dc/d8f/class_node.html" target="_top" xlink:title="Node">
<polygon fill="white" stroke="black" points="52.5,-85 52.5,-104 92.5,-104 92.5,-85 52.5,-85"/>
<text text-anchor="middle" x="72.5" y="-92" font-family="Helvetica,sans-Serif" font-size="10.00">Node</text>
</a>
</g>
</g>
<!-- Node2&#45;&gt;Node1 -->
<g id="edge1" class="edge"><title>Node2&#45;&gt;Node1</title>
<path fill="none" stroke="#9a32cd" stroke-dasharray="5,2" d="M48.6568,-78.9626C41.8752,-73.7588 35.0922,-67.3382 30.5,-60 22.6373,-47.4357 20.3665,-29.9504 19.7281,-19.6204"/>
<polygon fill="#9a32cd" stroke="#9a32cd" points="46.8864,-81.9962 57.081,-84.8808 50.9103,-76.2684 46.8864,-81.9962"/>
<text text-anchor="middle" x="45.5" y="-52" font-family="Helvetica,sans-Serif" font-size="10.00"> node1</text>
<text text-anchor="middle" x="45.5" y="-41" font-family="Helvetica,sans-Serif" font-size="10.00">node2</text>
</g>
<!-- Node2&#45;&gt;Node2 -->
<g id="edge2" class="edge"><title>Node2&#45;&gt;Node2</title>
<path fill="none" stroke="#9a32cd" stroke-dasharray="5,2" d="M102.916,-101.983C107.44,-100.817 110.5,-98.3229 110.5,-94.5 110.5,-88.2266 102.26,-85.5309 92.8294,-86.4131"/>
<polygon fill="#9a32cd" stroke="#9a32cd" points="102.602,-98.4953 92.8294,-102.587 103.021,-105.483 102.602,-98.4953"/>
<text text-anchor="middle" x="133" y="-103" font-family="Helvetica,sans-Serif" font-size="10.00"> rightChild</text>
<text text-anchor="middle" x="133" y="-92" font-family="Helvetica,sans-Serif" font-size="10.00">parent</text>
<text text-anchor="middle" x="133" y="-81" font-family="Helvetica,sans-Serif" font-size="10.00">leftChild</text>
</g>
<!-- Node3 -->
<g id="node3" class="node"><title>Node3</title>
<g id="a_node3"><a xlink:href="../../dc/dd2/classregion_model.html" target="_top" xlink:title="regionModel">
<polygon fill="white" stroke="black" points="71,-0.5 71,-19.5 140,-19.5 140,-0.5 71,-0.5"/>
<text text-anchor="middle" x="105.5" y="-7.5" font-family="Helvetica,sans-Serif" font-size="10.00">regionModel</text>
</a>
</g>
</g>
<!-- Node2&#45;&gt;Node3 -->
<g id="edge4" class="edge"><title>Node2&#45;&gt;Node3</title>
<path fill="none" stroke="#9a32cd" stroke-dasharray="5,2" d="M66.9836,-74.6835C64.758,-63.4654 63.8684,-49.2631 69.5,-38 73.4131,-30.1738 80.7929,-24.0275 87.857,-19.5893"/>
<polygon fill="#9a32cd" stroke="#9a32cd" points="63.66,-75.8228 69.4626,-84.6874 70.4545,-74.1391 63.66,-75.8228"/>
<text text-anchor="middle" x="82" y="-46.5" font-family="Helvetica,sans-Serif" font-size="10.00"> node</text>
</g>
<!-- Node3&#45;&gt;Node2 -->
<g id="edge3" class="edge"><title>Node3&#45;&gt;Node2</title>
<path fill="none" stroke="#9a32cd" stroke-dasharray="5,2" d="M105.069,-29.8876C104.298,-39.2523 102.506,-50.5504 98.5,-60 94.4772,-69.4895 87.0785,-78.6188 81.1993,-84.9438"/>
<polygon fill="#9a32cd" stroke="#9a32cd" points="108.576,-29.8414 105.585,-19.6776 101.585,-29.4884 108.576,-29.8414"/>
<text text-anchor="middle" x="118.5" y="-46.5" font-family="Helvetica,sans-Serif" font-size="10.00"> model</text>
</g>
</g>
</svg>
