<?xml version="1.0" encoding="UTF-8" standalone="no"?>
<!DOCTYPE svg PUBLIC "-//W3C//DTD SVG 1.1//EN"
 "http://www.w3.org/Graphics/SVG/1.1/DTD/svg11.dtd">
<!-- Generated by graphviz version 2.38.0 (20140413.2041)
 -->
<!-- Title: vectorComparator Pages: 1 -->
<svg width="512pt" height="39pt"
 viewBox="0.00 0.00 512.00 39.00" xmlns="http://www.w3.org/2000/svg" xmlns:xlink="http://www.w3.org/1999/xlink">
<g id="graph0" class="graph" transform="scale(1 1) rotate(0) translate(4 35)">
<title>vectorComparator</title>
<polygon fill="white" stroke="none" points="-4,4 -4,-35 508,-35 508,4 -4,4"/>
<!-- Node43 -->
<g id="node1" class="node"><title>Node43</title>
<polygon fill="#bfbfbf" stroke="black" points="0,-6 0,-25 95,-25 95,-6 0,-6"/>
<text text-anchor="middle" x="47.5" y="-13" font-family="Helvetica,sans-Serif" font-size="10.00">vectorComparator</text>
</g>
<!-- Node44 -->
<g id="node2" class="node"><title>Node44</title>
<g id="a_node2"><a xlink:href="../../d2/da0/hoovermetrics_8cpp.html#af90d4745151264d1f75469ac189fcf2d" target="_top" xlink:title="readLabelImage">
<polygon fill="white" stroke="black" points="131,-6 131,-25 217,-25 217,-6 131,-6"/>
<text text-anchor="middle" x="174" y="-13" font-family="Helvetica,sans-Serif" font-size="10.00">readLabelImage</text>
</a>
</g>
</g>
<!-- Node43&#45;&gt;Node44 -->
<g id="edge1" class="edge"><title>Node43&#45;&gt;Node44</title>
<path fill="none" stroke="midnightblue" d="M105.257,-15.5C113.902,-15.5 122.69,-15.5 130.946,-15.5"/>
<polygon fill="midnightblue" stroke="midnightblue" points="105.213,-12.0001 95.2134,-15.5 105.213,-19.0001 105.213,-12.0001"/>
</g>
<!-- Node45 -->
<g id="node3" class="node"><title>Node45</title>
<g id="a_node3"><a xlink:href="../../d7/da7/hoovermetrics_8h.html#a455a7ff79d9891a057cc18d8b07a60f4" target="_top" xlink:title="hooverCompare">
<polygon fill="white" stroke="black" points="253,-6 253,-25 339,-25 339,-6 253,-6"/>
<text text-anchor="middle" x="296" y="-13" font-family="Helvetica,sans-Serif" font-size="10.00">hooverCompare</text>
</a>
</g>
</g>
<!-- Node44&#45;&gt;Node45 -->
<g id="edge2" class="edge"><title>Node44&#45;&gt;Node45</title>
<path fill="none" stroke="midnightblue" d="M227.447,-15.5C235.879,-15.5 244.514,-15.5 252.67,-15.5"/>
<polygon fill="midnightblue" stroke="midnightblue" points="227.308,-12.0001 217.308,-15.5 227.307,-19.0001 227.308,-12.0001"/>
</g>
<!-- Node46 -->
<g id="node4" class="node"><title>Node46</title>
<g id="a_node4"><a xlink:href="../../d6/d45/class_hoover_calculator.html#a8b5831262a37a7db5934869a73edec52" target="_top" xlink:title="HooverCalculator::on\l_ComputeHoover_clicked">
<polygon fill="white" stroke="black" points="375,-0.5 375,-30.5 504,-30.5 504,-0.5 375,-0.5"/>
<text text-anchor="start" x="383" y="-18.5" font-family="Helvetica,sans-Serif" font-size="10.00">HooverCalculator::on</text>
<text text-anchor="middle" x="439.5" y="-7.5" font-family="Helvetica,sans-Serif" font-size="10.00">_ComputeHoover_clicked</text>
</a>
</g>
</g>
<!-- Node45&#45;&gt;Node46 -->
<g id="edge3" class="edge"><title>Node45&#45;&gt;Node46</title>
<path fill="none" stroke="midnightblue" d="M349.077,-15.5C357.462,-15.5 366.224,-15.5 374.843,-15.5"/>
<polygon fill="midnightblue" stroke="midnightblue" points="349.072,-12.0001 339.072,-15.5 349.072,-19.0001 349.072,-12.0001"/>
</g>
</g>
</svg>
