<?xml version="1.0" encoding="UTF-8" standalone="no"?>
<!DOCTYPE svg PUBLIC "-//W3C//DTD SVG 1.1//EN"
 "http://www.w3.org/Graphics/SVG/1.1/DTD/svg11.dtd">
<!-- Generated by graphviz version 2.38.0 (20140413.2041)
 -->
<!-- Title: Edge::setWeight Pages: 1 -->
<svg width="1010pt" height="123pt"
 viewBox="0.00 0.00 1010.00 123.00" xmlns="http://www.w3.org/2000/svg" xmlns:xlink="http://www.w3.org/1999/xlink">
<g id="graph0" class="graph" transform="scale(1 1) rotate(0) translate(4 119)">
<title>Edge::setWeight</title>
<polygon fill="white" stroke="none" points="-4,4 -4,-119 1006,-119 1006,4 -4,4"/>
<!-- Node152 -->
<g id="node1" class="node"><title>Node152</title>
<polygon fill="#bfbfbf" stroke="black" points="0,-38.5 0,-57.5 89,-57.5 89,-38.5 0,-38.5"/>
<text text-anchor="middle" x="44.5" y="-45.5" font-family="Helvetica,sans-Serif" font-size="10.00">Edge::setWeight</text>
</g>
<!-- Node153 -->
<g id="node2" class="node"><title>Node153</title>
<g id="a_node2"><a xlink:href="../../d9/db2/classinitializer.html#a3b9f79140d510e7aea1287bfe891e8b9" target="_top" xlink:title="initializer::addEdges">
<polygon fill="white" stroke="black" points="125,-76.5 125,-95.5 229,-95.5 229,-76.5 125,-76.5"/>
<text text-anchor="middle" x="177" y="-83.5" font-family="Helvetica,sans-Serif" font-size="10.00">initializer::addEdges</text>
</a>
</g>
</g>
<!-- Node152&#45;&gt;Node153 -->
<g id="edge1" class="edge"><title>Node152&#45;&gt;Node153</title>
<path fill="none" stroke="midnightblue" d="M88.0518,-60.3906C105.923,-65.5945 126.39,-71.5541 143.08,-76.4141"/>
<polygon fill="midnightblue" stroke="midnightblue" points="89.0104,-57.0244 78.4307,-57.589 87.0534,-63.7453 89.0104,-57.0244"/>
</g>
<!-- Node161 -->
<g id="node10" class="node"><title>Node161</title>
<g id="a_node10"><a xlink:href="../../d7/d77/class_edge.html#a4a4344c441ddb7529213eba214c878fa" target="_top" xlink:title="Edge::clone">
<polygon fill="white" stroke="black" points="143,-38.5 143,-57.5 211,-57.5 211,-38.5 143,-38.5"/>
<text text-anchor="middle" x="177" y="-45.5" font-family="Helvetica,sans-Serif" font-size="10.00">Edge::clone</text>
</a>
</g>
</g>
<!-- Node152&#45;&gt;Node161 -->
<g id="edge10" class="edge"><title>Node152&#45;&gt;Node161</title>
<path fill="none" stroke="midnightblue" d="M99.3521,-48C114.087,-48 129.621,-48 142.824,-48"/>
<polygon fill="midnightblue" stroke="midnightblue" points="99.3177,-44.5001 89.3176,-48 99.3176,-51.5001 99.3177,-44.5001"/>
</g>
<!-- Node162 -->
<g id="node11" class="node"><title>Node162</title>
<g id="a_node11"><a xlink:href="../../d9/db2/classinitializer.html#a900944d3d61eb5da03b64cd96e8dac8e" target="_top" xlink:title="initializer::connect">
<polygon fill="white" stroke="black" points="129.5,-0.5 129.5,-19.5 224.5,-19.5 224.5,-0.5 129.5,-0.5"/>
<text text-anchor="middle" x="177" y="-7.5" font-family="Helvetica,sans-Serif" font-size="10.00">initializer::connect</text>
</a>
</g>
</g>
<!-- Node152&#45;&gt;Node162 -->
<g id="edge11" class="edge"><title>Node152&#45;&gt;Node162</title>
<path fill="none" stroke="midnightblue" d="M88.0518,-35.6094C105.923,-30.4055 126.39,-24.4459 143.08,-19.5859"/>
<polygon fill="midnightblue" stroke="midnightblue" points="87.0534,-32.2547 78.4307,-38.411 89.0104,-38.9756 87.0534,-32.2547"/>
</g>
<!-- Node154 -->
<g id="node3" class="node"><title>Node154</title>
<g id="a_node3"><a xlink:href="../../d9/db2/classinitializer.html#aaa8cb78ad7655020875fa970001d899e" target="_top" xlink:title="initializer::initializeRag">
<polygon fill="white" stroke="black" points="265,-76.5 265,-95.5 379,-95.5 379,-76.5 265,-76.5"/>
<text text-anchor="middle" x="322" y="-83.5" font-family="Helvetica,sans-Serif" font-size="10.00">initializer::initializeRag</text>
</a>
</g>
</g>
<!-- Node153&#45;&gt;Node154 -->
<g id="edge2" class="edge"><title>Node153&#45;&gt;Node154</title>
<path fill="none" stroke="midnightblue" d="M239.39,-86C247.83,-86 256.463,-86 264.803,-86"/>
<polygon fill="midnightblue" stroke="midnightblue" points="239.222,-82.5001 229.222,-86 239.222,-89.5001 239.222,-82.5001"/>
</g>
<!-- Node155 -->
<g id="node4" class="node"><title>Node155</title>
<g id="a_node4"><a xlink:href="../../d1/ded/classimage.html#a12343719e8d96a4bda9c5bd6c035d52a" target="_top" xlink:title="image::mergeBlockX">
<polygon fill="white" stroke="black" points="415,-95.5 415,-114.5 522,-114.5 522,-95.5 415,-95.5"/>
<text text-anchor="middle" x="468.5" y="-102.5" font-family="Helvetica,sans-Serif" font-size="10.00">image::mergeBlockX</text>
</a>
</g>
</g>
<!-- Node154&#45;&gt;Node155 -->
<g id="edge3" class="edge"><title>Node154&#45;&gt;Node155</title>
<path fill="none" stroke="midnightblue" d="M389.288,-94.716C397.881,-95.846 406.588,-96.9908 414.917,-98.086"/>
<polygon fill="midnightblue" stroke="midnightblue" points="389.652,-91.2339 379.281,-93.4003 388.74,-98.1742 389.652,-91.2339"/>
</g>
<!-- Node159 -->
<g id="node8" class="node"><title>Node159</title>
<g id="a_node8"><a xlink:href="../../d1/ded/classimage.html#aa21fc5a07af7528869425e750090b3b8" target="_top" xlink:title="image::mergeBlockY">
<polygon fill="white" stroke="black" points="415,-57.5 415,-76.5 522,-76.5 522,-57.5 415,-57.5"/>
<text text-anchor="middle" x="468.5" y="-64.5" font-family="Helvetica,sans-Serif" font-size="10.00">image::mergeBlockY</text>
</a>
</g>
</g>
<!-- Node154&#45;&gt;Node159 -->
<g id="edge7" class="edge"><title>Node154&#45;&gt;Node159</title>
<path fill="none" stroke="midnightblue" d="M389.288,-77.284C397.881,-76.154 406.588,-75.0092 414.917,-73.914"/>
<polygon fill="midnightblue" stroke="midnightblue" points="388.74,-73.8258 379.281,-78.5997 389.652,-80.7661 388.74,-73.8258"/>
</g>
<!-- Node156 -->
<g id="node5" class="node"><title>Node156</title>
<g id="a_node5"><a xlink:href="../../d1/ded/classimage.html#a83026280ad6cc713ec9489ff3bd9776e" target="_top" xlink:title="image::ProcessBoundaryX">
<polygon fill="white" stroke="black" points="558,-95.5 558,-114.5 691,-114.5 691,-95.5 558,-95.5"/>
<text text-anchor="middle" x="624.5" y="-102.5" font-family="Helvetica,sans-Serif" font-size="10.00">image::ProcessBoundaryX</text>
</a>
</g>
</g>
<!-- Node155&#45;&gt;Node156 -->
<g id="edge4" class="edge"><title>Node155&#45;&gt;Node156</title>
<path fill="none" stroke="midnightblue" d="M532.216,-105C540.656,-105 549.334,-105 557.824,-105"/>
<polygon fill="midnightblue" stroke="midnightblue" points="532.067,-101.5 522.067,-105 532.067,-108.5 532.067,-101.5"/>
</g>
<!-- Node157 -->
<g id="node6" class="node"><title>Node157</title>
<g id="a_node6"><a xlink:href="../../d1/ded/classimage.html#a4689c56b85c46d48ea52f0c9fa13891e" target="_top" xlink:title="image::processing">
<polygon fill="white" stroke="black" points="727,-76.5 727,-95.5 823,-95.5 823,-76.5 727,-76.5"/>
<text text-anchor="middle" x="775" y="-83.5" font-family="Helvetica,sans-Serif" font-size="10.00">image::processing</text>
</a>
</g>
</g>
<!-- Node156&#45;&gt;Node157 -->
<g id="edge5" class="edge"><title>Node156&#45;&gt;Node157</title>
<path fill="none" stroke="midnightblue" d="M701.207,-95.3136C709.858,-94.2067 718.483,-93.1032 726.612,-92.0631"/>
<polygon fill="midnightblue" stroke="midnightblue" points="700.541,-91.8701 691.067,-96.611 701.43,-98.8135 700.541,-91.8701"/>
</g>
<!-- Node158 -->
<g id="node7" class="node"><title>Node158</title>
<g id="a_node7"><a xlink:href="../../d9/dc6/class_main_window.html#a9a45eb9ebe6d27bcd23677d9fbb74dd8" target="_top" xlink:title="MainWindow::on_Go_clicked">
<polygon fill="white" stroke="black" points="859,-76.5 859,-95.5 1002,-95.5 1002,-76.5 859,-76.5"/>
<text text-anchor="middle" x="930.5" y="-83.5" font-family="Helvetica,sans-Serif" font-size="10.00">MainWindow::on_Go_clicked</text>
</a>
</g>
</g>
<!-- Node157&#45;&gt;Node158 -->
<g id="edge6" class="edge"><title>Node157&#45;&gt;Node158</title>
<path fill="none" stroke="midnightblue" d="M833.583,-86C841.853,-86 850.441,-86 858.928,-86"/>
<polygon fill="midnightblue" stroke="midnightblue" points="833.308,-82.5001 823.308,-86 833.308,-89.5001 833.308,-82.5001"/>
</g>
<!-- Node160 -->
<g id="node9" class="node"><title>Node160</title>
<g id="a_node9"><a xlink:href="../../d1/ded/classimage.html#adf6b8c126649c9a40387f12b5f5f07d5" target="_top" xlink:title="image::ProcessBoundaryY">
<polygon fill="white" stroke="black" points="558,-57.5 558,-76.5 691,-76.5 691,-57.5 558,-57.5"/>
<text text-anchor="middle" x="624.5" y="-64.5" font-family="Helvetica,sans-Serif" font-size="10.00">image::ProcessBoundaryY</text>
</a>
</g>
</g>
<!-- Node159&#45;&gt;Node160 -->
<g id="edge8" class="edge"><title>Node159&#45;&gt;Node160</title>
<path fill="none" stroke="midnightblue" d="M532.216,-67C540.656,-67 549.334,-67 557.824,-67"/>
<polygon fill="midnightblue" stroke="midnightblue" points="532.067,-63.5001 522.067,-67 532.067,-70.5001 532.067,-63.5001"/>
</g>
<!-- Node160&#45;&gt;Node157 -->
<g id="edge9" class="edge"><title>Node160&#45;&gt;Node157</title>
<path fill="none" stroke="midnightblue" d="M701.207,-76.6864C709.858,-77.7933 718.483,-78.8968 726.612,-79.9369"/>
<polygon fill="midnightblue" stroke="midnightblue" points="701.43,-73.1865 691.067,-75.389 700.541,-80.1299 701.43,-73.1865"/>
</g>
</g>
</svg>
