<?xml version="1.0" encoding="UTF-8" standalone="no"?>
<!DOCTYPE svg PUBLIC "-//W3C//DTD SVG 1.1//EN"
 "http://www.w3.org/Graphics/SVG/1.1/DTD/svg11.dtd">
<!-- Generated by graphviz version 2.38.0 (20140413.2041)
 -->
<!-- Title: Edge::getHeapIndex Pages: 1 -->
<svg width="1303pt" height="123pt"
 viewBox="0.00 0.00 1303.00 123.00" xmlns="http://www.w3.org/2000/svg" xmlns:xlink="http://www.w3.org/1999/xlink">
<g id="graph0" class="graph" transform="scale(1 1) rotate(0) translate(4 119)">
<title>Edge::getHeapIndex</title>
<polygon fill="white" stroke="none" points="-4,4 -4,-119 1299,-119 1299,4 -4,4"/>
<!-- Node17 -->
<g id="node1" class="node"><title>Node17</title>
<polygon fill="#bfbfbf" stroke="black" points="0,-57.5 0,-76.5 106,-76.5 106,-57.5 0,-57.5"/>
<text text-anchor="middle" x="53" y="-64.5" font-family="Helvetica,sans-Serif" font-size="10.00">Edge::getHeapIndex</text>
</g>
<!-- Node18 -->
<g id="node2" class="node"><title>Node18</title>
<g id="a_node2"><a xlink:href="../../d7/d77/class_edge.html#a4a4344c441ddb7529213eba214c878fa" target="_top" xlink:title="Edge::clone">
<polygon fill="white" stroke="black" points="158.5,-95.5 158.5,-114.5 226.5,-114.5 226.5,-95.5 158.5,-95.5"/>
<text text-anchor="middle" x="192.5" y="-102.5" font-family="Helvetica,sans-Serif" font-size="10.00">Edge::clone</text>
</a>
</g>
</g>
<!-- Node17&#45;&gt;Node18 -->
<g id="edge1" class="edge"><title>Node17&#45;&gt;Node18</title>
<path fill="none" stroke="midnightblue" d="M98.539,-79.309C117.949,-84.6731 140.31,-90.8531 158.237,-95.8073"/>
<polygon fill="midnightblue" stroke="midnightblue" points="99.2681,-75.8793 88.6971,-76.589 97.4034,-82.6264 99.2681,-75.8793"/>
</g>
<!-- Node19 -->
<g id="node3" class="node"><title>Node19</title>
<g id="a_node3"><a xlink:href="../../d8/de9/class_edge_heap.html#ac36afe05c095a87767748b41dfa831a5" target="_top" xlink:title="EdgeHeap::remove">
<polygon fill="white" stroke="black" points="142,-57.5 142,-76.5 243,-76.5 243,-57.5 142,-57.5"/>
<text text-anchor="middle" x="192.5" y="-64.5" font-family="Helvetica,sans-Serif" font-size="10.00">EdgeHeap::remove</text>
</a>
</g>
</g>
<!-- Node17&#45;&gt;Node19 -->
<g id="edge2" class="edge"><title>Node17&#45;&gt;Node19</title>
<path fill="none" stroke="midnightblue" d="M116.643,-67C125.141,-67 133.764,-67 141.988,-67"/>
<polygon fill="midnightblue" stroke="midnightblue" points="116.375,-63.5001 106.375,-67 116.375,-70.5001 116.375,-63.5001"/>
</g>
<!-- Node31 -->
<g id="node15" class="node"><title>Node31</title>
<g id="a_node15"><a xlink:href="../../d8/de9/class_edge_heap.html#a7d8eaf4111da4c024feb5f2fb8d7cafa" target="_top" xlink:title="EdgeHeap::update">
<polygon fill="white" stroke="black" points="143.5,-19.5 143.5,-38.5 241.5,-38.5 241.5,-19.5 143.5,-19.5"/>
<text text-anchor="middle" x="192.5" y="-26.5" font-family="Helvetica,sans-Serif" font-size="10.00">EdgeHeap::update</text>
</a>
</g>
</g>
<!-- Node17&#45;&gt;Node31 -->
<g id="edge16" class="edge"><title>Node17&#45;&gt;Node31</title>
<path fill="none" stroke="midnightblue" d="M98.5729,-54.6817C117.465,-49.4607 139.147,-43.4684 156.814,-38.5859"/>
<polygon fill="midnightblue" stroke="midnightblue" points="97.4034,-51.3736 88.6971,-57.411 99.2681,-58.1207 97.4034,-51.3736"/>
</g>
<!-- Node20 -->
<g id="node4" class="node"><title>Node20</title>
<g id="a_node4"><a xlink:href="../../d3/dd4/class_r_a_g.html#aa2de492a3df037db29b0e3ccab5251ee" target="_top" xlink:title="RAG::merge">
<polygon fill="white" stroke="black" points="279,-38.5 279,-57.5 350,-57.5 350,-38.5 279,-38.5"/>
<text text-anchor="middle" x="314.5" y="-45.5" font-family="Helvetica,sans-Serif" font-size="10.00">RAG::merge</text>
</a>
</g>
</g>
<!-- Node19&#45;&gt;Node20 -->
<g id="edge3" class="edge"><title>Node19&#45;&gt;Node20</title>
<path fill="none" stroke="midnightblue" d="M252.941,-57.5885C261.787,-56.1879 270.649,-54.7847 278.758,-53.5008"/>
<polygon fill="midnightblue" stroke="midnightblue" points="252.331,-54.1414 243.001,-59.1623 253.426,-61.0553 252.331,-54.1414"/>
</g>
<!-- Node21 -->
<g id="node5" class="node"><title>Node21</title>
<g id="a_node5"><a xlink:href="../../d3/dd4/class_r_a_g.html#ab09eebb1b704d18b583d528e77f7604a" target="_top" xlink:title="RAG::regionMerging">
<polygon fill="white" stroke="black" points="386,-38.5 386,-57.5 491,-57.5 491,-38.5 386,-38.5"/>
<text text-anchor="middle" x="438.5" y="-45.5" font-family="Helvetica,sans-Serif" font-size="10.00">RAG::regionMerging</text>
</a>
</g>
</g>
<!-- Node20&#45;&gt;Node21 -->
<g id="edge4" class="edge"><title>Node20&#45;&gt;Node21</title>
<path fill="none" stroke="midnightblue" d="M360.379,-48C368.69,-48 377.43,-48 385.921,-48"/>
<polygon fill="midnightblue" stroke="midnightblue" points="360.134,-44.5001 350.134,-48 360.134,-51.5001 360.134,-44.5001"/>
</g>
<!-- Node22 -->
<g id="node6" class="node"><title>Node22</title>
<g id="a_node6"><a xlink:href="../../d1/ded/classimage.html#a12343719e8d96a4bda9c5bd6c035d52a" target="_top" xlink:title="image::mergeBlockX">
<polygon fill="white" stroke="black" points="533,-76.5 533,-95.5 640,-95.5 640,-76.5 533,-76.5"/>
<text text-anchor="middle" x="586.5" y="-83.5" font-family="Helvetica,sans-Serif" font-size="10.00">image::mergeBlockX</text>
</a>
</g>
</g>
<!-- Node21&#45;&gt;Node22 -->
<g id="edge5" class="edge"><title>Node21&#45;&gt;Node22</title>
<path fill="none" stroke="midnightblue" d="M486.036,-60.1121C506.37,-65.4044 529.871,-71.5213 548.923,-76.4799"/>
<polygon fill="midnightblue" stroke="midnightblue" points="486.901,-56.7207 476.342,-57.589 485.138,-63.4951 486.901,-56.7207"/>
</g>
<!-- Node26 -->
<g id="node10" class="node"><title>Node26</title>
<g id="a_node10"><a xlink:href="../../d1/ded/classimage.html#aa21fc5a07af7528869425e750090b3b8" target="_top" xlink:title="image::mergeBlockY">
<polygon fill="white" stroke="black" points="533,-38.5 533,-57.5 640,-57.5 640,-38.5 533,-38.5"/>
<text text-anchor="middle" x="586.5" y="-45.5" font-family="Helvetica,sans-Serif" font-size="10.00">image::mergeBlockY</text>
</a>
</g>
</g>
<!-- Node21&#45;&gt;Node26 -->
<g id="edge9" class="edge"><title>Node21&#45;&gt;Node26</title>
<path fill="none" stroke="midnightblue" d="M501.631,-48C512.008,-48 522.685,-48 532.797,-48"/>
<polygon fill="midnightblue" stroke="midnightblue" points="501.385,-44.5001 491.385,-48 501.385,-51.5001 501.385,-44.5001"/>
</g>
<!-- Node28 -->
<g id="node12" class="node"><title>Node28</title>
<g id="a_node12"><a xlink:href="../../d8/dd2/classimageblock.html#abcc69a8c00ad79067185c700463f8126" target="_top" xlink:title="imageblock::createBPT">
<polygon fill="white" stroke="black" points="527,-0.5 527,-19.5 646,-19.5 646,-0.5 527,-0.5"/>
<text text-anchor="middle" x="586.5" y="-7.5" font-family="Helvetica,sans-Serif" font-size="10.00">imageblock::createBPT</text>
</a>
</g>
</g>
<!-- Node21&#45;&gt;Node28 -->
<g id="edge12" class="edge"><title>Node21&#45;&gt;Node28</title>
<path fill="none" stroke="midnightblue" d="M486.036,-35.8879C506.37,-30.5956 529.871,-24.4787 548.923,-19.5201"/>
<polygon fill="midnightblue" stroke="midnightblue" points="485.138,-32.5049 476.342,-38.411 486.901,-39.2793 485.138,-32.5049"/>
</g>
<!-- Node23 -->
<g id="node7" class="node"><title>Node23</title>
<g id="a_node7"><a xlink:href="../../d1/ded/classimage.html#a83026280ad6cc713ec9489ff3bd9776e" target="_top" xlink:title="image::ProcessBoundaryX">
<polygon fill="white" stroke="black" points="851,-76.5 851,-95.5 984,-95.5 984,-76.5 851,-76.5"/>
<text text-anchor="middle" x="917.5" y="-83.5" font-family="Helvetica,sans-Serif" font-size="10.00">image::ProcessBoundaryX</text>
</a>
</g>
</g>
<!-- Node22&#45;&gt;Node23 -->
<g id="edge6" class="edge"><title>Node22&#45;&gt;Node23</title>
<path fill="none" stroke="midnightblue" d="M650.399,-86C707.829,-86 792.414,-86 850.728,-86"/>
<polygon fill="midnightblue" stroke="midnightblue" points="650.36,-82.5001 640.36,-86 650.36,-89.5001 650.36,-82.5001"/>
</g>
<!-- Node24 -->
<g id="node8" class="node"><title>Node24</title>
<g id="a_node8"><a xlink:href="../../d1/ded/classimage.html#a4689c56b85c46d48ea52f0c9fa13891e" target="_top" xlink:title="image::processing">
<polygon fill="white" stroke="black" points="1020,-38.5 1020,-57.5 1116,-57.5 1116,-38.5 1020,-38.5"/>
<text text-anchor="middle" x="1068" y="-45.5" font-family="Helvetica,sans-Serif" font-size="10.00">image::processing</text>
</a>
</g>
</g>
<!-- Node23&#45;&gt;Node24 -->
<g id="edge7" class="edge"><title>Node23&#45;&gt;Node24</title>
<path fill="none" stroke="midnightblue" d="M965.833,-73.8879C986.515,-68.5956 1010.42,-62.4787 1029.8,-57.5201"/>
<polygon fill="midnightblue" stroke="midnightblue" points="964.793,-70.5411 955.973,-76.411 966.528,-77.3226 964.793,-70.5411"/>
</g>
<!-- Node25 -->
<g id="node9" class="node"><title>Node25</title>
<g id="a_node9"><a xlink:href="../../d9/dc6/class_main_window.html#a9a45eb9ebe6d27bcd23677d9fbb74dd8" target="_top" xlink:title="MainWindow::on_Go_clicked">
<polygon fill="white" stroke="black" points="1152,-38.5 1152,-57.5 1295,-57.5 1295,-38.5 1152,-38.5"/>
<text text-anchor="middle" x="1223.5" y="-45.5" font-family="Helvetica,sans-Serif" font-size="10.00">MainWindow::on_Go_clicked</text>
</a>
</g>
</g>
<!-- Node24&#45;&gt;Node25 -->
<g id="edge8" class="edge"><title>Node24&#45;&gt;Node25</title>
<path fill="none" stroke="midnightblue" d="M1126.58,-48C1134.85,-48 1143.44,-48 1151.93,-48"/>
<polygon fill="midnightblue" stroke="midnightblue" points="1126.31,-44.5001 1116.31,-48 1126.31,-51.5001 1126.31,-44.5001"/>
</g>
<!-- Node27 -->
<g id="node11" class="node"><title>Node27</title>
<g id="a_node11"><a xlink:href="../../d1/ded/classimage.html#adf6b8c126649c9a40387f12b5f5f07d5" target="_top" xlink:title="image::ProcessBoundaryY">
<polygon fill="white" stroke="black" points="682,-38.5 682,-57.5 815,-57.5 815,-38.5 682,-38.5"/>
<text text-anchor="middle" x="748.5" y="-45.5" font-family="Helvetica,sans-Serif" font-size="10.00">image::ProcessBoundaryY</text>
</a>
</g>
</g>
<!-- Node26&#45;&gt;Node27 -->
<g id="edge10" class="edge"><title>Node26&#45;&gt;Node27</title>
<path fill="none" stroke="midnightblue" d="M650.486,-48C660.798,-48 671.505,-48 681.879,-48"/>
<polygon fill="midnightblue" stroke="midnightblue" points="650.333,-44.5001 640.333,-48 650.333,-51.5001 650.333,-44.5001"/>
</g>
<!-- Node27&#45;&gt;Node24 -->
<g id="edge11" class="edge"><title>Node27&#45;&gt;Node24</title>
<path fill="none" stroke="midnightblue" d="M825.542,-48C885.982,-48 968.613,-48 1019.85,-48"/>
<polygon fill="midnightblue" stroke="midnightblue" points="825.286,-44.5001 815.286,-48 825.286,-51.5001 825.286,-44.5001"/>
</g>
<!-- Node29 -->
<g id="node13" class="node"><title>Node29</title>
<g id="a_node13"><a xlink:href="../../d8/dd2/classimageblock.html#af3b91e3daaa8014af1239f60da6b0bf5" target="_top" xlink:title="imageblock::processing">
<polygon fill="white" stroke="black" points="689,-0.5 689,-19.5 808,-19.5 808,-0.5 689,-0.5"/>
<text text-anchor="middle" x="748.5" y="-7.5" font-family="Helvetica,sans-Serif" font-size="10.00">imageblock::processing</text>
</a>
</g>
</g>
<!-- Node28&#45;&gt;Node29 -->
<g id="edge13" class="edge"><title>Node28&#45;&gt;Node29</title>
<path fill="none" stroke="midnightblue" d="M656.415,-10C667.217,-10 678.294,-10 688.838,-10"/>
<polygon fill="midnightblue" stroke="midnightblue" points="656.17,-6.5001 646.17,-10 656.17,-13.5001 656.17,-6.5001"/>
</g>
<!-- Node30 -->
<g id="node14" class="node"><title>Node30</title>
<g id="a_node14"><a xlink:href="../../d1/ded/classimage.html#ad5a9d767eca6f9bbb8dcb556527edf4d" target="_top" xlink:title="image::ProcessTiles">
<polygon fill="white" stroke="black" points="864.5,-0.5 864.5,-19.5 970.5,-19.5 970.5,-0.5 864.5,-0.5"/>
<text text-anchor="middle" x="917.5" y="-7.5" font-family="Helvetica,sans-Serif" font-size="10.00">image::ProcessTiles</text>
</a>
</g>
</g>
<!-- Node29&#45;&gt;Node30 -->
<g id="edge14" class="edge"><title>Node29&#45;&gt;Node30</title>
<path fill="none" stroke="midnightblue" d="M818.781,-10C833.994,-10 849.857,-10 864.267,-10"/>
<polygon fill="midnightblue" stroke="midnightblue" points="818.378,-6.5001 808.378,-10 818.378,-13.5001 818.378,-6.5001"/>
</g>
<!-- Node30&#45;&gt;Node24 -->
<g id="edge15" class="edge"><title>Node30&#45;&gt;Node24</title>
<path fill="none" stroke="midnightblue" d="M965.833,-22.1121C986.515,-27.4044 1010.42,-33.5213 1029.8,-38.4799"/>
<polygon fill="midnightblue" stroke="midnightblue" points="966.528,-18.6774 955.973,-19.589 964.793,-25.4589 966.528,-18.6774"/>
</g>
<!-- Node31&#45;&gt;Node20 -->
<g id="edge17" class="edge"><title>Node31&#45;&gt;Node20</title>
<path fill="none" stroke="midnightblue" d="M251.597,-38.1987C260.854,-39.6644 270.172,-41.1397 278.668,-42.4849"/>
<polygon fill="midnightblue" stroke="midnightblue" points="252.041,-34.7255 241.617,-36.6185 250.947,-41.6394 252.041,-34.7255"/>
</g>
</g>
</svg>
