<?xml version="1.0" encoding="UTF-8" standalone="no"?>
<!DOCTYPE svg PUBLIC "-//W3C//DTD SVG 1.1//EN"
 "http://www.w3.org/Graphics/SVG/1.1/DTD/svg11.dtd">
<!-- Generated by graphviz version 2.38.0 (20140413.2041)
 -->
<!-- Title: regionModel::getProbability Pages: 1 -->
<svg width="1261pt" height="104pt"
 viewBox="0.00 0.00 1261.00 104.00" xmlns="http://www.w3.org/2000/svg" xmlns:xlink="http://www.w3.org/1999/xlink">
<g id="graph0" class="graph" transform="scale(1 1) rotate(0) translate(4 100)">
<title>regionModel::getProbability</title>
<polygon fill="white" stroke="none" points="-4,4 -4,-100 1257,-100 1257,4 -4,4"/>
<!-- Node76 -->
<g id="node1" class="node"><title>Node76</title>
<polygon fill="#bfbfbf" stroke="black" points="0,-57.5 0,-76.5 134,-76.5 134,-57.5 0,-57.5"/>
<text text-anchor="middle" x="67" y="-64.5" font-family="Helvetica,sans-Serif" font-size="10.00">regionModel::getProbability</text>
</g>
<!-- Node77 -->
<g id="node2" class="node"><title>Node77</title>
<g id="a_node2"><a xlink:href="../../dc/d8f/class_node.html#a10e9fd1b42586776a2e6114a1430c4fd" target="_top" xlink:title="Node::getClassLabel">
<polygon fill="white" stroke="black" points="170,-76.5 170,-95.5 278,-95.5 278,-76.5 170,-76.5"/>
<text text-anchor="middle" x="224" y="-83.5" font-family="Helvetica,sans-Serif" font-size="10.00">Node::getClassLabel</text>
</a>
</g>
</g>
<!-- Node76&#45;&gt;Node77 -->
<g id="edge1" class="edge"><title>Node76&#45;&gt;Node77</title>
<path fill="none" stroke="midnightblue" d="M144.241,-76.3457C152.838,-77.3995 161.456,-78.4559 169.671,-79.4629"/>
<polygon fill="midnightblue" stroke="midnightblue" points="144.535,-72.8556 134.184,-75.1128 143.683,-79.8036 144.535,-72.8556"/>
</g>
<!-- Node78 -->
<g id="node3" class="node"><title>Node78</title>
<g id="a_node3"><a xlink:href="../../dc/d8f/class_node.html#a6b9517162b03a8f98df4bc63890ca092" target="_top" xlink:title="Node::getProbability">
<polygon fill="white" stroke="black" points="171.5,-38.5 171.5,-57.5 276.5,-57.5 276.5,-38.5 171.5,-38.5"/>
<text text-anchor="middle" x="224" y="-45.5" font-family="Helvetica,sans-Serif" font-size="10.00">Node::getProbability</text>
</a>
</g>
</g>
<!-- Node76&#45;&gt;Node78 -->
<g id="edge2" class="edge"><title>Node76&#45;&gt;Node78</title>
<path fill="none" stroke="midnightblue" d="M144.37,-57.6386C153.423,-56.5289 162.496,-55.4166 171.096,-54.3624"/>
<polygon fill="midnightblue" stroke="midnightblue" points="143.683,-54.1964 134.184,-58.8872 144.535,-61.1444 143.683,-54.1964"/>
</g>
<!-- Node79 -->
<g id="node4" class="node"><title>Node79</title>
<g id="a_node4"><a xlink:href="../../d9/da1/classio.html#a4cca3fdf98e917cac1b3e776c7634aec" target="_top" xlink:title="io::writeBoarderNodeToCSV">
<polygon fill="white" stroke="black" points="314,-38.5 314,-57.5 454,-57.5 454,-38.5 314,-38.5"/>
<text text-anchor="middle" x="384" y="-45.5" font-family="Helvetica,sans-Serif" font-size="10.00">io::writeBoarderNodeToCSV</text>
</a>
</g>
</g>
<!-- Node78&#45;&gt;Node79 -->
<g id="edge3" class="edge"><title>Node78&#45;&gt;Node79</title>
<path fill="none" stroke="midnightblue" d="M286.953,-48C295.798,-48 304.943,-48 313.914,-48"/>
<polygon fill="midnightblue" stroke="midnightblue" points="286.735,-44.5001 276.735,-48 286.735,-51.5001 286.735,-44.5001"/>
</g>
<!-- Node80 -->
<g id="node5" class="node"><title>Node80</title>
<g id="a_node5"><a xlink:href="../../d8/dd2/classimageblock.html#adbafde60f699582250656ddc2ebe82e2" target="_top" xlink:title="imageblock::saveToDisk">
<polygon fill="white" stroke="black" points="505,-76.5 505,-95.5 630,-95.5 630,-76.5 505,-76.5"/>
<text text-anchor="middle" x="567.5" y="-83.5" font-family="Helvetica,sans-Serif" font-size="10.00">imageblock::saveToDisk</text>
</a>
</g>
</g>
<!-- Node79&#45;&gt;Node80 -->
<g id="edge4" class="edge"><title>Node79&#45;&gt;Node80</title>
<path fill="none" stroke="midnightblue" d="M440.792,-59.681C466.531,-65.0699 496.699,-71.3861 521.029,-76.4799"/>
<polygon fill="midnightblue" stroke="midnightblue" points="441.305,-56.2126 430.8,-57.589 439.871,-63.064 441.305,-56.2126"/>
</g>
<!-- Node85 -->
<g id="node10" class="node"><title>Node85</title>
<g id="a_node10"><a xlink:href="../../d1/ded/classimage.html#aa04b765a3c2cc6860a22ebfbedbcd7fc" target="_top" xlink:title="image::saveToDisk">
<polygon fill="white" stroke="black" points="517,-38.5 517,-57.5 618,-57.5 618,-38.5 517,-38.5"/>
<text text-anchor="middle" x="567.5" y="-45.5" font-family="Helvetica,sans-Serif" font-size="10.00">image::saveToDisk</text>
</a>
</g>
</g>
<!-- Node79&#45;&gt;Node85 -->
<g id="edge9" class="edge"><title>Node79&#45;&gt;Node85</title>
<path fill="none" stroke="midnightblue" d="M464.5,-48C482.255,-48 500.593,-48 516.739,-48"/>
<polygon fill="midnightblue" stroke="midnightblue" points="464.135,-44.5001 454.135,-48 464.135,-51.5001 464.135,-44.5001"/>
</g>
<!-- Node86 -->
<g id="node11" class="node"><title>Node86</title>
<g id="a_node11"><a xlink:href="../../d9/da1/classio.html#af3def6eac9bbdd2a12de24104be3acd6" target="_top" xlink:title="io::writeBoarderNodeSetToCSV">
<polygon fill="white" stroke="black" points="490,-0.5 490,-19.5 645,-19.5 645,-0.5 490,-0.5"/>
<text text-anchor="middle" x="567.5" y="-7.5" font-family="Helvetica,sans-Serif" font-size="10.00">io::writeBoarderNodeSetToCSV</text>
</a>
</g>
</g>
<!-- Node79&#45;&gt;Node86 -->
<g id="edge10" class="edge"><title>Node79&#45;&gt;Node86</title>
<path fill="none" stroke="midnightblue" d="M440.792,-36.319C466.531,-30.9301 496.699,-24.6139 521.029,-19.5201"/>
<polygon fill="midnightblue" stroke="midnightblue" points="439.871,-32.936 430.8,-38.411 441.305,-39.7874 439.871,-32.936"/>
</g>
<!-- Node81 -->
<g id="node6" class="node"><title>Node81</title>
<g id="a_node6"><a xlink:href="../../d8/dd2/classimageblock.html#af3b91e3daaa8014af1239f60da6b0bf5" target="_top" xlink:title="imageblock::processing">
<polygon fill="white" stroke="black" points="681,-76.5 681,-95.5 800,-95.5 800,-76.5 681,-76.5"/>
<text text-anchor="middle" x="740.5" y="-83.5" font-family="Helvetica,sans-Serif" font-size="10.00">imageblock::processing</text>
</a>
</g>
</g>
<!-- Node80&#45;&gt;Node81 -->
<g id="edge5" class="edge"><title>Node80&#45;&gt;Node81</title>
<path fill="none" stroke="midnightblue" d="M640.457,-86C653.972,-86 667.951,-86 680.995,-86"/>
<polygon fill="midnightblue" stroke="midnightblue" points="640.235,-82.5001 630.235,-86 640.235,-89.5001 640.235,-82.5001"/>
</g>
<!-- Node82 -->
<g id="node7" class="node"><title>Node82</title>
<g id="a_node7"><a xlink:href="../../d1/ded/classimage.html#ad5a9d767eca6f9bbb8dcb556527edf4d" target="_top" xlink:title="image::ProcessTiles">
<polygon fill="white" stroke="black" points="836,-76.5 836,-95.5 942,-95.5 942,-76.5 836,-76.5"/>
<text text-anchor="middle" x="889" y="-83.5" font-family="Helvetica,sans-Serif" font-size="10.00">image::ProcessTiles</text>
</a>
</g>
</g>
<!-- Node81&#45;&gt;Node82 -->
<g id="edge6" class="edge"><title>Node81&#45;&gt;Node82</title>
<path fill="none" stroke="midnightblue" d="M810.279,-86C818.884,-86 827.573,-86 835.866,-86"/>
<polygon fill="midnightblue" stroke="midnightblue" points="810.243,-82.5001 800.243,-86 810.243,-89.5001 810.243,-82.5001"/>
</g>
<!-- Node83 -->
<g id="node8" class="node"><title>Node83</title>
<g id="a_node8"><a xlink:href="../../d1/ded/classimage.html#a4689c56b85c46d48ea52f0c9fa13891e" target="_top" xlink:title="image::processing">
<polygon fill="white" stroke="black" points="978,-76.5 978,-95.5 1074,-95.5 1074,-76.5 978,-76.5"/>
<text text-anchor="middle" x="1026" y="-83.5" font-family="Helvetica,sans-Serif" font-size="10.00">image::processing</text>
</a>
</g>
</g>
<!-- Node82&#45;&gt;Node83 -->
<g id="edge7" class="edge"><title>Node82&#45;&gt;Node83</title>
<path fill="none" stroke="midnightblue" d="M952.206,-86C960.809,-86 969.527,-86 977.797,-86"/>
<polygon fill="midnightblue" stroke="midnightblue" points="952.195,-82.5001 942.195,-86 952.194,-89.5001 952.195,-82.5001"/>
</g>
<!-- Node84 -->
<g id="node9" class="node"><title>Node84</title>
<g id="a_node9"><a xlink:href="../../d9/dc6/class_main_window.html#a9a45eb9ebe6d27bcd23677d9fbb74dd8" target="_top" xlink:title="MainWindow::on_Go_clicked">
<polygon fill="white" stroke="black" points="1110,-76.5 1110,-95.5 1253,-95.5 1253,-76.5 1110,-76.5"/>
<text text-anchor="middle" x="1181.5" y="-83.5" font-family="Helvetica,sans-Serif" font-size="10.00">MainWindow::on_Go_clicked</text>
</a>
</g>
</g>
<!-- Node83&#45;&gt;Node84 -->
<g id="edge8" class="edge"><title>Node83&#45;&gt;Node84</title>
<path fill="none" stroke="midnightblue" d="M1084.58,-86C1092.85,-86 1101.44,-86 1109.93,-86"/>
<polygon fill="midnightblue" stroke="midnightblue" points="1084.31,-82.5001 1074.31,-86 1084.31,-89.5001 1084.31,-82.5001"/>
</g>
</g>
</svg>
