<?xml version="1.0" encoding="UTF-8" standalone="no"?>
<!DOCTYPE svg PUBLIC "-//W3C//DTD SVG 1.1//EN"
 "http://www.w3.org/Graphics/SVG/1.1/DTD/svg11.dtd">
<!-- Generated by graphviz version 2.38.0 (20140413.2041)
 -->
<!-- Title: regionModel::getMeanSpectrum Pages: 1 -->
<svg width="1299pt" height="104pt"
 viewBox="0.00 0.00 1299.00 104.00" xmlns="http://www.w3.org/2000/svg" xmlns:xlink="http://www.w3.org/1999/xlink">
<g id="graph0" class="graph" transform="scale(1 1) rotate(0) translate(4 100)">
<title>regionModel::getMeanSpectrum</title>
<polygon fill="white" stroke="none" points="-4,4 -4,-100 1295,-100 1295,4 -4,4"/>
<!-- Node47 -->
<g id="node1" class="node"><title>Node47</title>
<polygon fill="#bfbfbf" stroke="black" points="0,-38.5 0,-57.5 155,-57.5 155,-38.5 0,-38.5"/>
<text text-anchor="middle" x="77.5" y="-45.5" font-family="Helvetica,sans-Serif" font-size="10.00">regionModel::getMeanSpectrum</text>
</g>
<!-- Node48 -->
<g id="node2" class="node"><title>Node48</title>
<g id="a_node2"><a xlink:href="../../dc/d8f/class_node.html#a5560fab35ef65b0bf137c7c70c3b8e4d" target="_top" xlink:title="Node::getMeanSpectrum">
<polygon fill="white" stroke="black" points="191,-38.5 191,-57.5 316,-57.5 316,-38.5 191,-38.5"/>
<text text-anchor="middle" x="253.5" y="-45.5" font-family="Helvetica,sans-Serif" font-size="10.00">Node::getMeanSpectrum</text>
</a>
</g>
</g>
<!-- Node47&#45;&gt;Node48 -->
<g id="edge1" class="edge"><title>Node47&#45;&gt;Node48</title>
<path fill="none" stroke="midnightblue" d="M165.193,-48C173.833,-48 182.477,-48 190.784,-48"/>
<polygon fill="midnightblue" stroke="midnightblue" points="165.072,-44.5001 155.072,-48 165.072,-51.5001 165.072,-44.5001"/>
</g>
<!-- Node49 -->
<g id="node3" class="node"><title>Node49</title>
<g id="a_node3"><a xlink:href="../../d9/da1/classio.html#a4cca3fdf98e917cac1b3e776c7634aec" target="_top" xlink:title="io::writeBoarderNodeToCSV">
<polygon fill="white" stroke="black" points="352,-38.5 352,-57.5 492,-57.5 492,-38.5 352,-38.5"/>
<text text-anchor="middle" x="422" y="-45.5" font-family="Helvetica,sans-Serif" font-size="10.00">io::writeBoarderNodeToCSV</text>
</a>
</g>
</g>
<!-- Node48&#45;&gt;Node49 -->
<g id="edge2" class="edge"><title>Node48&#45;&gt;Node49</title>
<path fill="none" stroke="midnightblue" d="M326.277,-48C334.767,-48 343.419,-48 351.871,-48"/>
<polygon fill="midnightblue" stroke="midnightblue" points="326.025,-44.5001 316.025,-48 326.025,-51.5001 326.025,-44.5001"/>
</g>
<!-- Node50 -->
<g id="node4" class="node"><title>Node50</title>
<g id="a_node4"><a xlink:href="../../d8/dd2/classimageblock.html#adbafde60f699582250656ddc2ebe82e2" target="_top" xlink:title="imageblock::saveToDisk">
<polygon fill="white" stroke="black" points="543,-76.5 543,-95.5 668,-95.5 668,-76.5 543,-76.5"/>
<text text-anchor="middle" x="605.5" y="-83.5" font-family="Helvetica,sans-Serif" font-size="10.00">imageblock::saveToDisk</text>
</a>
</g>
</g>
<!-- Node49&#45;&gt;Node50 -->
<g id="edge3" class="edge"><title>Node49&#45;&gt;Node50</title>
<path fill="none" stroke="midnightblue" d="M478.792,-59.681C504.531,-65.0699 534.699,-71.3861 559.029,-76.4799"/>
<polygon fill="midnightblue" stroke="midnightblue" points="479.305,-56.2126 468.8,-57.589 477.871,-63.064 479.305,-56.2126"/>
</g>
<!-- Node55 -->
<g id="node9" class="node"><title>Node55</title>
<g id="a_node9"><a xlink:href="../../d1/ded/classimage.html#aa04b765a3c2cc6860a22ebfbedbcd7fc" target="_top" xlink:title="image::saveToDisk">
<polygon fill="white" stroke="black" points="555,-38.5 555,-57.5 656,-57.5 656,-38.5 555,-38.5"/>
<text text-anchor="middle" x="605.5" y="-45.5" font-family="Helvetica,sans-Serif" font-size="10.00">image::saveToDisk</text>
</a>
</g>
</g>
<!-- Node49&#45;&gt;Node55 -->
<g id="edge8" class="edge"><title>Node49&#45;&gt;Node55</title>
<path fill="none" stroke="midnightblue" d="M502.5,-48C520.255,-48 538.593,-48 554.739,-48"/>
<polygon fill="midnightblue" stroke="midnightblue" points="502.135,-44.5001 492.135,-48 502.135,-51.5001 502.135,-44.5001"/>
</g>
<!-- Node56 -->
<g id="node10" class="node"><title>Node56</title>
<g id="a_node10"><a xlink:href="../../d9/da1/classio.html#af3def6eac9bbdd2a12de24104be3acd6" target="_top" xlink:title="io::writeBoarderNodeSetToCSV">
<polygon fill="white" stroke="black" points="528,-0.5 528,-19.5 683,-19.5 683,-0.5 528,-0.5"/>
<text text-anchor="middle" x="605.5" y="-7.5" font-family="Helvetica,sans-Serif" font-size="10.00">io::writeBoarderNodeSetToCSV</text>
</a>
</g>
</g>
<!-- Node49&#45;&gt;Node56 -->
<g id="edge9" class="edge"><title>Node49&#45;&gt;Node56</title>
<path fill="none" stroke="midnightblue" d="M478.792,-36.319C504.531,-30.9301 534.699,-24.6139 559.029,-19.5201"/>
<polygon fill="midnightblue" stroke="midnightblue" points="477.871,-32.936 468.8,-38.411 479.305,-39.7874 477.871,-32.936"/>
</g>
<!-- Node51 -->
<g id="node5" class="node"><title>Node51</title>
<g id="a_node5"><a xlink:href="../../d8/dd2/classimageblock.html#af3b91e3daaa8014af1239f60da6b0bf5" target="_top" xlink:title="imageblock::processing">
<polygon fill="white" stroke="black" points="719,-76.5 719,-95.5 838,-95.5 838,-76.5 719,-76.5"/>
<text text-anchor="middle" x="778.5" y="-83.5" font-family="Helvetica,sans-Serif" font-size="10.00">imageblock::processing</text>
</a>
</g>
</g>
<!-- Node50&#45;&gt;Node51 -->
<g id="edge4" class="edge"><title>Node50&#45;&gt;Node51</title>
<path fill="none" stroke="midnightblue" d="M678.457,-86C691.972,-86 705.951,-86 718.995,-86"/>
<polygon fill="midnightblue" stroke="midnightblue" points="678.235,-82.5001 668.235,-86 678.235,-89.5001 678.235,-82.5001"/>
</g>
<!-- Node52 -->
<g id="node6" class="node"><title>Node52</title>
<g id="a_node6"><a xlink:href="../../d1/ded/classimage.html#ad5a9d767eca6f9bbb8dcb556527edf4d" target="_top" xlink:title="image::ProcessTiles">
<polygon fill="white" stroke="black" points="874,-76.5 874,-95.5 980,-95.5 980,-76.5 874,-76.5"/>
<text text-anchor="middle" x="927" y="-83.5" font-family="Helvetica,sans-Serif" font-size="10.00">image::ProcessTiles</text>
</a>
</g>
</g>
<!-- Node51&#45;&gt;Node52 -->
<g id="edge5" class="edge"><title>Node51&#45;&gt;Node52</title>
<path fill="none" stroke="midnightblue" d="M848.279,-86C856.884,-86 865.573,-86 873.866,-86"/>
<polygon fill="midnightblue" stroke="midnightblue" points="848.243,-82.5001 838.243,-86 848.243,-89.5001 848.243,-82.5001"/>
</g>
<!-- Node53 -->
<g id="node7" class="node"><title>Node53</title>
<g id="a_node7"><a xlink:href="../../d1/ded/classimage.html#a4689c56b85c46d48ea52f0c9fa13891e" target="_top" xlink:title="image::processing">
<polygon fill="white" stroke="black" points="1016,-76.5 1016,-95.5 1112,-95.5 1112,-76.5 1016,-76.5"/>
<text text-anchor="middle" x="1064" y="-83.5" font-family="Helvetica,sans-Serif" font-size="10.00">image::processing</text>
</a>
</g>
</g>
<!-- Node52&#45;&gt;Node53 -->
<g id="edge6" class="edge"><title>Node52&#45;&gt;Node53</title>
<path fill="none" stroke="midnightblue" d="M990.206,-86C998.809,-86 1007.53,-86 1015.8,-86"/>
<polygon fill="midnightblue" stroke="midnightblue" points="990.195,-82.5001 980.195,-86 990.194,-89.5001 990.195,-82.5001"/>
</g>
<!-- Node54 -->
<g id="node8" class="node"><title>Node54</title>
<g id="a_node8"><a xlink:href="../../d9/dc6/class_main_window.html#a9a45eb9ebe6d27bcd23677d9fbb74dd8" target="_top" xlink:title="MainWindow::on_Go_clicked">
<polygon fill="white" stroke="black" points="1148,-76.5 1148,-95.5 1291,-95.5 1291,-76.5 1148,-76.5"/>
<text text-anchor="middle" x="1219.5" y="-83.5" font-family="Helvetica,sans-Serif" font-size="10.00">MainWindow::on_Go_clicked</text>
</a>
</g>
</g>
<!-- Node53&#45;&gt;Node54 -->
<g id="edge7" class="edge"><title>Node53&#45;&gt;Node54</title>
<path fill="none" stroke="midnightblue" d="M1122.58,-86C1130.85,-86 1139.44,-86 1147.93,-86"/>
<polygon fill="midnightblue" stroke="midnightblue" points="1122.31,-82.5001 1112.31,-86 1122.31,-89.5001 1122.31,-82.5001"/>
</g>
</g>
</svg>
