<?xml version="1.0" encoding="UTF-8" standalone="no"?>
<!DOCTYPE svg PUBLIC "-//W3C//DTD SVG 1.1//EN"
 "http://www.w3.org/Graphics/SVG/1.1/DTD/svg11.dtd">
<!-- Generated by graphviz version 2.38.0 (20140413.2041)
 -->
<!-- Title: image.h Pages: 1 -->
<svg width="219pt" height="140pt"
 viewBox="0.00 0.00 218.50 140.00" xmlns="http://www.w3.org/2000/svg" xmlns:xlink="http://www.w3.org/1999/xlink">
<g id="graph0" class="graph" transform="scale(1 1) rotate(0) translate(4 136)">
<title>image.h</title>
<polygon fill="white" stroke="none" points="-4,4 -4,-136 214.5,-136 214.5,4 -4,4"/>
<!-- Node32 -->
<g id="node1" class="node"><title>Node32</title>
<polygon fill="#bfbfbf" stroke="black" points="49.5,-112.5 49.5,-131.5 100.5,-131.5 100.5,-112.5 49.5,-112.5"/>
<text text-anchor="middle" x="75" y="-119.5" font-family="Helvetica,sans-Serif" font-size="10.00">image.h</text>
</g>
<!-- Node33 -->
<g id="node2" class="node"><title>Node33</title>
<g id="a_node2"><a xlink:href="../../db/d11/image_8cpp.html" target="_top" xlink:title="image.cpp">
<polygon fill="white" stroke="black" points="0,-56.5 0,-75.5 62,-75.5 62,-56.5 0,-56.5"/>
<text text-anchor="middle" x="31" y="-63.5" font-family="Helvetica,sans-Serif" font-size="10.00">image.cpp</text>
</a>
</g>
</g>
<!-- Node32&#45;&gt;Node33 -->
<g id="edge1" class="edge"><title>Node32&#45;&gt;Node33</title>
<path fill="none" stroke="midnightblue" d="M61.2655,-104.144C53.5995,-94.7357 44.3667,-83.4046 38.1305,-75.7511"/>
<polygon fill="midnightblue" stroke="midnightblue" points="58.7042,-106.541 67.7343,-112.083 64.1309,-102.12 58.7042,-106.541"/>
</g>
<!-- Node34 -->
<g id="node3" class="node"><title>Node34</title>
<g id="a_node3"><a xlink:href="../../d9/d53/mainwindow_8h.html" target="_top" xlink:title="mainwindow.h">
<polygon fill="white" stroke="black" points="80.5,-56.5 80.5,-75.5 159.5,-75.5 159.5,-56.5 80.5,-56.5"/>
<text text-anchor="middle" x="120" y="-63.5" font-family="Helvetica,sans-Serif" font-size="10.00">mainwindow.h</text>
</a>
</g>
</g>
<!-- Node32&#45;&gt;Node34 -->
<g id="edge2" class="edge"><title>Node32&#45;&gt;Node34</title>
<path fill="none" stroke="midnightblue" d="M89.0467,-104.144C96.8869,-94.7357 106.329,-83.4046 112.707,-75.7511"/>
<polygon fill="midnightblue" stroke="midnightblue" points="86.1439,-102.16 82.4308,-112.083 91.5215,-106.641 86.1439,-102.16"/>
</g>
<!-- Node35 -->
<g id="node4" class="node"><title>Node35</title>
<g id="a_node4"><a xlink:href="../../df/d0a/main_8cpp.html" target="_top" xlink:title="main.cpp">
<polygon fill="white" stroke="black" points="47,-0.5 47,-19.5 103,-19.5 103,-0.5 47,-0.5"/>
<text text-anchor="middle" x="75" y="-7.5" font-family="Helvetica,sans-Serif" font-size="10.00">main.cpp</text>
</a>
</g>
</g>
<!-- Node34&#45;&gt;Node35 -->
<g id="edge3" class="edge"><title>Node34&#45;&gt;Node35</title>
<path fill="none" stroke="midnightblue" d="M105.953,-48.144C98.1131,-38.7357 88.6705,-27.4046 82.2926,-19.7511"/>
<polygon fill="midnightblue" stroke="midnightblue" points="103.479,-50.6414 112.569,-56.083 108.856,-46.1601 103.479,-50.6414"/>
</g>
<!-- Node36 -->
<g id="node5" class="node"><title>Node36</title>
<g id="a_node5"><a xlink:href="../../d8/dd9/mainwindow_8cpp.html" target="_top" xlink:title="mainwindow.cpp">
<polygon fill="white" stroke="black" points="121.5,-0.5 121.5,-19.5 210.5,-19.5 210.5,-0.5 121.5,-0.5"/>
<text text-anchor="middle" x="166" y="-7.5" font-family="Helvetica,sans-Serif" font-size="10.00">mainwindow.cpp</text>
</a>
</g>
</g>
<!-- Node34&#45;&gt;Node36 -->
<g id="edge4" class="edge"><title>Node34&#45;&gt;Node36</title>
<path fill="none" stroke="midnightblue" d="M134.114,-48.4314C142.176,-38.9673 151.959,-27.4827 158.545,-19.7511"/>
<polygon fill="midnightblue" stroke="midnightblue" points="131.416,-46.2009 127.596,-56.083 136.745,-50.7402 131.416,-46.2009"/>
</g>
</g>
</svg>
