<?xml version="1.0" encoding="UTF-8" standalone="no"?>
<!DOCTYPE svg PUBLIC "-//W3C//DTD SVG 1.1//EN"
 "http://www.w3.org/Graphics/SVG/1.1/DTD/svg11.dtd">
<!-- Generated by graphviz version 2.38.0 (20140413.2041)
 -->
<!-- Title: imageblock.h Pages: 1 -->
<svg width="1128pt" height="364pt"
 viewBox="0.00 0.00 1127.50 364.00" xmlns="http://www.w3.org/2000/svg" xmlns:xlink="http://www.w3.org/1999/xlink">
<g id="graph0" class="graph" transform="scale(1 1) rotate(0) translate(4 360)">
<title>imageblock.h</title>
<polygon fill="white" stroke="none" points="-4,4 -4,-360 1123.5,-360 1123.5,4 -4,4"/>
<!-- Node0 -->
<g id="node1" class="node"><title>Node0</title>
<polygon fill="#bfbfbf" stroke="black" points="781,-336.5 781,-355.5 855,-355.5 855,-336.5 781,-336.5"/>
<text text-anchor="middle" x="818" y="-343.5" font-family="Helvetica,sans-Serif" font-size="10.00">imageblock.h</text>
</g>
<!-- Node1 -->
<g id="node2" class="node"><title>Node1</title>
<polygon fill="white" stroke="#bfbfbf" points="590,-0.5 590,-19.5 634,-19.5 634,-0.5 590,-0.5"/>
<text text-anchor="middle" x="612" y="-7.5" font-family="Helvetica,sans-Serif" font-size="10.00">vector</text>
</g>
<!-- Node0&#45;&gt;Node1 -->
<g id="edge1" class="edge"><title>Node0&#45;&gt;Node1</title>
<path fill="none" stroke="midnightblue" d="M855.405,-340.697C911.779,-331.899 1012,-306.241 1012,-235 1012,-235 1012,-235 1012,-121 1012,-72.7333 969.601,-74.4498 925,-56 828.53,-16.0942 702.67,-10.644 644.315,-10.48"/>
<polygon fill="midnightblue" stroke="midnightblue" points="644.218,-6.9801 634.226,-10.5038 644.235,-13.9801 644.218,-6.9801"/>
</g>
<!-- Node2 -->
<g id="node3" class="node"><title>Node2</title>
<g id="a_node3"><a xlink:href="../../d8/dfb/rag_8h.html" target="_top" xlink:title="rag.h">
<polygon fill="white" stroke="black" points="561,-168.5 561,-187.5 599,-187.5 599,-168.5 561,-168.5"/>
<text text-anchor="middle" x="580" y="-175.5" font-family="Helvetica,sans-Serif" font-size="10.00">rag.h</text>
</a>
</g>
</g>
<!-- Node0&#45;&gt;Node2 -->
<g id="edge2" class="edge"><title>Node0&#45;&gt;Node2</title>
<path fill="none" stroke="midnightblue" d="M815.571,-336.186C808.459,-310.996 787.049,-239.51 769,-224 723.442,-184.851 649.807,-178.393 609.205,-178.089"/>
<polygon fill="midnightblue" stroke="midnightblue" points="609.138,-174.589 599.155,-178.135 609.171,-181.589 609.138,-174.589"/>
</g>
<!-- Node6 -->
<g id="node7" class="node"><title>Node6</title>
<polygon fill="white" stroke="#bfbfbf" points="0,-56.5 0,-75.5 64,-75.5 64,-56.5 0,-56.5"/>
<text text-anchor="middle" x="32" y="-63.5" font-family="Helvetica,sans-Serif" font-size="10.00">gdal_priv.h</text>
</g>
<!-- Node0&#45;&gt;Node6 -->
<g id="edge54" class="edge"><title>Node0&#45;&gt;Node6</title>
<path fill="none" stroke="midnightblue" d="M780.787,-343.78C624.591,-338.174 30,-311.793 30,-235 30,-235 30,-235 30,-177 30,-144.943 30.8596,-107.639 31.4518,-85.747"/>
<polygon fill="midnightblue" stroke="midnightblue" points="34.9557,-85.6513 31.7385,-75.5568 27.9585,-85.4544 34.9557,-85.6513"/>
</g>
<!-- Node16 -->
<g id="node17" class="node"><title>Node16</title>
<g id="a_node17"><a xlink:href="../../dc/dac/io_8h.html" target="_top" xlink:title="io.h">
<polygon fill="white" stroke="black" points="251,-280.5 251,-299.5 283,-299.5 283,-280.5 251,-280.5"/>
<text text-anchor="middle" x="267" y="-287.5" font-family="Helvetica,sans-Serif" font-size="10.00">io.h</text>
</a>
</g>
</g>
<!-- Node0&#45;&gt;Node16 -->
<g id="edge21" class="edge"><title>Node0&#45;&gt;Node16</title>
<path fill="none" stroke="midnightblue" d="M780.992,-341.373C676.758,-331.158 382.523,-302.322 293.101,-293.558"/>
<polygon fill="midnightblue" stroke="midnightblue" points="293.303,-290.061 283.009,-292.569 292.62,-297.028 293.303,-290.061"/>
</g>
<!-- Node26 -->
<g id="node27" class="node"><title>Node26</title>
<g id="a_node27"><a xlink:href="../../d8/df5/initializer_8h.html" target="_top" xlink:title="initializer.h">
<polygon fill="white" stroke="black" points="816.5,-280.5 816.5,-299.5 879.5,-299.5 879.5,-280.5 816.5,-280.5"/>
<text text-anchor="middle" x="848" y="-287.5" font-family="Helvetica,sans-Serif" font-size="10.00">initializer.h</text>
</a>
</g>
</g>
<!-- Node0&#45;&gt;Node26 -->
<g id="edge47" class="edge"><title>Node0&#45;&gt;Node26</title>
<path fill="none" stroke="midnightblue" d="M822.954,-336.083C827.104,-328.613 833.153,-317.724 838.267,-308.52"/>
<polygon fill="midnightblue" stroke="midnightblue" points="841.341,-310.192 843.138,-299.751 835.222,-306.793 841.341,-310.192"/>
</g>
<!-- Node28 -->
<g id="node29" class="node"><title>Node28</title>
<g id="a_node29"><a xlink:href="../../dc/d80/enumerators_8h.html" target="_top" xlink:title="enumerators.h">
<polygon fill="white" stroke="black" points="1040.5,-280.5 1040.5,-299.5 1119.5,-299.5 1119.5,-280.5 1040.5,-280.5"/>
<text text-anchor="middle" x="1080" y="-287.5" font-family="Helvetica,sans-Serif" font-size="10.00">enumerators.h</text>
</a>
</g>
</g>
<!-- Node0&#45;&gt;Node28 -->
<g id="edge55" class="edge"><title>Node0&#45;&gt;Node28</title>
<path fill="none" stroke="midnightblue" d="M855.26,-337.32C901.219,-327.848 979.504,-311.713 1030.48,-301.206"/>
<polygon fill="midnightblue" stroke="midnightblue" points="1031.21,-304.63 1040.3,-299.183 1029.8,-297.774 1031.21,-304.63"/>
</g>
<!-- Node3 -->
<g id="node4" class="node"><title>Node3</title>
<g id="a_node4"><a xlink:href="../../d1/d77/node_8h.html" target="_top" xlink:title="node.h">
<polygon fill="white" stroke="black" points="178,-112.5 178,-131.5 224,-131.5 224,-112.5 178,-112.5"/>
<text text-anchor="middle" x="201" y="-119.5" font-family="Helvetica,sans-Serif" font-size="10.00">node.h</text>
</a>
</g>
</g>
<!-- Node2&#45;&gt;Node3 -->
<g id="edge3" class="edge"><title>Node2&#45;&gt;Node3</title>
<path fill="none" stroke="midnightblue" d="M560.946,-174.285C500.303,-165.645 311.254,-138.709 234.197,-127.73"/>
<polygon fill="midnightblue" stroke="midnightblue" points="234.485,-124.236 224.092,-126.29 233.498,-131.166 234.485,-124.236"/>
</g>
<!-- Node10 -->
<g id="node11" class="node"><title>Node10</title>
<polygon fill="white" stroke="#bfbfbf" points="715,-56.5 715,-75.5 769,-75.5 769,-56.5 715,-56.5"/>
<text text-anchor="middle" x="742" y="-63.5" font-family="Helvetica,sans-Serif" font-size="10.00">iostream</text>
</g>
<!-- Node2&#45;&gt;Node10 -->
<g id="edge12" class="edge"><title>Node2&#45;&gt;Node10</title>
<path fill="none" stroke="midnightblue" d="M595.745,-168.364C611.339,-159.652 635.753,-145.583 656,-132 679.955,-115.929 706.24,-95.6477 723.365,-82.0515"/>
<polygon fill="midnightblue" stroke="midnightblue" points="725.799,-84.5866 731.424,-75.6086 721.428,-79.1189 725.799,-84.5866"/>
</g>
<!-- Node11 -->
<g id="node12" class="node"><title>Node11</title>
<g id="a_node12"><a xlink:href="../../d3/d0c/edgeheap_8h.html" target="_top" xlink:title="edgeheap.h">
<polygon fill="white" stroke="black" points="580.5,-112.5 580.5,-131.5 647.5,-131.5 647.5,-112.5 580.5,-112.5"/>
<text text-anchor="middle" x="614" y="-119.5" font-family="Helvetica,sans-Serif" font-size="10.00">edgeheap.h</text>
</a>
</g>
</g>
<!-- Node2&#45;&gt;Node11 -->
<g id="edge13" class="edge"><title>Node2&#45;&gt;Node11</title>
<path fill="none" stroke="midnightblue" d="M585.614,-168.083C590.367,-160.534 597.318,-149.495 603.152,-140.23"/>
<polygon fill="midnightblue" stroke="midnightblue" points="606.124,-142.078 608.49,-131.751 600.2,-138.349 606.124,-142.078"/>
</g>
<!-- Node13 -->
<g id="node14" class="node"><title>Node13</title>
<polygon fill="white" stroke="#bfbfbf" points="528,-56.5 528,-75.5 584,-75.5 584,-56.5 528,-56.5"/>
<text text-anchor="middle" x="556" y="-63.5" font-family="Helvetica,sans-Serif" font-size="10.00">algorithm</text>
</g>
<!-- Node2&#45;&gt;Node13 -->
<g id="edge18" class="edge"><title>Node2&#45;&gt;Node13</title>
<path fill="none" stroke="midnightblue" d="M560.739,-176.105C533.251,-173.668 483.601,-164.709 461,-132 442.854,-105.738 484.338,-86.9429 518.104,-76.5209"/>
<polygon fill="midnightblue" stroke="midnightblue" points="519.198,-79.8476 527.813,-73.6802 517.232,-73.1293 519.198,-79.8476"/>
</g>
<!-- Node14 -->
<g id="node15" class="node"><title>Node14</title>
<polygon fill="white" stroke="#bfbfbf" points="470.5,-112.5 470.5,-131.5 513.5,-131.5 513.5,-112.5 470.5,-112.5"/>
<text text-anchor="middle" x="492" y="-119.5" font-family="Helvetica,sans-Serif" font-size="10.00">QMap</text>
</g>
<!-- Node2&#45;&gt;Node14 -->
<g id="edge19" class="edge"><title>Node2&#45;&gt;Node14</title>
<path fill="none" stroke="midnightblue" d="M565.861,-168.324C552.134,-159.9 531.064,-146.971 514.936,-137.074"/>
<polygon fill="midnightblue" stroke="midnightblue" points="516.457,-133.902 506.104,-131.655 512.796,-139.868 516.457,-133.902"/>
</g>
<!-- Node15 -->
<g id="node16" class="node"><title>Node15</title>
<polygon fill="white" stroke="#bfbfbf" points="532,-112.5 532,-131.5 562,-131.5 562,-112.5 532,-112.5"/>
<text text-anchor="middle" x="547" y="-119.5" font-family="Helvetica,sans-Serif" font-size="10.00">set</text>
</g>
<!-- Node2&#45;&gt;Node15 -->
<g id="edge20" class="edge"><title>Node2&#45;&gt;Node15</title>
<path fill="none" stroke="midnightblue" d="M574.551,-168.083C569.986,-160.613 563.332,-149.724 557.707,-140.52"/>
<polygon fill="midnightblue" stroke="midnightblue" points="560.549,-138.459 552.348,-131.751 554.576,-142.109 560.549,-138.459"/>
</g>
<!-- Node3&#45;&gt;Node1 -->
<g id="edge4" class="edge"><title>Node3&#45;&gt;Node1</title>
<path fill="none" stroke="midnightblue" d="M192.006,-112.45C178.943,-99.0189 157.85,-72.7819 173,-56 200.185,-25.886 482.908,-14.7983 579.703,-11.8678"/>
<polygon fill="midnightblue" stroke="midnightblue" points="579.889,-15.3639 589.782,-11.572 579.684,-8.36693 579.889,-15.3639"/>
</g>
<!-- Node4 -->
<g id="node5" class="node"><title>Node4</title>
<polygon fill="white" stroke="#bfbfbf" points="182.5,-56.5 182.5,-75.5 221.5,-75.5 221.5,-56.5 182.5,-56.5"/>
<text text-anchor="middle" x="202" y="-63.5" font-family="Helvetica,sans-Serif" font-size="10.00">QSet</text>
</g>
<!-- Node3&#45;&gt;Node4 -->
<g id="edge5" class="edge"><title>Node3&#45;&gt;Node4</title>
<path fill="none" stroke="midnightblue" d="M201.165,-112.083C201.296,-105.006 201.484,-94.8611 201.648,-85.9865"/>
<polygon fill="midnightblue" stroke="midnightblue" points="205.152,-85.8142 201.838,-75.7511 198.153,-85.6845 205.152,-85.8142"/>
</g>
<!-- Node5 -->
<g id="node6" class="node"><title>Node5</title>
<polygon fill="white" stroke="#bfbfbf" points="82.5,-56.5 82.5,-75.5 125.5,-75.5 125.5,-56.5 82.5,-56.5"/>
<text text-anchor="middle" x="104" y="-63.5" font-family="Helvetica,sans-Serif" font-size="10.00">gdal.h</text>
</g>
<!-- Node3&#45;&gt;Node5 -->
<g id="edge6" class="edge"><title>Node3&#45;&gt;Node5</title>
<path fill="none" stroke="midnightblue" d="M185.415,-112.324C170.001,-103.743 146.188,-90.486 128.29,-80.5224"/>
<polygon fill="midnightblue" stroke="midnightblue" points="129.986,-77.4606 119.546,-75.6545 126.581,-83.5767 129.986,-77.4606"/>
</g>
<!-- Node3&#45;&gt;Node6 -->
<g id="edge7" class="edge"><title>Node3&#45;&gt;Node6</title>
<path fill="none" stroke="midnightblue" d="M177.856,-113.605C149.673,-104.6 101.736,-89.2824 68.5487,-78.6783"/>
<polygon fill="midnightblue" stroke="midnightblue" points="69.3519,-75.2607 58.7611,-75.5509 67.2213,-81.9285 69.3519,-75.2607"/>
</g>
<!-- Node7 -->
<g id="node8" class="node"><title>Node7</title>
<polygon fill="white" stroke="#bfbfbf" points="240,-56.5 240,-75.5 310,-75.5 310,-56.5 240,-56.5"/>
<text text-anchor="middle" x="275" y="-63.5" font-family="Helvetica,sans-Serif" font-size="10.00">opencv/cv.h</text>
</g>
<!-- Node3&#45;&gt;Node7 -->
<g id="edge8" class="edge"><title>Node3&#45;&gt;Node7</title>
<path fill="none" stroke="midnightblue" d="M212.889,-112.324C224.15,-104.107 241.287,-91.6017 254.709,-81.8069"/>
<polygon fill="midnightblue" stroke="midnightblue" points="256.88,-84.5559 262.894,-75.8339 252.753,-78.9014 256.88,-84.5559"/>
</g>
<!-- Node8 -->
<g id="node9" class="node"><title>Node8</title>
<g id="a_node9"><a xlink:href="../../d9/dcf/region_model_8h.html" target="_top" xlink:title="regionModel.h">
<polygon fill="white" stroke="black" points="328.5,-56.5 328.5,-75.5 405.5,-75.5 405.5,-56.5 328.5,-56.5"/>
<text text-anchor="middle" x="367" y="-63.5" font-family="Helvetica,sans-Serif" font-size="10.00">regionModel.h</text>
</a>
</g>
</g>
<!-- Node3&#45;&gt;Node8 -->
<g id="edge9" class="edge"><title>Node3&#45;&gt;Node8</title>
<path fill="none" stroke="midnightblue" d="M224.082,-113.492C251.854,-104.457 298.792,-89.1881 331.26,-78.6263"/>
<polygon fill="midnightblue" stroke="midnightblue" points="332.407,-81.9336 340.834,-75.5118 330.242,-75.277 332.407,-81.9336"/>
</g>
<!-- Node9 -->
<g id="node10" class="node"><title>Node9</title>
<g id="a_node10"><a xlink:href="../../db/dc3/edge_8h.html" target="_top" xlink:title="edge.h">
<polygon fill="white" stroke="black" points="464,-56.5 464,-75.5 510,-75.5 510,-56.5 464,-56.5"/>
<text text-anchor="middle" x="487" y="-63.5" font-family="Helvetica,sans-Serif" font-size="10.00">edge.h</text>
</a>
</g>
</g>
<!-- Node3&#45;&gt;Node9 -->
<g id="edge11" class="edge"><title>Node3&#45;&gt;Node9</title>
<path fill="none" stroke="midnightblue" d="M224.405,-116.581C275.123,-107.005 395.303,-84.3134 453.827,-73.2635"/>
<polygon fill="midnightblue" stroke="midnightblue" points="454.496,-76.699 463.673,-71.4044 453.197,-69.8206 454.496,-76.699"/>
</g>
<!-- Node8&#45;&gt;Node1 -->
<g id="edge10" class="edge"><title>Node8&#45;&gt;Node1</title>
<path fill="none" stroke="midnightblue" d="M405.551,-56.5031C453.683,-45.8944 535.131,-27.9425 579.988,-18.0557"/>
<polygon fill="midnightblue" stroke="midnightblue" points="580.759,-21.4699 589.771,-15.8994 579.252,-14.634 580.759,-21.4699"/>
</g>
<!-- Node11&#45;&gt;Node1 -->
<g id="edge14" class="edge"><title>Node11&#45;&gt;Node1</title>
<path fill="none" stroke="midnightblue" d="M613.843,-112.368C613.52,-94.617 612.776,-53.6664 612.338,-29.5974"/>
<polygon fill="midnightblue" stroke="midnightblue" points="615.838,-29.5261 612.156,-19.5914 608.839,-29.6534 615.838,-29.5261"/>
</g>
<!-- Node11&#45;&gt;Node9 -->
<g id="edge15" class="edge"><title>Node11&#45;&gt;Node9</title>
<path fill="none" stroke="midnightblue" d="M593.876,-112.444C572.976,-103.557 540.065,-89.5632 516.284,-79.4514"/>
<polygon fill="midnightblue" stroke="midnightblue" points="517.602,-76.2085 507.029,-75.5164 514.862,-82.6504 517.602,-76.2085"/>
</g>
<!-- Node12 -->
<g id="node13" class="node"><title>Node12</title>
<polygon fill="white" stroke="#bfbfbf" points="640.5,-56.5 640.5,-75.5 687.5,-75.5 687.5,-56.5 640.5,-56.5"/>
<text text-anchor="middle" x="664" y="-63.5" font-family="Helvetica,sans-Serif" font-size="10.00">math.h</text>
</g>
<!-- Node11&#45;&gt;Node12 -->
<g id="edge16" class="edge"><title>Node11&#45;&gt;Node12</title>
<path fill="none" stroke="midnightblue" d="M622.256,-112.083C629.465,-104.298 640.11,-92.8015 648.846,-83.3665"/>
<polygon fill="midnightblue" stroke="midnightblue" points="651.671,-85.4666 655.897,-75.7511 646.535,-80.7108 651.671,-85.4666"/>
</g>
<!-- Node11&#45;&gt;Node13 -->
<g id="edge17" class="edge"><title>Node11&#45;&gt;Node13</title>
<path fill="none" stroke="midnightblue" d="M604.681,-112.324C596.107,-104.341 583.188,-92.3128 572.812,-82.6529"/>
<polygon fill="midnightblue" stroke="midnightblue" points="575.192,-80.0865 565.488,-75.8339 570.422,-85.2098 575.192,-80.0865"/>
</g>
<!-- Node16&#45;&gt;Node3 -->
<g id="edge25" class="edge"><title>Node16&#45;&gt;Node3</title>
<path fill="none" stroke="midnightblue" d="M264.753,-280.468C261.368,-267.932 254.545,-243.868 247,-224 235.699,-194.243 219.827,-160.831 209.99,-140.873"/>
<polygon fill="midnightblue" stroke="midnightblue" points="213.041,-139.147 205.452,-131.754 206.774,-142.266 213.041,-139.147"/>
</g>
<!-- Node16&#45;&gt;Node5 -->
<g id="edge22" class="edge"><title>Node16&#45;&gt;Node5</title>
<path fill="none" stroke="midnightblue" d="M250.746,-289.143C220.697,-288.444 156.644,-282.263 125,-244 86.9179,-197.952 94.3382,-120.664 100.283,-85.4651"/>
<polygon fill="midnightblue" stroke="midnightblue" points="103.729,-86.0778 102.102,-75.6087 96.8456,-84.8074 103.729,-86.0778"/>
</g>
<!-- Node16&#45;&gt;Node6 -->
<g id="edge23" class="edge"><title>Node16&#45;&gt;Node6</title>
<path fill="none" stroke="midnightblue" d="M250.529,-288.752C219.19,-287.421 150.422,-280.254 109,-244 83.7068,-221.862 50.7713,-125.73 37.7025,-85.1653"/>
<polygon fill="midnightblue" stroke="midnightblue" points="40.9974,-83.977 34.6301,-75.5089 34.3268,-86.0994 40.9974,-83.977"/>
</g>
<!-- Node16&#45;&gt;Node10 -->
<g id="edge24" class="edge"><title>Node16&#45;&gt;Node10</title>
<path fill="none" stroke="midnightblue" d="M283.031,-286.333C333.176,-277.566 490.695,-246.774 608,-188 645.512,-169.205 652.977,-160.249 684,-132 700.695,-116.797 717.644,-97.2196 728.872,-83.5403"/>
<polygon fill="midnightblue" stroke="midnightblue" points="731.8,-85.4854 735.365,-75.5081 726.356,-81.0851 731.8,-85.4854"/>
</g>
<!-- Node17 -->
<g id="node18" class="node"><title>Node17</title>
<g id="a_node18"><a xlink:href="../../df/d5e/compoundmodel_8h.html" target="_top" xlink:title="compoundmodel.h">
<polygon fill="white" stroke="black" points="318,-224.5 318,-243.5 414,-243.5 414,-224.5 318,-224.5"/>
<text text-anchor="middle" x="366" y="-231.5" font-family="Helvetica,sans-Serif" font-size="10.00">compoundmodel.h</text>
</a>
</g>
</g>
<!-- Node16&#45;&gt;Node17 -->
<g id="edge26" class="edge"><title>Node16&#45;&gt;Node17</title>
<path fill="none" stroke="midnightblue" d="M282.906,-280.324C298.638,-271.743 322.942,-258.486 341.209,-248.522"/>
<polygon fill="midnightblue" stroke="midnightblue" points="343.03,-251.516 350.133,-243.655 339.678,-245.37 343.03,-251.516"/>
</g>
<!-- Node23 -->
<g id="node24" class="node"><title>Node23</title>
<polygon fill="white" stroke="#bfbfbf" points="710,-224.5 710,-243.5 760,-243.5 760,-224.5 710,-224.5"/>
<text text-anchor="middle" x="735" y="-231.5" font-family="Helvetica,sans-Serif" font-size="10.00">fstream</text>
</g>
<!-- Node16&#45;&gt;Node23 -->
<g id="edge44" class="edge"><title>Node16&#45;&gt;Node23</title>
<path fill="none" stroke="midnightblue" d="M283.067,-288.026C339.825,-284.435 536.087,-270.735 696,-244 697.272,-243.787 698.565,-243.558 699.869,-243.316"/>
<polygon fill="midnightblue" stroke="midnightblue" points="700.818,-246.694 709.915,-241.264 699.417,-239.836 700.818,-246.694"/>
</g>
<!-- Node24 -->
<g id="node25" class="node"><title>Node24</title>
<polygon fill="white" stroke="#bfbfbf" points="134.5,-224.5 134.5,-243.5 179.5,-243.5 179.5,-224.5 134.5,-224.5"/>
<text text-anchor="middle" x="157" y="-231.5" font-family="Helvetica,sans-Serif" font-size="10.00">cstdlib</text>
</g>
<!-- Node16&#45;&gt;Node24 -->
<g id="edge45" class="edge"><title>Node16&#45;&gt;Node24</title>
<path fill="none" stroke="midnightblue" d="M250.769,-281.032C233.045,-272.331 204.391,-258.265 183.418,-247.969"/>
<polygon fill="midnightblue" stroke="midnightblue" points="184.907,-244.801 174.388,-243.536 181.822,-251.085 184.907,-244.801"/>
</g>
<!-- Node25 -->
<g id="node26" class="node"><title>Node25</title>
<polygon fill="white" stroke="#bfbfbf" points="197.5,-224.5 197.5,-243.5 238.5,-243.5 238.5,-224.5 197.5,-224.5"/>
<text text-anchor="middle" x="218" y="-231.5" font-family="Helvetica,sans-Serif" font-size="10.00">ctime</text>
</g>
<!-- Node16&#45;&gt;Node25 -->
<g id="edge46" class="edge"><title>Node16&#45;&gt;Node25</title>
<path fill="none" stroke="midnightblue" d="M258.909,-280.083C251.845,-272.298 241.412,-260.801 232.851,-251.367"/>
<polygon fill="midnightblue" stroke="midnightblue" points="235.253,-248.805 225.941,-243.751 230.069,-253.509 235.253,-248.805"/>
</g>
<!-- Node17&#45;&gt;Node8 -->
<g id="edge27" class="edge"><title>Node17&#45;&gt;Node8</title>
<path fill="none" stroke="midnightblue" d="M357.839,-224.446C342.864,-208.085 311.477,-170.545 300,-132 297.463,-123.481 295.819,-119.844 300,-112 307.55,-97.8339 321.761,-87.3348 335.158,-80.0576"/>
<polygon fill="midnightblue" stroke="midnightblue" points="336.834,-83.1329 344.212,-75.5289 333.702,-76.8724 336.834,-83.1329"/>
</g>
<!-- Node18 -->
<g id="node19" class="node"><title>Node18</title>
<g id="a_node19"><a xlink:href="../../d7/d51/histogrammodel_8h.html" target="_top" xlink:title="histogrammodel.h">
<polygon fill="white" stroke="black" points="740,-168.5 740,-187.5 834,-187.5 834,-168.5 740,-168.5"/>
<text text-anchor="middle" x="787" y="-175.5" font-family="Helvetica,sans-Serif" font-size="10.00">histogrammodel.h</text>
</a>
</g>
</g>
<!-- Node17&#45;&gt;Node18 -->
<g id="edge28" class="edge"><title>Node17&#45;&gt;Node18</title>
<path fill="none" stroke="midnightblue" d="M414.294,-226.806C492.459,-216.78 646.339,-197.042 729.842,-186.331"/>
<polygon fill="midnightblue" stroke="midnightblue" points="730.439,-189.784 739.912,-185.04 729.548,-182.841 730.439,-189.784"/>
</g>
<!-- Node22 -->
<g id="node23" class="node"><title>Node22</title>
<g id="a_node23"><a xlink:href="../../d9/d9a/probabilitymodel_8h.html" target="_top" xlink:title="probabilitymodel.h">
<polygon fill="white" stroke="black" points="318.5,-112.5 318.5,-131.5 413.5,-131.5 413.5,-112.5 318.5,-112.5"/>
<text text-anchor="middle" x="366" y="-119.5" font-family="Helvetica,sans-Serif" font-size="10.00">probabilitymodel.h</text>
</a>
</g>
</g>
<!-- Node17&#45;&gt;Node22 -->
<g id="edge39" class="edge"><title>Node17&#45;&gt;Node22</title>
<path fill="none" stroke="midnightblue" d="M366,-224.368C366,-206.617 366,-165.666 366,-141.597"/>
<polygon fill="midnightblue" stroke="midnightblue" points="369.5,-141.591 366,-131.591 362.5,-141.591 369.5,-141.591"/>
</g>
<!-- Node18&#45;&gt;Node1 -->
<g id="edge37" class="edge"><title>Node18&#45;&gt;Node1</title>
<path fill="none" stroke="midnightblue" d="M834.107,-173.789C862.856,-169.11 897.526,-158.01 916,-132 928.289,-114.698 921.327,-72.3474 904,-56 867.08,-21.1683 712.724,-13.2976 644.577,-11.5192"/>
<polygon fill="midnightblue" stroke="midnightblue" points="644.49,-8.01628 634.411,-11.2828 644.327,-15.0144 644.49,-8.01628"/>
</g>
<!-- Node18&#45;&gt;Node3 -->
<g id="edge30" class="edge"><title>Node18&#45;&gt;Node3</title>
<path fill="none" stroke="midnightblue" d="M739.751,-173.341C649.529,-166.243 446.518,-149.735 276,-132 262.311,-130.576 247.241,-128.807 234.224,-127.216"/>
<polygon fill="midnightblue" stroke="midnightblue" points="234.643,-123.741 224.289,-125.987 233.784,-130.688 234.643,-123.741"/>
</g>
<!-- Node18&#45;&gt;Node8 -->
<g id="edge29" class="edge"><title>Node18&#45;&gt;Node8</title>
<path fill="none" stroke="midnightblue" d="M739.789,-174.26C621.973,-167.197 323.396,-147.814 309,-132 292.983,-114.404 318.557,-93.887 340.652,-80.6843"/>
<polygon fill="midnightblue" stroke="midnightblue" points="342.506,-83.6563 349.469,-75.6705 339.046,-77.5714 342.506,-83.6563"/>
</g>
<!-- Node18&#45;&gt;Node10 -->
<g id="edge36" class="edge"><title>Node18&#45;&gt;Node10</title>
<path fill="none" stroke="midnightblue" d="M783.469,-168.368C776.141,-150.456 759.15,-108.923 749.342,-84.9482"/>
<polygon fill="midnightblue" stroke="midnightblue" points="752.54,-83.5217 745.515,-75.5914 746.062,-86.1721 752.54,-83.5217"/>
</g>
<!-- Node19 -->
<g id="node20" class="node"><title>Node19</title>
<g id="a_node20"><a xlink:href="../../d7/dc5/statistics_8h.html" target="_top" xlink:title="statistics.h">
<polygon fill="white" stroke="black" points="842.5,-112.5 842.5,-131.5 907.5,-131.5 907.5,-112.5 842.5,-112.5"/>
<text text-anchor="middle" x="875" y="-119.5" font-family="Helvetica,sans-Serif" font-size="10.00">statistics.h</text>
</a>
</g>
</g>
<!-- Node18&#45;&gt;Node19 -->
<g id="edge31" class="edge"><title>Node18&#45;&gt;Node19</title>
<path fill="none" stroke="midnightblue" d="M801.139,-168.324C814.866,-159.9 835.936,-146.971 852.064,-137.074"/>
<polygon fill="midnightblue" stroke="midnightblue" points="854.204,-139.868 860.896,-131.655 850.543,-133.902 854.204,-139.868"/>
</g>
<!-- Node21 -->
<g id="node22" class="node"><title>Node21</title>
<polygon fill="white" stroke="#bfbfbf" points="780,-112.5 780,-131.5 824,-131.5 824,-112.5 780,-112.5"/>
<text text-anchor="middle" x="802" y="-119.5" font-family="Helvetica,sans-Serif" font-size="10.00">omp.h</text>
</g>
<!-- Node18&#45;&gt;Node21 -->
<g id="edge38" class="edge"><title>Node18&#45;&gt;Node21</title>
<path fill="none" stroke="midnightblue" d="M789.477,-168.083C791.486,-160.849 794.386,-150.409 796.89,-141.397"/>
<polygon fill="midnightblue" stroke="midnightblue" points="800.265,-142.323 799.569,-131.751 793.52,-140.449 800.265,-142.323"/>
</g>
<!-- Node19&#45;&gt;Node1 -->
<g id="edge32" class="edge"><title>Node19&#45;&gt;Node1</title>
<path fill="none" stroke="midnightblue" d="M864.63,-112.362C847.586,-98.5706 812.127,-71.5502 778,-56 733.553,-35.7473 678.131,-23.0035 643.907,-16.4416"/>
<polygon fill="midnightblue" stroke="midnightblue" points="644.472,-12.9869 634.001,-14.6021 643.194,-19.8692 644.472,-12.9869"/>
</g>
<!-- Node19&#45;&gt;Node10 -->
<g id="edge34" class="edge"><title>Node19&#45;&gt;Node10</title>
<path fill="none" stroke="midnightblue" d="M853.926,-112.444C831.94,-103.517 797.266,-89.4387 772.336,-79.3168"/>
<polygon fill="midnightblue" stroke="midnightblue" points="773.558,-76.0355 762.976,-75.5164 770.924,-82.5213 773.558,-76.0355"/>
</g>
<!-- Node19&#45;&gt;Node12 -->
<g id="edge33" class="edge"><title>Node19&#45;&gt;Node12</title>
<path fill="none" stroke="midnightblue" d="M842.494,-112.681C803.147,-102.611 737.231,-85.7415 697.46,-75.5632"/>
<polygon fill="midnightblue" stroke="midnightblue" points="698.259,-72.1549 687.703,-73.0662 696.523,-78.9364 698.259,-72.1549"/>
</g>
<!-- Node20 -->
<g id="node21" class="node"><title>Node20</title>
<polygon fill="white" stroke="#bfbfbf" points="855,-56.5 855,-75.5 895,-75.5 895,-56.5 855,-56.5"/>
<text text-anchor="middle" x="875" y="-63.5" font-family="Helvetica,sans-Serif" font-size="10.00">limits</text>
</g>
<!-- Node19&#45;&gt;Node20 -->
<g id="edge35" class="edge"><title>Node19&#45;&gt;Node20</title>
<path fill="none" stroke="midnightblue" d="M875,-112.083C875,-105.006 875,-94.8611 875,-85.9865"/>
<polygon fill="midnightblue" stroke="midnightblue" points="878.5,-85.751 875,-75.7511 871.5,-85.7511 878.5,-85.751"/>
</g>
<!-- Node22&#45;&gt;Node1 -->
<g id="edge41" class="edge"><title>Node22&#45;&gt;Node1</title>
<path fill="none" stroke="midnightblue" d="M375.655,-112.139C391.234,-98.2813 423.376,-71.4706 455,-56 495.909,-35.9872 547.287,-23.3729 579.893,-16.7512"/>
<polygon fill="midnightblue" stroke="midnightblue" points="580.644,-20.1707 589.783,-14.8101 579.296,-13.3017 580.644,-20.1707"/>
</g>
<!-- Node22&#45;&gt;Node8 -->
<g id="edge40" class="edge"><title>Node22&#45;&gt;Node8</title>
<path fill="none" stroke="midnightblue" d="M366.165,-112.083C366.296,-105.006 366.484,-94.8611 366.648,-85.9865"/>
<polygon fill="midnightblue" stroke="midnightblue" points="370.152,-85.8142 366.838,-75.7511 363.153,-85.6845 370.152,-85.8142"/>
</g>
<!-- Node22&#45;&gt;Node10 -->
<g id="edge43" class="edge"><title>Node22&#45;&gt;Node10</title>
<path fill="none" stroke="midnightblue" d="M413.674,-115.375C477.949,-107.592 595.89,-92.6048 696,-76 698.86,-75.5256 701.815,-75.009 704.783,-74.4711"/>
<polygon fill="midnightblue" stroke="midnightblue" points="705.621,-77.8748 714.804,-72.5904 704.33,-70.9949 705.621,-77.8748"/>
</g>
<!-- Node22&#45;&gt;Node12 -->
<g id="edge42" class="edge"><title>Node22&#45;&gt;Node12</title>
<path fill="none" stroke="midnightblue" d="M413.219,-112.444C473.84,-101.459 577.516,-82.6715 630.574,-73.0571"/>
<polygon fill="midnightblue" stroke="midnightblue" points="631.267,-76.4886 640.482,-71.2616 630.018,-69.6008 631.267,-76.4886"/>
</g>
<!-- Node26&#45;&gt;Node2 -->
<g id="edge48" class="edge"><title>Node26&#45;&gt;Node2</title>
<path fill="none" stroke="midnightblue" d="M844.395,-280.227C838.065,-265.99 823.545,-238.037 802,-224 741.883,-184.831 654.69,-178.636 609.554,-178.31"/>
<polygon fill="midnightblue" stroke="midnightblue" points="609.277,-174.81 599.285,-178.334 609.294,-181.81 609.277,-174.81"/>
</g>
<!-- Node26&#45;&gt;Node10 -->
<g id="edge52" class="edge"><title>Node26&#45;&gt;Node10</title>
<path fill="none" stroke="midnightblue" d="M852.37,-280.222C866.366,-251.922 909.55,-163.122 916,-132 917.804,-123.296 921.442,-119.028 916,-112 899.43,-90.5993 825.409,-77.538 779.413,-71.3415"/>
<polygon fill="midnightblue" stroke="midnightblue" points="779.582,-67.8342 769.215,-70.0177 778.681,-74.7759 779.582,-67.8342"/>
</g>
<!-- Node26&#45;&gt;Node17 -->
<g id="edge51" class="edge"><title>Node26&#45;&gt;Node17</title>
<path fill="none" stroke="midnightblue" d="M816.375,-285.457C736.799,-276.542 527.306,-253.072 424.54,-241.558"/>
<polygon fill="midnightblue" stroke="midnightblue" points="424.667,-238.051 414.339,-240.416 423.887,-245.007 424.667,-238.051"/>
</g>
<!-- Node26&#45;&gt;Node18 -->
<g id="edge49" class="edge"><title>Node26&#45;&gt;Node18</title>
<path fill="none" stroke="midnightblue" d="M879.688,-282.681C918.674,-273.461 977.042,-254.073 954,-224 940.517,-206.402 887.026,-194.134 844.167,-186.902"/>
<polygon fill="midnightblue" stroke="midnightblue" points="844.523,-183.413 834.09,-185.259 843.397,-190.322 844.523,-183.413"/>
</g>
<!-- Node26&#45;&gt;Node23 -->
<g id="edge53" class="edge"><title>Node26&#45;&gt;Node23</title>
<path fill="none" stroke="midnightblue" d="M830.095,-280.444C811.746,-271.675 782.995,-257.935 761.906,-247.858"/>
<polygon fill="midnightblue" stroke="midnightblue" points="763.353,-244.67 752.821,-243.516 760.335,-250.986 763.353,-244.67"/>
</g>
<!-- Node27 -->
<g id="node28" class="node"><title>Node27</title>
<polygon fill="white" stroke="#bfbfbf" points="892.5,-224.5 892.5,-243.5 945.5,-243.5 945.5,-224.5 892.5,-224.5"/>
<text text-anchor="middle" x="919" y="-231.5" font-family="Helvetica,sans-Serif" font-size="10.00">QDebug</text>
</g>
<!-- Node26&#45;&gt;Node27 -->
<g id="edge50" class="edge"><title>Node26&#45;&gt;Node27</title>
<path fill="none" stroke="midnightblue" d="M859.407,-280.324C870.109,-272.185 886.341,-259.839 899.163,-250.087"/>
<polygon fill="midnightblue" stroke="midnightblue" points="901.544,-252.673 907.385,-243.834 897.307,-247.102 901.544,-252.673"/>
</g>
</g>
</svg>
