<?xml version="1.0" encoding="UTF-8" standalone="no"?>
<!DOCTYPE svg PUBLIC "-//W3C//DTD SVG 1.1//EN"
 "http://www.w3.org/Graphics/SVG/1.1/DTD/svg11.dtd">
<!-- Generated by graphviz version 2.38.0 (20140413.2041)
 -->
<!-- Title: initializer.h Pages: 1 -->
<svg width="255pt" height="252pt"
 viewBox="0.00 0.00 255.00 252.00" xmlns="http://www.w3.org/2000/svg" xmlns:xlink="http://www.w3.org/1999/xlink">
<g id="graph0" class="graph" transform="scale(1 1) rotate(0) translate(4 248)">
<title>initializer.h</title>
<polygon fill="white" stroke="none" points="-4,4 -4,-248 251,-248 251,4 -4,4"/>
<!-- Node24 -->
<g id="node1" class="node"><title>Node24</title>
<polygon fill="#bfbfbf" stroke="black" points="132.5,-224.5 132.5,-243.5 195.5,-243.5 195.5,-224.5 132.5,-224.5"/>
<text text-anchor="middle" x="164" y="-231.5" font-family="Helvetica,sans-Serif" font-size="10.00">initializer.h</text>
</g>
<!-- Node25 -->
<g id="node2" class="node"><title>Node25</title>
<g id="a_node2"><a xlink:href="../../d3/d94/imageblock_8h.html" target="_top" xlink:title="imageblock.h">
<polygon fill="white" stroke="black" points="81,-168.5 81,-187.5 155,-187.5 155,-168.5 81,-168.5"/>
<text text-anchor="middle" x="118" y="-175.5" font-family="Helvetica,sans-Serif" font-size="10.00">imageblock.h</text>
</a>
</g>
</g>
<!-- Node24&#45;&gt;Node25 -->
<g id="edge1" class="edge"><title>Node24&#45;&gt;Node25</title>
<path fill="none" stroke="midnightblue" d="M149.886,-216.431C141.824,-206.967 132.041,-195.483 125.455,-187.751"/>
<polygon fill="midnightblue" stroke="midnightblue" points="147.255,-218.74 156.404,-224.083 152.584,-214.201 147.255,-218.74"/>
</g>
<!-- Node32 -->
<g id="node9" class="node"><title>Node32</title>
<g id="a_node9"><a xlink:href="../../d5/de2/initializer_8cpp.html" target="_top" xlink:title="initializer.cpp">
<polygon fill="white" stroke="black" points="173,-168.5 173,-187.5 247,-187.5 247,-168.5 173,-168.5"/>
<text text-anchor="middle" x="210" y="-175.5" font-family="Helvetica,sans-Serif" font-size="10.00">initializer.cpp</text>
</a>
</g>
</g>
<!-- Node24&#45;&gt;Node32 -->
<g id="edge8" class="edge"><title>Node24&#45;&gt;Node32</title>
<path fill="none" stroke="midnightblue" d="M178.114,-216.431C186.176,-206.967 195.959,-195.483 202.545,-187.751"/>
<polygon fill="midnightblue" stroke="midnightblue" points="175.416,-214.201 171.596,-224.083 180.745,-218.74 175.416,-214.201"/>
</g>
<!-- Node26 -->
<g id="node3" class="node"><title>Node26</title>
<g id="a_node3"><a xlink:href="../../d5/db2/image_8h.html" target="_top" xlink:title="image.h">
<polygon fill="white" stroke="black" points="49.5,-112.5 49.5,-131.5 100.5,-131.5 100.5,-112.5 49.5,-112.5"/>
<text text-anchor="middle" x="75" y="-119.5" font-family="Helvetica,sans-Serif" font-size="10.00">image.h</text>
</a>
</g>
</g>
<!-- Node25&#45;&gt;Node26 -->
<g id="edge2" class="edge"><title>Node25&#45;&gt;Node26</title>
<path fill="none" stroke="midnightblue" d="M104.578,-160.144C97.0858,-150.736 88.0629,-139.405 81.9685,-131.751"/>
<polygon fill="midnightblue" stroke="midnightblue" points="101.932,-162.44 110.899,-168.083 107.408,-158.08 101.932,-162.44"/>
</g>
<!-- Node31 -->
<g id="node8" class="node"><title>Node31</title>
<g id="a_node8"><a xlink:href="../../d6/db7/imageblock_8cpp.html" target="_top" xlink:title="imageblock.cpp">
<polygon fill="white" stroke="black" points="118.5,-112.5 118.5,-131.5 203.5,-131.5 203.5,-112.5 118.5,-112.5"/>
<text text-anchor="middle" x="161" y="-119.5" font-family="Helvetica,sans-Serif" font-size="10.00">imageblock.cpp</text>
</a>
</g>
</g>
<!-- Node25&#45;&gt;Node31 -->
<g id="edge7" class="edge"><title>Node25&#45;&gt;Node31</title>
<path fill="none" stroke="midnightblue" d="M131.422,-160.144C138.914,-150.736 147.937,-139.405 154.032,-131.751"/>
<polygon fill="midnightblue" stroke="midnightblue" points="128.592,-158.08 125.101,-168.083 134.068,-162.44 128.592,-158.08"/>
</g>
<!-- Node27 -->
<g id="node4" class="node"><title>Node27</title>
<g id="a_node4"><a xlink:href="../../db/d11/image_8cpp.html" target="_top" xlink:title="image.cpp">
<polygon fill="white" stroke="black" points="0,-56.5 0,-75.5 62,-75.5 62,-56.5 0,-56.5"/>
<text text-anchor="middle" x="31" y="-63.5" font-family="Helvetica,sans-Serif" font-size="10.00">image.cpp</text>
</a>
</g>
</g>
<!-- Node26&#45;&gt;Node27 -->
<g id="edge3" class="edge"><title>Node26&#45;&gt;Node27</title>
<path fill="none" stroke="midnightblue" d="M61.2655,-104.144C53.5995,-94.7357 44.3667,-83.4046 38.1305,-75.7511"/>
<polygon fill="midnightblue" stroke="midnightblue" points="58.7042,-106.541 67.7343,-112.083 64.1309,-102.12 58.7042,-106.541"/>
</g>
<!-- Node28 -->
<g id="node5" class="node"><title>Node28</title>
<g id="a_node5"><a xlink:href="../../d9/d53/mainwindow_8h.html" target="_top" xlink:title="mainwindow.h">
<polygon fill="white" stroke="black" points="80.5,-56.5 80.5,-75.5 159.5,-75.5 159.5,-56.5 80.5,-56.5"/>
<text text-anchor="middle" x="120" y="-63.5" font-family="Helvetica,sans-Serif" font-size="10.00">mainwindow.h</text>
</a>
</g>
</g>
<!-- Node26&#45;&gt;Node28 -->
<g id="edge4" class="edge"><title>Node26&#45;&gt;Node28</title>
<path fill="none" stroke="midnightblue" d="M89.0467,-104.144C96.8869,-94.7357 106.329,-83.4046 112.707,-75.7511"/>
<polygon fill="midnightblue" stroke="midnightblue" points="86.1439,-102.16 82.4308,-112.083 91.5215,-106.641 86.1439,-102.16"/>
</g>
<!-- Node29 -->
<g id="node6" class="node"><title>Node29</title>
<g id="a_node6"><a xlink:href="../../df/d0a/main_8cpp.html" target="_top" xlink:title="main.cpp">
<polygon fill="white" stroke="black" points="47,-0.5 47,-19.5 103,-19.5 103,-0.5 47,-0.5"/>
<text text-anchor="middle" x="75" y="-7.5" font-family="Helvetica,sans-Serif" font-size="10.00">main.cpp</text>
</a>
</g>
</g>
<!-- Node28&#45;&gt;Node29 -->
<g id="edge5" class="edge"><title>Node28&#45;&gt;Node29</title>
<path fill="none" stroke="midnightblue" d="M105.953,-48.144C98.1131,-38.7357 88.6705,-27.4046 82.2926,-19.7511"/>
<polygon fill="midnightblue" stroke="midnightblue" points="103.479,-50.6414 112.569,-56.083 108.856,-46.1601 103.479,-50.6414"/>
</g>
<!-- Node30 -->
<g id="node7" class="node"><title>Node30</title>
<g id="a_node7"><a xlink:href="../../d8/dd9/mainwindow_8cpp.html" target="_top" xlink:title="mainwindow.cpp">
<polygon fill="white" stroke="black" points="121.5,-0.5 121.5,-19.5 210.5,-19.5 210.5,-0.5 121.5,-0.5"/>
<text text-anchor="middle" x="166" y="-7.5" font-family="Helvetica,sans-Serif" font-size="10.00">mainwindow.cpp</text>
</a>
</g>
</g>
<!-- Node28&#45;&gt;Node30 -->
<g id="edge6" class="edge"><title>Node28&#45;&gt;Node30</title>
<path fill="none" stroke="midnightblue" d="M134.114,-48.4314C142.176,-38.9673 151.959,-27.4827 158.545,-19.7511"/>
<polygon fill="midnightblue" stroke="midnightblue" points="131.416,-46.2009 127.596,-56.083 136.745,-50.7402 131.416,-46.2009"/>
</g>
</g>
</svg>
