<?xml version="1.0" encoding="UTF-8" standalone="no"?>
<!DOCTYPE svg PUBLIC "-//W3C//DTD SVG 1.1//EN"
 "http://www.w3.org/Graphics/SVG/1.1/DTD/svg11.dtd">
<!-- Generated by graphviz version 2.38.0 (20140413.2041)
 -->
<!-- Title: imageblock::setPosition Pages: 1 -->
<svg width="754pt" height="28pt"
 viewBox="0.00 0.00 754.00 28.00" xmlns="http://www.w3.org/2000/svg" xmlns:xlink="http://www.w3.org/1999/xlink">
<g id="graph0" class="graph" transform="scale(1 1) rotate(0) translate(4 24)">
<title>imageblock::setPosition</title>
<polygon fill="white" stroke="none" points="-4,4 -4,-24 750,-24 750,4 -4,4"/>
<!-- Node163 -->
<g id="node1" class="node"><title>Node163</title>
<polygon fill="#bfbfbf" stroke="black" points="0,-0.5 0,-19.5 121,-19.5 121,-0.5 0,-0.5"/>
<text text-anchor="middle" x="60.5" y="-7.5" font-family="Helvetica,sans-Serif" font-size="10.00">imageblock::setPosition</text>
</g>
<!-- Node164 -->
<g id="node2" class="node"><title>Node164</title>
<g id="a_node2"><a xlink:href="../../d8/dd2/classimageblock.html#aa28c36c8019b54006331c050484d0701" target="_top" xlink:title="imageblock::setParameters">
<polygon fill="white" stroke="black" points="157,-0.5 157,-19.5 293,-19.5 293,-0.5 157,-0.5"/>
<text text-anchor="middle" x="225" y="-7.5" font-family="Helvetica,sans-Serif" font-size="10.00">imageblock::setParameters</text>
</a>
</g>
</g>
<!-- Node163&#45;&gt;Node164 -->
<g id="edge1" class="edge"><title>Node163&#45;&gt;Node164</title>
<path fill="none" stroke="midnightblue" d="M131.275,-10C139.717,-10 148.327,-10 156.732,-10"/>
<polygon fill="midnightblue" stroke="midnightblue" points="131.086,-6.5001 121.086,-10 131.086,-13.5001 131.086,-6.5001"/>
</g>
<!-- Node165 -->
<g id="node3" class="node"><title>Node165</title>
<g id="a_node3"><a xlink:href="../../d1/ded/classimage.html#ad5a9d767eca6f9bbb8dcb556527edf4d" target="_top" xlink:title="image::ProcessTiles">
<polygon fill="white" stroke="black" points="329,-0.5 329,-19.5 435,-19.5 435,-0.5 329,-0.5"/>
<text text-anchor="middle" x="382" y="-7.5" font-family="Helvetica,sans-Serif" font-size="10.00">image::ProcessTiles</text>
</a>
</g>
</g>
<!-- Node164&#45;&gt;Node165 -->
<g id="edge2" class="edge"><title>Node164&#45;&gt;Node165</title>
<path fill="none" stroke="midnightblue" d="M303.217,-10C311.872,-10 320.532,-10 328.765,-10"/>
<polygon fill="midnightblue" stroke="midnightblue" points="303.084,-6.5001 293.084,-10 303.084,-13.5001 303.084,-6.5001"/>
</g>
<!-- Node166 -->
<g id="node4" class="node"><title>Node166</title>
<g id="a_node4"><a xlink:href="../../d1/ded/classimage.html#a4689c56b85c46d48ea52f0c9fa13891e" target="_top" xlink:title="image::processing">
<polygon fill="white" stroke="black" points="471,-0.5 471,-19.5 567,-19.5 567,-0.5 471,-0.5"/>
<text text-anchor="middle" x="519" y="-7.5" font-family="Helvetica,sans-Serif" font-size="10.00">image::processing</text>
</a>
</g>
</g>
<!-- Node165&#45;&gt;Node166 -->
<g id="edge3" class="edge"><title>Node165&#45;&gt;Node166</title>
<path fill="none" stroke="midnightblue" d="M445.206,-10C453.809,-10 462.527,-10 470.797,-10"/>
<polygon fill="midnightblue" stroke="midnightblue" points="445.195,-6.5001 435.195,-10 445.194,-13.5001 445.195,-6.5001"/>
</g>
<!-- Node167 -->
<g id="node5" class="node"><title>Node167</title>
<g id="a_node5"><a xlink:href="../../d9/dc6/class_main_window.html#a9a45eb9ebe6d27bcd23677d9fbb74dd8" target="_top" xlink:title="MainWindow::on_Go_clicked">
<polygon fill="white" stroke="black" points="603,-0.5 603,-19.5 746,-19.5 746,-0.5 603,-0.5"/>
<text text-anchor="middle" x="674.5" y="-7.5" font-family="Helvetica,sans-Serif" font-size="10.00">MainWindow::on_Go_clicked</text>
</a>
</g>
</g>
<!-- Node166&#45;&gt;Node167 -->
<g id="edge4" class="edge"><title>Node166&#45;&gt;Node167</title>
<path fill="none" stroke="midnightblue" d="M577.583,-10C585.853,-10 594.441,-10 602.928,-10"/>
<polygon fill="midnightblue" stroke="midnightblue" points="577.308,-6.5001 567.308,-10 577.308,-13.5001 577.308,-6.5001"/>
</g>
</g>
</svg>
