<?xml version="1.0" encoding="UTF-8" standalone="no"?>
<!DOCTYPE svg PUBLIC "-//W3C//DTD SVG 1.1//EN"
 "http://www.w3.org/Graphics/SVG/1.1/DTD/svg11.dtd">
<!-- Generated by graphviz version 2.38.0 (20140413.2041)
 -->
<!-- Title: probabilityModel::getClassProbability Pages: 1 -->
<svg width="474pt" height="66pt"
 viewBox="0.00 0.00 474.00 66.00" xmlns="http://www.w3.org/2000/svg" xmlns:xlink="http://www.w3.org/1999/xlink">
<g id="graph0" class="graph" transform="scale(1 1) rotate(0) translate(4 62)">
<title>probabilityModel::getClassProbability</title>
<polygon fill="white" stroke="none" points="-4,4 -4,-62 470,-62 470,4 -4,4"/>
<!-- Node36 -->
<g id="node1" class="node"><title>Node36</title>
<polygon fill="#bfbfbf" stroke="black" points="0,-14 0,-44 132,-44 132,-14 0,-14"/>
<text text-anchor="start" x="8" y="-32" font-family="Helvetica,sans-Serif" font-size="10.00">probabilityModel::getClass</text>
<text text-anchor="middle" x="66" y="-21" font-family="Helvetica,sans-Serif" font-size="10.00">Probability</text>
</g>
<!-- Node37 -->
<g id="node2" class="node"><title>Node37</title>
<g id="a_node2"><a xlink:href="../../da/d99/classprobability_model.html#ab4cc3a47b3779fa2db1ec7ddc0bb8598" target="_top" xlink:title="probabilityModel::getOrder">
<polygon fill="white" stroke="black" points="168,-38.5 168,-57.5 299,-57.5 299,-38.5 168,-38.5"/>
<text text-anchor="middle" x="233.5" y="-45.5" font-family="Helvetica,sans-Serif" font-size="10.00">probabilityModel::getOrder</text>
</a>
</g>
</g>
<!-- Node36&#45;&gt;Node37 -->
<g id="edge1" class="edge"><title>Node36&#45;&gt;Node37</title>
<path fill="none" stroke="midnightblue" d="M142.614,-37.6808C151.04,-38.648 159.564,-39.6267 167.836,-40.5763"/>
<polygon fill="midnightblue" stroke="midnightblue" points="142.744,-34.1728 132.41,-36.5093 141.946,-41.1271 142.744,-34.1728"/>
</g>
<!-- Node39 -->
<g id="node4" class="node"><title>Node39</title>
<g id="a_node4"><a xlink:href="../../da/d99/classprobability_model.html#a1d238fa939658901dc69099d4c350637" target="_top" xlink:title="probabilityModel::merge">
<polygon fill="white" stroke="black" points="173.5,-0.5 173.5,-19.5 293.5,-19.5 293.5,-0.5 173.5,-0.5"/>
<text text-anchor="middle" x="233.5" y="-7.5" font-family="Helvetica,sans-Serif" font-size="10.00">probabilityModel::merge</text>
</a>
</g>
</g>
<!-- Node36&#45;&gt;Node39 -->
<g id="edge3" class="edge"><title>Node36&#45;&gt;Node39</title>
<path fill="none" stroke="midnightblue" d="M142.349,-20.3496C152.79,-19.151 163.388,-17.9343 173.473,-16.7765"/>
<polygon fill="midnightblue" stroke="midnightblue" points="141.946,-16.8729 132.41,-21.4907 142.744,-23.8272 141.946,-16.8729"/>
</g>
<!-- Node38 -->
<g id="node3" class="node"><title>Node38</title>
<g id="a_node3"><a xlink:href="../../d1/dd7/classcompound_model.html#a0d8dbce587b645bb11db48683d20df58" target="_top" xlink:title="compoundModel::getOrder">
<polygon fill="white" stroke="black" points="335,-38.5 335,-57.5 466,-57.5 466,-38.5 335,-38.5"/>
<text text-anchor="middle" x="400.5" y="-45.5" font-family="Helvetica,sans-Serif" font-size="10.00">compoundModel::getOrder</text>
</a>
</g>
</g>
<!-- Node37&#45;&gt;Node38 -->
<g id="edge2" class="edge"><title>Node37&#45;&gt;Node38</title>
<path fill="none" stroke="midnightblue" d="M309.239,-48C317.821,-48 326.516,-48 334.948,-48"/>
<polygon fill="midnightblue" stroke="midnightblue" points="309.239,-44.5001 299.239,-48 309.239,-51.5001 309.239,-44.5001"/>
</g>
<!-- Node40 -->
<g id="node5" class="node"><title>Node40</title>
<g id="a_node5"><a xlink:href="../../d1/dd7/classcompound_model.html#a3a4f1be5ccd6230918036dcc56328033" target="_top" xlink:title="compoundModel::merge">
<polygon fill="white" stroke="black" points="340,-0.5 340,-19.5 461,-19.5 461,-0.5 340,-0.5"/>
<text text-anchor="middle" x="400.5" y="-7.5" font-family="Helvetica,sans-Serif" font-size="10.00">compoundModel::merge</text>
</a>
</g>
</g>
<!-- Node39&#45;&gt;Node40 -->
<g id="edge4" class="edge"><title>Node39&#45;&gt;Node40</title>
<path fill="none" stroke="midnightblue" d="M303.634,-10C315.713,-10 328.186,-10 339.978,-10"/>
<polygon fill="midnightblue" stroke="midnightblue" points="303.603,-6.5001 293.603,-10 303.603,-13.5001 303.603,-6.5001"/>
</g>
</g>
</svg>
