<?xml version="1.0" encoding="UTF-8" standalone="no"?>
<!DOCTYPE svg PUBLIC "-//W3C//DTD SVG 1.1//EN"
 "http://www.w3.org/Graphics/SVG/1.1/DTD/svg11.dtd">
<!-- Generated by graphviz version 2.38.0 (20140413.2041)
 -->
<!-- Title: probabilityModel::clone Pages: 1 -->
<svg width="442pt" height="176pt"
 viewBox="0.00 0.00 442.00 176.00" xmlns="http://www.w3.org/2000/svg" xmlns:xlink="http://www.w3.org/1999/xlink">
<g id="graph0" class="graph" transform="scale(1 1) rotate(0) translate(4 172)">
<title>probabilityModel::clone</title>
<polygon fill="white" stroke="none" points="-4,4 -4,-172 438,-172 438,4 -4,4"/>
<!-- Node12 -->
<g id="node1" class="node"><title>Node12</title>
<polygon fill="#bfbfbf" stroke="black" points="0,-77 0,-96 116,-96 116,-77 0,-77"/>
<text text-anchor="middle" x="58" y="-84" font-family="Helvetica,sans-Serif" font-size="10.00">probabilityModel::clone</text>
</g>
<!-- Node13 -->
<g id="node2" class="node"><title>Node13</title>
<g id="a_node2"><a xlink:href="../../da/d99/classprobability_model.html#ac2356304ead700ea3b440261149b57cc" target="_top" xlink:title="probabilityModel::probability\lModel">
<polygon fill="white" stroke="black" points="152,-137.5 152,-167.5 289,-167.5 289,-137.5 152,-137.5"/>
<text text-anchor="start" x="160" y="-155.5" font-family="Helvetica,sans-Serif" font-size="10.00">probabilityModel::probability</text>
<text text-anchor="middle" x="220.5" y="-144.5" font-family="Helvetica,sans-Serif" font-size="10.00">Model</text>
</a>
</g>
</g>
<!-- Node12&#45;&gt;Node13 -->
<g id="edge1" class="edge"><title>Node12&#45;&gt;Node13</title>
<path fill="none" stroke="midnightblue" d="M82.3381,-96.097C106.109,-105.872 143.605,-121.291 173.39,-133.539"/>
<polygon fill="midnightblue" stroke="midnightblue" points="172.182,-136.827 182.762,-137.393 174.845,-130.353 172.182,-136.827"/>
</g>
<!-- Node14 -->
<g id="node3" class="node"><title>Node14</title>
<g id="a_node3"><a xlink:href="../../dc/dd2/classregion_model.html#a7f6a5d1ab86d69e213ebb81973481330" target="_top" xlink:title="regionModel::setArea">
<polygon fill="white" stroke="black" points="325,-121 325,-140 434,-140 434,-121 325,-121"/>
<text text-anchor="middle" x="379.5" y="-128" font-family="Helvetica,sans-Serif" font-size="10.00">regionModel::setArea</text>
</a>
</g>
</g>
<!-- Node12&#45;&gt;Node14 -->
<g id="edge3" class="edge"><title>Node12&#45;&gt;Node14</title>
<path fill="none" stroke="midnightblue" d="M116.12,-94.3663C171.913,-102.05 256.668,-113.722 314.656,-121.708"/>
<polygon fill="midnightblue" stroke="midnightblue" points="314.415,-125.207 324.799,-123.105 315.37,-118.273 314.415,-125.207"/>
</g>
<!-- Node15 -->
<g id="node4" class="node"><title>Node15</title>
<g id="a_node4"><a xlink:href="../../da/d99/classprobability_model.html#a899403fad71216e06b74f8e7238d54d2" target="_top" xlink:title="probabilityModel::setClass\lCosts">
<polygon fill="white" stroke="black" points="154.5,-49.5 154.5,-79.5 286.5,-79.5 286.5,-49.5 154.5,-49.5"/>
<text text-anchor="start" x="162.5" y="-67.5" font-family="Helvetica,sans-Serif" font-size="10.00">probabilityModel::setClass</text>
<text text-anchor="middle" x="220.5" y="-56.5" font-family="Helvetica,sans-Serif" font-size="10.00">Costs</text>
</a>
</g>
</g>
<!-- Node12&#45;&gt;Node15 -->
<g id="edge4" class="edge"><title>Node12&#45;&gt;Node15</title>
<path fill="none" stroke="midnightblue" d="M116.038,-78.6817C125.267,-77.4167 134.943,-76.0903 144.519,-74.7777"/>
<polygon fill="midnightblue" stroke="midnightblue" points="145.007,-78.2437 154.439,-73.418 144.056,-71.3085 145.007,-78.2437"/>
</g>
<!-- Node16 -->
<g id="node5" class="node"><title>Node16</title>
<g id="a_node5"><a xlink:href="../../da/d99/classprobability_model.html#ac8e7520373affaa4d4134ee6ac8b153a" target="_top" xlink:title="probabilityModel::setClass\lProbabilities">
<polygon fill="white" stroke="black" points="154.5,-0.5 154.5,-30.5 286.5,-30.5 286.5,-0.5 154.5,-0.5"/>
<text text-anchor="start" x="162.5" y="-18.5" font-family="Helvetica,sans-Serif" font-size="10.00">probabilityModel::setClass</text>
<text text-anchor="middle" x="220.5" y="-7.5" font-family="Helvetica,sans-Serif" font-size="10.00">Probabilities</text>
</a>
</g>
</g>
<!-- Node12&#45;&gt;Node16 -->
<g id="edge5" class="edge"><title>Node12&#45;&gt;Node16</title>
<path fill="none" stroke="midnightblue" d="M76.9136,-76.9405C95.4507,-67.2149 125.368,-51.9807 152,-40.5 156.949,-38.3665 162.146,-36.2424 167.367,-34.1851"/>
<polygon fill="midnightblue" stroke="midnightblue" points="168.674,-37.4324 176.743,-30.5663 166.153,-30.902 168.674,-37.4324"/>
</g>
<!-- Node13&#45;&gt;Node14 -->
<g id="edge2" class="edge"><title>Node13&#45;&gt;Node14</title>
<path fill="none" stroke="midnightblue" d="M289.449,-142.978C297.816,-141.806 306.345,-140.611 314.647,-139.448"/>
<polygon fill="midnightblue" stroke="midnightblue" points="315.218,-142.902 324.636,-138.048 314.247,-135.969 315.218,-142.902"/>
</g>
</g>
</svg>
