<?xml version="1.0" encoding="UTF-8" standalone="no"?>
<!DOCTYPE svg PUBLIC "-//W3C//DTD SVG 1.1//EN"
 "http://www.w3.org/Graphics/SVG/1.1/DTD/svg11.dtd">
<!-- Generated by graphviz version 2.38.0 (20140413.2041)
 -->
<!-- Title: probabilityModel::probabilityModel Pages: 1 -->
<svg width="458pt" height="66pt"
 viewBox="0.00 0.00 458.00 66.00" xmlns="http://www.w3.org/2000/svg" xmlns:xlink="http://www.w3.org/1999/xlink">
<g id="graph0" class="graph" transform="scale(1 1) rotate(0) translate(4 62)">
<title>probabilityModel::probabilityModel</title>
<polygon fill="white" stroke="none" points="-4,4 -4,-62 454,-62 454,4 -4,4"/>
<!-- Node2 -->
<g id="node1" class="node"><title>Node2</title>
<polygon fill="#bfbfbf" stroke="black" points="0,-14 0,-44 137,-44 137,-14 0,-14"/>
<text text-anchor="start" x="8" y="-32" font-family="Helvetica,sans-Serif" font-size="10.00">probabilityModel::probability</text>
<text text-anchor="middle" x="68.5" y="-21" font-family="Helvetica,sans-Serif" font-size="10.00">Model</text>
</g>
<!-- Node3 -->
<g id="node2" class="node"><title>Node3</title>
<g id="a_node2"><a xlink:href="../../da/d99/classprobability_model.html#a4ba6e94c137bb251c4148a7c254ef337" target="_top" xlink:title="probabilityModel::clone">
<polygon fill="white" stroke="black" points="175,-38.5 175,-57.5 291,-57.5 291,-38.5 175,-38.5"/>
<text text-anchor="middle" x="233" y="-45.5" font-family="Helvetica,sans-Serif" font-size="10.00">probabilityModel::clone</text>
</a>
</g>
</g>
<!-- Node2&#45;&gt;Node3 -->
<g id="edge1" class="edge"><title>Node2&#45;&gt;Node3</title>
<path fill="none" stroke="midnightblue" d="M147.081,-38.071C156.414,-39.1623 165.812,-40.2611 174.78,-41.3097"/>
<polygon fill="midnightblue" stroke="midnightblue" points="147.342,-34.5777 137.003,-36.8926 146.529,-41.5304 147.342,-34.5777"/>
</g>
<!-- Node4 -->
<g id="node3" class="node"><title>Node4</title>
<g id="a_node3"><a xlink:href="../../da/d99/classprobability_model.html#a1d238fa939658901dc69099d4c350637" target="_top" xlink:title="probabilityModel::merge">
<polygon fill="white" stroke="black" points="173,-0.5 173,-19.5 293,-19.5 293,-0.5 173,-0.5"/>
<text text-anchor="middle" x="233" y="-7.5" font-family="Helvetica,sans-Serif" font-size="10.00">probabilityModel::merge</text>
</a>
</g>
</g>
<!-- Node2&#45;&gt;Node4 -->
<g id="edge2" class="edge"><title>Node2&#45;&gt;Node4</title>
<path fill="none" stroke="midnightblue" d="M147.156,-19.9202C155.846,-18.9041 164.592,-17.8816 172.994,-16.8992"/>
<polygon fill="midnightblue" stroke="midnightblue" points="146.529,-16.4696 137.003,-21.1074 147.342,-23.4223 146.529,-16.4696"/>
</g>
<!-- Node5 -->
<g id="node4" class="node"><title>Node5</title>
<g id="a_node4"><a xlink:href="../../d1/dd7/classcompound_model.html#a3a4f1be5ccd6230918036dcc56328033" target="_top" xlink:title="compoundModel::merge">
<polygon fill="white" stroke="black" points="329,-0.5 329,-19.5 450,-19.5 450,-0.5 329,-0.5"/>
<text text-anchor="middle" x="389.5" y="-7.5" font-family="Helvetica,sans-Serif" font-size="10.00">compoundModel::merge</text>
</a>
</g>
</g>
<!-- Node4&#45;&gt;Node5 -->
<g id="edge3" class="edge"><title>Node4&#45;&gt;Node5</title>
<path fill="none" stroke="midnightblue" d="M303.519,-10C311.977,-10 320.56,-10 328.856,-10"/>
<polygon fill="midnightblue" stroke="midnightblue" points="303.292,-6.5001 293.292,-10 303.292,-13.5001 303.292,-6.5001"/>
</g>
</g>
</svg>
