<?xml version="1.0" encoding="UTF-8" standalone="no"?>
<!DOCTYPE svg PUBLIC "-//W3C//DTD SVG 1.1//EN"
 "http://www.w3.org/Graphics/SVG/1.1/DTD/svg11.dtd">
<!-- Generated by graphviz version 2.38.0 (20140413.2041)
 -->
<!-- Title: hoovermetrics.cpp Pages: 1 -->
<svg width="845pt" height="420pt"
 viewBox="0.00 0.00 844.86 420.00" xmlns="http://www.w3.org/2000/svg" xmlns:xlink="http://www.w3.org/1999/xlink">
<g id="graph0" class="graph" transform="scale(1 1) rotate(0) translate(4 416)">
<title>hoovermetrics.cpp</title>
<polygon fill="white" stroke="none" points="-4,4 -4,-416 840.858,-416 840.858,4 -4,4"/>
<!-- Node0 -->
<g id="node1" class="node"><title>Node0</title>
<polygon fill="#bfbfbf" stroke="black" points="132.5,-392.5 132.5,-411.5 229.5,-411.5 229.5,-392.5 132.5,-392.5"/>
<text text-anchor="middle" x="181" y="-399.5" font-family="Helvetica,sans-Serif" font-size="10.00">hoovermetrics.cpp</text>
</g>
<!-- Node1 -->
<g id="node2" class="node"><title>Node1</title>
<g id="a_node2"><a xlink:href="../../d7/da7/hoovermetrics_8h.html" target="_top" xlink:title="hoovermetrics.h">
<polygon fill="white" stroke="black" points="138,-336.5 138,-355.5 224,-355.5 224,-336.5 138,-336.5"/>
<text text-anchor="middle" x="181" y="-343.5" font-family="Helvetica,sans-Serif" font-size="10.00">hoovermetrics.h</text>
</a>
</g>
</g>
<!-- Node0&#45;&gt;Node1 -->
<g id="edge1" class="edge"><title>Node0&#45;&gt;Node1</title>
<path fill="none" stroke="midnightblue" d="M181,-392.083C181,-385.006 181,-374.861 181,-365.986"/>
<polygon fill="midnightblue" stroke="midnightblue" points="184.5,-365.751 181,-355.751 177.5,-365.751 184.5,-365.751"/>
</g>
<!-- Node2 -->
<g id="node3" class="node"><title>Node2</title>
<polygon fill="white" stroke="#bfbfbf" points="322,-0.5 322,-19.5 366,-19.5 366,-0.5 322,-0.5"/>
<text text-anchor="middle" x="344" y="-7.5" font-family="Helvetica,sans-Serif" font-size="10.00">vector</text>
</g>
<!-- Node1&#45;&gt;Node2 -->
<g id="edge2" class="edge"><title>Node1&#45;&gt;Node2</title>
<path fill="none" stroke="midnightblue" d="M224.23,-342.326C370.236,-332.728 836,-297.23 836,-235 836,-235 836,-235 836,-121 836,-90.7745 839.433,-75.0918 816,-56 781.981,-28.2829 477.171,-15.5188 376.273,-12.0275"/>
<polygon fill="midnightblue" stroke="midnightblue" points="376.191,-8.52284 366.078,-11.6825 375.954,-15.5188 376.191,-8.52284"/>
</g>
<!-- Node3 -->
<g id="node4" class="node"><title>Node3</title>
<polygon fill="white" stroke="#bfbfbf" points="57.5,-280.5 57.5,-299.5 98.5,-299.5 98.5,-280.5 57.5,-280.5"/>
<text text-anchor="middle" x="78" y="-287.5" font-family="Helvetica,sans-Serif" font-size="10.00">string</text>
</g>
<!-- Node1&#45;&gt;Node3 -->
<g id="edge3" class="edge"><title>Node1&#45;&gt;Node3</title>
<path fill="none" stroke="midnightblue" d="M164.451,-336.324C148.008,-327.703 122.565,-314.364 103.532,-304.386"/>
<polygon fill="midnightblue" stroke="midnightblue" points="104.989,-301.198 94.5077,-299.655 101.739,-307.398 104.989,-301.198"/>
</g>
<!-- Node4 -->
<g id="node5" class="node"><title>Node4</title>
<polygon fill="white" stroke="#bfbfbf" points="102,-224.5 102,-243.5 152,-243.5 152,-224.5 102,-224.5"/>
<text text-anchor="middle" x="127" y="-231.5" font-family="Helvetica,sans-Serif" font-size="10.00">fstream</text>
</g>
<!-- Node1&#45;&gt;Node4 -->
<g id="edge4" class="edge"><title>Node1&#45;&gt;Node4</title>
<path fill="none" stroke="midnightblue" d="M172.67,-336.386C164.783,-327.801 153.12,-313.923 146,-300 138.472,-285.28 133.482,-267.118 130.512,-253.738"/>
<polygon fill="midnightblue" stroke="midnightblue" points="133.913,-252.9 128.482,-243.803 127.055,-254.301 133.913,-252.9"/>
</g>
<!-- Node5 -->
<g id="node6" class="node"><title>Node5</title>
<polygon fill="white" stroke="#bfbfbf" points="155,-280.5 155,-299.5 207,-299.5 207,-280.5 155,-280.5"/>
<text text-anchor="middle" x="181" y="-287.5" font-family="Helvetica,sans-Serif" font-size="10.00">sstream</text>
</g>
<!-- Node1&#45;&gt;Node5 -->
<g id="edge5" class="edge"><title>Node1&#45;&gt;Node5</title>
<path fill="none" stroke="midnightblue" d="M181,-336.083C181,-329.006 181,-318.861 181,-309.986"/>
<polygon fill="midnightblue" stroke="midnightblue" points="184.5,-309.751 181,-299.751 177.5,-309.751 184.5,-309.751"/>
</g>
<!-- Node6 -->
<g id="node7" class="node"><title>Node6</title>
<polygon fill="white" stroke="#bfbfbf" points="29,-56.5 29,-75.5 83,-75.5 83,-56.5 29,-56.5"/>
<text text-anchor="middle" x="56" y="-63.5" font-family="Helvetica,sans-Serif" font-size="10.00">iostream</text>
</g>
<!-- Node1&#45;&gt;Node6 -->
<g id="edge6" class="edge"><title>Node1&#45;&gt;Node6</title>
<path fill="none" stroke="midnightblue" d="M137.646,-338.163C84.0987,-326.966 0,-299.166 0,-235 0,-235 0,-235 0,-177 0,-140.436 24.8767,-103.747 41.4693,-83.3424"/>
<polygon fill="midnightblue" stroke="midnightblue" points="44.195,-85.5395 47.9766,-75.6425 38.8486,-81.0212 44.195,-85.5395"/>
</g>
<!-- Node7 -->
<g id="node8" class="node"><title>Node7</title>
<polygon fill="white" stroke="#bfbfbf" points="170.5,-224.5 170.5,-243.5 215.5,-243.5 215.5,-224.5 170.5,-224.5"/>
<text text-anchor="middle" x="193" y="-231.5" font-family="Helvetica,sans-Serif" font-size="10.00">cstdlib</text>
</g>
<!-- Node1&#45;&gt;Node7 -->
<g id="edge7" class="edge"><title>Node1&#45;&gt;Node7</title>
<path fill="none" stroke="midnightblue" d="M190.556,-336.45C199.088,-328.12 210.989,-314.604 216,-300 221.564,-283.782 213.702,-265.364 205.696,-252.285"/>
<polygon fill="midnightblue" stroke="midnightblue" points="208.498,-250.18 200.03,-243.813 202.679,-254.071 208.498,-250.18"/>
</g>
<!-- Node8 -->
<g id="node9" class="node"><title>Node8</title>
<g id="a_node9"><a xlink:href="../../dc/dac/io_8h.html" target="_top" xlink:title="io.h">
<polygon fill="white" stroke="black" points="319,-280.5 319,-299.5 351,-299.5 351,-280.5 319,-280.5"/>
<text text-anchor="middle" x="335" y="-287.5" font-family="Helvetica,sans-Serif" font-size="10.00">io.h</text>
</a>
</g>
</g>
<!-- Node1&#45;&gt;Node8 -->
<g id="edge8" class="edge"><title>Node1&#45;&gt;Node8</title>
<path fill="none" stroke="midnightblue" d="M205.402,-336.444C233.652,-326.538 279.997,-310.287 308.935,-300.14"/>
<polygon fill="midnightblue" stroke="midnightblue" points="310.465,-303.312 318.743,-296.7 308.149,-296.707 310.465,-303.312"/>
</g>
<!-- Node8&#45;&gt;Node4 -->
<g id="edge39" class="edge"><title>Node8&#45;&gt;Node4</title>
<path fill="none" stroke="midnightblue" d="M318.679,-284.812C289.359,-277.282 225.594,-260.873 162.03,-244.259"/>
<polygon fill="midnightblue" stroke="midnightblue" points="162.807,-240.845 152.247,-241.7 161.035,-247.617 162.807,-240.845"/>
</g>
<!-- Node8&#45;&gt;Node6 -->
<g id="edge11" class="edge"><title>Node8&#45;&gt;Node6</title>
<path fill="none" stroke="midnightblue" d="M320.436,-280.473C265.997,-248.575 77.3542,-137.807 73,-132 63.0506,-118.731 58.909,-100.149 57.193,-86.2505"/>
<polygon fill="midnightblue" stroke="midnightblue" points="60.6425,-85.5365 56.2478,-75.8961 53.6715,-86.1729 60.6425,-85.5365"/>
</g>
<!-- Node8&#45;&gt;Node7 -->
<g id="edge40" class="edge"><title>Node8&#45;&gt;Node7</title>
<path fill="none" stroke="midnightblue" d="M318.987,-282.91C296.309,-274.287 254.347,-258.329 225.11,-247.211"/>
<polygon fill="midnightblue" stroke="midnightblue" points="226.32,-243.926 215.729,-243.643 223.831,-250.469 226.32,-243.926"/>
</g>
<!-- Node9 -->
<g id="node10" class="node"><title>Node9</title>
<polygon fill="white" stroke="#bfbfbf" points="434.5,-56.5 434.5,-75.5 477.5,-75.5 477.5,-56.5 434.5,-56.5"/>
<text text-anchor="middle" x="456" y="-63.5" font-family="Helvetica,sans-Serif" font-size="10.00">gdal.h</text>
</g>
<!-- Node8&#45;&gt;Node9 -->
<g id="edge9" class="edge"><title>Node8&#45;&gt;Node9</title>
<path fill="none" stroke="midnightblue" d="M349.151,-280.475C361.694,-272.355 379.853,-259.148 392,-244 426.571,-200.888 429.619,-184.778 446,-132 450.712,-116.819 453.256,-98.9264 454.597,-85.7609"/>
<polygon fill="midnightblue" stroke="midnightblue" points="458.102,-85.8631 455.49,-75.5952 451.129,-85.2506 458.102,-85.8631"/>
</g>
<!-- Node10 -->
<g id="node11" class="node"><title>Node10</title>
<polygon fill="white" stroke="#bfbfbf" points="496,-56.5 496,-75.5 560,-75.5 560,-56.5 496,-56.5"/>
<text text-anchor="middle" x="528" y="-63.5" font-family="Helvetica,sans-Serif" font-size="10.00">gdal_priv.h</text>
</g>
<!-- Node8&#45;&gt;Node10 -->
<g id="edge10" class="edge"><title>Node8&#45;&gt;Node10</title>
<path fill="none" stroke="midnightblue" d="M351.306,-282.503C368.4,-275.097 395.319,-261.691 414,-244 465.229,-195.485 504.017,-119.499 520,-85.0528"/>
<polygon fill="midnightblue" stroke="midnightblue" points="523.266,-86.3248 524.216,-75.7727 516.893,-83.4292 523.266,-86.3248"/>
</g>
<!-- Node11 -->
<g id="node12" class="node"><title>Node11</title>
<g id="a_node12"><a xlink:href="../../d1/d77/node_8h.html" target="_top" xlink:title="node.h">
<polygon fill="white" stroke="black" points="565,-112.5 565,-131.5 611,-131.5 611,-112.5 565,-112.5"/>
<text text-anchor="middle" x="588" y="-119.5" font-family="Helvetica,sans-Serif" font-size="10.00">node.h</text>
</a>
</g>
</g>
<!-- Node8&#45;&gt;Node11 -->
<g id="edge12" class="edge"><title>Node8&#45;&gt;Node11</title>
<path fill="none" stroke="midnightblue" d="M351.269,-288.881C404.251,-288.117 570.317,-282.628 603,-244 627.744,-214.755 610.007,-166.387 597.485,-140.55"/>
<polygon fill="midnightblue" stroke="midnightblue" points="600.553,-138.861 592.886,-131.549 594.319,-142.047 600.553,-138.861"/>
</g>
<!-- Node16 -->
<g id="node17" class="node"><title>Node16</title>
<g id="a_node17"><a xlink:href="../../df/d5e/compoundmodel_8h.html" target="_top" xlink:title="compoundmodel.h">
<polygon fill="white" stroke="black" points="287,-224.5 287,-243.5 383,-243.5 383,-224.5 287,-224.5"/>
<text text-anchor="middle" x="335" y="-231.5" font-family="Helvetica,sans-Serif" font-size="10.00">compoundmodel.h</text>
</a>
</g>
</g>
<!-- Node8&#45;&gt;Node16 -->
<g id="edge21" class="edge"><title>Node8&#45;&gt;Node16</title>
<path fill="none" stroke="midnightblue" d="M335,-280.083C335,-273.006 335,-262.861 335,-253.986"/>
<polygon fill="midnightblue" stroke="midnightblue" points="338.5,-253.751 335,-243.751 331.5,-253.751 338.5,-253.751"/>
</g>
<!-- Node23 -->
<g id="node24" class="node"><title>Node23</title>
<polygon fill="white" stroke="#bfbfbf" points="553.5,-224.5 553.5,-243.5 594.5,-243.5 594.5,-224.5 553.5,-224.5"/>
<text text-anchor="middle" x="574" y="-231.5" font-family="Helvetica,sans-Serif" font-size="10.00">ctime</text>
</g>
<!-- Node8&#45;&gt;Node23 -->
<g id="edge41" class="edge"><title>Node8&#45;&gt;Node23</title>
<path fill="none" stroke="midnightblue" d="M351.175,-285.631C385.74,-278.387 469.329,-260.637 539,-244 540.449,-243.654 541.931,-243.295 543.427,-242.927"/>
<polygon fill="midnightblue" stroke="midnightblue" points="544.454,-246.278 553.301,-240.449 542.75,-239.489 544.454,-246.278"/>
</g>
<!-- Node11&#45;&gt;Node2 -->
<g id="edge13" class="edge"><title>Node11&#45;&gt;Node2</title>
<path fill="none" stroke="midnightblue" d="M588.131,-112.392C587.846,-98.3937 585.121,-70.776 569,-56 541.205,-30.5231 431.488,-18.1186 376.202,-13.3841"/>
<polygon fill="midnightblue" stroke="midnightblue" points="376.481,-9.89534 366.228,-12.5629 375.907,-16.8717 376.481,-9.89534"/>
</g>
<!-- Node11&#45;&gt;Node9 -->
<g id="edge15" class="edge"><title>Node11&#45;&gt;Node9</title>
<path fill="none" stroke="midnightblue" d="M567.084,-112.444C545.264,-103.517 510.85,-89.4387 486.108,-79.3168"/>
<polygon fill="midnightblue" stroke="midnightblue" points="487.399,-76.0634 476.818,-75.5164 484.748,-82.5422 487.399,-76.0634"/>
</g>
<!-- Node11&#45;&gt;Node10 -->
<g id="edge16" class="edge"><title>Node11&#45;&gt;Node10</title>
<path fill="none" stroke="midnightblue" d="M578.36,-112.324C569.49,-104.341 556.125,-92.3128 545.392,-82.6529"/>
<polygon fill="midnightblue" stroke="midnightblue" points="547.59,-79.922 537.815,-75.8339 542.907,-85.1251 547.59,-79.922"/>
</g>
<!-- Node12 -->
<g id="node13" class="node"><title>Node12</title>
<polygon fill="white" stroke="#bfbfbf" points="768.5,-56.5 768.5,-75.5 807.5,-75.5 807.5,-56.5 768.5,-56.5"/>
<text text-anchor="middle" x="788" y="-63.5" font-family="Helvetica,sans-Serif" font-size="10.00">QSet</text>
</g>
<!-- Node11&#45;&gt;Node12 -->
<g id="edge14" class="edge"><title>Node11&#45;&gt;Node12</title>
<path fill="none" stroke="midnightblue" d="M611.044,-115.275C642.234,-107.454 699.83,-92.755 758.564,-76.0278"/>
<polygon fill="midnightblue" stroke="midnightblue" points="759.73,-79.3346 768.379,-73.2161 757.802,-72.6053 759.73,-79.3346"/>
</g>
<!-- Node13 -->
<g id="node14" class="node"><title>Node13</title>
<polygon fill="white" stroke="#bfbfbf" points="616,-56.5 616,-75.5 686,-75.5 686,-56.5 616,-56.5"/>
<text text-anchor="middle" x="651" y="-63.5" font-family="Helvetica,sans-Serif" font-size="10.00">opencv/cv.h</text>
</g>
<!-- Node11&#45;&gt;Node13 -->
<g id="edge17" class="edge"><title>Node11&#45;&gt;Node13</title>
<path fill="none" stroke="midnightblue" d="M598.122,-112.324C607.526,-104.263 621.744,-92.0765 633.069,-82.3695"/>
<polygon fill="midnightblue" stroke="midnightblue" points="635.379,-84.9993 640.694,-75.8339 630.823,-79.6844 635.379,-84.9993"/>
</g>
<!-- Node14 -->
<g id="node15" class="node"><title>Node14</title>
<g id="a_node15"><a xlink:href="../../d9/dcf/region_model_8h.html" target="_top" xlink:title="regionModel.h">
<polygon fill="white" stroke="black" points="339.5,-56.5 339.5,-75.5 416.5,-75.5 416.5,-56.5 339.5,-56.5"/>
<text text-anchor="middle" x="378" y="-63.5" font-family="Helvetica,sans-Serif" font-size="10.00">regionModel.h</text>
</a>
</g>
</g>
<!-- Node11&#45;&gt;Node14 -->
<g id="edge18" class="edge"><title>Node11&#45;&gt;Node14</title>
<path fill="none" stroke="midnightblue" d="M564.724,-115.015C530.148,-106.124 464.63,-89.2763 421.132,-78.0911"/>
<polygon fill="midnightblue" stroke="midnightblue" points="421.95,-74.6875 411.393,-75.5868 420.206,-81.467 421.95,-74.6875"/>
</g>
<!-- Node15 -->
<g id="node16" class="node"><title>Node15</title>
<g id="a_node16"><a xlink:href="../../db/dc3/edge_8h.html" target="_top" xlink:title="edge.h">
<polygon fill="white" stroke="black" points="704,-56.5 704,-75.5 750,-75.5 750,-56.5 704,-56.5"/>
<text text-anchor="middle" x="727" y="-63.5" font-family="Helvetica,sans-Serif" font-size="10.00">edge.h</text>
</a>
</g>
</g>
<!-- Node11&#45;&gt;Node15 -->
<g id="edge20" class="edge"><title>Node11&#45;&gt;Node15</title>
<path fill="none" stroke="midnightblue" d="M610.025,-112.444C633.104,-103.478 669.562,-89.314 695.641,-79.1827"/>
<polygon fill="midnightblue" stroke="midnightblue" points="697.024,-82.4002 705.078,-75.5164 694.489,-75.8753 697.024,-82.4002"/>
</g>
<!-- Node14&#45;&gt;Node2 -->
<g id="edge19" class="edge"><title>Node14&#45;&gt;Node2</title>
<path fill="none" stroke="midnightblue" d="M372.386,-56.083C367.633,-48.5341 360.682,-37.4948 354.848,-28.2298"/>
<polygon fill="midnightblue" stroke="midnightblue" points="357.8,-26.3486 349.51,-19.7511 351.876,-30.0783 357.8,-26.3486"/>
</g>
<!-- Node16&#45;&gt;Node14 -->
<g id="edge22" class="edge"><title>Node16&#45;&gt;Node14</title>
<path fill="none" stroke="midnightblue" d="M349.046,-224.304C372.042,-209.044 416.518,-174.949 430,-132 432.662,-123.519 433.695,-120.084 430,-112 424.223,-99.3602 412.948,-88.911 402.369,-81.2737"/>
<polygon fill="midnightblue" stroke="midnightblue" points="404.042,-78.1817 393.783,-75.5333 400.151,-84.0009 404.042,-78.1817"/>
</g>
<!-- Node17 -->
<g id="node18" class="node"><title>Node17</title>
<g id="a_node18"><a xlink:href="../../d7/d51/histogrammodel_8h.html" target="_top" xlink:title="histogrammodel.h">
<polygon fill="white" stroke="black" points="288,-168.5 288,-187.5 382,-187.5 382,-168.5 288,-168.5"/>
<text text-anchor="middle" x="335" y="-175.5" font-family="Helvetica,sans-Serif" font-size="10.00">histogrammodel.h</text>
</a>
</g>
</g>
<!-- Node16&#45;&gt;Node17 -->
<g id="edge23" class="edge"><title>Node16&#45;&gt;Node17</title>
<path fill="none" stroke="midnightblue" d="M335,-224.083C335,-217.006 335,-206.861 335,-197.986"/>
<polygon fill="midnightblue" stroke="midnightblue" points="338.5,-197.751 335,-187.751 331.5,-197.751 338.5,-197.751"/>
</g>
<!-- Node22 -->
<g id="node23" class="node"><title>Node22</title>
<g id="a_node23"><a xlink:href="../../d9/d9a/probabilitymodel_8h.html" target="_top" xlink:title="probabilitymodel.h">
<polygon fill="white" stroke="black" points="104.5,-112.5 104.5,-131.5 199.5,-131.5 199.5,-112.5 104.5,-112.5"/>
<text text-anchor="middle" x="152" y="-119.5" font-family="Helvetica,sans-Serif" font-size="10.00">probabilitymodel.h</text>
</a>
</g>
</g>
<!-- Node16&#45;&gt;Node22 -->
<g id="edge34" class="edge"><title>Node16&#45;&gt;Node22</title>
<path fill="none" stroke="midnightblue" d="M320.64,-224.368C289.104,-205.412 213.556,-160.001 175.195,-136.942"/>
<polygon fill="midnightblue" stroke="midnightblue" points="176.667,-133.744 166.293,-131.591 173.061,-139.743 176.667,-133.744"/>
</g>
<!-- Node17&#45;&gt;Node2 -->
<g id="edge32" class="edge"><title>Node17&#45;&gt;Node2</title>
<path fill="none" stroke="midnightblue" d="M333.528,-168.43C330.354,-148.545 323.651,-97.7803 330,-56 331.368,-47.001 334.19,-37.3251 336.945,-29.2601"/>
<polygon fill="midnightblue" stroke="midnightblue" points="340.265,-30.3722 340.4,-19.7782 333.688,-27.9759 340.265,-30.3722"/>
</g>
<!-- Node17&#45;&gt;Node6 -->
<g id="edge31" class="edge"><title>Node17&#45;&gt;Node6</title>
<path fill="none" stroke="midnightblue" d="M287.789,-172.752C226.998,-166.51 125.536,-153.245 95,-132 78.8313,-120.751 68.2378,-100.437 62.2271,-85.5031"/>
<polygon fill="midnightblue" stroke="midnightblue" points="65.3883,-83.9591 58.6462,-75.7863 58.8201,-86.3797 65.3883,-83.9591"/>
</g>
<!-- Node17&#45;&gt;Node11 -->
<g id="edge25" class="edge"><title>Node17&#45;&gt;Node11</title>
<path fill="none" stroke="midnightblue" d="M375.089,-168.444C424.831,-157.827 508.719,-139.922 554.952,-130.054"/>
<polygon fill="midnightblue" stroke="midnightblue" points="555.716,-133.47 564.765,-127.959 554.254,-126.624 555.716,-133.47"/>
</g>
<!-- Node17&#45;&gt;Node14 -->
<g id="edge24" class="edge"><title>Node17&#45;&gt;Node14</title>
<path fill="none" stroke="midnightblue" d="M338.374,-168.368C345.376,-150.456 361.612,-108.923 370.984,-84.9482"/>
<polygon fill="midnightblue" stroke="midnightblue" points="374.26,-86.1794 374.642,-75.5914 367.741,-83.6308 374.26,-86.1794"/>
</g>
<!-- Node18 -->
<g id="node19" class="node"><title>Node18</title>
<g id="a_node19"><a xlink:href="../../d7/dc5/statistics_8h.html" target="_top" xlink:title="statistics.h">
<polygon fill="white" stroke="black" points="217.5,-112.5 217.5,-131.5 282.5,-131.5 282.5,-112.5 217.5,-112.5"/>
<text text-anchor="middle" x="250" y="-119.5" font-family="Helvetica,sans-Serif" font-size="10.00">statistics.h</text>
</a>
</g>
</g>
<!-- Node17&#45;&gt;Node18 -->
<g id="edge26" class="edge"><title>Node17&#45;&gt;Node18</title>
<path fill="none" stroke="midnightblue" d="M321.343,-168.324C308.084,-159.9 287.732,-146.971 272.154,-137.074"/>
<polygon fill="midnightblue" stroke="midnightblue" points="273.94,-134.063 263.623,-131.655 270.187,-139.971 273.94,-134.063"/>
</g>
<!-- Node21 -->
<g id="node22" class="node"><title>Node21</title>
<polygon fill="white" stroke="#bfbfbf" points="377,-112.5 377,-131.5 421,-131.5 421,-112.5 377,-112.5"/>
<text text-anchor="middle" x="399" y="-119.5" font-family="Helvetica,sans-Serif" font-size="10.00">omp.h</text>
</g>
<!-- Node17&#45;&gt;Node21 -->
<g id="edge33" class="edge"><title>Node17&#45;&gt;Node21</title>
<path fill="none" stroke="midnightblue" d="M345.283,-168.324C354.836,-160.263 369.28,-148.077 380.784,-138.369"/>
<polygon fill="midnightblue" stroke="midnightblue" points="383.144,-140.958 388.53,-131.834 378.63,-135.608 383.144,-140.958"/>
</g>
<!-- Node18&#45;&gt;Node2 -->
<g id="edge27" class="edge"><title>Node18&#45;&gt;Node2</title>
<path fill="none" stroke="midnightblue" d="M243.807,-112.248C235.271,-99.0055 222.21,-73.5609 234,-56 251.184,-30.404 285.78,-19.3571 311.61,-14.5953"/>
<polygon fill="midnightblue" stroke="midnightblue" points="312.404,-18.0125 321.718,-12.9634 311.288,-11.102 312.404,-18.0125"/>
</g>
<!-- Node18&#45;&gt;Node6 -->
<g id="edge29" class="edge"><title>Node18&#45;&gt;Node6</title>
<path fill="none" stroke="midnightblue" d="M219.26,-112.444C184.982,-102.902 129.556,-87.4744 92.9464,-77.2841"/>
<polygon fill="midnightblue" stroke="midnightblue" points="93.7251,-73.8678 83.1528,-74.558 91.848,-80.6114 93.7251,-73.8678"/>
</g>
<!-- Node19 -->
<g id="node20" class="node"><title>Node19</title>
<polygon fill="white" stroke="#bfbfbf" points="139.5,-56.5 139.5,-75.5 186.5,-75.5 186.5,-56.5 139.5,-56.5"/>
<text text-anchor="middle" x="163" y="-63.5" font-family="Helvetica,sans-Serif" font-size="10.00">math.h</text>
</g>
<!-- Node18&#45;&gt;Node19 -->
<g id="edge28" class="edge"><title>Node18&#45;&gt;Node19</title>
<path fill="none" stroke="midnightblue" d="M236.022,-112.324C222.45,-103.9 201.62,-90.9709 185.675,-81.0741"/>
<polygon fill="midnightblue" stroke="midnightblue" points="187.286,-77.9544 176.943,-75.6545 183.594,-83.9019 187.286,-77.9544"/>
</g>
<!-- Node20 -->
<g id="node21" class="node"><title>Node20</title>
<polygon fill="white" stroke="#bfbfbf" points="243,-56.5 243,-75.5 283,-75.5 283,-56.5 243,-56.5"/>
<text text-anchor="middle" x="263" y="-63.5" font-family="Helvetica,sans-Serif" font-size="10.00">limits</text>
</g>
<!-- Node18&#45;&gt;Node20 -->
<g id="edge30" class="edge"><title>Node18&#45;&gt;Node20</title>
<path fill="none" stroke="midnightblue" d="M252.147,-112.083C253.869,-104.927 256.347,-94.6353 258.5,-85.6911"/>
<polygon fill="midnightblue" stroke="midnightblue" points="261.955,-86.2925 260.893,-75.7511 255.15,-84.6541 261.955,-86.2925"/>
</g>
<!-- Node22&#45;&gt;Node2 -->
<g id="edge36" class="edge"><title>Node22&#45;&gt;Node2</title>
<path fill="none" stroke="midnightblue" d="M144.123,-112.067C133.22,-98.5863 116.336,-72.8357 130,-56 152.541,-28.2257 257.847,-16.9579 311.861,-12.945"/>
<polygon fill="midnightblue" stroke="midnightblue" points="312.211,-16.4292 321.94,-12.2364 311.72,-9.44641 312.211,-16.4292"/>
</g>
<!-- Node22&#45;&gt;Node6 -->
<g id="edge38" class="edge"><title>Node22&#45;&gt;Node6</title>
<path fill="none" stroke="midnightblue" d="M136.576,-112.324C121.46,-103.822 98.1846,-90.7288 80.5288,-80.7975"/>
<polygon fill="midnightblue" stroke="midnightblue" points="81.8175,-77.5066 71.3858,-75.6545 78.3856,-83.6077 81.8175,-77.5066"/>
</g>
<!-- Node22&#45;&gt;Node14 -->
<g id="edge35" class="edge"><title>Node22&#45;&gt;Node14</title>
<path fill="none" stroke="midnightblue" d="M187.81,-112.444C226.988,-103.083 289.877,-88.0561 332.515,-77.868"/>
<polygon fill="midnightblue" stroke="midnightblue" points="333.444,-81.2446 342.357,-75.5164 331.818,-74.4363 333.444,-81.2446"/>
</g>
<!-- Node22&#45;&gt;Node19 -->
<g id="edge37" class="edge"><title>Node22&#45;&gt;Node19</title>
<path fill="none" stroke="midnightblue" d="M153.816,-112.083C155.274,-104.927 157.371,-94.6353 159.193,-85.6911"/>
<polygon fill="midnightblue" stroke="midnightblue" points="162.651,-86.2485 161.217,-75.7511 155.792,-84.8512 162.651,-86.2485"/>
</g>
</g>
</svg>
