<?xml version="1.0" encoding="UTF-8" standalone="no"?>
<!DOCTYPE svg PUBLIC "-//W3C//DTD SVG 1.1//EN"
 "http://www.w3.org/Graphics/SVG/1.1/DTD/svg11.dtd">
<!-- Generated by graphviz version 2.38.0 (20140413.2041)
 -->
<!-- Title: initializer::initializeRag Pages: 1 -->
<svg width="745pt" height="66pt"
 viewBox="0.00 0.00 745.00 66.00" xmlns="http://www.w3.org/2000/svg" xmlns:xlink="http://www.w3.org/1999/xlink">
<g id="graph0" class="graph" transform="scale(1 1) rotate(0) translate(4 62)">
<title>initializer::initializeRag</title>
<polygon fill="white" stroke="none" points="-4,4 -4,-62 741,-62 741,4 -4,4"/>
<!-- Node66 -->
<g id="node1" class="node"><title>Node66</title>
<polygon fill="#bfbfbf" stroke="black" points="0,-19.5 0,-38.5 114,-38.5 114,-19.5 0,-19.5"/>
<text text-anchor="middle" x="57" y="-26.5" font-family="Helvetica,sans-Serif" font-size="10.00">initializer::initializeRag</text>
</g>
<!-- Node67 -->
<g id="node2" class="node"><title>Node67</title>
<g id="a_node2"><a xlink:href="../../d1/ded/classimage.html#a12343719e8d96a4bda9c5bd6c035d52a" target="_top" xlink:title="image::mergeBlockX">
<polygon fill="white" stroke="black" points="150,-38.5 150,-57.5 257,-57.5 257,-38.5 150,-38.5"/>
<text text-anchor="middle" x="203.5" y="-45.5" font-family="Helvetica,sans-Serif" font-size="10.00">image::mergeBlockX</text>
</a>
</g>
</g>
<!-- Node66&#45;&gt;Node67 -->
<g id="edge1" class="edge"><title>Node66&#45;&gt;Node67</title>
<path fill="none" stroke="midnightblue" d="M124.288,-37.716C132.881,-38.846 141.588,-39.9908 149.917,-41.086"/>
<polygon fill="midnightblue" stroke="midnightblue" points="124.652,-34.2339 114.281,-36.4003 123.74,-41.1742 124.652,-34.2339"/>
</g>
<!-- Node71 -->
<g id="node6" class="node"><title>Node71</title>
<g id="a_node6"><a xlink:href="../../d1/ded/classimage.html#aa21fc5a07af7528869425e750090b3b8" target="_top" xlink:title="image::mergeBlockY">
<polygon fill="white" stroke="black" points="150,-0.5 150,-19.5 257,-19.5 257,-0.5 150,-0.5"/>
<text text-anchor="middle" x="203.5" y="-7.5" font-family="Helvetica,sans-Serif" font-size="10.00">image::mergeBlockY</text>
</a>
</g>
</g>
<!-- Node66&#45;&gt;Node71 -->
<g id="edge5" class="edge"><title>Node66&#45;&gt;Node71</title>
<path fill="none" stroke="midnightblue" d="M124.288,-20.284C132.881,-19.154 141.588,-18.0092 149.917,-16.914"/>
<polygon fill="midnightblue" stroke="midnightblue" points="123.74,-16.8258 114.281,-21.5997 124.652,-23.7661 123.74,-16.8258"/>
</g>
<!-- Node68 -->
<g id="node3" class="node"><title>Node68</title>
<g id="a_node3"><a xlink:href="../../d1/ded/classimage.html#a83026280ad6cc713ec9489ff3bd9776e" target="_top" xlink:title="image::ProcessBoundaryX">
<polygon fill="white" stroke="black" points="293,-38.5 293,-57.5 426,-57.5 426,-38.5 293,-38.5"/>
<text text-anchor="middle" x="359.5" y="-45.5" font-family="Helvetica,sans-Serif" font-size="10.00">image::ProcessBoundaryX</text>
</a>
</g>
</g>
<!-- Node67&#45;&gt;Node68 -->
<g id="edge2" class="edge"><title>Node67&#45;&gt;Node68</title>
<path fill="none" stroke="midnightblue" d="M267.216,-48C275.656,-48 284.334,-48 292.824,-48"/>
<polygon fill="midnightblue" stroke="midnightblue" points="267.067,-44.5001 257.067,-48 267.067,-51.5001 267.067,-44.5001"/>
</g>
<!-- Node69 -->
<g id="node4" class="node"><title>Node69</title>
<g id="a_node4"><a xlink:href="../../d1/ded/classimage.html#a4689c56b85c46d48ea52f0c9fa13891e" target="_top" xlink:title="image::processing">
<polygon fill="white" stroke="black" points="462,-19.5 462,-38.5 558,-38.5 558,-19.5 462,-19.5"/>
<text text-anchor="middle" x="510" y="-26.5" font-family="Helvetica,sans-Serif" font-size="10.00">image::processing</text>
</a>
</g>
</g>
<!-- Node68&#45;&gt;Node69 -->
<g id="edge3" class="edge"><title>Node68&#45;&gt;Node69</title>
<path fill="none" stroke="midnightblue" d="M436.207,-38.3136C444.858,-37.2067 453.483,-36.1032 461.612,-35.0631"/>
<polygon fill="midnightblue" stroke="midnightblue" points="435.541,-34.8701 426.067,-39.611 436.43,-41.8135 435.541,-34.8701"/>
</g>
<!-- Node70 -->
<g id="node5" class="node"><title>Node70</title>
<g id="a_node5"><a xlink:href="../../d9/dc6/class_main_window.html#a9a45eb9ebe6d27bcd23677d9fbb74dd8" target="_top" xlink:title="MainWindow::on_Go_clicked">
<polygon fill="white" stroke="black" points="594,-19.5 594,-38.5 737,-38.5 737,-19.5 594,-19.5"/>
<text text-anchor="middle" x="665.5" y="-26.5" font-family="Helvetica,sans-Serif" font-size="10.00">MainWindow::on_Go_clicked</text>
</a>
</g>
</g>
<!-- Node69&#45;&gt;Node70 -->
<g id="edge4" class="edge"><title>Node69&#45;&gt;Node70</title>
<path fill="none" stroke="midnightblue" d="M568.583,-29C576.853,-29 585.441,-29 593.928,-29"/>
<polygon fill="midnightblue" stroke="midnightblue" points="568.308,-25.5001 558.308,-29 568.308,-32.5001 568.308,-25.5001"/>
</g>
<!-- Node72 -->
<g id="node7" class="node"><title>Node72</title>
<g id="a_node7"><a xlink:href="../../d1/ded/classimage.html#adf6b8c126649c9a40387f12b5f5f07d5" target="_top" xlink:title="image::ProcessBoundaryY">
<polygon fill="white" stroke="black" points="293,-0.5 293,-19.5 426,-19.5 426,-0.5 293,-0.5"/>
<text text-anchor="middle" x="359.5" y="-7.5" font-family="Helvetica,sans-Serif" font-size="10.00">image::ProcessBoundaryY</text>
</a>
</g>
</g>
<!-- Node71&#45;&gt;Node72 -->
<g id="edge6" class="edge"><title>Node71&#45;&gt;Node72</title>
<path fill="none" stroke="midnightblue" d="M267.216,-10C275.656,-10 284.334,-10 292.824,-10"/>
<polygon fill="midnightblue" stroke="midnightblue" points="267.067,-6.5001 257.067,-10 267.067,-13.5001 267.067,-6.5001"/>
</g>
<!-- Node72&#45;&gt;Node69 -->
<g id="edge7" class="edge"><title>Node72&#45;&gt;Node69</title>
<path fill="none" stroke="midnightblue" d="M436.207,-19.6864C444.858,-20.7933 453.483,-21.8968 461.612,-22.9369"/>
<polygon fill="midnightblue" stroke="midnightblue" points="436.43,-16.1865 426.067,-18.389 435.541,-23.1299 436.43,-16.1865"/>
</g>
</g>
</svg>
