<?xml version="1.0" encoding="UTF-8" standalone="no"?>
<!DOCTYPE svg PUBLIC "-//W3C//DTD SVG 1.1//EN"
 "http://www.w3.org/Graphics/SVG/1.1/DTD/svg11.dtd">
<!-- Generated by graphviz version 2.38.0 (20140413.2041)
 -->
<!-- Title: initializer::initializeRag Pages: 1 -->
<svg width="580pt" height="332pt"
 viewBox="0.00 0.00 580.00 332.00" xmlns="http://www.w3.org/2000/svg" xmlns:xlink="http://www.w3.org/1999/xlink">
<g id="graph0" class="graph" transform="scale(1 1) rotate(0) translate(4 328)">
<title>initializer::initializeRag</title>
<polygon fill="white" stroke="none" points="-4,4 -4,-328 576,-328 576,4 -4,4"/>
<!-- Node53 -->
<g id="node1" class="node"><title>Node53</title>
<polygon fill="#bfbfbf" stroke="black" points="0,-133.5 0,-152.5 114,-152.5 114,-133.5 0,-133.5"/>
<text text-anchor="middle" x="57" y="-140.5" font-family="Helvetica,sans-Serif" font-size="10.00">initializer::initializeRag</text>
</g>
<!-- Node54 -->
<g id="node2" class="node"><title>Node54</title>
<g id="a_node2"><a xlink:href="../../d9/db2/classinitializer.html#a3b9f79140d510e7aea1287bfe891e8b9" target="_top" xlink:title="initializer::addEdges">
<polygon fill="white" stroke="black" points="150,-152.5 150,-171.5 254,-171.5 254,-152.5 150,-152.5"/>
<text text-anchor="middle" x="202" y="-159.5" font-family="Helvetica,sans-Serif" font-size="10.00">initializer::addEdges</text>
</a>
</g>
</g>
<!-- Node53&#45;&gt;Node54 -->
<g id="edge1" class="edge"><title>Node53&#45;&gt;Node54</title>
<path fill="none" stroke="midnightblue" d="M114.107,-150.455C122.451,-151.563 131.089,-152.711 139.536,-153.834"/>
<polygon fill="midnightblue" stroke="midnightblue" points="139.339,-157.338 149.713,-155.186 140.261,-150.399 139.339,-157.338"/>
</g>
<!-- Node65 -->
<g id="node13" class="node"><title>Node65</title>
<g id="a_node13"><a xlink:href="../../d3/dd4/class_r_a_g.html#a4e34b15e71e8f54f5268766d551beb8c" target="_top" xlink:title="RAG::addNode">
<polygon fill="white" stroke="black" points="160.5,-114.5 160.5,-133.5 243.5,-133.5 243.5,-114.5 160.5,-114.5"/>
<text text-anchor="middle" x="202" y="-121.5" font-family="Helvetica,sans-Serif" font-size="10.00">RAG::addNode</text>
</a>
</g>
</g>
<!-- Node53&#45;&gt;Node65 -->
<g id="edge14" class="edge"><title>Node53&#45;&gt;Node65</title>
<path fill="none" stroke="midnightblue" d="M114.107,-135.545C125.969,-133.969 138.424,-132.314 150.081,-130.765"/>
<polygon fill="midnightblue" stroke="midnightblue" points="150.633,-134.223 160.085,-129.436 149.711,-127.284 150.633,-134.223"/>
</g>
<!-- Node55 -->
<g id="node3" class="node"><title>Node55</title>
<g id="a_node3"><a xlink:href="../../d3/dd4/class_r_a_g.html#a7e9e7021580e97ce5cac0ca30ccd8119" target="_top" xlink:title="RAG::addEdge">
<polygon fill="white" stroke="black" points="313.5,-304.5 313.5,-323.5 396.5,-323.5 396.5,-304.5 313.5,-304.5"/>
<text text-anchor="middle" x="355" y="-311.5" font-family="Helvetica,sans-Serif" font-size="10.00">RAG::addEdge</text>
</a>
</g>
</g>
<!-- Node54&#45;&gt;Node55 -->
<g id="edge2" class="edge"><title>Node54&#45;&gt;Node55</title>
<path fill="none" stroke="midnightblue" d="M206.581,-171.71C216.135,-196.254 244.633,-261.219 290,-295 294.192,-298.121 298.893,-300.733 303.794,-302.917"/>
<polygon fill="midnightblue" stroke="midnightblue" points="302.793,-306.282 313.382,-306.612 305.31,-299.75 302.793,-306.282"/>
</g>
<!-- Node57 -->
<g id="node5" class="node"><title>Node57</title>
<g id="a_node5"><a xlink:href="../../dc/d8f/class_node.html#a86573dcde1125e02936ee7c256fb270a" target="_top" xlink:title="Node::addEdge">
<polygon fill="white" stroke="black" points="313,-266.5 313,-285.5 397,-285.5 397,-266.5 313,-266.5"/>
<text text-anchor="middle" x="355" y="-273.5" font-family="Helvetica,sans-Serif" font-size="10.00">Node::addEdge</text>
</a>
</g>
</g>
<!-- Node54&#45;&gt;Node57 -->
<g id="edge4" class="edge"><title>Node54&#45;&gt;Node57</title>
<path fill="none" stroke="midnightblue" d="M209.167,-171.672C221.901,-190.858 253.027,-233.873 290,-257 294.142,-259.591 298.656,-261.844 303.306,-263.8"/>
<polygon fill="midnightblue" stroke="midnightblue" points="302.376,-267.189 312.968,-267.411 304.826,-260.632 302.376,-267.189"/>
</g>
<!-- Node58 -->
<g id="node6" class="node"><title>Node58</title>
<g id="a_node6"><a xlink:href="../../dc/d8f/class_node.html#adcc7f26a2ccf3a8fcc387ed820624d99" target="_top" xlink:title="Node::getModel">
<polygon fill="white" stroke="black" points="312,-228.5 312,-247.5 398,-247.5 398,-228.5 312,-228.5"/>
<text text-anchor="middle" x="355" y="-235.5" font-family="Helvetica,sans-Serif" font-size="10.00">Node::getModel</text>
</a>
</g>
</g>
<!-- Node54&#45;&gt;Node58 -->
<g id="edge5" class="edge"><title>Node54&#45;&gt;Node58</title>
<path fill="none" stroke="midnightblue" d="M215.008,-171.515C231.204,-183.95 261.333,-205.704 290,-219 294.929,-221.286 300.198,-223.372 305.518,-225.254"/>
<polygon fill="midnightblue" stroke="midnightblue" points="304.494,-228.602 315.087,-228.422 306.694,-221.957 304.494,-228.602"/>
</g>
<!-- Node59 -->
<g id="node7" class="node"><title>Node59</title>
<g id="a_node7"><a xlink:href="../../dc/dd2/classregion_model.html#a822975b706699cc553f92035581246bc" target="_top" xlink:title="regionModel::getOrder">
<polygon fill="white" stroke="black" points="298.5,-190.5 298.5,-209.5 411.5,-209.5 411.5,-190.5 298.5,-190.5"/>
<text text-anchor="middle" x="355" y="-197.5" font-family="Helvetica,sans-Serif" font-size="10.00">regionModel::getOrder</text>
</a>
</g>
</g>
<!-- Node54&#45;&gt;Node59 -->
<g id="edge6" class="edge"><title>Node54&#45;&gt;Node59</title>
<path fill="none" stroke="midnightblue" d="M241.104,-171.589C260.94,-176.581 285.384,-182.732 306.448,-188.033"/>
<polygon fill="midnightblue" stroke="midnightblue" points="305.618,-191.434 316.17,-190.48 307.327,-184.645 305.618,-191.434"/>
</g>
<!-- Node60 -->
<g id="node8" class="node"><title>Node60</title>
<g id="a_node8"><a xlink:href="../../dc/d8f/class_node.html#aa3512938403662345b64049920d1cdaf" target="_top" xlink:title="Node::getPosition">
<polygon fill="white" stroke="black" points="466.5,-114.5 466.5,-133.5 561.5,-133.5 561.5,-114.5 466.5,-114.5"/>
<text text-anchor="middle" x="514" y="-121.5" font-family="Helvetica,sans-Serif" font-size="10.00">Node::getPosition</text>
</a>
</g>
</g>
<!-- Node54&#45;&gt;Node60 -->
<g id="edge7" class="edge"><title>Node54&#45;&gt;Node60</title>
<path fill="none" stroke="midnightblue" d="M254.051,-159.181C298.146,-156.353 363.49,-151.219 420,-143 433.515,-141.034 448.026,-138.35 461.472,-135.619"/>
<polygon fill="midnightblue" stroke="midnightblue" points="462.434,-138.994 471.512,-133.532 461.009,-132.14 462.434,-138.994"/>
</g>
<!-- Node61 -->
<g id="node9" class="node"><title>Node61</title>
<g id="a_node9"><a xlink:href="../../dc/d8f/class_node.html#ac514917c2beff2faebf1e48760cc6b40" target="_top" xlink:title="Node::nodeComparator_X">
<polygon fill="white" stroke="black" points="290,-114.5 290,-133.5 420,-133.5 420,-114.5 290,-114.5"/>
<text text-anchor="middle" x="355" y="-121.5" font-family="Helvetica,sans-Serif" font-size="10.00">Node::nodeComparator_X</text>
</a>
</g>
</g>
<!-- Node54&#45;&gt;Node61 -->
<g id="edge8" class="edge"><title>Node54&#45;&gt;Node61</title>
<path fill="none" stroke="midnightblue" d="M241.104,-152.411C260.94,-147.419 285.384,-141.268 306.448,-135.967"/>
<polygon fill="midnightblue" stroke="midnightblue" points="307.327,-139.355 316.17,-133.52 305.618,-132.566 307.327,-139.355"/>
</g>
<!-- Node62 -->
<g id="node10" class="node"><title>Node62</title>
<g id="a_node10"><a xlink:href="../../dc/d8f/class_node.html#a566bec893ce0b318bad8600f3b1e3e4a" target="_top" xlink:title="Node::nodeComparator_Y">
<polygon fill="white" stroke="black" points="290,-76.5 290,-95.5 420,-95.5 420,-76.5 290,-76.5"/>
<text text-anchor="middle" x="355" y="-83.5" font-family="Helvetica,sans-Serif" font-size="10.00">Node::nodeComparator_Y</text>
</a>
</g>
</g>
<!-- Node54&#45;&gt;Node62 -->
<g id="edge10" class="edge"><title>Node54&#45;&gt;Node62</title>
<path fill="none" stroke="midnightblue" d="M235.374,-152.481C241.81,-149.899 248.326,-146.754 254,-143 273.402,-130.163 270.173,-117.17 290,-105 293.403,-102.911 297.05,-101.04 300.812,-99.3667"/>
<polygon fill="midnightblue" stroke="midnightblue" points="302.32,-102.534 310.332,-95.6011 299.745,-96.025 302.32,-102.534"/>
</g>
<!-- Node63 -->
<g id="node11" class="node"><title>Node63</title>
<g id="a_node11"><a xlink:href="../../d7/d77/class_edge.html#a9825f846eb203bc2ebe0e5ee4dcf9c3b" target="_top" xlink:title="Edge::setLength">
<polygon fill="white" stroke="black" points="311,-38.5 311,-57.5 399,-57.5 399,-38.5 311,-38.5"/>
<text text-anchor="middle" x="355" y="-45.5" font-family="Helvetica,sans-Serif" font-size="10.00">Edge::setLength</text>
</a>
</g>
</g>
<!-- Node54&#45;&gt;Node63 -->
<g id="edge12" class="edge"><title>Node54&#45;&gt;Node63</title>
<path fill="none" stroke="midnightblue" d="M239.563,-152.383C244.803,-149.913 249.823,-146.833 254,-143 281.537,-117.729 261.619,-91.3203 290,-67 293.46,-64.0351 297.366,-61.5328 301.501,-59.4208"/>
<polygon fill="midnightblue" stroke="midnightblue" points="303.037,-62.5699 310.831,-55.393 300.262,-56.1432 303.037,-62.5699"/>
</g>
<!-- Node64 -->
<g id="node12" class="node"><title>Node64</title>
<g id="a_node12"><a xlink:href="../../d7/d77/class_edge.html#a7ba1bfa5c9c7972d2c31b2c3ba3d7c69" target="_top" xlink:title="Edge::setWeight">
<polygon fill="white" stroke="black" points="310.5,-0.5 310.5,-19.5 399.5,-19.5 399.5,-0.5 310.5,-0.5"/>
<text text-anchor="middle" x="355" y="-7.5" font-family="Helvetica,sans-Serif" font-size="10.00">Edge::setWeight</text>
</a>
</g>
</g>
<!-- Node54&#45;&gt;Node64 -->
<g id="edge13" class="edge"><title>Node54&#45;&gt;Node64</title>
<path fill="none" stroke="midnightblue" d="M240.815,-152.483C245.703,-150.011 250.29,-146.904 254,-143 290.605,-104.488 252.106,-66.2444 290,-29 293.25,-25.8061 297.01,-23.145 301.049,-20.9285"/>
<polygon fill="midnightblue" stroke="midnightblue" points="302.585,-24.0748 310.242,-16.752 299.69,-17.7016 302.585,-24.0748"/>
</g>
<!-- Node56 -->
<g id="node4" class="node"><title>Node56</title>
<g id="a_node4"><a xlink:href="../../d8/de9/class_edge_heap.html#a00862191edc866b129f0a735a81861bf" target="_top" xlink:title="EdgeHeap::push_back">
<polygon fill="white" stroke="black" points="456,-304.5 456,-323.5 572,-323.5 572,-304.5 456,-304.5"/>
<text text-anchor="middle" x="514" y="-311.5" font-family="Helvetica,sans-Serif" font-size="10.00">EdgeHeap::push_back</text>
</a>
</g>
</g>
<!-- Node55&#45;&gt;Node56 -->
<g id="edge3" class="edge"><title>Node55&#45;&gt;Node56</title>
<path fill="none" stroke="midnightblue" d="M396.84,-314C411.738,-314 429.007,-314 445.601,-314"/>
<polygon fill="midnightblue" stroke="midnightblue" points="445.818,-317.5 455.818,-314 445.818,-310.5 445.818,-317.5"/>
</g>
<!-- Node61&#45;&gt;Node60 -->
<g id="edge9" class="edge"><title>Node61&#45;&gt;Node60</title>
<path fill="none" stroke="midnightblue" d="M420.311,-124C432.231,-124 444.603,-124 456.278,-124"/>
<polygon fill="midnightblue" stroke="midnightblue" points="456.328,-127.5 466.328,-124 456.328,-120.5 456.328,-127.5"/>
</g>
<!-- Node62&#45;&gt;Node60 -->
<g id="edge11" class="edge"><title>Node62&#45;&gt;Node60</title>
<path fill="none" stroke="midnightblue" d="M395.618,-95.589C416.336,-100.604 441.888,-106.788 463.856,-112.105"/>
<polygon fill="midnightblue" stroke="midnightblue" points="463.124,-115.529 473.667,-114.48 464.771,-108.726 463.124,-115.529"/>
</g>
</g>
</svg>
