<?xml version="1.0" encoding="UTF-8" standalone="no"?>
<!DOCTYPE svg PUBLIC "-//W3C//DTD SVG 1.1//EN"
 "http://www.w3.org/Graphics/SVG/1.1/DTD/svg11.dtd">
<!-- Generated by graphviz version 2.38.0 (20140413.2041)
 -->
<!-- Title: initializer::connect Pages: 1 -->
<svg width="404pt" height="218pt"
 viewBox="0.00 0.00 404.00 218.00" xmlns="http://www.w3.org/2000/svg" xmlns:xlink="http://www.w3.org/1999/xlink">
<g id="graph0" class="graph" transform="scale(1 1) rotate(0) translate(4 214)">
<title>initializer::connect</title>
<polygon fill="white" stroke="none" points="-4,4 -4,-214 400,-214 400,4 -4,4"/>
<!-- Node37 -->
<g id="node1" class="node"><title>Node37</title>
<polygon fill="#bfbfbf" stroke="black" points="0,-95.5 0,-114.5 95,-114.5 95,-95.5 0,-95.5"/>
<text text-anchor="middle" x="47.5" y="-102.5" font-family="Helvetica,sans-Serif" font-size="10.00">initializer::connect</text>
</g>
<!-- Node38 -->
<g id="node2" class="node"><title>Node38</title>
<g id="a_node2"><a xlink:href="../../d3/dd4/class_r_a_g.html#a7e9e7021580e97ce5cac0ca30ccd8119" target="_top" xlink:title="RAG::addEdge">
<polygon fill="white" stroke="black" points="146,-190.5 146,-209.5 229,-209.5 229,-190.5 146,-190.5"/>
<text text-anchor="middle" x="187.5" y="-197.5" font-family="Helvetica,sans-Serif" font-size="10.00">RAG::addEdge</text>
</a>
</g>
</g>
<!-- Node37&#45;&gt;Node38 -->
<g id="edge1" class="edge"><title>Node37&#45;&gt;Node38</title>
<path fill="none" stroke="midnightblue" d="M56.4303,-114.526C70.1128,-130.403 99.7115,-162.367 131,-181 134.445,-183.052 138.144,-184.922 141.936,-186.618"/>
<polygon fill="midnightblue" stroke="midnightblue" points="140.883,-189.967 151.465,-190.478 143.511,-183.479 140.883,-189.967"/>
</g>
<!-- Node40 -->
<g id="node4" class="node"><title>Node40</title>
<g id="a_node4"><a xlink:href="../../dc/d8f/class_node.html#a86573dcde1125e02936ee7c256fb270a" target="_top" xlink:title="Node::addEdge">
<polygon fill="white" stroke="black" points="145.5,-152.5 145.5,-171.5 229.5,-171.5 229.5,-152.5 145.5,-152.5"/>
<text text-anchor="middle" x="187.5" y="-159.5" font-family="Helvetica,sans-Serif" font-size="10.00">Node::addEdge</text>
</a>
</g>
</g>
<!-- Node37&#45;&gt;Node40 -->
<g id="edge3" class="edge"><title>Node37&#45;&gt;Node40</title>
<path fill="none" stroke="midnightblue" d="M67.925,-114.629C84.4902,-122.675 109.04,-134.21 131,-143 136.2,-145.082 141.728,-147.146 147.202,-149.104"/>
<polygon fill="midnightblue" stroke="midnightblue" points="146.321,-152.503 156.916,-152.495 148.628,-145.894 146.321,-152.503"/>
</g>
<!-- Node41 -->
<g id="node5" class="node"><title>Node41</title>
<g id="a_node5"><a xlink:href="../../dc/d8f/class_node.html#adcc7f26a2ccf3a8fcc387ed820624d99" target="_top" xlink:title="Node::getModel">
<polygon fill="white" stroke="black" points="144.5,-114.5 144.5,-133.5 230.5,-133.5 230.5,-114.5 144.5,-114.5"/>
<text text-anchor="middle" x="187.5" y="-121.5" font-family="Helvetica,sans-Serif" font-size="10.00">Node::getModel</text>
</a>
</g>
</g>
<!-- Node37&#45;&gt;Node41 -->
<g id="edge4" class="edge"><title>Node37&#45;&gt;Node41</title>
<path fill="none" stroke="midnightblue" d="M95.2205,-111.433C107.807,-113.165 121.502,-115.051 134.364,-116.822"/>
<polygon fill="midnightblue" stroke="midnightblue" points="134.079,-120.316 144.463,-118.212 135.034,-113.381 134.079,-120.316"/>
</g>
<!-- Node42 -->
<g id="node6" class="node"><title>Node42</title>
<g id="a_node6"><a xlink:href="../../dc/dd2/classregion_model.html#a822975b706699cc553f92035581246bc" target="_top" xlink:title="regionModel::getOrder">
<polygon fill="white" stroke="black" points="131,-76.5 131,-95.5 244,-95.5 244,-76.5 131,-76.5"/>
<text text-anchor="middle" x="187.5" y="-83.5" font-family="Helvetica,sans-Serif" font-size="10.00">regionModel::getOrder</text>
</a>
</g>
</g>
<!-- Node37&#45;&gt;Node42 -->
<g id="edge5" class="edge"><title>Node37&#45;&gt;Node42</title>
<path fill="none" stroke="midnightblue" d="M95.2205,-98.5675C103.426,-97.4377 112.102,-96.2432 120.712,-95.0578"/>
<polygon fill="midnightblue" stroke="midnightblue" points="121.326,-98.5063 130.755,-93.675 120.372,-91.5717 121.326,-98.5063"/>
</g>
<!-- Node43 -->
<g id="node7" class="node"><title>Node43</title>
<g id="a_node7"><a xlink:href="../../d7/d77/class_edge.html#a9825f846eb203bc2ebe0e5ee4dcf9c3b" target="_top" xlink:title="Edge::setLength">
<polygon fill="white" stroke="black" points="143.5,-38.5 143.5,-57.5 231.5,-57.5 231.5,-38.5 143.5,-38.5"/>
<text text-anchor="middle" x="187.5" y="-45.5" font-family="Helvetica,sans-Serif" font-size="10.00">Edge::setLength</text>
</a>
</g>
</g>
<!-- Node37&#45;&gt;Node43 -->
<g id="edge6" class="edge"><title>Node37&#45;&gt;Node43</title>
<path fill="none" stroke="midnightblue" d="M67.925,-95.3712C84.4902,-87.3254 109.04,-75.7899 131,-67 136.2,-64.9185 141.728,-62.8544 147.202,-60.8963"/>
<polygon fill="midnightblue" stroke="midnightblue" points="148.628,-64.1057 156.916,-57.5053 146.321,-57.4968 148.628,-64.1057"/>
</g>
<!-- Node44 -->
<g id="node8" class="node"><title>Node44</title>
<g id="a_node8"><a xlink:href="../../d7/d77/class_edge.html#a7ba1bfa5c9c7972d2c31b2c3ba3d7c69" target="_top" xlink:title="Edge::setWeight">
<polygon fill="white" stroke="black" points="143,-0.5 143,-19.5 232,-19.5 232,-0.5 143,-0.5"/>
<text text-anchor="middle" x="187.5" y="-7.5" font-family="Helvetica,sans-Serif" font-size="10.00">Edge::setWeight</text>
</a>
</g>
</g>
<!-- Node37&#45;&gt;Node44 -->
<g id="edge7" class="edge"><title>Node37&#45;&gt;Node44</title>
<path fill="none" stroke="midnightblue" d="M56.4303,-95.4737C70.1128,-79.5969 99.7115,-47.6331 131,-29 134.445,-26.9482 138.144,-25.078 141.936,-23.3822"/>
<polygon fill="midnightblue" stroke="midnightblue" points="143.511,-26.5206 151.465,-19.5218 140.883,-20.0328 143.511,-26.5206"/>
</g>
<!-- Node39 -->
<g id="node3" class="node"><title>Node39</title>
<g id="a_node3"><a xlink:href="../../d8/de9/class_edge_heap.html#a00862191edc866b129f0a735a81861bf" target="_top" xlink:title="EdgeHeap::push_back">
<polygon fill="white" stroke="black" points="280,-190.5 280,-209.5 396,-209.5 396,-190.5 280,-190.5"/>
<text text-anchor="middle" x="338" y="-197.5" font-family="Helvetica,sans-Serif" font-size="10.00">EdgeHeap::push_back</text>
</a>
</g>
</g>
<!-- Node38&#45;&gt;Node39 -->
<g id="edge2" class="edge"><title>Node38&#45;&gt;Node39</title>
<path fill="none" stroke="midnightblue" d="M229.078,-200C241.655,-200 255.867,-200 269.749,-200"/>
<polygon fill="midnightblue" stroke="midnightblue" points="269.772,-203.5 279.772,-200 269.772,-196.5 269.772,-203.5"/>
</g>
</g>
</svg>
