<?xml version="1.0" encoding="UTF-8" standalone="no"?>
<!DOCTYPE svg PUBLIC "-//W3C//DTD SVG 1.1//EN"
 "http://www.w3.org/Graphics/SVG/1.1/DTD/svg11.dtd">
<!-- Generated by graphviz version 2.38.0 (20140413.2041)
 -->
<!-- Title: initializer::addEdges Pages: 1 -->
<svg width="885pt" height="66pt"
 viewBox="0.00 0.00 885.00 66.00" xmlns="http://www.w3.org/2000/svg" xmlns:xlink="http://www.w3.org/1999/xlink">
<g id="graph0" class="graph" transform="scale(1 1) rotate(0) translate(4 62)">
<title>initializer::addEdges</title>
<polygon fill="white" stroke="none" points="-4,4 -4,-62 881,-62 881,4 -4,4"/>
<!-- Node11 -->
<g id="node1" class="node"><title>Node11</title>
<polygon fill="#bfbfbf" stroke="black" points="0,-19.5 0,-38.5 104,-38.5 104,-19.5 0,-19.5"/>
<text text-anchor="middle" x="52" y="-26.5" font-family="Helvetica,sans-Serif" font-size="10.00">initializer::addEdges</text>
</g>
<!-- Node12 -->
<g id="node2" class="node"><title>Node12</title>
<g id="a_node2"><a xlink:href="../../d9/db2/classinitializer.html#aaa8cb78ad7655020875fa970001d899e" target="_top" xlink:title="initializer::initializeRag">
<polygon fill="white" stroke="black" points="140,-19.5 140,-38.5 254,-38.5 254,-19.5 140,-19.5"/>
<text text-anchor="middle" x="197" y="-26.5" font-family="Helvetica,sans-Serif" font-size="10.00">initializer::initializeRag</text>
</a>
</g>
</g>
<!-- Node11&#45;&gt;Node12 -->
<g id="edge1" class="edge"><title>Node11&#45;&gt;Node12</title>
<path fill="none" stroke="midnightblue" d="M114.39,-29C122.83,-29 131.463,-29 139.803,-29"/>
<polygon fill="midnightblue" stroke="midnightblue" points="114.222,-25.5001 104.222,-29 114.222,-32.5001 114.222,-25.5001"/>
</g>
<!-- Node13 -->
<g id="node3" class="node"><title>Node13</title>
<g id="a_node3"><a xlink:href="../../d1/ded/classimage.html#a12343719e8d96a4bda9c5bd6c035d52a" target="_top" xlink:title="image::mergeBlockX">
<polygon fill="white" stroke="black" points="290,-38.5 290,-57.5 397,-57.5 397,-38.5 290,-38.5"/>
<text text-anchor="middle" x="343.5" y="-45.5" font-family="Helvetica,sans-Serif" font-size="10.00">image::mergeBlockX</text>
</a>
</g>
</g>
<!-- Node12&#45;&gt;Node13 -->
<g id="edge2" class="edge"><title>Node12&#45;&gt;Node13</title>
<path fill="none" stroke="midnightblue" d="M264.288,-37.716C272.881,-38.846 281.588,-39.9908 289.917,-41.086"/>
<polygon fill="midnightblue" stroke="midnightblue" points="264.652,-34.2339 254.281,-36.4003 263.74,-41.1742 264.652,-34.2339"/>
</g>
<!-- Node17 -->
<g id="node7" class="node"><title>Node17</title>
<g id="a_node7"><a xlink:href="../../d1/ded/classimage.html#aa21fc5a07af7528869425e750090b3b8" target="_top" xlink:title="image::mergeBlockY">
<polygon fill="white" stroke="black" points="290,-0.5 290,-19.5 397,-19.5 397,-0.5 290,-0.5"/>
<text text-anchor="middle" x="343.5" y="-7.5" font-family="Helvetica,sans-Serif" font-size="10.00">image::mergeBlockY</text>
</a>
</g>
</g>
<!-- Node12&#45;&gt;Node17 -->
<g id="edge6" class="edge"><title>Node12&#45;&gt;Node17</title>
<path fill="none" stroke="midnightblue" d="M264.288,-20.284C272.881,-19.154 281.588,-18.0092 289.917,-16.914"/>
<polygon fill="midnightblue" stroke="midnightblue" points="263.74,-16.8258 254.281,-21.5997 264.652,-23.7661 263.74,-16.8258"/>
</g>
<!-- Node14 -->
<g id="node4" class="node"><title>Node14</title>
<g id="a_node4"><a xlink:href="../../d1/ded/classimage.html#a83026280ad6cc713ec9489ff3bd9776e" target="_top" xlink:title="image::ProcessBoundaryX">
<polygon fill="white" stroke="black" points="433,-38.5 433,-57.5 566,-57.5 566,-38.5 433,-38.5"/>
<text text-anchor="middle" x="499.5" y="-45.5" font-family="Helvetica,sans-Serif" font-size="10.00">image::ProcessBoundaryX</text>
</a>
</g>
</g>
<!-- Node13&#45;&gt;Node14 -->
<g id="edge3" class="edge"><title>Node13&#45;&gt;Node14</title>
<path fill="none" stroke="midnightblue" d="M407.216,-48C415.656,-48 424.334,-48 432.824,-48"/>
<polygon fill="midnightblue" stroke="midnightblue" points="407.067,-44.5001 397.067,-48 407.067,-51.5001 407.067,-44.5001"/>
</g>
<!-- Node15 -->
<g id="node5" class="node"><title>Node15</title>
<g id="a_node5"><a xlink:href="../../d1/ded/classimage.html#a4689c56b85c46d48ea52f0c9fa13891e" target="_top" xlink:title="image::processing">
<polygon fill="white" stroke="black" points="602,-19.5 602,-38.5 698,-38.5 698,-19.5 602,-19.5"/>
<text text-anchor="middle" x="650" y="-26.5" font-family="Helvetica,sans-Serif" font-size="10.00">image::processing</text>
</a>
</g>
</g>
<!-- Node14&#45;&gt;Node15 -->
<g id="edge4" class="edge"><title>Node14&#45;&gt;Node15</title>
<path fill="none" stroke="midnightblue" d="M576.207,-38.3136C584.858,-37.2067 593.483,-36.1032 601.612,-35.0631"/>
<polygon fill="midnightblue" stroke="midnightblue" points="575.541,-34.8701 566.067,-39.611 576.43,-41.8135 575.541,-34.8701"/>
</g>
<!-- Node16 -->
<g id="node6" class="node"><title>Node16</title>
<g id="a_node6"><a xlink:href="../../d9/dc6/class_main_window.html#a9a45eb9ebe6d27bcd23677d9fbb74dd8" target="_top" xlink:title="MainWindow::on_Go_clicked">
<polygon fill="white" stroke="black" points="734,-19.5 734,-38.5 877,-38.5 877,-19.5 734,-19.5"/>
<text text-anchor="middle" x="805.5" y="-26.5" font-family="Helvetica,sans-Serif" font-size="10.00">MainWindow::on_Go_clicked</text>
</a>
</g>
</g>
<!-- Node15&#45;&gt;Node16 -->
<g id="edge5" class="edge"><title>Node15&#45;&gt;Node16</title>
<path fill="none" stroke="midnightblue" d="M708.583,-29C716.853,-29 725.441,-29 733.928,-29"/>
<polygon fill="midnightblue" stroke="midnightblue" points="708.308,-25.5001 698.308,-29 708.308,-32.5001 708.308,-25.5001"/>
</g>
<!-- Node18 -->
<g id="node8" class="node"><title>Node18</title>
<g id="a_node8"><a xlink:href="../../d1/ded/classimage.html#adf6b8c126649c9a40387f12b5f5f07d5" target="_top" xlink:title="image::ProcessBoundaryY">
<polygon fill="white" stroke="black" points="433,-0.5 433,-19.5 566,-19.5 566,-0.5 433,-0.5"/>
<text text-anchor="middle" x="499.5" y="-7.5" font-family="Helvetica,sans-Serif" font-size="10.00">image::ProcessBoundaryY</text>
</a>
</g>
</g>
<!-- Node17&#45;&gt;Node18 -->
<g id="edge7" class="edge"><title>Node17&#45;&gt;Node18</title>
<path fill="none" stroke="midnightblue" d="M407.216,-10C415.656,-10 424.334,-10 432.824,-10"/>
<polygon fill="midnightblue" stroke="midnightblue" points="407.067,-6.5001 397.067,-10 407.067,-13.5001 407.067,-6.5001"/>
</g>
<!-- Node18&#45;&gt;Node15 -->
<g id="edge8" class="edge"><title>Node18&#45;&gt;Node15</title>
<path fill="none" stroke="midnightblue" d="M576.207,-19.6864C584.858,-20.7933 593.483,-21.8968 601.612,-22.9369"/>
<polygon fill="midnightblue" stroke="midnightblue" points="576.43,-16.1865 566.067,-18.389 575.541,-23.1299 576.43,-16.1865"/>
</g>
</g>
</svg>
