<?xml version="1.0" encoding="UTF-8" standalone="no"?>
<!DOCTYPE svg PUBLIC "-//W3C//DTD SVG 1.1//EN"
 "http://www.w3.org/Graphics/SVG/1.1/DTD/svg11.dtd">
<!-- Generated by graphviz version 2.38.0 (20140413.2041)
 -->
<!-- Title: edge.h Pages: 1 -->
<svg width="709pt" height="476pt"
 viewBox="0.00 0.00 708.60 476.00" xmlns="http://www.w3.org/2000/svg" xmlns:xlink="http://www.w3.org/1999/xlink">
<g id="graph0" class="graph" transform="scale(1 1) rotate(0) translate(4 472)">
<title>edge.h</title>
<polygon fill="white" stroke="none" points="-4,4 -4,-472 704.603,-472 704.603,4 -4,4"/>
<!-- Node1 -->
<g id="node1" class="node"><title>Node1</title>
<polygon fill="#bfbfbf" stroke="black" points="541.5,-448.5 541.5,-467.5 587.5,-467.5 587.5,-448.5 541.5,-448.5"/>
<text text-anchor="middle" x="564.5" y="-455.5" font-family="Helvetica,sans-Serif" font-size="10.00">edge.h</text>
</g>
<!-- Node2 -->
<g id="node2" class="node"><title>Node2</title>
<g id="a_node2"><a xlink:href="../../d1/d77/node_8h.html" target="_top" xlink:title="node.h">
<polygon fill="white" stroke="black" points="485.5,-392.5 485.5,-411.5 531.5,-411.5 531.5,-392.5 485.5,-392.5"/>
<text text-anchor="middle" x="508.5" y="-399.5" font-family="Helvetica,sans-Serif" font-size="10.00">node.h</text>
</a>
</g>
</g>
<!-- Node1&#45;&gt;Node2 -->
<g id="edge1" class="edge"><title>Node1&#45;&gt;Node2</title>
<path fill="none" stroke="midnightblue" d="M548.17,-441.253C538.235,-431.673 525.912,-419.791 517.661,-411.834"/>
<polygon fill="midnightblue" stroke="midnightblue" points="545.875,-443.902 555.503,-448.324 550.734,-438.863 545.875,-443.902"/>
</g>
<!-- Node22 -->
<g id="node22" class="node"><title>Node22</title>
<g id="a_node22"><a xlink:href="../../d3/df4/edge_8cpp.html" target="_top" xlink:title="edge.cpp">
<polygon fill="white" stroke="black" points="536.5,-336.5 536.5,-355.5 592.5,-355.5 592.5,-336.5 536.5,-336.5"/>
<text text-anchor="middle" x="564.5" y="-343.5" font-family="Helvetica,sans-Serif" font-size="10.00">edge.cpp</text>
</a>
</g>
</g>
<!-- Node1&#45;&gt;Node22 -->
<g id="edge37" class="edge"><title>Node1&#45;&gt;Node22</title>
<path fill="none" stroke="midnightblue" d="M564.5,-438.348C564.5,-414.254 564.5,-373.308 564.5,-355.591"/>
<polygon fill="midnightblue" stroke="midnightblue" points="561,-438.368 564.5,-448.368 568,-438.369 561,-438.368"/>
</g>
<!-- Node27 -->
<g id="node27" class="node"><title>Node27</title>
<g id="a_node27"><a xlink:href="../../d3/d0c/edgeheap_8h.html" target="_top" xlink:title="edgeheap.h">
<polygon fill="white" stroke="black" points="616,-392.5 616,-411.5 683,-411.5 683,-392.5 616,-392.5"/>
<text text-anchor="middle" x="649.5" y="-399.5" font-family="Helvetica,sans-Serif" font-size="10.00">edgeheap.h</text>
</a>
</g>
</g>
<!-- Node1&#45;&gt;Node27 -->
<g id="edge38" class="edge"><title>Node1&#45;&gt;Node27</title>
<path fill="none" stroke="midnightblue" d="M586.694,-442.901C602.28,-432.999 622.63,-420.071 635.877,-411.655"/>
<polygon fill="midnightblue" stroke="midnightblue" points="584.721,-440.007 578.157,-448.324 588.474,-445.916 584.721,-440.007"/>
</g>
<!-- Node3 -->
<g id="node3" class="node"><title>Node3</title>
<g id="a_node3"><a xlink:href="../../d7/d51/histogrammodel_8h.html" target="_top" xlink:title="histogrammodel.h">
<polygon fill="white" stroke="black" points="312.5,-336.5 312.5,-355.5 406.5,-355.5 406.5,-336.5 312.5,-336.5"/>
<text text-anchor="middle" x="359.5" y="-343.5" font-family="Helvetica,sans-Serif" font-size="10.00">histogrammodel.h</text>
</a>
</g>
</g>
<!-- Node2&#45;&gt;Node3 -->
<g id="edge2" class="edge"><title>Node2&#45;&gt;Node3</title>
<path fill="none" stroke="midnightblue" d="M475.473,-389.03C447.48,-378.885 408.023,-364.585 383.109,-355.556"/>
<polygon fill="midnightblue" stroke="midnightblue" points="474.625,-392.446 485.219,-392.562 477.01,-385.865 474.625,-392.446"/>
</g>
<!-- Node6 -->
<g id="node6" class="node"><title>Node6</title>
<g id="a_node6"><a xlink:href="../../dc/dac/io_8h.html" target="_top" xlink:title="io.h">
<polygon fill="white" stroke="black" points="179.5,-224.5 179.5,-243.5 211.5,-243.5 211.5,-224.5 179.5,-224.5"/>
<text text-anchor="middle" x="195.5" y="-231.5" font-family="Helvetica,sans-Serif" font-size="10.00">io.h</text>
</a>
</g>
</g>
<!-- Node2&#45;&gt;Node6 -->
<g id="edge30" class="edge"><title>Node2&#45;&gt;Node6</title>
<path fill="none" stroke="midnightblue" d="M475.217,-399.925C432.675,-397.216 358.016,-387.876 303.5,-356 253.427,-326.722 214.008,-266.213 200.52,-243.694"/>
<polygon fill="midnightblue" stroke="midnightblue" points="475.132,-403.426 485.309,-400.481 475.517,-396.436 475.132,-403.426"/>
</g>
<!-- Node2&#45;&gt;Node22 -->
<g id="edge28" class="edge"><title>Node2&#45;&gt;Node22</title>
<path fill="none" stroke="midnightblue" d="M524.83,-385.253C534.765,-375.673 547.088,-363.791 555.339,-355.834"/>
<polygon fill="midnightblue" stroke="midnightblue" points="522.266,-382.863 517.497,-392.324 527.125,-387.902 522.266,-382.863"/>
</g>
<!-- Node23 -->
<g id="node23" class="node"><title>Node23</title>
<g id="a_node23"><a xlink:href="../../d0/dbb/edgeheap_8cpp.html" target="_top" xlink:title="edgeheap.cpp">
<polygon fill="white" stroke="black" points="611,-336.5 611,-355.5 688,-355.5 688,-336.5 611,-336.5"/>
<text text-anchor="middle" x="649.5" y="-343.5" font-family="Helvetica,sans-Serif" font-size="10.00">edgeheap.cpp</text>
</a>
</g>
</g>
<!-- Node2&#45;&gt;Node23 -->
<g id="edge29" class="edge"><title>Node2&#45;&gt;Node23</title>
<path fill="none" stroke="midnightblue" d="M540.429,-388.772C566.914,-378.629 603.892,-364.467 627.263,-355.516"/>
<polygon fill="midnightblue" stroke="midnightblue" points="538.929,-385.599 530.842,-392.444 541.432,-392.136 538.929,-385.599"/>
</g>
<!-- Node24 -->
<g id="node24" class="node"><title>Node24</title>
<g id="a_node24"><a xlink:href="../../d8/dfb/rag_8h.html" target="_top" xlink:title="rag.h">
<polygon fill="white" stroke="black" points="559.5,-280.5 559.5,-299.5 597.5,-299.5 597.5,-280.5 559.5,-280.5"/>
<text text-anchor="middle" x="578.5" y="-287.5" font-family="Helvetica,sans-Serif" font-size="10.00">rag.h</text>
</a>
</g>
</g>
<!-- Node2&#45;&gt;Node24 -->
<g id="edge31" class="edge"><title>Node2&#45;&gt;Node24</title>
<path fill="none" stroke="midnightblue" d="M511.111,-382.247C513.666,-368.597 518.534,-350.109 527.5,-336 537.126,-320.852 553.301,-307.828 564.854,-299.746"/>
<polygon fill="midnightblue" stroke="midnightblue" points="507.614,-381.942 509.468,-392.373 514.524,-383.063 507.614,-381.942"/>
</g>
<!-- Node26 -->
<g id="node26" class="node"><title>Node26</title>
<g id="a_node26"><a xlink:href="../../d7/d70/node_8cpp.html" target="_top" xlink:title="node.cpp">
<polygon fill="white" stroke="black" points="424.5,-336.5 424.5,-355.5 480.5,-355.5 480.5,-336.5 424.5,-336.5"/>
<text text-anchor="middle" x="452.5" y="-343.5" font-family="Helvetica,sans-Serif" font-size="10.00">node.cpp</text>
</a>
</g>
</g>
<!-- Node2&#45;&gt;Node26 -->
<g id="edge36" class="edge"><title>Node2&#45;&gt;Node26</title>
<path fill="none" stroke="midnightblue" d="M492.17,-385.253C482.235,-375.673 469.912,-363.791 461.661,-355.834"/>
<polygon fill="midnightblue" stroke="midnightblue" points="489.875,-387.902 499.503,-392.324 494.734,-382.863 489.875,-387.902"/>
</g>
<!-- Node4 -->
<g id="node4" class="node"><title>Node4</title>
<g id="a_node4"><a xlink:href="../../df/d5e/compoundmodel_8h.html" target="_top" xlink:title="compoundmodel.h">
<polygon fill="white" stroke="black" points="273.5,-280.5 273.5,-299.5 369.5,-299.5 369.5,-280.5 273.5,-280.5"/>
<text text-anchor="middle" x="321.5" y="-287.5" font-family="Helvetica,sans-Serif" font-size="10.00">compoundmodel.h</text>
</a>
</g>
</g>
<!-- Node3&#45;&gt;Node4 -->
<g id="edge3" class="edge"><title>Node3&#45;&gt;Node4</title>
<path fill="none" stroke="midnightblue" d="M347.435,-327.855C340.855,-318.505 332.989,-307.327 327.658,-299.751"/>
<polygon fill="midnightblue" stroke="midnightblue" points="344.608,-329.919 353.225,-336.083 350.332,-325.891 344.608,-329.919"/>
</g>
<!-- Node19 -->
<g id="node19" class="node"><title>Node19</title>
<g id="a_node19"><a xlink:href="../../d8/df5/initializer_8h.html" target="_top" xlink:title="initializer.h">
<polygon fill="white" stroke="black" points="432,-224.5 432,-243.5 495,-243.5 495,-224.5 432,-224.5"/>
<text text-anchor="middle" x="463.5" y="-231.5" font-family="Helvetica,sans-Serif" font-size="10.00">initializer.h</text>
</a>
</g>
</g>
<!-- Node3&#45;&gt;Node19 -->
<g id="edge27" class="edge"><title>Node3&#45;&gt;Node19</title>
<path fill="none" stroke="midnightblue" d="M373.252,-328.53C384.566,-315.175 401.176,-296.01 416.5,-280 428.998,-266.943 444.233,-252.629 453.902,-243.73"/>
<polygon fill="midnightblue" stroke="midnightblue" points="370.411,-326.471 366.649,-336.375 375.766,-330.979 370.411,-326.471"/>
</g>
<!-- Node21 -->
<g id="node21" class="node"><title>Node21</title>
<g id="a_node21"><a xlink:href="../../de/d59/histogrammodel_8cpp.html" target="_top" xlink:title="histogrammodel.cpp">
<polygon fill="white" stroke="black" points="425.5,-280.5 425.5,-299.5 529.5,-299.5 529.5,-280.5 425.5,-280.5"/>
<text text-anchor="middle" x="477.5" y="-287.5" font-family="Helvetica,sans-Serif" font-size="10.00">histogrammodel.cpp</text>
</a>
</g>
</g>
<!-- Node3&#45;&gt;Node21 -->
<g id="edge26" class="edge"><title>Node3&#45;&gt;Node21</title>
<path fill="none" stroke="midnightblue" d="M387.4,-332.232C409.473,-322.131 439.676,-308.309 458.89,-299.516"/>
<polygon fill="midnightblue" stroke="midnightblue" points="385.834,-329.1 378.197,-336.444 388.747,-335.465 385.834,-329.1"/>
</g>
<!-- Node5 -->
<g id="node5" class="node"><title>Node5</title>
<g id="a_node5"><a xlink:href="../../d4/d8e/compoundmodel_8cpp.html" target="_top" xlink:title="compoundmodel.cpp">
<polygon fill="white" stroke="black" points="268,-224.5 268,-243.5 375,-243.5 375,-224.5 268,-224.5"/>
<text text-anchor="middle" x="321.5" y="-231.5" font-family="Helvetica,sans-Serif" font-size="10.00">compoundmodel.cpp</text>
</a>
</g>
</g>
<!-- Node4&#45;&gt;Node5 -->
<g id="edge4" class="edge"><title>Node4&#45;&gt;Node5</title>
<path fill="none" stroke="midnightblue" d="M321.5,-269.805C321.5,-260.91 321.5,-250.78 321.5,-243.751"/>
<polygon fill="midnightblue" stroke="midnightblue" points="318,-270.083 321.5,-280.083 325,-270.083 318,-270.083"/>
</g>
<!-- Node4&#45;&gt;Node6 -->
<g id="edge5" class="edge"><title>Node4&#45;&gt;Node6</title>
<path fill="none" stroke="midnightblue" d="M292.155,-276.423C267.123,-265.695 232.056,-250.667 211.766,-241.971"/>
<polygon fill="midnightblue" stroke="midnightblue" points="290.965,-279.721 301.535,-280.444 293.722,-273.287 290.965,-279.721"/>
</g>
<!-- Node13 -->
<g id="node13" class="node"><title>Node13</title>
<g id="a_node13"><a xlink:href="../../d5/db2/image_8h.html" target="_top" xlink:title="image.h">
<polygon fill="white" stroke="black" points="362,-112.5 362,-131.5 413,-131.5 413,-112.5 362,-112.5"/>
<text text-anchor="middle" x="387.5" y="-119.5" font-family="Helvetica,sans-Serif" font-size="10.00">image.h</text>
</a>
</g>
</g>
<!-- Node4&#45;&gt;Node13 -->
<g id="edge24" class="edge"><title>Node4&#45;&gt;Node13</title>
<path fill="none" stroke="midnightblue" d="M350.397,-275.548C362.887,-268.122 376.274,-257.613 383.5,-244 403.505,-206.313 394.299,-152.311 389.629,-131.565"/>
<polygon fill="midnightblue" stroke="midnightblue" points="348.635,-272.523 341.561,-280.411 352.01,-278.655 348.635,-272.523"/>
</g>
<!-- Node14 -->
<g id="node14" class="node"><title>Node14</title>
<g id="a_node14"><a xlink:href="../../db/d11/image_8cpp.html" target="_top" xlink:title="image.cpp">
<polygon fill="white" stroke="black" points="267.5,-56.5 267.5,-75.5 329.5,-75.5 329.5,-56.5 267.5,-56.5"/>
<text text-anchor="middle" x="298.5" y="-63.5" font-family="Helvetica,sans-Serif" font-size="10.00">image.cpp</text>
</a>
</g>
</g>
<!-- Node4&#45;&gt;Node14 -->
<g id="edge25" class="edge"><title>Node4&#45;&gt;Node14</title>
<path fill="none" stroke="midnightblue" d="M291.678,-275.606C279.021,-268.234 265.577,-257.753 258.5,-244 227.939,-184.614 275.426,-102.201 292.653,-75.6259"/>
<polygon fill="midnightblue" stroke="midnightblue" points="290.187,-278.778 300.653,-280.427 293.499,-272.611 290.187,-278.778"/>
</g>
<!-- Node4&#45;&gt;Node19 -->
<g id="edge21" class="edge"><title>Node4&#45;&gt;Node19</title>
<path fill="none" stroke="midnightblue" d="M353.655,-276.772C380.328,-266.629 417.569,-252.467 441.105,-243.516"/>
<polygon fill="midnightblue" stroke="midnightblue" points="352.103,-273.618 344,-280.444 354.591,-280.16 352.103,-273.618"/>
</g>
<!-- Node7 -->
<g id="node7" class="node"><title>Node7</title>
<g id="a_node7"><a xlink:href="../../d7/da7/hoovermetrics_8h.html" target="_top" xlink:title="hoovermetrics.h">
<polygon fill="white" stroke="black" points="120.5,-112.5 120.5,-131.5 206.5,-131.5 206.5,-112.5 120.5,-112.5"/>
<text text-anchor="middle" x="163.5" y="-119.5" font-family="Helvetica,sans-Serif" font-size="10.00">hoovermetrics.h</text>
</a>
</g>
</g>
<!-- Node6&#45;&gt;Node7 -->
<g id="edge6" class="edge"><title>Node6&#45;&gt;Node7</title>
<path fill="none" stroke="midnightblue" d="M190.169,-214.674C183.173,-190.625 171.177,-149.388 165.999,-131.591"/>
<polygon fill="midnightblue" stroke="midnightblue" points="186.835,-215.744 192.989,-224.368 193.556,-213.789 186.835,-215.744"/>
</g>
<!-- Node12 -->
<g id="node12" class="node"><title>Node12</title>
<g id="a_node12"><a xlink:href="../../d3/d94/imageblock_8h.html" target="_top" xlink:title="imageblock.h">
<polygon fill="white" stroke="black" points="507.5,-168.5 507.5,-187.5 581.5,-187.5 581.5,-168.5 507.5,-168.5"/>
<text text-anchor="middle" x="544.5" y="-175.5" font-family="Helvetica,sans-Serif" font-size="10.00">imageblock.h</text>
</a>
</g>
</g>
<!-- Node6&#45;&gt;Node12 -->
<g id="edge12" class="edge"><title>Node6&#45;&gt;Node12</title>
<path fill="none" stroke="midnightblue" d="M221.574,-229.284C284.823,-220.246 445.115,-197.182 498.5,-188 501.387,-187.503 504.372,-186.969 507.37,-186.416"/>
<polygon fill="midnightblue" stroke="midnightblue" points="221.016,-225.829 211.611,-230.707 222.005,-232.758 221.016,-225.829"/>
</g>
<!-- Node6&#45;&gt;Node13 -->
<g id="edge19" class="edge"><title>Node6&#45;&gt;Node13</title>
<path fill="none" stroke="midnightblue" d="M219.411,-219.301C259.551,-196.304 339.342,-150.591 372.504,-131.591"/>
<polygon fill="midnightblue" stroke="midnightblue" points="217.503,-216.36 210.566,-224.368 220.983,-222.434 217.503,-216.36"/>
</g>
<!-- Node18 -->
<g id="node18" class="node"><title>Node18</title>
<g id="a_node18"><a xlink:href="../../d5/d5a/io_8cpp.html" target="_top" xlink:title="io.cpp">
<polygon fill="white" stroke="black" points="92,-168.5 92,-187.5 135,-187.5 135,-168.5 92,-168.5"/>
<text text-anchor="middle" x="113.5" y="-175.5" font-family="Helvetica,sans-Serif" font-size="10.00">io.cpp</text>
</a>
</g>
</g>
<!-- Node6&#45;&gt;Node18 -->
<g id="edge20" class="edge"><title>Node6&#45;&gt;Node18</title>
<path fill="none" stroke="midnightblue" d="M173.667,-218.622C158.687,-208.757 139.303,-195.992 126.642,-187.655"/>
<polygon fill="midnightblue" stroke="midnightblue" points="172.049,-221.747 182.325,-224.324 175.899,-215.901 172.049,-221.747"/>
</g>
<!-- Node8 -->
<g id="node8" class="node"><title>Node8</title>
<g id="a_node8"><a xlink:href="../../dc/d17/hoovercalculator_8h.html" target="_top" xlink:title="hoovercalculator.h">
<polygon fill="white" stroke="black" points="115.5,-56.5 115.5,-75.5 211.5,-75.5 211.5,-56.5 115.5,-56.5"/>
<text text-anchor="middle" x="163.5" y="-63.5" font-family="Helvetica,sans-Serif" font-size="10.00">hoovercalculator.h</text>
</a>
</g>
</g>
<!-- Node7&#45;&gt;Node8 -->
<g id="edge7" class="edge"><title>Node7&#45;&gt;Node8</title>
<path fill="none" stroke="midnightblue" d="M163.5,-101.805C163.5,-92.9102 163.5,-82.7798 163.5,-75.7511"/>
<polygon fill="midnightblue" stroke="midnightblue" points="160,-102.083 163.5,-112.083 167,-102.083 160,-102.083"/>
</g>
<!-- Node10 -->
<g id="node10" class="node"><title>Node10</title>
<g id="a_node10"><a xlink:href="../../d8/dd9/mainwindow_8cpp.html" target="_top" xlink:title="mainwindow.cpp">
<polygon fill="white" stroke="black" points="215,-0.5 215,-19.5 304,-19.5 304,-0.5 215,-0.5"/>
<text text-anchor="middle" x="259.5" y="-7.5" font-family="Helvetica,sans-Serif" font-size="10.00">mainwindow.cpp</text>
</a>
</g>
</g>
<!-- Node7&#45;&gt;Node10 -->
<g id="edge11" class="edge"><title>Node7&#45;&gt;Node10</title>
<path fill="none" stroke="midnightblue" d="M185.786,-106.316C197.025,-98.2252 210.381,-87.5034 220.5,-76 236.32,-58.0163 249.358,-32.7501 255.573,-19.6457"/>
<polygon fill="midnightblue" stroke="midnightblue" points="183.535,-103.618 177.328,-112.204 187.535,-109.363 183.535,-103.618"/>
</g>
<!-- Node11 -->
<g id="node11" class="node"><title>Node11</title>
<g id="a_node11"><a xlink:href="../../d2/da0/hoovermetrics_8cpp.html" target="_top" xlink:title="hoovermetrics.cpp">
<polygon fill="white" stroke="black" points="0,-56.5 0,-75.5 97,-75.5 97,-56.5 0,-56.5"/>
<text text-anchor="middle" x="48.5" y="-63.5" font-family="Helvetica,sans-Serif" font-size="10.00">hoovermetrics.cpp</text>
</a>
</g>
</g>
<!-- Node7&#45;&gt;Node11 -->
<g id="edge10" class="edge"><title>Node7&#45;&gt;Node11</title>
<path fill="none" stroke="midnightblue" d="M136.019,-108.096C114.534,-98.0073 85.2781,-84.2697 66.6368,-75.5164"/>
<polygon fill="midnightblue" stroke="midnightblue" points="134.738,-111.361 145.278,-112.444 137.714,-105.025 134.738,-111.361"/>
</g>
<!-- Node9 -->
<g id="node9" class="node"><title>Node9</title>
<g id="a_node9"><a xlink:href="../../d7/d5f/hoovercalculator_8cpp.html" target="_top" xlink:title="hoovercalculator.cpp">
<polygon fill="white" stroke="black" points="90,-0.5 90,-19.5 197,-19.5 197,-0.5 90,-0.5"/>
<text text-anchor="middle" x="143.5" y="-7.5" font-family="Helvetica,sans-Serif" font-size="10.00">hoovercalculator.cpp</text>
</a>
</g>
</g>
<!-- Node8&#45;&gt;Node9 -->
<g id="edge8" class="edge"><title>Node8&#45;&gt;Node9</title>
<path fill="none" stroke="midnightblue" d="M156.718,-46.6897C153.348,-37.589 149.431,-27.0141 146.741,-19.7511"/>
<polygon fill="midnightblue" stroke="midnightblue" points="153.442,-47.9211 160.197,-56.083 160.006,-45.4899 153.442,-47.9211"/>
</g>
<!-- Node8&#45;&gt;Node10 -->
<g id="edge9" class="edge"><title>Node8&#45;&gt;Node10</title>
<path fill="none" stroke="midnightblue" d="M188.074,-51.1774C205.739,-41.2407 229.013,-28.1492 244.114,-19.6545"/>
<polygon fill="midnightblue" stroke="midnightblue" points="185.924,-48.3708 178.924,-56.324 189.356,-54.4718 185.924,-48.3708"/>
</g>
<!-- Node12&#45;&gt;Node13 -->
<g id="edge13" class="edge"><title>Node12&#45;&gt;Node13</title>
<path fill="none" stroke="midnightblue" d="M510.111,-165.172C480.548,-155.004 438.627,-140.585 412.261,-131.516"/>
<polygon fill="midnightblue" stroke="midnightblue" points="509.028,-168.501 519.623,-168.444 511.305,-161.881 509.028,-168.501"/>
</g>
<!-- Node17 -->
<g id="node17" class="node"><title>Node17</title>
<g id="a_node17"><a xlink:href="../../d6/db7/imageblock_8cpp.html" target="_top" xlink:title="imageblock.cpp">
<polygon fill="white" stroke="black" points="502,-112.5 502,-131.5 587,-131.5 587,-112.5 502,-112.5"/>
<text text-anchor="middle" x="544.5" y="-119.5" font-family="Helvetica,sans-Serif" font-size="10.00">imageblock.cpp</text>
</a>
</g>
</g>
<!-- Node12&#45;&gt;Node17 -->
<g id="edge18" class="edge"><title>Node12&#45;&gt;Node17</title>
<path fill="none" stroke="midnightblue" d="M544.5,-157.805C544.5,-148.91 544.5,-138.78 544.5,-131.751"/>
<polygon fill="midnightblue" stroke="midnightblue" points="541,-158.083 544.5,-168.083 548,-158.083 541,-158.083"/>
</g>
<!-- Node13&#45;&gt;Node14 -->
<g id="edge14" class="edge"><title>Node13&#45;&gt;Node14</title>
<path fill="none" stroke="midnightblue" d="M364.262,-106.901C347.942,-96.9986 326.635,-84.0705 312.764,-75.6545"/>
<polygon fill="midnightblue" stroke="midnightblue" points="362.836,-110.129 373.201,-112.324 366.467,-104.144 362.836,-110.129"/>
</g>
<!-- Node15 -->
<g id="node15" class="node"><title>Node15</title>
<g id="a_node15"><a xlink:href="../../d9/d53/mainwindow_8h.html" target="_top" xlink:title="mainwindow.h">
<polygon fill="white" stroke="black" points="348,-56.5 348,-75.5 427,-75.5 427,-56.5 348,-56.5"/>
<text text-anchor="middle" x="387.5" y="-63.5" font-family="Helvetica,sans-Serif" font-size="10.00">mainwindow.h</text>
</a>
</g>
</g>
<!-- Node13&#45;&gt;Node15 -->
<g id="edge15" class="edge"><title>Node13&#45;&gt;Node15</title>
<path fill="none" stroke="midnightblue" d="M387.5,-101.805C387.5,-92.9102 387.5,-82.7798 387.5,-75.7511"/>
<polygon fill="midnightblue" stroke="midnightblue" points="384,-102.083 387.5,-112.083 391,-102.083 384,-102.083"/>
</g>
<!-- Node15&#45;&gt;Node10 -->
<g id="edge17" class="edge"><title>Node15&#45;&gt;Node10</title>
<path fill="none" stroke="midnightblue" d="M357.877,-52.503C333.881,-42.3795 300.716,-28.388 279.687,-19.5164"/>
<polygon fill="midnightblue" stroke="midnightblue" points="356.644,-55.7813 367.218,-56.4435 359.365,-49.3317 356.644,-55.7813"/>
</g>
<!-- Node16 -->
<g id="node16" class="node"><title>Node16</title>
<g id="a_node16"><a xlink:href="../../df/d0a/main_8cpp.html" target="_top" xlink:title="main.cpp">
<polygon fill="white" stroke="black" points="359.5,-0.5 359.5,-19.5 415.5,-19.5 415.5,-0.5 359.5,-0.5"/>
<text text-anchor="middle" x="387.5" y="-7.5" font-family="Helvetica,sans-Serif" font-size="10.00">main.cpp</text>
</a>
</g>
</g>
<!-- Node15&#45;&gt;Node16 -->
<g id="edge16" class="edge"><title>Node15&#45;&gt;Node16</title>
<path fill="none" stroke="midnightblue" d="M387.5,-45.8045C387.5,-36.9102 387.5,-26.7798 387.5,-19.7511"/>
<polygon fill="midnightblue" stroke="midnightblue" points="384,-46.083 387.5,-56.083 391,-46.083 384,-46.083"/>
</g>
<!-- Node19&#45;&gt;Node12 -->
<g id="edge22" class="edge"><title>Node19&#45;&gt;Node12</title>
<path fill="none" stroke="midnightblue" d="M485.067,-218.622C499.864,-208.757 519.012,-195.992 531.518,-187.655"/>
<polygon fill="midnightblue" stroke="midnightblue" points="482.893,-215.865 476.514,-224.324 486.776,-221.689 482.893,-215.865"/>
</g>
<!-- Node20 -->
<g id="node20" class="node"><title>Node20</title>
<g id="a_node20"><a xlink:href="../../d5/de2/initializer_8cpp.html" target="_top" xlink:title="initializer.cpp">
<polygon fill="white" stroke="black" points="415.5,-168.5 415.5,-187.5 489.5,-187.5 489.5,-168.5 415.5,-168.5"/>
<text text-anchor="middle" x="452.5" y="-175.5" font-family="Helvetica,sans-Serif" font-size="10.00">initializer.cpp</text>
</a>
</g>
</g>
<!-- Node19&#45;&gt;Node20 -->
<g id="edge23" class="edge"><title>Node19&#45;&gt;Node20</title>
<path fill="none" stroke="midnightblue" d="M459.65,-214.101C457.824,-205.136 455.73,-194.858 454.283,-187.751"/>
<polygon fill="midnightblue" stroke="midnightblue" points="456.258,-214.983 461.684,-224.083 463.117,-213.586 456.258,-214.983"/>
</g>
<!-- Node24&#45;&gt;Node12 -->
<g id="edge32" class="edge"><title>Node24&#45;&gt;Node12</title>
<path fill="none" stroke="midnightblue" d="M572.836,-270.674C565.402,-246.625 552.656,-205.388 547.156,-187.591"/>
<polygon fill="midnightblue" stroke="midnightblue" points="569.535,-271.848 575.832,-280.368 576.223,-269.781 569.535,-271.848"/>
</g>
<!-- Node24&#45;&gt;Node13 -->
<g id="edge34" class="edge"><title>Node24&#45;&gt;Node13</title>
<path fill="none" stroke="midnightblue" d="M587.467,-270.871C598.81,-245.043 614.191,-197.518 590.5,-168 568.526,-140.622 462.762,-128.87 413.213,-124.803"/>
<polygon fill="midnightblue" stroke="midnightblue" points="584.168,-269.665 583.121,-280.208 590.514,-272.619 584.168,-269.665"/>
</g>
<!-- Node24&#45;&gt;Node19 -->
<g id="edge33" class="edge"><title>Node24&#45;&gt;Node19</title>
<path fill="none" stroke="midnightblue" d="M551.019,-276.096C529.534,-266.007 500.278,-252.27 481.637,-243.516"/>
<polygon fill="midnightblue" stroke="midnightblue" points="549.738,-279.361 560.278,-280.444 552.714,-273.025 549.738,-279.361"/>
</g>
<!-- Node25 -->
<g id="node25" class="node"><title>Node25</title>
<g id="a_node25"><a xlink:href="../../db/da1/rag_8cpp.html" target="_top" xlink:title="rag.cpp">
<polygon fill="white" stroke="black" points="638,-224.5 638,-243.5 687,-243.5 687,-224.5 638,-224.5"/>
<text text-anchor="middle" x="662.5" y="-231.5" font-family="Helvetica,sans-Serif" font-size="10.00">rag.cpp</text>
</a>
</g>
</g>
<!-- Node24&#45;&gt;Node25 -->
<g id="edge35" class="edge"><title>Node24&#45;&gt;Node25</title>
<path fill="none" stroke="midnightblue" d="M600.432,-274.901C615.835,-264.999 635.946,-252.071 649.037,-243.655"/>
<polygon fill="midnightblue" stroke="midnightblue" points="598.515,-271.972 591.996,-280.324 602.301,-277.86 598.515,-271.972"/>
</g>
<!-- Node27&#45;&gt;Node23 -->
<g id="edge39" class="edge"><title>Node27&#45;&gt;Node23</title>
<path fill="none" stroke="midnightblue" d="M649.5,-381.805C649.5,-372.91 649.5,-362.78 649.5,-355.751"/>
<polygon fill="midnightblue" stroke="midnightblue" points="646,-382.083 649.5,-392.083 653,-382.083 646,-382.083"/>
</g>
<!-- Node27&#45;&gt;Node24 -->
<g id="edge40" class="edge"><title>Node27&#45;&gt;Node24</title>
<path fill="none" stroke="midnightblue" d="M671.791,-386.633C689.23,-373.551 708.653,-353.641 696.5,-336 674.111,-303.5 624.869,-294.456 597.605,-291.95"/>
<polygon fill="midnightblue" stroke="midnightblue" points="669.683,-383.837 663.536,-392.467 673.723,-389.554 669.683,-383.837"/>
</g>
</g>
</svg>
